<svg width="14" height="14" viewBox="0 0 14 14" fill="none" xmlns="http://www.w3.org/2000/svg">
<path d="M13.1833 14C11.5111 14 9.88115 13.6306 8.29344 12.8917C6.70522 12.1528 5.29874 11.1676 4.074 9.93611C2.84874 8.70463 1.86356 7.29478 1.11844 5.70656C0.372815 4.11885 0 2.48889 0 0.816667V0.408333C0 0.265741 0.0129629 0.12963 0.0388889 0H4.58889L5.30833 3.90833L3.09167 6.14444C3.63611 7.07778 4.32004 7.95278 5.14344 8.76944C5.96633 9.58611 6.87037 10.2926 7.85556 10.8889L10.1111 8.63333L14 9.41111V13.9611C13.8704 13.9741 13.7343 13.9839 13.5917 13.9907C13.4491 13.9969 13.313 14 13.1833 14Z" fill="white"/>
</svg>
