<svg width="68" height="68" viewBox="0 0 68 68" fill="none" xmlns="http://www.w3.org/2000/svg">
<circle cx="34" cy="34" r="33.5" fill="#3F48EE" stroke="#3F48EE"/>
<path d="M42.6775 44.639H36.3193L29.2456 49.3819C28.1965 50.087 26.7818 49.3339 26.7818 48.052V44.639C22.0131 44.639 18.834 41.4342 18.834 36.6271V27.0128C18.834 22.2057 22.0131 19.001 26.7818 19.001H42.6775C47.4462 19.001 50.6254 22.2057 50.6254 27.0128V36.6271C50.6254 41.4342 47.4462 44.639 42.6775 44.639Z" stroke="white" stroke-width="1.5" stroke-miterlimit="10" stroke-linecap="round" stroke-linejoin="round"/>
<path d="M34.7285 33.3103V32.9738C34.7285 31.8842 35.3962 31.3073 36.0638 30.8427C36.7155 30.394 37.3671 29.8172 37.3671 28.7596C37.3671 27.2854 36.1909 26.0996 34.7285 26.0996C33.2661 26.0996 32.0898 27.2854 32.0898 28.7596" stroke="white" stroke-width="1.5" stroke-linecap="round" stroke-linejoin="round"/>
<path d="M34.7212 37.1404H34.7355" stroke="white" stroke-width="1.5" stroke-linecap="round" stroke-linejoin="round"/>
</svg>
