<svg width="22" height="20" viewBox="0 0 22 20" fill="none" xmlns="http://www.w3.org/2000/svg">
<path fill-rule="evenodd" clip-rule="evenodd" d="M11.7121 14.5596C15.1094 13.9236 18.0987 11.8125 18.3051 8.7997C18.2342 7.24685 17.3151 5.85364 15.9687 4.87654C16.1561 4.90072 16.3434 4.93359 16.5305 4.97516C17.9696 5.29491 18.9729 6.03998 19.5405 7.21037C20.026 8.21136 20.0608 9.29302 19.6449 10.4553C19.2289 11.6177 18.4727 12.5979 17.376 13.3961C17.8185 14.1516 18.3425 14.8201 18.9478 15.4015C17.8581 15.6256 16.5182 15.3338 14.9282 14.5262C13.7943 14.8238 12.7223 14.835 11.7121 14.5596Z" fill="white"/>
<path d="M3.27109 8.56401C3.32692 6.93012 3.42485 5.74963 4.91531 4.64905C6.40577 3.54846 7.51211 3.29574 9.55447 3.36553C11.5968 3.43532 13.5451 3.58258 14.957 4.78235C16.3688 5.98211 17.0468 7.39894 16.991 9.03283C16.9433 10.4302 15.8408 11.3558 14.6965 12.4036C13.5523 13.4515 12.5841 11.8633 10.8969 12.1069C10.9455 13.2063 13.8438 11.2176 14.1755 12.219C12.8328 11.8287 10.6302 14.4521 7.88454 13.812C6.26167 13.4337 5.23875 12.979 4.22169 11.8788C3.20462 10.7786 3.22407 9.93992 3.27109 8.56401ZM6.25694 12.3143C6.38446 12.3617 6.49122 12.3869 6.57721 12.3898L7.15767 12.4096C5.92085 11.4418 5.32888 10.184 5.38178 8.6361C5.43982 6.93772 6.23672 5.66277 7.77248 4.81126C7.64496 4.76385 7.44145 4.73537 7.16197 4.72582C6.17304 4.69203 5.31654 5.03404 4.59249 5.75186C3.86844 6.46969 3.48805 7.36606 3.45132 8.44099C3.41899 9.38693 3.67019 10.2242 4.20491 10.9527C4.73963 11.6813 5.42364 12.1351 6.25694 12.3143Z" fill="#D9D9D9"/>
<path d="M17.3237 8.88278C17.3796 7.24888 16.7016 5.83206 15.2897 4.63229C13.8779 3.43253 12.1508 2.79775 10.1084 2.72795C8.06605 2.65816 6.29964 3.17355 4.80918 4.27413C3.31872 5.37472 2.54557 6.74195 2.48974 8.37584C2.44198 9.77325 2.95314 11.0337 4.02322 12.1572C5.09329 13.2807 6.46163 14.0216 8.12823 14.3799C8.00477 15.4734 7.7434 16.5084 7.34413 17.4848C8.7103 17.1871 10.1011 16.1692 11.5165 14.4311C13.1614 14.1645 14.5287 13.5171 15.6185 12.4889C16.7083 11.4607 17.2767 10.2587 17.3237 8.88278ZM12.9748 12.3824C12.8443 12.421 12.7361 12.4388 12.6501 12.4359L12.0696 12.4161C13.3696 11.535 14.0461 10.3205 14.099 8.77257C14.157 7.07419 13.449 5.74781 11.975 4.79344C12.1054 4.75485 12.3104 4.74033 12.5899 4.74988C13.5788 4.78368 14.41 5.18337 15.0833 5.94894C15.7567 6.71452 16.075 7.63477 16.0382 8.7097C16.0059 9.65564 15.6982 10.4738 15.1149 11.1641C14.5317 11.8545 13.8183 12.2606 12.9748 12.3824Z" fill="white"/>
<circle cx="8.23112" cy="9.15068" r="1.31218" fill="#D9D9D9"/>
<circle cx="11.905" cy="9.15068" r="1.31218" fill="#D9D9D9"/>
</svg>
