<svg width="60" height="60" viewBox="0 0 60 60" fill="none" xmlns="http://www.w3.org/2000/svg">
<circle cx="30" cy="30" r="30" fill="#FC7601"/>
<path d="M19.25 37.5833H39.6667M32.0833 30.5833H40.25M32.0833 23.5833H40.25M16 44H44.0833C45.1879 44 46.0833 43.1046 46.0833 42V18C46.0833 16.8954 45.1879 16 44.0833 16H16C14.8954 16 14 16.8954 14 18V42C14 43.1046 14.8954 44 16 44ZM28.5833 28V25.5833C28.5833 24.4788 27.6879 23.5833 26.5833 23.5833H22.4167C21.3121 23.5833 20.4167 24.4788 20.4167 25.5833V28C20.4167 29.1046 21.3121 30 22.4167 30H26.5833C27.6879 30 28.5833 29.1046 28.5833 28Z" stroke="#ffffff" stroke-width="1.8"/>
</svg>
