<svg width="150" height="150" viewBox="0 0 150 150" fill="none" xmlns="http://www.w3.org/2000/svg">
<path d="M75 150C116.421 150 150 116.421 150 75C150 33.5786 116.421 0 75 0C33.5786 0 0 33.5786 0 75C0 116.421 33.5786 150 75 150Z" fill="url(#paint0_linear_452_1832)"/>
<path d="M76.271 137.289C108.3 137.289 134.656 111.51 134.738 78.8322C134.738 78.8212 134.746 78.8103 134.746 78.7975C134.736 46.4885 108.591 20.3394 76.271 20.3394C43.9638 20.3412 17.8037 46.4811 17.7964 78.7957L17.7982 78.8066V78.8139C17.7982 111.128 43.9491 137.287 76.271 137.289ZM41.0638 80.623H46.3886C46.7705 87.2993 49.3964 93.6509 53.8405 98.6478L50.0871 102.403C44.5449 96.2576 41.4877 88.9611 41.0638 80.6212V80.623ZM41.0656 76.9683C41.4676 69.2442 44.289 61.6425 50.0999 55.2213L53.8405 58.9618C49.4165 63.9504 46.8107 70.0811 46.3941 76.9683H41.0656ZM60.1777 125.895C59.5034 126.504 58.5057 126.809 57.1808 126.809C55.9931 126.809 54.9533 126.526 54.0671 125.961C53.9702 125.893 53.8971 125.822 53.8478 125.749C53.7985 125.676 53.7747 125.572 53.7747 125.435C53.7747 125.259 53.8295 125.111 53.9355 124.989C54.0451 124.868 54.184 124.806 54.3594 124.806C54.4691 124.806 54.5696 124.832 54.6664 124.879C55.4357 125.288 56.216 125.493 57.0054 125.493C57.9319 125.493 58.6372 125.338 59.1251 125.027C59.6112 124.715 59.8561 124.183 59.8561 123.432C59.8561 122.829 59.6532 122.352 59.2494 122.001C58.8437 121.65 58.2919 121.475 57.5902 121.475C56.7807 121.475 56.0315 121.683 55.3389 122.103C55.2819 122.133 55.2259 122.165 55.1708 122.198C55.0653 122.255 54.9468 122.283 54.8272 122.279C54.5774 122.287 54.3331 122.204 54.1402 122.045C54.0502 121.971 53.9786 121.877 53.9307 121.77C53.8829 121.664 53.8601 121.548 53.8642 121.431C53.8642 121.314 53.8715 121.197 53.8916 121.08L54.5495 117.192C54.5787 116.969 54.6646 116.79 54.8053 116.658C54.946 116.526 55.1196 116.462 55.3243 116.462H60.015C60.1905 116.462 60.3385 116.523 60.4609 116.645C60.5833 116.766 60.6436 116.914 60.6436 117.091C60.6429 117.173 60.6261 117.253 60.594 117.328C60.562 117.403 60.5154 117.471 60.4569 117.528C60.3985 117.585 60.3293 117.63 60.2535 117.66C60.1776 117.69 60.0966 117.705 60.015 117.703H55.7756L55.3097 120.802C56.0696 120.398 56.9194 120.192 57.7802 120.203C58.5002 120.203 59.1178 120.344 59.6276 120.627C60.1393 120.91 60.5267 121.299 60.7916 121.796C61.053 122.292 61.1845 122.864 61.1845 123.507C61.1845 124.49 60.8483 125.287 60.1777 125.895ZM74.4436 114.021C66.4509 113.612 59.0484 110.748 52.6746 104.989L56.4298 101.233C61.422 105.68 67.7695 108.31 74.4436 108.698V114.021ZM78.0983 133.603V117.731C86.705 117.341 95.531 113.948 102.482 107.6L113.726 118.843C103.977 127.98 91.4506 133.17 78.0983 133.603ZM94.5991 66.516C94.5991 66.3643 94.7855 66.3552 94.8549 66.4612C94.9481 66.5525 94.8805 67.1044 95.9513 67.3383C96.8869 67.5704 97.3675 67.426 97.5228 67.5028C97.6873 67.5759 97.7421 67.7586 97.8335 67.9048C98.1624 68.453 98.8933 68.3433 99.3867 68.1058C99.5694 68.0144 99.8253 67.8317 100.026 67.9596C100.264 68.1058 100.264 68.5261 100.191 68.7453C100.045 69.1474 99.6608 69.4032 99.2588 69.5311C97.976 69.8893 97.2907 69.1656 96.5361 68.9829C96.0792 68.855 95.4945 68.9829 95.2935 69.4215C95.2003 69.6572 95.1802 69.7321 94.928 69.7321C93.8316 69.7138 92.79 68.8367 92.589 67.7586C92.589 67.722 92.5708 67.6855 92.5525 67.6672C92.5342 67.6307 92.4977 67.6307 92.4611 67.6124C90.0856 67.0532 88.1102 68.6357 87.1984 67.9048C87.7375 67.3657 88.9581 67.7001 89.2633 66.4795C89.2816 66.3698 89.2998 66.2602 89.3729 66.1871C89.5191 66.0409 89.7932 66.114 89.9029 65.9495C90.0125 65.8216 89.9394 65.6206 90.0308 65.4927C90.1404 65.3831 90.3231 65.4379 90.4693 65.4379C90.9079 65.4379 91.2368 64.9628 91.6571 65.0176C91.8764 65.0487 92.1395 65.2442 93.4844 66.0409C93.5575 66.0774 93.6306 66.1323 93.6672 66.2054C93.7951 66.4064 93.5758 66.6805 93.6306 66.8997C93.3748 67.0094 93.0824 67.0825 92.8083 67.1373C92.7188 67.722 94.1496 67.7842 94.5991 66.516ZM106.133 76.9683C105.739 70.3015 103.11 63.962 98.6704 58.9728L102.427 55.2158C107.745 61.0998 111.023 68.3726 111.465 76.9683H106.133ZM111.469 80.623C111.049 88.9227 107.871 96.3929 102.447 102.396L98.7033 98.6514C102.998 93.8163 105.726 87.7149 106.15 80.623H111.469ZM99.8655 104.983C94.0016 110.292 86.769 113.572 78.0983 114.021V108.704C84.7665 108.288 91.1044 105.655 96.1048 101.224L99.8655 104.983ZM116.311 116.258L105.068 105.011C111.182 98.3006 114.771 89.4289 115.169 80.6248H131.062C130.662 93.9052 125.415 106.58 116.311 116.258ZM131.06 76.9683H115.168C114.753 68.2154 111.217 59.3437 105.05 52.6045L116.297 41.3537C125.402 51.0244 130.651 63.6923 131.06 76.9683ZM78.0983 24.0233C91.3713 24.4271 104.038 29.6722 113.711 38.7698L102.464 50.0207C95.986 44.1129 87.2861 40.3377 78.0983 39.9155V24.0233ZM78.0983 43.6177C86.557 44.049 93.9851 47.351 99.8508 52.6411L96.0884 56.4017C90.758 51.6909 84.673 49.3263 78.0983 48.9316V43.6177ZM76.2618 56.2099C76.0974 56.9298 75.9274 58.5854 76.2691 59.1208C76.5341 59.5411 77.1408 59.6142 77.6031 59.4387C78.0654 59.2615 78.429 58.8997 78.8036 58.5744C81.6086 56.1623 83.6625 56.8275 84.1486 56.0673C84.282 55.8572 84.2765 55.5849 84.3861 55.362C84.5908 54.949 85.1116 54.8686 85.6178 54.2144C87.8762 55.0798 90.0039 56.2537 91.9403 57.7028C90.9115 58.6768 91.0376 58.41 90.5972 59.5539C91.0358 59.9193 91.8398 59.5173 92.2236 59.9376C91.5146 60.1752 91.542 60.7983 91.4744 60.9975C91.3885 61.2533 90.6411 61.9787 90.1039 62.0939C89.6653 62.167 89.1536 61.8929 89.1354 61.4726C89.1354 61.3264 89.1902 61.1436 89.0805 61.034C89.0075 60.9426 88.8795 60.9244 88.8247 60.833C88.7334 60.7051 88.8247 60.5224 88.8247 60.3579C88.7699 59.7914 87.6717 59.7074 87.3994 59.9193C87.0888 60.1203 87.1436 60.6503 86.8512 60.8878C86.6228 61.0779 86.2116 61.0377 86.2116 61.8929C86.1934 62.0939 86.2116 62.3131 86.3396 62.4411C86.6849 62.7426 87.0796 62.3497 87.4908 62.3131C87.6918 62.2949 87.9293 62.4045 87.9476 62.6055C87.9476 62.9618 87.478 63.0678 88.0207 63.5192C88.4227 63.8298 88.6603 64.3232 88.6968 64.8166C87.7649 65.14 86.4876 64.7307 85.9193 65.6023C85.7128 65.8783 85.4624 66.7791 85.6817 67.1373C85.943 67.596 86.9901 67.5082 87.0888 67.9048C87.1253 68.1423 86.6137 68.1789 86.6319 68.4347C85.4496 69.098 85.5721 69.3411 85.3528 69.86C85.1152 70.4813 84.4757 70.8285 83.9823 71.2671C83.1052 72.0528 82.5935 73.2406 82.6301 74.4101C82.6483 74.9948 82.7945 75.5613 82.9407 76.1095C83.1892 77.2205 83.4231 77.7047 84.2564 78.686C84.9873 79.4773 85.4076 79.8829 87.436 79.618C90.8275 79.1849 90.7526 78.9967 91.7302 79.9103C91.118 82.359 91.4469 83.1136 92.0956 84.1497C93.6891 86.7847 92.8174 87.2763 92.7718 88.3161C92.7425 88.8131 93.3053 91.5742 93.6672 92.391C93.8682 92.793 94.124 93.1768 94.3981 93.5239C95.0651 94.5016 95.5146 94.9182 96.8394 95.1795C91.9805 101.261 84.5268 105.109 76.3422 105.131C72.8855 105.148 69.4597 104.48 66.2625 103.166C63.0653 101.852 60.16 99.9176 57.7144 97.4746C55.2567 95.0438 53.3055 92.1497 51.9736 88.9598C50.6418 85.7699 49.9559 82.3475 49.9556 78.8907C49.9479 76.0254 50.4109 73.1783 51.3261 70.463C51.7884 72.3196 51.7774 73.0524 52.3786 73.7175C52.0975 72.5479 52.1354 71.3243 52.4883 70.1743C53.8441 71.8628 53.4695 73.4398 53.6614 74.0976C54.0123 75.2963 55.5856 75.5777 56.8282 75.4352C57.4403 75.3621 57.645 75.3731 58.3083 75.8811C61.0913 78.019 61.5098 78.4686 62.1695 78.401C62.6482 78.3516 63.0393 77.7029 62.6902 77.3685C62.2371 77.3904 61.7766 77.3046 61.3636 77.1182C61.4732 76.4932 61.5244 75.861 61.5208 75.2287L61.1041 75.6015C60.1228 75.4114 59.6057 74.0464 60.216 73.2515C59.814 73.003 59.2695 73.1236 58.8967 73.4123C58.5239 73.7011 58.2845 74.125 58.0561 74.5362C57.0054 73.8783 56.7277 72.263 57.4988 71.2945C58.449 70.0957 60.2672 70.1999 61.7839 70.4174C61.7437 71.1647 62.767 71.7111 63.3682 71.2634C62.5824 68.4694 64.6163 69.3721 65.1297 68.5864C65.2759 68.3579 65.2576 68.0637 65.3435 67.8043C65.6505 66.8687 67.0704 66.8065 67.5619 65.9514C67.6862 65.7376 67.7392 65.4854 67.878 65.2789C68.0169 65.0706 68.2947 64.9189 68.5121 65.0413C68.6419 65.1126 68.7095 65.2588 68.8173 65.3593C69.1206 65.6425 69.6213 65.4945 69.9648 65.2606C70.3084 65.0267 70.6318 64.7069 71.0466 64.6759C71.551 64.6357 72.0224 65.0432 72.5231 64.9664C73.307 64.8422 73.4806 63.711 74.1787 63.3364L71.9493 58.7626C72.366 58.1742 72.8886 57.6626 73.4843 57.2569C73.5702 56.6539 73.0439 56.1569 72.609 55.7256C71.7776 54.8923 71.6953 53.9275 72.9233 53.6753C73.8765 53.4848 74.8664 53.6555 75.7008 54.1541C76.5871 54.6913 76.4866 55.2267 76.2618 56.2099ZM74.4436 48.9188C67.773 49.3226 61.4287 51.9442 56.4188 56.367L52.6911 52.6393C58.7834 47.128 66.0489 44.0398 74.4436 43.6159V48.9188ZM74.4436 24.0233V39.9155C65.7711 40.3139 56.8958 43.7913 50.0762 50.017L38.8308 38.7716C48.5039 29.6753 61.1697 24.4304 74.4418 24.0251L74.4436 24.0233ZM36.2415 41.3591L47.485 52.6045C41.6833 58.9618 37.802 67.585 37.3561 76.9683H21.4821C21.8907 63.695 27.1403 51.0295 36.2415 41.3591ZM37.3543 80.6248C37.7864 89.6859 41.3644 98.3127 47.4722 105.02L36.2342 116.258C27.1306 106.58 21.8828 93.9054 21.4803 80.6248H37.3543Z" fill="white"/>
<defs>
<linearGradient id="paint0_linear_452_1832" x1="0" y1="75" x2="150" y2="75" gradientUnits="userSpaceOnUse">
<stop stop-color="#EC008C"/>
<stop offset="1" stop-color="#FC6767"/>
</linearGradient>
</defs>
</svg>
