<svg width="68" height="68" viewBox="0 0 68 68" fill="none" xmlns="http://www.w3.org/2000/svg">
<circle cx="34" cy="34" r="33.5" fill="#3F48EE" stroke="#3F48EE"/>
<path d="M43.2223 32.0885V38.4173C43.2223 38.8287 43.2066 39.2243 43.1595 39.604C42.7985 43.8759 40.3029 45.996 35.7041 45.996H35.0763C34.6839 45.996 34.3071 46.1859 34.0717 46.5024L32.1883 49.0339C31.3564 50.1573 30.0065 50.1573 29.1747 49.0339L27.2912 46.5024C27.0871 46.2334 26.632 45.996 26.2867 45.996H25.6589C20.6519 45.996 18.1406 44.7461 18.1406 38.4173V32.0885C18.1406 27.4527 20.2596 24.937 24.4817 24.5731C24.8584 24.5256 25.2508 24.5098 25.6589 24.5098H35.7041C40.711 24.5098 43.2223 27.0413 43.2223 32.0885Z" stroke="white" stroke-width="1.5" stroke-miterlimit="10" stroke-linecap="round" stroke-linejoin="round"/>
<path d="M49.4994 25.7595V32.0883C49.4994 36.74 47.3804 39.2399 43.1583 39.6038C43.2054 39.224 43.2211 38.8285 43.2211 38.4171V32.0883C43.2211 27.041 40.7098 24.5095 35.7029 24.5095H25.6576C25.2496 24.5095 24.8572 24.5253 24.4805 24.5728C24.8415 20.3167 27.3371 18.1807 31.9359 18.1807H41.9811C46.988 18.1807 49.4994 20.7122 49.4994 25.7595Z" stroke="white" stroke-width="1.5" stroke-miterlimit="10" stroke-linecap="round" stroke-linejoin="round"/>
<path d="M36.182 35.9799H36.1961" stroke="white" stroke-width="2" stroke-linecap="round" stroke-linejoin="round"/>
<path d="M30.6879 35.9799H30.702" stroke="white" stroke-width="2" stroke-linecap="round" stroke-linejoin="round"/>
<path d="M25.1957 35.9799H25.2098" stroke="white" stroke-width="2" stroke-linecap="round" stroke-linejoin="round"/>
</svg>
