<svg width="18" height="12" viewBox="0 0 18 12" fill="none" xmlns="http://www.w3.org/2000/svg">
<path d="M16.6779 11.192L12.9599 8.794V9.52C12.9599 10.488 12.1679 11.28 11.1999 11.28H2.39989C1.43189 11.28 0.639893 10.488 0.639893 9.52V2.48C0.639893 1.512 1.43189 0.720001 2.39989 0.720001H11.1999C12.1679 0.720001 12.9599 1.512 12.9599 2.48V3.206L16.6779 0.808002C17.0959 0.588001 17.3599 0.962001 17.3599 1.182V10.84C17.3599 11.06 17.1179 11.456 16.6779 11.192ZM12.0799 2.48C12.0799 1.996 11.6839 1.6 11.1999 1.6H2.39989C1.91589 1.6 1.51989 1.996 1.51989 2.48V9.52C1.51989 10.004 1.91589 10.4 2.39989 10.4H11.1999C11.6839 10.4 12.0799 10.004 12.0799 9.52V2.48ZM16.4799 1.974L12.9599 4.24V7.76L16.4799 10.026V1.974Z" fill="black" fill-opacity="0.5"/>
</svg>
