<svg width="238" height="161" viewBox="0 0 238 161" fill="none" xmlns="http://www.w3.org/2000/svg">
<path d="M117.874 28.8927C120.047 28.8927 121.809 27.1311 121.809 24.9581C121.809 22.785 120.047 21.0234 117.874 21.0234C115.701 21.0234 113.939 22.785 113.939 24.9581C113.939 27.1311 115.701 28.8927 117.874 28.8927Z" fill="#0B16ED"/>
<path d="M108.482 50.9775C107.212 51.1044 106.07 50.3429 105.689 49.2006C105.309 47.9313 105.816 46.6621 106.832 46.0275L113.432 42.4736L113.178 37.3967L111.782 40.316C111.612 40.5698 111.443 40.7813 111.274 40.9506L106.959 45.3929C106.578 45.7737 106.07 45.9006 105.563 45.9006C105.055 45.9006 104.547 45.7737 104.166 45.3929C103.278 44.5044 103.278 43.3621 104.166 42.4736L108.228 38.4121L111.02 32.5736C111.655 31.0506 112.797 30.1621 114.32 30.1621H121.428C122.951 30.1621 124.093 31.0506 124.728 32.5736L127.393 38.4121L131.582 42.4736C132.343 43.3621 132.343 44.6313 131.582 45.3929C131.201 45.7737 130.693 45.9006 130.186 45.9006C129.678 45.9006 129.17 45.7737 128.789 45.3929L124.347 40.9506C124.178 40.7813 124.051 40.5698 123.966 40.316L122.57 37.3967L122.316 42.4736L128.789 46.0275C129.932 46.6621 130.439 47.9313 130.059 49.2006C129.678 50.3429 128.536 51.1044 127.266 50.9775L117.874 49.7083L108.482 50.9775Z" fill="#0B16ED"/>
<path fill-rule="evenodd" clip-rule="evenodd" d="M149.731 36.0003C149.731 53.6426 135.516 67.858 117.873 67.858C100.231 67.858 86.0156 53.6426 86.0156 36.0003C86.0156 18.358 100.231 4.14258 117.873 4.14258C135.516 4.14258 149.731 18.358 149.731 36.0003ZM137.673 13.408L135.643 25.5926L147.319 29.908C145.923 23.4349 142.496 17.7233 137.673 13.408V13.408ZM101.754 24.1964C103.658 21.531 106.323 19.3733 109.496 17.8503L100.104 14.5503L101.754 24.1964ZM135.643 14.2964L126.377 17.7233C129.423 19.1195 132.089 21.4041 134.119 24.0695L135.643 14.2964ZM136.023 35.8733C136.023 25.8464 127.9 17.7233 117.873 17.7233C107.846 17.7233 99.5964 25.8464 99.5964 35.8733C99.5964 37.0157 99.7233 38.031 99.9772 39.0464C101.5 47.5503 108.862 54.0233 117.873 54.0233C126.758 54.0233 134.246 47.5503 135.769 39.0464C135.896 38.031 136.023 36.8887 136.023 35.8733V35.8733ZM117.873 15.8195C119.65 15.8195 121.343 16.031 122.95 16.4541L117.873 7.82335L112.796 16.4541C114.446 16.0733 116.096 15.8195 117.873 15.8195ZM136.277 12.1387C131.454 8.33104 125.362 6.04642 118.889 5.79258L124.854 16.2003L136.277 12.1387ZM116.858 5.9195C110.258 6.17335 104.166 8.45796 99.3425 12.1387L110.766 16.3272L116.858 5.9195ZM99.7233 27.4964L90.5849 31.0503L97.9464 37.2695C97.9464 36.8887 97.8195 36.381 97.8195 35.8733C97.8195 32.9541 98.4541 30.1618 99.7233 27.4964ZM98.7079 41.458L93.8849 49.9618H103.658C101.373 47.6772 99.5964 44.758 98.7079 41.458V41.458ZM106.577 52.3734L108.354 62.2733L116.096 55.8003C112.669 55.5464 109.369 54.2772 106.577 52.3734V52.3734ZM119.65 55.8003L127.266 62.2733L129.169 52.5003C126.377 54.2772 123.204 55.5464 119.65 55.8003ZM132.089 49.9618L141.862 49.8349L137.166 41.458C136.15 44.758 134.373 47.6772 132.089 49.9618ZM137.927 35.8733C137.927 36.381 137.927 36.8464 137.927 37.2695L145.162 30.9233L136.023 27.4964C137.293 30.1618 137.927 32.9541 137.927 35.8733ZM88.4272 29.908L100.104 25.4657L98.0733 13.281C93.2502 17.5964 89.8233 23.308 88.4272 29.908ZM87.9195 35.8733C87.9195 41.2041 89.1887 46.1541 91.6002 50.4695L97.6925 39.5541L88.1733 31.3041C87.9195 32.8272 87.8349 34.3503 87.9195 35.8733V35.8733ZM106.831 63.7964L104.673 51.8657L92.3618 51.7387C95.7887 57.1964 100.866 61.5118 106.831 63.7964ZM117.873 65.9541C121.173 65.9541 124.219 65.4464 127.139 64.431L117.873 56.6887L108.608 64.431C111.569 65.4464 114.658 65.9541 117.873 65.9541ZM143.385 51.7387L131.073 51.8657L128.916 63.7964C135.008 61.5118 139.958 57.1964 143.385 51.7387V51.7387ZM147.954 35.8733C147.954 34.3503 147.827 32.8272 147.573 31.3041L138.054 39.5541L144.146 50.4695C146.558 46.1541 147.954 41.2041 147.954 35.8733Z" fill="#0B16ED"/>
<path fill-rule="evenodd" clip-rule="evenodd" d="M37.1384 142.337C37.6415 141.747 38.3124 141.241 39.1509 140.819C39.9895 140.313 40.7023 140.06 41.2893 140.06C41.8763 140.06 42.2956 140.229 42.5472 140.566C42.8826 140.904 43.0503 141.325 43.0503 141.831C43.0503 142.422 42.8407 142.928 42.4214 143.349C42.0021 143.771 41.1216 144.361 39.7799 145.12C38.4382 145.795 37.1803 146.596 36.0063 147.524C37.6834 147.271 39.2348 147.145 40.6604 147.145C40.9958 147.145 41.2474 147.187 41.4151 147.271V148.41C41.1635 148.41 40.9958 148.41 40.912 148.41C40.8281 148.41 40.6604 148.41 40.4088 148.41C40.2411 148.41 39.8637 148.452 39.2767 148.536C38.6897 148.536 38.0608 148.578 37.3899 148.663C36.8029 148.747 36.3836 148.789 36.1321 148.789C35.9644 148.789 35.8386 148.789 35.7547 148.789C35.587 148.789 35.4193 148.663 35.2516 148.41C35.0839 148.157 35 147.946 35 147.777C35.1677 147.355 35.6709 146.807 36.5094 146.133C37.348 145.373 38.4382 144.657 39.7799 143.982C40.1992 143.813 40.5765 143.56 40.912 143.223C41.2474 142.886 41.4151 142.548 41.4151 142.211C41.4151 141.705 41.1216 141.452 40.5346 141.452C39.696 141.452 38.6897 141.958 37.5157 142.97L37.1384 142.337ZM45.566 148.283C45.566 147.608 45.7338 146.849 46.0692 146.006C45.3145 146.006 44.7275 146.048 44.3082 146.133C43.805 146.301 43.5535 146.386 43.5535 146.386C43.218 146.386 42.9665 146.259 42.7987 146.006C42.7149 145.837 42.673 145.669 42.673 145.5C42.673 145.331 42.673 145.205 42.673 145.12C42.7568 144.699 43.26 144.066 44.1824 143.223C45.1048 142.38 46.0692 141.62 47.0755 140.946C48.1656 140.187 48.8784 139.807 49.2138 139.807C49.3816 139.807 49.5073 139.892 49.5912 140.06C49.7589 140.145 49.8428 140.313 49.8428 140.566C49.8428 140.735 49.717 141.03 49.4654 141.452C49.2977 141.789 49.13 142.127 48.9623 142.464C48.7945 142.801 48.6268 143.054 48.4591 143.223C48.2914 143.729 48.1237 144.193 47.956 144.614C48.3753 144.53 48.7107 144.488 48.9623 144.488C49.2977 144.488 49.5493 144.53 49.717 144.614C49.5493 145.373 49.4654 145.753 49.4654 145.753L47.4528 145.88C47.1174 146.386 46.8658 147.313 46.6981 148.663L45.6918 148.789C45.608 148.705 45.566 148.536 45.566 148.283V148.283ZM46.5723 144.741C46.8239 143.982 47.369 142.801 48.2075 141.199C47.5367 141.536 46.6981 142.127 45.6918 142.97C44.7694 143.813 44.1405 144.53 43.805 145.12C44.979 144.867 45.9015 144.741 46.5723 144.741V144.741ZM53.239 146.006C52.4843 146.596 51.5199 147.608 50.3459 149.042L49.8428 148.663C50.0943 148.157 51.0587 147.018 52.7358 145.247C52.3166 144.066 52.065 143.139 51.9811 142.464L53.239 142.211C53.3229 142.295 53.5325 143.054 53.8679 144.488C55.4612 143.392 56.5514 142.675 57.1384 142.337L57.5157 142.843C57.2642 143.012 56.8868 143.265 56.3836 143.602C55.0419 144.53 54.3291 145.036 54.2453 145.12C54.9161 146.554 55.6709 147.777 56.5094 148.789L55.7547 149.295C54.7484 148.536 53.9099 147.44 53.239 146.006V146.006ZM64.434 140.187C64.6017 140.355 64.6855 140.566 64.6855 140.819C64.6855 141.072 64.4759 141.325 64.0566 141.578C63.7212 141.916 63.3438 142.253 62.9245 142.59C62.5052 142.928 62.0859 143.349 61.6667 143.855C61.1635 144.361 60.7442 144.867 60.4088 145.373C59.5702 146.554 59.1509 147.693 59.1509 148.789L57.7673 148.916C57.7673 147.988 58.1447 146.807 58.8994 145.373C59.3187 144.614 59.8218 143.855 60.4088 143.096C61.0797 142.337 61.8344 141.705 62.673 141.199C61.499 141.199 59.9895 141.452 58.1447 141.958L57.8931 140.819C58.2285 140.651 59.0252 140.482 60.283 140.313C61.6247 140.145 62.5891 140.06 63.1761 140.06C63.847 140.06 64.2662 140.102 64.434 140.187V140.187ZM85.3145 143.602V144.741C84.979 144.657 84.6855 144.614 84.434 144.614C84.0985 144.614 83.805 144.614 83.5535 144.614C83.3857 145.964 83.3019 147.44 83.3019 149.042H82.044C81.9602 148.705 81.9182 148.283 81.9182 147.777C81.9182 147.271 81.9182 146.807 81.9182 146.386C81.9182 146.048 81.9602 145.669 82.044 145.247C82.1279 144.91 82.1698 144.699 82.1698 144.614C82.0021 144.614 81.5828 144.614 80.9119 144.614C80.3249 144.614 79.9057 144.614 79.6541 144.614C78.2285 146.47 76.9287 147.904 75.7547 148.916C74.5807 149.843 73.4067 150.307 72.2327 150.307C71.6457 150.307 71.1845 150.139 70.8491 149.801C70.4298 149.464 70.2201 149 70.2201 148.41C70.2201 147.313 71.0587 146.343 72.7358 145.5C74.413 144.572 76.5514 143.94 79.1509 143.602C79.4864 143.096 80.0734 142.337 80.9119 141.325C81.7505 140.313 82.5891 139.47 83.4277 138.795C83.7631 137.952 84.0566 137.361 84.3082 137.024C84.4759 136.687 84.6855 136.518 84.9371 136.518C85.1048 136.518 85.2725 136.56 85.4402 136.645C85.5241 136.813 85.566 137.024 85.566 137.277C85.566 137.53 85.4403 137.91 85.1887 138.416C84.9371 138.922 84.6855 139.639 84.434 140.566C84.0985 141.578 83.8889 142.548 83.805 143.476C84.392 143.476 84.8952 143.518 85.3145 143.602V143.602ZM76.1321 147.398C77.1384 146.47 77.8931 145.542 78.3962 144.614C76.3836 144.783 74.8323 145.163 73.7421 145.753C72.652 146.428 72.1069 147.145 72.1069 147.904C72.1069 148.157 72.2327 148.367 72.4843 148.536C72.652 148.789 72.9036 148.916 73.239 148.916C74.1614 148.916 75.1258 148.41 76.1321 147.398V147.398ZM82.2956 143.476C82.3795 143.054 82.5052 142.506 82.673 141.831C82.8407 141.241 82.9245 140.904 82.9245 140.819C82.3375 141.325 81.9182 141.705 81.6667 141.958C81.4989 142.211 81.1216 142.717 80.5346 143.476C80.7023 143.476 80.9539 143.476 81.2893 143.476C81.5409 143.476 81.7505 143.476 81.9182 143.476C82.1698 143.476 82.2956 143.476 82.2956 143.476V143.476ZM92.2327 141.958L92.1069 142.59C91.8553 142.59 91.5618 142.59 91.2264 142.59C90.0524 142.59 89.4654 142.97 89.4654 143.729C89.4654 143.898 89.717 144.404 90.2201 145.247C90.7233 146.09 90.9748 146.639 90.9748 146.892C90.9748 147.566 90.7233 148.072 90.2201 148.41C89.8008 148.831 89.2138 149.042 88.4591 149.042C87.4528 149.042 86.6562 148.452 86.0692 147.271L86.8239 146.765C86.9916 146.934 87.1593 147.102 87.327 147.271C87.4948 147.44 87.6205 147.566 87.7044 147.651C87.956 147.904 88.2075 148.03 88.4591 148.03C88.7945 148.03 89.0461 147.904 89.2138 147.651C89.4654 147.482 89.5912 147.229 89.5912 146.892C89.5912 146.639 89.2977 146.09 88.7107 145.247C88.2075 144.488 87.956 143.94 87.956 143.602C87.956 143.012 88.2075 142.548 88.7107 142.211C89.2138 141.873 89.8847 141.705 90.7233 141.705C91.478 141.705 91.9811 141.789 92.2327 141.958V141.958ZM96.5094 147.018L96.8868 147.398C96.6352 147.904 96.2998 148.283 95.8805 148.536C95.3774 148.789 94.9161 148.916 94.4969 148.916C94.0776 148.916 93.7421 148.789 93.4906 148.536C93.239 148.283 93.1132 147.946 93.1132 147.524C93.1132 146.512 93.4906 145.12 94.2453 143.349C93.6583 143.434 93.0713 143.56 92.4843 143.729L92.3585 143.096L92.2327 142.97C92.9036 142.717 93.7002 142.548 94.6226 142.464C94.7065 142.211 94.9161 141.747 95.2516 141.072C95.9224 139.723 96.4256 138.837 96.761 138.416L97.5157 138.669C97.4319 138.922 97.2222 139.386 96.8868 140.06C96.5514 140.651 96.2159 141.325 95.8805 142.084C96.3836 142.084 96.8029 142.084 97.1384 142.084C97.4738 142.084 97.7254 142.127 97.8931 142.211V142.97C97.7254 142.97 97.4738 142.97 97.1384 142.97C96.8029 142.97 96.2159 143.012 95.3774 143.096C94.7065 144.699 94.3711 145.88 94.3711 146.639C94.3711 146.892 94.4549 147.102 94.6226 147.271C94.7904 147.44 95.0419 147.524 95.3774 147.524C95.6289 147.524 96.0063 147.355 96.5094 147.018V147.018ZM103.302 142.59C103.637 142.59 103.889 142.675 104.057 142.843C104.224 143.096 104.308 143.392 104.308 143.729C104.308 144.319 103.931 144.994 103.176 145.753L102.799 145.373C102.966 145.036 103.05 144.783 103.05 144.614C103.05 144.277 102.841 144.108 102.421 144.108C102.086 144.108 101.751 144.319 101.415 144.741C101.08 145.247 100.702 145.964 100.283 146.892C99.8637 147.904 99.5283 148.578 99.2767 148.916L98.2704 148.536C98.9413 147.018 99.3187 146.133 99.4025 145.88C99.7379 144.952 99.9057 143.729 99.9057 142.211L100.912 141.958C100.912 142.717 100.87 143.349 100.786 143.855C100.702 144.277 100.535 144.952 100.283 145.88C101.457 143.687 102.463 142.59 103.302 142.59V142.59ZM108.836 143.855L109.717 143.602C110.052 144.108 110.22 144.699 110.22 145.373C110.22 146.301 109.885 147.145 109.214 147.904C108.543 148.663 107.746 149.042 106.824 149.042C106.153 149.042 105.608 148.873 105.189 148.536C104.853 148.114 104.686 147.524 104.686 146.765C104.686 145.669 105.105 144.657 105.943 143.729C106.866 142.801 107.872 142.337 108.962 142.337C109.13 142.337 109.256 142.337 109.34 142.337L109.465 142.97C108.459 142.97 107.662 143.265 107.075 143.855C106.405 144.361 106.069 145.078 106.069 146.006C106.069 146.512 106.195 146.892 106.447 147.145C106.698 147.482 107.075 147.651 107.579 147.651C108.082 147.651 108.459 147.44 108.711 147.018C109.046 146.596 109.214 146.09 109.214 145.5C109.214 144.91 109.088 144.361 108.836 143.855V143.855ZM113.365 147.271L113.742 147.524C113.407 148.199 113.071 148.663 112.736 148.916C112.484 149.253 112.149 149.422 111.73 149.422C111.394 149.422 111.101 149.253 110.849 148.916C110.681 148.663 110.597 148.325 110.597 147.904C110.597 147.06 111.143 145.205 112.233 142.337C113.323 139.554 114.455 137.108 115.629 135L116.384 135.38C115.21 137.741 114.161 140.06 113.239 142.337C112.233 144.53 111.73 146.133 111.73 147.145C111.73 147.735 111.939 148.03 112.358 148.03C112.694 148.03 113.029 147.777 113.365 147.271V147.271ZM119.654 143.855L120.66 143.602C120.912 144.108 121.038 144.699 121.038 145.373C121.038 146.301 120.702 147.145 120.031 147.904C119.361 148.663 118.606 149.042 117.767 149.042C117.013 149.042 116.468 148.873 116.132 148.536C115.713 148.114 115.503 147.524 115.503 146.765C115.503 145.669 115.922 144.657 116.761 143.729C117.683 142.801 118.69 142.337 119.78 142.337C120.031 142.337 120.199 142.337 120.283 142.337V142.97C119.361 142.97 118.564 143.265 117.893 143.855C117.306 144.361 117.013 145.078 117.013 146.006C117.013 146.512 117.138 146.892 117.39 147.145C117.642 147.482 117.977 147.651 118.396 147.651C118.899 147.651 119.319 147.44 119.654 147.018C119.906 146.596 120.031 146.09 120.031 145.5C120.031 144.91 119.906 144.361 119.654 143.855ZM127.704 148.789L129.214 148.283V148.789C129.13 148.873 128.585 149.084 127.579 149.422C127.243 151.699 126.698 153.386 125.943 154.482C125.189 155.494 124.266 156 123.176 156C122.673 156 122.254 155.831 121.918 155.494C121.667 155.157 121.541 154.735 121.541 154.229C121.541 153.217 122.002 152.247 122.925 151.319C123.847 150.392 125.105 149.675 126.698 149.169C126.866 148.325 127.201 147.187 127.704 145.753C126.866 147.018 126.153 147.861 125.566 148.283C124.895 148.705 124.308 148.916 123.805 148.916C123.218 148.916 122.799 148.747 122.547 148.41C122.296 148.157 122.17 147.777 122.17 147.271C122.17 146.512 122.505 145.711 123.176 144.867C123.847 144.024 124.644 143.349 125.566 142.843C126.572 142.337 127.579 142.084 128.585 142.084L128.711 142.717C127.369 142.801 126.195 143.265 125.189 144.108C124.266 144.867 123.805 145.627 123.805 146.386C123.805 146.723 123.889 146.976 124.057 147.145C124.308 147.398 124.56 147.524 124.811 147.524C125.231 147.524 125.86 147.06 126.698 146.133C127.537 145.289 128.124 144.572 128.459 143.982L129.088 144.361C128.417 146.133 127.956 147.608 127.704 148.789V148.789ZM126.572 149.675C125.566 150.181 124.727 150.771 124.057 151.446C123.386 152.12 123.05 152.753 123.05 153.343C123.05 153.596 123.134 153.807 123.302 153.976C123.47 154.145 123.679 154.229 123.931 154.229C124.434 154.229 124.937 153.892 125.44 153.217C125.86 152.542 126.237 151.361 126.572 149.675V149.675ZM135.252 148.41L136.761 147.904V148.283C136.761 148.367 136.216 148.578 135.126 148.916C134.958 149.759 134.79 150.56 134.623 151.319C134.371 152.078 134.12 152.669 133.868 153.09C133.7 153.512 133.449 153.934 133.113 154.355C132.526 155.114 131.73 155.494 130.723 155.494C130.22 155.494 129.801 155.325 129.465 154.988C129.13 154.735 128.962 154.313 128.962 153.723C128.962 151.614 130.723 149.928 134.245 148.663L135.252 145.247C134.161 146.849 133.239 147.819 132.484 148.157C132.065 148.325 131.604 148.41 131.101 148.41C130.681 148.41 130.346 148.283 130.094 148.03C129.759 147.693 129.591 147.271 129.591 146.765C129.591 146.175 129.801 145.373 130.22 144.361C130.639 143.434 131.059 142.633 131.478 141.958L132.358 142.337C132.358 142.337 132.191 142.633 131.855 143.223C131.352 144.319 131.101 145.163 131.101 145.753C131.101 146.259 131.184 146.596 131.352 146.765C131.604 146.934 131.897 147.018 132.233 147.018C132.652 147.018 133.113 146.765 133.616 146.259C134.119 145.837 134.874 144.91 135.88 143.476L136.635 143.855C136.468 144.277 136.258 144.994 136.006 146.006C135.671 147.102 135.419 147.904 135.252 148.41V148.41ZM134.119 149.295C133.365 149.633 132.694 150.012 132.107 150.434C131.017 151.277 130.472 152.078 130.472 152.837C130.472 153.175 130.556 153.428 130.723 153.596C130.891 153.765 131.101 153.849 131.352 153.849C132.61 153.849 133.532 152.331 134.119 149.295V149.295ZM149.969 141.831L149.34 144.108L151.73 143.855L151.226 144.614L149.214 144.867C149.046 145.542 148.753 146.554 148.333 147.904C147.579 150.771 147.201 152.584 147.201 153.343L146.069 153.849C146.069 152.837 146.488 150.855 147.327 147.904C147.83 146.386 148.124 145.416 148.208 144.994C147.788 145.078 147.411 145.12 147.075 145.12C146.405 145.12 146.069 144.867 146.069 144.361C146.069 144.024 146.279 143.645 146.698 143.223C147.369 142.633 148.166 142.084 149.088 141.578C149.759 139.217 150.262 137.699 150.597 137.024C151.017 136.181 151.394 135.675 151.73 135.506C152.233 135.169 152.778 135 153.365 135C153.952 135 154.329 135.169 154.497 135.506C154.748 135.759 154.874 136.096 154.874 136.518C154.79 138.036 153.155 139.807 149.969 141.831ZM152.862 136.518C152.191 136.518 151.688 136.855 151.352 137.53C151.101 138.036 150.891 138.627 150.723 139.301C150.472 140.06 150.304 140.566 150.22 140.819C150.891 140.398 151.604 139.849 152.358 139.175C153.113 138.416 153.532 137.783 153.616 137.277C153.616 136.771 153.365 136.518 152.862 136.518V136.518ZM148.459 144.108L148.836 142.59C148.417 142.759 148.082 142.928 147.83 143.096C147.579 143.349 147.453 143.56 147.453 143.729C147.453 143.982 147.788 144.108 148.459 144.108V144.108ZM156.384 143.855L157.39 143.602C157.725 144.108 157.893 144.699 157.893 145.373C157.893 146.301 157.558 147.145 156.887 147.904C156.216 148.663 155.419 149.042 154.497 149.042C153.742 149.042 153.197 148.873 152.862 148.536C152.442 148.114 152.233 147.524 152.233 146.765C152.233 145.669 152.694 144.657 153.616 143.729C154.455 142.801 155.419 142.337 156.509 142.337C156.761 142.337 156.929 142.337 157.013 142.337V142.97C156.09 142.97 155.294 143.265 154.623 143.855C154.036 144.361 153.742 145.078 153.742 146.006C153.742 146.512 153.868 146.892 154.119 147.145C154.371 147.482 154.748 147.651 155.252 147.651C155.671 147.651 156.048 147.44 156.384 147.018C156.635 146.596 156.761 146.09 156.761 145.5C156.761 144.91 156.635 144.361 156.384 143.855V143.855ZM163.302 142.59C163.553 142.59 163.763 142.675 163.931 142.843C164.182 143.096 164.308 143.392 164.308 143.729C164.308 144.319 163.931 144.994 163.176 145.753L162.673 145.373C162.841 145.036 162.925 144.783 162.925 144.614C162.925 144.277 162.757 144.108 162.421 144.108C162.086 144.108 161.751 144.319 161.415 144.741C161.08 145.247 160.702 145.964 160.283 146.892C159.864 147.904 159.528 148.578 159.277 148.916L158.27 148.536C158.941 147.018 159.319 146.133 159.403 145.88C159.738 144.952 159.906 143.729 159.906 142.211L160.912 141.958C160.828 142.717 160.744 143.349 160.66 143.855C160.66 144.277 160.493 144.952 160.157 145.88C161.415 143.687 162.463 142.59 163.302 142.59V142.59ZM179.151 148.41L180.66 147.904V148.283C180.66 148.367 180.115 148.578 179.025 148.916C178.857 149.759 178.69 150.56 178.522 151.319C178.27 152.078 178.019 152.669 177.767 153.09C177.6 153.512 177.348 153.934 177.013 154.355C176.426 155.114 175.629 155.494 174.623 155.494C174.119 155.494 173.7 155.325 173.365 154.988C173.113 154.735 172.987 154.313 172.987 153.723C172.987 151.614 174.707 149.928 178.145 148.663L179.151 145.247C178.145 146.849 177.222 147.819 176.384 148.157C175.964 148.325 175.503 148.41 175 148.41C174.581 148.41 174.245 148.283 173.994 148.03C173.742 147.693 173.616 147.271 173.616 146.765C173.616 146.175 173.784 145.373 174.12 144.361C174.539 143.434 174.958 142.633 175.377 141.958L176.258 142.337C176.258 142.337 176.09 142.633 175.755 143.223C175.252 144.319 175 145.163 175 145.753C175 146.259 175.084 146.596 175.252 146.765C175.503 146.934 175.839 147.018 176.258 147.018C176.593 147.018 177.013 146.765 177.516 146.259C178.019 145.837 178.816 144.91 179.906 143.476L180.535 143.855C180.451 144.277 180.241 144.994 179.906 146.006C179.57 147.102 179.319 147.904 179.151 148.41V148.41ZM178.019 149.295C177.264 149.633 176.593 150.012 176.006 150.434C175 151.277 174.497 152.078 174.497 152.837C174.497 153.175 174.581 153.428 174.748 153.596C174.916 153.765 175.126 153.849 175.377 153.849C176.551 153.849 177.432 152.331 178.019 149.295ZM185.566 143.855L186.572 143.602C186.824 144.108 186.95 144.699 186.95 145.373C186.95 146.301 186.614 147.145 185.943 147.904C185.273 148.663 184.476 149.042 183.553 149.042C182.883 149.042 182.338 148.873 181.918 148.536C181.583 148.114 181.415 147.524 181.415 146.765C181.415 145.669 181.834 144.657 182.673 143.729C183.595 142.801 184.602 142.337 185.692 142.337C185.943 142.337 186.111 142.337 186.195 142.337V142.97C185.189 142.97 184.392 143.265 183.805 143.855C183.134 144.361 182.799 145.078 182.799 146.006C182.799 146.512 182.925 146.892 183.176 147.145C183.428 147.482 183.805 147.651 184.308 147.651C184.811 147.651 185.189 147.44 185.44 147.018C185.776 146.596 185.943 146.09 185.943 145.5C185.943 144.91 185.818 144.361 185.566 143.855ZM194.623 147.018L195 147.271C194.748 147.777 194.413 148.199 193.994 148.536C193.574 148.958 193.155 149.169 192.736 149.169C192.4 149.169 192.149 149.042 191.981 148.789C191.73 148.536 191.604 148.199 191.604 147.777C191.604 147.355 191.688 146.849 191.855 146.259C191.268 147.102 190.639 147.777 189.969 148.283C189.382 148.789 188.836 149.042 188.333 149.042C187.662 149.042 187.327 148.578 187.327 147.651C187.327 146.807 187.621 145.753 188.208 144.488C188.795 143.223 189.214 142.464 189.465 142.211L190.22 142.59C189.801 143.434 189.465 144.235 189.214 144.994C188.962 145.753 188.836 146.259 188.836 146.512C188.836 146.765 188.878 146.976 188.962 147.145C189.13 147.313 189.34 147.398 189.591 147.398C190.094 147.398 190.681 146.976 191.352 146.133C192.107 145.205 192.862 143.855 193.616 142.084L194.497 142.464C194.497 142.633 194.203 143.349 193.616 144.614C193.113 145.964 192.862 146.765 192.862 147.018C192.862 147.271 192.945 147.44 193.113 147.524C193.197 147.693 193.281 147.777 193.365 147.777C193.532 147.777 193.616 147.777 193.616 147.777C193.7 147.777 193.784 147.735 193.868 147.651C193.952 147.651 193.994 147.608 193.994 147.524C194.078 147.524 194.119 147.482 194.119 147.398L194.245 147.271C194.329 147.271 194.371 147.229 194.371 147.145C194.455 147.06 194.539 147.018 194.623 147.018V147.018Z" fill="#0B16ED"/>
<path fill-rule="evenodd" clip-rule="evenodd" d="M12.1148 82.1813H18.4434L30.5582 114.275H24.2296L20.6132 104.484H9.94497L6.32862 114.275H0L12.1148 82.1813ZM18.9858 99.9506L15.3695 88.8901L11.7531 99.9506H18.9858ZM43.3962 90.522C44.8428 90.522 46.229 90.7033 47.555 91.0659C49.0016 91.3077 50.207 91.6099 51.1714 91.9725C51.0508 92.5769 50.8098 93.1813 50.4481 93.7857C50.207 94.3901 49.9659 94.9945 49.7248 95.5989C48.881 95.3571 47.9769 95.1154 47.0126 94.8736C46.0482 94.7527 45.0839 94.6923 44.1195 94.6923C43.5168 94.6923 42.9743 94.6923 42.4921 94.6923C41.8894 94.8132 41.4072 94.9341 41.0456 95.0549C40.684 95.2967 40.3826 95.5385 40.1415 95.7802C39.9004 96.1429 39.7799 96.5055 39.7799 96.8681C39.7799 97.4725 39.9607 97.956 40.3223 98.3187C40.5634 98.6813 40.9251 98.9231 41.4072 99.044C41.8894 99.2857 42.4921 99.467 43.2154 99.5879C43.8181 99.7088 44.4811 99.8901 45.2044 100.132C46.2893 100.374 47.2537 100.676 48.0975 101.038C49.0618 101.401 49.9057 101.885 50.6289 102.489C51.3522 103.093 51.8947 103.819 52.2563 104.665C52.6179 105.511 52.7987 106.599 52.7987 107.929C52.7987 109.137 52.4974 110.225 51.8947 111.192C51.2919 112.038 50.5084 112.764 49.544 113.368C48.5797 113.852 47.4948 114.214 46.2893 114.456C45.0839 114.698 43.8181 114.819 42.4921 114.819C41.6483 114.819 40.8045 114.758 39.9607 114.637C39.1169 114.637 38.3333 114.516 37.6101 114.275C36.7663 114.154 36.043 113.973 35.4403 113.731C34.717 113.489 34.1143 113.247 33.6321 113.005C33.8732 112.401 34.1745 111.797 34.5362 111.192C34.7773 110.588 35.0786 109.984 35.4403 109.379C35.8019 109.621 36.2841 109.802 36.8868 109.923C37.369 110.044 37.9114 110.165 38.5142 110.286C39.1169 110.527 39.7196 110.648 40.3223 110.648C41.0456 110.769 41.7086 110.83 42.3113 110.83C42.9141 110.83 43.5168 110.769 44.1195 110.648C44.6017 110.527 45.0839 110.346 45.566 110.104C45.9277 109.863 46.229 109.56 46.4701 109.198C46.7112 108.835 46.8318 108.412 46.8318 107.929C46.8318 107.203 46.7112 106.659 46.4701 106.297C46.1085 105.934 45.6866 105.632 45.2044 105.39C44.7222 105.148 44.1798 104.967 43.577 104.846C42.9743 104.725 42.3113 104.604 41.5881 104.484C40.5031 104.242 39.5388 103.94 38.695 103.577C37.7306 103.214 36.8868 102.731 36.1635 102.126C35.4403 101.522 34.8978 100.797 34.5362 99.9506C34.1745 99.1044 33.9937 98.0769 33.9937 96.8681C33.9937 95.6593 34.2348 94.6923 34.717 93.967C35.3197 93.1209 36.043 92.456 36.8868 91.9725C37.8512 91.489 38.8758 91.1264 39.9607 90.8846C41.0456 90.6429 42.1908 90.522 43.3962 90.522ZM60.7547 85.8077H66.9025V91.0659H74.6777V95.5989H66.9025V106.659C66.9025 107.385 66.9025 107.989 66.9025 108.473C67.0231 108.956 67.1436 109.319 67.2641 109.56C67.5052 109.923 67.7463 110.165 67.9874 110.286C68.3491 110.407 68.771 110.467 69.2532 110.467C69.7353 110.467 70.2778 110.407 70.8805 110.286C71.4832 110.165 72.2065 109.984 73.0503 109.742C73.1709 109.984 73.2914 110.286 73.412 110.648C73.5325 111.011 73.6531 111.434 73.7736 111.918C73.8941 112.28 74.0147 112.643 74.1352 113.005C74.2558 113.247 74.316 113.549 74.316 113.912C73.9544 114.033 73.4722 114.154 72.8695 114.275C72.3873 114.396 71.8449 114.516 71.2421 114.637C70.6394 114.637 69.9764 114.698 69.2532 114.819C68.6504 114.819 68.108 114.819 67.6258 114.819C67.0231 114.819 66.4806 114.819 65.9984 114.819C65.5163 114.698 65.0341 114.637 64.5519 114.637C64.0697 114.516 63.6478 114.335 63.2862 114.093C62.9245 113.973 62.6232 113.731 62.3821 113.368C61.6588 112.764 61.2369 111.918 61.1164 110.83C60.8753 109.621 60.7547 108.17 60.7547 106.478V95.5989H57.3192V91.0659H60.7547V85.8077ZM86.25 95.0549H86.6116C87.0938 94.3297 87.576 93.7253 88.0582 93.2418C88.5404 92.7582 89.0225 92.3352 89.5047 91.9725C89.9869 91.6099 90.4691 91.3681 90.9513 91.2473C91.4335 91.0055 91.9156 90.8242 92.3978 90.7033C92.88 90.7033 93.3622 90.7033 93.8444 90.7033C94.3265 90.7033 94.7484 90.7033 95.1101 90.7033C95.4717 90.7033 95.8333 90.7637 96.195 90.8846C96.195 91.3681 96.1347 91.7912 96.0142 92.1538C96.0142 92.6374 95.9539 93.1209 95.8333 93.6044C95.7128 94.0879 95.5923 94.5714 95.4717 95.0549C95.3512 95.5385 95.2306 95.9615 95.1101 96.3242C94.2663 96.2033 93.543 96.0824 92.9403 95.9615C92.3375 95.8407 91.7951 95.7802 91.3129 95.7802C90.8307 95.7802 90.4088 95.8407 90.0472 95.9615C89.6855 96.0824 89.3239 96.3242 88.9623 96.6868C88.6006 96.9286 88.1787 97.3516 87.6965 97.956C87.3349 98.4396 86.913 99.044 86.4308 99.7692V114.456H80.283V100.132C80.283 99.1648 80.283 98.3187 80.283 97.5934C80.283 96.8681 80.283 96.2033 80.283 95.5989C80.1625 94.8736 80.1022 94.2088 80.1022 93.6044C79.9817 93 79.8611 92.456 79.7406 91.9725C80.7049 91.6099 81.609 91.3681 82.4528 91.2473C83.4172 91.0055 84.4418 90.8242 85.5267 90.7033C85.5267 90.9451 85.587 91.2473 85.7076 91.6099C85.8281 91.8516 85.8884 92.1538 85.8884 92.5165C86.0089 92.8791 86.0692 93.3022 86.0692 93.7857C86.1897 94.1484 86.25 94.5714 86.25 95.0549ZM111.203 90.7033C113.132 90.7033 114.819 91.0055 116.266 91.6099C117.592 92.2143 118.737 93.0604 119.701 94.1484C120.666 95.2363 121.329 96.5055 121.69 97.956C122.172 99.4066 122.414 101.038 122.414 102.852C122.414 104.544 122.172 106.115 121.69 107.566C121.329 109.137 120.666 110.407 119.701 111.374C118.737 112.462 117.592 113.308 116.266 113.912C114.819 114.637 113.132 115 111.203 115C109.154 115 107.466 114.637 106.14 113.912C104.693 113.308 103.488 112.462 102.524 111.374C101.559 110.407 100.896 109.137 100.535 107.566C100.052 106.115 99.8113 104.544 99.8113 102.852C99.8113 101.038 100.052 99.4066 100.535 97.956C100.896 96.5055 101.559 95.2363 102.524 94.1484C103.488 93.0604 104.693 92.2143 106.14 91.6099C107.466 91.0055 109.154 90.7033 111.203 90.7033ZM111.203 95.0549C110.118 95.0549 109.214 95.2363 108.491 95.5989C107.767 95.9615 107.225 96.5055 106.863 97.2308C106.502 97.956 106.26 98.8022 106.14 99.7692C106.019 100.736 105.959 101.764 105.959 102.852C105.959 103.94 106.019 104.907 106.14 105.753C106.26 106.72 106.502 107.566 106.863 108.291C107.225 109.016 107.767 109.56 108.491 109.923C109.214 110.286 110.118 110.467 111.203 110.467C112.167 110.467 113.011 110.286 113.734 109.923C114.458 109.56 115 109.016 115.362 108.291C115.723 107.566 115.964 106.72 116.085 105.753C116.205 104.907 116.266 103.94 116.266 102.852C116.266 101.764 116.205 100.736 116.085 99.7692C115.964 98.8022 115.723 97.956 115.362 97.2308C115 96.5055 114.458 95.9615 113.734 95.5989C113.011 95.2363 112.167 95.0549 111.203 95.0549ZM128.561 82.1813H141.038C142.605 82.1813 143.991 82.4231 145.197 82.9066C146.402 83.3901 147.427 83.9945 148.27 84.7198C149.114 85.5659 149.777 86.5934 150.259 87.8022C150.742 89.011 150.983 90.4011 150.983 91.9725C150.983 93.6648 150.681 95.1758 150.079 96.5055C149.476 97.7143 148.692 98.7418 147.728 99.5879C146.643 100.434 145.377 101.099 143.931 101.582C142.484 101.945 140.857 102.126 139.049 102.126C138.205 102.126 137.421 102.126 136.698 102.126C135.975 102.005 135.372 101.945 134.89 101.945V114.456H128.561V82.1813ZM134.89 86.3516V97.4121C135.372 97.533 135.794 97.5934 136.156 97.5934C136.638 97.7143 137.12 97.7747 137.602 97.7747C138.687 97.7747 139.712 97.6538 140.676 97.4121C141.52 97.1703 142.243 96.8681 142.846 96.5055C143.449 96.022 143.871 95.4176 144.112 94.6923C144.473 93.967 144.654 93.0604 144.654 91.9725C144.654 91.0055 144.534 90.1593 144.292 89.4341C144.051 88.7088 143.69 88.1044 143.208 87.6209C142.725 87.2582 142.062 86.956 141.219 86.7143C140.495 86.4725 139.591 86.3516 138.506 86.3516H134.89ZM171.777 91.0659H177.925V105.39C177.925 106.599 177.925 107.566 177.925 108.291C178.045 109.137 178.105 109.863 178.105 110.467C178.105 110.83 178.105 111.132 178.105 111.374C178.226 111.615 178.286 111.857 178.286 112.099C178.286 112.22 178.346 112.401 178.467 112.643C178.467 112.885 178.527 113.187 178.648 113.549C177.683 113.791 176.719 114.033 175.755 114.275C174.79 114.396 173.826 114.577 172.862 114.819C172.741 114.456 172.621 114.154 172.5 113.912C172.379 113.549 172.319 113.187 172.319 112.824C172.319 112.462 172.259 112.099 172.138 111.736C172.138 111.253 172.078 110.769 171.958 110.286H171.777C171.295 111.011 170.752 111.676 170.149 112.28C169.667 112.764 169.125 113.187 168.522 113.549C167.919 114.033 167.256 114.335 166.533 114.456C165.81 114.698 165.026 114.819 164.182 114.819C162.254 114.819 160.807 114.396 159.843 113.549C158.758 112.824 157.974 111.797 157.492 110.467C157.251 109.621 157.07 108.714 156.95 107.747C156.829 106.78 156.769 105.753 156.769 104.665V91.0659H162.736V106.297C162.736 107.626 163.037 108.593 163.64 109.198C164.243 109.923 165.026 110.286 165.991 110.286C166.593 110.286 167.196 110.165 167.799 109.923C168.281 109.681 168.763 109.319 169.245 108.835C169.727 108.352 170.21 107.868 170.692 107.385C171.174 106.78 171.536 106.236 171.777 105.753V91.0659ZM193.475 90.522C194.801 90.522 196.187 90.6429 197.634 90.8846C198.96 91.1264 200.165 91.4286 201.25 91.7912C201.009 92.3956 200.768 93 200.527 93.6044C200.165 94.2088 199.864 94.8132 199.623 95.4176C198.899 95.1758 197.995 94.9341 196.91 94.6923C195.946 94.5714 194.982 94.511 194.017 94.511C193.415 94.511 192.872 94.5714 192.39 94.6923C191.908 94.6923 191.486 94.8132 191.124 95.0549C190.642 95.1758 190.341 95.4176 190.22 95.7802C189.979 96.022 189.859 96.3846 189.859 96.8681C189.859 97.3516 189.979 97.7747 190.22 98.1374C190.582 98.5 191.004 98.8022 191.486 99.044C191.968 99.1648 192.511 99.2857 193.113 99.4066C193.716 99.6484 194.379 99.8297 195.102 99.9506C196.187 100.192 197.212 100.495 198.176 100.857C199.14 101.22 199.924 101.703 200.527 102.308C201.25 102.912 201.792 103.698 202.154 104.665C202.516 105.511 202.697 106.538 202.697 107.747C202.697 109.077 202.395 110.165 201.792 111.011C201.19 111.978 200.406 112.703 199.442 113.187C198.477 113.791 197.393 114.214 196.187 114.456C194.982 114.698 193.716 114.819 192.39 114.819C191.546 114.819 190.702 114.758 189.859 114.637C189.015 114.516 188.231 114.396 187.508 114.275C186.785 114.033 186.061 113.791 185.338 113.549C184.615 113.308 184.012 113.066 183.53 112.824C183.771 112.22 184.072 111.615 184.434 111.011C184.796 110.407 185.097 109.802 185.338 109.198C185.82 109.44 186.302 109.621 186.785 109.742C187.267 109.984 187.809 110.165 188.412 110.286C189.015 110.407 189.678 110.527 190.401 110.648C191.004 110.648 191.606 110.648 192.209 110.648C192.812 110.648 193.415 110.588 194.017 110.467C194.499 110.467 194.982 110.346 195.464 110.104C195.825 109.863 196.187 109.56 196.549 109.198C196.79 108.714 196.91 108.231 196.91 107.747C196.91 107.143 196.73 106.659 196.368 106.297C196.127 105.934 195.765 105.632 195.283 105.39C194.801 105.148 194.198 104.967 193.475 104.846C192.872 104.725 192.209 104.604 191.486 104.484C190.521 104.242 189.557 103.94 188.593 103.577C187.628 103.093 186.785 102.549 186.061 101.945C185.459 101.341 184.916 100.615 184.434 99.7692C184.072 98.9231 183.892 97.8956 183.892 96.6868C183.892 95.5989 184.193 94.6319 184.796 93.7857C185.278 92.9396 186.001 92.2747 186.965 91.7912C187.809 91.3077 188.774 91.0055 189.859 90.8846C191.064 90.6429 192.269 90.522 193.475 90.522ZM208.844 82H214.992V94.8736C215.474 94.2692 215.957 93.6648 216.439 93.0604C216.921 92.5769 217.463 92.0934 218.066 91.6099C218.669 91.2473 219.332 90.9451 220.055 90.7033C220.778 90.5824 221.622 90.522 222.587 90.522C224.395 90.522 225.841 90.8846 226.926 91.6099C228.011 92.2143 228.795 93.2418 229.277 94.6923C229.518 95.5385 229.699 96.4451 229.819 97.4121C229.94 98.3791 230 99.467 230 100.676V114.275H224.033V98.8626C224.033 97.6538 223.732 96.6868 223.129 95.9615C222.526 95.2363 221.743 94.8736 220.778 94.8736C220.176 94.8736 219.573 95.0549 218.97 95.4176C218.367 95.6593 217.825 96.022 217.343 96.5055C216.861 96.989 216.378 97.4725 215.896 97.956C215.535 98.4396 215.233 98.9835 214.992 99.5879V114.275H208.844V82Z" fill="#0B16ED"/>
</svg>
