<svg width="16" height="21" viewBox="0 0 16 21" fill="none" xmlns="http://www.w3.org/2000/svg">
<path d="M8.00012 0C5.73724 0 3.8858 1.87425 3.8858 4.16016V5.87446L0.68572 5.87431C0.297093 5.87431 0 6.1714 0 6.56003V17.3031C0 19.2003 1.53139 20.7317 3.4286 20.7317H12.5714C14.4686 20.7317 16 19.2003 16 17.3031V6.56003C16 6.1714 15.7029 5.87431 15.3143 5.87431H12.1144V4.16001C12.1144 1.87433 10.2629 0.000238749 8.00004 0.000238749L8.00012 0ZM5.25724 4.15977C5.25724 2.62838 6.49153 1.37113 8.00012 1.37113C9.5087 1.37113 10.743 2.62823 10.743 4.15977V5.87407H5.25724V4.15977ZM14.6289 7.26847V17.3258C14.6289 18.4687 13.7146 19.383 12.5717 19.383L3.42852 19.3828C2.2856 19.3828 1.37136 18.4686 1.37136 17.3257V7.26832H3.88572V8.45685C3.88572 8.84548 4.18281 9.14257 4.57144 9.14257C4.96007 9.14257 5.25716 8.84548 5.25716 8.45685V7.26832H10.7429V8.45685C10.7429 8.84548 11.04 9.14257 11.4286 9.14257C11.8173 9.14257 12.1144 8.84548 12.1144 8.45685V7.26832L14.6289 7.26847Z" fill="#0B16ED"/>
</svg>
