<svg width="27" height="24" viewBox="0 0 27 24" fill="none" xmlns="http://www.w3.org/2000/svg">
<path d="M17.2255 10.6797H5.12953C4.31953 10.6797 3.64453 11.2797 3.64453 11.9997C3.64453 12.7197 4.31953 13.3197 5.12953 13.3197H17.2525C18.0625 13.3197 18.7375 12.7197 18.7375 11.9997C18.7105 11.2557 18.0625 10.6797 17.2255 10.6797Z" fill="#0B16ED"/>
<path d="M21.9505 3.12109H5.12953C4.31953 3.12109 3.64453 3.72109 3.64453 4.44109C3.64453 5.16109 4.31953 5.76109 5.12953 5.76109H21.9775C22.7875 5.76109 23.4625 5.16109 23.4625 4.44109C23.4355 3.72109 22.7875 3.12109 21.9505 3.12109Z" fill="#0B16ED"/>
<path d="M21.9505 18.2148H5.12953C4.31953 18.2148 3.64453 18.8148 3.64453 19.5348C3.64453 20.2548 4.31953 20.8548 5.12953 20.8548H21.9775C22.7875 20.8548 23.4625 20.2548 23.4625 19.5348C23.4355 18.8148 22.7875 18.2148 21.9505 18.2148Z" fill="#0B16ED"/>
</svg>
