<svg width="24" height="24" viewBox="0 0 24 24" fill="none" xmlns="http://www.w3.org/2000/svg">
<path fill-rule="evenodd" clip-rule="evenodd" d="M12.0361 2H11.9648C8.59565 2 5.50654 4.44456 5.20685 7.68096C5.18686 7.91248 5.17324 8.14906 5.16444 8.40391L5.15213 8.99974L5.14969 9.53395L5.16473 9.47306C5.02569 10.151 4.70525 10.7799 4.23653 11.2938L4.16936 11.3802C3.76804 11.9898 3.53744 12.6955 3.50175 13.4242L3.5009 13.6624C3.48041 14.6208 3.80882 15.5691 4.42663 16.3223C5.26444 17.2069 6.34896 17.7346 7.51296 17.8466C10.49 18.1699 13.502 18.1699 16.4873 17.8457C17.6434 17.7393 18.7311 17.2101 19.5338 16.3582C20.1399 15.6331 20.4707 14.763 20.499 13.862L20.5 13.4587C20.4668 12.698 20.2348 11.9917 19.8286 11.3847L19.7669 11.3055L19.6162 11.1282C19.2776 10.7052 19.0303 10.218 18.8896 9.69688L18.845 9.50977L18.8358 9.31353C18.833 9.22527 18.8317 9.1274 18.8312 9.00516L18.8311 8.33206C18.8288 8.07458 18.8212 7.89148 18.8034 7.68536C18.4934 4.44285 15.4034 2 12.0361 2ZM11.9651 3.39551H12.0364C14.7339 3.39551 17.1947 5.34091 17.431 7.81342C17.445 7.97574 17.4513 8.1306 17.4531 8.36066L17.4558 9.2653C17.4588 9.40998 17.4645 9.53029 17.4742 9.66567L17.4871 9.75834L17.552 10.0341C17.7443 10.7637 18.0896 11.4443 18.565 12.031L18.7029 12.1927L18.6877 12.1673C18.9513 12.5614 19.1016 13.0187 19.1226 13.4903L19.1219 13.6537C19.1378 14.3098 18.9203 14.9332 18.5087 15.4268C17.9649 16.0021 17.1874 16.3804 16.3517 16.4574C13.453 16.772 10.5396 16.772 7.65199 16.4585C6.80714 16.3772 6.02913 15.9986 5.454 15.3932C5.08118 14.9358 4.866 14.3144 4.87951 13.6776L4.87967 13.4589L4.89713 13.2684C4.93921 12.9497 5.0457 12.6267 5.21076 12.3292L5.29447 12.1907C5.90811 11.5005 6.32924 10.6613 6.51472 9.75683L6.52911 9.61502L6.53563 8.69575L6.55169 8.22936C6.55897 8.08223 6.5683 7.94244 6.57999 7.80694C6.80835 5.34102 9.26683 3.39551 11.9651 3.39551ZM5.29447 12.1907C5.27963 12.2074 5.26467 12.224 5.24961 12.2405L5.29887 12.1834L5.29447 12.1907ZM14.608 19.6902C14.3114 19.4487 13.8776 19.4963 13.639 19.7965C13.5356 19.9266 13.4158 20.0434 13.2826 20.1439C12.8308 20.4982 12.267 20.656 11.7065 20.5893C11.1468 20.5226 10.638 20.2377 10.2928 19.7991C10.0556 19.4977 9.62195 19.4481 9.32423 19.6882C9.02652 19.9283 8.97745 20.3672 9.21464 20.6686C9.78706 21.3959 10.6258 21.8655 11.5454 21.9751C12.4641 22.0845 13.3892 21.8256 14.1168 21.2547C14.3328 21.0918 14.5366 20.8931 14.713 20.6712C14.9516 20.3709 14.9046 19.9318 14.608 19.6902Z" fill="#0B16ED"/>
</svg>
