<svg width="15" height="20" viewBox="0 0 15 20" fill="none" xmlns="http://www.w3.org/2000/svg">
<path d="M1.61537 20C1.15512 20 0.770833 19.8458 0.4625 19.5375C0.154167 19.2292 0 18.8449 0 18.3846V1.61538C0 1.15513 0.154167 0.770833 0.4625 0.4625C0.770833 0.154167 1.15512 0 1.61537 0H10.3846C10.8449 0 11.2292 0.154167 11.5375 0.4625C11.8458 0.770833 12 1.15513 12 1.61538V5.84615H11V3.5H1V16.5H11V14.1538H12V18.3846C12 18.8449 11.8458 19.2292 11.5375 19.5375C11.2292 19.8458 10.8449 20 10.3846 20H1.61537ZM11.3731 13.1538C11.2654 13.1538 11.1753 13.1154 11.1029 13.0385C11.0304 12.9615 10.9859 12.8692 10.9692 12.7615L10.9269 12.3269C10.6654 12.2769 10.443 12.1971 10.2596 12.0875C10.0763 11.9779 9.91539 11.841 9.77693 11.6769L9.41155 11.8673C9.32052 11.9173 9.21667 11.9279 9.1 11.899C8.98333 11.8702 8.90448 11.8103 8.86345 11.7192L8.73653 11.4942C8.68269 11.4032 8.66828 11.3058 8.69328 11.2019C8.71828 11.0981 8.77436 11.0109 8.86153 10.9404L9.20385 10.6962C9.11923 10.4474 9.07693 10.2135 9.07693 9.99422C9.07693 9.77499 9.11923 9.54102 9.20385 9.2923L8.8673 9.04807C8.78012 8.97756 8.72083 8.88942 8.68943 8.78365C8.65801 8.67788 8.67563 8.57308 8.7423 8.46922L8.875 8.25C8.92885 8.16282 9.0077 8.10801 9.11155 8.08558C9.21538 8.06314 9.31922 8.07693 9.42307 8.12693L9.77693 8.31153C9.91539 8.15128 10.0763 8.01731 10.2596 7.90963C10.443 7.80193 10.6654 7.72308 10.9269 7.67308L10.9692 7.23845C10.9859 7.11793 11.0304 7.02242 11.1029 6.95192C11.1753 6.88141 11.2654 6.84615 11.3731 6.84615H11.6269C11.7346 6.84615 11.8247 6.88461 11.8971 6.96152C11.9696 7.03846 12.0141 7.13077 12.0308 7.23845L12.0731 7.67308C12.3346 7.72308 12.5571 7.80193 12.7404 7.90963C12.9237 8.01731 13.0846 8.15128 13.2231 8.31153L13.5769 8.12693C13.6808 8.07693 13.7846 8.06314 13.8885 8.08558C13.9923 8.10801 14.0711 8.16282 14.125 8.25L14.2577 8.46922C14.3372 8.56026 14.358 8.66187 14.3202 8.77405C14.2824 8.88622 14.2199 8.97756 14.1327 9.04807L13.7962 9.2923C13.8808 9.54102 13.9231 9.77499 13.9231 9.99422C13.9231 10.2135 13.8808 10.4474 13.7962 10.6962L14.1385 10.9404C14.2257 11.0109 14.2818 11.0981 14.3068 11.2019C14.3317 11.3058 14.3173 11.4032 14.2635 11.4942L14.1365 11.7192C14.0827 11.8103 14.0039 11.8702 13.9 11.899C13.7962 11.9279 13.6923 11.9173 13.5885 11.8673L13.2231 11.6769C13.0846 11.841 12.9237 11.9779 12.7404 12.0875C12.5571 12.1971 12.3346 12.2769 12.0731 12.3269L12.0308 12.7615C12.0141 12.8692 11.9696 12.9615 11.8971 13.0385C11.8247 13.1154 11.7346 13.1538 11.6269 13.1538H11.3731ZM11.5 11.5385C11.9333 11.5385 12.2981 11.3904 12.5942 11.0942C12.8904 10.7981 13.0385 10.4333 13.0385 10C13.0385 9.56667 12.8904 9.20193 12.5942 8.90578C12.2981 8.60963 11.9333 8.46155 11.5 8.46155C11.0667 8.46155 10.7019 8.60963 10.4058 8.90578C10.1096 9.20193 9.96155 9.56667 9.96155 10C9.96155 10.4333 10.1096 10.7981 10.4058 11.0942C10.7019 11.3904 11.0667 11.5385 11.5 11.5385Z" fill="#233C67"/>
</svg>
