<svg width="18" height="18" viewBox="0 0 18 18" fill="none" xmlns="http://www.w3.org/2000/svg">
<path fill-rule="evenodd" clip-rule="evenodd" d="M8.99992 0C8.87872 2.00453e-05 8.75753 0.0462663 8.66505 0.138739L4.77625 4.02755L2.45581 1.70711C1.72928 0.98058 1.36602 0.617317 1.49387 0.308658C1.62172 0 2.13545 0 3.16291 0H8.99992ZM9.00008 0C9.12128 2.00453e-05 9.24247 0.0462663 9.33495 0.138739L13.2238 4.02755L15.5442 1.70711C16.2707 0.98058 16.634 0.617317 16.5061 0.308658C16.3783 0 15.8645 0 14.8371 0H9.00008ZM12.5539 4.69744L9.70711 1.85068C9.37377 1.51735 9.20711 1.35068 9 1.35068C8.79289 1.35068 8.62623 1.51735 8.29289 1.85068L5.44614 4.69744L8.29289 7.54419C8.62623 7.87752 8.79289 8.04419 9 8.04419C9.20711 8.04419 9.37377 7.87752 9.70711 7.54419L12.5539 4.69744ZM4.02755 4.77625L1.70711 2.45581C0.98058 1.72928 0.617317 1.36602 0.308658 1.49387C0 1.62172 0 2.13545 0 3.16292V8.99992C2.00453e-05 8.87872 0.0462663 8.75753 0.138739 8.66505L4.02755 4.77625ZM0 9.00008V14.8371C0 15.8645 0 16.3783 0.308658 16.5061C0.617317 16.634 0.98058 16.2707 1.70711 15.5442L4.02755 13.2238L0.138739 9.33495C0.0462663 9.24247 2.00453e-05 9.12128 0 9.00008ZM4.69744 12.5539L1.85068 9.70711C1.51735 9.37377 1.35068 9.20711 1.35068 9C1.35068 8.79289 1.51735 8.62623 1.85068 8.29289L4.69744 5.44614L7.54419 8.29289C7.87752 8.62623 8.04419 8.79289 8.04419 9C8.04419 9.20711 7.87752 9.37377 7.54419 9.70711L4.69744 12.5539ZM4.77625 13.9725L2.45581 16.2929L2.4558 16.2929C1.72928 17.0194 1.36602 17.3827 1.49387 17.6913C1.62172 18 2.13545 18 3.16292 18H14.8371C15.8645 18 16.3783 18 16.5061 17.6913C16.634 17.3827 16.2707 17.0194 15.5442 16.2929L13.2238 13.9725L9.33495 17.8613C9.14996 18.0462 8.85004 18.0462 8.66505 17.8613L4.77625 13.9725ZM12.5539 13.3026L9.70711 16.1493L9.7071 16.1493C9.37377 16.4827 9.2071 16.6493 9 16.6493C8.79289 16.6493 8.62623 16.4827 8.29289 16.1493L5.44614 13.3026L8.29289 10.4558C8.62623 10.1225 8.79289 9.95581 9 9.95581C9.20711 9.95581 9.37377 10.1225 9.70711 10.4558L12.5539 13.3026ZM13.3026 12.5539L10.4558 9.70711C10.1225 9.37377 9.95581 9.20711 9.95581 9C9.95581 8.79289 10.1225 8.62623 10.4558 8.29289L13.3026 5.44614L16.1493 8.29289C16.4827 8.62623 16.6493 8.79289 16.6493 9C16.6493 9.20711 16.4827 9.37377 16.1493 9.70711L13.3026 12.5539ZM13.9725 13.2238L17.8613 9.33495C18.0462 9.14996 18.0462 8.85004 17.8613 8.66505L13.9725 4.77625L16.2929 2.45581L16.2929 2.4558C17.0194 1.72928 17.3827 1.36602 17.6913 1.49387C18 1.62172 18 2.13545 18 3.16291V14.8371C18 15.8645 18 16.3783 17.6913 16.5061C17.3827 16.634 17.0194 16.2707 16.2929 15.5442L13.9725 13.2238Z" fill="#233C67"/>
</svg>
