<svg width="40" height="40" viewBox="0 0 40 40" fill="none" xmlns="http://www.w3.org/2000/svg">
<path d="M25.975 12.5063C25.4445 13.6224 25.3164 14.8877 25.6125 16.0875C25.5859 16.0803 25.5587 16.0761 25.5312 16.075C25.1762 16.0116 24.8255 15.9261 24.4812 15.8187C23.1716 15.4466 22.0536 14.588 21.3562 13.4187C21.3562 13.3937 21.3625 13.3625 21.3625 13.3375C21.4245 12.4895 21.612 11.6555 21.9187 10.8625C22.142 10.2935 22.4271 9.75064 22.7687 9.24375C23.706 7.83111 25.0419 6.72888 26.6069 6.077C28.1718 5.42512 29.8952 5.25301 31.5582 5.58253C33.2212 5.91204 34.7487 6.72831 35.9468 7.92769C37.145 9.12706 37.9597 10.6554 38.2875 12.3187C38.5396 13.5649 38.5353 14.8493 38.275 16.0937C38.1172 17.0776 37.6912 17.9989 37.0437 18.7562C36.8768 18.9242 36.69 19.0711 36.4875 19.1937C35.9852 19.4821 35.4071 19.6109 34.83 19.5629C34.2528 19.5149 33.7039 19.2924 33.2562 18.925C33.0663 18.7788 32.8961 18.6087 32.75 18.4187C32.6006 18.2306 32.4786 18.0223 32.3875 17.8C32.2708 17.3254 32.21 16.8387 32.2062 16.35C32.3807 16.6648 32.6217 16.9378 32.9125 17.15C33.1395 17.3072 33.3967 17.4156 33.6678 17.4683C33.9389 17.521 34.218 17.5169 34.4875 17.4562C34.8826 17.3654 35.2443 17.1655 35.5315 16.8794C35.8188 16.5932 36.02 16.2323 36.1125 15.8375C36.3036 14.8868 36.2146 13.9011 35.8562 13C35.5246 12.0627 34.9383 11.2365 34.1631 10.614C33.388 9.99149 32.4546 9.59742 31.4679 9.47603C30.4811 9.35463 29.4801 9.51072 28.5771 9.92676C27.6742 10.3428 26.9051 11.0023 26.3562 11.8313C26.2147 12.0478 26.0874 12.2733 25.975 12.5063Z" fill="#F6B884"/>
<path d="M31.1 18.5563C31.3027 18.7582 31.4464 19.0115 31.5158 19.289C31.5852 19.5666 31.5776 19.8577 31.4938 20.1313L31.3188 20.15C29.7029 19.2887 27.9385 18.7416 26.1188 18.5375C26.1362 17.7354 25.9627 16.9406 25.6125 16.2188C25.9061 16.0465 26.2356 15.945 26.5752 15.9222C26.9147 15.8994 27.2549 15.956 27.5688 16.0875C28.9075 16.6509 30.1112 17.4924 31.1 18.5563Z" fill="#FC7601"/>
<path d="M26.1188 18.5375C27.9384 18.7416 29.7029 19.2887 31.3188 20.15C30.5188 20.2438 27.1563 20.6 25.9938 20.2688L26.1063 18.8563C26.1167 18.7503 26.1209 18.6439 26.1188 18.5375Z" fill="#FFF9ED"/>
<path d="M25.6125 16.2188C25.9626 16.9406 26.1361 17.7354 26.1188 18.5375C26.1209 18.6439 26.1167 18.7503 26.1063 18.8563L25.9938 20.2688L25.2375 29.5313C25.0188 32.1938 21.7125 34.25 20.0563 34.25C19.0522 34.1916 18.0864 33.8443 17.275 33.25L17.3125 33.1938C17.7111 33.296 18.1199 33.3526 18.5313 33.3625C20.1875 33.3625 23.4938 31.2375 23.7125 28.475L24.4688 18.875L24.5813 17.4125C24.5918 17.3024 24.596 17.1918 24.5938 17.0813C24.6054 16.6613 24.5655 16.2415 24.475 15.8313L24.4813 15.8188C24.8256 15.9261 25.1763 16.0116 25.5313 16.075C25.562 16.1208 25.5892 16.1688 25.6125 16.2188Z" fill="#FFF9ED"/>
<path d="M19.9438 29.4875C20.0858 29.491 20.2263 29.4591 20.3529 29.3947C20.4794 29.3303 20.588 29.2355 20.6688 29.1188L20.9376 28.725L21.2001 28.325C21.5251 27.8375 21.1251 27.2375 20.4751 27.2375H19.4126C18.7688 27.2375 18.3626 27.8375 18.6876 28.325L18.9563 28.725L19.2188 29.1188C19.3001 29.235 19.4088 29.3294 19.5352 29.3937C19.6617 29.458 19.802 29.4903 19.9438 29.4875ZM24.4751 15.8313C24.5655 16.2415 24.6054 16.6613 24.5938 17.0813C24.596 17.1918 24.5918 17.3024 24.5813 17.4125L24.4688 18.875L23.7126 28.475C23.4938 31.2375 20.1876 33.3625 18.5313 33.3625C18.12 33.3526 17.7111 33.296 17.3126 33.1938L17.2751 33.25C16.6408 32.8527 16.099 32.3242 15.6861 31.7C15.2732 31.0758 14.9988 30.3704 14.8813 29.6313L13.8813 19.825L13.7938 18.9625C13.769 18.7196 13.7627 18.4751 13.7751 18.2313C13.8064 17.519 13.9851 16.8209 14.3001 16.1813V16.2C14.3063 16.2 14.3188 16.1938 14.3251 16.1938C16.6001 15.75 17.8313 14.625 18.4938 13.4313C18.4938 13.4 18.4876 13.3688 18.4876 13.3375C18.6438 13.325 18.8063 13.3188 18.9688 13.3188H20.9251C21.0751 13.3188 21.2188 13.325 21.3626 13.3375C21.3626 13.3625 21.3563 13.3938 21.3563 13.4188C22.0538 14.588 23.1717 15.4466 24.4813 15.8188L24.4751 15.8313ZM24.1126 21.5188C24.1814 21.365 24.219 21.1991 24.2233 21.0306C24.2276 20.8622 24.1984 20.6946 24.1376 20.5375C24.1281 20.6732 24.0724 20.8015 23.9797 20.901C23.887 21.0004 23.763 21.0651 23.6283 21.0841C23.4937 21.1032 23.3566 21.0754 23.24 21.0055C23.1233 20.9356 23.0342 20.8277 22.9876 20.7C22.9322 20.5533 22.9372 20.3906 23.0017 20.2476C23.0661 20.1047 23.1847 19.9931 23.3313 19.9375C23.415 19.906 23.5051 19.8953 23.5938 19.9063C23.558 19.8774 23.5179 19.8543 23.4751 19.8375C23.2456 19.734 22.9905 19.7008 22.7422 19.7423C22.4939 19.7838 22.2634 19.898 22.08 20.0704C21.8966 20.2429 21.7685 20.4659 21.7119 20.7113C21.6552 20.9566 21.6727 21.2132 21.7619 21.4486C21.8512 21.684 22.0083 21.8876 22.2133 22.0337C22.4184 22.1799 22.6621 22.2618 22.9138 22.2694C23.1654 22.2769 23.4137 22.2096 23.6271 22.0759C23.8405 21.9423 24.0094 21.7484 24.1126 21.5188ZM18.2438 21.5188C18.3126 21.3661 18.3503 21.2012 18.3546 21.0338C18.3589 20.8664 18.3297 20.6998 18.2688 20.5438C18.2582 20.6551 18.217 20.7614 18.1497 20.8507C18.0824 20.9401 17.9917 21.0091 17.8876 21.05C17.7404 21.1039 17.5779 21.0974 17.4355 21.0321C17.2931 20.9668 17.1822 20.8479 17.127 20.7012C17.0718 20.5546 17.0768 20.3921 17.1408 20.249C17.2048 20.106 17.3227 19.994 17.4688 19.9375C17.5507 19.9073 17.638 19.8945 17.7251 19.9C17.6875 19.8755 17.6478 19.8546 17.6063 19.8375C17.377 19.7343 17.1223 19.7015 16.8744 19.7431C16.6264 19.7846 16.3964 19.8988 16.2133 20.0712C16.0302 20.2435 15.9024 20.4662 15.8459 20.7112C15.7894 20.9562 15.8069 21.2124 15.896 21.4475C15.9851 21.6826 16.142 21.886 16.3467 22.0319C16.5514 22.1779 16.7948 22.2598 17.0461 22.2675C17.2974 22.2751 17.5453 22.208 17.7585 22.0748C17.9717 21.9415 18.1406 21.748 18.2438 21.5188Z" fill="#FDFDFD"/>
<path d="M24.1375 20.5375C24.2444 20.8129 24.2522 21.1168 24.1598 21.3973C24.0673 21.6779 23.8803 21.9176 23.6307 22.0755C23.381 22.2333 23.0843 22.2996 22.7912 22.263C22.4981 22.2263 22.2269 22.0889 22.0239 21.8744C21.8208 21.6599 21.6986 21.3815 21.6781 21.0868C21.6576 20.7922 21.7401 20.4996 21.9115 20.259C22.0829 20.0184 22.3325 19.8449 22.6177 19.768C22.9029 19.6911 23.2059 19.7157 23.475 19.8375C23.5179 19.8542 23.5579 19.8774 23.5938 19.9062C23.505 19.8953 23.415 19.906 23.3313 19.9375C23.1846 19.9931 23.0661 20.1047 23.0016 20.2476C22.9372 20.3906 22.9321 20.5533 22.9875 20.7C23.0342 20.8277 23.1233 20.9355 23.2399 21.0055C23.3565 21.0754 23.4936 21.1032 23.6283 21.0841C23.7629 21.0651 23.887 21.0004 23.9796 20.9009C24.0723 20.8014 24.1281 20.6731 24.1375 20.5375Z" fill="#232323"/>
<path d="M19.9437 29.4875C19.8019 29.4902 19.6616 29.458 19.5351 29.3937C19.4087 29.3294 19.3 29.235 19.2187 29.1188L18.9562 28.725L18.6875 28.325C18.3625 27.8375 18.7687 27.2375 19.4125 27.2375H20.475C21.125 27.2375 21.525 27.8375 21.2 28.325L20.9375 28.725L20.6687 29.1188C20.5879 29.2355 20.4794 29.3303 20.3528 29.3947C20.2262 29.4591 20.0857 29.491 19.9437 29.4875Z" fill="#FC7601"/>
<path d="M12.675 11.075C12.015 10.4751 11.2155 10.0494 10.3493 9.83669C9.48299 9.62398 8.57733 9.63092 7.71443 9.85688C6.85153 10.0829 6.05871 10.5207 5.40789 11.1307C4.75707 11.7407 4.26886 12.5035 3.98754 13.35C3.64973 14.2593 3.58244 15.247 3.79379 16.1938C3.89527 16.5864 4.10486 16.9428 4.39874 17.2223C4.69262 17.5018 5.05902 17.6933 5.45629 17.775C6.0061 17.8737 6.5726 17.75 7.03129 17.4313C7.32477 17.2238 7.55949 16.9439 7.71254 16.6188C7.65004 16.75 7.65629 17.8375 7.56879 18.0688C7.5252 18.182 7.47511 18.2926 7.41879 18.4C7.24052 18.7137 7.00524 18.9914 6.72504 19.2188C6.28554 19.5962 5.74142 19.8307 5.16523 19.891C4.58905 19.9513 4.00817 19.8345 3.50004 19.5563C3.29472 19.4424 3.10555 19.3015 2.93754 19.1375C2.26999 18.3954 1.82205 17.4822 1.64379 16.5C1.35564 15.2636 1.31951 13.9819 1.53754 12.7313C1.83249 11.064 2.61469 9.52138 3.78542 8.29816C4.95616 7.07495 6.46298 6.22591 8.11575 5.85818C9.76852 5.49045 11.4932 5.62051 13.0721 6.23195C14.651 6.84338 16.0135 7.9088 16.9875 9.29375C17.3364 9.79484 17.6317 10.3311 17.8688 10.8938C18.1966 11.6727 18.4051 12.4965 18.4875 13.3375C18.4875 13.3688 18.4938 13.4 18.4938 13.4313C17.8313 14.625 16.6 15.75 14.325 16.1938C14.3188 16.1813 14.3125 16.175 14.3063 16.175C14.5033 15.2783 14.4645 14.346 14.1938 13.4688C14.0261 12.932 13.7774 12.4241 13.4563 11.9625C13.2296 11.6386 12.9676 11.341 12.675 11.075Z" fill="#F6B884"/>
<path d="M18.2688 20.5437C18.3726 20.8182 18.3781 21.1203 18.2841 21.3983C18.1902 21.6764 18.0027 21.9133 17.7537 22.0685C17.5047 22.2238 17.2095 22.2879 16.9184 22.2499C16.6274 22.2119 16.3586 22.0741 16.1578 21.8601C15.957 21.646 15.8367 21.369 15.8173 21.0761C15.798 20.7833 15.8808 20.4928 16.0517 20.2541C16.2226 20.0155 16.4709 19.8436 16.7544 19.7676C17.0379 19.6916 17.339 19.7163 17.6063 19.8375C17.6477 19.8545 17.6875 19.8755 17.725 19.9C17.6379 19.8945 17.5506 19.9072 17.4688 19.9375C17.3226 19.994 17.2047 20.106 17.1407 20.249C17.0767 20.392 17.0718 20.5546 17.127 20.7012C17.1822 20.8479 17.2931 20.9668 17.4355 21.0321C17.5779 21.0974 17.7404 21.1038 17.8875 21.05C17.9916 21.0091 18.0824 20.9401 18.1497 20.8507C18.2169 20.7614 18.2582 20.6551 18.2688 20.5437Z" fill="#232323"/>
<path d="M14.3063 16.175L14.3001 16.1812C13.9851 16.8209 13.8064 17.519 13.7751 18.2312C13.4563 18.275 13.1501 18.325 12.8563 18.3875C12.5938 18.4292 12.3438 18.4792 12.1063 18.5375C11.6376 18.6437 11.2126 18.7625 10.8313 18.8875C10.7063 18.925 10.5938 18.9625 10.4751 19.0062C10.1751 19.1125 9.90631 19.2187 9.66256 19.3312C9.50631 19.4 9.35631 19.4687 9.21881 19.5437C9.08131 19.6187 8.95006 19.6812 8.83131 19.75C8.73131 19.7375 8.66881 19.7312 8.66881 19.7312C8.6045 19.5567 8.58064 19.3698 8.59905 19.1847C8.61745 18.9995 8.67763 18.821 8.77506 18.6625C9.41256 17.4562 11.5126 16.3 12.3313 15.9625C12.6519 15.8293 13.0008 15.7789 13.346 15.816C13.6912 15.8532 14.0214 15.9766 14.3063 16.175Z" fill="#FC7601"/>
<path d="M13.7938 18.9625L13.8813 19.825C12.8875 20.1875 9.5938 19.8437 8.8313 19.75C8.95005 19.6812 9.0813 19.6125 9.2188 19.5437C9.3563 19.475 9.5063 19.4 9.66255 19.3312C9.9063 19.2187 10.175 19.1125 10.475 19.0062C10.5875 18.9625 10.7063 18.925 10.8313 18.8875C11.2125 18.7625 11.6375 18.6437 12.1063 18.5375C12.3438 18.4812 12.5938 18.4312 12.8563 18.3875C13.15 18.325 13.4563 18.275 13.775 18.2312C13.7627 18.4751 13.769 18.7196 13.7938 18.9625Z" fill="#FDFDFD"/>
<path d="M18.2688 20.5437C18.2582 20.6551 18.2169 20.7614 18.1496 20.8507C18.0823 20.9401 17.9916 21.0091 17.8875 21.05C17.7404 21.1038 17.5779 21.0974 17.4355 21.0321C17.293 20.9668 17.1822 20.8479 17.127 20.7012C17.0718 20.5546 17.0767 20.392 17.1407 20.249C17.2047 20.106 17.3226 19.994 17.4688 19.9375C17.5506 19.9072 17.6379 19.8945 17.725 19.9C17.6875 19.8755 17.6477 19.8545 17.6063 19.8375C17.3367 19.7141 17.0326 19.6882 16.746 19.7642C16.4594 19.8401 16.2081 20.0133 16.035 20.254C15.8619 20.4948 15.7779 20.7881 15.7971 21.084C15.8164 21.3799 15.9379 21.6599 16.1407 21.8761C16.3436 22.0923 16.6152 22.2314 16.9093 22.2696C17.2033 22.3077 17.5014 22.2425 17.7527 22.0852C18.004 21.9278 18.1929 21.6881 18.287 21.4069C18.3811 21.1258 18.3747 20.8207 18.2688 20.5437ZM23.7563 21.05C23.6079 21.1049 23.4438 21.099 23.2998 21.0334C23.1557 20.9679 23.0435 20.848 22.9875 20.7C22.9321 20.5533 22.9372 20.3906 23.0016 20.2476C23.0661 20.1047 23.1846 19.9931 23.3313 19.9375C23.4149 19.906 23.505 19.8953 23.5938 19.9062C23.5579 19.8774 23.5179 19.8542 23.475 19.8375C23.2061 19.7158 22.9032 19.6913 22.6182 19.7682C22.3331 19.8451 22.0837 20.0186 21.9124 20.259C21.7412 20.4994 21.6587 20.7919 21.6792 21.0864C21.6997 21.3809 21.8219 21.6591 22.0248 21.8735C22.2277 22.0879 22.4988 22.2252 22.7917 22.2619C23.0846 22.2985 23.3812 22.2323 23.6307 22.0745C23.8802 21.9167 24.0671 21.6772 24.1596 21.3968C24.252 21.1165 24.2442 20.8127 24.1375 20.5375C24.1283 20.65 24.0877 20.7578 24.0203 20.8484C23.9529 20.939 23.8614 21.0088 23.7563 21.05ZM20.2575 31.23V29.7556C20.5317 29.6911 20.7719 29.5266 20.9313 29.2944L21.4631 28.4969C21.5616 28.353 21.6185 28.1847 21.6274 28.0106C21.6363 27.8364 21.597 27.6632 21.5138 27.51C21.4103 27.3274 21.2592 27.1764 21.0766 27.073C20.8939 26.9696 20.6867 26.9178 20.4769 26.9231H19.4144C19.2045 26.9179 18.9972 26.9698 18.8146 27.0733C18.6319 27.1767 18.4809 27.3279 18.3775 27.5106C18.2944 27.6638 18.2552 27.8369 18.2643 28.011C18.2733 28.185 18.3302 28.3531 18.4288 28.4969L18.9606 29.2944C19.1198 29.5265 19.3598 29.691 19.6338 29.7556V31.23C19.6338 31.3121 19.6661 31.3909 19.7238 31.4494C19.4028 31.3988 19.1051 31.2511 18.8706 31.0262C18.8414 30.9962 18.8063 30.9723 18.7676 30.9561C18.7289 30.9399 18.6874 30.9316 18.6454 30.9318C18.6034 30.932 18.5619 30.9406 18.5234 30.9572C18.4848 30.9737 18.45 30.9979 18.421 31.0282C18.392 31.0585 18.3694 31.0944 18.3545 31.1336C18.3396 31.1729 18.3328 31.2147 18.3345 31.2566C18.3362 31.2986 18.3462 31.3397 18.3642 31.3777C18.3821 31.4156 18.4074 31.4496 18.4388 31.4775C18.8507 31.8745 19.401 32.0957 19.9731 32.0944C20.0019 32.0944 20.0319 32.0944 20.0613 32.0944C20.5723 32.0743 21.0609 31.879 21.445 31.5412C21.4758 31.5141 21.5009 31.4811 21.5189 31.4442C21.537 31.4074 21.5476 31.3673 21.5501 31.3263C21.5527 31.2853 21.5472 31.2443 21.5338 31.2054C21.5205 31.1666 21.4997 31.1308 21.4725 31.1C21.4453 31.0692 21.4124 31.0441 21.3755 31.0261C21.3386 31.008 21.2985 30.9974 21.2576 30.9949C21.2166 30.9923 21.1755 30.9978 21.1367 31.0112C21.0979 31.0245 21.062 31.0453 21.0313 31.0725C20.7882 31.2838 20.4868 31.4167 20.1669 31.4537C20.1961 31.4243 20.2191 31.3894 20.2347 31.351C20.2502 31.3126 20.258 31.2714 20.2575 31.23ZM18.945 28.15C18.9088 28.1005 18.8876 28.0417 18.8841 27.9804C18.8805 27.9192 18.8947 27.8583 18.925 27.805C18.9751 27.7222 19.0467 27.6545 19.1322 27.6093C19.2178 27.564 19.314 27.5429 19.4106 27.5481H20.4731C20.5698 27.5429 20.6661 27.5641 20.7518 27.6093C20.8374 27.6545 20.9092 27.7222 20.9594 27.805C20.9895 27.8585 21.0036 27.9195 21 27.9807C20.9965 28.042 20.9754 28.101 20.9394 28.1506L20.4075 28.9475C20.3489 29.0131 20.2771 29.0655 20.1968 29.1014C20.1165 29.1374 20.0295 29.1559 19.9416 29.1559C19.8536 29.1559 19.7666 29.1374 19.6863 29.1014C19.6061 29.0655 19.5343 29.0131 19.4756 28.9475L18.945 28.15Z" fill="#394750"/>
<path d="M38.9007 12.1981C38.543 10.4179 37.666 8.78346 36.3805 7.50104C35.095 6.21862 33.4585 5.34564 31.6774 4.99225C29.8963 4.63885 28.0504 4.82086 26.3726 5.51532C24.6949 6.20977 23.2604 7.38557 22.2501 8.89437C21.8824 9.44008 21.5756 10.0244 21.3351 10.6369C21.0798 11.2998 20.9021 11.99 20.8057 12.6937H19.0307C18.9164 11.9925 18.7198 11.3071 18.4451 10.6519C18.1908 10.049 17.8741 9.47436 17.5001 8.93749C16.4573 7.44742 14.9958 6.30032 13.3007 5.64151C11.6055 4.9827 9.753 4.84182 7.97771 5.2367C6.20242 5.63158 4.58426 6.54446 3.3282 7.85971C2.07215 9.17496 1.23469 10.8334 0.921928 12.625C0.689554 13.9584 0.728241 15.325 1.03568 16.6431C1.23223 17.7453 1.74215 18.7675 2.50443 19.5875C2.71089 19.7885 2.94312 19.9613 3.19505 20.1012C3.69893 20.3851 4.26737 20.5344 4.84568 20.535C5.67683 20.5265 6.47979 20.2325 7.12005 19.7025C7.58332 19.3311 7.93982 18.8435 8.15318 18.2894C8.24146 17.9557 8.28352 17.6114 8.27818 17.2662C8.28818 17.0787 8.29505 16.8994 8.30943 16.8031C8.35626 16.6521 8.34412 16.4889 8.27543 16.3465C8.20675 16.2041 8.08663 16.093 7.93929 16.0356C7.79195 15.9782 7.62833 15.9788 7.48142 16.0373C7.3345 16.0957 7.2152 16.2077 7.14755 16.3506C7.04106 16.5767 6.87811 16.7715 6.67443 16.9162C6.51445 17.0274 6.3341 17.1059 6.14373 17.1471C5.95336 17.1884 5.7567 17.1917 5.56505 17.1569C5.28396 17.0947 5.0257 16.9556 4.81918 16.755C4.61266 16.5545 4.46602 16.3004 4.39568 16.0212C4.22482 15.1935 4.28979 14.3345 4.58318 13.5419C4.83221 12.7947 5.26372 12.1216 5.83859 11.5833C6.41347 11.045 7.11355 10.6587 7.87542 10.4593C8.63729 10.2599 9.43687 10.2537 10.2017 10.4413C10.9666 10.6289 11.6726 11.0044 12.2557 11.5337C12.5128 11.7691 12.7434 12.0319 12.9432 12.3175C13.2275 12.7257 13.4476 13.1751 13.5957 13.65C13.7533 14.1718 13.8191 14.717 13.7901 15.2612C13.2262 15.1154 12.6301 15.1577 12.0926 15.3819C11.2657 15.7231 8.76068 17.0412 8.12193 18.5781C8.02395 18.7958 7.97069 19.031 7.96532 19.2696C7.95995 19.5083 8.00258 19.7456 8.09068 19.9675C8.13395 20.0721 8.20484 20.163 8.29577 20.2305C8.38669 20.298 8.49424 20.3395 8.60693 20.3506L8.75255 20.3675C9.91934 20.5098 11.0929 20.5902 12.2682 20.6081C12.6215 20.6104 12.9746 20.5948 13.3263 20.5612L14.2594 29.6937C14.5469 32.5637 17.6657 34.875 20.0563 34.875C21.9426 34.875 25.6051 32.6925 25.8601 29.5825L26.5626 20.9912C26.8682 21.0194 27.2113 21.0312 27.5732 21.0312C28.8506 21.0109 30.1261 20.9239 31.3944 20.7706L31.5601 20.7531C31.672 20.7416 31.7787 20.7002 31.869 20.6331C31.9594 20.566 32.0299 20.4757 32.0732 20.3719C32.1661 20.14 32.2114 19.8918 32.2063 19.642C32.2013 19.3922 32.146 19.1461 32.0438 18.9181C31.3663 17.2806 28.6926 15.8737 27.8107 15.51C27.2754 15.2869 26.6843 15.2347 26.1182 15.3606C26.0439 14.746 26.0921 14.1228 26.2601 13.5269C26.3319 13.2694 26.4253 13.0186 26.5394 12.7769C26.6385 12.5704 26.7506 12.3704 26.8751 12.1781C27.0675 11.8864 27.2918 11.6171 27.5438 11.375C28.1146 10.8307 28.8124 10.4376 29.5737 10.2316C30.3351 10.0255 31.1358 10.013 31.9032 10.1951C32.6707 10.3772 33.3804 10.7483 33.9679 11.2745C34.5555 11.8007 35.0022 12.4653 35.2676 13.2081C35.5845 13.9903 35.6681 14.8476 35.5082 15.6762C35.4445 15.9574 35.3039 16.2153 35.102 16.421C34.9001 16.6268 34.6449 16.7723 34.3651 16.8412C34.1811 16.8842 33.9903 16.889 33.8044 16.8552C33.6185 16.8214 33.4415 16.7499 33.2844 16.645C33.0845 16.496 32.9137 16.3115 32.7807 16.1006C32.7143 15.9476 32.5906 15.8267 32.4362 15.7638C32.2818 15.7008 32.1089 15.7008 31.9544 15.7637C31.1501 16.1056 31.8032 18.0206 31.8107 18.0381C32.0397 18.5818 32.4058 19.0569 32.8732 19.4169C33.5025 19.9173 34.281 20.1932 35.0851 20.2006C35.6922 20.1996 36.288 20.0355 36.8101 19.7256C37.0568 19.5771 37.2842 19.3984 37.4869 19.1937C38.2264 18.3568 38.7117 17.3263 38.8857 16.2231C39.1631 14.8963 39.1682 13.527 38.9007 12.1981ZM13.5157 11.04C13.5413 11.0144 13.5707 10.9919 13.5938 10.9637C13.7894 10.7159 13.8849 10.4036 13.8613 10.0887L13.2363 10.1512C13.2431 10.2992 13.1989 10.445 13.1113 10.5644C13.1013 10.5769 13.0826 10.5825 13.0713 10.5937C12.3329 9.92944 11.4407 9.45946 10.4753 9.2262C9.50985 8.99294 8.50151 9.00375 7.54128 9.25765C6.58106 9.51155 5.69916 10.0006 4.97519 10.6805C4.25122 11.3605 3.70796 12.21 3.39443 13.1525C3.02228 14.1824 2.95223 15.2972 3.19255 16.3656C3.32772 16.8703 3.60104 17.3272 3.98176 17.6849C4.36248 18.0427 4.83548 18.2871 5.34755 18.3906C5.82147 18.4753 6.30933 18.4334 6.76193 18.2694C6.64157 18.4432 6.49698 18.5989 6.33255 18.7319C5.98847 19.03 5.56165 19.2161 5.10904 19.2654C4.65644 19.3146 4.19958 19.2246 3.79943 19.0075C3.64304 18.9205 3.49905 18.8128 3.3713 18.6875C2.78492 18.0311 2.39619 17.2223 2.25005 16.3544C1.98108 15.2013 1.94749 14.0058 2.1513 12.8394C2.4682 11.0033 3.42294 9.3379 4.84731 8.13671C6.27169 6.93551 8.0743 6.27556 9.93755 6.27312C10.4093 6.27362 10.88 6.31545 11.3444 6.39812C12.3726 6.57443 13.3556 6.95275 14.2366 7.51123C15.1177 8.06971 15.8794 8.79728 16.4776 9.65187C16.8014 10.1171 17.0756 10.6151 17.2957 11.1375C17.5845 11.8224 17.774 12.5452 17.8582 13.2837L17.8469 13.3012C17.7135 13.5157 17.5617 13.7181 17.3932 13.9062C17.3657 13.9375 17.3394 13.9687 17.3101 14.0019C17.1391 14.1839 16.953 14.3512 16.7538 14.5019C16.7144 14.5319 16.6732 14.5612 16.6288 14.5906C16.4152 14.7447 16.1897 14.8816 15.9544 15C15.9294 15.0131 15.9019 15.0231 15.8763 15.0356C15.631 15.1529 15.3781 15.2537 15.1194 15.3375C15.0944 15.3462 15.0701 15.3556 15.0444 15.3637C15.0834 14.6598 14.9975 13.9546 14.7907 13.2806C14.7319 13.0931 14.6501 12.9187 14.5751 12.74C15.071 12.4427 15.4771 12.0166 15.7501 11.5069L15.1938 11.2219C14.9822 11.6102 14.6761 11.9388 14.3038 12.1775C14.2018 11.9807 14.0891 11.7896 13.9663 11.605C13.828 11.4075 13.6775 11.2188 13.5157 11.04ZM12.5719 16.54C12.8643 16.418 13.1889 16.396 13.4951 16.4775C13.4782 16.5237 13.4682 16.5712 13.4526 16.6175C13.4032 16.7625 13.3557 16.9081 13.3188 17.055C13.3019 17.1206 13.2926 17.1875 13.2788 17.2531C13.2501 17.3856 13.2213 17.5187 13.2026 17.6531C13.2026 17.665 13.1976 17.6762 13.1963 17.6875C13.0407 17.7137 12.8919 17.7419 12.7532 17.7719C12.4763 17.8181 12.2132 17.8706 11.9682 17.9287C11.5019 18.0344 11.0544 18.1575 10.6519 18.2894C10.5101 18.3325 10.3757 18.375 10.2663 18.4181C10.1038 18.4756 9.9538 18.5319 9.81568 18.5869C9.77943 18.6012 9.74943 18.615 9.71505 18.6294C9.62818 18.6656 9.5388 18.7019 9.46068 18.7369C10.3224 17.7832 11.3851 17.0327 12.5719 16.5394V16.54ZM11.4876 19.3431L11.5413 19.3269C11.7701 19.2644 12.0051 19.2019 12.2501 19.1456C12.4744 19.0925 12.7113 19.0456 12.9857 18.9987C13.0432 18.9869 13.1107 18.9794 13.1663 18.9681L13.1719 19.0256L13.2026 19.3275C12.6319 19.3704 12.0589 19.3756 11.4876 19.3431ZM20.0563 33.625C18.4251 33.625 15.7351 31.8837 15.5032 29.5681L14.4157 18.9006C14.3938 18.687 14.3884 18.472 14.3994 18.2575C14.4114 18.0232 14.4417 17.7902 14.4901 17.5606C14.4976 17.5231 14.5038 17.485 14.5126 17.4481C14.563 17.2281 14.6303 17.0122 14.7138 16.8025C14.7213 16.7831 14.7294 16.7644 14.7376 16.745C14.8326 16.7237 14.9207 16.6956 15.0138 16.6712C15.1069 16.6469 15.2151 16.62 15.3126 16.5906C15.4576 16.5475 15.5969 16.4981 15.7357 16.4481C15.8238 16.4162 15.9144 16.3856 16.0001 16.3525C16.1469 16.29 16.2863 16.2275 16.4257 16.16C16.4944 16.1269 16.5669 16.0975 16.6338 16.0619C16.8244 15.9621 17.0098 15.8528 17.1894 15.7344L17.2132 15.72C17.3949 15.5978 17.5697 15.4657 17.7369 15.3244C17.7901 15.2787 17.8382 15.2281 17.8901 15.1812C17.9982 15.0825 18.1063 14.9837 18.2063 14.8769C18.2638 14.8144 18.3163 14.7487 18.3713 14.685C18.4569 14.585 18.5419 14.485 18.6213 14.3787C18.6751 14.3062 18.7251 14.2287 18.7757 14.1531C18.8263 14.0775 18.8751 14.0169 18.9194 13.9444H20.9451C20.9913 14.0162 21.0444 14.0819 21.0932 14.1512C21.1419 14.2206 21.1919 14.2937 21.2444 14.3619C21.3269 14.4681 21.4157 14.5681 21.5044 14.6681C21.5582 14.7275 21.6088 14.7894 21.6644 14.8462C21.7694 14.9537 21.8819 15.0537 21.9951 15.1525C22.0432 15.1944 22.0876 15.2394 22.1369 15.2775C22.3048 15.4146 22.4803 15.5421 22.6626 15.6594C22.6813 15.6719 22.7026 15.6812 22.7213 15.6937C22.888 15.7983 23.0609 15.896 23.2401 15.9869C23.3088 16.0212 23.3832 16.0494 23.4538 16.0831C23.5901 16.1456 23.7263 16.2081 23.8701 16.2625C23.9569 16.2962 24.0482 16.325 24.1382 16.355C24.2732 16.4012 24.4094 16.4469 24.5507 16.4862C24.6501 16.5144 24.7526 16.5387 24.8551 16.5637C24.9401 16.5837 25.0207 16.6087 25.1051 16.6262C25.1351 16.6944 25.1632 16.7631 25.1901 16.8325C25.2169 16.9019 25.2426 16.9631 25.2651 17.0294C25.2976 17.1269 25.3226 17.2262 25.3482 17.3256C25.3644 17.3881 25.3844 17.4506 25.3976 17.5175C25.4207 17.6269 25.4351 17.7375 25.4501 17.8481C25.4569 17.9044 25.4688 17.9594 25.4738 18.015C25.4898 18.1832 25.496 18.3523 25.4926 18.5212V18.535C25.4945 18.6247 25.491 18.7145 25.4819 18.8037L24.6132 29.4775C24.4282 31.75 21.4819 33.625 20.0563 33.625ZM26.6619 19.75L26.7007 19.2656L26.7332 19.2706C27.0582 19.3287 27.3701 19.3956 27.6707 19.4631C27.7457 19.48 27.8194 19.4981 27.8932 19.5162C28.1569 19.5787 28.4126 19.6481 28.6582 19.7206L28.7494 19.7462C28.0545 19.7939 27.3571 19.7952 26.6619 19.75ZM27.3307 16.6656C28.2476 17.0437 30.1463 18.155 30.7682 19.1656C30.7376 19.1519 30.7057 19.1406 30.6732 19.1269C30.4232 19.0156 30.1657 18.9087 29.8938 18.8094L29.8376 18.7906C29.5794 18.6975 29.3088 18.6112 29.0307 18.5287C28.9473 18.5046 28.864 18.4808 28.7807 18.4575C28.5126 18.3825 28.2369 18.3119 27.9519 18.2462C27.9132 18.2375 27.8763 18.2275 27.8369 18.2187C27.5144 18.1469 27.1788 18.0825 26.8369 18.0231C26.8001 18.0169 26.7669 18.0087 26.7301 18.0025C26.7301 17.9819 26.7232 17.9619 26.7213 17.94C26.7082 17.7862 26.6832 17.6344 26.6588 17.4825C26.6457 17.4031 26.6382 17.3231 26.6213 17.2444C26.5763 17.0329 26.5189 16.8242 26.4494 16.6194C26.4432 16.6019 26.4407 16.5831 26.4344 16.5656C26.7365 16.5112 27.048 16.5459 27.3307 16.6656ZM37.6638 15.9631C37.5357 16.8306 37.1677 17.645 36.6013 18.3144C36.4719 18.4447 36.3273 18.5591 36.1707 18.655C35.7769 18.8798 35.3239 18.9791 34.8721 18.9396C34.4204 18.9002 33.9915 18.724 33.6426 18.4344C33.4799 18.3081 33.3345 18.161 33.2101 17.9969C33.6622 18.1412 34.1438 18.167 34.6088 18.0719C35.1186 17.9564 35.5861 17.7009 35.9587 17.3342C36.3312 16.9676 36.594 16.5042 36.7176 15.9962C36.9394 14.9242 36.8445 13.8109 36.4444 12.7919C36.008 11.5818 35.1962 10.5429 34.1276 9.82687C33.0034 9.06941 31.6541 8.71892 30.3034 8.83351C28.9528 8.94809 27.6818 9.52087 26.7013 10.4569C26.6425 10.3998 26.5969 10.3306 26.5676 10.254C26.5384 10.1775 26.5262 10.0955 26.5319 10.0137C26.5379 9.93086 26.5107 9.84901 26.4563 9.78618C26.4019 9.72336 26.3248 9.68471 26.2419 9.67874C26.159 9.67278 26.0772 9.69998 26.0144 9.75436C25.9515 9.80875 25.9129 9.88586 25.9069 9.96874C25.8902 10.2839 25.9926 10.5938 26.1938 10.8369C26.2176 10.8644 26.2469 10.885 26.2726 10.9094C26.1144 11.0944 25.967 11.2885 25.8313 11.4906C25.7118 11.6756 25.6016 11.8665 25.5013 12.0625C25.1279 11.8321 24.8175 11.5125 24.5982 11.1325C24.5574 11.0621 24.4908 11.0103 24.4125 10.9882C24.3342 10.9661 24.2504 10.9754 24.1788 11.0141C24.1073 11.0529 24.0537 11.118 24.0294 11.1957C24.0051 11.2733 24.0121 11.3574 24.0488 11.43C24.3322 11.9299 24.7441 12.3449 25.2419 12.6319C25.1713 12.8125 25.1063 12.9975 25.0544 13.1881C24.8626 13.8656 24.7929 14.5718 24.8488 15.2737C24.8188 15.265 24.7863 15.255 24.7588 15.2456C24.4917 15.1665 24.2303 15.0694 23.9763 14.955C23.9663 14.95 23.9557 14.9469 23.9457 14.9419C23.7049 14.8277 23.4735 14.6945 23.2538 14.5437C23.2113 14.515 23.1682 14.4869 23.1288 14.4569C22.9272 14.3114 22.738 14.1494 22.5632 13.9725C22.5319 13.94 22.5007 13.9056 22.4719 13.8719C22.3046 13.693 22.1528 13.5002 22.0182 13.2956C22.0113 13.2856 22.0038 13.2769 21.9969 13.2669C22.0622 12.5217 22.2315 11.7894 22.5001 11.0912C22.7076 10.564 22.9721 10.0611 23.2888 9.59124C24.1575 8.28132 25.396 7.25918 26.8468 6.65466C28.2977 6.05014 29.8956 5.89053 31.4374 6.1961C32.9792 6.50167 34.3953 7.25864 35.506 8.37084C36.6166 9.48304 37.3716 10.9003 37.6751 12.4425C37.9095 13.6047 37.9057 14.8024 37.6638 15.9631Z" fill="#394750"/>
</svg>
