<svg width="40" height="40" viewBox="0 0 40 40" fill="none" xmlns="http://www.w3.org/2000/svg">
<path d="M10.8125 9.55625C10.81 9.47512 10.7897 9.39553 10.753 9.32315C10.7163 9.25077 10.664 9.18738 10.6 9.1375C10.7437 9.0125 10.9062 8.88125 11.0812 8.75L11.3187 10.3C11.3187 10.3 12.4125 9.9125 12.5687 9.875C20.5875 8.3125 28.6875 13.4688 29.125 13.75L29.1375 13.7625C28.7522 14.5904 28.5012 15.4744 28.3937 16.3812L28.4187 16.3438C28.2561 16.9217 28.1247 17.508 28.025 18.1C27.7125 18 27.3937 17.8875 27.0687 17.7563L27.0125 17.7313L24.5625 16.525L24.5062 16.4937C23.3062 15.825 22.075 15.0625 20.8125 14.3187C18.6654 12.9618 16.2823 12.0204 13.7875 11.5437C12.5187 11.2625 11.4312 11.0875 10.7 10.9C10.7522 10.8454 10.7925 10.7805 10.8183 10.7095C10.8441 10.6385 10.8549 10.5629 10.85 10.4875L10.8375 10.175L10.8125 9.55625Z" fill="#FFF9ED"/>
<path d="M28.4688 11.9813C28.5676 12.2189 28.7498 12.4122 28.9811 12.525C29.2125 12.6378 29.477 12.6622 29.725 12.5938L29.8688 12.55L29.9 12.575C29.5955 12.9349 29.3412 13.3344 29.1438 13.7625H29.1375L29.125 13.75C28.6875 13.4688 20.5875 8.31251 12.5688 9.87501C12.4125 9.91251 11.3188 10.3 11.3188 10.3L11.0813 8.75001C13.35 7.05001 18.2813 4.93126 24.6313 5.95626C25.9841 6.18775 27.3013 6.5932 28.55 7.16251C28.0785 7.39833 27.7142 7.80453 27.5308 8.29886C27.3475 8.79319 27.3588 9.33872 27.5625 9.82501L28.4688 11.9813Z" fill="#FC7601"/>
<path d="M27.2125 6.30626L22.4 5.55001L22.7125 1.81876C22.7125 1.81876 23 3.18126 25.6875 3.85626C26.2128 3.98203 26.6674 4.30969 26.9529 4.76826C27.2383 5.22683 27.3316 5.77939 27.2125 6.30626Z" fill="#F6B884"/>
<path d="M29.725 12.5937C29.4769 12.6622 29.2124 12.6378 28.9811 12.525C28.7497 12.4122 28.5676 12.2188 28.4687 11.9812L27.5625 9.82499C27.3587 9.33871 27.3474 8.79318 27.5307 8.29885C27.7141 7.80451 28.0784 7.39832 28.55 7.16249C28.668 7.09508 28.794 7.0426 28.925 7.00624L29.75 6.77499L29.7687 7.80624L29.8687 12.55L29.725 12.5937Z" fill="#CCBADE"/>
<path d="M27.2625 17.85L26.3938 20.5375C26.3938 20.4813 26.3688 19.3 24.2688 18.2188C23.6938 17.8938 22.675 17.025 23.2688 15.8875L24.5063 16.4938L24.5625 16.525C25.3556 16.9734 26.1736 17.3762 27.0125 17.7313L27.0688 17.7563L27.2625 17.85Z" fill="#F6B884"/>
<path d="M29.1438 13.7625C29.3411 13.3343 29.5955 12.9349 29.9 12.575C30.33 12.0486 30.8965 11.6507 31.5375 11.425C29.8375 12.4375 28.9125 14.575 28.4188 16.3375V16.3437L28.3938 16.3812C28.5013 15.4744 28.7523 14.5904 29.1375 13.7625H29.1438ZM31.725 13.6375L31.7188 13.6437C31.7188 13.6421 31.7195 13.6405 31.7206 13.6393C31.7218 13.6381 31.7234 13.6375 31.725 13.6375Z" fill="#FFF9ED"/>
<path d="M34.6188 13.7625C34.3468 12.7091 33.8665 11.7209 33.2063 10.8563C32.6195 10.9196 32.054 11.1117 31.55 11.4188C31.5438 11.4125 31.5438 11.4188 31.5375 11.425C29.8375 12.4375 28.9125 14.575 28.4188 16.3375V16.3438C28.2562 16.9217 28.1247 17.508 28.025 18.1C28.8342 18.4112 29.6976 18.5566 30.564 18.5276C31.4305 18.4986 32.2822 18.2958 33.0688 17.9313C34.55 17.2938 35.0688 15.65 34.6188 13.7625ZM32.95 14.875C32.8647 14.9523 32.765 15.012 32.6566 15.0507C32.5482 15.0894 32.4333 15.1063 32.3183 15.1005C32.2034 15.0947 32.0907 15.0663 31.9867 15.0169C31.8828 14.9675 31.7896 14.898 31.7125 14.8125C31.6346 14.728 31.575 14.6283 31.5374 14.5197C31.4997 14.4111 31.4849 14.2959 31.4938 14.1813C31.5233 14.2524 31.5725 14.3137 31.6356 14.358C31.6987 14.4023 31.773 14.4277 31.85 14.4313C31.9035 14.4344 31.9571 14.4268 32.0076 14.4089C32.0581 14.391 32.1045 14.3631 32.1441 14.327C32.1837 14.2909 32.2157 14.2473 32.2382 14.1986C32.2607 14.15 32.2732 14.0973 32.275 14.0438C32.2805 13.9353 32.2428 13.829 32.1702 13.7482C32.0976 13.6674 31.996 13.6186 31.8875 13.6125C31.8321 13.6076 31.7764 13.6161 31.725 13.6375C31.7377 13.6138 31.7547 13.5926 31.775 13.575C31.8603 13.4977 31.96 13.438 32.0684 13.3993C32.1768 13.3606 32.2918 13.3437 32.4067 13.3495C32.5217 13.3553 32.6344 13.3837 32.7383 13.4331C32.8423 13.4826 32.9355 13.552 33.0125 13.6375C33.0898 13.7228 33.1495 13.8225 33.1882 13.9309C33.2269 14.0393 33.2439 14.1543 33.238 14.2692C33.2322 14.3842 33.2038 14.4969 33.1544 14.6008C33.105 14.7048 33.0355 14.7979 32.95 14.875Z" fill="#FDFDFD"/>
<path d="M32.275 14.0437C32.2804 13.9353 32.2427 13.829 32.1701 13.7482C32.0975 13.6674 31.9959 13.6186 31.8875 13.6125C31.8321 13.6075 31.7763 13.6161 31.725 13.6375C31.7377 13.6138 31.7546 13.5926 31.775 13.575C31.8602 13.4977 31.96 13.438 32.0684 13.3993C32.1768 13.3606 32.2917 13.3437 32.4067 13.3495C32.5216 13.3553 32.6343 13.3837 32.7383 13.4331C32.8422 13.4826 32.9354 13.552 33.0125 13.6375C33.0898 13.7228 33.1495 13.8225 33.1882 13.9309C33.2269 14.0393 33.2438 14.1543 33.238 14.2692C33.2322 14.3842 33.2038 14.4969 33.1543 14.6008C33.1049 14.7048 33.0355 14.7979 32.95 14.875C32.8647 14.9523 32.765 15.012 32.6566 15.0507C32.5482 15.0894 32.4332 15.1063 32.3182 15.1005C32.2033 15.0947 32.0906 15.0663 31.9867 15.0169C31.8827 14.9674 31.7895 14.898 31.7125 14.8125C31.6346 14.728 31.5749 14.6283 31.5373 14.5197C31.4997 14.4111 31.4848 14.2959 31.4937 14.1812C31.5233 14.2524 31.5725 14.3137 31.6355 14.358C31.6986 14.4022 31.773 14.4277 31.85 14.4312C31.9035 14.4344 31.957 14.4267 32.0076 14.4088C32.0581 14.3909 32.1045 14.3631 32.1441 14.327C32.1837 14.2909 32.2157 14.2473 32.2381 14.1986C32.2606 14.15 32.2731 14.0973 32.275 14.0437Z" fill="#FFF9ED"/>
<path d="M28.2938 29.5063L28.2688 28.8875L28.2563 28.5813C28.2525 28.5054 28.2644 28.4297 28.2913 28.3587C28.3182 28.2877 28.3595 28.223 28.4126 28.1688C28.4188 28.1438 28.4438 28.1313 28.4563 28.1125L31.5438 25.4187C31.6272 25.3454 31.7297 25.2972 31.8394 25.2798C31.9491 25.2623 32.0615 25.2763 32.1636 25.3201C32.2656 25.364 32.3532 25.4358 32.4161 25.5274C32.4789 25.619 32.5146 25.7265 32.5188 25.8375L32.5876 27.4438C32.592 27.5845 32.5454 27.7222 32.4563 27.8313L31.9251 28.4875C31.8354 28.5966 31.7879 28.7342 31.7914 28.8754C31.7948 29.0165 31.8489 29.1517 31.9438 29.2563L32.5563 29.9313C32.6473 30.0332 32.7003 30.1635 32.7063 30.3L32.7751 31.8563C32.7793 31.9663 32.7524 32.0753 32.6975 32.1707C32.6425 32.2661 32.5618 32.3441 32.4645 32.3956C32.3672 32.4472 32.2574 32.4703 32.1476 32.4622C32.0378 32.4541 31.9325 32.4152 31.8438 32.35L28.5438 29.9625C28.5298 29.9516 28.5172 29.939 28.5063 29.925C28.4418 29.8756 28.3892 29.8123 28.3524 29.7398C28.3156 29.6673 28.2956 29.5875 28.2938 29.5063Z" fill="#FC7601"/>
<path d="M33.2063 10.8562C32.6195 10.9196 32.054 11.1117 31.55 11.4187C31.5438 11.4125 31.5438 11.4187 31.5375 11.425C30.8965 11.6507 30.33 12.0486 29.9 12.575L29.8688 12.55L29.7688 7.80624C31.1084 8.58094 32.2776 9.61838 33.2063 10.8562Z" fill="#FFF9ED"/>
<path d="M12.3938 21.4625C14.0077 22.2166 15.5732 23.0704 17.0813 24.0187V24.025C17.4813 24.2625 17.8875 24.5062 18.2938 24.7437C21.6625 27.025 25.75 27.5938 27.9 28.05L27.8438 29.0125C19.3625 31.7062 10.025 25.3375 10.025 25.3375L9.74377 25.2938C10.5897 23.9931 10.9951 22.4549 10.9 20.9062C11.4048 21.0585 11.8995 21.2422 12.3813 21.4563C12.3875 21.4563 12.3938 21.4562 12.3938 21.4625Z" fill="#FC7601"/>
<path d="M24.5625 16.525L27.0125 17.7312C26.1735 17.3761 25.3555 16.9734 24.5625 16.525Z" fill="#FFF9ED"/>
<path d="M16.05 20.6687C16.8187 21.1062 17.9625 22.375 17.15 23.9125L17.0812 24.0187C15.5732 23.0704 14.0077 22.2166 12.3937 21.4625C12.3937 21.4562 12.3875 21.4562 12.3812 21.4562L11.9562 21.2187L11.9812 21.175L13.1625 17.525C13.1625 17.5937 13.1937 19.2 16.05 20.6687ZM14.5375 33.2937L14.3812 35.2125C14.3812 35.2125 14.2062 34.4062 12.6125 34.0062C12.287 33.9098 12.006 33.7018 11.8187 33.4187L11.8625 33.3875C12.152 33.2508 12.4017 33.042 12.5875 32.7812L14.5375 33.2937Z" fill="#F6B884"/>
<path d="M11.2563 26.8563C11.6813 27.2375 14.2 29.5813 13.4687 31.2813C13.262 31.7829 12.991 32.2557 12.6625 32.6875C11.9441 32.4795 11.2422 32.2184 10.5625 31.9063C11.034 31.6688 11.3977 31.2611 11.5799 30.7656C11.7621 30.2701 11.7492 29.7238 11.5437 29.2375L10.65 27.1063L11.2563 26.8563Z" fill="#CCBADE"/>
<path d="M11.7 32.5438L12.5875 32.7813C12.4017 33.042 12.152 33.2508 11.8625 33.3875L11.8187 33.4188C11.738 33.2897 11.6856 33.1449 11.6651 32.9941C11.6447 32.8432 11.6565 32.6897 11.7 32.5438Z" fill="#F6B884"/>
<path d="M11.5438 29.2375C11.7492 29.7238 11.7621 30.2701 11.5799 30.7656C11.3978 31.2611 11.0341 31.6688 10.5625 31.9062L9.33752 31.2562L9.24377 26.5125L9.38127 26.475C9.6302 26.4062 9.89567 26.4304 10.128 26.5432C10.3604 26.6559 10.5437 26.8494 10.6438 27.0875L10.65 27.1062L11.5438 29.2375Z" fill="#CCBADE"/>
<path d="M10.8999 20.9063C10.995 22.4549 10.5896 23.9931 9.74369 25.2938C9.51732 25.6379 9.26447 25.9639 8.98744 26.2688C8.15734 27.162 7.1701 27.895 6.07494 28.4313C3.74994 25.4813 3.76244 22.1188 6.03744 21.1375C7.56419 20.4215 9.31213 20.3384 10.8999 20.9063ZM8.69369 23.4688C8.77147 23.3854 8.83108 23.2868 8.86874 23.1792C8.9064 23.0716 8.92128 22.9574 8.91244 22.8438C8.88316 22.9134 8.83473 22.9732 8.77277 23.0164C8.71081 23.0595 8.63787 23.0842 8.56244 23.0875C8.45327 23.0916 8.34686 23.0526 8.26618 22.9789C8.1855 22.9053 8.13702 22.8028 8.13119 22.6938C8.12859 22.6404 8.13656 22.587 8.15465 22.5367C8.17274 22.4864 8.20058 22.4402 8.23659 22.4007C8.2726 22.3612 8.31606 22.3292 8.36447 22.3066C8.41289 22.2839 8.46529 22.2711 8.51869 22.2688C8.57609 22.2648 8.63367 22.2733 8.68744 22.2938C8.6723 22.2699 8.65329 22.2488 8.63119 22.2313C8.50272 22.1154 8.34281 22.0403 8.17167 22.0153C8.00052 21.9904 7.82581 22.0167 7.66961 22.0909C7.5134 22.1652 7.38272 22.2841 7.29405 22.4326C7.20538 22.5811 7.16272 22.7526 7.17144 22.9253C7.18017 23.098 7.23989 23.2643 7.34307 23.4031C7.44624 23.542 7.58825 23.6471 7.75114 23.7052C7.91403 23.7634 8.0905 23.772 8.25826 23.7299C8.42602 23.6878 8.57754 23.5969 8.69369 23.4688Z" fill="#FDFDFD"/>
<path d="M10.8375 10.175L10.85 10.4875C10.8549 10.5629 10.8441 10.6385 10.8183 10.7095C10.7925 10.7805 10.7522 10.8454 10.7 10.9C10.6851 10.9203 10.6684 10.9391 10.65 10.9562L7.56251 13.6437C7.4795 13.7168 7.37754 13.765 7.26838 13.7827C7.15921 13.8004 7.04726 13.7869 6.94541 13.7438C6.84355 13.7007 6.75593 13.6298 6.69262 13.5391C6.6293 13.4484 6.59287 13.3417 6.58751 13.2312L6.51876 11.625C6.51722 11.4828 6.56343 11.3441 6.65001 11.2312L7.18126 10.575C7.27321 10.4686 7.32275 10.332 7.32045 10.1914C7.31814 10.0507 7.26415 9.91586 7.16876 9.81249L6.55001 9.13749C6.46001 9.03491 6.40718 8.90502 6.40001 8.76874L6.33751 7.21249C6.33253 7.10213 6.35883 6.99261 6.41338 6.89655C6.46793 6.80049 6.54851 6.72179 6.64584 6.66953C6.74317 6.61728 6.85329 6.59358 6.9635 6.60118C7.07371 6.60878 7.17953 6.64737 7.26876 6.71249L10.5688 9.10624L10.6 9.13749C10.664 9.18737 10.7163 9.25076 10.753 9.32314C10.7898 9.39552 10.8101 9.47511 10.8125 9.55624L10.8375 10.175ZM9.33751 31.2562L10.5625 31.9062C10.4409 31.9691 10.3131 32.0193 10.1813 32.0562L9.35626 32.2875L9.33751 31.2562Z" fill="#FC7601"/>
<path d="M28.5062 29.925C26.5187 31.6687 21.3187 34.2187 14.475 33.1062C13.8636 32.9996 13.2586 32.8599 12.6625 32.6875C12.991 32.2556 13.262 31.7829 13.4687 31.2812C14.2 29.5812 11.6812 27.2375 11.2562 26.8562L10.65 27.1062L10.6437 27.0875C10.5436 26.8494 10.3603 26.6559 10.1279 26.5432C9.89559 26.4305 9.63013 26.4062 9.3812 26.475L9.2437 26.5125L9.33745 31.2562C8.08187 30.5283 6.97499 29.5698 6.07495 28.4312C7.17011 27.895 8.15735 27.162 8.98745 26.2687C9.26448 25.9639 9.51733 25.6379 9.7437 25.2937L10.025 25.3375C10.025 25.3375 19.3624 31.7062 27.8437 29.0125L27.9 28.05C28.0875 28.0937 28.2562 28.1312 28.4124 28.1687C28.3594 28.223 28.3181 28.2877 28.2912 28.3587C28.2643 28.4297 28.2524 28.5054 28.2562 28.5812L28.2687 28.8875L28.2937 29.5062C28.2955 29.5875 28.3155 29.6673 28.3523 29.7398C28.3891 29.8123 28.4417 29.8756 28.5062 29.925ZM8.91245 22.8437C8.92129 22.9574 8.90641 23.0716 8.86875 23.1792C8.83109 23.2868 8.77148 23.3854 8.6937 23.4687C8.57755 23.5969 8.42603 23.6878 8.25827 23.7299C8.09051 23.772 7.91404 23.7634 7.75115 23.7052C7.58826 23.6471 7.44626 23.542 7.34308 23.4031C7.2399 23.2643 7.18018 23.098 7.17145 22.9253C7.16273 22.7526 7.2054 22.5811 7.29406 22.4326C7.38273 22.2841 7.51342 22.1652 7.66962 22.0909C7.82582 22.0167 8.00053 21.9904 8.17168 22.0153C8.34283 22.0403 8.50273 22.1154 8.6312 22.2312C8.6533 22.2488 8.67231 22.2699 8.68745 22.2937C8.63368 22.2733 8.5761 22.2648 8.5187 22.2687C8.46531 22.2711 8.4129 22.2839 8.36449 22.3066C8.31607 22.3292 8.27261 22.3612 8.23661 22.4007C8.2006 22.4402 8.17275 22.4864 8.15466 22.5367C8.13657 22.587 8.1286 22.6404 8.1312 22.6937C8.13703 22.8028 8.18551 22.9053 8.26619 22.9789C8.34687 23.0526 8.45328 23.0916 8.56245 23.0875C8.63788 23.0842 8.71082 23.0595 8.77278 23.0164C8.83474 22.9732 8.88317 22.9133 8.91245 22.8437Z" fill="#FFF9ED"/>
<path d="M8.56252 23.0875C8.45335 23.0916 8.34694 23.0526 8.26626 22.9789C8.18558 22.9053 8.1371 22.8028 8.13127 22.6937C8.12867 22.6404 8.13664 22.587 8.15473 22.5367C8.17282 22.4864 8.20067 22.4402 8.23668 22.4007C8.27268 22.3612 8.31614 22.3292 8.36456 22.3066C8.41297 22.2839 8.46538 22.2711 8.51877 22.2687C8.57617 22.2648 8.63375 22.2733 8.68752 22.2937C8.67238 22.2699 8.65337 22.2488 8.63127 22.2312C8.5028 22.1154 8.3429 22.0403 8.17175 22.0153C8.0006 21.9904 7.82589 22.0167 7.66969 22.0909C7.51349 22.1652 7.3828 22.2841 7.29413 22.4326C7.20547 22.5811 7.1628 22.7526 7.17152 22.9253C7.18025 23.098 7.23997 23.2643 7.34315 23.4031C7.44633 23.5419 7.58833 23.6471 7.75122 23.7052C7.91411 23.7634 8.09058 23.772 8.25834 23.7299C8.4261 23.6878 8.57762 23.5969 8.69377 23.4687C8.77155 23.3854 8.83116 23.2868 8.86882 23.1792C8.90648 23.0716 8.92136 22.9574 8.91252 22.8437C8.88324 22.9133 8.83481 22.9732 8.77285 23.0163C8.71089 23.0595 8.63795 23.0842 8.56252 23.0875ZM31.775 13.575C31.7526 13.5947 31.7336 13.6179 31.7188 13.6437C31.7708 13.6173 31.8294 13.6064 31.8875 13.6125C31.996 13.6186 32.0976 13.6674 32.1702 13.7482C32.2428 13.829 32.2805 13.9353 32.275 14.0437C32.2732 14.0973 32.2607 14.15 32.2382 14.1986C32.2157 14.2473 32.1837 14.2909 32.1441 14.327C32.1045 14.3631 32.0581 14.3909 32.0076 14.4088C31.9571 14.4267 31.9035 14.4344 31.85 14.4312C31.773 14.4277 31.6987 14.4022 31.6356 14.358C31.5725 14.3137 31.5233 14.2524 31.4938 14.1812C31.4849 14.2959 31.4997 14.4111 31.5374 14.5197C31.575 14.6283 31.6346 14.728 31.7125 14.8125C31.8287 14.9407 31.9802 15.0315 32.148 15.0736C32.3157 15.1157 32.4922 15.1071 32.6551 15.049C32.818 14.9908 32.96 14.8857 33.0631 14.7469C33.1663 14.6081 33.226 14.4418 33.2348 14.2691C33.2435 14.0963 33.2008 13.9249 33.1122 13.7764C33.0235 13.6279 32.8928 13.509 32.7366 13.4347C32.5804 13.3604 32.4057 13.3341 32.2345 13.3591C32.0634 13.3841 31.9035 13.4592 31.775 13.575Z" fill="#394750"/>
<path d="M33.0656 29.4519L32.4556 28.8269L32.9806 28.1719C33.1648 27.942 33.2606 27.6538 33.2506 27.3594L33.1756 25.7544C33.1651 25.5259 33.0901 25.305 32.9593 25.1174C32.8286 24.9297 32.6474 24.7828 32.4367 24.6938C32.226 24.6048 31.9944 24.5772 31.7687 24.6142C31.543 24.6512 31.3324 24.7514 31.1612 24.9031L28.2681 27.4481C27.9331 27.3744 27.5456 27.2994 27.1149 27.2169C24.8781 26.7862 21.4974 26.1356 18.6337 24.2169C18.3912 24.075 18.1512 23.9325 17.9106 23.79C18.4956 22.1081 17.3224 20.6844 16.3406 20.135C13.8712 18.875 13.7824 17.5644 13.7818 17.5644C13.7843 17.4143 13.7327 17.2684 13.6365 17.1533C13.5402 17.0381 13.4058 16.9615 13.2577 16.9373C13.1096 16.9131 12.9577 16.943 12.8298 17.0215C12.7019 17.1 12.6066 17.222 12.5612 17.365L11.5612 20.5C9.58995 19.8231 7.67057 19.6875 5.79495 20.625C5.18654 20.9016 4.66965 21.346 4.30499 21.906C3.94032 22.4661 3.743 23.1186 3.7362 23.7869C3.59995 26.0994 5.1112 29.3881 8.7737 31.6581L8.7912 32.3519C8.79374 32.4472 8.81803 32.5406 8.86223 32.625C8.90642 32.7095 8.96935 32.7827 9.04619 32.8391C9.12303 32.8955 9.21175 32.9336 9.30556 32.9504C9.39937 32.9672 9.49579 32.9624 9.58745 32.9363L10.3999 32.7044C10.4724 32.6844 10.5368 32.6469 10.6068 32.6206C10.7672 32.6906 10.9297 32.7581 11.0943 32.8231C11.0958 33.2424 11.237 33.6492 11.4956 33.9792C11.7543 34.3092 12.1156 34.5435 12.5224 34.645C13.6212 34.9162 13.8349 35.375 13.8349 35.375C13.8655 35.5142 13.9426 35.6389 14.0537 35.7282C14.1648 35.8176 14.303 35.8663 14.4456 35.8662C14.4599 35.8662 14.4737 35.8662 14.4881 35.8662C14.6377 35.8562 14.7787 35.7928 14.8854 35.6874C14.9921 35.5821 15.0574 35.4419 15.0693 35.2925L15.1824 33.855C16.0438 33.9619 16.9108 34.0162 17.7787 34.0175C21.6396 34.0908 25.4223 32.9236 28.5706 30.6875L31.5274 32.8087C31.7117 32.9429 31.9301 33.0223 32.1575 33.0377C32.3849 33.0532 32.612 33.004 32.8127 32.896C33.0134 32.7879 33.1794 32.6254 33.2917 32.427C33.4041 32.2287 33.458 32.0027 33.4474 31.775L33.375 30.2206C33.3682 29.9354 33.2582 29.6623 33.0656 29.4519ZM13.2556 19.3C13.9343 20.1201 14.7861 20.7799 15.7499 21.2319C16.0893 21.4116 16.3688 21.6865 16.5542 22.0228C16.7396 22.359 16.8228 22.7421 16.7937 23.125C15.4839 22.3211 14.1273 21.5961 12.7312 20.9538L13.2556 19.3ZM10.3124 31.3969C10.2335 31.4404 10.1496 31.4739 10.0624 31.4969L10.0174 31.51L9.9112 27.1594C9.99547 27.2067 10.0615 27.2808 10.0987 27.37L11.0099 29.5181C11.1543 29.8572 11.1647 30.2384 11.0391 30.5848C10.9135 30.9313 10.6612 31.2172 10.3331 31.385L10.3124 31.3969ZM12.8487 33.4338C12.7761 33.4092 12.7065 33.3765 12.6412 33.3363C13.0674 33.4558 13.5033 33.56 13.9487 33.6488L13.9337 33.8438C13.5919 33.6607 13.2279 33.5229 12.8506 33.4338H12.8487ZM14.6431 32.5144C13.6752 32.3508 12.7246 32.0974 11.8037 31.7575C11.876 31.6646 11.9422 31.5671 12.0018 31.4656C12.0751 31.3372 12.1378 31.203 12.1893 31.0644C12.2043 31.0256 12.2168 30.9869 12.2299 30.9475C12.2674 30.8354 12.2975 30.721 12.3199 30.605C12.3268 30.5719 12.3349 30.5425 12.3406 30.5069C12.3641 30.3599 12.3756 30.2113 12.3749 30.0625C12.3749 30.0294 12.3706 29.9956 12.3687 29.9619C12.3635 29.8411 12.3499 29.7208 12.3281 29.6019C12.3206 29.56 12.3131 29.5181 12.3031 29.4769C12.2696 29.3243 12.2228 29.175 12.1631 29.0306L11.2537 26.8869C11.0852 26.4823 10.7638 26.1606 10.3593 25.9919C10.3687 25.9762 10.3781 25.96 10.3868 25.9437C12.0249 26.9044 17.4331 29.8 23.1312 29.8C24.2884 29.8056 25.4422 29.6747 26.5687 29.41C26.6493 29.3907 26.719 29.3401 26.7624 29.2695C26.8057 29.1988 26.8193 29.1138 26.7999 29.0331C26.7806 28.9525 26.7301 28.8828 26.6594 28.8394C26.5887 28.7961 26.5037 28.7826 26.4231 28.8019C19.8918 30.3681 12.5199 26.4544 10.6649 25.3787C11.0202 24.5504 11.2518 23.6744 11.3524 22.7787C11.3597 22.697 11.3507 22.6145 11.3261 22.5362C11.3015 22.4579 11.2616 22.3852 11.2089 22.3222C11.1562 22.2593 11.0916 22.2074 11.0188 22.1694C10.946 22.1314 10.8664 22.1082 10.7846 22.1009C10.7028 22.0937 10.6204 22.1027 10.5421 22.1273C10.4638 22.1519 10.3911 22.1917 10.3281 22.2445C10.2652 22.2972 10.2133 22.3618 10.1753 22.4346C10.1373 22.5074 10.114 22.587 10.1068 22.6687C10.1068 22.7075 9.72557 26.5487 7.11182 27.1919C6.96358 27.2284 6.83383 27.3179 6.74704 27.4435C6.66026 27.5691 6.62245 27.7221 6.64075 27.8737C6.65906 28.0252 6.7322 28.1649 6.84639 28.2662C6.96058 28.3675 7.1079 28.4236 7.26057 28.4237C7.31092 28.4239 7.36109 28.4178 7.40995 28.4056C7.86101 28.2942 8.29026 28.108 8.67995 27.855L8.73557 30.1319C6.02745 28.1775 4.88245 25.5906 4.98557 23.8569C4.98165 23.414 5.10627 22.9796 5.34434 22.6062C5.58241 22.2328 5.9237 21.9364 6.32682 21.7531C9.42245 20.2012 12.8212 22.2194 16.7562 24.5562C17.1687 24.8006 17.5837 25.0475 17.9693 25.2706C21.0106 27.3125 24.5412 27.9919 26.8774 28.4419C27.1649 28.4969 27.4337 28.5487 27.6781 28.5987L27.7168 29.5C27.7203 29.5816 27.7323 29.6627 27.7524 29.7419C25.6456 31.3675 20.9093 33.5 14.6449 32.5144H14.6431ZM29.5624 29.8525L30.0418 29.8794H30.0599C30.1428 29.8816 30.2232 29.8508 30.2834 29.7938C30.3436 29.7368 30.3786 29.6582 30.3809 29.5753C30.3831 29.4924 30.3523 29.4121 30.2953 29.3519C30.2383 29.2917 30.1597 29.2566 30.0768 29.2544L28.9581 29.1919L28.9537 29.0875L30.0281 28.955C30.0688 28.95 30.1082 28.9371 30.144 28.9169C30.1797 28.8968 30.2112 28.8697 30.2365 28.8374C30.2618 28.8051 30.2805 28.7681 30.2915 28.7285C30.3025 28.689 30.3056 28.6476 30.3006 28.6069C30.2955 28.5661 30.2825 28.5267 30.2623 28.491C30.242 28.4553 30.2149 28.4239 30.1826 28.3986C30.1502 28.3734 30.1131 28.3548 30.0735 28.3439C30.0339 28.3329 29.9926 28.3299 29.9518 28.335L29.0187 28.45L31.9324 25.8875L32.0093 27.3875L31.4887 28.0369C31.3014 28.2609 31.2022 28.5455 31.2094 28.8374C31.2167 29.1293 31.3299 29.4086 31.5281 29.6231L32.1343 30.27L32.2249 31.76L29.5624 29.8525ZM31.9024 32.2975L32.2656 31.7906L32.2724 31.7944L31.9024 32.2975ZM30.3399 7.41187L30.3224 6.71812C30.32 6.62279 30.2958 6.52928 30.2516 6.44476C30.2075 6.36023 30.1446 6.28693 30.0677 6.23047C29.9909 6.17401 29.9021 6.13588 29.8082 6.11901C29.7144 6.10213 29.6179 6.10696 29.5262 6.13312L28.7137 6.365C28.6412 6.385 28.5756 6.4225 28.5056 6.44875C28.2799 6.35125 28.0543 6.25312 27.8212 6.165C27.8937 5.50988 27.7262 4.85069 27.3497 4.3097C26.9732 3.76871 26.4132 3.38265 25.7737 3.22312C23.5787 2.68062 23.25 1.675 23.25 1.675C23.2181 1.52851 23.1346 1.39834 23.0148 1.30825C22.895 1.21816 22.7468 1.17414 22.5972 1.18421C22.4476 1.19429 22.3067 1.2578 22.2 1.36315C22.0933 1.4685 22.0281 1.60868 22.0162 1.75812L21.7537 5.0625C16.4649 4.95562 12.4693 6.875 10.5393 8.38125L7.58307 6.26062C7.39873 6.1263 7.18017 6.04682 6.95261 6.03134C6.72505 6.01586 6.49774 6.06502 6.29691 6.17315C6.09607 6.28128 5.92989 6.44396 5.81753 6.64246C5.70516 6.84095 5.65118 7.06716 5.66182 7.295L5.73495 8.84937C5.74624 9.13327 5.85837 9.40383 6.0512 9.6125L6.66057 10.2375L6.13495 10.8937C5.95097 11.1237 5.85541 11.4119 5.86557 11.7062L5.94057 13.3119C5.9485 13.5405 6.02168 13.7621 6.15148 13.9505C6.28127 14.1389 6.46226 14.2862 6.67307 14.375C6.88426 14.4656 7.11687 14.4943 7.34374 14.4576C7.57062 14.421 7.78238 14.3206 7.95432 14.1681L10.8481 11.6231C11.1824 11.6962 11.5699 11.7712 12.0006 11.8544C14.2381 12.285 17.6181 12.9356 20.4818 14.8544C20.8981 15.0969 21.3099 15.3419 21.7193 15.585L22.5224 16.06C22.2293 17.185 22.9818 18.1956 23.9806 18.7537C25.6824 19.6225 25.7756 20.5006 25.7774 20.5006C25.7755 20.6503 25.8274 20.7958 25.9236 20.9105C26.0198 21.0252 26.154 21.1015 26.3018 21.1256C26.3351 21.1311 26.3687 21.1338 26.4024 21.1337C26.5353 21.1336 26.6647 21.0911 26.7719 21.0125C26.879 20.9338 26.9582 20.823 26.9981 20.6962L27.6631 18.6056C28.5671 18.925 29.5169 19.0962 30.4756 19.1125C31.4632 19.117 32.4378 18.8872 33.3193 18.4419C33.9268 18.165 34.4427 17.7208 34.8068 17.1613C35.1709 16.6017 35.3679 15.95 35.3749 15.2825C35.5137 12.9725 33.9999 9.68187 30.3399 7.41187ZM28.7774 7.68125L28.8006 7.66875C28.8795 7.62533 28.9635 7.59175 29.0506 7.56875L29.0962 7.55625L29.2024 11.9062C29.1182 11.859 29.0522 11.7848 29.0149 11.6956L28.1037 9.5475C27.9593 9.20874 27.9486 8.82782 28.0739 8.48151C28.1991 8.1352 28.451 7.84924 28.7787 7.68125H28.7774ZM23.1381 3.415C23.8338 3.9037 24.62 4.24896 25.4506 4.43062C25.4631 4.43062 26.5949 4.79375 26.6006 5.76375C25.9678 5.57928 25.3251 5.4305 24.6756 5.31812C24.1056 5.22812 23.5506 5.17062 23.0043 5.12687L23.1381 3.415ZM6.84557 7.27125L7.21557 6.77125L6.85245 7.27812L6.84557 7.27125ZM7.18557 13.1769L7.1087 11.6769L7.62932 11.0275C7.81662 10.8034 7.91587 10.5188 7.90851 10.2268C7.90114 9.93487 7.78768 9.6556 7.58932 9.44125L6.9837 8.79437L6.89245 7.30375L9.55682 9.2125L9.07557 9.18562C9.03449 9.18275 8.99325 9.18813 8.95429 9.20147C8.91532 9.2148 8.87943 9.23581 8.84872 9.26325C8.81802 9.2907 8.79312 9.32402 8.77551 9.36125C8.7579 9.39847 8.74794 9.43885 8.7462 9.48C8.74159 9.5627 8.77001 9.64385 8.82521 9.70562C8.88041 9.76738 8.95787 9.8047 9.04057 9.80937L10.1599 9.87187L10.1643 9.97625L9.08932 10.1087C9.00644 10.1138 8.92897 10.1516 8.87394 10.2138C8.81891 10.2759 8.79083 10.3574 8.79589 10.4403C8.80094 10.5232 8.83871 10.6007 8.90089 10.6557C8.96307 10.7107 9.04457 10.7388 9.12745 10.7337C9.14035 10.7347 9.1533 10.7347 9.1662 10.7337L10.0999 10.6187L7.18557 13.1769ZM26.2631 18.8869C25.7783 18.3757 25.2046 17.957 24.57 17.6512C24.2068 17.4599 23.9201 17.15 23.7575 16.7731C24.6444 17.2847 25.5584 17.7476 26.4956 18.16L26.2631 18.8869ZM34.1293 15.2081C34.1334 15.6511 34.0088 16.0857 33.7707 16.4592C33.5326 16.8327 33.1913 17.1291 32.7881 17.3125C29.6918 18.8644 26.2931 16.8462 22.3574 14.5094C21.9456 14.265 21.5306 14.0187 21.1456 13.795C18.1043 11.7531 14.5731 11.0737 12.2374 10.625C11.9493 10.57 11.6812 10.5181 11.4368 10.4681L11.3981 9.5625C11.394 9.48112 11.382 9.40033 11.3624 9.32125C13.4693 7.69625 18.2043 5.56125 24.4712 6.54875C25.4398 6.71306 26.391 6.96728 27.3125 7.30812C27.2407 7.40072 27.175 7.49779 27.1156 7.59875L27.1118 7.60437C27.0384 7.73188 26.9757 7.86526 26.9243 8.00312C26.9093 8.04187 26.8968 8.08125 26.8837 8.12062C26.8457 8.233 26.8154 8.34786 26.7931 8.46437C26.7868 8.49625 26.7781 8.52687 26.7731 8.56062C26.7503 8.70701 26.7395 8.85499 26.7406 9.00312C26.7406 9.03625 26.7449 9.06875 26.7468 9.10187C26.752 9.22329 26.7656 9.3442 26.7874 9.46375C26.7956 9.50562 26.8025 9.5475 26.8125 9.58875C26.8459 9.74133 26.8927 9.89066 26.9524 10.035L27.8618 12.1787C27.8993 12.2676 27.9443 12.3531 27.9962 12.4344C28.0118 12.4587 28.0293 12.4806 28.0462 12.5037C28.0847 12.5581 28.1265 12.61 28.1712 12.6594C28.1931 12.6831 28.2149 12.7056 28.2381 12.7281C28.2836 12.7724 28.3316 12.8142 28.3818 12.8531C28.4056 12.8712 28.4281 12.89 28.4524 12.9075C28.5144 12.9503 28.5791 12.9889 28.6462 13.0231C28.6612 13.0306 28.6749 13.04 28.6899 13.0475C28.7049 13.055 28.7343 13.0656 28.7568 13.075C28.7481 13.09 28.7387 13.105 28.7306 13.1206C26.7449 11.9581 19.3399 8.02562 12.5487 9.655C12.4681 9.67431 12.3984 9.72486 12.355 9.79554C12.3117 9.86622 12.2981 9.95123 12.3174 10.0319C12.3368 10.1125 12.3873 10.1822 12.458 10.2256C12.5287 10.2689 12.6137 10.2824 12.6943 10.2631C19.2268 8.695 26.5974 12.61 28.4524 13.6862C28.0972 14.5146 27.8656 15.3906 27.7649 16.2862C27.7506 16.4512 27.8022 16.6152 27.9086 16.7421C28.015 16.869 28.1675 16.9485 28.3324 16.9631C28.3512 16.9631 28.3699 16.9631 28.3887 16.9631C28.5447 16.963 28.695 16.9045 28.8101 16.7991C28.9252 16.6937 28.9967 16.5491 29.0106 16.3937C29.0137 16.355 29.3912 12.5137 32.0056 11.8706C32.0857 11.8514 32.1613 11.8166 32.2279 11.7681C32.2945 11.7196 32.3508 11.6584 32.3937 11.588C32.4366 11.5176 32.4651 11.4395 32.4776 11.358C32.4902 11.2766 32.4865 11.1935 32.4668 11.1135C32.4471 11.0334 32.4118 10.9581 32.3629 10.8918C32.314 10.8255 32.2524 10.7695 32.1818 10.7271C32.1112 10.6846 32.0328 10.6566 31.9513 10.6445C31.8698 10.6325 31.7867 10.6367 31.7068 10.6569C31.2559 10.7685 30.8267 10.9544 30.4368 11.2069L30.3812 8.93062C33.0868 10.8881 34.2318 13.475 34.1293 15.2081Z" fill="#394750"/>
</svg>
