<svg width="40" height="40" viewBox="0 0 40 40" fill="none" xmlns="http://www.w3.org/2000/svg">
<path d="M35.4281 20.8938C35.5469 20.9563 35.6156 21 35.6156 21C35.5969 23.1063 30.8594 23.6438 29.3781 23.6313C29.122 23.6294 28.8674 23.5915 28.6218 23.5188C28.6468 23.2188 28.6656 22.9125 28.6656 22.6063C28.6679 21.7515 28.5458 20.9009 28.3031 20.0813C31.6469 21.0188 33.9406 21.0813 35.4281 20.8938Z" fill="#FFF9ED"/>
<path d="M35.4281 20.8937C33.9406 21.0812 31.6468 21.0187 28.3031 20.0812C28.2057 19.7358 28.0846 19.3975 27.9406 19.0687C27.9032 18.9742 27.8593 18.8823 27.8093 18.7937C27.8156 18.7875 27.8218 18.7875 27.8281 18.7812C27.8808 18.7388 27.9373 18.7011 27.9968 18.6687C28.422 18.3971 28.9173 18.2558 29.4218 18.2625C29.5437 18.2665 29.665 18.2812 29.7843 18.3062C29.8411 18.3136 29.8974 18.3241 29.9531 18.3375C31.5468 18.7312 34.6531 20.4562 35.4281 20.8937Z" fill="#8C64B4"/>
<path d="M32.4906 12.6687C32.4912 13.0755 32.4535 13.4815 32.3781 13.8812L32.2031 13.85C31.9269 13.8638 31.6509 13.821 31.3919 13.7243C31.1329 13.6276 30.8963 13.4789 30.6968 13.2875L28.8468 13.2437C29.0306 12.7755 29.1096 12.2726 29.0783 11.7705C29.047 11.2685 28.9061 10.7793 28.6656 10.3375C27.9366 9.10109 27.0024 7.99783 25.9031 7.07499C24.8406 6.11249 23.7468 5.20624 23.7468 3.77499C23.7502 3.17997 23.9144 2.59693 24.2218 2.08749C26.1504 3.63487 27.9463 5.34082 29.5906 7.18749C31.1718 9.01874 32.4906 11.0312 32.4906 12.6687Z" fill="#F6B884"/>
<path d="M32.2031 13.85L32.3781 13.8812C32.2394 14.6588 31.9643 15.4057 31.5656 16.0875L31.5343 16.0687C31.2025 16.0711 30.874 16.0033 30.5702 15.8697C30.2665 15.7361 29.9944 15.5399 29.7718 15.2937L28.1531 14.4C28.4475 14.0562 28.682 13.6653 28.8468 13.2437L30.6968 13.2875C30.8963 13.4789 31.1329 13.6276 31.3919 13.7243C31.6509 13.821 31.9269 13.8638 32.2031 13.85Z" fill="#F6B884"/>
<path d="M31.5656 16.0875L31.5469 16.125C31.0797 16.9416 30.4846 17.678 29.7844 18.3062C29.6651 18.2812 29.5438 18.2665 29.4219 18.2625C28.9174 18.2558 28.422 18.3971 27.9969 18.6687C27.9374 18.7011 27.8809 18.7388 27.8281 18.7812C27.5886 18.3006 27.3062 17.8425 26.9844 17.4125C26.902 17.2908 26.8101 17.1758 26.7094 17.0687C26.6963 17.0453 26.6794 17.0242 26.6594 17.0062C26.6281 16.9687 26.5906 16.925 26.5531 16.8875C26.4844 16.8125 26.4156 16.7375 26.3469 16.675C26.1598 16.4784 25.9615 16.2927 25.7531 16.1187C25.735 16.1007 25.7138 16.0859 25.6906 16.075C25.6531 16.0375 25.6094 16.0062 25.5719 15.975C26.0391 15.8429 26.4882 15.654 26.9094 15.4125C27.3828 15.1544 27.8044 14.8112 28.1531 14.4L29.7719 15.2937C29.9945 15.5399 30.2665 15.7361 30.5703 15.8697C30.874 16.0033 31.2026 16.0711 31.5344 16.0687L31.5656 16.0875Z" fill="#F6B884"/>
<path d="M28.6657 22.6063C28.6657 22.9125 28.6469 23.2188 28.6219 23.5188C28.4493 25.3415 27.6703 27.0537 26.4094 28.3813C25.8493 28.9706 25.4698 29.708 25.3156 30.5063L25.0094 32.075C24.9189 32.5375 24.7654 32.9855 24.5531 33.4063C24.6609 33.1617 24.7324 32.9027 24.7656 32.6375C24.7781 32.5625 24.7906 32.4875 24.7969 32.4063C24.8031 32.325 24.8094 32.2313 24.8094 32.1438C24.8106 31.9761 24.796 31.8087 24.7656 31.6438V31.6188C24.7395 31.4547 24.6976 31.2936 24.6406 31.1375C24.5569 30.9023 24.4457 30.6779 24.3094 30.4688C24.2718 30.4096 24.2301 30.3532 24.1844 30.3C24.1716 30.2659 24.1501 30.2357 24.1219 30.2125C24.1025 30.1807 24.0794 30.1514 24.0532 30.125C23.9628 30.0043 23.8601 29.8933 23.7469 29.7938L23.5594 29.625V29.6188C23.7549 29.16 24.0323 28.7406 24.3781 28.3813C25.639 27.0537 26.4181 25.3415 26.5906 23.5188C26.6156 23.2188 26.6344 22.9125 26.6344 22.6063C26.6367 21.7515 26.5146 20.9009 26.2719 20.0813C26.1746 19.7358 26.0534 19.3975 25.9094 19.0688C25.872 18.9742 25.8282 18.8823 25.7781 18.7938C25.4788 18.1479 25.0918 17.5464 24.6281 17.0063C24.3514 16.6856 24.0482 16.3888 23.7219 16.1188C22.6116 15.1871 21.2088 14.676 19.7594 14.675H21.7907C23.1609 14.6737 24.4921 15.1314 25.5719 15.975C25.6094 16.0063 25.6531 16.0375 25.6906 16.075C25.9031 16.2563 26.1406 16.475 26.3469 16.675C26.4219 16.75 26.4906 16.8188 26.5532 16.8875C26.5907 16.925 26.6281 16.9688 26.6594 17.0063C26.6794 17.0242 26.6963 17.0453 26.7094 17.0688C26.8032 17.1813 26.8969 17.2938 26.9844 17.4125C27.3061 17.8434 27.5825 18.3063 27.8094 18.7938C27.8594 18.8823 27.9033 18.9742 27.9407 19.0688C28.0847 19.3975 28.2058 19.7358 28.3031 20.0813C28.5459 20.9009 28.668 21.7515 28.6657 22.6063Z" fill="#FFF9ED"/>
<path d="M26.6344 22.6063C26.6344 22.9125 26.6156 23.2188 26.5906 23.5188C26.418 25.3415 25.639 27.0537 24.3781 28.3813C24.0323 28.7406 23.7549 29.16 23.5594 29.6188C23.443 29.5166 23.3198 29.4227 23.1906 29.3375L23.1719 29.3188C23.1606 29.3139 23.1501 29.3076 23.1406 29.3C22.9217 29.1481 22.6895 29.0163 22.4469 28.9063C22.0965 28.7542 21.7097 28.7063 21.3328 28.7684C20.9559 28.8304 20.6049 28.9998 20.3218 29.2563L20.3156 29.2625C20.269 29.31 20.2188 29.3538 20.1656 29.3938C20.1156 29.4375 20.0656 29.475 20.0219 29.5125C19.9875 29.4719 19.9499 29.4343 19.9094 29.4L19.8156 29.3063C19.7781 29.275 19.7406 29.25 19.7031 29.2125C19.6281 29.15 19.5469 29.0875 19.4594 29.025C19.1784 28.8348 18.8536 28.7195 18.5156 28.6899C18.1777 28.6604 17.8377 28.7176 17.5281 28.8563C16.903 29.0844 16.348 29.4711 15.9174 29.9784C15.4868 30.4857 15.1954 31.0962 15.0719 31.75L14.9156 30.9313C14.7623 30.0867 14.339 29.3147 13.7094 28.7313C12.8913 27.9923 12.2413 27.0865 11.8031 26.075C11.3329 24.979 11.0905 23.7988 11.0906 22.6063C11.0887 21.7931 11.198 20.9835 11.4156 20.2C11.4966 19.8988 11.5946 19.6025 11.7094 19.3125L11.7156 19.3063C11.7267 19.2989 11.7372 19.2905 11.7469 19.2813C11.8531 19.0563 11.9656 18.8375 12.0844 18.6188C12.4375 18.0213 12.8433 17.4566 13.2969 16.9313C13.3469 16.8688 13.4031 16.8063 13.4531 16.7438C13.5844 16.5938 13.7281 16.4313 13.8594 16.2938C13.8744 16.2755 13.8911 16.2588 13.9094 16.2438C13.9594 16.2 14.0656 16.1125 14.1344 16.0438C14.2111 15.9699 14.2925 15.901 14.3781 15.8375C15.4026 15.0862 16.6389 14.6792 17.9094 14.675H19.7594C21.2087 14.676 22.6115 15.1871 23.7219 16.1188C24.0482 16.3888 24.3513 16.6856 24.6281 17.0063C25.0917 17.5464 25.4787 18.1479 25.7781 18.7938C25.8281 18.8823 25.872 18.9742 25.9094 19.0688C26.0534 19.3975 26.1745 19.7358 26.2719 20.0813C26.5146 20.9009 26.6367 21.7515 26.6344 22.6063ZM25.2594 21.7438C25.3282 21.5911 25.3658 21.4262 25.3701 21.2588C25.3744 21.0914 25.3453 20.9248 25.2844 20.7688C25.2738 20.8801 25.2325 20.9864 25.1652 21.0757C25.0979 21.1651 25.0072 21.2341 24.9031 21.275C24.7559 21.3255 24.5948 21.3167 24.4541 21.2502C24.3133 21.1838 24.204 21.0651 24.1495 20.9193C24.0949 20.7736 24.0994 20.6123 24.1619 20.4698C24.2245 20.3273 24.3401 20.2148 24.4844 20.1563C24.5662 20.126 24.6535 20.1132 24.7406 20.1188C24.7031 20.0942 24.6633 20.0733 24.6219 20.0563C24.3921 19.9528 24.1369 19.9197 23.8884 19.9612C23.6399 20.0027 23.4093 20.117 23.2257 20.2895C23.0421 20.4621 22.9138 20.6852 22.8569 20.9306C22.8 21.176 22.8172 21.4328 22.9063 21.6685C22.9953 21.9042 23.1522 22.1082 23.3571 22.2548C23.5621 22.4013 23.8059 22.4838 24.0577 22.4919C24.3095 22.4999 24.5581 22.4332 24.7719 22.3C24.9858 22.1668 25.1554 21.9733 25.2594 21.7438ZM17.4656 21.7438C17.5344 21.5911 17.5721 21.4262 17.5764 21.2588C17.5807 21.0914 17.5515 20.9248 17.4906 20.7688C17.48 20.8801 17.4388 20.9864 17.3715 21.0757C17.3042 21.1651 17.2135 21.2341 17.1094 21.275C17.0354 21.305 16.9561 21.3199 16.8763 21.3188C16.7965 21.3177 16.7176 21.3006 16.6445 21.2685C16.5714 21.2364 16.5055 21.19 16.4506 21.132C16.3957 21.074 16.353 21.0056 16.3251 20.9308C16.2971 20.856 16.2844 20.7764 16.2877 20.6966C16.291 20.6169 16.3102 20.5386 16.3443 20.4664C16.3784 20.3942 16.4266 20.3295 16.4861 20.2762C16.5455 20.223 16.6151 20.1822 16.6906 20.1563C16.7725 20.126 16.8598 20.1132 16.9469 20.1188C16.9093 20.0942 16.8696 20.0733 16.8281 20.0563C16.5982 19.9524 16.3426 19.9191 16.0937 19.9605C15.8448 20.0018 15.6138 20.1161 15.4299 20.2888C15.2459 20.4615 15.1173 20.6849 15.0604 20.9306C15.0034 21.1764 15.0205 21.4336 15.1097 21.6696C15.1989 21.9056 15.356 22.1099 15.5613 22.2566C15.7665 22.4033 16.0107 22.4858 16.2629 22.4938C16.515 22.5017 16.7639 22.4347 16.978 22.3012C17.1921 22.1677 17.3618 21.9737 17.4656 21.7438Z" fill="#FDFDFD"/>
<path d="M25.2844 20.7688C25.3858 21.0429 25.389 21.3437 25.2936 21.62C25.1982 21.8962 25.01 22.1309 24.7611 22.2841C24.5121 22.4372 24.2178 22.4994 23.9282 22.4601C23.6386 22.4207 23.3716 22.2822 23.1725 22.0682C22.9735 21.8541 22.8548 21.5777 22.8366 21.286C22.8183 20.9943 22.9017 20.7053 23.0726 20.4682C23.2434 20.231 23.4912 20.0604 23.7736 19.9853C24.0561 19.9102 24.3558 19.9353 24.6219 20.0563C24.6634 20.0733 24.7031 20.0942 24.7407 20.1188C24.6536 20.1132 24.5663 20.126 24.4844 20.1563C24.3402 20.2148 24.2245 20.3273 24.162 20.4698C24.0994 20.6123 24.095 20.7736 24.1495 20.9193C24.2041 21.0651 24.3134 21.1838 24.4541 21.2502C24.5948 21.3167 24.756 21.3256 24.9032 21.275C25.0073 21.2341 25.098 21.1651 25.1653 21.0757C25.2326 20.9864 25.2738 20.8801 25.2844 20.7688Z" fill="#232323"/>
<path d="M24.8125 32.1437C24.8125 32.2312 24.8063 32.3187 24.8 32.4062C24.7938 32.4937 24.7813 32.5625 24.7688 32.6375C24.7356 32.9027 24.664 33.1616 24.5563 33.4062C24.5567 33.4096 24.5563 33.4131 24.5553 33.4163C24.5542 33.4196 24.5524 33.4225 24.55 33.425C24.542 33.445 24.5315 33.4639 24.5188 33.4812C24.3375 33.75 24.175 34.0375 23.975 34.3C23.9089 34.391 23.8358 34.4767 23.7563 34.5562C23.7199 34.5989 23.6802 34.6386 23.6375 34.675C23.5938 34.7187 23.5563 34.7562 23.5125 34.7937C23.4324 34.8751 23.3445 34.9484 23.25 35.0125C23.0707 35.1505 22.8805 35.2738 22.6813 35.3812C22.5813 35.4312 22.4875 35.4812 22.3875 35.525C22.1231 35.6296 21.8488 35.707 21.5688 35.7562C21.4688 35.775 21.375 35.7875 21.2813 35.8C21.0157 35.8301 20.7486 35.8448 20.4813 35.8437C20.2985 35.8616 20.1149 35.8699 19.9313 35.8687C19.7016 35.8689 19.4721 35.8564 19.2438 35.8313L19.25 35.8C19.3438 35.7875 19.4375 35.775 19.5375 35.7562C19.8176 35.707 20.0919 35.6296 20.3563 35.525C20.4563 35.4812 20.55 35.4312 20.65 35.3812C20.8492 35.2738 21.0394 35.1505 21.2188 35.0125C21.3132 34.9484 21.4012 34.8751 21.4813 34.7937C21.525 34.7562 21.5625 34.7187 21.6063 34.675C21.6489 34.6386 21.6886 34.5989 21.725 34.5562C21.8045 34.4767 21.8777 34.391 21.9438 34.3C22.1438 34.0375 22.3063 33.75 22.4875 33.4812C22.5003 33.4639 22.5108 33.445 22.5188 33.425C22.5211 33.4225 22.5229 33.4196 22.524 33.4163C22.5251 33.4131 22.5254 33.4096 22.525 33.4062C22.6474 33.1629 22.7498 32.91 22.8313 32.65C22.9315 32.4888 22.9835 32.3023 22.9813 32.1125V32.075L23.2875 30.5062C23.3498 30.2041 23.4419 29.9089 23.5625 29.625L23.75 29.7937C23.8563 29.9 23.9625 30.0125 24.0563 30.125C24.0826 30.1514 24.1056 30.1807 24.125 30.2125C24.1473 30.2406 24.1682 30.2698 24.1875 30.3C24.2313 30.3625 24.2688 30.425 24.3125 30.4812C24.4489 30.6925 24.5601 30.9191 24.6438 31.1562C24.6986 31.3151 24.7404 31.4781 24.7688 31.6437C24.7991 31.8087 24.8138 31.9761 24.8125 32.1437Z" fill="#F2EEF7"/>
<path d="M23.1875 29.3375C23.3188 29.4312 23.4375 29.525 23.5563 29.625C23.4357 29.9089 23.3435 30.2041 23.2813 30.5062L22.975 32.075C22.9677 31.8666 22.8992 31.665 22.778 31.4953C22.6569 31.3255 22.4885 31.1952 22.2938 31.1205C22.0991 31.0458 21.8868 31.0301 21.6832 31.0752C21.4796 31.1203 21.2938 31.2244 21.149 31.3743C21.0041 31.5243 20.9066 31.7136 20.8685 31.9186C20.8305 32.1236 20.8536 32.3353 20.935 32.5273C21.0164 32.7193 21.1525 32.883 21.3263 32.9982C21.5001 33.1134 21.704 33.1749 21.9125 33.175C22.0974 33.1755 22.2791 33.1272 22.4393 33.035C22.5995 32.9429 22.7326 32.81 22.825 32.65C22.7436 32.91 22.6412 33.1629 22.5188 33.4062C22.5192 33.4096 22.5188 33.4131 22.5178 33.4163C22.5167 33.4196 22.5149 33.4225 22.5125 33.425C22.5046 33.445 22.4941 33.4639 22.4813 33.4812C22.3 33.75 22.1375 34.0375 21.9375 34.3C21.8714 34.391 21.7983 34.4767 21.7188 34.5562C21.6824 34.5989 21.6427 34.6386 21.6 34.675C21.5563 34.7187 21.5188 34.7562 21.475 34.7937C21.3949 34.8751 21.307 34.9484 21.2125 35.0125C21.0332 35.1505 20.843 35.2738 20.6438 35.3812C20.5438 35.4312 20.45 35.4812 20.35 35.525C20.0856 35.6296 19.8113 35.707 19.5313 35.7562C19.4313 35.775 19.3375 35.7875 19.2438 35.8L19.2375 35.8312C19.1725 35.8264 19.1079 35.818 19.0438 35.8062C18.5953 35.7949 18.1535 35.6951 17.7438 35.5125C17.7375 35.5062 17.725 35.5062 17.7188 35.5C17.7188 35.5017 17.7181 35.5032 17.717 35.5044C17.7158 35.5056 17.7142 35.5062 17.7125 35.5062C17.534 35.4399 17.3607 35.3605 17.1938 35.2687C17.1786 35.2614 17.164 35.2531 17.15 35.2437C16.5498 34.968 16.0364 34.5334 15.6652 33.9871C15.294 33.4407 15.0791 32.8033 15.0438 32.1437C15.0428 32.0204 15.0511 31.8971 15.0688 31.775C15.1908 31.1183 15.4813 30.5046 15.9119 29.994C16.3425 29.4835 16.8984 29.0935 17.525 28.8625C17.8347 28.7239 18.1746 28.6666 18.5126 28.6962C18.8505 28.7257 19.1754 28.841 19.4563 29.0312C19.5412 29.0866 19.6226 29.1471 19.7 29.2125C19.7375 29.25 19.775 29.275 19.8125 29.3062L19.9063 29.4C19.95 29.4437 19.9875 29.4875 20.0188 29.525C20.0625 29.4875 20.1125 29.4437 20.1625 29.3937C20.2158 29.3538 20.2659 29.31 20.3125 29.2625H20.3188C20.6019 29.0061 20.9529 28.8367 21.3297 28.7746C21.7066 28.7125 22.0934 28.7604 22.4438 28.9125C22.6843 29.0243 22.9162 29.1538 23.1375 29.3C23.1471 29.3076 23.1576 29.3139 23.1688 29.3187L23.1875 29.3375ZM19.2438 32.275C19.2444 32.064 19.1824 31.8575 19.0655 31.6818C18.9486 31.5061 18.7822 31.369 18.5874 31.288C18.3926 31.2069 18.178 31.1856 17.971 31.2266C17.764 31.2676 17.5739 31.3691 17.4247 31.5184C17.2754 31.6676 17.1739 31.8577 17.1329 32.0647C17.0918 32.2718 17.1132 32.4863 17.1943 32.6811C17.2753 32.876 17.4124 33.0424 17.5881 33.1592C17.7638 33.2761 17.9703 33.3381 18.1813 33.3375C18.3213 33.3383 18.4602 33.3114 18.5898 33.2584C18.7194 33.2054 18.8373 33.1273 18.9366 33.0285C19.036 32.9298 19.1148 32.8124 19.1686 32.683C19.2223 32.5537 19.25 32.4151 19.25 32.275H19.2438Z" fill="#8C64B4"/>
<path d="M22.9781 32.0875V32.1125C22.9804 32.3023 22.9283 32.4888 22.8281 32.65C22.8884 32.4654 22.9385 32.2776 22.9781 32.0875Z" fill="#FDFDFD"/>
<path d="M22.9781 32.075V32.0875C22.9384 32.2776 22.8884 32.4654 22.8281 32.65C22.7356 32.81 22.6026 32.9429 22.4424 33.035C22.2821 33.1272 22.1004 33.1755 21.9156 33.175C21.7071 33.1749 21.5032 33.1134 21.3294 32.9982C21.1556 32.883 21.0195 32.7193 20.9381 32.5273C20.8567 32.3353 20.8335 32.1236 20.8716 31.9186C20.9096 31.7136 21.0072 31.5243 21.152 31.3743C21.2969 31.2244 21.4827 31.1203 21.6863 31.0752C21.8899 31.0301 22.1022 31.0458 22.2969 31.1205C22.4916 31.1952 22.66 31.3255 22.7811 31.4953C22.9022 31.665 22.9707 31.8666 22.9781 32.075Z" fill="#FDFDFD"/>
<path d="M22.3843 35.525C22.4836 35.7116 22.5351 35.9199 22.5343 36.1313C22.5343 37.1125 21.4218 37.9125 20.0468 37.9125C18.6718 37.9125 17.5593 37.1125 17.5593 36.1313C17.5599 35.9133 17.6135 35.6988 17.7156 35.5063C17.7218 35.5125 17.7343 35.5125 17.7406 35.5188C17.7406 35.5179 17.7407 35.5171 17.7411 35.5164C17.7414 35.5156 17.7418 35.5149 17.7424 35.5143C17.743 35.5138 17.7437 35.5133 17.7444 35.513C17.7452 35.5127 17.746 35.5125 17.7468 35.5125C18.1566 35.6951 18.5984 35.7949 19.0468 35.8063C19.1109 35.8181 19.1756 35.8264 19.2406 35.8313C19.4689 35.8564 19.6984 35.8689 19.9281 35.8688C20.1117 35.8699 20.2953 35.8616 20.4781 35.8438C20.7454 35.8448 21.0125 35.8302 21.2781 35.8C21.3718 35.7875 21.4656 35.775 21.5656 35.7563C21.8477 35.7167 22.1232 35.6389 22.3843 35.525Z" fill="#FFF9ED"/>
<path d="M18.1875 31.2125C18.3974 31.2137 18.6022 31.2771 18.7761 31.3946C18.95 31.5121 19.0852 31.6785 19.1647 31.8727C19.2441 32.067 19.2643 32.2804 19.2226 32.4861C19.1809 32.6918 19.0792 32.8805 18.9304 33.0285C18.7815 33.1764 18.5922 33.277 18.3863 33.3175C18.1803 33.358 17.967 33.3366 17.7732 33.256C17.5795 33.1754 17.4139 33.0392 17.2974 32.8646C17.1809 32.69 17.1188 32.4849 17.1188 32.275C17.1188 32.1349 17.1465 31.9963 17.2002 31.8669C17.254 31.7376 17.3329 31.6202 17.4322 31.5215C17.5315 31.4227 17.6494 31.3446 17.779 31.2916C17.9086 31.2385 18.0475 31.2117 18.1875 31.2125Z" fill="#FDFDFD"/>
<path d="M17.4906 20.7688C17.5515 20.9248 17.5807 21.0914 17.5764 21.2588C17.5721 21.4262 17.5344 21.5911 17.4656 21.7438C17.3617 21.9733 17.1921 22.1668 16.9782 22.3C16.7643 22.4332 16.5157 22.4999 16.2639 22.4919C16.0121 22.4838 15.7683 22.4013 15.5634 22.2548C15.3584 22.1082 15.2015 21.9042 15.1125 21.6685C15.0235 21.4328 15.0063 21.176 15.0631 20.9306C15.12 20.6851 15.2483 20.4621 15.4319 20.2895C15.6155 20.117 15.8461 20.0027 16.0946 19.9612C16.3431 19.9197 16.5984 19.9528 16.8281 20.0563C16.8696 20.0733 16.9093 20.0942 16.9468 20.1187C16.8597 20.1132 16.7725 20.126 16.6906 20.1563C16.6151 20.1822 16.5455 20.223 16.486 20.2762C16.4266 20.3295 16.3784 20.3942 16.3443 20.4664C16.3102 20.5386 16.291 20.6169 16.2876 20.6966C16.2843 20.7764 16.2971 20.856 16.3251 20.9308C16.353 21.0056 16.3957 21.074 16.4506 21.132C16.5055 21.19 16.5714 21.2364 16.6445 21.2685C16.7176 21.3006 16.7964 21.3177 16.8763 21.3188C16.9561 21.3199 17.0354 21.305 17.1093 21.275C17.2134 21.2341 17.3042 21.1651 17.3715 21.0757C17.4388 20.9864 17.48 20.8801 17.4906 20.7688Z" fill="#232323"/>
<path d="M15.5218 2.08749C15.8246 2.59863 15.9863 3.18093 15.9906 3.77499C15.9906 5.20624 14.8968 6.11249 13.8343 7.07499C12.7367 7.99952 11.8028 9.10248 11.0718 10.3375C10.639 11.133 10.5358 12.0666 10.7843 12.9375L9.04058 13.2875C8.84108 13.4789 8.60456 13.6276 8.34554 13.7243C8.08653 13.821 7.81048 13.8638 7.53433 13.85L7.35933 13.8812C7.28387 13.4815 7.24621 13.0755 7.24683 12.6687C7.24683 11.0312 8.56558 9.01874 10.1531 7.18749C11.7941 5.33762 13.5902 3.63141 15.5218 2.08749ZM14.1875 15.975C14.091 16.0596 13.9992 16.1493 13.9125 16.2437C13.8943 16.2588 13.8775 16.2755 13.8625 16.2937C13.7141 16.4315 13.5782 16.5821 13.4562 16.7437C13.4062 16.8062 13.35 16.8687 13.3 16.9312C13.2062 17.0375 13.1187 17.1375 13.05 17.2125C12.66 17.63 12.3355 18.1041 12.0875 18.6187C12.0721 18.608 12.0553 18.5995 12.0375 18.5937C11.6415 18.3749 11.1961 18.2608 10.7437 18.2625C10.5559 18.2689 10.3693 18.2961 10.1875 18.3437C9.38567 17.7419 8.71031 16.9879 8.19996 16.125L8.18121 16.0875L8.21246 16.0687C8.54332 16.0708 8.87087 16.0029 9.17357 15.8693C9.47627 15.7357 9.74726 15.5396 9.96871 15.2937L11.375 14.125C11.4437 14.2187 11.5187 14.3125 11.5937 14.4C11.9401 14.811 12.3597 15.1543 12.8312 15.4125C13.2668 15.6376 13.7204 15.8258 14.1875 15.975Z" fill="#F6B884"/>
<path d="M12.0844 18.6188C11.9656 18.8375 11.8531 19.0562 11.7469 19.2812C11.7406 19.2812 11.7344 19.275 11.7281 19.2687C11.7212 19.2802 11.7169 19.293 11.7156 19.3062L11.7094 19.3125C11.5947 19.6025 11.4966 19.8988 11.4156 20.2C9.25141 20.8571 6.98117 21.0926 4.72815 20.8937C5.50315 20.4562 8.5719 18.75 10.1844 18.3437C10.3662 18.2961 10.5528 18.2689 10.7406 18.2625C11.1931 18.2609 11.6384 18.3749 12.0344 18.5937C12.0522 18.5995 12.0691 18.608 12.0844 18.6188Z" fill="#8C64B4"/>
<path d="M11.375 14.125L9.9688 15.2937C9.74735 15.5396 9.47636 15.7357 9.17366 15.8693C8.87096 16.0029 8.54341 16.0709 8.21255 16.0687L8.1813 16.0875C7.78057 15.406 7.50339 14.6591 7.36255 13.8812L7.53755 13.85C7.81369 13.8638 8.08974 13.821 8.34876 13.7243C8.60777 13.6276 8.84429 13.4789 9.0438 13.2875L10.7875 12.9375C10.9142 13.3639 11.1129 13.7656 11.375 14.125Z" fill="#F6B884"/>
<path d="M11.4156 20.2C11.1981 20.9835 11.0887 21.7931 11.0907 22.6062C11.0903 22.9383 11.1091 23.2701 11.1469 23.6C11.0271 23.62 10.9059 23.6304 10.7844 23.6312C9.2969 23.6437 4.5594 23.1062 4.54065 21C4.54065 21 4.61565 20.9562 4.72815 20.8937C6.98117 21.0926 9.25142 20.8571 11.4156 20.2Z" fill="#FFF9ED"/>
<path d="M35.875 20.4737C35.875 20.4737 35.7931 20.4219 35.6581 20.3487C34.1197 19.46 32.5229 18.6763 30.8787 18.0031C31.305 17.5199 31.6836 16.9966 32.0093 16.4406C32.6791 15.2962 33.0338 13.9948 33.0375 12.6688C33.0375 11.1063 32.0106 9.12438 29.9856 6.77875C28.3148 4.90309 26.4906 3.17 24.5318 1.5975C24.4619 1.54215 24.381 1.50239 24.2945 1.4809C24.2079 1.45941 24.1178 1.45669 24.0301 1.47291C23.9425 1.48913 23.8593 1.52392 23.7861 1.57495C23.713 1.62597 23.6517 1.69205 23.6062 1.76875C23.2422 2.37494 23.0479 3.0679 23.0437 3.775C23.0437 5.40813 24.2087 6.45875 25.2368 7.38625L25.4068 7.53938C26.456 8.4095 27.3456 9.45577 28.0356 10.6313C28.3215 11.1681 28.433 11.7808 28.3546 12.384C28.2762 12.9872 28.0118 13.5509 27.5981 13.9969C27.288 14.3589 26.9139 14.6606 26.4943 14.8869C26.3693 14.9606 25.8912 15.1906 25.6287 15.2969C24.4835 14.4866 23.1159 14.0501 21.7131 14.0469H17.8312C16.4565 14.0523 15.1176 14.4852 14 15.2856C13.6656 15.1606 13.1718 14.9338 13.0475 14.8637C12.6428 14.6414 12.2826 14.3462 11.985 13.9931C11.5704 13.5486 11.3051 12.9858 11.2258 12.3832C11.1466 11.7807 11.2575 11.1684 11.5431 10.6319C12.2354 9.45694 13.1254 8.41033 14.1737 7.53813L14.3418 7.38625C15.37 6.45938 16.5356 5.40875 16.5356 3.775C16.5304 3.07128 16.3396 2.3814 15.9825 1.775C15.9377 1.69777 15.8769 1.63102 15.8041 1.57926C15.7314 1.5275 15.6484 1.49193 15.5608 1.47493C15.4731 1.45794 15.3828 1.45991 15.296 1.48073C15.2092 1.50155 15.1279 1.54073 15.0575 1.59563C13.0948 3.16566 11.2692 4.89983 9.60058 6.77938C7.57121 9.12063 6.54183 11.1031 6.54183 12.67C6.54505 13.9976 6.90279 15.3002 7.57808 16.4431C7.93775 17.0489 8.37499 17.605 8.87871 18.0975C7.32328 18.7545 5.80942 19.5059 4.34558 20.3475H4.34121L4.14433 20.4588C4.04968 20.5144 3.97136 20.594 3.91727 20.6896C3.86317 20.7852 3.83522 20.8933 3.83621 21.0031C3.86183 23.8862 9.48183 24.2144 10.5337 24.2494C10.6573 24.9629 10.8646 25.6594 11.1512 26.3244C11.6265 27.4168 12.3297 28.3951 13.2137 29.1937C13.7417 29.6855 14.0959 30.3354 14.2231 31.0456L14.3668 31.8C14.3529 31.9133 14.345 32.0272 14.3431 32.1412C14.3719 32.9053 14.6096 33.6468 15.0303 34.2853C15.451 34.9237 16.0386 35.4346 16.7293 35.7625C16.7481 35.775 16.8162 35.8138 16.8356 35.825L16.8893 35.8519C16.8716 35.9437 16.8603 36.0366 16.8556 36.13C16.8556 37.4569 18.2518 38.5363 19.9681 38.5363C21.7137 38.5363 23.0806 37.4794 23.0806 36.13C23.0763 36.0305 23.0644 35.9314 23.045 35.8337C23.2074 35.7427 23.3641 35.6419 23.5143 35.5319C23.6309 35.4541 23.7395 35.3652 23.8387 35.2663C23.8825 35.229 23.9243 35.1894 23.9637 35.1475C24.0187 35.1026 24.0699 35.0533 24.1168 35C24.2166 34.9012 24.3082 34.7944 24.3906 34.6806C24.5293 34.4994 24.6512 34.3056 24.7725 34.1181C24.835 34.0225 24.8931 33.9306 24.9562 33.8331C24.9989 33.7724 25.0332 33.7062 25.0581 33.6362C25.0618 33.6275 25.0637 33.6188 25.0675 33.6106C25.2868 33.1623 25.4473 32.6876 25.545 32.1981L25.8493 30.6356C25.9787 29.9548 26.3014 29.3256 26.7787 28.8231C27.9833 27.5607 28.7814 25.9659 29.07 24.245C29.145 24.2506 29.2212 24.2619 29.295 24.2619C29.4062 24.2619 36.1337 24.1675 36.1618 21.0119C36.1634 20.9052 36.1378 20.8 36.0877 20.7059C36.0375 20.6118 35.9643 20.5319 35.875 20.4737ZM32.7375 20.2969C32.5156 20.2787 32.2925 20.2587 32.0618 20.2312C31.9368 20.2162 31.8118 20.1962 31.6868 20.1787C31.4906 20.1512 31.2931 20.1231 31.0906 20.0887C30.9543 20.0656 30.8156 20.0394 30.6768 20.0131C30.4756 19.975 30.2731 19.935 30.0668 19.8881C29.9268 19.8581 29.7862 19.8256 29.6437 19.7938C29.4281 19.7437 29.21 19.6894 28.9893 19.6325L28.7225 19.5625C28.71 19.5238 28.695 19.49 28.6825 19.4519C28.6531 19.3669 28.62 19.2844 28.5918 19.2019C28.5725 19.1512 28.555 19.0956 28.5356 19.0469C28.55 19.0406 28.565 19.0362 28.5793 19.0306C28.6727 18.9931 28.7688 18.963 28.8668 18.9406C28.8981 18.9331 28.9293 18.9256 28.9625 18.92C29.0809 18.8969 29.2012 18.8848 29.3218 18.8838C29.4144 18.886 29.5065 18.8973 29.5968 18.9175H29.6006L29.6406 18.9237C29.6696 18.9277 29.6984 18.9333 29.7268 18.9406C30.8446 19.2952 31.9259 19.7556 32.9562 20.3156C32.8831 20.3125 32.8093 20.3025 32.7375 20.2969ZM27.1312 15.9613C27.6711 15.666 28.1524 15.2743 28.5512 14.8056C29.1253 14.1682 29.4897 13.3698 29.5952 12.5185C29.7008 11.6671 29.5423 10.8039 29.1412 10.0456C28.384 8.7405 27.4037 7.5783 26.245 6.61188L26.0743 6.45813C25.1187 5.59625 24.2937 4.8525 24.2937 3.775C24.2935 3.54457 24.3246 3.31517 24.3862 3.09313C26.0491 4.47298 27.6046 5.97732 29.0393 7.59313C30.8368 9.67563 31.7893 11.43 31.7893 12.6663C31.7888 12.9494 31.7689 13.2321 31.73 13.5125C31.3942 13.4546 31.0836 13.2969 30.8387 13.06C30.7791 13.002 30.6989 12.97 30.6158 12.9711C30.5326 12.9722 30.4533 13.0063 30.3953 13.0659C30.3373 13.1255 30.3053 13.2057 30.3064 13.2889C30.3075 13.372 30.3416 13.4514 30.4012 13.5094C30.7319 13.8289 31.1503 14.0426 31.6031 14.1231C31.4678 14.6748 31.2586 15.2056 30.9812 15.7013C30.5745 15.6359 30.2057 15.4241 29.9443 15.1056C29.8924 15.0475 29.8206 15.0109 29.7431 15.003C29.6656 14.9951 29.5879 15.0164 29.5252 15.0628C29.4626 15.1092 29.4196 15.1774 29.4047 15.2539C29.3897 15.3303 29.4038 15.4097 29.4443 15.4762C29.747 15.8636 30.1701 16.1392 30.6468 16.2594C30.319 16.7614 29.9362 17.2253 29.5056 17.6425C29.455 17.6375 29.4037 17.635 29.3531 17.635C29.2068 17.6334 29.0606 17.6424 28.9156 17.6619C28.8925 17.6619 28.8706 17.6687 28.8475 17.6719C28.7274 17.6893 28.6084 17.7137 28.4912 17.745L28.4093 17.7669C28.2818 17.8039 28.1565 17.8486 28.0343 17.9006L28.005 17.9119L27.99 17.9175C27.7262 17.4527 27.4165 17.0155 27.0656 16.6125L27.0543 16.5988C27.0425 16.5844 27.0287 16.5706 27.0162 16.5562C26.995 16.5325 26.975 16.5069 26.9537 16.4831L26.9368 16.4656C26.8535 16.374 26.767 16.2823 26.6775 16.1906C26.8775 16.0931 27.045 16.0031 27.1275 15.9575L27.1312 15.9613ZM9.89996 19.8988C9.71246 19.9394 9.52996 19.9731 9.34933 20.0075C9.19308 20.0369 9.03371 20.07 8.88371 20.0938C8.71121 20.1225 8.54808 20.1456 8.38371 20.1694C8.24121 20.1894 8.09621 20.2119 7.96058 20.2281C7.80371 20.2469 7.65683 20.2606 7.50933 20.2744C7.38433 20.2869 7.25183 20.3006 7.13121 20.3094L7.04621 20.3137C8.06902 19.7603 9.14167 19.3043 10.25 18.9519C10.3851 18.9166 10.5236 18.8956 10.6631 18.8894C10.8191 18.8911 10.9745 18.9104 11.1262 18.9469C11.1072 18.973 11.0903 19.0006 11.0756 19.0294V19.0363V19.0406V19.0469C11.0693 19.06 11.0631 19.0731 11.0575 19.0869C10.9781 19.2919 10.9081 19.4875 10.8475 19.68C10.7037 19.7163 10.5622 19.7506 10.4231 19.7831C10.2412 19.8225 10.0656 19.8644 9.89933 19.9006L9.89996 19.8988ZM10.5487 7.59375C11.9794 5.97581 13.5334 4.47129 15.1968 3.09375C15.2572 3.31579 15.2877 3.54489 15.2875 3.775C15.2875 4.8525 14.4625 5.59688 13.5062 6.45813L13.3381 6.61C12.181 7.57772 11.2012 8.73943 10.4425 10.0431C10.0405 10.8013 9.88183 11.6649 9.98795 12.5164C10.0941 13.368 10.4599 14.1662 11.0356 14.8025C11.4228 15.2649 11.8924 15.6514 12.4206 15.9425C12.4831 15.9819 12.7175 16.0969 12.995 16.22L12.9193 16.3125L12.8393 16.4112L12.7993 16.4575C12.6881 16.5869 12.5875 16.7038 12.5106 16.7875C12.2131 17.0967 11.9551 17.4416 11.7425 17.8144C11.7143 17.805 11.6843 17.8013 11.6556 17.7925C11.5401 17.7563 11.4226 17.7267 11.3037 17.7038C11.2556 17.6944 11.2081 17.6838 11.1593 17.6763C10.9956 17.6505 10.8301 17.6369 10.6643 17.6356C10.542 17.6375 10.42 17.6486 10.2993 17.6688C10.2875 17.6688 10.2787 17.6688 10.2662 17.6688C9.76521 17.2602 9.32348 16.784 8.95371 16.2537C9.42476 16.1319 9.84227 15.8576 10.1412 15.4737C10.1824 15.4072 10.1971 15.3275 10.1824 15.2506C10.1677 15.1737 10.1246 15.1051 10.0617 15.0585C9.99887 15.0118 9.92077 14.9904 9.84289 14.9986C9.76502 15.0067 9.69304 15.0438 9.64121 15.1025C9.37956 15.4193 9.01133 15.6297 8.60558 15.6944C8.32663 15.2009 8.11635 14.6716 7.98058 14.1213C8.43386 14.0403 8.85285 13.8265 9.18433 13.5069C9.23337 13.4474 9.2587 13.3719 9.25545 13.2949C9.25219 13.2178 9.22058 13.1448 9.1667 13.0896C9.11281 13.0345 9.04045 13.0012 8.96352 12.9962C8.8866 12.9912 8.81053 13.0148 8.74996 13.0625C8.50434 13.2998 8.19286 13.4575 7.85621 13.515C7.81719 13.2346 7.79735 12.9519 7.79683 12.6688C7.79371 11.4288 8.74621 9.675 10.5481 7.59563L10.5487 7.59375ZM5.35433 21.5856C5.37558 21.5856 5.39933 21.5856 5.42058 21.5856C5.64183 21.5969 5.86621 21.6056 6.09683 21.6056C6.16683 21.6056 6.24371 21.5975 6.31433 21.5969C6.51683 21.5969 6.72558 21.5825 6.93433 21.5713C7.14308 21.56 7.33996 21.5487 7.54871 21.5294C7.76871 21.5094 7.99496 21.4813 8.22183 21.4519C8.43558 21.425 8.64871 21.3975 8.86808 21.3625C9.10121 21.3256 9.34058 21.2806 9.58058 21.2375C9.80933 21.1938 10.0375 21.1506 10.2725 21.0987C10.3537 21.0806 10.4293 21.0694 10.5112 21.0506C10.5056 21.0869 10.5037 21.1237 10.4981 21.16C10.4743 21.3206 10.4562 21.4825 10.44 21.645C10.4325 21.7231 10.4218 21.8006 10.4162 21.8794C10.3987 22.1206 10.3875 22.3638 10.3875 22.6087C10.3875 22.7412 10.3875 22.8737 10.3956 23.0056C8.76371 22.9581 6.18746 22.4737 5.35433 21.5856ZM19.9687 37.2875C19.0831 37.2875 18.2943 36.8569 18.1356 36.3263C18.145 36.3263 18.1543 36.3294 18.1637 36.3312C18.1731 36.3331 18.195 36.3369 18.2106 36.34C18.4415 36.3902 18.6763 36.4203 18.9125 36.43C19.1218 36.4584 19.3325 36.4764 19.5437 36.4837C19.6131 36.4837 19.6793 36.4894 19.7493 36.4906C19.7837 36.4906 19.815 36.4938 19.85 36.4938C20.0481 36.4938 20.24 36.4869 20.4312 36.4688C20.7165 36.4684 21.0015 36.4519 21.285 36.4194C21.3881 36.4056 21.4918 36.3913 21.57 36.3756H21.5818H21.5968H21.6006C21.6668 36.3662 21.7325 36.3556 21.7987 36.3425C21.6325 36.8625 20.8481 37.2875 19.9687 37.2875ZM23.7187 33.4456C23.6168 33.6069 23.515 33.7687 23.3918 33.9306C23.335 34.008 23.2723 34.0809 23.2043 34.1488C23.1772 34.1787 23.1481 34.2068 23.1175 34.2331C23.0856 34.265 23.0587 34.2925 22.9925 34.3506C22.9315 34.412 22.8645 34.4671 22.7925 34.515C22.644 34.6294 22.4869 34.732 22.3225 34.8219L22.2437 34.8619C22.1812 34.8931 22.1187 34.9244 22.0787 34.9437C21.8512 35.0334 21.6152 35.0998 21.3743 35.1419C21.2868 35.1581 21.2037 35.1694 21.1293 35.1794C20.8793 35.2081 20.615 35.1944 20.3381 35.2219C19.9131 35.264 19.4845 35.2524 19.0625 35.1875C19.037 35.1839 19.0113 35.1818 18.9856 35.1813C18.623 35.1715 18.2658 35.0915 17.9337 34.9456C17.8808 34.9181 17.8241 34.8983 17.7656 34.8869C17.6305 34.8286 17.4985 34.7635 17.37 34.6919C16.87 34.4692 16.4404 34.1141 16.1275 33.6651C15.8147 33.216 15.6305 32.6899 15.595 32.1437C15.5944 32.0463 15.6011 31.949 15.615 31.8525C15.7248 31.3041 15.9747 30.7934 16.3404 30.3702C16.7061 29.947 17.1751 29.6257 17.7018 29.4375C17.9174 29.3414 18.1541 29.3024 18.3891 29.3243C18.6242 29.3462 18.8496 29.4282 19.0437 29.5625C19.1062 29.6044 19.1687 29.6513 19.1831 29.6594C19.2288 29.7037 19.277 29.7455 19.3275 29.7844L19.39 29.8469C19.42 29.8769 19.445 29.9094 19.4668 29.9331C19.5203 29.9956 19.5856 30.0468 19.6589 30.084C19.7323 30.1211 19.8122 30.1435 19.8942 30.1497C19.9762 30.1559 20.0586 30.1459 20.1367 30.1202C20.2148 30.0945 20.287 30.0537 20.3493 30C20.395 29.9613 20.4468 29.9163 20.4987 29.8656C20.5493 29.8256 20.6006 29.7813 20.6543 29.7331C20.8467 29.5561 21.0858 29.438 21.3433 29.393C21.6008 29.348 21.8659 29.378 22.1068 29.4794C22.3125 29.5756 22.5112 29.6863 22.7012 29.8106L22.7181 29.8225L22.7475 29.845C22.9076 29.9585 23.0602 30.0823 23.2043 30.2156C23.2143 30.2256 23.2225 30.2319 23.2331 30.2419C23.3237 30.3331 23.415 30.4294 23.51 30.5369C23.5206 30.555 23.5443 30.5881 23.5575 30.6056L23.5662 30.6181C23.5743 30.6325 23.5862 30.645 23.5956 30.6588L23.635 30.7162C23.6557 30.7501 23.6784 30.7827 23.7031 30.8137C23.7262 30.85 23.7418 30.8831 23.7618 30.9175C23.8247 31.0243 23.8798 31.1354 23.9268 31.25C23.9425 31.2894 23.9618 31.3287 23.9756 31.3687C24.0195 31.4966 24.0527 31.6279 24.075 31.7612C24.0976 31.8875 24.1084 32.0155 24.1075 32.1437C24.1075 32.2156 24.1018 32.2881 24.0968 32.3594C24.0918 32.4306 24.0818 32.4775 24.0681 32.5638C24.0419 32.7684 23.9863 32.9681 23.9031 33.1569C23.8381 33.2531 23.7768 33.3494 23.7162 33.4456H23.7187ZM25.8868 27.9456C25.3193 28.5355 24.9126 29.2612 24.7056 30.0531C24.6831 30.0206 24.6593 29.9906 24.6337 29.955C24.6034 29.9035 24.568 29.8551 24.5281 29.8106L24.5206 29.8013C24.5078 29.7838 24.4941 29.7671 24.4793 29.7513C24.4712 29.7419 24.4643 29.7319 24.4562 29.7231C24.3541 29.589 24.2392 29.4651 24.1131 29.3531L24.1087 29.3494L24.1043 29.3444C24.0968 29.3369 24.0868 29.3294 24.0787 29.3213C23.9018 29.1443 23.7084 28.9846 23.5012 28.8444C23.4732 28.8214 23.4435 28.8005 23.4125 28.7819C23.1661 28.612 22.905 28.4643 22.6325 28.3406C22.199 28.1473 21.7208 28.0768 21.25 28.1368C20.7793 28.1969 20.3341 28.3852 19.9631 28.6812C19.895 28.6269 19.8212 28.5712 19.7393 28.5131C19.3707 28.263 18.9444 28.1108 18.5007 28.0709C18.057 28.031 17.6105 28.1047 17.2031 28.285C16.6356 28.5294 16.1141 28.8691 15.6612 29.2894L15.6568 29.2931C15.5309 29.4113 15.4118 29.5365 15.3 29.6681C15.2837 29.6869 15.2662 29.7044 15.2506 29.7237C15.2206 29.76 15.1843 29.7938 15.1556 29.8306C14.9062 29.2333 14.5286 28.6982 14.0493 28.2631C13.299 27.5846 12.7024 26.7535 12.2993 25.8256C11.8626 24.8085 11.6374 23.7132 11.6375 22.6062C11.6355 21.8491 11.7373 21.0952 11.94 20.3656C12.0025 20.13 12.0831 19.8906 12.1725 19.6512L12.1768 19.6437L12.1875 19.625C12.2049 19.6 12.2204 19.5737 12.2337 19.5462C12.3343 19.3344 12.4406 19.1281 12.5525 18.9212C12.9139 18.3172 13.3293 17.7472 13.7937 17.2181C13.9318 17.0581 14.0875 16.8806 14.2312 16.7269C14.2775 16.6869 14.4118 16.5712 14.4812 16.5013C14.5404 16.4448 14.603 16.392 14.6687 16.3431C15.5864 15.6705 16.6934 15.3054 17.8312 15.3H21.7125C22.9612 15.3037 24.1722 15.7282 25.15 16.505C25.4 16.7131 25.6925 16.9844 25.9181 17.2137C25.975 17.2762 26.0368 17.3356 26.0906 17.3981L26.1137 17.4256C26.5466 17.9333 26.9079 18.4979 27.1875 19.1038C27.2263 19.1739 27.2605 19.2466 27.29 19.3212C27.4229 19.6257 27.5349 19.939 27.625 20.2588C27.8503 21.0202 27.9636 21.8103 27.9612 22.6044C27.9612 22.8913 27.9431 23.1775 27.92 23.4581C27.7623 25.1391 27.0456 26.7187 25.8843 27.9444L25.8868 27.9456ZM29.3675 23.0081C29.3131 23.0081 29.26 23.0081 29.2062 23.005C29.212 22.8725 29.215 22.74 29.215 22.6075C29.215 22.3475 29.2025 22.09 29.1825 21.8337C29.1756 21.7531 29.165 21.6737 29.1562 21.5931C29.1381 21.4175 29.1168 21.2425 29.0887 21.0694C29.0825 21.03 29.08 20.99 29.0731 20.9506C29.1718 20.975 29.2606 20.9894 29.3606 21.0131C29.6162 21.0725 29.865 21.1244 30.1106 21.175C30.3725 21.2281 30.6331 21.28 30.8875 21.3231C31.12 21.3625 31.3462 21.395 31.5718 21.4256C31.8256 21.4606 32.0775 21.4931 32.3218 21.5175C32.5368 21.5381 32.7456 21.5525 32.9537 21.565C33.1906 21.58 33.4256 21.5919 33.6537 21.5956C33.7356 21.5956 33.8243 21.6069 33.9037 21.6069C34.1375 21.6069 34.3643 21.5988 34.5881 21.5869C34.6062 21.5869 34.6262 21.5869 34.6437 21.5869C33.7756 22.5181 30.9743 23.0069 29.365 23.0069L29.3675 23.0081Z" fill="#232323"/>
<path d="M18.1031 30.8988C17.8311 30.8988 17.5653 30.9794 17.3392 31.1305C17.113 31.2816 16.9368 31.4963 16.8327 31.7476C16.7287 31.9988 16.7014 32.2753 16.7545 32.542C16.8075 32.8087 16.9385 33.0537 17.1308 33.246C17.3231 33.4383 17.5681 33.5693 17.8348 33.6223C18.1015 33.6754 18.378 33.6482 18.6293 33.5441C18.8805 33.44 19.0952 33.2638 19.2463 33.0377C19.3974 32.8115 19.4781 32.5457 19.4781 32.2738C19.4781 31.9091 19.3332 31.5593 19.0753 31.3015C18.8175 31.0436 18.4677 30.8988 18.1031 30.8988ZM18.1031 33.0238C17.9547 33.0238 17.8097 32.9798 17.6864 32.8974C17.5631 32.8149 17.4669 32.6978 17.4102 32.5608C17.3534 32.4237 17.3385 32.2729 17.3675 32.1274C17.3964 31.982 17.4678 31.8483 17.5727 31.7434C17.6776 31.6385 17.8113 31.5671 17.9567 31.5382C18.1022 31.5092 18.253 31.5241 18.3901 31.5808C18.5271 31.6376 18.6443 31.7337 18.7267 31.8571C18.8091 31.9804 18.8531 32.1254 18.8531 32.2738C18.8534 32.3725 18.8342 32.4703 18.7967 32.5615C18.7592 32.6528 18.704 32.7358 18.6343 32.8057C18.5646 32.8756 18.4818 32.9311 18.3907 32.9689C18.2995 33.0068 18.2018 33.0263 18.1031 33.0263V33.0238ZM21.8381 30.7375C21.5661 30.7375 21.3003 30.8181 21.0742 30.9692C20.848 31.1203 20.6718 31.3351 20.5677 31.5863C20.4637 31.8376 20.4364 32.114 20.4895 32.3808C20.5425 32.6475 20.6735 32.8925 20.8658 33.0848C21.0581 33.2771 21.3031 33.408 21.5698 33.4611C21.8365 33.5141 22.113 33.4869 22.3643 33.3828C22.6155 33.2788 22.8302 33.1025 22.9813 32.8764C23.1324 32.6503 23.2131 32.3845 23.2131 32.1125C23.2131 31.7478 23.0682 31.3981 22.8103 31.1402C22.5525 30.8824 22.2027 30.7375 21.8381 30.7375ZM21.8381 32.8625C21.6897 32.8625 21.5447 32.8185 21.4214 32.7361C21.298 32.6537 21.2019 32.5366 21.1452 32.3995C21.0884 32.2625 21.0735 32.1117 21.1025 31.9662C21.1314 31.8207 21.2028 31.6871 21.3077 31.5822C21.4126 31.4773 21.5463 31.4059 21.6917 31.3769C21.8372 31.348 21.988 31.3628 22.1251 31.4196C22.2621 31.4764 22.3793 31.5725 22.4617 31.6958C22.5441 31.8192 22.5881 31.9642 22.5881 32.1125C22.5884 32.2112 22.5692 32.309 22.5317 32.4003C22.4942 32.4916 22.439 32.5745 22.3693 32.6445C22.2996 32.7144 22.2168 32.7698 22.1257 32.8077C22.0345 32.8455 21.9368 32.865 21.8381 32.865V32.8625ZM17.0287 21.2725C16.8823 21.3229 16.722 21.3142 16.5819 21.2483C16.4418 21.1825 16.3329 21.0646 16.2783 20.9197C16.2237 20.7748 16.2277 20.6143 16.2895 20.4724C16.3513 20.3304 16.4661 20.2181 16.6093 20.1594C16.6912 20.1291 16.7785 20.1164 16.8656 20.1219C16.8279 20.0976 16.7882 20.0767 16.7468 20.0594C16.477 19.9359 16.1726 19.9099 15.8857 19.986C15.5988 20.062 15.3473 20.2354 15.174 20.4763C15.0008 20.7173 14.9166 21.011 14.9359 21.3071C14.9552 21.6033 15.0768 21.8836 15.2799 22.1C15.4829 22.3165 15.7549 22.4557 16.0492 22.4938C16.3435 22.532 16.6419 22.4667 16.8935 22.3092C17.145 22.1517 17.3341 21.9117 17.4283 21.6303C17.5225 21.3489 17.516 21.0434 17.4099 20.7663C17.3993 20.8776 17.3581 20.9839 17.2908 21.0732C17.2235 21.1626 17.1328 21.2316 17.0287 21.2725ZM24.8268 21.2725C24.6792 21.328 24.5156 21.3227 24.3719 21.2575C24.2283 21.1924 24.1164 21.0729 24.0609 20.9253C24.0053 20.7777 24.0107 20.6141 24.0758 20.4704C24.141 20.3268 24.2605 20.2149 24.4081 20.1594C24.4899 20.1291 24.5772 20.1164 24.6643 20.1219C24.6266 20.0976 24.5869 20.0767 24.5456 20.0594C24.2757 19.9359 23.9713 19.9099 23.6844 19.986C23.3976 20.062 23.146 20.2354 22.9728 20.4763C22.7995 20.7173 22.7154 21.011 22.7347 21.3071C22.754 21.6033 22.8756 21.8836 23.0786 22.1C23.2817 22.3165 23.5536 22.4557 23.8479 22.4938C24.1423 22.532 24.4407 22.4667 24.6922 22.3092C24.9438 22.1517 25.1328 21.9117 25.227 21.6303C25.3212 21.3489 25.3147 21.0434 25.2087 20.7663C25.1981 20.8777 25.1568 20.984 25.0894 21.0734C25.022 21.1628 24.9311 21.2317 24.8268 21.2725Z" fill="#232323"/>
</svg>
