<svg width="40" height="40" viewBox="0 0 40 40" fill="none" xmlns="http://www.w3.org/2000/svg">
<path d="M27.8875 20.925C27.7812 20.75 27.6625 20.575 27.5437 20.4062C27.6687 20.575 27.7812 20.75 27.8875 20.925Z" fill="#CCBADE"/>
<path d="M31.55 19.0562C31.634 19.5535 31.5662 20.0646 31.3555 20.5228C31.1448 20.981 30.8009 21.3651 30.3687 21.625C29.8453 22.0001 29.2123 22.1913 28.5687 22.1687C28.4812 21.9812 28.3875 21.7937 28.2812 21.6062C28.2654 21.5622 28.2445 21.5203 28.2187 21.4812L28.125 21.3125C28.05 21.1812 27.975 21.0562 27.8875 20.925C27.7812 20.75 27.6687 20.575 27.5437 20.4062C27.3875 20.1812 27.2187 19.9625 27.0437 19.75C27.2566 19.242 27.601 18.7999 28.0415 18.4692C28.482 18.1385 29.0027 17.9313 29.55 17.8687C29.7413 18.338 30.103 18.7175 30.5625 18.9312C30.8737 19.0636 31.2156 19.1069 31.55 19.0562Z" fill="#FFF9ED"/>
<path d="M25.7625 31.8625C25.6687 31.9313 25.575 31.9938 25.4812 32.0563C23.4187 33.4875 20.975 34.3438 19.2812 34.3438C18.5029 34.3041 17.7354 34.1438 17.0062 33.8688C19.0823 33.5239 21.0467 32.6906 22.7375 31.4375C23.3925 30.9695 23.9959 30.4332 24.5375 29.8375C24.8144 29.5414 25.0673 29.2237 25.2937 28.8875C25.6679 28.3569 25.9607 27.7734 26.1625 27.1563C26.3065 26.7344 26.3927 26.295 26.4187 25.85C26.425 25.7375 26.4312 25.6313 26.4312 25.5188C26.4268 24.7792 26.3238 24.0436 26.125 23.3313C25.9787 22.7859 25.7842 22.2546 25.5437 21.7438C25.1405 20.8758 24.6281 20.063 24.0187 19.325C22.7126 17.7049 20.9683 16.4944 18.9937 15.8375C19.0875 15.8313 19.1875 15.8313 19.2812 15.8313C20.7839 15.8722 22.259 16.2447 23.6009 16.9221C24.9429 17.5996 26.1185 18.5652 27.0437 19.75C27.2187 19.9625 27.3875 20.1813 27.5437 20.4063C27.6625 20.575 27.7812 20.75 27.8875 20.925C28.0062 21.1063 28.1187 21.2938 28.2187 21.4813C28.2445 21.5203 28.2655 21.5622 28.2812 21.6063C28.3875 21.7938 28.4812 21.9813 28.5687 22.1688C28.8092 22.6796 29.0037 23.2109 29.15 23.7563C29.3488 24.4686 29.4518 25.2042 29.4562 25.9438C29.4562 26.0563 29.45 26.1625 29.4437 26.275C29.4177 26.72 29.3315 27.1594 29.1875 27.5813C28.9857 28.1984 28.6929 28.7819 28.3187 29.3125C28.0923 29.6487 27.8394 29.9664 27.5625 30.2625C27.0209 30.8581 26.4175 31.3945 25.7625 31.8625Z" fill="#CCBADE"/>
<path d="M28.2187 21.4813C28.1187 21.2938 28.0062 21.1063 27.8875 20.925C27.975 21.0563 28.05 21.1813 28.125 21.3125L28.2187 21.4813Z" fill="#CCBADE"/>
<path d="M12.3937 18.8C11.4534 19.7139 10.6756 20.7812 10.0937 21.9563C9.60376 21.8158 9.15117 21.5682 8.76872 21.2313C8.34181 20.9001 8.01688 20.4553 7.83117 19.9479C7.64545 19.4405 7.60648 18.891 7.71872 18.3625C7.91029 18.4244 8.11131 18.4519 8.31247 18.4438C8.72141 18.4079 9.11565 18.2738 9.46167 18.0529C9.80769 17.832 10.0953 17.5308 10.3 17.175C10.8048 17.3127 11.2711 17.5651 11.6625 17.9125C11.9555 18.1641 12.2028 18.4643 12.3937 18.8Z" fill="#FFF9ED"/>
<path d="M26.4313 25.5187C26.4313 25.6312 26.425 25.7375 26.4188 25.85C26.3927 26.295 26.3065 26.7344 26.1625 27.1562C25.9607 27.7734 25.6679 28.3569 25.2938 28.8875C25.0673 29.2237 24.8144 29.5414 24.5375 29.8375C23.9959 30.4331 23.3925 30.9695 22.7375 31.4375C21.0467 32.6905 19.0823 33.5239 17.0062 33.8687C16.3164 33.6356 15.6456 33.3493 15 33.0125C14.0341 32.5207 13.1192 31.9346 12.2687 31.2625C11.9812 31.0312 11.7125 30.7937 11.45 30.5437C10.8418 29.9799 10.3177 29.3316 9.89375 28.6187C9.65973 28.2373 9.47492 27.8278 9.34375 27.4C9.18652 26.9306 9.10631 26.4388 9.10625 25.9437C9.10524 25.6723 9.11985 25.401 9.15 25.1312C9.27696 24.026 9.59636 22.9514 10.0938 21.9562C10.6757 20.7812 11.4535 19.7139 12.3938 18.8C13.1695 18.1443 13.988 17.5409 14.8438 16.9937C16.1178 16.2895 17.5391 15.8935 18.9937 15.8375C20.9684 16.4944 22.7126 17.7049 24.0188 19.325C24.6281 20.063 25.1406 20.8758 25.5437 21.7437C25.7842 22.2546 25.9788 22.7859 26.125 23.3312C26.3239 24.0436 26.4269 24.7792 26.4313 25.5187Z" fill="#FC7601"/>
<path d="M14.7625 12.2875C14.7902 12.2112 14.796 12.1287 14.7795 12.0492C14.7629 11.9697 14.7246 11.8964 14.6687 11.8375C14.7826 11.8051 14.9004 11.7883 15.0187 11.7875C15.2654 11.7887 15.5062 11.8629 15.7108 12.0008C15.9154 12.1386 16.0747 12.3339 16.1685 12.562C16.2624 12.7902 16.2866 13.041 16.2382 13.2829C16.1897 13.5248 16.0708 13.7469 15.8964 13.9214C15.7219 14.0958 15.4998 14.2147 15.2579 14.2632C15.016 14.3116 14.7652 14.2874 14.537 14.1935C14.3089 14.0997 14.1136 13.9405 13.9758 13.7359C13.8379 13.5313 13.7637 13.2904 13.7625 13.0438C13.7603 12.7865 13.839 12.5351 13.9875 12.325C14.0341 12.4209 14.1141 12.4965 14.2125 12.5375C14.3186 12.577 14.436 12.5729 14.5391 12.5261C14.6422 12.4792 14.7225 12.3934 14.7625 12.2875Z" fill="#232323"/>
<path d="M36.9 7.54999C37.6799 8.19799 38.1869 9.11606 38.3201 10.1212C38.4532 11.1264 38.2027 12.1448 37.6184 12.9735C37.0342 13.8022 36.1591 14.3802 35.1676 14.5925C34.1762 14.8048 33.1411 14.6356 32.2688 14.1187C32.2891 14.1016 32.3079 14.0828 32.325 14.0625L32.45 13.9125L34.825 11.05L35.7313 9.95624C35.9381 9.70767 36.0936 9.42068 36.1891 9.11177C36.2846 8.80286 36.318 8.47813 36.2875 8.15624C36.248 7.69961 36.0789 7.26377 35.8 6.89999C36.1995 7.05563 36.571 7.27516 36.9 7.54999Z" fill="#F6B884"/>
<path d="M30.0062 13.4812L34.925 15.625C34.8724 15.7932 34.8098 15.9581 34.7375 16.1187C34.0125 17.7812 32.725 18.9125 31.55 19.0562C31.2156 19.1069 30.8737 19.0636 30.5625 18.9312C30.103 18.7175 29.7413 18.338 29.55 17.8687C29.3229 17.2349 29.2257 16.5618 29.2644 15.8896C29.303 15.2174 29.4767 14.5599 29.775 13.9562C29.85 13.7875 29.925 13.6312 30.0062 13.4812Z" fill="#FFF9ED"/>
<path d="M32.6188 9.5125C32.9002 9.57827 33.1658 9.69937 33.4 9.86875C32.96 9.93568 32.5499 10.1324 32.2223 10.4337C31.8948 10.7351 31.6645 11.1273 31.5612 11.5602C31.4578 11.9932 31.486 12.4471 31.6421 12.8639C31.7982 13.2807 32.0752 13.6415 32.4375 13.9C32.1501 13.9403 31.8578 13.9276 31.575 13.8625C31.2865 13.7967 31.014 13.6743 30.7732 13.5025C30.5323 13.3306 30.328 13.1127 30.1719 12.8613C30.0159 12.61 29.9113 12.3301 29.8641 12.0381C29.817 11.746 29.8283 11.4474 29.8973 11.1597C29.9663 10.872 30.0918 10.6009 30.2663 10.362C30.4409 10.1231 30.6611 9.92121 30.9142 9.768C31.1673 9.6148 31.4483 9.51333 31.7409 9.46948C32.0335 9.42562 32.3318 9.44024 32.6188 9.5125Z" fill="#F6B884"/>
<path d="M25.675 12.6063C25.8234 12.8163 25.9021 13.0678 25.9 13.325C25.9 13.5735 25.8263 13.8164 25.6882 14.0229C25.5502 14.2295 25.354 14.3905 25.1244 14.4856C24.8949 14.5807 24.6423 14.6056 24.3986 14.5571C24.1549 14.5086 23.9311 14.389 23.7554 14.2133C23.5797 14.0376 23.4601 13.8138 23.4116 13.5701C23.3631 13.3264 23.388 13.0738 23.4831 12.8443C23.5782 12.6147 23.7392 12.4185 23.9458 12.2805C24.1524 12.1424 24.3952 12.0688 24.6437 12.0688C24.7621 12.0696 24.8798 12.0864 24.9937 12.1188C24.9379 12.1777 24.8995 12.251 24.883 12.3305C24.8664 12.4099 24.8723 12.4924 24.9 12.5688C24.9399 12.6747 25.0203 12.7605 25.1233 12.8073C25.2264 12.8542 25.3439 12.8583 25.45 12.8188C25.5483 12.7777 25.6283 12.7021 25.675 12.6063Z" fill="#232323"/>
<path d="M12.2812 10.4437C12.3035 10.8306 12.2302 11.217 12.0679 11.5689C11.9055 11.9207 11.6591 12.2272 11.3502 12.4613C11.0414 12.6953 10.6798 12.8498 10.2971 12.9111C9.9145 12.9723 9.52268 12.9385 9.15623 12.8125C9.58147 12.6114 9.93709 12.288 10.1776 11.8837C10.4181 11.4795 10.5326 11.0127 10.5064 10.543C10.4803 10.0733 10.3146 9.62209 10.0307 9.24704C9.74676 8.87199 9.35743 8.59013 8.91248 8.4375C9.26253 8.27081 9.64829 8.193 10.0356 8.21097C10.4229 8.22894 10.7998 8.34213 11.1329 8.54052C11.466 8.7389 11.7451 9.01637 11.9454 9.34834C12.1457 9.68032 12.261 10.0566 12.2812 10.4437Z" fill="#F6B884"/>
<path d="M11.2125 13.5875C11.2832 14.8486 10.9647 16.1009 10.3 17.175C10.0953 17.5308 9.80776 17.832 9.46173 18.0529C9.11571 18.2738 8.72147 18.4079 8.31253 18.4438C8.11137 18.4519 7.91036 18.4244 7.71878 18.3625C6.30628 17.975 5.20628 16.0813 5.13753 13.7688C5.13128 13.5625 5.13128 13.3688 5.14378 13.175L11.175 13C11.1938 13.1875 11.2063 13.3875 11.2125 13.5875Z" fill="#FFF9ED"/>
<path d="M8.51244 12.6313C8.52494 12.6625 8.53119 12.6875 8.54369 12.7188C7.41782 12.8921 6.26798 12.6348 5.32338 11.9981C4.37878 11.3614 3.70881 10.3921 3.44703 9.2835C3.18524 8.17485 3.35087 7.00827 3.9109 6.0163C4.47092 5.02433 5.38421 4.27985 6.46869 3.93125C6.92604 3.77947 7.40562 3.70553 7.88744 3.7125C7.44255 3.97117 7.08217 4.35325 6.84994 4.8125C6.68335 5.13584 6.58215 5.48884 6.55212 5.85133C6.52209 6.21381 6.56383 6.57866 6.67494 6.925L8.51244 12.6313Z" fill="#F6B884"/>
<path d="M37.2993 7.06938C36.9179 6.75109 36.4876 6.49656 36.0249 6.31563C35.8978 6.26609 35.7579 6.25954 35.6266 6.29697C35.4954 6.33441 35.38 6.41378 35.2981 6.52295C35.2162 6.63212 35.1723 6.7651 35.1731 6.90158C35.1739 7.03806 35.2193 7.17053 35.3024 7.27876C35.5107 7.54845 35.637 7.87238 35.6662 8.21188C35.6896 8.45181 35.6652 8.69401 35.5944 8.92445C35.5236 9.15489 35.4078 9.36899 35.2537 9.55438L32.4074 12.9863C32.2527 12.7616 32.1578 12.5013 32.1315 12.2298C32.1053 11.9583 32.1486 11.6846 32.2574 11.4344C32.3662 11.1843 32.5369 10.966 32.7534 10.8001C32.9699 10.6342 33.2251 10.5262 33.4949 10.4863C33.6175 10.4673 33.7317 10.4123 33.8229 10.3282C33.9141 10.2441 33.9783 10.1348 34.0071 10.0142C34.036 9.89351 34.0284 9.767 33.9851 9.65074C33.9419 9.53447 33.865 9.4337 33.7643 9.36126C33.464 9.14536 33.1242 8.99036 32.7643 8.90501C32.0266 8.72916 31.2493 8.85263 30.6024 9.2484C29.9555 9.64417 29.4917 10.28 29.3124 11.0169C29.1507 11.698 29.2467 12.4148 29.5818 13.0294C29.5321 13.0738 29.4899 13.1259 29.4568 13.1838C29.3681 13.3475 29.2862 13.5181 29.2031 13.7056C28.6654 14.8614 28.5068 16.1575 28.7499 17.4088C28.0274 17.6424 27.3945 18.093 26.9374 18.6994C26.5015 18.2365 26.0296 17.8089 25.5262 17.4206C25.9359 16.9958 26.177 16.4364 26.2044 15.8468C26.2317 15.2572 26.0436 14.6778 25.6749 14.2169C25.6503 14.1832 25.6192 14.1548 25.5835 14.1333C25.5477 14.1119 25.508 14.0978 25.4668 14.0919C25.4255 14.086 25.3834 14.0884 25.3431 14.099C25.3028 14.1097 25.265 14.1282 25.2319 14.1537C25.1989 14.1791 25.1713 14.2109 25.1507 14.2472C25.1302 14.2835 25.1171 14.3235 25.1122 14.3649C25.1074 14.4064 25.1109 14.4483 25.1225 14.4884C25.1341 14.5284 25.1537 14.5657 25.1799 14.5981C25.4614 14.9545 25.6005 15.4028 25.5702 15.8559C25.54 16.309 25.3425 16.7348 25.0162 17.0506C23.3347 15.8707 21.3353 15.2277 19.2812 15.2063C17.6073 15.2148 15.9631 15.6495 14.5037 16.4694L14.4987 16.4725C14.2303 16.156 14.082 15.755 14.0799 15.34C14.0777 14.925 14.2218 14.5225 14.4868 14.2031C14.5375 14.1375 14.5599 14.0544 14.5493 13.9722C14.5387 13.89 14.4959 13.8153 14.4303 13.7647C14.3646 13.7141 14.2815 13.6916 14.1993 13.7022C14.1171 13.7128 14.0425 13.7556 13.9918 13.8213C13.6471 14.2443 13.4575 14.7726 13.4545 15.3184C13.4516 15.8641 13.6354 16.3945 13.9756 16.8213C13.5624 17.1013 12.9824 17.5088 12.5056 17.8838C12.3739 17.7269 12.2301 17.5806 12.0756 17.4463C11.808 17.2125 11.5111 17.0146 11.1924 16.8575C11.6612 15.8273 11.8818 14.7016 11.8368 13.5706C11.8306 13.3556 11.8168 13.1413 11.7968 12.94C11.7968 12.9269 11.7887 12.9169 11.7868 12.9044C12.3574 12.4467 12.7401 11.7955 12.8624 11.0743C12.9847 10.3532 12.838 9.61219 12.4502 8.99198C12.0625 8.37176 11.4606 7.91543 10.7587 7.70955C10.0568 7.50366 9.30379 7.56253 8.64244 7.87501C8.52998 7.92797 8.43588 8.01327 8.37215 8.12C8.30842 8.22673 8.27796 8.35003 8.28467 8.47416C8.29138 8.59828 8.33495 8.71759 8.40981 8.81682C8.48468 8.91606 8.58743 8.99072 8.70494 9.03126C9.02016 9.13832 9.29788 9.33387 9.50494 9.59455C9.712 9.85522 9.83963 10.17 9.87258 10.5013C9.90554 10.8325 9.84243 11.1663 9.69078 11.4626C9.53914 11.759 9.30539 12.0054 9.01744 12.1725L7.26744 6.73501C7.18104 6.46667 7.14882 6.18385 7.17264 5.90296C7.19646 5.62207 7.27584 5.34871 7.40619 5.09876C7.58614 4.74511 7.86379 4.45053 8.20619 4.25001C8.32351 4.18041 8.41483 4.07435 8.46624 3.948C8.51764 3.82165 8.52629 3.68195 8.49088 3.55022C8.45547 3.41849 8.37794 3.30197 8.27011 3.21842C8.16229 3.13487 8.03009 3.0889 7.89369 3.08751C6.7749 3.07214 5.68173 3.42269 4.78052 4.08583C3.87932 4.74897 3.21944 5.68838 2.9013 6.76109C2.58317 7.83381 2.6242 8.98109 3.01816 10.0283C3.41211 11.0756 4.13742 11.9654 5.08369 12.5625C4.93687 12.5761 4.79968 12.6415 4.69663 12.7469C4.59358 12.8524 4.53139 12.991 4.52119 13.1381C4.50744 13.3513 4.50682 13.5644 4.51432 13.7906C4.58307 16.1069 5.59994 18.0569 7.02432 18.7631C7.00974 19.3231 7.12249 19.8791 7.35407 20.3891C7.58565 20.8991 7.93001 21.3499 8.36119 21.7075C8.63524 21.9423 8.93784 22.1416 9.26182 22.3006C8.9357 23.0719 8.70828 23.8812 8.58494 24.7094C6.83494 24.1138 3.81494 24.0006 2.10244 27.0425C2.02114 27.187 2.00055 27.3578 2.0452 27.5174C2.08986 27.6771 2.19611 27.8125 2.34057 27.8938C2.48503 27.9751 2.65587 27.9957 2.81551 27.951C2.97515 27.9063 3.11051 27.8001 3.19182 27.6556C4.84932 24.7113 7.88619 25.7631 8.48744 26.0081C8.49171 26.5427 8.579 27.0734 8.74619 27.5813C8.77869 27.6906 8.82807 27.7994 8.87119 27.9088C7.03244 27.7906 4.41432 28.4213 3.39619 31.475C3.37021 31.553 3.35985 31.6353 3.36569 31.7173C3.37153 31.7993 3.39346 31.8793 3.43022 31.9528C3.46699 32.0263 3.51787 32.0918 3.57997 32.1457C3.64206 32.1995 3.71416 32.2406 3.79213 32.2666C3.8701 32.2925 3.95243 32.3029 4.0344 32.2971C4.11638 32.2912 4.19641 32.2693 4.26991 32.2325C4.34341 32.1958 4.40896 32.1449 4.46279 32.0828C4.51663 32.0207 4.55771 31.9486 4.58369 31.8706C5.73307 28.4219 9.32994 29.2113 9.56932 29.2688C9.92125 29.8048 10.3273 30.3032 10.7812 30.7563C9.72157 30.7755 8.69559 31.1316 7.85183 31.7729C7.00807 32.4142 6.39033 33.3074 6.08807 34.3231C6.06209 34.4011 6.05172 34.4834 6.05756 34.5654C6.0634 34.6474 6.08533 34.7274 6.1221 34.8009C6.15886 34.8744 6.20975 34.94 6.27184 34.9938C6.33394 35.0476 6.40603 35.0887 6.484 35.1147C6.56198 35.1407 6.6443 35.151 6.72628 35.1452C6.80826 35.1394 6.88828 35.1174 6.96179 35.0807C7.03529 35.0439 7.10083 34.993 7.15467 34.9309C7.20851 34.8688 7.24959 34.7967 7.27557 34.7188C8.43932 31.2269 12.1181 32.0825 12.2756 32.12C12.3093 32.1246 12.3434 32.126 12.3774 32.1244C13.1183 32.6673 13.9012 33.1505 14.7187 33.5694C16.123 34.3543 17.6783 34.8314 19.2812 34.9688C21.1218 34.9688 23.6562 34.0419 25.7231 32.6431C26.3618 32.5181 29.5393 32.0619 30.6081 35.2681C30.634 35.3461 30.6751 35.4182 30.729 35.4803C30.7828 35.5424 30.8483 35.5933 30.9218 35.63C30.9953 35.6668 31.0754 35.6887 31.1574 35.6946C31.2393 35.7004 31.3217 35.69 31.3996 35.6641C31.4776 35.6381 31.5497 35.597 31.6118 35.5432C31.6739 35.4893 31.7248 35.4238 31.7615 35.3503C31.7983 35.2768 31.8202 35.1968 31.8261 35.1148C31.8319 35.0328 31.8215 34.9505 31.7956 34.8725C31.5099 33.9037 30.9353 33.0451 30.1486 32.4116C29.3619 31.7782 28.4005 31.3999 27.3931 31.3275C27.6174 31.1163 27.8306 30.9031 28.0243 30.6875C28.2306 30.4628 28.425 30.2275 28.6068 29.9825C28.6757 29.9913 28.7457 29.9886 28.8137 29.9744C28.9699 29.9363 32.6487 29.0806 33.8137 32.5731C33.8398 32.651 33.8811 32.723 33.935 32.785C33.989 32.8469 34.0546 32.8976 34.1282 32.9342C34.2017 32.9708 34.2818 32.9926 34.3637 32.9982C34.4457 33.0039 34.528 32.9933 34.6059 32.9672C34.6838 32.9411 34.7557 32.8998 34.8177 32.8459C34.8797 32.7919 34.9304 32.7263 34.967 32.6527C35.0036 32.5792 35.0253 32.4991 35.031 32.4171C35.0366 32.3352 35.0261 32.2529 34.9999 32.175C33.9674 29.0769 31.2874 28.4744 29.4462 28.6125C29.5774 28.3427 29.6897 28.0641 29.7824 27.7788C29.9024 27.4145 29.9841 27.0387 30.0262 26.6575C30.8387 26.3525 33.6274 25.5569 35.2018 28.3531C35.2831 28.4976 35.4185 28.6038 35.5781 28.6485C35.7378 28.6931 35.9086 28.6726 36.0531 28.5913C36.1975 28.5099 36.3038 28.3746 36.3484 28.2149C36.3931 28.0553 36.3725 27.8845 36.2912 27.74C34.6587 24.8394 31.8362 24.8081 30.0599 25.3275C30.0145 24.7408 29.913 24.1598 29.7568 23.5925C29.6762 23.29 29.5787 22.99 29.4687 22.6938C29.9199 22.5883 30.3473 22.3989 30.7287 22.1356C31.1649 21.8495 31.5279 21.4649 31.7884 21.0129C32.0489 20.5609 32.1997 20.054 32.2287 19.5331C32.9288 19.2421 33.5627 18.8122 34.0921 18.2694C34.6214 17.7266 35.0353 17.0822 35.3087 16.375C35.3911 16.192 35.4622 16.0042 35.5218 15.8125C35.5554 15.7031 35.5584 15.5865 35.5303 15.4755C35.5022 15.3645 35.4441 15.2634 35.3624 15.1831C36.3587 14.9578 37.2528 14.4101 37.9062 13.625C38.6934 12.6745 39.0715 11.4506 38.9578 10.2218C38.844 8.99286 38.2476 7.85922 37.2993 7.06938ZM30.5287 11.3081C30.594 11.036 30.7291 10.7857 30.9207 10.5817C31.1123 10.3777 31.3537 10.2272 31.6212 10.145C31.2943 10.5041 31.0637 10.9402 30.9509 11.4126C30.8381 11.8849 30.8468 12.3782 30.9762 12.8463C30.8787 12.7517 30.7934 12.6452 30.7224 12.5294C30.611 12.3488 30.5364 12.1478 30.5032 11.9382C30.4699 11.7285 30.4786 11.5144 30.5287 11.3081ZM11.0824 9.27813C11.2532 9.42968 11.3922 9.61363 11.4913 9.8193C11.5904 10.025 11.6478 10.2483 11.6599 10.4763C11.6776 10.7999 11.6047 11.1221 11.4495 11.4067C11.2943 11.6913 11.0629 11.9271 10.7812 12.0875C11.0402 11.6026 11.161 11.0558 11.1303 10.5069C11.0997 9.95801 10.9188 9.42809 10.6074 8.97501C10.7811 9.04983 10.9414 9.15219 11.0824 9.27813ZM4.13744 9.43751C3.84641 8.52989 3.89694 7.54722 4.27951 6.67424C4.66208 5.80125 5.35035 5.09807 6.21494 4.69688C5.87135 5.45825 5.82345 6.32025 6.08057 7.11501L7.69932 12.1419C6.90138 12.1056 6.13334 11.8275 5.49717 11.3445C4.861 10.8614 4.38677 10.1964 4.13744 9.43751ZM5.76244 13.7825L10.5881 13.6425C10.6466 14.7623 10.3646 15.8736 9.77932 16.83C9.62865 17.1018 9.41512 17.3337 9.15656 17.5061C8.898 17.6785 8.60192 17.7866 8.29307 17.8213C8.17149 17.825 8.05013 17.8089 7.93369 17.7738C7.91682 17.7688 7.90119 17.7675 7.88307 17.7619C6.73932 17.4463 5.83057 15.74 5.76244 13.7825ZM8.26244 19.07H8.33307C8.4447 19.0657 8.55596 19.0544 8.66619 19.0363C8.70119 19.0306 8.73619 19.0213 8.77119 19.0144C8.84557 18.9994 8.91932 18.9831 8.99182 18.9619C9.03244 18.95 9.07182 18.9356 9.11182 18.9219C9.17869 18.8988 9.24432 18.8738 9.30932 18.8456C9.34994 18.8281 9.39057 18.8094 9.43432 18.79C9.49723 18.7588 9.55973 18.725 9.62182 18.6888C9.66057 18.6663 9.69932 18.6444 9.73744 18.62C9.79994 18.5788 9.86244 18.5331 9.92494 18.4863C9.95807 18.4613 9.99182 18.4388 10.0243 18.4119C10.1118 18.3413 10.1968 18.2656 10.2799 18.1838C10.3006 18.1631 10.3206 18.1406 10.3424 18.1213C10.4049 18.0556 10.4674 17.99 10.5299 17.9188C10.7958 18.0381 11.0422 18.197 11.2606 18.39C11.3814 18.4936 11.4928 18.6076 11.5937 18.7306C11.5143 18.815 11.4399 18.905 11.3631 18.9919C11.3043 19.0544 11.2456 19.1219 11.1887 19.1888C10.9874 19.425 10.7924 19.6669 10.6099 19.9169C10.5962 19.9356 10.5849 19.955 10.5712 19.9731C10.4024 20.2069 10.2449 20.4469 10.0937 20.69C10.0462 20.7669 10.0012 20.8444 9.95494 20.9225C9.90869 21.0006 9.85057 21.0919 9.80244 21.1781C9.58018 21.0662 9.37274 20.927 9.18494 20.7638C8.67057 20.3391 8.33989 19.7324 8.26182 19.07H8.26244ZM27.7974 28.9681C27.5873 29.2779 27.3528 29.5705 27.0962 29.8431C26.584 30.4059 26.0135 30.9127 25.3943 31.355C25.3062 31.4175 25.2124 31.48 25.1224 31.5425C25.1025 31.554 25.0835 31.5669 25.0656 31.5813C23.1831 32.8663 20.9049 33.7194 19.2812 33.7194C17.8762 33.5734 16.5154 33.1439 15.2812 32.4569C14.3531 31.9843 13.4738 31.4214 12.6562 30.7763C12.3931 30.565 12.1381 30.3388 11.8756 30.0888C11.3085 29.563 10.82 28.9585 10.4249 28.2938C10.2146 27.9518 10.0491 27.5842 9.93244 27.2C9.79665 26.7944 9.72721 26.3696 9.72682 25.9419C9.72561 25.6913 9.73917 25.4409 9.76744 25.1919C9.88515 24.1594 10.1839 23.1557 10.6499 22.2269C10.7837 21.9552 10.9295 21.6875 11.0874 21.4238C11.5746 20.629 12.1598 19.8987 12.8293 19.25C13.5615 18.6309 14.3341 18.0611 15.1418 17.5444C16.4077 16.8383 17.8317 16.464 19.2812 16.4563C20.6926 16.4934 22.078 16.8438 23.3373 17.4822C24.5966 18.1206 25.6982 19.031 26.5624 20.1475C26.9943 20.6713 27.3752 21.2351 27.6999 21.8313C27.7624 21.9513 27.8249 22.075 27.8843 22.1969C27.9237 22.2763 27.9668 22.3544 28.0037 22.435C28.2286 22.9133 28.4106 23.4107 28.5474 23.9213C28.7319 24.5798 28.8275 25.2599 28.8318 25.9438C28.8318 26.0431 28.8262 26.1369 28.8199 26.24C28.7968 26.6323 28.7205 27.0196 28.5931 27.3913C28.4072 27.9533 28.139 28.4847 27.7974 28.9681ZM30.0131 21.1113C29.6992 21.3337 29.3365 21.4775 28.9556 21.5306C28.9368 21.4944 28.9137 21.4606 28.8931 21.425C28.7431 21.1369 28.5856 20.8525 28.4118 20.5769L28.4006 20.56C28.2287 20.2888 28.0418 20.0269 27.8481 19.7694C27.8231 19.7363 27.8018 19.7 27.7768 19.6675C28.1054 19.1343 28.619 18.7409 29.2193 18.5625L29.2224 18.5663C29.2274 18.5738 29.2331 18.5794 29.2381 18.5869C29.3165 18.7023 29.4039 18.8114 29.4993 18.9131C29.5293 18.9456 29.5618 18.9756 29.5924 19.0056C29.6692 19.0798 29.7504 19.1493 29.8356 19.2138C29.8693 19.2394 29.9024 19.2656 29.9381 19.2894C30.0567 19.3713 30.1821 19.4429 30.3131 19.5031C30.4481 19.5594 30.5881 19.6031 30.7312 19.6338C30.7712 19.6425 30.8112 19.65 30.8518 19.6569C30.8924 19.6638 30.9306 19.675 30.9706 19.68C30.9154 19.9707 30.8022 20.2473 30.6377 20.4932C30.4731 20.7391 30.2607 20.9493 30.0131 21.1113ZM31.4599 18.4375C31.2423 18.4723 31.0193 18.4455 30.8162 18.36C30.4968 18.208 30.2475 17.9397 30.1193 17.61C29.7437 16.5242 29.8111 15.334 30.3068 14.2975L34.1193 15.96C33.5099 17.3056 32.4299 18.3194 31.4599 18.4375ZM36.9443 12.8288C36.5064 13.3489 35.924 13.7275 35.2708 13.9167C34.6177 14.1058 33.9231 14.0969 33.2749 13.8913L36.2124 10.3519C36.6588 9.81687 36.9091 9.14543 36.9218 8.44876C37.4388 9.06018 37.7244 9.83395 37.7285 10.6347C37.7326 11.4354 37.455 12.212 36.9443 12.8288Z" fill="#394750"/>
</svg>
