<svg width="40" height="40" viewBox="0 0 40 40" fill="none" xmlns="http://www.w3.org/2000/svg">
<path d="M18.5188 23.25C18.6126 23.3752 18.7344 23.4769 18.8743 23.5469C19.0142 23.6169 19.1686 23.6533 19.3251 23.6533C19.4815 23.6533 19.6359 23.6169 19.7758 23.5469C19.9158 23.4769 20.0375 23.3752 20.1313 23.25L20.4313 22.8063L20.7251 22.3625C20.8008 22.2314 20.8384 22.0818 20.8337 21.9305C20.8289 21.7791 20.782 21.6322 20.6981 21.5061C20.6143 21.38 20.4969 21.2799 20.3592 21.217C20.2215 21.154 20.069 21.1309 19.9188 21.15H18.7313C18.0126 21.15 17.5626 21.825 17.9251 22.3625L18.2188 22.8063L18.5188 23.25ZM14.2751 15.5688C14.2445 15.4875 14.2303 15.401 14.2333 15.3143C14.2363 15.2276 14.2563 15.1423 14.2923 15.0633C14.3283 14.9843 14.3796 14.9132 14.4431 14.8541C14.5066 14.795 14.5812 14.749 14.6626 14.7188C14.7559 14.6822 14.8568 14.6693 14.9563 14.6813C14.914 14.6502 14.8678 14.625 14.8188 14.6063C14.5631 14.4899 14.2786 14.4521 14.0013 14.4975C13.7241 14.543 13.4666 14.6697 13.2614 14.8616C13.0562 15.0535 12.9126 15.302 12.8487 15.5756C12.7849 15.8492 12.8037 16.1356 12.9027 16.3985C13.0017 16.6614 13.1766 16.889 13.405 17.0525C13.6335 17.216 13.9054 17.308 14.1862 17.3169C14.467 17.3257 14.7441 17.251 14.9825 17.1023C15.2208 16.9535 15.4096 16.7374 15.5251 16.4813C15.6025 16.3123 15.6452 16.1296 15.6506 15.9438C15.656 15.758 15.6239 15.5731 15.5563 15.4C15.542 15.5493 15.4775 15.6893 15.3733 15.7972C15.2691 15.9051 15.1315 15.9745 14.9828 15.9941C14.8341 16.0136 14.6832 15.9822 14.5547 15.905C14.4261 15.8278 14.3276 15.7092 14.2751 15.5688ZM15.8563 29.7563L15.8063 29.8125C15.4724 29.5181 15.1801 29.1795 14.9376 28.8063C14.7198 28.4707 14.4217 28.1948 14.0702 28.0038C13.7187 27.8128 13.3251 27.7127 12.9251 27.7125C9.8188 27.7125 7.46255 25.0625 8.0188 22.1938L9.91255 12.4438C10.1572 11.3356 10.7788 10.3467 11.6713 9.64576C12.5637 8.94479 13.6718 8.57519 14.8063 8.6H16.4688C17.4141 8.58558 18.3274 8.94236 19.0126 9.59375C19.2145 9.80514 19.3774 10.0506 19.4938 10.3188C19.6518 9.9811 19.8874 9.68557 20.1813 9.45625C20.9319 8.90043 21.8411 8.60029 22.7751 8.6H24.3501C24.686 8.59828 25.0211 8.6318 25.3501 8.7L25.3376 8.76875C25.9906 9.09142 26.5571 9.5655 26.9898 10.1515C27.4225 10.7375 27.7089 11.4184 27.8251 12.1375L29.2063 21.6375C29.6001 24.3813 27.2751 26.8125 24.2626 26.8125C23.8657 26.8108 23.4744 26.9068 23.1235 27.0921C22.7725 27.2774 22.4725 27.5463 22.2501 27.875C21.745 28.5658 21.0863 29.1297 20.326 29.5224C19.5656 29.915 18.7245 30.1256 17.8688 30.1375C17.1812 30.1259 16.5006 29.9969 15.8563 29.7563ZM24.5188 15.5688C24.4811 15.4641 24.4701 15.3518 24.4868 15.2418C24.5035 15.1319 24.5473 15.0279 24.6143 14.9391C24.6814 14.8504 24.7694 14.7798 24.8706 14.7337C24.9718 14.6876 25.0829 14.6674 25.1938 14.675C25.1499 14.6484 25.1039 14.6254 25.0563 14.6063C24.8005 14.4914 24.5163 14.4549 24.2397 14.5015C23.9632 14.5481 23.7066 14.6756 23.5025 14.868C23.2985 15.0604 23.156 15.309 23.0932 15.5823C23.0304 15.8557 23.05 16.1415 23.1497 16.4036C23.2493 16.6658 23.4244 16.8926 23.6529 17.0552C23.8814 17.2179 24.153 17.3091 24.4333 17.3174C24.7136 17.3257 24.9902 17.2507 25.2279 17.1019C25.4656 16.953 25.6538 16.7371 25.7688 16.4813C25.8468 16.3101 25.8893 16.125 25.8936 15.9369C25.8979 15.7489 25.8639 15.562 25.7938 15.3875C25.7864 15.5126 25.7429 15.6329 25.6686 15.7339C25.5943 15.8348 25.4923 15.912 25.3751 15.9563C25.21 16.0173 25.0277 16.0108 24.8674 15.9383C24.7071 15.8657 24.5819 15.733 24.5188 15.5688Z" fill="#FDFDFD"/>
<path d="M23.7125 28.8062C23.2338 29.5277 22.582 30.1178 21.8168 30.5228C21.0515 30.9278 20.197 31.1348 19.3313 31.125C18.0354 31.1329 16.7814 30.666 15.8063 29.8125L15.8563 29.7562C16.5005 29.9969 17.1811 30.1258 17.8688 30.1375C18.7244 30.1256 19.5656 29.915 20.3259 29.5224C21.0863 29.1297 21.745 28.5658 22.25 27.875C22.4725 27.5463 22.7724 27.2774 23.1234 27.0921C23.4744 26.9068 23.8656 26.8108 24.2625 26.8125C27.275 26.8125 29.6 24.3812 29.2063 21.6375L27.825 12.1375C27.7088 11.4184 27.4225 10.7375 26.9898 10.1515C26.5571 9.5655 25.9906 9.09141 25.3375 8.76875L25.35 8.7C26.337 8.86877 27.2468 9.34121 27.9525 10.0515C28.6583 10.7617 29.125 11.6745 29.2875 12.6625L30.6688 22.4062C31.0625 25.2187 28.7375 27.7125 25.725 27.7125C25.3253 27.714 24.9321 27.8147 24.5809 28.0056C24.2296 28.1965 23.9312 28.4716 23.7125 28.8062Z" fill="#FFF9ED"/>
<path d="M25.725 27.7125C28.7375 27.7125 31.0625 25.2188 30.6687 22.4062L29.2875 12.6625C29.0632 11.5178 28.4481 10.4867 27.5474 9.74563C26.6467 9.00454 25.5164 8.59955 24.35 8.6H22.775C21.841 8.60029 20.9318 8.90043 20.1812 9.45625C19.8873 9.68556 19.6517 9.9811 19.4937 10.3188C19.3773 10.0506 19.2144 9.80513 19.0125 9.59375C18.3273 8.94236 17.414 8.58557 16.4687 8.6H14.8062C13.6717 8.57519 12.5637 8.94479 11.6712 9.64576C10.7788 10.3467 10.1572 11.3356 9.91248 12.4438L8.01873 22.1938C7.46248 25.0625 9.81873 27.7125 12.925 27.7125C13.325 27.7126 13.7187 27.8128 14.0701 28.0038C14.4216 28.1948 14.7198 28.4707 14.9375 28.8063C15.1801 29.1795 15.4723 29.5181 15.8062 29.8125C16.7814 30.666 18.0353 31.1329 19.3312 31.125C20.197 31.1348 21.0515 30.9278 21.8167 30.5228C22.582 30.1178 23.2337 29.5277 23.7125 28.8063C23.9312 28.4716 24.2296 28.1965 24.5808 28.0056C24.9321 27.8147 25.3252 27.714 25.725 27.7125ZM20.0812 1.5C22.5772 1.63408 25.0079 2.34658 27.1812 3.58125C26.4451 3.82643 25.7988 4.28558 25.325 4.9C25.0136 5.29674 24.7842 5.75137 24.65 6.2375C25.1583 6.28378 25.6595 6.38864 26.1437 6.55C27.0047 6.83242 27.8103 7.26167 28.525 7.81875C29.0461 8.22528 29.5161 8.69325 29.925 9.2125C30.2389 9.61517 30.5111 10.0486 30.7375 10.5063C31.0419 10.2853 31.3133 10.0223 31.5437 9.725C31.9003 9.26479 32.15 8.73109 32.275 8.1625L32.4937 8.45C34.5385 12.3092 34.9981 16.8136 33.775 21.0063C33.7437 21.1125 33.6875 21.2375 33.5812 21.2563C33.4625 21.275 33.3687 21.1688 33.3 21.075C33.0187 20.6688 32.7375 20.2625 32.4375 19.8688C33.0125 25.3625 31.0687 31.4813 25.8687 34.1188C25.8687 34.1188 20.8562 38.5875 16.7187 36.8188C16.525 36.7 16.3187 36.575 16.1062 36.45C16.2097 36.946 16.339 37.4363 16.4937 37.9188C14.7687 37.0438 12.5187 34.0187 11.8812 33.5C11.8812 33.5 11.7375 33.8625 12.325 35.7125C7.12498 33.075 5.18123 26.9563 5.75623 21.4625C5.45623 21.8563 5.17498 22.2625 4.89373 22.6688C4.82498 22.7625 4.73123 22.8688 4.61248 22.85C4.50623 22.8313 4.44998 22.7063 4.41873 22.6C3.19561 18.4073 3.65524 13.903 5.69998 10.0438C5.98622 9.52976 6.30565 9.03496 6.65623 8.5625C6.75281 8.90638 6.89803 9.2347 7.08748 9.5375C7.34874 9.96765 7.69291 10.3416 8.09998 10.6375C8.32561 10.1767 8.60235 9.74271 8.92498 9.34375C9.48936 8.63901 10.1726 8.03831 10.9437 7.56875C11.5051 7.22041 12.1077 6.94328 12.7375 6.74375C13.2253 6.58916 13.7281 6.48651 14.2375 6.4375C14.1375 6.07404 13.9859 5.72676 13.7875 5.40625C13.3461 4.68344 12.6813 4.12399 11.8937 3.8125C14.3496 2.28349 17.1884 1.48169 20.0812 1.5Z" fill="#F6B884"/>
<path d="M25.8687 34.1187C31.0687 31.4812 33.0125 25.3625 32.4375 19.8687C32.7375 20.2625 33.0187 20.6687 33.3 21.075C33.3687 21.1687 33.4625 21.275 33.5812 21.2562C33.6875 21.2375 33.7437 21.1125 33.775 21.0062C34.9981 16.8136 34.5385 12.3092 32.4938 8.44999L32.275 8.16249C32.3224 7.97405 32.3517 7.78151 32.3625 7.58749C32.6625 7.91249 32.95 8.25624 33.2188 8.60624L34.3 10.0437C36.3447 13.903 36.8044 18.4073 35.5812 22.6C35.55 22.7062 35.4937 22.8312 35.3875 22.85C35.2687 22.8687 35.175 22.7625 35.1062 22.6687C34.825 22.2625 34.5438 21.8562 34.2438 21.4625C34.8188 26.9562 32.875 33.075 27.675 35.7125L27.6375 35.7C27.8736 35.0557 28.0249 34.3834 28.0875 33.7C27.475 34.2437 25.3188 37.3625 23.5313 38.275C23.6802 37.8214 23.8054 37.3604 23.9062 36.8937C23.2787 37.3162 22.6299 37.7063 21.9625 38.0625C21.4633 38.335 20.9019 38.4732 20.3332 38.4633C19.7645 38.4534 19.2082 38.2959 18.7188 38.0062C18.175 37.6875 17.4937 37.2875 16.7188 36.8187C20.8562 38.5875 25.8687 34.1187 25.8687 34.1187Z" fill="#FFA467"/>
<path d="M30.85 4.2C30.4219 3.86874 29.9302 3.62902 29.4055 3.4957C28.8809 3.36238 28.3344 3.33832 27.8 3.425H27.7938C27.586 3.46159 27.3812 3.51382 27.1813 3.58125C26.4451 3.82643 25.7988 4.28558 25.325 4.9C25.0137 5.29673 24.7842 5.75136 24.65 6.23749C25.1583 6.28377 25.6596 6.38864 26.1438 6.54999C27.0048 6.83241 27.8104 7.26166 28.525 7.81875C29.0461 8.22528 29.5162 8.69325 29.925 9.21249C30.2389 9.61517 30.5111 10.0486 30.7375 10.5062C31.0419 10.2853 31.3134 10.0223 31.5438 9.725C31.9003 9.26478 32.1501 8.73108 32.275 8.1625C32.3225 7.97406 32.3518 7.78151 32.3625 7.5875C32.4082 6.94205 32.294 6.2953 32.0302 5.70445C31.7664 5.11361 31.3611 4.59689 30.85 4.2ZM29.8875 8.40625C29.792 8.52478 29.6829 8.63176 29.5625 8.725C28.8264 7.78652 27.8311 7.08462 26.7 6.70624C26.763 6.50752 26.8603 6.32137 26.9875 6.15625C27.2859 5.77168 27.7248 5.52139 28.2077 5.46045C28.6906 5.3995 29.178 5.53288 29.5625 5.83125C29.9471 6.12961 30.1974 6.56853 30.2583 7.05144C30.3193 7.53434 30.1859 8.02168 29.8875 8.40625Z" fill="#FFF9ED"/>
<path d="M29.5562 5.83125C29.9394 6.13034 30.1891 6.56853 30.2511 7.05066C30.3131 7.53278 30.1825 8.01991 29.8875 8.40625C29.7919 8.52479 29.6828 8.63176 29.5624 8.725C28.8263 7.78652 27.8311 7.08462 26.7 6.70625C26.7629 6.50752 26.8602 6.32137 26.9875 6.15625C27.2858 5.77373 27.7235 5.52484 28.2048 5.46395C28.6861 5.40305 29.1719 5.5351 29.5562 5.83125Z" fill="#8C64B4"/>
<path d="M25.7937 15.3875C25.8639 15.562 25.8978 15.7489 25.8935 15.9369C25.8892 16.125 25.8468 16.3101 25.7687 16.4813C25.6538 16.7371 25.4655 16.953 25.2278 17.1019C24.9901 17.2507 24.7136 17.3257 24.4333 17.3174C24.1529 17.3091 23.8813 17.2179 23.6528 17.0552C23.4244 16.8926 23.2492 16.6658 23.1496 16.4037C23.05 16.1415 23.0303 15.8557 23.0931 15.5823C23.156 15.309 23.2984 15.0604 23.5025 14.868C23.7066 14.6756 23.9631 14.5481 24.2397 14.5015C24.5162 14.4549 24.8004 14.4914 25.0562 14.6063C25.1039 14.6254 25.1499 14.6484 25.1937 14.675C25.0828 14.6674 24.9717 14.6876 24.8706 14.7337C24.7694 14.7798 24.6813 14.8504 24.6143 14.9391C24.5473 15.0279 24.5034 15.1319 24.4868 15.2418C24.4701 15.3518 24.4811 15.4641 24.5187 15.5688C24.5818 15.733 24.707 15.8658 24.8673 15.9383C25.0276 16.0108 25.21 16.0173 25.375 15.9563C25.4923 15.912 25.5942 15.8348 25.6685 15.7339C25.7429 15.6329 25.7863 15.5126 25.7937 15.3875Z" fill="#232323"/>
<path d="M19.9188 21.15C20.0689 21.1309 20.2215 21.154 20.3592 21.217C20.4969 21.2799 20.6143 21.38 20.6981 21.5061C20.7819 21.6322 20.8289 21.7791 20.8336 21.9305C20.8384 22.0818 20.8008 22.2314 20.725 22.3625L20.4313 22.8063L20.1313 23.25C20.0373 23.3751 19.9156 23.4767 19.7757 23.5466C19.6357 23.6165 19.4814 23.6529 19.325 23.6529C19.1686 23.6529 19.0143 23.6165 18.8743 23.5466C18.7344 23.4767 18.6127 23.3751 18.5188 23.25L18.2188 22.8063L17.925 22.3625C17.5625 21.825 18.0125 21.15 18.7313 21.15H19.9188Z" fill="#8C64B4"/>
<path d="M15.5563 15.4C15.6239 15.5731 15.656 15.758 15.6506 15.9438C15.6452 16.1296 15.6025 16.3123 15.5251 16.4812C15.4094 16.7361 15.2208 16.951 14.9831 17.0987C14.7453 17.2464 14.4692 17.3204 14.1894 17.3112C13.9097 17.302 13.6389 17.2101 13.4114 17.047C13.1839 16.884 13.0098 16.6572 12.9112 16.3953C12.8125 16.1334 12.7937 15.8481 12.8571 15.5755C12.9206 15.3029 13.0634 15.0552 13.2675 14.8637C13.4717 14.6723 13.728 14.5456 14.0041 14.4998C14.2802 14.454 14.5637 14.491 14.8188 14.6062C14.8678 14.625 14.914 14.6502 14.9563 14.6812C14.8568 14.6693 14.7559 14.6822 14.6626 14.7187C14.5812 14.749 14.5066 14.795 14.4431 14.8541C14.3796 14.9132 14.3283 14.9843 14.2923 15.0633C14.2563 15.1423 14.2363 15.2276 14.2333 15.3143C14.2303 15.401 14.2445 15.4875 14.2751 15.5687C14.3276 15.7092 14.4261 15.8278 14.5547 15.905C14.6832 15.9822 14.8341 16.0136 14.9828 15.994C15.1315 15.9745 15.2691 15.9051 15.3733 15.7972C15.4775 15.6893 15.542 15.5493 15.5563 15.4Z" fill="#232323"/>
<path d="M13.7875 5.40625C13.986 5.72676 14.1375 6.07403 14.2375 6.4375C13.7281 6.48651 13.2254 6.58916 12.7375 6.74375C12.1077 6.94327 11.5052 7.2204 10.9438 7.56875C10.1726 8.0383 9.48941 8.639 8.92503 9.34375C8.6024 9.74271 8.32566 10.1767 8.10003 10.6375C7.69296 10.3416 7.34879 9.96764 7.08753 9.5375C6.89808 9.23469 6.75286 8.90638 6.65628 8.5625C6.39647 7.64929 6.47537 6.67297 6.87846 5.81334C7.28155 4.95371 7.98167 4.26868 8.84988 3.88442C9.71809 3.50015 10.6959 3.44254 11.6032 3.72219C12.5106 4.00183 13.2863 4.5999 13.7875 5.40625ZM12.1563 6.90625C12.1095 6.76212 12.0466 6.62374 11.9688 6.49375C11.7135 6.08017 11.3044 5.78495 10.8315 5.67301C10.3585 5.56108 9.86047 5.6416 9.4469 5.89687C9.03333 6.15214 8.7381 6.56125 8.62617 7.03419C8.51423 7.50714 8.59476 8.00517 8.85003 8.41875C8.95816 8.59489 9.09555 8.7513 9.25628 8.88125C9.68919 8.34797 10.209 7.89156 10.7938 7.53125C11.2217 7.26984 11.679 7.06005 12.1563 6.90625Z" fill="#FFF9ED"/>
<path d="M11.9688 6.49375C12.0466 6.62374 12.1095 6.76212 12.1563 6.90625C11.679 7.06005 11.2217 7.26984 10.7938 7.53125C10.209 7.89156 9.6892 8.34797 9.25628 8.88125C9.02921 8.69714 8.84945 8.46138 8.73202 8.19367C8.6146 7.92595 8.5629 7.63403 8.58125 7.34227C8.5996 7.05051 8.68746 6.76737 8.83751 6.51647C8.98755 6.26558 9.19543 6.0542 9.44378 5.9C9.85772 5.64529 10.3556 5.56477 10.8288 5.67603C11.3019 5.78728 11.7117 6.08126 11.9688 6.49375Z" fill="#8C64B4"/>
<path d="M31.2851 22.3219L29.9057 12.5719C29.6817 11.2677 28.9979 10.0868 27.9783 9.24333C26.9587 8.39982 25.6706 7.94943 24.3476 7.97375H22.7744C21.7061 7.97533 20.6665 8.31947 19.8082 8.95563C19.7043 9.03347 19.6063 9.11891 19.5151 9.21125C19.4919 9.18563 19.4707 9.16313 19.4526 9.145C18.6514 8.37508 17.5779 7.95393 16.4669 7.97375H14.8082C13.5277 7.94685 12.2776 8.36623 11.2725 9.16001C10.2673 9.95378 9.56951 11.0725 9.29881 12.3244L7.40693 22.0744C7.266 22.8155 7.29122 23.5786 7.48079 24.3088C7.67035 25.0389 8.01954 25.7179 8.50318 26.2969C9.0429 26.9432 9.71929 27.4618 10.4836 27.8152C11.2479 28.1687 12.0811 28.3481 12.9232 28.3406C13.2191 28.3401 13.5105 28.4138 13.7706 28.5548C14.0308 28.6959 14.2515 28.8999 14.4126 29.1481C14.9568 29.95 15.6891 30.6065 16.5454 31.0602C17.4018 31.514 18.3562 31.7512 19.3254 31.7512C20.2945 31.7512 21.2489 31.514 22.1053 31.0602C22.9617 30.6065 23.6939 29.95 24.2382 29.1481C24.399 28.8996 24.6195 28.6954 24.8795 28.5541C25.1396 28.4128 25.431 28.339 25.7269 28.3394C26.5455 28.3454 27.3558 28.1755 28.1031 27.8412C28.8503 27.5069 29.517 27.0161 30.0582 26.4019C30.5469 25.8518 30.9098 25.2019 31.1217 24.4972C31.3336 23.7926 31.3893 23.0502 31.2851 22.3219ZM29.1144 25.5819C28.6906 26.061 28.1689 26.4436 27.5845 26.7037C27 26.9637 26.3666 27.0953 25.7269 27.0894C25.2228 27.0883 24.7265 27.2136 24.2834 27.4538C23.8402 27.694 23.4643 28.0414 23.1901 28.4644C22.759 29.0913 22.1819 29.6039 21.5086 29.958C20.8352 30.3122 20.0858 30.4972 19.3251 30.4972C18.5643 30.4972 17.8149 30.3122 17.1416 29.958C16.4682 29.6039 15.8911 29.0913 15.4601 28.4644C15.1856 28.0416 14.8097 27.6942 14.3666 27.4541C13.9235 27.2139 13.4272 27.0885 12.9232 27.0894C12.2655 27.0965 11.6144 26.9576 11.0169 26.6827C10.4193 26.4079 9.89019 26.004 9.46756 25.5C9.09852 25.0652 8.83198 24.553 8.68766 24.0012C8.54334 23.4495 8.52493 22.8723 8.63381 22.3125L10.5263 12.5625C10.742 11.5959 11.2872 10.7344 12.0684 10.1256C12.8496 9.51682 13.8182 9.19866 14.8082 9.22563H16.4663C17.2478 9.21156 18.004 9.50308 18.5738 10.0381C18.6935 10.1737 18.8002 10.3202 18.8926 10.4756C18.9257 10.6016 18.9974 10.7141 19.0976 10.7974C19.1978 10.8807 19.3215 10.9306 19.4514 10.9401C19.5814 10.9496 19.711 10.9182 19.8223 10.8504C19.9335 10.7826 20.0208 10.6817 20.0719 10.5619C20.1857 10.327 20.3513 10.121 20.5563 9.95938C21.1981 9.48365 21.9756 9.22645 22.7744 9.22563H24.3476C25.37 9.20017 26.3677 9.54157 27.1603 10.188C27.9528 10.8345 28.4877 11.7433 28.6682 12.75L30.0476 22.5C30.125 23.0506 30.0816 23.6115 29.9205 24.1437C29.7594 24.6759 29.4843 25.1667 29.1144 25.5819Z" fill="#394750"/>
<path d="M22.1987 25.3256C21.8702 25.6399 21.4357 25.8195 20.9812 25.829C20.5266 25.8385 20.0851 25.6771 19.7437 25.3769C19.7128 25.3488 19.6764 25.3275 19.6368 25.3144V23.9306C19.9442 23.8645 20.2147 23.6831 20.3924 23.4237L20.9849 22.5362C21.0911 22.3814 21.1525 22.2002 21.1622 22.0127C21.1719 21.8253 21.1296 21.6387 21.0399 21.4737C20.9277 21.2758 20.7636 21.1121 20.5655 21.0003C20.3673 20.8884 20.1424 20.8326 19.9149 20.8387H18.7324C18.505 20.8327 18.2801 20.8885 18.082 21.0004C17.8838 21.1122 17.7198 21.2759 17.6074 21.4737C17.5182 21.6388 17.4761 21.8253 17.4858 22.0127C17.4955 22.2001 17.5566 22.3813 17.6624 22.5362L18.2549 23.4237C18.4329 23.683 18.7032 23.8643 19.0106 23.9306V25.3894C18.6693 25.684 18.2304 25.8408 17.7797 25.8293C17.329 25.8177 16.8988 25.6386 16.5731 25.3269C16.5434 25.2985 16.5084 25.2762 16.4701 25.2613C16.4319 25.2464 16.391 25.2392 16.35 25.2401C16.3089 25.241 16.2684 25.25 16.2308 25.2666C16.1932 25.2831 16.1593 25.3069 16.1309 25.3366C16.1025 25.3662 16.0802 25.4012 16.0653 25.4395C16.0504 25.4778 16.0432 25.5186 16.0441 25.5597C16.045 25.6007 16.054 25.6412 16.0706 25.6788C16.0871 25.7164 16.1109 25.7503 16.1406 25.7787C16.5927 26.2143 17.1965 26.457 17.8243 26.4556C17.8568 26.4556 17.8893 26.4556 17.9218 26.4556C18.4487 26.4327 18.9541 26.24 19.3624 25.9062L19.3962 25.8994C19.8063 26.2373 20.3153 26.4326 20.8462 26.4556H20.9437C21.5715 26.457 22.1753 26.2143 22.6274 25.7787C22.6841 25.7208 22.7161 25.6432 22.7166 25.5621C22.7171 25.4811 22.6861 25.4031 22.6302 25.3444C22.5742 25.2858 22.4977 25.2512 22.4167 25.2479C22.3358 25.2447 22.2567 25.273 22.1962 25.3269L22.1987 25.3256ZM18.7762 23.0756L18.1837 22.1875C18.1404 22.1268 18.1153 22.055 18.1111 21.9806C18.1069 21.9062 18.1238 21.8321 18.1599 21.7669C18.2187 21.6688 18.303 21.5887 18.4039 21.5349C18.5047 21.4812 18.6183 21.4559 18.7324 21.4619H19.9168C20.0309 21.4556 20.1446 21.4807 20.2454 21.5345C20.3462 21.5882 20.4304 21.6686 20.4887 21.7669C20.5251 21.8319 20.5423 21.9059 20.5381 21.9803C20.5339 22.0547 20.5085 22.1264 20.4649 22.1869L19.8749 23.0769C19.8065 23.1554 19.7221 23.2184 19.6273 23.2615C19.5325 23.3046 19.4296 23.3269 19.3254 23.3268C19.2213 23.3268 19.1184 23.3044 19.0236 23.2611C18.9289 23.2179 18.8445 23.1542 18.7762 23.0756Z" fill="#394750"/>
<path d="M34.845 9.73812C34.8314 9.71373 34.8162 9.69034 34.7993 9.66812L33.7143 8.22562C33.4812 7.92187 33.2362 7.63124 32.9881 7.35062C32.9957 6.64896 32.8414 5.95501 32.5371 5.32272C32.2328 4.69042 31.7868 4.13683 31.2337 3.70499C30.6769 3.27412 30.0277 2.97843 29.3371 2.84123C28.6466 2.70403 27.9336 2.72907 27.2543 2.91437C25.0533 1.70454 22.6075 1.00741 20.0993 0.874995C17.1862 0.846683 14.3225 1.62871 11.8281 3.13374C11.0678 2.8863 10.2557 2.84413 9.47391 3.0115C8.69211 3.17887 7.96842 3.54983 7.3761 4.08684C6.78378 4.62384 6.34387 5.30781 6.10089 6.06951C5.85792 6.8312 5.82052 7.64357 5.99247 8.42437C5.68911 8.84595 5.40951 9.28413 5.15497 9.73687C3.01621 13.7402 2.53652 18.4237 3.81935 22.7775C3.85425 22.9482 3.93906 23.1046 4.06302 23.227C4.18698 23.3494 4.3445 23.4323 4.5156 23.465C4.69601 23.4948 4.88115 23.4603 5.03872 23.3675C5.06372 28.055 6.86185 33.64 12.0425 36.2675C12.1481 36.3216 12.2669 36.3445 12.385 36.3335C12.5032 36.3226 12.6157 36.2782 12.7096 36.2057C12.8035 36.1331 12.8747 36.0353 12.9151 35.9238C12.9554 35.8122 12.9632 35.6914 12.9375 35.5756C13.8626 36.7161 14.9695 37.6962 16.2137 38.4762C16.3197 38.53 16.4388 38.5525 16.5571 38.5409C16.6754 38.5294 16.7879 38.4844 16.8815 38.4112C16.9751 38.338 17.0459 38.2396 17.0856 38.1276C17.1253 38.0156 17.1322 37.8946 17.1056 37.7787C17.5931 38.0694 18.03 38.3269 18.4043 38.545C18.9856 38.8914 19.6472 39.0799 20.3237 39.0918C21.0002 39.1038 21.6681 38.9388 22.2612 38.6131C22.4825 38.494 22.6983 38.3737 22.9087 38.2525C22.9048 38.3613 22.9293 38.4693 22.9799 38.5657C23.0306 38.6621 23.1055 38.7437 23.1973 38.8022C23.2891 38.8608 23.3947 38.8943 23.5035 38.8995C23.6122 38.9047 23.7205 38.8814 23.8175 38.8319C25.0551 38.05 26.1447 37.0555 27.0362 35.8944C27.0659 35.9908 27.1184 36.0787 27.1894 36.1504C27.2603 36.2221 27.3476 36.2756 27.4437 36.3062C27.4749 36.3122 27.5064 36.3158 27.5381 36.3169C27.584 36.3281 27.6309 36.3344 27.6781 36.3356C27.776 36.3355 27.8726 36.3124 27.96 36.2681C33.1381 33.6425 34.9375 28.0625 34.9612 23.3712C35.1237 23.4631 35.3128 23.4962 35.4968 23.465C35.6644 23.4314 35.8184 23.3492 35.9394 23.2286C36.0605 23.108 36.1433 22.9543 36.1775 22.7869C37.463 18.431 36.9844 13.7443 34.845 9.73812ZM30.4668 4.69374C30.8108 4.96056 31.0987 5.29261 31.3142 5.67087C31.5296 6.04914 31.6683 6.4662 31.7223 6.89814C31.7763 7.33009 31.7445 7.76845 31.6288 8.18811C31.5131 8.60777 31.3158 9.00048 31.0481 9.34374C31.0025 9.40624 30.9531 9.46312 30.9018 9.51999C30.7531 9.28374 30.5893 9.05124 30.4162 8.82624L30.3843 8.78562C30.7534 8.29875 30.9273 7.69155 30.8718 7.08312C30.8687 7.04624 30.8718 7.00937 30.8681 6.97249C30.8618 6.92499 30.845 6.87999 30.8362 6.83312C30.754 6.36646 30.5378 5.93379 30.214 5.5879C29.8901 5.24202 29.4726 4.99786 29.0123 4.88521C28.5521 4.77257 28.069 4.7963 27.622 4.95352C27.175 5.11074 26.7834 5.39465 26.495 5.77062C26.4469 5.83224 26.4021 5.89629 26.3606 5.96249L26.3393 5.95499C26.0707 5.86678 25.7973 5.79333 25.5206 5.73499C25.6073 5.57562 25.7072 5.42383 25.8193 5.28124C26.3582 4.58771 27.1501 4.13624 28.0214 4.02586C28.8926 3.91549 29.7721 4.15523 30.4668 4.69249V4.69374ZM27.6137 6.39499C27.8235 6.20176 28.0946 6.08868 28.3795 6.07565C28.6644 6.06262 28.9447 6.15047 29.1712 6.32374C29.3824 6.48931 29.5335 6.71958 29.6012 6.97924C29.6689 7.2389 29.6496 7.51361 29.5462 7.76124C28.986 7.19805 28.3323 6.73621 27.6143 6.39625L27.6137 6.39499ZM8.6981 4.64999C9.21653 4.3266 9.81519 4.15491 10.4262 4.15437C10.8506 4.15512 11.271 4.23657 11.665 4.39437C12.3267 4.65566 12.8851 5.12597 13.255 5.73374C13.2956 5.79999 13.3343 5.86749 13.3706 5.93624C13.1018 5.99062 12.8275 6.06124 12.5468 6.14812L12.5 6.16374C12.3302 5.8892 12.1079 5.65079 11.846 5.46213C11.584 5.27347 11.2875 5.13825 10.9733 5.0642C10.6591 4.99014 10.3333 4.9787 10.0147 5.03053C9.69607 5.08235 9.39077 5.19643 9.11622 5.36624C8.84168 5.53606 8.60327 5.75829 8.41461 6.02024C8.22595 6.28219 8.09073 6.57874 8.01667 6.89295C7.86711 7.52753 7.97576 8.19553 8.31872 8.74999C8.35935 8.81624 8.4031 8.87937 8.44935 8.93749L8.4381 8.95124C8.25853 9.17357 8.09161 9.40582 7.9381 9.64687C7.81979 9.50977 7.71258 9.36347 7.61747 9.20937C7.45845 8.95434 7.3364 8.67805 7.25497 8.38874C7.05407 7.69347 7.08639 6.95154 7.347 6.27637C7.60761 5.60121 8.08216 5.02997 8.6981 4.64999ZM9.77122 6.43249C9.96261 6.31355 10.1834 6.25034 10.4087 6.24999C10.4859 6.25006 10.5629 6.25738 10.6387 6.27187C10.8679 6.3147 11.0796 6.42328 11.2481 6.58437C10.9789 6.70478 10.7178 6.84235 10.4662 6.99624C10.0436 7.25764 9.65066 7.56423 9.29435 7.91062C9.18727 7.6475 9.17638 7.35506 9.2636 7.08471C9.35082 6.81437 9.53056 6.58342 9.77122 6.43249ZM35.1875 21.6919C35.0425 21.4869 34.895 21.2837 34.7418 21.0837C34.6592 20.9753 34.5434 20.8969 34.412 20.8604C34.2807 20.8239 34.141 20.8313 34.0143 20.8816C33.8875 20.9318 33.7807 21.0222 33.7101 21.1388C33.6395 21.2554 33.6089 21.3919 33.6231 21.5275C34.0643 25.7375 32.9581 31.4025 28.6231 34.4087C28.6715 34.1798 28.7016 33.9474 28.7131 33.7137C28.7157 33.5922 28.6828 33.4726 28.6185 33.3694C28.5542 33.2663 28.4611 33.1842 28.3508 33.1331C28.2405 33.082 28.1177 33.0642 27.9975 33.0819C27.8772 33.0995 27.7647 33.1519 27.6737 33.2325C27.3445 33.5636 27.036 33.9146 26.75 34.2837C26.0577 35.1553 25.3124 35.9834 24.5181 36.7631C24.4967 36.6629 24.451 36.5696 24.385 36.4912C24.319 36.4128 24.2348 36.3519 24.1397 36.3138C24.0446 36.2756 23.9416 36.2614 23.8398 36.2724C23.7379 36.2834 23.6403 36.3193 23.5556 36.3769C22.9446 36.7876 22.3132 37.1671 21.6637 37.5137C21.2594 37.7362 20.8038 37.8489 20.3424 37.8406C19.881 37.8323 19.4298 37.7032 19.0337 37.4662C18.3462 37.0675 17.4581 36.5381 16.4312 35.9156C16.3397 35.86 16.2354 35.8288 16.1283 35.825C16.0213 35.8213 15.915 35.8451 15.8198 35.8943C15.7246 35.9434 15.6437 36.0162 15.5847 36.1056C15.5257 36.195 15.4907 36.2981 15.4831 36.405C14.7198 35.6819 13.9952 34.919 13.3125 34.1194C12.9906 33.7293 12.6436 33.3606 12.2737 33.0156C12.1976 32.9536 12.108 32.9104 12.012 32.8895C11.9161 32.8686 11.8166 32.8706 11.7216 32.8953C11.6266 32.92 11.5387 32.9667 11.4652 33.0317C11.3916 33.0967 11.3343 33.1781 11.2981 33.2694C11.2131 33.6382 11.2221 34.0225 11.3243 34.3869C7.02685 31.375 5.93747 25.7231 6.3781 21.5275C6.39227 21.3919 6.36171 21.2554 6.29109 21.1388C6.22047 21.0222 6.11365 20.9318 5.98692 20.8816C5.86019 20.8313 5.7205 20.8239 5.58915 20.8604C5.45779 20.8969 5.34197 20.9753 5.25935 21.0837C5.10622 21.2837 4.95872 21.4869 4.81247 21.6931C3.90569 17.8619 4.41515 13.8319 6.24685 10.3469C6.33935 10.18 6.44372 10.0137 6.54622 9.84687C6.54622 9.85249 6.55122 9.85812 6.55497 9.86374C6.85925 10.3647 7.26041 10.7998 7.73497 11.1437C7.84132 11.2202 7.969 11.2613 8.09997 11.2612C8.15158 11.2612 8.203 11.2549 8.2531 11.2425C8.34133 11.2202 8.42362 11.1789 8.49422 11.1214C8.56483 11.064 8.62203 10.9918 8.66185 10.91C8.8673 10.4904 9.11885 10.0951 9.41185 9.73124C9.93255 9.08305 10.5619 8.53025 11.2718 8.0975C11.7876 7.77789 12.341 7.52345 12.9193 7.33999C13.3651 7.19846 13.8245 7.10419 14.29 7.05874C14.3808 7.05072 14.4689 7.02291 14.5478 6.97725C14.6268 6.93159 14.6948 6.86919 14.7471 6.79444C14.7994 6.71969 14.8347 6.6344 14.8506 6.54455C14.8664 6.45471 14.8623 6.36249 14.8387 6.27437C14.7226 5.8527 14.5471 5.4497 14.3175 5.07749C14.0134 4.58974 13.6198 4.16392 13.1575 3.82249C15.2817 2.69003 17.6553 2.10651 20.0625 2.12499C22.0539 2.22518 24.0051 2.72287 25.8012 3.58874C25.4351 3.84804 25.1095 4.16018 24.835 4.51499C24.4722 4.9763 24.2051 5.50539 24.0493 6.07124C24.0249 6.15964 24.0202 6.25234 24.0355 6.34276C24.0509 6.43318 24.086 6.51911 24.1383 6.59445C24.1906 6.66979 24.2589 6.73269 24.3382 6.77869C24.4176 6.82469 24.5061 6.85266 24.5975 6.86062C25.0583 6.90323 25.5128 6.99865 25.9518 7.14499C26.743 7.40487 27.4831 7.79988 28.1393 8.31249C28.6199 8.68689 29.0532 9.11816 29.43 9.59687C29.718 9.96653 29.9678 10.3644 30.1756 10.7844C30.2158 10.866 30.2733 10.9379 30.3441 10.995C30.4149 11.0521 30.4973 11.093 30.5856 11.115C30.6349 11.1269 30.6855 11.1329 30.7362 11.1331C30.8678 11.1331 30.9959 11.0915 31.1025 11.0144C31.4565 10.7582 31.7722 10.4528 32.04 10.1075C32.3112 9.75476 32.5306 9.36496 32.6912 8.94999C32.7006 8.96187 32.7106 8.97187 32.72 8.98374L33.7756 10.3875C35.5881 13.8639 36.0893 17.8764 35.1875 21.6919Z" fill="#394750"/>
<path d="M15.635 33.33C15.0812 32.9587 14.6312 32.4523 14.3275 31.8587C14.0239 31.2651 13.8765 30.6039 13.8994 29.9375C13.9097 29.7726 13.8542 29.6103 13.7452 29.4861C13.6361 29.362 13.4824 29.2861 13.3175 29.275C13.2353 29.268 13.1526 29.2777 13.0742 29.3034C12.9958 29.3291 12.9235 29.3703 12.8614 29.4246C12.7993 29.479 12.7488 29.5452 12.7129 29.6195C12.677 29.6938 12.6565 29.7745 12.6525 29.8569C12.6161 30.7485 12.8106 31.6343 13.217 32.4287C13.6235 33.2231 14.2281 33.8991 14.9725 34.3912C15.1134 34.4791 15.2834 34.5074 15.4452 34.4699C15.6069 34.4324 15.7472 34.3321 15.835 34.1912C15.9229 34.0503 15.9511 33.8803 15.9136 33.7186C15.8761 33.5568 15.7759 33.4166 15.635 33.3287V33.33ZM26.6363 28.75C26.4709 28.7611 26.3168 28.8373 26.2076 28.962C26.0985 29.0867 26.0434 29.2497 26.0544 29.415C26.0745 30.0808 25.9259 30.741 25.6225 31.334C25.319 31.927 24.8706 32.4337 24.3188 32.8069C24.249 32.8504 24.1885 32.9072 24.1407 32.9741C24.0929 33.041 24.0587 33.1166 24.0401 33.1967C24.0216 33.2768 24.0189 33.3598 24.0324 33.4409C24.0459 33.522 24.0753 33.5996 24.1188 33.6694C24.1623 33.7391 24.2191 33.7996 24.286 33.8475C24.3528 33.8953 24.4285 33.9294 24.5086 33.948C24.5887 33.9666 24.6716 33.9692 24.7527 33.9557C24.8338 33.9422 24.9115 33.9129 24.9813 33.8694C25.7254 33.3768 26.3298 32.7007 26.7362 31.9062C27.1426 31.1118 27.3373 30.226 27.3013 29.3344C27.2969 29.252 27.2761 29.1713 27.2402 29.0971C27.2042 29.0229 27.1538 28.9566 27.0918 28.9022C27.0298 28.8477 26.9576 28.8062 26.8794 28.7801C26.8012 28.7539 26.7185 28.7437 26.6363 28.75Z" fill="#394750"/>
</svg>
