<svg width="40" height="40" viewBox="0 0 40 40" fill="none" xmlns="http://www.w3.org/2000/svg">
<path d="M15.3187 20.7125C15.2818 20.6169 15.2641 20.515 15.2667 20.4125C15.2694 20.3101 15.2923 20.2092 15.3341 20.1156C15.3759 20.0221 15.4359 19.9377 15.5105 19.8675C15.5851 19.7972 15.6728 19.7424 15.7687 19.7063C15.8759 19.6642 15.9918 19.6492 16.1062 19.6625C16.0577 19.6273 16.0053 19.598 15.95 19.575C15.649 19.4396 15.3146 19.3965 14.9891 19.4512C14.6636 19.5059 14.3616 19.6559 14.1213 19.8822C13.8811 20.1085 13.7133 20.4009 13.6393 20.7226C13.5652 21.0442 13.5882 21.3806 13.7054 21.6891C13.8225 21.9977 14.0285 22.2646 14.2973 22.4561C14.5662 22.6476 14.8857 22.7551 15.2157 22.7649C15.5456 22.7748 15.871 22.6866 16.1508 22.5115C16.4305 22.3364 16.6521 22.0823 16.7875 21.7812C16.8773 21.5837 16.9264 21.3701 16.9318 21.1532C16.9372 20.9363 16.8987 20.7205 16.8187 20.5188C16.7997 20.6922 16.7229 20.8542 16.6007 20.9788C16.4785 21.1033 16.318 21.1832 16.1449 21.2056C15.9719 21.2279 15.7963 21.1915 15.6465 21.102C15.4966 21.0126 15.3812 20.8754 15.3187 20.7125ZM24.7437 19.5938C24.8509 19.5517 24.9668 19.5367 25.0812 19.55C25.0327 19.5148 24.9803 19.4855 24.925 19.4625C24.6244 19.3274 24.2905 19.2846 23.9656 19.3393C23.6406 19.3941 23.3392 19.544 23.0995 19.77C22.8598 19.9961 22.6925 20.2882 22.6188 20.6094C22.5452 20.9306 22.5684 21.2664 22.6856 21.5744C22.8029 21.8823 23.0088 22.1486 23.2774 22.3395C23.546 22.5304 23.8652 22.6373 24.1946 22.6467C24.524 22.6562 24.8488 22.5677 25.1279 22.3925C25.407 22.2173 25.6278 21.9632 25.7625 21.6625C25.8529 21.4628 25.9017 21.2468 25.906 21.0276C25.9103 20.8084 25.87 20.5906 25.7875 20.3875C25.7741 20.5327 25.721 20.6714 25.6339 20.7883C25.5467 20.9051 25.429 20.9957 25.2937 21.05C25.1981 21.0861 25.0963 21.103 24.9942 21.0998C24.892 21.0966 24.7915 21.0733 24.6983 21.0312C24.6052 20.9891 24.5212 20.9291 24.4513 20.8546C24.3813 20.7801 24.3267 20.6925 24.2906 20.5969C24.2545 20.5013 24.2376 20.3995 24.2408 20.2973C24.244 20.1951 24.2673 20.0946 24.3094 20.0015C24.3515 19.9083 24.4115 19.8244 24.486 19.7544C24.5605 19.6845 24.6481 19.6299 24.7437 19.5938ZM26.3562 18.3375C26.8283 18.7673 27.2064 19.2901 27.4667 19.8731C27.727 20.4561 27.8639 21.0866 27.8687 21.725V31.1188C27.1194 32.609 26.0399 33.9086 24.7125 34.9187C23.2954 35.7907 21.6638 36.2516 20 36.25C16.9187 36.0625 12.375 33.6937 10.5687 29.975V19.6375C10.571 19.0227 10.6972 18.4147 10.9399 17.8498C11.1826 17.2849 11.5368 16.7748 11.9812 16.35C12.3187 16.2032 12.6706 16.0922 13.0312 16.0187C12.9687 16 12.9125 15.9875 12.85 15.975L13.0312 15.9375L22.0875 17.0563H22.1C23.075 17.2625 25.675 17.7063 26.3562 18.3375Z" fill="#FDFDFD"/>
<path d="M29.4312 20.6625V30.0563C28.3731 32.1076 26.7312 33.7996 24.7125 34.9188C26.0399 33.9086 27.1193 32.609 27.8687 31.1188V21.725C27.8638 21.0866 27.727 20.4561 27.4667 19.8731C27.2064 19.2901 26.8283 18.7673 26.3562 18.3375C25.6749 17.7063 23.075 17.2625 22.1 17.0563H22.0875L13.0312 15.9375L12.85 15.975C12.9125 15.9875 12.9687 16 13.0312 16.0187C12.6706 16.0922 12.3187 16.2032 11.9812 16.35C12.0125 16.3188 12.0437 16.2813 12.0812 16.25C12.7851 15.5978 13.6539 15.1504 14.5937 14.9563C14.5312 14.9375 14.475 14.925 14.4125 14.9125L14.5937 14.875L23.65 15.9938H23.6625C24.6375 16.2 27.2374 16.6438 27.9187 17.275C28.3908 17.7048 28.7689 18.2276 29.0292 18.8106C29.2895 19.3936 29.4263 20.0241 29.4312 20.6625Z" fill="#FFF9ED"/>
<path d="M34.3 31.3375L34.1187 29.9937C33.6187 26.6062 32.8125 23.2125 32.1812 19.825C31.9375 18.5312 31.7187 17.2437 31.5562 15.95C30.4812 8.36875 27.25 2.21875 19.175 2.21875H17.55C15.308 2.14949 13.0965 2.75241 11.2 3.95L11.1687 3.91875C13.0312 2.18125 15.525 1.15625 18.825 1.15625H20.45C28.525 1.15625 31.7562 7.30625 32.8312 14.8937C33.4312 19.5687 34.7062 24.25 35.3937 28.9312L35.5749 30.275C35.8437 33.925 34.6749 35.4937 33.0749 36.5L33.0687 36.4937C33.9562 35.4562 34.4875 33.9187 34.3 31.3375Z" fill="#CCBADE"/>
<path d="M30.3375 17.1313C29.3605 16.2711 28.1017 15.7996 26.8 15.8063C25.7515 15.8092 24.704 15.8718 23.6625 15.9938H23.65L14.5938 14.875L14.4125 14.9125C14.0152 14.8188 13.6082 14.7726 13.2 14.775C11.8525 14.7689 10.5528 15.2736 9.56254 16.1875C9.09056 16.6174 8.71257 17.1402 8.45228 17.7232C8.192 18.3061 8.05505 18.9366 8.05004 19.575V32.6C8.05322 33.4234 8.27773 34.2307 8.70004 34.9375L8.51879 35.0563C8.51879 35.0563 8.13129 37.2438 9.05004 37.625C6.30004 36.3375 3.27504 35.675 3.68129 30.0125L3.81879 29.3438C4.49379 24.525 5.83129 19.7063 6.44379 14.8938C7.05004 10.625 8.33754 6.81251 10.7813 4.29376C10.9063 4.16251 11.0375 4.03751 11.1688 3.91876L11.2 3.95001C13.0966 2.75242 15.3081 2.1495 17.55 2.21876H19.175C27.25 2.21876 30.4813 8.36876 31.5563 15.95C31.7188 17.2438 31.9375 18.5313 32.1813 19.825L31.8938 19.8813C31.7123 18.8567 31.2009 17.9195 30.4375 17.2125V17.1438C30.406 17.1423 30.3746 17.1381 30.3438 17.1313H30.3375Z" fill="#8C64B4"/>
<path d="M10.5688 32.6625C10.5986 33.7405 10.9845 34.7783 11.6663 35.6139C12.3481 36.4495 13.2874 37.0358 14.3375 37.2813C13.9633 37.3588 13.5822 37.3986 13.2 37.4C12.3592 37.4075 11.5288 37.2134 10.7785 36.8339C10.0282 36.4544 9.37972 35.9005 8.88755 35.2188L8.70005 34.9375C8.27774 34.2307 8.05323 33.4234 8.05005 32.6V19.575C8.05506 18.9366 8.19201 18.3061 8.45229 17.7232C8.71257 17.1402 9.09057 16.6174 9.56255 16.1875C10.5528 15.2736 11.8525 14.7689 13.2 14.775C13.6082 14.7726 14.0153 14.8188 14.4125 14.9125C14.475 14.925 14.5313 14.9375 14.5938 14.9563C13.654 15.1504 12.7852 15.5978 12.0813 16.25C12.0438 16.2813 12.0125 16.3188 11.9813 16.35C11.5369 16.7748 11.1827 17.2849 10.94 17.8498C10.6973 18.4147 10.571 19.0227 10.5688 19.6375V32.6625Z" fill="#F6B884"/>
<path d="M34.3 31.3375C34.4875 33.9187 33.9563 35.4562 33.0688 36.4937L33.075 36.5C32.1469 37.0185 31.189 37.4818 30.2063 37.8875C30.4472 37.7527 30.6429 37.5496 30.7686 37.3038C30.8943 37.058 30.9444 36.7805 30.9125 36.5062C31.5795 35.6962 31.946 34.6805 31.95 33.6312V20.6062C31.9502 20.3635 31.9314 20.1211 31.8938 19.8812L32.1813 19.825C32.8125 23.2125 33.6188 26.6062 34.1188 29.9937L34.3 31.3375Z" fill="#8C64B4"/>
<path d="M30.9125 36.5063C30.2827 37.254 29.4616 37.8165 28.5368 38.1335C27.6121 38.4506 26.6185 38.5103 25.6625 38.3063C26.7135 38.0625 27.6539 37.4767 28.336 36.6408C29.0181 35.8048 29.4033 34.7661 29.4312 33.6875V20.6625C29.4264 20.0241 29.2895 19.3936 29.0292 18.8106C28.7689 18.2276 28.3908 17.7048 27.9187 17.275C27.2375 16.6438 24.6375 16.2 23.6625 15.9938C24.7039 15.8718 25.7514 15.8092 26.8 15.8063C28.1016 15.7996 29.3605 16.2711 30.3375 17.1313H30.3437C30.375 17.1563 30.4062 17.1875 30.4375 17.2125C31.2009 17.9195 31.7123 18.8567 31.8937 19.8813C31.9313 20.1211 31.9501 20.3635 31.95 20.6063V33.6313C31.9459 34.6805 31.5794 35.6962 30.9125 36.5063Z" fill="#F6B884"/>
<path d="M25.7875 20.3875C25.87 20.5906 25.9104 20.8084 25.9061 21.0276C25.9018 21.2468 25.8529 21.4628 25.7625 21.6625C25.6281 21.9643 25.407 22.2194 25.1274 22.3955C24.8479 22.5715 24.5223 22.6606 24.192 22.6515C23.8617 22.6423 23.5416 22.5353 23.2722 22.3441C23.0028 22.1528 22.7962 21.8858 22.6787 21.5771C22.5611 21.2683 22.5379 20.9315 22.6119 20.6095C22.6859 20.2875 22.8538 19.9947 23.0944 19.7683C23.335 19.5418 23.6374 19.3918 23.9633 19.3374C24.2892 19.283 24.6239 19.3265 24.925 19.4625C24.9803 19.4855 25.0328 19.5148 25.0813 19.55C24.9669 19.5367 24.851 19.5517 24.7438 19.5937C24.5507 19.6667 24.3944 19.8133 24.3095 20.0015C24.2245 20.1896 24.2177 20.4038 24.2907 20.5969C24.3636 20.79 24.5102 20.9462 24.6984 21.0312C24.8865 21.1162 25.1007 21.1229 25.2938 21.05C25.4291 20.9957 25.5468 20.9051 25.6339 20.7882C25.721 20.6713 25.7742 20.5327 25.7875 20.3875ZM16.8188 20.5187C16.8988 20.7205 16.9372 20.9362 16.9318 21.1532C16.9265 21.3701 16.8774 21.5837 16.7875 21.7812C16.6522 22.0823 16.4306 22.3364 16.1508 22.5115C15.871 22.6866 15.5456 22.7748 15.2157 22.7649C14.8858 22.7551 14.5662 22.6476 14.2974 22.4561C14.0286 22.2646 13.8226 21.9977 13.7054 21.6891C13.5883 21.3806 13.5653 21.0442 13.6393 20.7225C13.7134 20.4009 13.8811 20.1084 14.1214 19.8821C14.3617 19.6559 14.6636 19.5059 14.9891 19.4512C15.3146 19.3965 15.649 19.4396 15.95 19.575C16.0053 19.598 16.0578 19.6273 16.1063 19.6625C15.9919 19.6492 15.876 19.6642 15.7688 19.7062C15.6395 19.7554 15.5257 19.8381 15.4391 19.9458C15.3524 20.0535 15.296 20.1824 15.2757 20.3191C15.2553 20.4559 15.2718 20.5956 15.3234 20.7239C15.375 20.8521 15.4598 20.9643 15.5691 21.049C15.6785 21.1336 15.8084 21.1875 15.9455 21.2053C16.0826 21.223 16.222 21.2039 16.3493 21.1499C16.4765 21.0959 16.5871 21.0089 16.6696 20.898C16.7522 20.7871 16.8036 20.6562 16.8188 20.5187Z" fill="#232323"/>
<path d="M23.8557 28.4475C23.7754 28.427 23.6904 28.4392 23.6191 28.4814C23.5479 28.5236 23.4963 28.5923 23.4757 28.6725C23.1382 29.985 21.6825 30.9381 20.0138 30.9381C18.345 30.9381 16.8888 29.9856 16.5525 28.6725C16.5437 28.6314 16.5266 28.5925 16.5024 28.5582C16.4781 28.5238 16.4472 28.4947 16.4114 28.4726C16.3757 28.4505 16.3358 28.4358 16.2942 28.4295C16.2527 28.4231 16.2102 28.4252 16.1695 28.4357C16.1288 28.4461 16.0906 28.4646 16.0572 28.4902C16.0238 28.5157 15.9959 28.5478 15.9752 28.5844C15.9544 28.6209 15.9413 28.6613 15.9366 28.7031C15.9318 28.7449 15.9356 28.7872 15.9475 28.8275C16.3538 30.4125 18.0638 31.5631 20.0138 31.5631C21.9638 31.5631 23.6744 30.4125 24.0807 28.8275C24.1012 28.7473 24.089 28.6622 24.0468 28.591C24.0046 28.5197 23.9359 28.4681 23.8557 28.4475Z" fill="#394750"/>
<path d="M36.5663 30.3519L36.3856 29C36.0625 26.8075 35.6069 24.5881 35.1656 22.4419C34.6619 19.9888 34.1406 17.4519 33.8213 14.9612C32.4769 5.49062 28.1038 0.6875 20.8231 0.6875H19.1944C11.9138 0.6875 7.54064 5.49 6.19439 14.9706C5.87502 17.4594 5.35502 20 4.84939 22.4606C4.38127 24.7375 3.89689 27.0919 3.57877 29.3781L3.44127 30.0481C3.43569 30.0747 3.43193 30.1017 3.43002 30.1288C3.03064 35.6469 5.84064 36.8838 8.32002 37.975C8.57752 38.0881 8.83627 38.2019 9.09189 38.3206C9.12002 38.335 9.14939 38.3481 9.17939 38.3606C9.33027 38.4234 9.49972 38.4246 9.65145 38.3639C9.80318 38.3033 9.92512 38.1856 9.99115 38.0361C10.0572 37.8867 10.062 37.7173 10.0047 37.5643C9.94737 37.4112 9.83239 37.2868 9.68439 37.2175L9.64689 37.2006C9.56939 37.1531 9.50814 36.9756 9.47064 36.7269C10.5306 37.57 11.8456 38.0278 13.2 38.025C13.6242 38.0233 14.0471 37.9794 14.4625 37.8938C14.6008 37.8655 14.7254 37.7914 14.8161 37.6833C14.9069 37.5753 14.9584 37.4397 14.9623 37.2987C14.9662 37.1577 14.9223 37.0195 14.8377 36.9066C14.753 36.7937 14.6327 36.7127 14.4963 36.6769C13.5802 36.4654 12.7598 35.9572 12.1625 35.2312C11.5652 34.5052 11.2247 33.6021 11.1938 32.6625V32.1031C13.3802 34.7792 16.5281 36.4923 19.9625 36.875C20.075 36.8819 20.1888 36.885 20.3038 36.885C22.975 36.885 26.5588 35.12 28.8038 32.2225V33.6875C28.7752 34.6274 28.4356 35.5313 27.8384 36.2576C27.2411 36.9839 26.4198 37.4916 25.5031 37.7012C25.3671 37.7364 25.2469 37.8164 25.1618 37.9283C25.0768 38.0402 25.032 38.1774 25.0346 38.3179C25.0372 38.4584 25.0871 38.594 25.1762 38.7026C25.2653 38.8113 25.3884 38.8868 25.5256 38.9169C27.0516 39.2414 28.6439 38.9675 29.9738 38.1519C29.9781 38.2016 29.989 38.2506 30.0063 38.2975C30.0548 38.4088 30.1348 38.5036 30.2364 38.5702C30.3379 38.6368 30.4567 38.6723 30.5781 38.6725C30.6606 38.6727 30.7422 38.6564 30.8181 38.6244C30.8575 38.6081 30.8956 38.5906 30.9319 38.5719C31.1819 38.4581 31.4319 38.3481 31.6769 38.2388C34.1594 37.145 36.9694 35.9081 36.5663 30.3519ZM11.6875 36.5344C10.7666 36.2372 9.96555 35.652 9.40252 34.865L9.39314 34.8512C8.92844 34.1927 8.67751 33.4072 8.67439 32.6012V19.575C8.67831 19.0223 8.79699 18.4763 9.02292 17.9719C9.24886 17.4674 9.57711 17.0153 9.98689 16.6444C10.5297 16.1403 11.1856 15.774 11.8994 15.5763C11.8161 15.6458 11.7346 15.7177 11.655 15.7919C11.1176 16.2784 10.6877 16.8717 10.3929 17.5339C10.098 18.1961 9.94459 18.9126 9.94252 19.6375V32.6625C9.94869 33.3937 10.107 34.1155 10.4075 34.7821C10.7079 35.4487 11.1438 36.0455 11.6875 36.5344ZM20.0381 35.625C17.0869 35.4469 12.9 33.1875 11.1938 29.8281V19.6375C11.1964 19.0845 11.3146 18.5381 11.5406 18.0333C11.7666 17.5286 12.0955 17.0766 12.5063 16.7062C13.1273 16.1323 13.8931 15.7386 14.7213 15.5675C14.7581 15.5599 14.7941 15.5488 14.8288 15.5344L23.5706 16.6144H23.5769L24.0025 16.7013C24.8306 16.8662 27.03 17.3056 27.4894 17.7319C28.2114 18.3882 28.6707 19.2843 28.7819 20.2537C28.7964 20.3895 28.8037 20.526 28.8038 20.6625V29.9125C27.0056 33.485 22.7731 35.785 20.0381 35.625ZM30.0563 33.6875V20.6625C30.0528 19.9378 29.8988 19.2218 29.604 18.5598C29.3092 17.8978 28.88 17.3043 28.3438 16.8169C28.2516 16.7333 28.1515 16.6588 28.045 16.5944C28.7418 16.7772 29.3857 17.1217 29.9244 17.6C29.9453 17.6187 29.9675 17.636 29.9906 17.6519L30.0125 17.67C30.4219 18.0427 30.7499 18.4961 30.9757 19.0016C31.2016 19.5071 31.3205 20.0538 31.325 20.6075V33.6313C31.3019 34.5194 30.9985 35.3775 30.4584 36.0829C29.9182 36.7882 29.1689 37.3048 28.3175 37.5588C28.8598 37.0692 29.2945 36.4723 29.5938 35.8059C29.8931 35.1394 30.0506 34.4181 30.0563 33.6875ZM31.9075 36.7656C31.9126 36.5817 31.9016 36.3976 31.8744 36.2156C32.3331 35.4316 32.5749 34.5396 32.575 33.6313V20.6063C32.5709 19.8814 32.4169 19.1653 32.1228 18.5029C31.8286 17.8404 31.4006 17.246 30.8656 16.7569L30.8069 16.7056L30.7656 16.67L30.7356 16.6444L30.7006 16.6181C29.6165 15.684 28.2311 15.1734 26.8 15.1806C26.6125 15.1806 24.3963 15.2275 23.6338 15.3612L15.9281 14.41C15.8987 14.3926 15.868 14.3776 15.8363 14.365C15.4873 14.3121 15.1536 14.1852 14.8577 13.993C14.5617 13.8007 14.3102 13.5474 14.12 13.25C13.9275 12.803 13.9156 12.2987 14.0869 11.8431C14.1517 11.6905 14.1533 11.5185 14.0912 11.3647C14.0291 11.211 13.9085 11.0883 13.756 11.0234C13.6034 10.9586 13.4313 10.9571 13.2776 11.0191C13.1239 11.0812 13.0011 11.2018 12.9363 11.3544C12.7829 11.744 12.7089 12.1603 12.7187 12.5789C12.7284 12.9974 12.8218 13.4099 12.9931 13.7919C13.0558 13.9178 13.1283 14.0386 13.21 14.1531H13.2C11.6944 14.1451 10.2421 14.7099 9.13752 15.7331C8.60163 16.22 8.1727 16.8129 7.87791 17.4743C7.58312 18.1356 7.4289 18.851 7.42502 19.575V32.6C7.43111 33.5732 7.71282 34.5247 8.23752 35.3444C8.18337 35.7436 8.1683 36.1472 8.19252 36.5494C6.07564 35.5838 4.38002 34.4531 4.67502 30.2588L4.81252 29.5906C5.13252 27.3044 5.61314 24.97 6.07689 22.7119C6.58689 20.2306 7.11502 17.665 7.43752 15.1381C8.69502 6.25563 12.5413 1.9375 19.1944 1.9375H20.8231C27.4763 1.9375 31.3231 6.255 32.5825 15.1287C32.9063 17.6575 33.4325 20.2175 33.9413 22.6912C34.3788 24.82 34.8306 27.0219 35.1475 29.1713L35.3238 30.4769C35.625 34.6413 33.9844 35.8056 31.9075 36.7656Z" fill="#394750"/>
</svg>
