<svg width="40" height="40" viewBox="0 0 40 40" fill="none" xmlns="http://www.w3.org/2000/svg">
<path d="M32.375 5.0875C33.1006 6.54569 33.2306 8.22893 32.7375 9.78125C32.5869 10.2124 32.3697 10.6173 32.0938 10.9812C31.8243 11.341 31.4758 11.634 31.075 11.8375C30.9368 11.9086 30.7925 11.9672 30.6438 12.0125C30.6413 12.0149 30.6383 12.0166 30.6351 12.0177C30.6319 12.0188 30.6284 12.0192 30.625 12.0187C30.5833 12.0389 30.5392 12.0536 30.4938 12.0625C30.45 12.075 30.4063 12.0812 30.3625 12.0937H30.35C30.3438 12.1062 30.3438 12.1062 30.3313 12.1062C30.2313 12.125 30.1313 12.1437 30.0313 12.1562C29.8633 12.176 29.6938 12.1802 29.525 12.1687C29.0271 12.1348 28.5456 11.977 28.1243 11.7095C27.703 11.4421 27.3552 11.0736 27.1125 10.6375C26.5688 9.625 26.7813 7.3125 27.3125 6.45C27.9687 7.18044 28.8781 7.63401 29.8563 7.71875C30.0104 6.70307 29.933 5.66571 29.63 4.68412C29.3269 3.70253 28.8061 2.80207 28.1063 2.05C29.4438 1.58125 31.3125 2.89375 32.375 5.0875Z" fill="#F6B884"/>
<path d="M31.0813 11.8875C31.1168 12.1652 31.1335 12.445 31.1313 12.725C31.1315 13.655 30.9486 14.5759 30.5928 15.4352C30.237 16.2944 29.7154 17.0751 29.0578 17.7327C28.4002 18.3903 27.6195 18.9119 26.7602 19.2677C25.901 19.6235 24.98 19.8065 24.05 19.8062C23.789 19.8078 23.5281 19.7932 23.2688 19.7625L23.6313 17.8187C27.1313 17.6875 28.8125 15.8 29.5563 12.725C29.5804 12.5392 29.5698 12.3506 29.5251 12.1687C29.6938 12.1802 29.8633 12.176 30.0313 12.1562C30.1313 12.1437 30.2313 12.125 30.3313 12.1062C30.3438 12.1062 30.3438 12.1062 30.35 12.0937H30.3813C30.4195 12.0862 30.4572 12.0758 30.4938 12.0625C30.5392 12.0536 30.5834 12.0389 30.625 12.0187C30.6284 12.0192 30.6319 12.0188 30.6351 12.0177C30.6384 12.0166 30.6413 12.0149 30.6438 12.0125C30.7925 11.9672 30.9368 11.9086 31.075 11.8375C31.075 11.8562 31.0813 11.875 31.0813 11.8875Z" fill="#FFF9ED"/>
<path d="M21.9813 14.1187C22.4962 14.2136 22.9551 14.5025 23.2633 14.9258C23.5715 15.3491 23.7054 15.8746 23.6375 16.3937L22.8438 21.4125L22.6875 22.4125L22.4813 23.725L22.325 24.7312L22.1188 26L21.9688 26.9812L21.7375 28.4625L21.5875 29.4C21.5726 29.5326 21.5411 29.6628 21.4938 29.7875C21.4107 30.0448 21.2758 30.2824 21.0974 30.4856C20.9189 30.6887 20.7007 30.8532 20.4563 30.9687C20.1794 31.1093 19.8731 31.1821 19.5625 31.1812C19.2371 31.1819 18.9163 31.1045 18.6271 30.9555C18.3378 30.8065 18.0885 30.5903 17.9 30.325C17.9828 30.3377 18.0663 30.3439 18.15 30.3437C18.4621 30.3474 18.7707 30.2767 19.05 30.1375C19.3458 29.9941 19.603 29.7819 19.8 29.5187C19.9244 29.3482 20.0194 29.1581 20.0813 28.9562C20.1306 28.8318 20.1642 28.7016 20.1813 28.5687L20.3313 27.625L20.5625 26.1437L20.7125 25.1625L20.9188 23.9L21.0688 22.8937L21.2813 21.5812L21.4375 20.5812L22.2313 15.5625C22.2922 15.1092 22.1974 14.6487 21.9625 14.2562L21.9813 14.1187Z" fill="#CCBADE"/>
<path d="M21.025 30.6187C21.7208 30.8564 22.3288 31.2985 22.7692 31.8873C23.2097 32.4761 23.4622 33.1841 23.4937 33.9187C23.4937 35.7812 21.8562 37.3187 19.725 37.55C20.0204 37.3443 20.2504 37.0579 20.3875 36.725C20.4223 36.6331 20.4515 36.5392 20.475 36.4437C20.8628 36.1229 21.1715 35.717 21.3771 35.2575C21.5826 34.798 21.6795 34.2973 21.6602 33.7943C21.6408 33.2913 21.5058 32.7995 21.2655 32.3572C21.0253 31.9149 20.6863 31.5338 20.275 31.2437C20.5735 31.1017 20.8315 30.8868 21.025 30.6187Z" fill="#F6B884"/>
<path d="M22.1813 11.4875C22.0125 11.6049 21.8119 11.6681 21.6063 11.6688C21.3427 11.6688 21.09 11.5641 20.9036 11.3777C20.7172 11.1913 20.6125 10.9386 20.6125 10.675C20.6125 10.4114 20.7172 10.1587 20.9036 9.97232C21.09 9.78595 21.3427 9.68125 21.6063 9.68125C21.6999 9.679 21.7931 9.69383 21.8813 9.725C21.8373 9.77179 21.8071 9.82978 21.7938 9.89261C21.7806 9.95544 21.7849 10.0207 21.8063 10.0813C21.8221 10.1228 21.8461 10.1608 21.8767 10.1931C21.9073 10.2254 21.944 10.2513 21.9847 10.2693C22.0253 10.2873 22.0692 10.2971 22.1137 10.2981C22.1581 10.299 22.2024 10.2912 22.2438 10.275C22.3209 10.2454 22.3836 10.1872 22.4188 10.1125C22.5369 10.2763 22.6003 10.4731 22.6 10.675C22.601 10.8342 22.5634 10.9912 22.4905 11.1327C22.4176 11.2742 22.3115 11.3959 22.1813 11.4875Z" fill="#232323"/>
<path d="M21.9626 14.2562C22.1974 14.6487 22.2922 15.1092 22.2313 15.5625L21.4376 20.5812L21.2813 21.5812L21.0688 22.8937L20.9188 23.9L20.7126 25.1625L20.5626 26.1437L20.3313 27.625L20.1813 28.5687C20.1643 28.7016 20.1307 28.8318 20.0813 28.9562C20.0195 29.1581 19.9244 29.3482 19.8001 29.5187C19.603 29.7819 19.3459 29.9941 19.0501 30.1375C18.7707 30.2767 18.4622 30.3474 18.1501 30.3437C18.0664 30.3439 17.9828 30.3377 17.9001 30.325C17.7294 30.0931 17.612 29.8263 17.5563 29.5437C17.5501 29.4812 17.5376 29.4187 17.5313 29.35L17.3813 28.1312V28.125L17.1813 26.6312L17.0626 25.6312L16.9001 24.3937L16.7751 23.3812L16.6063 22.1187L16.4813 21.1L16.3251 19.8437L16.1563 18.5062L15.8751 16.3375C15.8192 15.8203 15.9636 15.3015 16.2787 14.8876C16.5937 14.4737 17.0554 14.1963 17.5688 14.1125C17.6777 14.0894 17.7888 14.0789 17.9001 14.0812H21.6063C21.6921 14.081 21.7777 14.0873 21.8626 14.1C21.9029 14.1001 21.9429 14.1064 21.9813 14.1187L21.9626 14.2562Z" fill="#8C64B4"/>
<path d="M20.1125 35.0563C20.2835 35.2392 20.4062 35.4618 20.4695 35.7041C20.5328 35.9464 20.5347 36.2006 20.475 36.4438C20.4516 36.5392 20.4224 36.6331 20.3875 36.725C20.2505 37.0579 20.0205 37.3443 19.725 37.55H19.7188C19.6507 37.5943 19.5797 37.634 19.5063 37.6688C19.2946 37.7672 19.069 37.8325 18.8375 37.8625C18.446 37.9091 18.049 37.8719 17.673 37.7533C17.2969 37.6348 16.9503 37.4377 16.6563 37.175C15.7813 36.3813 15.4438 35.275 15.8688 34.6375C16.1124 35.0757 16.4633 35.4448 16.8885 35.7105C17.3137 35.9761 17.7994 36.1295 18.3 36.1563C18.4154 35.6627 18.3371 35.1438 18.0813 34.7063C18.4255 34.6191 18.7842 34.6053 19.1341 34.6655C19.484 34.7258 19.8173 34.8589 20.1125 35.0563Z" fill="#F6B884"/>
<path d="M17.2875 11.7938C17.1101 11.6762 16.9752 11.5048 16.9027 11.3047C16.8302 11.1047 16.824 10.8866 16.8849 10.6828C16.9459 10.4789 17.0708 10.3 17.2412 10.1726C17.4116 10.0451 17.6184 9.97587 17.8312 9.975C17.9887 9.97061 18.1443 10.0095 18.2812 10.0875C18.2177 10.137 18.1741 10.2076 18.1582 10.2865C18.1422 10.3653 18.155 10.4473 18.1943 10.5176C18.2336 10.5878 18.2967 10.6417 18.3723 10.6694C18.4478 10.6971 18.5308 10.6969 18.6062 10.6688C18.6601 10.6481 18.7075 10.6136 18.7437 10.5688C18.7738 10.63 18.7949 10.6952 18.8062 10.7625C18.8189 10.8305 18.8252 10.8996 18.825 10.9688C18.8243 11.2321 18.7194 11.4845 18.5332 11.6707C18.347 11.8569 18.0946 11.9618 17.8312 11.9625C17.6371 11.9622 17.4476 11.9034 17.2875 11.7938Z" fill="#232323"/>
<path d="M16.0125 17.7812L16.325 19.8437C14.4529 19.8371 12.6598 19.0888 11.3383 17.7627C10.0169 16.4366 9.27496 14.6408 9.27497 12.7687C9.27379 12.4869 9.2884 12.2052 9.31872 11.925C9.31872 11.9125 9.32497 11.8937 9.32497 11.8687L9.32544 11.8711L9.3268 11.8732L9.32883 11.8745L9.33122 11.875C9.41247 11.9125 9.48747 11.95 9.57497 11.9875C9.66247 12.025 9.73747 12.05 9.82497 12.075C9.85703 12.0891 9.89057 12.0996 9.92497 12.1062C9.96247 12.1125 9.99372 12.125 10.025 12.1312C10.0797 12.1497 10.1363 12.1622 10.1937 12.1687C10.2516 12.1801 10.31 12.1885 10.3687 12.1937C10.5367 12.2135 10.7062 12.2177 10.875 12.2062C10.8331 12.3907 10.8225 12.5808 10.8437 12.7687C11.4812 15.8375 13.0812 17.325 16.0125 17.7812Z" fill="#FFF9ED"/>
<path d="M13.0875 6.48748C13.6188 7.34999 13.825 9.66248 13.2875 10.6812C13.0437 11.1158 12.6955 11.4828 12.2743 11.749C11.8531 12.0153 11.3722 12.1724 10.875 12.2062C10.7063 12.2177 10.5368 12.2135 10.3688 12.1937C10.3101 12.1885 10.2516 12.1801 10.1938 12.1687C10.1375 12.1562 10.0813 12.1375 10.025 12.125C9.99379 12.1187 9.96254 12.1125 9.92504 12.1062C9.88754 12.1 9.85629 12.0812 9.82504 12.0687C9.7397 12.0483 9.65611 12.0211 9.57504 11.9875C9.48754 11.95 9.41254 11.9125 9.33129 11.875L9.3289 11.8745L9.32687 11.8732L9.32551 11.8711L9.32504 11.8687C8.92089 11.6677 8.56975 11.3744 8.30004 11.0125C8.02953 10.6484 7.81468 10.2461 7.66254 9.81873C7.17256 8.26606 7.30246 6.58401 8.02504 5.12498C9.08754 2.93123 10.9563 1.61873 12.2938 2.09373C11.594 2.84451 11.073 3.74386 10.7699 4.72446C10.4669 5.70507 10.3896 6.74152 10.5438 7.75623C11.5232 7.6756 12.434 7.22131 13.0875 6.48748Z" fill="#F6B884"/>
<path d="M32.9375 4.8125C31.7294 2.3125 29.5625 0.875001 27.8994 1.46063C27.8007 1.49529 27.7123 1.55418 27.6422 1.63188C27.5722 1.70958 27.5228 1.80362 27.4986 1.90538C27.4743 2.00713 27.476 2.11334 27.5034 2.21429C27.5309 2.31523 27.5832 2.40766 27.6556 2.48313C28.2232 3.08477 28.6621 3.79574 28.9458 4.57264C29.2295 5.34954 29.3519 6.1761 29.3056 7.00188C28.7123 6.80431 28.1784 6.46038 27.7531 6.00188C27.6864 5.93531 27.6056 5.88469 27.5165 5.8538C27.4275 5.82291 27.3327 5.81255 27.2391 5.82349C27.1455 5.83443 27.0556 5.86639 26.9761 5.91698C26.8966 5.96757 26.8296 6.03548 26.78 6.11563C26.125 7.17813 25.905 9.70125 26.5656 10.935C26.8118 11.3774 27.1483 11.763 27.5533 12.0668C27.9583 12.3706 28.4227 12.5857 28.9163 12.6981C28.2 15.5019 26.7169 16.8988 24.1488 17.1519L24.2538 16.4863V16.4688C24.3376 15.8569 24.2033 15.235 23.8746 14.7121C23.5458 14.1893 23.0434 13.7989 22.4556 13.6094C22.7057 13.2659 22.836 12.8498 22.8264 12.4251C22.8168 12.0003 22.6679 11.5905 22.4025 11.2588C22.5287 11.0893 22.597 10.8838 22.5975 10.6725C22.5986 10.4689 22.5346 10.2703 22.415 10.1056C22.3987 10.1439 22.3745 10.1784 22.344 10.2068C22.3136 10.2352 22.2775 10.257 22.2381 10.2706C22.197 10.2865 22.153 10.2941 22.1089 10.2929C22.0648 10.2917 22.0213 10.2817 21.9811 10.2636C21.9409 10.2455 21.9046 10.2195 21.8745 10.1872C21.8444 10.155 21.821 10.117 21.8056 10.0756C21.7817 10.016 21.7759 9.95065 21.7889 9.88773C21.8019 9.82482 21.8332 9.76713 21.8788 9.72188C21.7904 9.69196 21.6976 9.67758 21.6044 9.67938C21.4718 9.67605 21.3399 9.69929 21.2165 9.74772C21.0931 9.79615 20.9806 9.86879 20.8856 9.96137C20.7907 10.0539 20.7153 10.1646 20.6638 10.2868C20.6123 10.409 20.5857 10.5402 20.5857 10.6728C20.5857 10.8054 20.6123 10.9367 20.6638 11.0589C20.7153 11.181 20.7907 11.2917 20.8856 11.3843C20.9806 11.4768 21.0931 11.5495 21.2165 11.5979C21.3399 11.6463 21.4718 11.6696 21.6044 11.6663C21.7025 11.6647 21.7998 11.6485 21.8931 11.6181C22.1086 11.8864 22.2156 12.2256 22.1932 12.5689C22.1707 12.9122 22.0204 13.2346 21.7719 13.4725C21.7156 13.4688 21.6613 13.4544 21.6044 13.4544H17.9031C17.766 13.4582 17.6293 13.4729 17.4944 13.4981C17.3339 13.2627 17.255 12.9812 17.2696 12.6966C17.2843 12.4121 17.3918 12.1402 17.5756 11.9225C17.6596 11.9468 17.7464 11.9599 17.8338 11.9613C18.0979 11.9596 18.3506 11.8535 18.5368 11.6662C18.723 11.4788 18.8275 11.2254 18.8275 10.9613C18.8274 10.8248 18.7982 10.6899 18.7419 10.5656C18.7068 10.6094 18.6606 10.6431 18.6081 10.6631C18.567 10.679 18.523 10.6866 18.4789 10.6854C18.4348 10.6842 18.3913 10.6742 18.3511 10.6561C18.3109 10.638 18.2746 10.612 18.2445 10.5797C18.2144 10.5475 18.191 10.5095 18.1756 10.4681C18.1499 10.4014 18.146 10.3282 18.1645 10.2591C18.1831 10.19 18.2231 10.1286 18.2788 10.0838C18.1435 10.006 17.9898 9.96603 17.8338 9.96813C17.6471 9.96757 17.464 10.0198 17.3057 10.1188C17.1475 10.2179 17.0204 10.3596 16.9393 10.5278C16.8581 10.6959 16.8261 10.8835 16.8471 11.0691C16.868 11.2546 16.9409 11.4304 17.0575 11.5763C16.8244 11.8689 16.6827 12.2238 16.6503 12.5965C16.6178 12.9693 16.696 13.3433 16.875 13.6719C16.3421 13.8905 15.8951 14.277 15.6018 14.7728C15.3085 15.2685 15.185 15.8464 15.25 16.4188L15.3238 16.9969C13.1519 16.4556 12.0075 15.1738 11.48 12.74C11.9739 12.6278 12.4386 12.4128 12.8439 12.1092C13.2492 11.8055 13.586 11.4199 13.8325 10.9775V10.9713C14.4844 9.74375 14.2638 7.22125 13.6169 6.15875C13.5677 6.07795 13.5007 6.00937 13.4212 5.9582C13.3416 5.90703 13.2514 5.87459 13.1575 5.86334C13.0635 5.85208 12.9682 5.8623 12.8788 5.89323C12.7894 5.92416 12.7082 5.97498 12.6413 6.04188C12.2171 6.49983 11.6845 6.84372 11.0925 7.04188C11.0481 6.21673 11.1711 5.39113 11.4541 4.61476C11.7371 3.8384 12.1743 3.12734 12.7394 2.52438C12.8123 2.44923 12.8652 2.35696 12.8932 2.25604C12.9212 2.15511 12.9234 2.04877 12.8996 1.94679C12.8757 1.8448 12.8267 1.75044 12.7568 1.67237C12.687 1.5943 12.5987 1.53503 12.5 1.5C10.835 0.913126 8.67001 2.355 7.46126 4.8525C6.66239 6.46166 6.52313 8.31909 7.07314 10.0294C7.24421 10.5155 7.4878 10.973 7.79564 11.3863C8.03572 11.709 8.33036 11.9874 8.66626 12.2088C8.65376 12.3825 8.64626 12.565 8.64626 12.7663C8.65033 14.7063 9.38561 16.5734 10.7054 17.9953C12.0252 19.4171 13.8326 20.2892 15.7669 20.4375L15.9113 21.5719L15.9013 21.575C15.5405 21.7428 15.1344 21.7865 14.7463 21.6992C14.3581 21.6119 14.0098 21.3986 13.7556 21.0925C13.6441 20.9764 13.492 20.9078 13.3311 20.901C13.1702 20.8942 13.0129 20.9499 12.892 21.0563C12.7711 21.1626 12.6959 21.3116 12.6822 21.4721C12.6684 21.6325 12.7171 21.7921 12.8181 21.9175C13.1008 22.254 13.4539 22.5244 13.8525 22.7094C14.2511 22.8944 14.6855 22.9895 15.125 22.9881C15.4468 22.9873 15.7667 22.938 16.0738 22.8419L16.25 24.24C15.9236 24.4481 15.5384 24.5447 15.1524 24.5151C14.7664 24.4856 14.4004 24.3316 14.1094 24.0763C14.0459 24.0242 13.9729 23.9851 13.8943 23.9613C13.8158 23.9374 13.7333 23.9293 13.6516 23.9373C13.5699 23.9454 13.4906 23.9694 13.4182 24.0081C13.3458 24.0468 13.2818 24.0994 13.2297 24.1628C13.1776 24.2263 13.1385 24.2993 13.1147 24.3779C13.0909 24.4564 13.0828 24.5389 13.0908 24.6206C13.0988 24.7023 13.1229 24.7816 13.1616 24.854C13.2003 24.9264 13.2528 24.9904 13.3163 25.0425C13.8597 25.5068 14.5502 25.7633 15.265 25.7663C15.6595 25.7638 16.05 25.6873 16.4163 25.5406L16.4888 26.1094C16.1702 26.2769 15.8081 26.3433 15.4508 26.2999C15.0935 26.2564 14.7579 26.1052 14.4888 25.8663C14.4253 25.8142 14.3522 25.7751 14.2737 25.7513C14.1951 25.7274 14.1127 25.7193 14.031 25.7273C13.9493 25.7354 13.87 25.7594 13.7976 25.7981C13.7252 25.8368 13.6612 25.8894 13.6091 25.9528C13.557 26.0163 13.5179 26.0893 13.4941 26.1679C13.4703 26.2464 13.4621 26.3289 13.4702 26.4106C13.4782 26.4923 13.5023 26.5716 13.5409 26.644C13.5796 26.7164 13.6322 26.7804 13.6956 26.8325C14.2394 27.2967 14.9301 27.5531 15.645 27.5563C15.9873 27.5546 16.327 27.4978 16.6513 27.3881L16.7525 28.1806C16.7525 28.19 16.7525 28.1994 16.7525 28.2088L16.8219 28.7594C16.5066 28.914 16.1524 28.9714 15.8044 28.9242C15.4564 28.877 15.1303 28.7274 14.8675 28.4944C14.7394 28.3891 14.5747 28.3391 14.4096 28.3552C14.2446 28.3714 14.0928 28.4525 13.9875 28.5806C13.8823 28.7088 13.8322 28.8735 13.8484 29.0385C13.8646 29.2035 13.9456 29.3554 14.0738 29.4606C14.6184 29.9275 15.3114 30.1852 16.0288 30.1875C16.3747 30.1861 16.7182 30.1285 17.0456 30.0169C17.2294 30.538 17.57 30.9895 18.0206 31.3094C18.4713 31.6292 19.0099 31.8017 19.5625 31.8031C19.6837 31.7979 19.8045 31.7841 19.9238 31.7619C20.2623 32.013 20.5389 32.3381 20.7325 32.7125C20.926 33.0868 21.0314 33.5005 21.0406 33.9219C21.0375 34.2771 20.9593 34.6277 20.8113 34.9506C20.7372 34.826 20.6491 34.7103 20.5488 34.6056C20.1674 34.3274 19.7281 34.1391 19.2637 34.0547C18.7992 33.9702 18.3217 33.9919 17.8669 34.1181C17.7829 34.1489 17.7065 34.1974 17.6429 34.2603C17.5793 34.3232 17.5299 34.399 17.4981 34.4826C17.4662 34.5662 17.4527 34.6556 17.4585 34.7449C17.4642 34.8342 17.489 34.9212 17.5313 35C17.6015 35.1292 17.6558 35.2665 17.6931 35.4088C17.148 35.2306 16.6917 34.8504 16.4181 34.3463C16.3666 34.2519 16.2917 34.1724 16.2005 34.1155C16.1093 34.0585 16.005 34.0261 15.8976 34.0213C15.7902 34.0164 15.6834 34.0394 15.5875 34.0879C15.4916 34.1364 15.4098 34.2088 15.35 34.2981C14.7438 35.2038 15.1256 36.6413 16.2456 37.6475C16.8685 38.2007 17.6696 38.5112 18.5025 38.5225C18.6441 38.5222 18.7855 38.5122 18.9256 38.4925C19.2171 38.4521 19.5007 38.3678 19.7669 38.2425C19.82 38.2181 19.8731 38.1856 19.9263 38.1544C22.3263 37.8375 24.1213 36.0431 24.1213 33.9275C24.1002 33.1946 23.8863 32.4802 23.5012 31.8563C23.116 31.2324 22.5732 30.721 21.9275 30.3738C21.9506 30.33 21.9625 30.2913 21.9819 30.2488C22.3622 30.4082 22.7701 30.4919 23.1825 30.495C23.8973 30.4919 24.5878 30.2355 25.1313 29.7713C25.1947 29.7191 25.2473 29.655 25.2859 29.5826C25.3246 29.5102 25.3486 29.4308 25.3566 29.3491C25.3646 29.2674 25.3565 29.1849 25.3326 29.1063C25.3087 29.0278 25.2696 28.9547 25.2175 28.8913C25.1654 28.8278 25.1013 28.7752 25.0289 28.7366C24.9564 28.6979 24.8771 28.6739 24.7954 28.6659C24.7137 28.6579 24.6312 28.666 24.5526 28.6899C24.474 28.7138 24.401 28.7529 24.3375 28.805C24.0599 29.0499 23.7129 29.202 23.3447 29.2402C22.9766 29.2784 22.6057 29.2008 22.2838 29.0181L22.495 27.6769C22.8377 27.7999 23.199 27.8633 23.5631 27.8644C24.278 27.8614 24.9686 27.6047 25.5119 27.14C25.5777 27.0887 25.6325 27.0248 25.6732 26.952C25.7139 26.8791 25.7397 26.7989 25.7489 26.716C25.7581 26.6331 25.7506 26.5492 25.7268 26.4692C25.7031 26.3892 25.6636 26.3148 25.6106 26.2504C25.5577 26.1859 25.4924 26.1327 25.4185 26.0939C25.3447 26.055 25.2638 26.0314 25.1807 26.0243C25.0976 26.0172 25.0139 26.0269 24.9346 26.0526C24.8552 26.0784 24.7818 26.1198 24.7188 26.1744C24.4457 26.4155 24.105 26.5669 23.743 26.6079C23.381 26.649 23.0151 26.5777 22.695 26.4038L22.7825 25.8413C23.1519 25.9903 23.5461 26.0681 23.9444 26.0706C24.6594 26.0679 25.3502 25.8114 25.8938 25.3469C26.0219 25.2416 26.103 25.0898 26.1191 24.9247C26.1353 24.7597 26.0853 24.595 25.98 24.4669C25.8748 24.3387 25.7229 24.2577 25.5579 24.2415C25.3928 24.2253 25.2281 24.2754 25.1 24.3806C24.8129 24.6328 24.4525 24.7863 24.0717 24.8186C23.691 24.8509 23.3099 24.7603 22.9844 24.56L23.2038 23.1663C23.4907 23.2487 23.7877 23.2908 24.0863 23.2913C24.5258 23.2927 24.9604 23.1976 25.3591 23.0126C25.7578 22.8276 26.1111 22.5572 26.3938 22.2206C26.4522 22.1598 26.4977 22.0877 26.5276 22.0088C26.5574 21.9299 26.571 21.8458 26.5675 21.7615C26.5639 21.6772 26.5434 21.5945 26.507 21.5183C26.4706 21.4422 26.4192 21.3742 26.3559 21.3185C26.2926 21.2627 26.2186 21.2204 26.1385 21.194C26.0583 21.1676 25.9737 21.1578 25.8896 21.165C25.8055 21.1722 25.7238 21.1963 25.6493 21.236C25.5749 21.2756 25.5092 21.3299 25.4563 21.3956C25.2139 21.6903 24.8838 21.8998 24.514 21.9936C24.1442 22.0874 23.7541 22.0605 23.4006 21.9169L23.6369 20.4169C23.7694 20.4244 23.9056 20.4281 24.05 20.4281C26.0921 20.4256 28.05 19.6135 29.4942 18.1697C30.9384 16.7259 31.7512 14.7684 31.7544 12.7263C31.7544 12.525 31.7463 12.3431 31.7338 12.17C32.0643 11.951 32.3553 11.6775 32.5944 11.3613C32.9067 10.9449 33.1537 10.4833 33.3269 9.9925C33.8777 8.28114 33.738 6.42229 32.9375 4.8125ZM8.58751 5.395C9.06536 4.30158 9.89166 3.39705 10.9375 2.8225C10.0165 4.3375 9.66119 6.12946 9.93439 7.88125C9.96166 8.02669 10.0406 8.15738 10.1565 8.24925C10.2725 8.34113 10.4178 8.388 10.5656 8.38125C11.387 8.34119 12.1759 8.04775 12.8238 7.54125C13.066 8.47636 13.0363 9.46119 12.7381 10.38C12.5458 10.7234 12.2705 11.0131 11.9374 11.2227C11.6043 11.4323 11.224 11.5551 10.8313 11.58C10.6995 11.5884 10.5673 11.5846 10.4363 11.5688C10.3844 11.5631 10.3281 11.5538 10.2656 11.5406C10.2288 11.5325 10.1925 11.5244 10.1469 11.5125C10.1319 11.5125 10.115 11.5044 10.0988 11.5C10.0825 11.4956 10.0738 11.4944 10.0619 11.49C10.0416 11.4816 10.0207 11.4747 9.99939 11.4694C9.86941 11.4329 9.7437 11.3826 9.62439 11.3194L9.61501 11.3156C9.2948 11.1563 9.01649 10.9241 8.80251 10.6375C8.56957 10.3243 8.3854 9.9777 8.25626 9.60938C7.81512 8.2156 7.93439 6.70479 8.58876 5.3975L8.58751 5.395ZM9.89689 12.765V12.7381C10.0024 12.7645 10.1092 12.7853 10.2169 12.8006C10.2206 12.8298 10.2256 12.8592 10.2319 12.8888C10.8813 16.0313 12.5013 17.72 15.46 18.3113L15.5894 19.1688C14.023 18.9802 12.5796 18.2252 11.5313 17.0461C10.4829 15.867 9.90208 14.3452 9.89814 12.7675L9.89689 12.765ZM18.1719 29.4375L18 28.0781C17.9994 28.0666 17.9981 28.0551 17.9963 28.0438L16.9413 19.7669C16.9413 19.7613 16.9413 19.755 16.9413 19.7494L16.9194 19.605L16.4944 16.2731C16.4724 16.0761 16.4927 15.8766 16.5539 15.688C16.6152 15.4994 16.7159 15.326 16.8494 15.1794C16.9823 15.0316 17.1446 14.9134 17.326 14.8324C17.5074 14.7513 17.7038 14.7092 17.9025 14.7088H21.6075C21.8097 14.7074 22.0098 14.7498 22.1941 14.8331C22.3784 14.9164 22.5424 15.0386 22.675 15.1913C22.8077 15.3422 22.9069 15.5196 22.966 15.7117C23.0251 15.9037 23.0429 16.1062 23.0181 16.3056L20.9706 29.3125C20.9575 29.413 20.9319 29.5115 20.8944 29.6056C20.8528 29.7379 20.7895 29.8623 20.7069 29.9738C20.5679 30.1595 20.3867 30.3095 20.1781 30.4113C19.9868 30.5058 19.7759 30.554 19.5625 30.5519C19.2386 30.5519 18.9243 30.4415 18.6715 30.2389C18.4187 30.0363 18.2425 29.7537 18.1719 29.4375ZM18.75 37.25C18.4486 37.2821 18.1439 37.2507 17.8553 37.1578C17.5668 37.0649 17.301 36.9126 17.075 36.7106C16.9541 36.6024 16.843 36.4836 16.7431 36.3556C17.222 36.6111 17.7516 36.7569 18.2938 36.7825C18.4327 36.7872 18.5691 36.7439 18.6797 36.6597C18.7904 36.5756 18.8687 36.4558 18.9013 36.3206C18.9934 35.9776 19.0065 35.6182 18.9394 35.2694C19.1982 35.2835 19.4493 35.3626 19.6694 35.4994C19.7639 35.6059 19.8313 35.7337 19.8658 35.8719C19.9003 36.0102 19.9009 36.1547 19.8675 36.2931C19.8501 36.3596 19.8292 36.4251 19.805 36.4894C19.7604 36.5962 19.7016 36.6965 19.63 36.7875C19.6069 36.8169 19.5775 36.8381 19.5525 36.8644C19.502 36.9213 19.4461 36.9732 19.3856 37.0194L19.3769 37.0244C19.3322 37.0546 19.2857 37.082 19.2375 37.1063C19.0832 37.1785 18.9188 37.227 18.75 37.25ZM22.8706 33.925C22.854 34.41 22.7151 34.8829 22.4668 35.2998C22.2186 35.7168 21.8691 36.0642 21.4506 36.31C21.9937 35.6329 22.2892 34.7906 22.288 33.9226C22.2869 33.0547 21.9893 32.2131 21.4444 31.5375C21.8634 31.7831 22.2137 32.1303 22.4631 32.547C22.7125 32.9637 22.8529 33.4366 22.8713 33.9219L22.8706 33.925ZM30.5044 12.7263C30.5024 14.4376 29.8217 16.0783 28.6116 17.2884C27.4015 18.4986 25.7607 19.1793 24.0494 19.1813H24.0113L24.155 18.4113C27.3588 18.1325 29.3275 16.3169 30.1656 12.8744C30.1744 12.8369 30.1813 12.7994 30.1869 12.7631C30.2631 12.7519 30.3413 12.7375 30.4238 12.7219L30.4488 12.7181C30.4603 12.7173 30.4718 12.7159 30.4831 12.7138L30.5044 12.71V12.7263ZM32.15 9.57063C32.02 9.94217 31.8339 10.2916 31.5981 10.6069C31.3823 10.8909 31.1044 11.1217 30.7856 11.2819C30.6834 11.3361 30.5765 11.3811 30.4663 11.4163C30.4345 11.4258 30.4036 11.438 30.3738 11.4525H30.3675L30.2975 11.4681L30.2563 11.4769C30.2267 11.4816 30.1975 11.4883 30.1688 11.4969C30.0975 11.51 30.0269 11.5225 29.9594 11.5313C29.8298 11.5473 29.699 11.5506 29.5688 11.5413C29.1772 11.5159 28.7982 11.3929 28.4663 11.1835C28.1344 10.9742 27.8602 10.685 27.6688 10.3425C27.3649 9.42395 27.3341 8.43697 27.58 7.50125C28.2283 8.00894 29.0182 8.30308 29.8406 8.34313C29.9891 8.35264 30.1359 8.3068 30.2526 8.21446C30.3693 8.12213 30.4476 7.98984 30.4725 7.84313C30.7457 6.09126 30.3901 4.29923 29.4688 2.78438C30.5128 3.35991 31.3369 4.26491 31.8125 5.35813C32.4683 6.66505 32.5893 8.17597 32.15 9.57063Z" fill="#394750"/>
</svg>
