<svg width="40" height="40" viewBox="0 0 40 40" fill="none" xmlns="http://www.w3.org/2000/svg">
<path d="M30.7375 10.775C33.0014 13.1844 34.3029 16.3407 34.395 19.6456C34.4872 22.9505 33.3637 26.1744 31.2374 28.7062C31.1562 28.7875 31.075 28.8625 30.9937 28.9375C30.675 29.2375 30.3437 29.5125 30.0062 29.775L30.2125 29.5312C32.3144 26.996 33.418 23.7802 33.3155 20.4885C33.2131 17.1968 31.9118 14.0559 29.6562 11.6562C29.575 11.5687 29.4875 11.475 29.4 11.3875C29.3 11.2937 29.2062 11.2 29.1062 11.1062C26.8533 8.89533 23.8965 7.54441 20.7503 7.28861C17.6042 7.03281 14.4679 7.88832 11.8875 9.70624C14.4379 7.46237 17.7439 6.2683 21.1395 6.36456C24.5352 6.46082 27.7682 7.84024 30.1875 10.225C30.375 10.4 30.5625 10.5875 30.7375 10.775Z" fill="#FFF9ED"/>
<path d="M31.2375 28.7063C33.3637 26.1744 34.4872 22.9505 34.3951 19.6456C34.3029 16.3407 33.0015 13.1844 30.7375 10.775C30.5625 10.5875 30.375 10.4 30.1875 10.225C27.7683 7.84025 24.5352 6.46083 21.1396 6.36457C17.7439 6.26832 14.4379 7.46238 11.8875 9.70626C11.875 9.71251 11.8625 9.72501 11.85 9.73126L11.625 9.90001C11.9111 9.57842 12.2136 9.27177 12.5312 8.98126C15.0729 6.66741 18.4045 5.41545 21.8409 5.48287C25.2774 5.5503 28.5574 6.93199 31.0063 9.34376C31.1938 9.51876 31.3813 9.70626 31.5563 9.90001C33.9571 12.4482 35.2722 15.8306 35.2232 19.3313C35.1742 22.832 33.765 26.1763 31.2937 28.6563C31.2766 28.6746 31.2578 28.6914 31.2375 28.7063Z" fill="#8C64B4"/>
<path d="M6.71245 34.6812L6.8187 34.8L4.2812 37.1437L4.3812 34.7L1.82495 34.4875L4.36245 32.1437L6.17495 32.825L6.71245 34.6812Z" fill="#8C64B4"/>
<path d="M6.71255 34.6813L6.17505 32.825L4.36255 32.1438L5.6313 30.9688L8.65005 30.4125L8.08755 33.625L6.8188 34.8L6.71255 34.6813Z" fill="#F6B884"/>
<path d="M38.1687 2.85626L37.325 5.58751L36.475 8.31876L35.4687 5.66251L35.3812 5.43751L32.5938 4.11876L35.3812 3.48751L38.1687 2.85626Z" fill="#F6B884"/>
<path d="M38.6312 2.43062C38.5569 2.34957 38.4626 2.28956 38.3577 2.25664C38.2528 2.22372 38.141 2.21906 38.0337 2.24312L32.4531 3.51125C32.3264 3.54042 32.2119 3.60841 32.1256 3.70574C32.0394 3.80306 31.9856 3.92487 31.9719 4.0542C31.9581 4.18352 31.985 4.31391 32.0489 4.42721C32.1127 4.5405 32.2104 4.63106 32.3281 4.68625L34.8062 5.85312L31.4794 8.93062L31.4437 8.89562C28.8811 6.3705 25.4477 4.92414 21.8507 4.85438C18.2536 4.78462 14.7668 6.09677 12.1081 8.52062C11.8475 8.76125 11.6081 9.01562 11.3687 9.27062C11.2907 9.29881 11.2193 9.34262 11.1587 9.39937C10.8945 9.64951 10.5419 9.7847 10.1781 9.77533C9.81435 9.76596 9.46915 9.61279 9.21812 9.34937C9.09727 9.21904 9.00389 9.06571 8.94354 8.89853C8.8832 8.73134 8.85712 8.55372 8.86687 8.37625C8.88471 8.00753 9.04732 7.66075 9.31937 7.41125C9.38245 7.35632 9.43386 7.28929 9.47056 7.21414C9.50726 7.13898 9.5285 7.05722 9.53302 6.97371C9.53755 6.89019 9.52526 6.80662 9.4969 6.72794C9.46853 6.64925 9.42466 6.57707 9.36789 6.51565C9.31112 6.45423 9.24259 6.40483 9.16638 6.37038C9.09017 6.33593 9.00781 6.31713 8.9242 6.31508C8.84059 6.31304 8.75741 6.3278 8.67961 6.35849C8.6018 6.38918 8.53095 6.43517 8.47125 6.49375C7.9578 6.96475 7.65136 7.61963 7.61875 8.31562C7.60045 8.66565 7.65381 9.01572 7.77555 9.34441C7.89729 9.67309 8.08485 9.97345 8.32675 10.2271C8.56864 10.4808 8.85977 10.6824 9.18231 10.8196C9.50484 10.9568 9.852 11.0267 10.2025 11.025C10.5316 11.0246 10.8578 10.9629 11.1644 10.8431L8.10375 29.8787L5.52062 30.3544C5.40379 30.3755 5.29539 30.4295 5.20812 30.51L1.40312 34.0312C1.31414 34.1138 1.25111 34.2204 1.22173 34.3381C1.19234 34.4559 1.19787 34.5796 1.23763 34.6943C1.27739 34.8089 1.34968 34.9095 1.44566 34.9838C1.54163 35.0581 1.65716 35.1028 1.77812 35.1125L3.73375 35.2756L3.66125 37.1206C3.65647 37.2441 3.68841 37.3662 3.75303 37.4716C3.81764 37.5769 3.91204 37.6607 4.02428 37.7124C4.13651 37.7641 4.26156 37.7814 4.38361 37.7621C4.50567 37.7427 4.61925 37.6876 4.71 37.6037L8.51625 34.0825C8.61686 33.9898 8.68427 33.8666 8.70812 33.7319L9.18312 31.0162L29.0375 30.1512C28.8784 30.4735 28.7869 30.8248 28.7687 31.1837C28.7505 31.5338 28.804 31.8839 28.9258 32.2126C29.0476 32.5413 29.2352 32.8416 29.4772 33.0953C29.7191 33.3489 30.0103 33.5505 30.3328 33.6877C30.6554 33.8249 31.0026 33.8948 31.3531 33.8931C32.0221 33.8941 32.6667 33.642 33.1575 33.1875C33.2191 33.1321 33.2691 33.0651 33.3045 32.9902C33.34 32.9153 33.3602 32.8342 33.364 32.7515C33.3678 32.6687 33.3551 32.586 33.3267 32.5083C33.2983 32.4305 33.2547 32.3591 33.1985 32.2983C33.1422 32.2375 33.0744 32.1885 32.9991 32.1541C32.9237 32.1197 32.8423 32.1006 32.7595 32.098C32.6767 32.0954 32.5943 32.1092 32.5169 32.1388C32.4395 32.1683 32.3687 32.2129 32.3087 32.27C32.0447 32.5193 31.6928 32.654 31.3298 32.6447C30.9668 32.6355 30.6222 32.483 30.3712 32.2206C30.2504 32.0903 30.1569 31.937 30.0965 31.7698C30.036 31.6026 30.0098 31.425 30.0194 31.2475C30.0374 30.8787 30.2003 30.5319 30.4725 30.2825C30.5281 30.2288 30.5732 30.1652 30.6056 30.095C30.8812 29.875 31.1556 29.6444 31.4181 29.3987C32.772 28.1493 33.8612 26.6406 34.621 24.9622C35.3808 23.2838 35.7958 21.4699 35.8412 19.6281C35.9547 15.8714 34.5802 12.2218 32.0169 9.47312C31.985 9.43937 31.9544 9.40625 31.9194 9.37187L35.0931 6.43437L35.8925 8.54062C35.9374 8.65918 36.0172 8.76129 36.1215 8.8334C36.2258 8.90551 36.3495 8.94421 36.4762 8.94437H36.5C36.6297 8.94034 36.7549 8.89605 36.8582 8.81766C36.9616 8.73926 37.038 8.63065 37.0769 8.50687L38.7687 3.04062C38.8014 2.93582 38.8059 2.82427 38.7818 2.71719C38.7576 2.61011 38.7057 2.51127 38.6312 2.43062ZM12.5625 10.015C15.0242 8.40092 17.9627 7.67459 20.8929 7.95594C23.8231 8.23729 26.5698 9.50949 28.6794 11.5625C28.6925 11.5744 28.705 11.5887 28.7181 11.6012L9.4625 29.3012L12.5625 10.015ZM4.43062 34.0794L3.29375 33.9844L4.76187 32.625L5.91625 33.0625L6.3125 34.4187L4.96875 35.6612L5.005 34.7269C5.01132 34.5657 4.95508 34.4083 4.84803 34.2876C4.74098 34.1669 4.59142 34.0923 4.43062 34.0794ZM7.51062 33.3081L6.82312 33.9437L6.47187 32.7369C6.45833 32.6907 6.43439 32.6482 6.40189 32.6126C6.36939 32.5771 6.32919 32.5495 6.28437 32.5319L5.275 32.1519L5.92437 31.5506L7.88062 31.1906L7.51062 33.3081ZM29.9406 28.8606L9.91625 29.7356L29.16 12.0481C29.1725 12.0606 29.1862 12.0731 29.1981 12.0856C31.3183 14.3252 32.5604 17.2538 32.6967 20.3347C32.8331 23.4156 31.8546 26.4425 29.9406 28.8606ZM34.5925 19.5912C34.5488 21.1656 34.2134 22.7181 33.6031 24.17C34.1275 21.8929 34.0837 19.5218 33.4755 17.2656C32.8673 15.0094 31.7135 12.9375 30.1156 11.2325C29.9281 11.0319 29.7294 10.8312 29.5394 10.6556C27.9364 9.10788 25.9944 7.95556 23.8677 7.29034C21.7411 6.62512 19.4886 6.46535 17.2894 6.82375C19.5634 6.03451 22.0126 5.89535 24.3614 6.42191C26.7102 6.94847 28.8655 8.11986 30.585 9.80437C30.7625 9.96812 30.9387 10.1456 31.1025 10.3225C33.4419 12.8314 34.6962 16.1625 34.5925 19.5912ZM36.4181 6.40375L35.9669 5.21625C35.9094 5.06476 35.7953 4.94151 35.6487 4.8725L34.5 4.32875L37.2544 3.70375L36.4181 6.40375Z" fill="#394750"/>
</svg>
