<svg width="16" height="12" viewBox="0 0 16 12" fill="none" xmlns="http://www.w3.org/2000/svg">
<path d="M5.55023 11.2754C5.43356 11.2754 5.32123 11.2544 5.21323 11.2124C5.10456 11.1711 5.00856 11.1087 4.92523 11.0254L0.750229 6.85039C0.600229 6.70039 0.529229 6.52106 0.537229 6.31239C0.545895 6.10439 0.616895 5.92539 0.750229 5.77539C0.900229 5.62539 1.07956 5.55039 1.28823 5.55039C1.49623 5.55039 1.6669 5.62539 1.80023 5.77539L5.55023 9.52539L14.2002 0.875391C14.3336 0.725391 14.5086 0.650391 14.7252 0.650391C14.9419 0.650391 15.1169 0.725391 15.2502 0.875391C15.4002 1.02539 15.4752 1.20439 15.4752 1.41239C15.4752 1.62106 15.4002 1.80039 15.2502 1.95039L6.17523 11.0254C6.0919 11.1087 5.99623 11.1711 5.88823 11.2124C5.77956 11.2544 5.6669 11.2754 5.55023 11.2754Z" fill="#FDFDFD"/>
</svg>
