<svg width="116" height="34" viewBox="0 0 116 34" fill="none" xmlns="http://www.w3.org/2000/svg">
<path d="M15.2873 1.33655C15.5469 0.887815 16.1947 0.887816 16.4543 1.33655L20.0568 7.56295C20.3168 8.0124 19.9925 8.57475 19.4732 8.57475H12.2684C11.7491 8.57475 11.4248 8.0124 11.6848 7.56295L15.2873 1.33655Z" fill="#FC7601"/>
<path d="M5.48551 18.2778C5.74514 17.8291 6.39297 17.8291 6.6526 18.2778L10.0465 24.1438C10.3065 24.5932 9.98218 25.1556 9.46292 25.1556H2.67518C2.15593 25.1556 1.8316 24.5932 2.09164 24.1438L5.48551 18.2778Z" fill="#FC7601"/>
<path d="M26.2561 18.2778C25.9965 17.8291 25.3486 17.8291 25.089 18.2778L21.6951 24.1438C21.4351 24.5932 21.7594 25.1556 22.2787 25.1556H29.0664C29.5857 25.1556 29.91 24.5932 29.65 24.1438L26.2561 18.2778Z" fill="#FC7601"/>
<path d="M2.09164 9.85621C1.8316 9.40676 2.15593 8.84441 2.67518 8.84441H9.46292C9.98218 8.84441 10.3065 9.40676 10.0465 9.85621L6.6526 15.7222C6.39297 16.1709 5.74514 16.1709 5.48551 15.7222L2.09164 9.85621Z" fill="#CCBADE"/>
<path d="M21.6951 9.85621C21.4351 9.40676 21.7594 8.84441 22.2787 8.84441H29.0664C29.5857 8.84441 29.91 9.40676 29.65 9.85621L26.2561 15.7222C25.9965 16.1709 25.3486 16.1709 25.089 15.7222L21.6951 9.85621Z" fill="#CCBADE"/>
<path d="M12.2684 25.4253C11.7491 25.4253 11.4248 25.9876 11.6848 26.4371L15.2873 32.6635C15.5469 33.1122 16.1947 33.1122 16.4543 32.6634L20.0568 26.4371C20.3168 25.9876 19.9925 25.4253 19.4732 25.4253H12.2684Z" fill="#CCBADE"/>
<path d="M6.92718 16.0547L10.4756 9.92166C10.813 9.33845 11.4357 8.97931 12.1095 8.97931L19.6313 8.97931C20.3051 8.97931 20.9278 9.33845 21.2653 9.92166L24.8137 16.0547C25.152 16.6395 25.152 17.3606 24.8137 17.9454L21.2653 24.0785C20.9278 24.6617 20.3051 25.0208 19.6313 25.0208H12.1095C11.4357 25.0208 10.813 24.6617 10.4756 24.0785L6.92718 17.9454C6.58883 17.3606 6.58883 16.6395 6.92718 16.0547Z" fill="#F6B884"/>
<path d="M16.2603 19.6621C16.1784 19.6135 16.1283 19.5254 16.1283 19.4302V15.7756C16.1283 15.4979 16.4972 15.4015 16.6331 15.6436L19.7104 21.1255C19.8455 21.3662 19.5748 21.6303 19.3376 21.4894L16.2603 19.6621Z" fill="#FC7601"/>
<path d="M15.6487 19.4302C15.6487 19.5254 15.5985 19.6135 15.5167 19.6621L12.4394 21.4894C12.2022 21.6303 11.9315 21.3662 12.0666 21.1255L15.1438 15.6436C15.2797 15.4015 15.6487 15.498 15.6487 15.7756V19.4302Z" fill="#FC7601"/>
<path d="M19.1215 21.9283C19.3573 22.0683 19.258 22.4299 18.9839 22.4299L12.7931 22.4299C12.5189 22.4299 12.4197 22.0683 12.6554 21.9283L15.7508 20.0903C15.8357 20.0399 15.9413 20.0399 16.0262 20.0903L19.1215 21.9283Z" fill="#FC7601"/>
<circle cx="15.888" cy="12.8566" r="1.75286" fill="#FC7601"/>
<path d="M48.4658 24.4054C48.29 24.859 48.0116 25.2174 47.6307 25.4807C47.2645 25.7441 46.8249 25.8758 46.3122 25.8758C45.814 25.8758 45.0595 25.5685 44.0487 24.9541C43.2552 24.4647 42.5873 24.1145 42.0447 23.9035C41.8727 23.8366 41.7866 23.8032 41.694 23.8265C41.6014 23.8498 41.5325 23.9306 41.3947 24.0922C41.0659 24.4779 40.7053 24.8091 40.3128 25.0857C39.8146 25.4369 39.4704 25.6124 39.2799 25.6124C39.1334 25.6124 38.8404 25.2979 38.4009 24.6688C37.9614 24.0251 37.7416 23.5642 37.7416 23.2862C37.7416 23.1253 37.9687 22.8839 38.4228 22.5621C38.7997 22.3034 39.1907 22.1108 39.5959 21.9844C39.7536 21.9352 39.8325 21.9107 39.8827 21.8633C39.9329 21.816 39.9581 21.7492 40.0084 21.6156C40.3398 20.7366 40.683 19.516 41.038 17.9536C41.4335 16.198 41.7412 14.3912 41.961 12.5332C41.961 12.2991 41.8804 12.0211 41.7192 11.6993C41.5727 11.3628 41.4189 11.0921 41.2577 10.8873L41.119 10.6934C41.1133 10.6855 41.1105 10.6815 41.1079 10.6776C41.0656 10.6144 41.0491 10.5374 41.0617 10.4625C41.0624 10.4579 41.0634 10.4531 41.0653 10.4435C41.0675 10.4327 41.0686 10.4273 41.0701 10.421C41.0947 10.321 41.1783 10.2341 41.2774 10.2055C41.2837 10.2037 41.2871 10.2028 41.294 10.2012C42.1297 9.99896 43.3956 9.89159 45.0918 9.87907C45.2623 9.87781 45.3476 9.87718 45.4267 9.93397C45.5059 9.99075 45.5276 10.0567 45.571 10.1887C45.6696 10.4881 45.7188 10.8746 45.7188 11.3481C45.7188 12.0065 45.5284 12.9867 45.1474 14.2888C44.7665 15.5909 44.2391 17.1563 43.5652 18.985C43.1142 20.226 42.7935 21.1212 42.603 21.6708C42.5257 21.8938 42.487 22.0053 42.5203 22.1024C42.5299 22.1308 42.544 22.1577 42.5616 22.1819C42.6222 22.2648 42.7387 22.298 42.9718 22.3646C43.2298 22.4381 43.4104 22.4912 43.5139 22.5236C43.5396 22.5317 43.5524 22.5357 43.5614 22.5379C43.5704 22.5401 43.5864 22.543 43.6183 22.5489C43.728 22.5688 43.9007 22.6098 44.1366 22.6718C44.4149 22.7303 44.6347 22.7742 44.7958 22.8035C44.957 22.8181 45.1694 22.84 45.4331 22.8693C45.8873 22.9424 46.3122 22.979 46.7077 22.979C47.0854 22.979 47.3637 22.8922 47.5427 22.7186C47.5579 22.7039 47.5655 22.6965 47.5793 22.6782C47.5931 22.66 47.6012 22.645 47.6173 22.6151L48.0269 21.8556C48.0897 21.7391 48.1211 21.6808 48.1677 21.6431C48.2084 21.6102 48.2571 21.5885 48.3089 21.5802C48.3681 21.5708 48.4325 21.5864 48.5613 21.6176C48.6922 21.6493 48.7576 21.6651 48.8075 21.7032C48.8498 21.7354 48.8855 21.7828 48.9047 21.8323C48.9275 21.8907 48.9247 21.9546 48.9192 22.0822C48.8837 22.8951 48.7326 23.6695 48.4658 24.4054Z" fill="#FC7601"/>
<path d="M61.0421 20.1794C61.2383 20.1794 61.3364 20.1794 61.4155 20.2375C61.4584 20.2691 61.5024 20.3284 61.5202 20.3786C61.5528 20.471 61.528 20.5526 61.4783 20.7157C61.4462 20.8211 61.4077 20.9329 61.3627 21.0511C61.2916 21.238 61.256 21.3315 61.1719 21.3847C61.0878 21.4379 60.9797 21.4294 60.7635 21.4125C60.3544 21.3805 59.9493 21.3645 59.5482 21.3645C59.4985 21.3645 59.4571 21.403 59.4528 21.4524C59.148 25.0214 58.8648 27.6621 58.6033 29.3744C58.3746 30.8714 58.0854 31.9778 57.7355 32.6937C57.668 32.8319 57.6342 32.9009 57.5634 32.9461C57.4926 32.9913 57.4037 32.9931 57.2259 32.9967C56.8052 33.0052 56.3714 33.0153 55.9222 32.7759C55.5246 32.5639 55.249 32.1086 55.0484 31.778C54.9034 31.5389 54.8308 31.4193 54.8239 31.3527C54.817 31.286 54.854 31.1814 54.9278 30.9722C55.23 30.1158 55.5321 29.3825 55.8343 27.5091C56.1563 25.5929 56.3763 23.8068 56.4945 22.1507C56.517 21.8359 56.5282 21.6786 56.4269 21.5816C56.3256 21.4847 56.1709 21.5023 55.8617 21.5377C55.8154 21.5429 55.7687 21.5485 55.7215 21.5542C55.4497 21.5873 55.3138 21.6038 55.2133 21.5158C55.1127 21.4278 55.1116 21.3126 55.1092 21.0822C55.1092 21.0739 55.1091 21.0656 55.1091 21.0572C55.1091 20.9555 55.1163 20.8322 55.1308 20.6873C55.1543 20.4517 55.166 20.3339 55.2514 20.2566C55.3368 20.1794 55.4612 20.1794 55.7099 20.1794H56.0192C56.2949 20.1794 56.4327 20.1794 56.5191 20.098C56.6055 20.0166 56.6135 19.8772 56.6297 19.5985C56.7349 17.7813 57.1091 13.6863 57.1998 13.1038C57.3756 11.9333 57.7785 11.019 58.4085 10.3606C59.0531 9.68764 59.8809 9.35115 60.8917 9.35115C61.5364 9.35115 62.0418 9.49745 62.4081 9.79005C62.789 10.068 62.9085 10.4925 62.9795 11.1287C63.0481 11.7443 62.451 13.4608 62.4123 13.5713C62.4112 13.5744 62.4107 13.5759 62.4103 13.5772C62.4099 13.5784 62.4098 13.5786 62.4097 13.5789C62.3787 13.6725 61.2708 17.0141 60.3441 18.9295C60.0481 19.5413 59.9001 19.8472 59.9253 19.9511C59.9442 20.0292 59.9639 20.0607 60.0262 20.1117C60.1089 20.1794 60.4199 20.1794 61.0421 20.1794ZM59.3309 14.988C59.3371 15.465 59.3402 15.7035 59.5587 15.762C59.7772 15.8206 59.8917 15.6286 60.1208 15.2447C60.6736 14.3181 61.2572 13.1633 61.3248 13.0289C61.3278 13.0228 61.3294 13.0198 61.3313 13.0156C61.3332 13.0115 61.3347 13.0081 61.3375 13.0015C61.3939 12.8698 61.8147 11.8727 61.8147 11.4359C61.8147 10.9531 61.4227 10.6915 61.1151 10.6915C59.482 10.6915 59.389 12.3865 59.3285 13.8754C59.3189 14.1105 59.3249 14.537 59.3309 14.988Z" fill="#FC7601"/>
<path d="M61.9239 21.6623C61.9239 19.8336 62.4733 18.3925 63.5721 17.3391C64.6856 16.2712 65.9455 15.7372 67.352 15.7372C68.2163 15.7372 68.9269 15.9493 69.4836 16.3736C70.0403 16.7978 70.3187 17.3684 70.3187 18.0853C70.3187 18.7875 70.1356 19.38 69.7693 19.8628C69.4177 20.3456 68.9855 20.7187 68.4727 20.982C67.4325 21.4941 66.4802 21.8159 65.6159 21.9476C65.3802 21.977 65.2624 21.9917 65.1879 22.074C65.1747 22.0887 65.1603 22.1084 65.1505 22.1255C65.0952 22.2217 65.1156 22.3278 65.1566 22.54C65.3542 23.5642 65.8955 24.0763 66.7806 24.0763C67.1322 24.0763 67.5058 23.9885 67.9014 23.8129C68.2969 23.6374 68.6046 23.4618 68.8243 23.2862C68.9067 23.2204 68.9479 23.1875 68.9892 23.1711C69.0848 23.133 69.1934 23.1468 69.2764 23.2075C69.3123 23.2337 69.344 23.2759 69.4073 23.3601L69.4614 23.4322C69.5408 23.538 69.5806 23.5909 69.5922 23.6642C69.5989 23.7067 69.5929 23.7704 69.5785 23.8109C69.5535 23.8808 69.5129 23.918 69.4315 23.9923C69.3121 24.1016 69.161 24.2246 68.9782 24.3616C68.6266 24.6249 68.2969 24.8443 67.9893 25.0199C67.1395 25.4881 66.2092 25.7221 65.1983 25.7221C64.1874 25.7221 63.389 25.3637 62.803 24.6468C62.2169 23.93 61.9239 22.9351 61.9239 21.6623ZM65.1017 20.2277C65.07 20.5533 65.0542 20.716 65.1875 20.8168C65.3208 20.9175 65.4646 20.8615 65.7524 20.7494C66.1865 20.5803 66.5512 20.3287 66.8465 19.9945C67.286 19.4971 67.5058 18.8533 67.5058 18.0633C67.5058 17.2733 67.2714 16.8783 66.8026 16.8783C66.2458 16.8783 65.8136 17.3538 65.506 18.3047C65.296 18.9758 65.1612 19.6168 65.1017 20.2277Z" fill="#FC7601"/>
<path fill-rule="evenodd" clip-rule="evenodd" d="M53.5417 20.2798C53.9373 18.7729 54.135 17.7122 54.135 17.0977C54.135 16.657 54.086 16.3178 53.988 16.0803C53.9515 15.9917 53.9332 15.9474 53.8571 15.8969C53.781 15.8464 53.7127 15.8469 53.5761 15.8478C52.0985 15.858 50.9896 15.9518 50.2493 16.1293C50.1406 16.1553 50.0638 16.25 50.0552 16.3613C50.0503 16.4258 50.069 16.4899 50.1078 16.5416L50.2453 16.7247C50.6262 17.266 50.8167 17.8439 50.8167 18.4583C50.8167 18.868 50.6336 19.7604 50.2673 21.1356C49.901 22.4962 49.7179 23.4472 49.7179 23.9885C49.7179 24.5152 49.8644 24.9394 50.1574 25.2613C50.4504 25.5685 50.8533 25.7221 51.3661 25.7221C51.8789 25.7221 52.4356 25.5758 53.0363 25.2832C53.6369 24.976 54.0471 24.7346 54.2669 24.5591C54.3573 24.4869 54.4402 24.4196 54.5158 24.3573C54.6144 24.2759 54.6638 24.2352 54.6919 24.1796C54.7144 24.1354 54.726 24.0821 54.724 24.0325C54.7214 23.9703 54.6924 23.9106 54.6344 23.7913L54.5495 23.6169C54.4786 23.4711 54.3022 23.4113 54.157 23.4838C53.571 23.7617 53.234 23.9007 53.1461 23.9007C53.0143 23.9007 52.9483 23.6739 52.9483 23.2204C52.9483 22.7522 53.1461 21.772 53.5417 20.2798Z" fill="#FC7601"/>
<path d="M51.6298 13.4549C51.3368 13.1623 51.1903 12.7746 51.1903 12.2918C51.1903 11.809 51.3881 11.3847 51.7836 11.019C52.1938 10.6532 52.6627 10.4703 53.1901 10.4703C53.7175 10.4703 54.1277 10.6166 54.4207 10.9092C54.7137 11.2018 54.8602 11.5895 54.8602 12.0723C54.8602 12.5405 54.6478 12.9575 54.2229 13.3232C53.8127 13.689 53.3512 13.8718 52.8385 13.8718C52.3257 13.8718 51.9228 13.7328 51.6298 13.4549Z" fill="#FC7601"/>
<path d="M75.7597 29.4967C75.0272 29.4967 74.4192 29.3138 73.9357 28.948C73.4523 28.5969 73.2105 28.1068 73.2105 27.4777C73.2105 25.8496 74.8226 24.7626 78.0468 24.2168C78.1812 24.1941 78.2483 24.1827 78.3005 24.1486C78.3285 24.1303 78.3536 24.1071 78.374 24.0806C78.4119 24.0312 78.4284 23.9649 78.4614 23.8324C78.5491 23.4797 78.5929 23.3033 78.5365 23.2009C78.5045 23.1427 78.4662 23.1063 78.4066 23.0769C78.3016 23.0254 78.0925 23.0874 77.6742 23.2116C77.3094 23.3199 76.935 23.374 76.5508 23.374C75.1883 23.374 74.0896 22.8839 73.2545 21.9037C72.4194 20.9088 72.0018 19.6214 72.0018 18.0414C72.0018 16.4613 72.3095 14.9983 72.9248 13.6523C73.5402 12.3064 74.4192 11.1945 75.5619 10.3167C76.7193 9.4389 77.9426 9 79.2319 9C80.5358 9 81.598 9.32186 82.4184 9.96558C83.2535 10.5947 83.671 11.3993 83.671 12.3795C83.671 12.8284 83.6107 13.2126 83.49 13.5324C83.4442 13.6539 83.4213 13.7146 83.347 13.7674C83.2727 13.8202 83.2024 13.822 83.062 13.8257C83.0057 13.8272 82.945 13.8279 82.8799 13.8279C81.9288 13.8279 81.1756 13.6979 80.6202 13.4379C80.49 13.377 80.4249 13.3465 80.3781 13.2724C80.3314 13.1982 80.3322 13.1152 80.3337 12.9493L80.3501 11.1834C80.3514 11.043 80.3521 10.9728 80.3146 10.9045C80.2771 10.8362 80.2289 10.8061 80.1325 10.7458C79.8153 10.5475 79.4272 10.4484 78.9682 10.4484C78.0745 10.4484 77.2834 11.136 76.5948 12.5112C75.9062 13.8718 75.5619 15.5323 75.5619 17.4927C75.5619 18.7948 75.7744 19.7531 76.1992 20.3675C76.6241 20.982 77.1295 21.2892 77.7156 21.2892C78.5946 21.2892 79.3857 20.8503 80.089 19.9725C80.688 19.2248 81.1435 18.355 81.4555 17.3632C81.5362 17.1065 81.5766 16.9781 81.6718 16.9197C81.7671 16.8613 81.8941 16.8824 82.1481 16.9247L82.2215 16.9369C82.4917 16.9819 82.6268 17.0044 82.6988 17.1025C82.7707 17.2006 82.7515 17.3353 82.713 17.6048C82.1568 21.5023 81.3407 24.4348 80.2648 26.4024C79.1367 28.4652 77.635 29.4967 75.7597 29.4967ZM74.6389 27.4119C74.6389 27.8215 74.9832 28.0263 75.6718 28.0263C76.0234 28.0263 76.441 27.8069 76.9244 27.368C77.1925 27.1328 77.4244 26.8571 77.6204 26.541C77.832 26.1998 77.9377 26.0292 77.8255 25.8682C77.7133 25.7073 77.5082 25.7488 77.0981 25.8319C76.6014 25.9324 76.1333 26.0787 75.6938 26.2707C74.9906 26.5926 74.6389 26.973 74.6389 27.4119Z" fill="#FC7601"/>
<path d="M84.1849 22.9351C84.1849 22.306 84.3753 21.238 84.7562 19.7311C85.1371 18.2096 85.3276 17.2806 85.3276 16.9441C85.3276 16.6091 85.0875 16.1741 84.6073 15.6393C84.5626 15.5895 84.5394 15.5237 84.5445 15.457C84.5528 15.35 84.6308 15.2611 84.7364 15.2414C85.6207 15.0763 86.7356 14.9863 88.0814 14.9713C88.2774 14.9691 88.3753 14.968 88.4617 15.0447C88.5481 15.1214 88.5569 15.2042 88.5745 15.3696C88.5928 15.5415 88.602 15.7518 88.602 16.0005C88.602 16.4979 88.3969 17.5586 87.9867 19.1825C87.5765 20.8064 87.3714 21.8159 87.3714 22.2109C87.3714 22.6059 87.5179 22.8034 87.8109 22.8034C88.1692 22.8034 88.5745 22.6941 89.0267 22.4755C89.1466 22.4176 89.2065 22.3886 89.2495 22.333C89.2925 22.2774 89.3069 22.2045 89.3357 22.0588C89.4118 21.6745 89.5408 21.0961 89.7228 20.3236C90.1851 18.2715 90.4448 16.731 90.5019 15.7021C90.5133 15.4954 90.519 15.392 90.583 15.3159C90.647 15.2398 90.7315 15.22 90.9006 15.1805C91.4416 15.0542 92.2357 14.991 93.2829 14.991C93.388 14.991 93.4406 14.991 93.4873 15.0068C93.5784 15.0377 93.6571 15.1226 93.6809 15.2157C93.6931 15.2634 93.6894 15.3113 93.682 15.407C93.6233 16.164 93.4243 17.3713 93.0851 19.0289C92.6749 21.0186 92.4697 22.189 92.4697 22.5401C92.4697 22.8766 92.543 23.0448 92.6895 23.0448C92.7611 23.0448 93.0511 22.9284 93.5597 22.6957C93.6898 22.6362 93.7548 22.6064 93.8161 22.6049C93.8824 22.6033 93.9461 22.6231 93.9996 22.6621C94.0492 22.6982 94.0853 22.7589 94.1574 22.8802C94.2254 22.9946 94.2594 23.0517 94.2676 23.1116C94.2763 23.1743 94.2635 23.2423 94.2325 23.2976C94.2031 23.3503 94.1524 23.3899 94.051 23.4689C92.8747 24.3858 91.8348 24.8443 90.9314 24.8443C90.4626 24.8443 90.0597 24.7126 89.7228 24.4493C89.698 24.4291 89.6741 24.4084 89.651 24.3872C89.2021 23.9759 88.9776 23.7703 88.8766 23.7614C88.7756 23.7524 88.6098 23.8576 88.2783 24.0679C87.4393 24.6001 86.6608 24.8663 85.9429 24.8663C85.4302 24.8663 85.0053 24.698 84.6683 24.3615C84.346 24.025 84.1849 23.5496 84.1849 22.9351Z" fill="#FC7601"/>
<path d="M95.415 24.6468C95.3246 24.6468 95.2468 24.5849 95.2381 24.4951C95.2242 24.3517 95.2172 24.139 95.2172 23.8568C95.2172 23.4325 95.415 22.306 95.8106 20.4772C96.2062 18.6485 96.4039 17.6025 96.4039 17.3391C96.4039 16.8856 96.1988 16.3882 95.7886 15.8468L95.6509 15.6635C95.6122 15.6119 95.5936 15.5481 95.5985 15.4838C95.6071 15.3724 95.6842 15.2778 95.7931 15.2521C96.5492 15.0732 97.673 14.9792 99.1644 14.9698C99.2141 14.9695 99.2389 14.9694 99.2669 14.9746C99.3453 14.9891 99.4309 15.0495 99.4709 15.1183C99.4851 15.143 99.4864 15.1466 99.4889 15.1539C99.6526 15.6232 99.7344 15.8579 99.7611 15.8941C99.875 16.0489 99.9466 16.068 100.123 15.9904C100.164 15.9723 100.319 15.8377 100.63 15.5687C100.649 15.5518 100.669 15.5348 100.689 15.5177C101.202 15.0788 101.729 14.8593 102.271 14.8593C103.02 14.8593 103.414 15.4748 103.455 16.7057C103.458 16.8088 103.46 16.8604 103.441 16.9139C103.421 16.9674 103.387 17.007 103.317 17.0862C103.268 17.142 103.213 17.2044 103.151 17.2733C103.033 17.4049 102.784 17.5951 102.403 17.8438C102.054 18.0811 101.711 18.2318 101.375 18.296C101.342 18.3023 101.425 18.2865 101.343 18.2535C101.262 18.2204 101.317 18.2987 101.295 18.2674C101.242 18.1932 101.129 18.0081 100.953 17.7122C100.776 17.4138 100.632 17.2281 100.522 17.1551C100.521 17.1542 100.52 17.1537 100.446 17.1465C100.372 17.1392 100.357 17.1452 100.328 17.1571C100.048 17.2724 99.7944 17.4414 99.5679 17.6641C99.5176 17.7135 99.4925 17.7382 99.4715 17.7761C99.4505 17.8139 99.4418 17.8536 99.4242 17.9328C98.7732 20.8733 98.4477 22.7821 98.4477 23.6593C98.4477 23.741 98.4482 23.8165 98.4491 23.8859C98.4523 24.1204 98.4539 24.2376 98.387 24.3211C98.3201 24.4046 98.2245 24.4248 98.0334 24.4651C97.4595 24.5862 96.5867 24.6468 95.415 24.6468Z" fill="#FC7601"/>
<path d="M103.156 22.9351C103.156 22.306 103.347 21.238 103.728 19.7311C104.108 18.2096 104.299 17.2806 104.299 16.9441C104.299 16.6091 104.059 16.1741 103.579 15.6393C103.534 15.5895 103.511 15.5237 103.516 15.457C103.524 15.35 103.602 15.2611 103.708 15.2414C104.592 15.0763 105.707 14.9863 107.053 14.9713C107.249 14.9691 107.347 14.968 107.433 15.0447C107.519 15.1214 107.528 15.2042 107.546 15.3696C107.564 15.5415 107.573 15.7518 107.573 16.0005C107.573 16.4979 107.368 17.5586 106.958 19.1825C106.548 20.8064 106.343 21.8159 106.343 22.2109C106.343 22.6059 106.489 22.8034 106.782 22.8034C107.141 22.8034 107.546 22.6941 107.998 22.4755C108.118 22.4176 108.178 22.3886 108.221 22.333C108.264 22.2774 108.278 22.2045 108.307 22.0588C108.383 21.6745 108.512 21.0961 108.694 20.3236C109.156 18.2715 109.416 16.731 109.473 15.7021C109.485 15.4954 109.49 15.392 109.554 15.3159C109.618 15.2398 109.703 15.22 109.872 15.1805C110.413 15.0542 111.207 14.991 112.254 14.991C112.359 14.991 112.412 14.991 112.459 15.0068C112.55 15.0377 112.628 15.1226 112.652 15.2157C112.664 15.2634 112.661 15.3113 112.653 15.407C112.595 16.164 112.396 17.3713 112.056 19.0289C111.646 21.0186 111.441 22.189 111.441 22.5401C111.441 22.8766 111.514 23.0448 111.661 23.0448C111.732 23.0448 112.022 22.9284 112.531 22.6957C112.661 22.6362 112.726 22.6064 112.787 22.6049C112.854 22.6033 112.917 22.6231 112.971 22.6621C113.021 22.6982 113.057 22.7589 113.129 22.8802C113.197 22.9946 113.231 23.0517 113.239 23.1116C113.248 23.1743 113.235 23.2423 113.204 23.2976C113.174 23.3503 113.124 23.3899 113.022 23.4689C111.846 24.3858 110.806 24.8443 109.903 24.8443C109.434 24.8443 109.031 24.7126 108.694 24.4493C108.669 24.4291 108.645 24.4084 108.622 24.3872C108.173 23.9759 107.949 23.7703 107.848 23.7614C107.747 23.7524 107.581 23.8576 107.25 24.0679C106.411 24.6001 105.632 24.8663 104.914 24.8663C104.401 24.8663 103.977 24.698 103.64 24.3615C103.317 24.025 103.156 23.5496 103.156 22.9351Z" fill="#FC7601"/>
</svg>
