<svg width="28" height="18" viewBox="0 0 28 18" fill="none" xmlns="http://www.w3.org/2000/svg">
<path d="M22.9991 11.1311C22.81 11.1311 22.6518 11.0672 22.5244 10.9394C22.3971 10.8116 22.3334 10.6533 22.3334 10.4644V7.13108H19C18.8112 7.13108 18.6528 7.0671 18.525 6.93915C18.3973 6.81121 18.3334 6.65267 18.3334 6.46351C18.3334 6.27436 18.3973 6.11611 18.525 5.98878C18.6528 5.86142 18.8112 5.79775 19 5.79775H22.3334V2.46441C22.3334 2.27552 22.3974 2.11719 22.5253 1.98941C22.6533 1.86164 22.8118 1.79775 23.0009 1.79775C23.1901 1.79775 23.3483 1.86164 23.4757 1.98941C23.603 2.11719 23.6667 2.27552 23.6667 2.46441V5.79775H27C27.1889 5.79775 27.3473 5.86172 27.475 5.98968C27.6028 6.11761 27.6667 6.27616 27.6667 6.46531C27.6667 6.65447 27.6028 6.81271 27.475 6.94005C27.3473 7.0674 27.1889 7.13108 27 7.13108H23.6667V10.4644C23.6667 10.6533 23.6027 10.8116 23.4748 10.9394C23.3468 11.0672 23.1883 11.1311 22.9991 11.1311ZM9.66671 8.31058C8.56671 8.31058 7.62504 7.91891 6.84171 7.13558C6.05837 6.35225 5.66671 5.41058 5.66671 4.31058C5.66671 3.21056 6.05837 2.26888 6.84171 1.48555C7.62504 0.702214 8.56671 0.310547 9.66671 0.310547C10.7667 0.310547 11.7084 0.702214 12.4917 1.48555C13.275 2.26888 13.6667 3.21056 13.6667 4.31058C13.6667 5.41058 13.275 6.35225 12.4917 7.13558C11.7084 7.91891 10.7667 8.31058 9.66671 8.31058ZM1.41031 17.9516C1.10517 17.9516 0.849396 17.8484 0.642974 17.642C0.436574 17.4356 0.333374 17.1798 0.333374 16.8747V15.7567C0.333374 15.2063 0.493629 14.6913 0.814141 14.2118C1.13465 13.7324 1.56585 13.3601 2.10774 13.0952C3.36585 12.4918 4.62482 12.0392 5.88464 11.7375C7.14449 11.4358 8.40517 11.2849 9.66671 11.2849C10.9282 11.2849 12.1889 11.4358 13.4488 11.7375C14.7086 12.0392 15.9676 12.4918 17.2257 13.0952C17.7676 13.3601 18.1988 13.7324 18.5193 14.2118C18.8398 14.6913 19 15.2063 19 15.7567V16.8747C19 17.1798 18.8968 17.4356 18.6904 17.642C18.484 17.8484 18.2283 17.9516 17.9231 17.9516H1.41031Z" fill="#4470AD"/>
</svg>
