<svg width="105" height="106" viewBox="0 0 105 106" fill="none" xmlns="http://www.w3.org/2000/svg">
<path d="M51.2392 1.63104C51.726 0.789653 52.9407 0.789654 53.4275 1.63104L60.182 13.3055C60.6696 14.1483 60.0614 15.2027 59.0878 15.2027H45.5788C44.6052 15.2027 43.9971 14.1482 44.4846 13.3055L51.2392 1.63104Z" fill="#8C64B4"/>
<path d="M32.8609 33.396C33.3477 32.5546 34.5624 32.5546 35.0492 33.396L41.4127 44.3946C41.9003 45.2373 41.2921 46.2917 40.3185 46.2917H27.5915C26.6179 46.2917 26.0098 45.2373 26.4974 44.3946L32.8609 33.396Z" fill="#8C64B4"/>
<path d="M71.8057 33.396C71.3189 32.5546 70.1042 32.5546 69.6174 33.396L63.2539 44.3946C62.7664 45.2373 63.3745 46.2917 64.3481 46.2917H77.0751C78.0487 46.2917 78.6568 45.2373 78.1692 44.3946L71.8057 33.396Z" fill="#8C64B4"/>
<path d="M26.4974 17.6054C26.0098 16.7627 26.6179 15.7083 27.5915 15.7083H40.3185C41.2921 15.7083 41.9003 16.7627 41.4127 17.6054L35.0492 28.6041C34.5624 29.4454 33.3477 29.4454 32.8609 28.6041L26.4974 17.6054Z" fill="#CCBADE"/>
<path d="M63.2539 17.6054C62.7664 16.7627 63.3745 15.7083 64.3481 15.7083H77.0751C78.0487 15.7083 78.6568 16.7627 78.1692 17.6054L71.8057 28.604C71.3189 29.4454 70.1042 29.4454 69.6174 28.604L63.2539 17.6054Z" fill="#CCBADE"/>
<path d="M45.5788 46.7973C44.6052 46.7973 43.9971 47.8518 44.4846 48.6945L51.2392 60.369C51.726 61.2104 52.9407 61.2103 53.4275 60.369L60.182 48.6945C60.6696 47.8518 60.0614 46.7973 59.0878 46.7973H45.5788Z" fill="#CCBADE"/>
<path d="M35.5641 29.2276L42.2173 17.7281C42.85 16.6346 44.0176 15.9612 45.2809 15.9612L59.3844 15.9612C60.6477 15.9612 61.8153 16.6346 62.448 17.7281L69.1012 29.2276C69.7357 30.3241 69.7357 31.6761 69.1012 32.7726L62.448 44.2721C61.8153 45.3656 60.6477 46.039 59.3844 46.039H45.281C44.0176 46.039 42.85 45.3656 42.2173 44.2721L35.5641 32.7726C34.9297 31.6761 34.9297 30.3241 35.5641 29.2276Z" fill="#F6B884"/>
<path d="M53.0635 35.9914C52.9101 35.9003 52.8161 35.7351 52.8161 35.5567V28.7042C52.8161 28.1837 53.5078 28.0028 53.7626 28.4567L59.5325 38.7354C59.7858 39.1865 59.2783 39.6818 58.8335 39.4177L53.0635 35.9914Z" fill="#8C64B4"/>
<path d="M51.9168 35.5567C51.9168 35.7351 51.8227 35.9004 51.6693 35.9915L45.8994 39.4177C45.4546 39.6818 44.9471 39.1865 45.2003 38.7354L50.9702 28.4567C51.225 28.0028 51.9168 28.1837 51.9168 28.7042V35.5567Z" fill="#8C64B4"/>
<path d="M58.4284 40.2407C58.8704 40.5031 58.6843 41.181 58.1703 41.181L46.5625 41.181C46.0485 41.181 45.8624 40.5031 46.3044 40.2407L52.1083 36.7943C52.2674 36.6998 52.4654 36.6998 52.6246 36.7943L58.4284 40.2407Z" fill="#8C64B4"/>
<circle cx="52.3656" cy="23.2311" r="3.28661" fill="#8C64B4"/>
<path d="M16.2989 93.5406C16.0645 94.1453 15.6934 94.6232 15.1855 94.9743C14.6971 95.3255 14.1111 95.501 13.4274 95.501C12.7633 95.501 11.7573 95.0914 10.4094 94.2721C9.35152 93.6196 8.46089 93.1527 7.73753 92.8714C7.50809 92.7822 7.39337 92.7376 7.26991 92.7686C7.14646 92.7997 7.05459 92.9075 6.87086 93.123C6.43243 93.6372 5.95155 94.0788 5.42823 94.4476C4.76407 94.9158 4.30502 95.1499 4.05108 95.1499C3.85574 95.1499 3.46505 94.7305 2.87903 93.8917C2.29301 93.0334 2 92.419 2 92.0483C2 91.8338 2.30278 91.5119 2.90833 91.0827C3.41076 90.7378 3.93211 90.4811 4.47239 90.3126C4.6827 90.247 4.78785 90.2142 4.85479 90.1511C4.92172 90.088 4.95529 89.9989 5.02243 89.8208C5.46428 88.6488 5.92186 87.0213 6.39516 84.9381C6.92258 82.5973 7.3328 80.1883 7.62581 77.7109C7.62581 77.3988 7.51837 77.0282 7.3035 76.599C7.10816 76.1504 6.90305 75.7895 6.68818 75.5164L6.50322 75.2578C6.49567 75.2473 6.49189 75.242 6.48842 75.2368C6.43204 75.1525 6.40999 75.0499 6.42677 74.95C6.4278 74.9438 6.42908 74.9374 6.43162 74.9247C6.43451 74.9103 6.43596 74.9031 6.43803 74.8947C6.47085 74.7613 6.58228 74.6454 6.71442 74.6073C6.72277 74.6049 6.72734 74.6038 6.73648 74.6016C7.85076 74.3319 9.53868 74.1888 11.8002 74.1721C12.0276 74.1704 12.1413 74.1696 12.2469 74.2453C12.3524 74.321 12.3813 74.409 12.4392 74.5849C12.5706 74.9842 12.6363 75.4995 12.6363 76.1309C12.6363 77.0087 12.3824 78.3156 11.8745 80.0517C11.3666 81.7878 10.6634 83.875 9.76479 86.3134C9.16348 87.968 8.73585 89.1616 8.48188 89.8943C8.3788 90.1917 8.32727 90.3404 8.37154 90.4699C8.38446 90.5077 8.40316 90.5436 8.42673 90.5759C8.50747 90.6864 8.66287 90.7307 8.97366 90.8194C9.31754 90.9175 9.55847 90.9882 9.69644 91.0315C9.73063 91.0422 9.74772 91.0476 9.75971 91.0505C9.77171 91.0535 9.79303 91.0574 9.83567 91.0652C9.98186 91.0918 10.2122 91.1464 10.5266 91.229C10.8978 91.3071 11.1908 91.3656 11.4057 91.4046C11.6205 91.4241 11.9038 91.4534 12.2554 91.4924C12.8609 91.5899 13.4274 91.6387 13.9548 91.6387C14.4584 91.6387 14.8295 91.523 15.0681 91.2915C15.0884 91.2718 15.0986 91.262 15.117 91.2376C15.1354 91.2133 15.1461 91.1934 15.1676 91.1535L15.7137 90.1408C15.7975 89.9854 15.8394 89.9078 15.9014 89.8575C15.9557 89.8135 16.0207 89.7846 16.0898 89.7736C16.1686 89.7611 16.2545 89.7819 16.4262 89.8235C16.6008 89.8657 16.688 89.8868 16.7546 89.9376C16.8109 89.9806 16.8585 90.0437 16.8842 90.1097C16.9145 90.1877 16.9108 90.2728 16.9034 90.4429C16.8562 91.5268 16.6547 92.5594 16.2989 93.5406Z" fill="#8C64B4"/>
<path d="M33.0673 87.9059C33.329 87.9059 33.4598 87.9059 33.5652 87.9834C33.6224 88.0254 33.6811 88.1045 33.7048 88.1714C33.7483 88.2947 33.7152 88.4034 33.6489 88.6209C33.6062 88.7614 33.5548 88.9105 33.4948 89.0681C33.4 89.3174 33.3526 89.442 33.2405 89.5129C33.1283 89.5839 32.9842 89.5726 32.6959 89.55C32.1504 89.5073 31.6103 89.4859 31.0755 89.4859C31.0092 89.4859 30.9539 89.5373 30.9483 89.6033C30.5419 94.3619 30.1643 97.8828 29.8156 100.166C29.5107 102.162 29.125 103.637 28.6585 104.592C28.5685 104.776 28.5235 104.868 28.4291 104.928C28.3346 104.988 28.2161 104.991 27.9791 104.996C27.4182 105.007 26.8397 105.02 26.2408 104.701C25.7106 104.418 25.3432 103.811 25.0757 103.371C24.8823 103.052 24.7856 102.892 24.7765 102.804C24.7673 102.715 24.8165 102.575 24.9149 102.296C25.3178 101.154 25.7207 100.177 26.1236 97.6788C26.5529 95.1239 26.8463 92.7424 27.0039 90.5342C27.0339 90.1146 27.0488 89.9048 26.9137 89.7755C26.7786 89.6462 26.5725 89.6698 26.1602 89.7169C26.0985 89.7239 26.0361 89.7313 25.9732 89.7389C25.6108 89.783 25.4296 89.8051 25.2955 89.6878C25.1615 89.5704 25.16 89.4168 25.1569 89.1096C25.1568 89.0985 25.1567 89.0874 25.1567 89.0763C25.1567 88.9407 25.1663 88.7763 25.1856 88.583C25.2169 88.2689 25.2325 88.1118 25.3464 88.0089C25.4603 87.9059 25.6261 87.9059 25.9578 87.9059H26.3702C26.7377 87.9059 26.9215 87.9059 27.0367 87.7973C27.1518 87.6888 27.1626 87.503 27.1841 87.1313C27.3245 84.7084 27.8233 79.2484 27.9443 78.4717C28.1787 76.9111 28.7159 75.692 29.5558 74.8142C30.4153 73.9169 31.519 73.4682 32.8669 73.4682C33.7264 73.4682 34.4003 73.6633 34.8886 74.0534C35.3965 74.424 35.5559 74.99 35.6505 75.8383C35.742 76.6591 34.9459 78.9478 34.8943 79.0951C34.8929 79.0992 34.8922 79.1012 34.8916 79.1029C34.891 79.1045 34.891 79.1048 34.8908 79.1052C34.8495 79.23 33.3723 83.6855 32.1367 86.2393C31.7421 87.0551 31.5447 87.463 31.5782 87.6014C31.6034 87.7056 31.6298 87.7475 31.7128 87.8156C31.823 87.9059 32.2378 87.9059 33.0673 87.9059ZM30.7857 80.984C30.794 81.62 30.7982 81.938 31.0895 82.0161C31.3808 82.0941 31.5335 81.8381 31.8389 81.3262C32.5761 80.0908 33.3541 78.5511 33.4442 78.3719C33.4483 78.3638 33.4504 78.3597 33.4529 78.3542C33.4555 78.3486 33.4574 78.3442 33.4612 78.3354C33.5364 78.1597 34.0975 76.8303 34.0975 76.2479C34.0975 75.6042 33.5748 75.2553 33.1646 75.2553C30.9871 75.2553 30.8632 77.5154 30.7825 79.5006C30.7698 79.8139 30.7778 80.3827 30.7857 80.984Z" fill="#8C64B4"/>
<path d="M34.2431 89.8831C34.2431 87.4447 34.9756 85.5233 36.4407 84.1189C37.9253 82.6949 39.6052 81.9829 41.4805 81.9829C42.633 81.9829 43.5804 82.2657 44.3227 82.8314C45.065 83.3971 45.4361 84.1579 45.4361 85.1137C45.4361 86.05 45.192 86.84 44.7036 87.4838C44.2348 88.1275 43.6585 88.6249 42.9748 88.976C41.5879 89.6588 40.3182 90.0879 39.1657 90.2635C38.8515 90.3027 38.6944 90.3223 38.5951 90.432C38.5774 90.4516 38.5583 90.4778 38.5452 90.5007C38.4714 90.629 38.4987 90.7704 38.5533 91.0533C38.8168 92.4189 39.5386 93.1017 40.7186 93.1017C41.1875 93.1017 41.6856 92.9846 42.213 92.7506C42.7404 92.5165 43.1506 92.2824 43.4437 92.0483C43.5535 91.9606 43.6084 91.9167 43.6635 91.8948C43.791 91.844 43.9357 91.8624 44.0465 91.9434C44.0943 91.9783 44.1365 92.0345 44.2209 92.1469L44.293 92.2429C44.399 92.384 44.452 92.4546 44.4674 92.5522C44.4764 92.6089 44.4685 92.6938 44.4492 92.7479C44.4159 92.841 44.3617 92.8906 44.2533 92.9898C44.094 93.1354 43.8925 93.2995 43.6488 93.4821C43.1799 93.8332 42.7404 94.1258 42.3302 94.3599C41.1972 94.9841 39.9568 95.2962 38.609 95.2962C37.2611 95.2962 36.1965 94.8183 35.4152 93.8624C34.6338 92.9066 34.2431 91.5802 34.2431 89.8831ZM38.4802 87.9703C38.4379 88.4043 38.4168 88.6214 38.5945 88.7557C38.7722 88.89 38.9641 88.8153 39.3477 88.6659C39.9266 88.4404 40.4128 88.1049 40.8066 87.6593C41.3926 86.9961 41.6856 86.1378 41.6856 85.0844C41.6856 84.0311 41.373 83.5044 40.7479 83.5044C40.0057 83.5044 39.4294 84.1384 39.0192 85.4063C38.7392 86.301 38.5595 87.1557 38.4802 87.9703Z" fill="#8C64B4"/>
<path fill-rule="evenodd" clip-rule="evenodd" d="M23.0668 88.0397C23.5942 86.0305 23.8579 84.6163 23.8579 83.797C23.8579 83.2093 23.7926 82.7571 23.6619 82.4404C23.6132 82.3223 23.5888 82.2632 23.4873 82.1959C23.3858 82.1285 23.2948 82.1292 23.1126 82.1304C21.1426 82.144 19.664 82.2691 18.6769 82.5057C18.532 82.5404 18.4296 82.6667 18.4182 82.8151C18.4116 82.9011 18.4365 82.9865 18.4883 83.0554L18.6716 83.2996C19.1795 84.0213 19.4335 84.7918 19.4335 85.6111C19.4335 86.1573 19.1893 87.3472 18.7009 89.1808C18.2126 90.995 17.9684 92.2629 17.9684 92.9846C17.9684 93.6869 18.1638 94.2526 18.5544 94.6817C18.9451 95.0914 19.4823 95.2962 20.166 95.2962C20.8497 95.2962 21.592 95.1011 22.3929 94.711C23.1938 94.3013 23.7407 93.9795 24.0337 93.7454C24.1543 93.6491 24.2649 93.5595 24.3655 93.4764C24.4971 93.3678 24.5629 93.3135 24.6005 93.2395C24.6304 93.1805 24.6459 93.1094 24.6432 93.0433C24.6398 92.9604 24.6011 92.8808 24.5237 92.7218L24.4106 92.4892C24.3161 92.2949 24.0808 92.215 23.8872 92.3117C23.1059 92.6823 22.6566 92.8676 22.5394 92.8676C22.3636 92.8676 22.2757 92.5653 22.2757 91.9605C22.2757 91.3363 22.5394 90.0294 23.0668 88.0397Z" fill="#8C64B4"/>
<path d="M20.5176 78.9398C20.1269 78.5497 19.9316 78.0328 19.9316 77.389C19.9316 76.7453 20.1953 76.1796 20.7227 75.692C21.2697 75.2043 21.8948 74.9605 22.598 74.9605C23.3012 74.9605 23.8482 75.1555 24.2388 75.5457C24.6295 75.9358 24.8249 76.4527 24.8249 77.0964C24.8249 77.7207 24.5416 78.2766 23.9751 78.7643C23.4282 79.2519 22.8129 79.4958 22.1292 79.4958C21.4455 79.4958 20.9083 79.3105 20.5176 78.9398Z" fill="#8C64B4"/>
<path d="M52.6908 100.329C51.7141 100.329 50.9035 100.085 50.2588 99.5974C49.6142 99.1292 49.2919 98.4757 49.2919 97.6369C49.2919 95.4661 51.4414 94.0168 55.7403 93.2891C55.9194 93.2588 56.009 93.2436 56.0786 93.1982C56.1158 93.1738 56.1494 93.1428 56.1765 93.1075C56.2271 93.0416 56.2491 92.9532 56.293 92.7766C56.41 92.3062 56.4684 92.0711 56.3932 91.9345C56.3505 91.857 56.2995 91.8083 56.22 91.7693C56.08 91.7005 55.8012 91.7832 55.2435 91.9488C54.7571 92.0931 54.2578 92.1653 53.7457 92.1653C51.929 92.1653 50.4639 91.5119 49.3505 90.2049C48.2371 88.8784 47.6803 87.1619 47.6803 85.0551C47.6803 82.9484 48.0906 80.9977 48.911 79.2031C49.7314 77.4085 50.9035 75.926 52.4271 74.7556C53.9703 73.5852 55.6014 73 57.3204 73C59.0589 73 60.4751 73.4291 61.5691 74.2874C62.6825 75.1262 63.2392 76.1991 63.2392 77.506C63.2392 78.1045 63.1588 78.6169 62.9979 79.0432C62.9368 79.2052 62.9062 79.2862 62.8072 79.3565C62.7081 79.4269 62.6145 79.4293 62.4272 79.4343C62.3521 79.4362 62.2712 79.4372 62.1844 79.4372C60.9163 79.4372 59.912 79.2639 59.1715 78.9173C58.9978 78.836 58.911 78.7953 58.8487 78.6965C58.7865 78.5976 58.7875 78.487 58.7895 78.2657L58.8114 75.9113C58.8131 75.724 58.814 75.6304 58.764 75.5394C58.7141 75.4483 58.6498 75.4081 58.5212 75.3277C58.0983 75.0634 57.5808 74.9312 56.9688 74.9312C55.7772 74.9312 54.7224 75.848 53.8043 77.6816C52.8862 79.4957 52.4271 81.7097 52.4271 84.3236C52.4271 86.0597 52.7104 87.3374 53.2768 88.1567C53.8433 88.976 54.5173 89.3856 55.2986 89.3856C56.4707 89.3856 57.5255 88.8004 58.4631 87.63C59.2618 86.6331 59.8692 85.4734 60.2852 84.1509C60.3928 83.8086 60.4466 83.6375 60.5737 83.5596C60.7007 83.4817 60.87 83.5099 61.2087 83.5663L61.3065 83.5826C61.6668 83.6425 61.847 83.6725 61.9429 83.8033C62.0388 83.9341 62.0132 84.1138 61.9619 84.4731C61.2203 89.6697 60.1322 93.5798 58.6975 96.2032C57.1934 98.9537 55.1912 100.329 52.6908 100.329ZM51.1965 97.5492C51.1965 98.0954 51.6555 98.3685 52.5736 98.3685C53.0424 98.3685 53.5992 98.0759 54.2438 97.4907C54.6011 97.177 54.9105 96.8095 55.1718 96.388C55.4538 95.933 55.5948 95.7056 55.4452 95.491C55.2956 95.2764 55.0221 95.3317 54.4753 95.4425C53.813 95.5766 53.1889 95.7716 52.6029 96.0276C51.6653 96.4568 51.1965 96.964 51.1965 97.5492Z" fill="#8C64B4"/>
<path d="M63.9244 91.5801C63.9244 90.7413 64.1783 89.3173 64.6862 87.3082C65.1941 85.2795 65.448 84.0408 65.448 83.5921C65.448 83.1454 65.1279 82.5655 64.4876 81.8524C64.428 81.786 64.3971 81.6982 64.4039 81.6093C64.4149 81.4666 64.519 81.3482 64.6598 81.3219C65.8388 81.1018 67.3254 80.9817 69.1197 80.9617C69.381 80.9588 69.5117 80.9574 69.6268 81.0596C69.742 81.1619 69.7538 81.2722 69.7773 81.4928C69.8017 81.722 69.8139 82.0024 69.8139 82.334C69.8139 82.9972 69.5404 84.4114 68.9934 86.5767C68.4465 88.7419 68.173 90.0879 68.173 90.6145C68.173 91.1412 68.3684 91.4046 68.759 91.4046C69.2369 91.4046 69.7772 91.2588 70.3801 90.9674C70.54 90.8901 70.6199 90.8515 70.6772 90.7773C70.7346 90.7032 70.7538 90.606 70.7922 90.4118C70.8935 89.8993 71.0656 89.1281 71.3082 88.0982C71.9247 85.362 72.271 83.308 72.347 81.9361C72.3623 81.6605 72.3699 81.5227 72.4552 81.4212C72.5406 81.3197 72.6533 81.2934 72.8787 81.2407C73.6 81.0722 74.6588 80.988 76.055 80.988C76.1952 80.988 76.2653 80.988 76.3276 81.0091C76.4491 81.0502 76.5541 81.1635 76.5858 81.2876C76.602 81.3512 76.5971 81.415 76.5872 81.5426C76.5089 82.552 76.2436 84.1617 75.7913 86.3718C75.2443 89.0247 74.9709 90.5853 74.9709 91.0534C74.9709 91.5021 75.0685 91.7264 75.2639 91.7264C75.3593 91.7264 75.7461 91.5713 76.4242 91.2609C76.5976 91.1816 76.6842 91.1419 76.766 91.1399C76.8544 91.1377 76.9393 91.1642 77.0107 91.2162C77.0768 91.2643 77.1249 91.3452 77.2211 91.5069C77.3117 91.6594 77.3571 91.7356 77.368 91.8154C77.3796 91.8991 77.3625 91.9897 77.3213 92.0635C77.282 92.1338 77.2144 92.1865 77.0792 92.2919C75.5107 93.5145 74.1243 94.1257 72.9198 94.1257C72.2947 94.1257 71.7575 93.9502 71.3082 93.5991C71.2752 93.5721 71.2433 93.5445 71.2125 93.5163C70.614 92.9679 70.3147 92.6937 70.18 92.6818C70.0453 92.6699 69.8243 92.8101 69.3822 93.0906C68.2635 93.8002 67.2256 94.155 66.2684 94.155C65.5848 94.155 65.0183 93.9307 64.569 93.482C64.1392 93.0334 63.9244 92.3994 63.9244 91.5801Z" fill="#8C64B4"/>
<path d="M78.8979 93.8624C78.7774 93.8624 78.6736 93.7799 78.662 93.6601C78.6435 93.469 78.6342 93.1853 78.6342 92.809C78.6342 92.2434 78.8979 90.7413 79.4253 88.303C79.9527 85.8647 80.2165 84.4699 80.2165 84.1188C80.2165 83.5141 79.943 82.8509 79.396 82.1291L79.2124 81.8846C79.1608 81.8159 79.136 81.7308 79.1426 81.6451C79.154 81.4966 79.2568 81.3704 79.402 81.3361C80.4101 81.0977 81.9085 80.9722 83.8971 80.9598C83.9633 80.9593 83.9964 80.9591 84.0338 80.9661C84.1383 80.9855 84.2524 81.0659 84.3057 81.1578C84.3247 81.1906 84.3264 81.1955 84.3298 81.2052C84.548 81.831 84.6571 82.1439 84.6926 82.1921C84.8445 82.3985 84.9401 82.424 85.1747 82.3206C85.2296 82.2964 85.4368 82.117 85.8512 81.7582C85.8771 81.7357 85.9035 81.7131 85.9302 81.6902C86.6139 81.105 87.3171 80.8124 88.0399 80.8124C89.0378 80.8124 89.5637 81.633 89.6175 83.2742C89.622 83.4118 89.6243 83.4805 89.5987 83.5519C89.5732 83.6232 89.5268 83.676 89.4342 83.7815C89.3687 83.8561 89.2946 83.9392 89.2119 84.031C89.0556 84.2066 88.7235 84.4602 88.2157 84.7918C87.7498 85.1081 87.2929 85.3091 86.8448 85.3947C86.8005 85.4031 86.9113 85.382 86.8024 85.3379C86.6934 85.2939 86.7669 85.3983 86.7375 85.3565C86.6678 85.2575 86.5159 85.0108 86.2818 84.6162C86.0457 84.2184 85.8542 83.9708 85.7072 83.8735C85.7054 83.8722 85.7044 83.8716 85.6056 83.862C85.5068 83.8523 85.4875 83.8603 85.4488 83.8762C85.075 84.0299 84.7371 84.2552 84.4351 84.5521C84.368 84.618 84.3345 84.6509 84.3066 84.7014C84.2786 84.7519 84.2669 84.8047 84.2435 84.9105C83.3755 88.8311 82.9415 91.3762 82.9415 92.5457C82.9415 92.6546 82.9421 92.7553 82.9433 92.8479C82.9476 93.1605 82.9497 93.3167 82.8605 93.4281C82.7714 93.5395 82.6439 93.5664 82.389 93.6202C81.6238 93.7817 80.4601 93.8624 78.8979 93.8624Z" fill="#8C64B4"/>
<path d="M89.2194 91.5801C89.2194 90.7413 89.4734 89.3173 89.9813 87.3082C90.4892 85.2795 90.7431 84.0408 90.7431 83.5921C90.7431 83.1454 90.423 82.5655 89.7827 81.8524C89.7231 81.786 89.6922 81.6982 89.699 81.6093C89.71 81.4666 89.814 81.3482 89.9549 81.3219C91.1338 81.1018 92.6205 80.9817 94.4148 80.9617C94.6761 80.9588 94.8068 80.9574 94.9219 81.0596C95.0371 81.1619 95.0489 81.2722 95.0724 81.4928C95.0968 81.722 95.109 82.0024 95.109 82.334C95.109 82.9972 94.8355 84.4114 94.2885 86.5767C93.7416 88.7419 93.4681 90.0879 93.4681 90.6145C93.4681 91.1412 93.6635 91.4046 94.0541 91.4046C94.532 91.4046 95.0723 91.2588 95.6752 90.9674C95.835 90.8901 95.915 90.8515 95.9723 90.7773C96.0296 90.7032 96.0489 90.606 96.0873 90.4118C96.1886 89.8993 96.3606 89.1281 96.6033 88.0982C97.2198 85.362 97.5661 83.308 97.6421 81.9361C97.6574 81.6605 97.665 81.5227 97.7503 81.4212C97.8356 81.3197 97.9484 81.2934 98.1738 81.2407C98.8951 81.0722 99.9539 80.988 101.35 80.988C101.49 80.988 101.56 80.988 101.623 81.0091C101.744 81.0502 101.849 81.1635 101.881 81.2876C101.897 81.3512 101.892 81.415 101.882 81.5426C101.804 82.552 101.539 84.1617 101.086 86.3718C100.539 89.0247 100.266 90.5853 100.266 91.0534C100.266 91.5021 100.364 91.7264 100.559 91.7264C100.654 91.7264 101.041 91.5713 101.719 91.2609C101.893 91.1816 101.979 91.1419 102.061 91.1399C102.149 91.1377 102.234 91.1642 102.306 91.2162C102.372 91.2643 102.42 91.3452 102.516 91.5069C102.607 91.6594 102.652 91.7356 102.663 91.8154C102.675 91.8991 102.658 91.9897 102.616 92.0635C102.577 92.1338 102.509 92.1865 102.374 92.2919C100.806 93.5145 99.4194 94.1257 98.2149 94.1257C97.5898 94.1257 97.0526 93.9502 96.6033 93.5991C96.5703 93.5721 96.5384 93.5445 96.5076 93.5163C95.909 92.9679 95.6098 92.6937 95.4751 92.6818C95.3404 92.6699 95.1194 92.8101 94.6773 93.0906C93.5586 93.8002 92.5207 94.155 91.5635 94.155C90.8798 94.155 90.3133 93.9307 89.8641 93.482C89.4343 93.0334 89.2194 92.3994 89.2194 91.5801Z" fill="#8C64B4"/>
</svg>
