<svg width="68" height="68" viewBox="0 0 68 68" fill="none" xmlns="http://www.w3.org/2000/svg">
<circle cx="34" cy="34" r="33.5" fill="#3F48EE" stroke="#3F48EE"/>
<path fill-rule="evenodd" clip-rule="evenodd" d="M21.361 23.1069C21.8223 22.3416 24.3655 19.5635 26.1778 19.6474C26.72 19.6938 27.1993 20.0203 27.5887 20.4007H27.5902C28.4829 21.2753 31.044 24.5761 31.1878 25.271C31.5428 26.9752 29.5103 27.9577 30.1319 29.6755C31.7165 33.5528 34.4469 36.283 38.3262 37.866C40.0426 38.489 41.0251 36.4582 42.7296 36.8117C43.4245 36.9569 46.7271 39.5164 47.6003 40.4104V40.4104C47.9792 40.7983 48.3087 41.2791 48.3537 41.8212C48.4211 43.7307 45.4705 46.3081 44.8953 46.6376C43.5384 47.6095 41.768 47.5916 39.6097 46.5882C33.5872 44.0826 23.9626 34.6401 21.4104 28.3905C20.4339 26.2444 20.368 24.4622 21.361 23.1069Z" stroke="white" stroke-width="1.5" stroke-linecap="round" stroke-linejoin="round"/>
<path d="M38.2422 20.0098C43.6409 20.6091 47.9036 24.8675 48.5103 30.2648" stroke="white" stroke-width="1.5" stroke-linecap="round" stroke-linejoin="round"/>
<path d="M38.2422 25.1768C40.8234 25.6799 42.8403 27.6968 43.3434 30.278" stroke="white" stroke-width="1.5" stroke-linecap="round" stroke-linejoin="round"/>
</svg>
