<svg width="18" height="17" viewBox="0 0 18 17" fill="none" xmlns="http://www.w3.org/2000/svg">
<path d="M10.7754 8.54756H11.5917C11.8162 8.54756 11.9999 8.35524 11.9999 8.12018V7.26541C11.9999 7.03035 11.8162 6.83803 11.5917 6.83803H10.7754C10.5509 6.83803 10.3672 7.03035 10.3672 7.26541V8.12018C10.3672 8.35524 10.5509 8.54756 10.7754 8.54756ZM7.30602 8.54756H8.12234C8.34683 8.54756 8.53051 8.35524 8.53051 8.12018V7.26541C8.53051 7.03035 8.34683 6.83803 8.12234 6.83803H7.30602C7.08153 6.83803 6.89785 7.03035 6.89785 7.26541V8.12018C6.89785 8.35524 7.08153 8.54756 7.30602 8.54756ZM4.65296 6.83803H3.83663C3.61214 6.83803 3.42847 7.03035 3.42847 7.26541V8.12018C3.42847 8.35524 3.61214 8.54756 3.83663 8.54756H4.65296C4.87745 8.54756 5.06112 8.35524 5.06112 8.12018V7.26541C5.06112 7.03035 4.87745 6.83803 4.65296 6.83803Z" fill="black" fill-opacity="0.6"/>
<path d="M16.8096 15.1402C16.0502 14.9161 15.7013 14.6308 15.5165 14.3251C17.0969 12.9395 18 10.9629 18 8.84369C18 6.88748 17.2406 5.05354 15.8449 3.68827C14.7982 2.64903 13.5051 1.97659 12.0479 1.6913C10.7343 0.590938 9.07184 0 7.34778 0C5.37742 0 3.55074 0.753955 2.15507 2.1396C0.759407 3.52525 0 5.3592 0 7.29503C0 9.41425 0.903079 11.3908 2.48347 12.7765C2.29875 13.0821 1.94983 13.3878 1.19042 13.5916C0.964652 13.6527 0.800456 13.8769 0.820981 14.101C0.841505 14.3455 1.0057 14.5289 1.23147 14.5697C1.64196 14.6512 2.13455 14.6716 2.66819 14.6716C3.61231 14.6716 4.65906 14.5697 5.58267 14.3659C5.68529 14.3863 5.80844 14.427 5.93158 14.4474C7.24515 15.5274 8.90764 16.1387 10.6317 16.1387C11.2269 16.1387 11.8016 16.0776 12.3763 15.9349C13.2794 16.1387 14.3466 16.2406 15.2908 16.2406C15.8244 16.2406 16.3375 16.1998 16.7275 16.1387C16.9532 16.098 17.138 15.8942 17.138 15.67C17.1995 15.4051 17.0353 15.2014 16.8096 15.1402ZM5.50057 13.347C4.76169 13.5304 3.89966 13.6323 3.0992 13.6527C3.32497 13.4082 3.48917 13.1229 3.61231 12.7765C3.69441 12.5727 3.61231 12.3486 3.44812 12.2059C1.90878 11.0037 1.02623 9.21048 1.02623 7.27465C1.02623 5.60372 1.68301 4.0143 2.87343 2.83243C4.06385 1.65055 5.66477 0.998481 7.34778 0.998481C8.86659 0.998481 10.3444 1.54866 11.4937 2.52677C11.6169 2.62865 11.7195 2.73054 11.8221 2.83243C13.0125 4.0143 13.6693 5.60372 13.6693 7.27465C13.6693 8.94558 13.0125 10.535 11.8221 11.7169C10.6317 12.8987 9.03079 13.5508 7.34778 13.5508C6.97834 13.5508 6.60889 13.5101 6.25998 13.4693C6.07526 13.4286 5.89053 13.4082 5.74686 13.347C5.68529 13.3267 5.58267 13.3267 5.50057 13.347ZM14.5724 13.775C14.4082 13.9176 14.3261 14.1418 14.4082 14.3455C14.5314 14.6716 14.6956 14.9772 14.9213 15.2217C14.1209 15.2014 13.2588 15.0791 12.52 14.9161C12.4789 14.9161 12.4379 14.8957 12.3968 14.8957C12.3558 14.8957 12.3147 14.8957 12.2737 14.9161C11.7605 15.0587 11.2064 15.1199 10.6727 15.1199C9.76967 15.1199 8.86659 14.9161 8.04561 14.5493H8.06613C8.10718 14.5493 8.14823 14.5493 8.18928 14.5289C8.27138 14.5289 8.33295 14.5085 8.41505 14.5085C8.4561 14.5085 8.49715 14.4882 8.5382 14.4882C8.59977 14.4678 8.68187 14.4678 8.74344 14.4474C8.78449 14.4474 8.82554 14.427 8.88712 14.427C8.94869 14.4067 9.03079 14.4067 9.09236 14.3863C9.13341 14.3659 9.17446 14.3659 9.21551 14.3455C9.27708 14.3251 9.35918 14.3048 9.42075 14.2844C9.4618 14.264 9.50285 14.264 9.5439 14.2436C9.60547 14.2233 9.68757 14.2029 9.74914 14.1825C9.79019 14.1621 9.83124 14.1621 9.85177 14.1418C9.93386 14.101 10.016 14.0806 10.0981 14.0399C10.1186 14.0399 10.1391 14.0195 10.1596 14.0195C10.2623 13.9787 10.3649 13.938 10.4675 13.8769C10.488 13.8565 10.5291 13.8565 10.5496 13.8361C10.6317 13.7953 10.6933 13.7546 10.7754 13.7342C10.8164 13.7138 10.8575 13.6935 10.878 13.6731C10.9396 13.6323 11.0011 13.6119 11.0627 13.5712C11.1038 13.5508 11.1448 13.5304 11.1859 13.5101C11.2474 13.4693 11.309 13.4286 11.3501 13.4082C11.3911 13.3878 11.4322 13.347 11.4732 13.3267C11.5348 13.2859 11.5758 13.2452 11.6374 13.2044C11.6784 13.184 11.7195 13.1433 11.74 13.1229C11.8016 13.0821 11.8426 13.0414 11.9042 13.0006C11.9453 12.9803 11.9658 12.9395 12.0068 12.9191C12.0684 12.8784 12.13 12.8172 12.1916 12.7765C12.2121 12.7561 12.2531 12.7357 12.2737 12.695C12.3558 12.6135 12.4379 12.532 12.52 12.4504C13.9156 11.0648 14.675 9.23086 14.675 7.29503C14.675 7.13201 14.675 6.96899 14.6545 6.80597C14.6545 6.76522 14.6545 6.72447 14.6545 6.68371C14.634 6.52069 14.634 6.35768 14.5929 6.21504V6.19466C14.5724 6.05202 14.5314 5.889 14.5108 5.74636C14.5108 5.70561 14.4903 5.66485 14.4903 5.6241C14.4493 5.46108 14.4082 5.31844 14.3672 5.15542C14.3672 5.13505 14.3672 5.13505 14.3466 5.11467C14.3056 4.97203 14.244 4.82939 14.203 4.68675C14.1824 4.64599 14.1824 4.60524 14.1619 4.58486C14.1003 4.44222 14.0388 4.29958 13.9772 4.15694C13.9772 4.13656 13.9567 4.13657 13.9567 4.11619C13.8951 3.99393 13.8335 3.85128 13.7514 3.72902C13.7514 3.68827 13.7309 3.64751 13.7309 3.62714C13.6488 3.4845 13.5667 3.36223 13.4846 3.21959C13.4846 3.21959 13.4846 3.21959 13.4846 3.19922C14.1003 3.50487 14.6545 3.89204 15.1471 4.38109C16.3375 5.56297 16.9943 7.13201 16.9943 8.82331C16.9738 10.7795 16.0912 12.5727 14.5724 13.775Z" fill="black" fill-opacity="0.6"/>
</svg>
