<svg width="26" height="26" viewBox="0 0 26 26" fill="none" xmlns="http://www.w3.org/2000/svg">
<path fill-rule="evenodd" clip-rule="evenodd" d="M17.3333 12.8926C17.3333 11.6532 16.9184 10.5139 16.2194 9.60166C15.8555 9.12672 15.9455 8.44673 16.4205 8.08284C16.8954 7.71894 17.5753 7.80895 17.9393 8.28387C18.9179 9.5611 19.5 11.1604 19.5 12.8926C19.5 14.6978 18.8677 16.3585 17.8136 17.6608C17.4372 18.1258 16.755 18.1977 16.2899 17.8212C15.825 17.4447 15.753 16.7626 16.1295 16.2976C16.8828 15.3669 17.3333 14.1838 17.3333 12.8926Z" fill="#FF0B0B"/>
<path fill-rule="evenodd" clip-rule="evenodd" d="M8.66667 12.892C8.66667 11.651 9.08263 10.5104 9.78331 9.59749C10.1476 9.12286 10.0582 8.4428 9.58355 8.0785C9.10892 7.71421 8.42885 7.80365 8.06456 8.27827C7.0836 9.55633 6.5 11.1576 6.5 12.892C6.5 14.6959 7.13123 16.3553 8.1839 17.6572C8.5601 18.1224 9.24222 18.1946 9.70747 17.8184C10.1727 17.4422 10.2449 16.76 9.86869 16.2949C9.11645 15.3645 8.66667 14.1823 8.66667 12.892Z" fill="#FF0B0B"/>
<path fill-rule="evenodd" clip-rule="evenodd" d="M10.833 12.8922C10.833 14.0889 11.803 15.0589 12.9997 15.0589C14.1963 15.0589 15.1663 14.0889 15.1663 12.8922C15.1663 11.6957 14.1963 10.7256 12.9997 10.7256C11.803 10.7256 10.833 11.6957 10.833 12.8922Z" fill="#FF8B8B"/>
<path fill-rule="evenodd" clip-rule="evenodd" d="M21.6663 12.8921C21.6663 10.474 20.7875 8.264 19.3305 6.55982C18.9416 6.10505 18.9951 5.42122 19.4498 5.03241C19.9046 4.6436 20.5884 4.69706 20.9772 5.15182C22.7571 7.23357 23.833 9.93856 23.833 12.8921C23.833 15.9135 22.7071 18.6747 20.8535 20.7747C20.4577 21.2233 19.773 21.266 19.3245 20.8701C18.8759 20.4741 18.8332 19.7895 19.2292 19.3409C20.7467 17.6216 21.6663 15.3655 21.6663 12.8921Z" fill="#FF8B8B"/>
<path fill-rule="evenodd" clip-rule="evenodd" d="M4.33317 12.8917C4.33317 10.4738 5.21191 8.26391 6.66878 6.55977C7.05757 6.105 7.00407 5.42117 6.5493 5.03238C6.09454 4.64359 5.4107 4.69708 5.02191 5.15185C3.24224 7.23355 2.1665 9.93838 2.1665 12.8917C2.1665 15.9091 3.28937 18.6668 5.13847 20.7659C5.53396 21.2148 6.21852 21.2582 6.66747 20.8627C7.11642 20.4671 7.15975 19.7826 6.76426 19.3336C5.25032 17.6151 4.33317 15.3618 4.33317 12.8917Z" fill="#FF8B8B"/>
</svg>
