<svg width="68" height="68" viewBox="0 0 68 68" fill="none" xmlns="http://www.w3.org/2000/svg">
<circle cx="34" cy="34" r="33.5" fill="#3F48EE" stroke="#3F48EE"/>
<rect x="17.5" y="22.5" width="31.6325" height="23.3144" rx="7.5" stroke="white"/>
<rect x="17.5" y="22.5" width="31.6325" height="23.3144" rx="7.5" stroke="white"/>
<path d="M30.5917 27.7587C30.1443 27.7868 29.7963 28.1582 29.7969 28.6067V39.6283C29.7945 40.0627 30.1204 40.4284 30.5521 40.4757C30.7212 40.4947 30.8918 40.4624 31.0424 40.3832L41.2161 34.8723C41.4926 34.7251 41.6656 34.4371 41.6656 34.1239C41.6656 33.8105 41.4926 33.5228 41.2161 33.3755L31.0424 27.8647C30.9049 27.7881 30.749 27.7516 30.5917 27.7587ZM31.4924 30.0373L39.0432 34.1173L31.4924 38.2105V30.0373Z" fill="white"/>
<path d="M30.5917 27.7587C30.1443 27.7868 29.7963 28.1582 29.7969 28.6067V39.6283C29.7945 40.0627 30.1204 40.4284 30.5521 40.4757C30.7212 40.4947 30.8918 40.4624 31.0424 40.3832L41.2161 34.8723C41.4926 34.7251 41.6656 34.4371 41.6656 34.1239C41.6656 33.8105 41.4926 33.5228 41.2161 33.3755L31.0424 27.8647C30.9049 27.7881 30.749 27.7516 30.5917 27.7587ZM31.4924 30.0373L39.0432 34.1173L31.4924 38.2105V30.0373Z" fill="white"/>
</svg>
