<svg width="18" height="18" viewBox="0 0 18 18" fill="none" xmlns="http://www.w3.org/2000/svg">
<path d="M16.0241 13.2279C15.4609 12.6643 14.8029 12.2043 14.0801 11.8689C15.0994 11.0432 15.7496 9.78324 15.7496 8.37028C15.7496 5.87736 13.6707 3.83217 11.1777 3.87041C8.72305 3.90866 6.74536 5.90885 6.74536 8.37028C6.74536 9.78324 7.39784 11.0432 8.41481 11.8689C7.69192 12.204 7.03384 12.6641 6.47087 13.2279C5.2424 14.4586 4.54492 16.0831 4.49992 17.8155C4.49932 17.8395 4.50354 17.8634 4.51231 17.8858C4.52109 17.9081 4.53425 17.9285 4.55103 17.9457C4.5678 17.9629 4.58785 17.9766 4.60998 17.9859C4.63212 17.9952 4.6559 18 4.67992 18H5.93988C6.03663 18 6.11763 17.9235 6.11988 17.8268C6.16263 16.5218 6.69136 15.3001 7.62058 14.3731C8.09608 13.8951 8.66167 13.5161 9.28461 13.2581C9.90756 13.0001 10.5755 12.8683 11.2497 12.8702C12.6199 12.8702 13.9091 13.4034 14.8789 14.3731C15.8058 15.3001 16.3346 16.5218 16.3796 17.8268C16.3818 17.9235 16.4628 18 16.5596 18H17.8195C17.8436 18 17.8673 17.9952 17.8895 17.9859C17.9116 17.9766 17.9317 17.9629 17.9484 17.9457C17.9652 17.9285 17.9784 17.9081 17.9871 17.8858C17.9959 17.8634 18.0001 17.8395 17.9995 17.8155C17.9545 16.0831 17.257 14.4586 16.0241 13.2279ZM11.2497 11.2502C10.4802 11.2502 9.75577 10.951 9.21354 10.4065C8.94141 10.1365 8.72646 9.81447 8.5815 9.45961C8.43654 9.10475 8.36455 8.72432 8.36981 8.34103C8.37656 7.60306 8.6713 6.88983 9.18654 6.36109C9.72652 5.80761 10.4487 5.49937 11.2205 5.49037C11.9832 5.48362 12.7234 5.78061 13.2679 6.31384C13.8259 6.86058 14.1319 7.59181 14.1319 8.37028C14.1319 9.13976 13.8327 9.86199 13.2882 10.4065C13.021 10.6749 12.7033 10.8877 12.3534 11.0325C12.0035 11.1773 11.6284 11.2513 11.2497 11.2502ZM5.61364 8.96427C5.59339 8.76852 5.58214 8.57053 5.58214 8.37028C5.58214 8.01254 5.61589 7.6638 5.67889 7.32406C5.69464 7.24307 5.65189 7.15982 5.57764 7.12607C5.27165 6.98882 4.99041 6.79983 4.74742 6.56134C4.46109 6.28371 4.23578 5.94945 4.08586 5.57988C3.93594 5.21031 3.8647 4.81354 3.87669 4.4149C3.89694 3.69267 4.18718 3.00644 4.69342 2.48896C5.24915 1.91972 5.99613 1.60923 6.79036 1.61823C7.50809 1.62498 8.20107 1.90172 8.7253 2.39221C8.90304 2.5587 9.05604 2.7432 9.18429 2.94119C9.22929 3.01094 9.31703 3.04019 9.39353 3.01319C9.78952 2.87594 10.208 2.7792 10.6377 2.7342C10.7637 2.7207 10.8357 2.5857 10.7795 2.47321C10.0483 1.0265 8.55431 0.0275271 6.82636 0.000527919C4.33118 -0.037721 2.25224 2.00747 2.25224 4.49815C2.25224 5.9111 2.90247 7.17107 3.92169 7.99679C3.20621 8.32753 2.54698 8.78427 1.9755 9.35575C0.742535 10.5865 0.0450549 12.2109 5.62618e-05 13.9456C-0.000544257 13.9696 0.00366768 13.9935 0.012444 14.0159C0.0212203 14.0382 0.0343834 14.0586 0.0511577 14.0758C0.0679319 14.093 0.0879781 14.1067 0.110115 14.116C0.132251 14.1253 0.15603 14.1301 0.180051 14.1301H1.44226C1.53901 14.1301 1.62001 14.0536 1.62226 13.9569C1.66501 12.6519 2.19374 11.4302 3.12296 10.5032C3.78445 9.84174 4.59442 9.38275 5.47865 9.16001C5.56639 9.13751 5.62489 9.05426 5.61364 8.96427Z" fill="#5D5D5D"/>
</svg>
