<svg width="67" height="67" viewBox="0 0 67 67" fill="none" xmlns="http://www.w3.org/2000/svg">
<g filter="url(#filter0_d_406_5500)">
<circle cx="33.5" cy="33.5" r="29.5" fill="#FF6500"/>
</g>
<path d="M38 16C45.7467 16 52 22.2533 52 30C52 33.8267 50.4756 37.28 47.9867 39.8L52 44H38C30.2533 44 24 37.7467 24 30C24 22.2533 30.2533 16 38 16Z" fill="#FF6500"/>
<path d="M52.0625 45H38C29.7188 45 23 38.2812 23 30C23 21.7188 29.7188 15 38 15C46.2812 15 53 21.7188 53 30C53 33.6562 51.6875 37.125 49.3125 39.8438L52.7188 43.4062C52.9688 43.6875 53.0625 44.0625 52.9062 44.4375C52.75 44.8125 52.4375 45 52.0625 45ZM38 16.875C30.75 16.875 24.875 22.75 24.875 30C24.875 37.25 30.75 43.125 38 43.125H49.875L47.375 40.5C47.0312 40.125 47.0312 39.5625 47.375 39.1875C49.8125 36.7188 51.125 33.4375 51.125 30C51.125 22.75 45.25 16.875 38 16.875Z" fill="white"/>
<path d="M30 22C22.2533 22 16 28.2533 16 36C16 39.8267 17.5244 43.28 20.0133 45.8L16 50H30C37.7467 50 44 43.7467 44 36C44 28.2533 37.7467 22 30 22Z" fill="#FF6500"/>
<path d="M30.0069 51H15.9509C15.5761 51 15.2325 50.7812 15.0764 50.4375C14.9202 50.0937 15.0139 49.6875 15.2638 49.4062L18.6684 45.8438C16.3258 43.125 15.0139 39.6562 15.0139 36C15.0139 27.7188 21.7295 21 30.0069 21C38.2844 21 45 27.7188 45 36C45 44.2812 38.2844 51 30.0069 51ZM18.1374 49.125H30.0069C37.2536 49.125 43.1259 43.25 43.1259 36C43.1259 28.75 37.2536 22.875 30.0069 22.875C22.7603 22.875 16.888 28.75 16.888 36C16.888 39.4688 18.2311 42.7188 20.6363 45.1875C20.9799 45.5625 20.9799 46.125 20.6363 46.5L18.1374 49.125Z" fill="white"/>
<path d="M29.5 45C34.1944 45 38 41.1944 38 36.5C38 31.8056 34.1944 28 29.5 28C24.8056 28 21 31.8056 21 36.5C21 41.1944 24.8056 45 29.5 45Z" fill="white"/>
<path d="M34.0833 36.9231H24.9167C24.3972 36.9231 24 36.5231 24 36C24 35.4769 24.3972 35.0769 24.9167 35.0769H34.0833C34.6028 35.0769 35 35.4769 35 36C35 36.5231 34.6028 36.9231 34.0833 36.9231ZM31.0278 33.8462H24.9167C24.3972 33.8462 24 33.4462 24 32.9231C24 32.4 24.3972 32 24.9167 32H31.0278C31.5472 32 31.9444 32.4 31.9444 32.9231C31.9444 33.4462 31.5472 33.8462 31.0278 33.8462ZM34.0833 40H29.5C28.9806 40 28.5833 39.6 28.5833 39.0769C28.5833 38.5538 28.9806 38.1538 29.5 38.1538H34.0833C34.6028 38.1538 35 38.5538 35 39.0769C35 39.6 34.6028 40 34.0833 40Z" fill="#FF6500"/>
<path d="M25 40C25.5523 40 26 39.5523 26 39C26 38.4477 25.5523 38 25 38C24.4477 38 24 38.4477 24 39C24 39.5523 24.4477 40 25 40Z" fill="white"/>
<path d="M34.5 34C34.7761 34 35 33.5523 35 33C35 32.4477 34.7761 32 34.5 32C34.2239 32 34 32.4477 34 33C34 33.5523 34.2239 34 34.5 34Z" fill="white"/>
<defs>
<filter id="filter0_d_406_5500" x="0" y="0" width="67" height="67" filterUnits="userSpaceOnUse" color-interpolation-filters="sRGB">
<feFlood flood-opacity="0" result="BackgroundImageFix"/>
<feColorMatrix in="SourceAlpha" type="matrix" values="0 0 0 0 0 0 0 0 0 0 0 0 0 0 0 0 0 0 127 0" result="hardAlpha"/>
<feOffset/>
<feGaussianBlur stdDeviation="2"/>
<feComposite in2="hardAlpha" operator="out"/>
<feColorMatrix type="matrix" values="0 0 0 0 0 0 0 0 0 0 0 0 0 0 0 0 0 0 0.25 0"/>
<feBlend mode="normal" in2="BackgroundImageFix" result="effect1_dropShadow_406_5500"/>
<feBlend mode="normal" in="SourceGraphic" in2="effect1_dropShadow_406_5500" result="shape"/>
</filter>
</defs>
</svg>
