<svg width="21" height="19" viewBox="0 0 21 19" fill="none" xmlns="http://www.w3.org/2000/svg">
<path d="M18.9461 10.6287C19.6597 10.6125 20.2235 10.0422 20.2078 9.35242C20.1921 8.66268 19.603 8.11854 18.8894 8.13476L9.85951 8.34009C9.14598 8.35632 8.58219 8.92667 8.59787 9.61641C8.61356 10.3062 9.20269 10.8503 9.91622 10.8341L18.9461 10.6287ZM15.2464 5.07902C15.714 5.59863 16.5299 5.65026 17.0682 5.19745C17.6064 4.74464 17.6611 3.95583 17.1935 3.43622C15.373 1.41902 12.6664 0.166644 9.6752 0.234659C4.33384 0.356113 0.0955397 4.64376 0.212945 9.80707C0.330351 14.9704 4.75916 19.061 10.1005 18.9395C13.0917 18.8715 15.7385 17.4935 17.4654 15.3956C17.9089 14.8553 17.8144 14.0699 17.2602 13.6419C16.7059 13.2139 15.8893 13.3066 15.4457 13.843C14.1781 15.3885 12.2367 16.3918 10.0437 16.4416C6.12538 16.5307 2.87896 13.5322 2.79283 9.74451C2.70671 5.95678 5.81348 2.81384 9.73183 2.72474C11.9248 2.67488 13.9099 3.59276 15.2464 5.07512L15.2464 5.07902Z" fill="#FF7C5D"/>
</svg>
