<svg width="21" height="18" viewBox="0 0 21 18" fill="none" xmlns="http://www.w3.org/2000/svg">
<path fill-rule="evenodd" clip-rule="evenodd" d="M8.65648 4.67175C8.65648 2.09162 10.7481 0 13.3282 0C15.9084 0 18 2.09162 18 4.67175C18 7.25189 15.9084 9.34351 13.3282 9.34351C10.7481 9.34351 8.65648 7.25189 8.65648 4.67175ZM13.3282 1.64885C11.6587 1.64885 10.3053 3.00225 10.3053 4.67175C10.3053 6.34125 11.6587 7.69465 13.3282 7.69465C14.9977 7.69465 16.3511 6.34125 16.3511 4.67175C16.3511 3.00225 14.9977 1.64885 13.3282 1.64885Z" fill="#5D5D5D"/>
<path d="M3.70992 4.80917C4.16524 4.80917 4.53435 5.17827 4.53435 5.63359V7.69466H6.59542C7.05074 7.69466 7.41984 8.06377 7.41984 8.51909C7.41984 8.97441 7.05074 9.34352 6.59542 9.34352H4.53435V11.4046C4.53435 11.8599 4.16524 12.229 3.70992 12.229C3.2546 12.229 2.88549 11.8599 2.88549 11.4046V9.34352H0.824427C0.369109 9.34352 0 8.97441 0 8.51909C0 8.06377 0.369109 7.69466 0.824427 7.69466H2.88549V5.63359C2.88549 5.17827 3.2546 4.80917 3.70992 4.80917Z" fill="#5D5D5D"/>
<path fill-rule="evenodd" clip-rule="evenodd" d="M13.3282 10.5802C11.4189 10.5802 9.60315 10.8241 8.23283 11.4326C6.83924 12.0514 5.77099 13.127 5.77099 14.771C5.77099 15.2032 5.84985 15.6862 6.13736 16.1449C6.42483 16.6034 6.86983 16.9564 7.45789 17.2224C8.59208 17.7355 10.4295 18 13.3282 18C16.227 18 18.0644 17.7355 19.1986 17.2224C19.7866 16.9564 20.2316 16.6034 20.5191 16.1449C20.8066 15.6862 20.8855 15.2032 20.8855 14.771C20.8855 13.127 19.8172 12.0514 18.4236 11.4326C17.0533 10.8241 15.2376 10.5802 13.3282 10.5802ZM7.41984 14.771C7.41984 14.0104 7.85879 13.4028 8.902 12.9396C9.96848 12.466 11.5192 12.229 13.3282 12.229C15.1373 12.229 16.688 12.466 17.7545 12.9396C18.7977 13.4028 19.2366 14.0104 19.2366 14.771C19.2366 15.0028 19.1953 15.1523 19.1221 15.2691C19.0489 15.3859 18.8927 15.5511 18.519 15.7202C17.7295 16.0773 16.2005 16.3511 13.3282 16.3511C10.456 16.3511 8.927 16.0773 8.13753 15.7202C7.76375 15.5511 7.60761 15.3859 7.53439 15.2691C7.46121 15.1523 7.41984 15.0028 7.41984 14.771Z" fill="#5D5D5D"/>
</svg>
