<svg width="30" height="30" viewBox="0 0 30 30" fill="none" xmlns="http://www.w3.org/2000/svg">
<circle cx="15" cy="15" r="15" fill="#F5821F"/>
<path d="M19.248 12.3309C18.8995 12.3294 18.558 12.4294 18.2653 12.6186V9.94433C18.2651 9.61281 18.1747 9.28761 18.0036 9.00363C17.8326 8.71965 17.5874 8.48763 17.2944 8.33249C17.0014 8.17734 16.6717 8.10493 16.3407 8.12303C16.0097 8.14112 15.6898 8.24905 15.4155 8.43521C15.3195 7.99583 15.0645 7.6074 14.6997 7.34444C14.3348 7.08148 13.8857 6.96251 13.4385 7.01036C12.9913 7.05822 12.5775 7.26952 12.2765 7.60372C11.9756 7.93793 11.8086 8.37151 11.8077 8.82126V9.5302C11.515 9.34099 11.1735 9.24101 10.825 9.24241C10.3415 9.24426 9.87842 9.43713 9.53657 9.77898C9.19472 10.1208 9.00185 10.584 9 11.0674V16.9635C9 18.5645 9.63599 20.0999 10.768 21.232C11.9001 22.364 13.4355 23 15.0365 23C16.6375 23 18.1729 22.364 19.3049 21.232C20.437 20.0999 21.073 18.5645 21.073 16.9635V14.1558C21.0711 13.6724 20.8783 13.2093 20.5364 12.8674C20.1946 12.5256 19.7314 12.3327 19.248 12.3309ZM20.2307 16.9635C20.2307 18.3411 19.6834 19.6623 18.7093 20.6364C17.7352 21.6105 16.4141 22.1577 15.0365 22.1577C13.6589 22.1577 12.3377 21.6105 11.3636 20.6364C10.3895 19.6623 9.8423 18.3411 9.8423 16.9635V11.0674C9.8423 10.8068 9.94583 10.5568 10.1301 10.3725C10.3144 10.1882 10.5644 10.0847 10.825 10.0847C11.0856 10.0847 11.3356 10.1882 11.5198 10.3725C11.7041 10.5568 11.8077 10.8068 11.8077 11.0674V14.1558C11.8077 14.2675 11.852 14.3747 11.931 14.4536C12.01 14.5326 12.1171 14.577 12.2288 14.577C12.3405 14.577 12.4476 14.5326 12.5266 14.4536C12.6056 14.3747 12.65 14.2675 12.65 14.1558V8.82126C12.65 8.56064 12.7535 8.31069 12.9378 8.1264C13.1221 7.94211 13.372 7.83858 13.6327 7.83858C13.8933 7.83858 14.1432 7.94211 14.3275 8.1264C14.5118 8.31069 14.6153 8.56064 14.6153 8.82126V13.5943C14.6153 13.706 14.6597 13.8131 14.7387 13.8921C14.8177 13.9711 14.9248 14.0155 15.0365 14.0155C15.1482 14.0155 15.2553 13.9711 15.3343 13.8921C15.4133 13.8131 15.4576 13.706 15.4576 13.5943V9.94433C15.4576 9.68371 15.5612 9.43376 15.7455 9.24947C15.9298 9.06518 16.1797 8.96164 16.4403 8.96164C16.701 8.96164 16.9509 9.06518 17.1352 9.24947C17.3195 9.43376 17.423 9.68371 17.423 9.94433V15.1666C16.647 15.2702 15.9349 15.6516 15.4186 16.2402C14.9023 16.8287 14.6169 17.5845 14.6153 18.3673C14.6153 18.479 14.6597 18.5862 14.7387 18.6651C14.8177 18.7441 14.9248 18.7885 15.0365 18.7885C15.1482 18.7885 15.2553 18.7441 15.3343 18.6651C15.4133 18.5862 15.4576 18.479 15.4576 18.3673C15.4595 17.735 15.7115 17.129 16.1587 16.6819C16.6058 16.2347 17.2118 15.9827 17.8442 15.9808C17.9559 15.9808 18.063 15.9365 18.142 15.8575C18.2209 15.7785 18.2653 15.6714 18.2653 15.5597V14.1558C18.2653 13.8952 18.3688 13.6453 18.5531 13.461C18.7374 13.2767 18.9874 13.1732 19.248 13.1732C19.5086 13.1732 19.7586 13.2767 19.9429 13.461C20.1272 13.6453 20.2307 13.8952 20.2307 14.1558V16.9635Z" fill="white"/>
</svg>
