<svg width="67" height="67" viewBox="0 0 67 67" fill="none" xmlns="http://www.w3.org/2000/svg">
<g filter="url(#filter0_d_406_5484)">
<circle cx="33.5" cy="33.5" r="29.5" fill="#FF6500"/>
</g>
<g clip-path="url(#clip0_406_5484)">
<path d="M32.9999 56.1999C45.475 56.1999 55.5881 46.0868 55.5881 33.6117C55.5881 21.1365 45.475 11.0234 32.9999 11.0234C20.5247 11.0234 10.4116 21.1365 10.4116 33.6117C10.4116 46.0868 20.5247 56.1999 32.9999 56.1999Z" fill="#FDDA7F"/>
<path d="M51.9884 28.8824L33.6355 20.5529C33.2472 20.3765 32.7531 20.5529 32.5767 20.9412L20.5061 47.5529C20.3296 47.9412 20.5061 48.4353 20.8943 48.6118L39.2472 56.9412C39.6355 57.1176 40.1296 56.9412 40.3061 56.5529L52.3767 29.9412C52.5531 29.5176 52.3767 29.0588 51.9884 28.8824Z" fill="#464E58"/>
<path d="M51.2841 29.7523L39.4366 55.8491L21.5996 47.7513L33.4471 21.6548L51.2841 29.7523Z" fill="#F37C5A"/>
<path d="M45.4237 20.9766L25.4826 18.1178C25.059 18.0472 24.6355 18.3648 24.6002 18.7883L20.4708 47.6942C20.4002 48.1178 20.7178 48.5413 21.1414 48.5766L41.0826 51.4354C41.5061 51.506 41.9296 51.1884 41.9649 50.7648L46.0943 21.8589C46.1649 21.4354 45.8473 21.0472 45.4237 20.9766Z" fill="#7CCEDC"/>
<path d="M45.0059 22.0072L40.9534 50.3794L21.561 47.6095L25.6135 19.2373L45.0059 22.0072Z" fill="#F2F2F2"/>
<path d="M33.7412 13.7762L14.153 18.5056C13.7295 18.6115 13.4824 19.0351 13.553 19.4586L20.4 47.8704C20.5059 48.2939 20.9295 48.5409 21.353 48.4704L40.9412 43.7409C41.3647 43.6351 41.6118 43.2115 41.5412 42.788L34.6942 14.3762C34.6236 13.9527 34.1647 13.6704 33.7412 13.7762Z" fill="#F37C5A"/>
<path d="M33.7228 14.8926L40.4323 42.7548L21.3883 47.3406L14.6792 19.4783L33.7228 14.8926Z" fill="#F2F2F2"/>
<path d="M21.3893 47.3353L19.6377 40.0612L38.6813 35.4751L40.433 42.7492L21.3893 47.3353Z" fill="#7CCEDC"/>
<path d="M26.4352 31.2825C29.1446 31.2825 31.3411 29.086 31.3411 26.3766C31.3411 23.6671 29.1446 21.4707 26.4352 21.4707C23.7257 21.4707 21.5293 23.6671 21.5293 26.3766C21.5293 29.086 23.7257 31.2825 26.4352 31.2825Z" fill="#FDDA7F"/>
<path d="M24.5998 18.7529C25.0586 19.5293 23.8234 20.694 24.2822 21.4352C24.9175 21.294 25.5175 21.1529 26.1528 20.9764C25.0586 20.4117 25.6586 19.3881 24.5998 18.7529ZM28.2351 33.9999C27.7763 33.2234 29.0116 32.0587 28.5528 31.3176C27.9175 31.4587 27.3175 31.5999 26.6822 31.7764C27.7763 32.3764 27.1763 33.3999 28.2351 33.9999ZM34.0586 24.5764C33.2822 25.0352 32.1175 23.7999 31.3763 24.2587C31.5175 24.894 31.6586 25.494 31.8351 26.1293C32.3998 25.0352 33.4234 25.6352 34.0586 24.5764ZM18.8116 28.2117C19.5881 27.7529 20.7528 28.9881 21.4939 28.5293C21.3528 27.894 21.2116 27.294 21.0351 26.6587C20.4351 27.7529 19.4116 27.1529 18.8116 28.2117ZM30.5292 19.7058C30.3175 20.5529 28.6234 20.5176 28.3763 21.3646C28.9057 21.6823 29.4704 22.0352 29.9998 22.3529C29.6822 21.1881 30.8469 20.9058 30.5292 19.7058ZM22.3057 33.047C22.5175 32.1999 24.2116 32.2352 24.4586 31.3881C23.9292 31.0705 23.3645 30.7176 22.8351 30.3999C23.1528 31.5999 21.9881 31.8823 22.3057 33.047ZM33.1057 30.5058C32.2586 30.294 32.2939 28.5999 31.4469 28.3529C31.1292 28.8823 30.7763 29.447 30.4586 29.9764C31.6234 29.6587 31.9057 30.8234 33.1057 30.5058ZM19.7645 22.2823C20.6116 22.494 20.5763 24.1881 21.4234 24.4352C21.741 23.9058 22.0939 23.3411 22.4116 22.8117C21.2116 23.1293 20.9292 21.9646 19.7645 22.2823ZM21.8116 20.0234C22.5175 20.5529 21.8469 22.1058 22.5528 22.6352C23.0822 22.247 23.5763 21.894 24.1057 21.5058C22.8704 21.3646 23.0469 20.1999 21.8116 20.0234ZM31.0234 32.7293C30.3175 32.1999 30.9881 30.647 30.2822 30.1176C29.7528 30.5058 29.2586 30.8587 28.7292 31.247C29.9645 31.3881 29.7881 32.5881 31.0234 32.7293ZM32.7881 21.7881C32.2586 22.494 30.7057 21.8234 30.1763 22.5293C30.5645 23.0587 30.9175 23.5529 31.3057 24.0823C31.4469 22.847 32.6116 23.0234 32.7881 21.7881ZM20.0822 30.9999C20.6116 30.294 22.1645 30.9646 22.6939 30.2587C22.3057 29.7293 21.9528 29.2352 21.5645 28.7058C21.4234 29.9411 20.2234 29.7646 20.0822 30.9999ZM27.6704 18.647C27.7763 19.5293 26.2234 20.1293 26.3292 21.0117C26.9645 21.1176 27.5998 21.2234 28.1998 21.294C27.4586 20.3411 28.4116 19.6352 27.6704 18.647ZM25.1998 34.1411C25.0939 33.2587 26.6469 32.6587 26.541 31.7764C25.9057 31.6705 25.2704 31.5646 24.6704 31.494C25.3763 32.447 24.4586 33.1529 25.1998 34.1411ZM34.1645 27.6117C33.2822 27.7176 32.6822 26.1646 31.7998 26.2705C31.6939 26.9058 31.5881 27.5411 31.5175 28.1411C32.4704 27.4352 33.1763 28.3529 34.1645 27.6117ZM18.6704 25.1411C19.5528 25.0352 20.1528 26.5881 21.0351 26.4823C21.141 25.847 21.2469 25.2117 21.3175 24.6117C20.3645 25.3529 19.6586 24.3999 18.6704 25.1411Z" fill="#FDDA7F"/>
<path d="M27.2117 25.8116H27.1764C27.1411 26.0939 27.1058 27.2234 27.7411 28.2822C27.8117 28.4234 27.8469 28.5645 27.8117 28.7057C27.7764 28.8469 27.6705 29.0234 27.4587 29.0586C27.4587 29.0586 27.4234 29.2704 27.1764 29.341C26.894 29.3763 26.7881 29.1998 26.7881 29.1998C26.5764 29.2704 26.3999 29.1645 26.294 29.0586C26.1881 28.9528 26.1528 28.8116 26.1528 28.6351C26.2234 27.4351 25.6587 26.4469 25.5175 26.1998H25.4822C25.7293 26.6234 26.1528 27.6116 26.0822 28.741C26.0822 28.9175 26.1175 29.0939 26.2234 29.1998C26.3293 29.3057 26.5058 29.4116 26.7528 29.3763C26.7528 29.3763 26.894 29.5881 27.2117 29.5175C27.494 29.4469 27.5293 29.1998 27.5293 29.1998C27.7764 29.1645 27.8822 28.9881 27.9175 28.8116C27.9528 28.6351 27.9175 28.4939 27.847 28.3175C27.247 27.3645 27.2117 26.3057 27.2117 25.8116ZM27.247 25.2116C27.247 25.2116 27.2822 23.6939 28.9058 24.0469C28.9058 24.0469 27.7411 23.941 27.247 25.2116ZM25.1646 25.7057C25.1646 25.7057 24.4587 24.3998 23.1528 25.4234C23.1881 25.4586 24.1411 24.7881 25.1646 25.7057Z" fill="#F7BB52"/>
</g>
<defs>
<filter id="filter0_d_406_5484" x="0" y="0" width="67" height="67" filterUnits="userSpaceOnUse" color-interpolation-filters="sRGB">
<feFlood flood-opacity="0" result="BackgroundImageFix"/>
<feColorMatrix in="SourceAlpha" type="matrix" values="0 0 0 0 0 0 0 0 0 0 0 0 0 0 0 0 0 0 127 0" result="hardAlpha"/>
<feOffset/>
<feGaussianBlur stdDeviation="2"/>
<feComposite in2="hardAlpha" operator="out"/>
<feColorMatrix type="matrix" values="0 0 0 0 0 0 0 0 0 0 0 0 0 0 0 0 0 0 0.25 0"/>
<feBlend mode="normal" in2="BackgroundImageFix" result="effect1_dropShadow_406_5484"/>
<feBlend mode="normal" in="SourceGraphic" in2="effect1_dropShadow_406_5484" result="shape"/>
</filter>
<clipPath id="clip0_406_5484">
<rect width="48" height="48" fill="white" transform="translate(9 10)"/>
</clipPath>
</defs>
</svg>
