<svg width="24" height="24" viewBox="0 0 24 24" fill="none" xmlns="http://www.w3.org/2000/svg">
<path d="M13.5 2.75H10.5C9.5335 2.75 8.75 3.5335 8.75 4.5C8.75 5.4665 9.5335 6.25 10.5 6.25H13.5C14.4665 6.25 15.25 5.4665 15.25 4.5C15.25 3.5335 14.4665 2.75 13.5 2.75Z" stroke="#5D5D5D" stroke-width="1.5"/>
<path fill-rule="evenodd" clip-rule="evenodd" d="M8.04646 4.03296C8.01596 4.19373 8 4.35965 8 4.5293C8 4.88274 8.06927 5.22 8.19498 5.52825C7.66343 5.54739 7.20914 5.5794 6.81078 5.63296C5.88786 5.75704 5.49287 5.97149 5.23223 6.23212C4.9716 6.49275 4.75715 6.88775 4.63307 7.81067C4.50319 8.77674 4.5 10.0719 4.5 11.9999V13.9999C4.5 15.9279 4.50319 17.223 4.63307 18.1891C4.75715 19.112 4.9716 19.507 5.23223 19.7677C5.49287 20.0283 5.88786 20.2428 6.81078 20.3668C7.77686 20.4967 9.07198 20.4999 11 20.4999H13C14.928 20.4999 16.2231 20.4967 17.1892 20.3668C18.1121 20.2428 18.5071 20.0283 18.7678 19.7677C19.0284 19.507 19.2428 19.112 19.3669 18.1891C19.4968 17.223 19.5 15.9279 19.5 13.9999V11.9999C19.5 10.0719 19.4968 8.77674 19.3669 7.81067C19.2428 6.88775 19.0284 6.49275 18.7678 6.23212C18.5071 5.97149 18.1121 5.75704 17.1892 5.63296C16.7909 5.5794 16.3366 5.54739 15.805 5.52825C15.9307 5.22 16 4.88274 16 4.5293C16 4.35965 15.984 4.19373 15.9535 4.03296C17.8533 4.10851 19.0136 4.35662 19.8284 5.17146C21 6.34303 21 8.22865 21 11.9999V13.9999C21 17.7711 21 19.6568 19.8284 20.8283C18.6569 21.9999 16.7712 21.9999 13 21.9999H11C7.22876 21.9999 5.34315 21.9999 4.17157 20.8283C3 19.6568 3 17.7711 3 13.9999V11.9999C3 8.22865 3 6.34303 4.17157 5.17146C4.98641 4.35662 6.14665 4.10851 8.04646 4.03296Z" fill="#5D5D5D"/>
<path d="M10 13.5L11.5 15L14.5 12" stroke="#5D5D5D" stroke-width="1.5" stroke-linecap="round" stroke-linejoin="round"/>
</svg>
