<svg width="19" height="20" viewBox="0 0 19 20" fill="none" xmlns="http://www.w3.org/2000/svg">
<path d="M5.8872 1.98855C4.41335 2.35653 2.92076 2.79156 2.03737 3.05706C1.79432 3.13011 1.62365 3.32396 1.5916 3.54548C0.839915 8.74111 2.57672 12.5333 4.64909 15.0304C5.68955 16.284 6.81533 17.2113 7.75384 17.8209C8.22348 18.1259 8.63865 18.3465 8.96489 18.4879C9.12822 18.5588 9.2618 18.6065 9.36326 18.6354C9.44681 18.6593 9.48979 18.6649 9.5 18.6663C9.51022 18.6649 9.55319 18.6593 9.63675 18.6354C9.73821 18.6065 9.87179 18.5588 10.0351 18.4879C10.3614 18.3465 10.7765 18.1259 11.2462 17.8209C12.1847 17.2113 13.3104 16.284 14.3509 15.0304C16.4233 12.5333 18.1601 8.74111 17.4084 3.54548C17.3764 3.32396 17.2057 3.13011 16.9626 3.05706C16.0792 2.79156 14.5867 2.35653 13.1128 1.98855C11.6059 1.61231 10.2204 1.33333 9.5 1.33333C8.77956 1.33333 7.39413 1.61231 5.8872 1.98855ZM5.52582 0.699566C6.99931 0.331679 8.56426 0 9.5 0C10.4357 0 12.0007 0.331679 13.4742 0.699566C14.9807 1.07571 16.4986 1.51826 17.3914 1.7866C18.1365 2.01054 18.7001 2.61699 18.8083 3.36512C19.618 8.96177 17.7405 13.1086 15.4633 15.8525C14.3289 17.2193 13.0961 18.238 12.0472 18.9192C11.5232 19.2596 11.0375 19.5207 10.625 19.6995C10.2439 19.8648 9.83617 20 9.5 20C9.16383 20 8.7561 19.8648 8.37499 19.6995C7.96253 19.5207 7.47682 19.2596 6.95277 18.9192C5.90389 18.238 4.67105 17.2193 3.53672 15.8525C1.25948 13.1086 -0.618032 8.96177 0.191672 3.36512C0.299908 2.61699 0.863486 2.01055 1.60859 1.7866C2.50144 1.51826 4.01926 1.07571 5.52582 0.699566Z" fill="#5D5D5D"/>
</svg>
