<svg width="18" height="20" viewBox="0 0 18 20" fill="none" xmlns="http://www.w3.org/2000/svg">
<path d="M2 20C0.895429 20 0 19.1046 0 18V7.66667C0 7.03715 0.296388 6.44438 0.8 6.06667L7.68889 0.9C8.4 0.366666 9.37778 0.366667 10.0889 0.9L16.9778 6.06667C17.4814 6.44438 17.7778 7.03715 17.7778 7.66667V18C17.7778 19.1046 16.8823 20 15.7778 20H13.1111C12.0065 20 11.1111 19.1046 11.1111 18V14.2222C11.1111 13.1177 10.2157 12.2222 9.11111 12.2222H8.66667C7.5621 12.2222 6.66667 13.1177 6.66667 14.2222V18C6.66667 19.1046 5.77124 20 4.66667 20H2Z" fill="#FC7601"/>
</svg>
