<svg width="60" height="60" viewBox="0 0 60 60" fill="none" xmlns="http://www.w3.org/2000/svg">
<circle cx="30" cy="30" r="30" fill="#FC7601"/>
<path d="M14 22.202L29.6824 14M14 22.202V38.2569M14 22.202L29.6824 21.3294M14 22.202L20.5647 34.2432M29.6824 14L45 22.202M29.6824 14V21.3294M45 22.202V38.2569M45 22.202L29.6824 21.3294M45 22.202L38.6176 34.2432M45 38.2569L29.6824 45.6736M45 38.2569L38.6176 34.2432M29.6824 45.6736L14 38.2569M29.6824 45.6736L20.5647 34.2432M29.6824 45.6736L38.6176 34.2432M14 38.2569L20.5647 34.2432M29.6824 21.3294L38.6176 34.2432M29.6824 21.3294L20.5647 34.2432M38.6176 34.2432H20.5647" stroke="#ffffff" stroke-width="1.5"/>
<path d="M19.608 28.2488L21.3318 24.8377V24.8093H19.3237V24.0906H22.2414V24.8195L20.5156 28.2488H19.608Z" fill="#ffffff"/>
<path d="M25.7762 31.9437V31.3897L27.0706 30.1912C27.1807 30.0846 27.273 29.9888 27.3476 29.9035C27.4233 29.8183 27.4807 29.7349 27.5198 29.6532C27.5589 29.5703 27.5784 29.481 27.5784 29.3851C27.5784 29.2785 27.5541 29.1868 27.5056 29.1099C27.4571 29.0317 27.3908 28.972 27.3067 28.9305C27.2227 28.8879 27.1274 28.8666 27.0209 28.8666C26.9096 28.8666 26.8125 28.8891 26.7297 28.9341C26.6468 28.9791 26.5829 29.0436 26.5379 29.1276C26.4929 29.2117 26.4704 29.3117 26.4704 29.4277H25.7407C25.7407 29.1898 25.7945 28.9832 25.9023 28.808C26.01 28.6328 26.1609 28.4973 26.355 28.4014C26.5492 28.3055 26.7729 28.2576 27.0262 28.2576C27.2866 28.2576 27.5133 28.3037 27.7062 28.3961C27.9004 28.4872 28.0513 28.6139 28.159 28.7761C28.2667 28.9382 28.3206 29.1241 28.3206 29.3336C28.3206 29.4709 28.2934 29.6064 28.2389 29.7402C28.1856 29.8739 28.0903 30.0225 27.953 30.1859C27.8157 30.348 27.6222 30.5427 27.3724 30.77L26.8415 31.2903V31.3151H28.3685V31.9437H25.7762ZM30.3514 32.0236C30.046 32.0224 29.7832 31.9472 29.563 31.7981C29.344 31.6489 29.1754 31.4329 29.057 31.15C28.9398 30.8671 28.8818 30.5268 28.883 30.129C28.883 29.7325 28.9416 29.3945 29.0588 29.1152C29.1771 28.8358 29.3458 28.6234 29.5648 28.4778C29.785 28.331 30.0472 28.2576 30.3514 28.2576C30.6556 28.2576 30.9172 28.331 31.1362 28.4778C31.3564 28.6245 31.5256 28.8376 31.644 29.117C31.7624 29.3951 31.821 29.7325 31.8198 30.129C31.8198 30.5279 31.7606 30.8689 31.6422 31.1518C31.525 31.4347 31.3569 31.6507 31.138 31.7998C30.919 31.949 30.6568 32.0236 30.3514 32.0236ZM30.3514 31.3861C30.5597 31.3861 30.726 31.2814 30.8503 31.0719C30.9746 30.8623 31.0362 30.5481 31.035 30.129C31.035 29.8532 31.0066 29.6236 30.9498 29.4401C30.8941 29.2566 30.8148 29.1187 30.7118 29.0264C30.61 28.9341 30.4899 28.8879 30.3514 28.8879C30.1442 28.8879 29.9785 28.9915 29.8542 29.1986C29.7299 29.4058 29.6672 29.7159 29.666 30.129C29.666 30.4084 29.6938 30.6416 29.7495 30.8286C29.8063 31.0145 29.8862 31.1541 29.9892 31.2476C30.0922 31.34 30.2129 31.3861 30.3514 31.3861Z" fill="#ffffff"/>
<path d="M36.7687 28.2488V27.6154L38.2489 26.2448C38.3747 26.123 38.4803 26.0134 38.5656 25.9159C38.6522 25.8184 38.7179 25.723 38.7626 25.6296C38.8072 25.5349 38.8296 25.4327 38.8296 25.323C38.8296 25.2012 38.8018 25.0963 38.7463 25.0083C38.6908 24.919 38.615 24.8506 38.5189 24.8032C38.4228 24.7545 38.3138 24.7301 38.192 24.7301C38.0648 24.7301 37.9538 24.7559 37.859 24.8073C37.7643 24.8587 37.6912 24.9325 37.6397 25.0286C37.5883 25.1247 37.5626 25.2391 37.5626 25.3717H36.7281C36.7281 25.0997 36.7897 24.8635 36.9128 24.6631C37.036 24.4628 37.2086 24.3078 37.4306 24.1982C37.6526 24.0885 37.9084 24.0337 38.1981 24.0337C38.4959 24.0337 38.7551 24.0865 38.9758 24.1921C39.1977 24.2963 39.3703 24.4411 39.4935 24.6266C39.6167 24.812 39.6783 25.0245 39.6783 25.2641C39.6783 25.4211 39.6471 25.5761 39.5849 25.7291C39.524 25.8821 39.415 26.0519 39.258 26.2387C39.101 26.4242 38.8796 26.6468 38.594 26.9067L37.9869 27.5016V27.5301H39.7331V28.2488H36.7687Z" fill="#ffffff"/>
<path d="M28.3659 35.9573V40.1156H27.4867V36.7918H27.4623L26.5101 37.3888V36.6091L27.5395 35.9573H28.3659ZM31.1633 35.9573V40.1156H30.2841V36.7918H30.2597L29.3075 37.3888V36.6091L30.3369 35.9573H31.1633Z" fill="#ffffff"/>
</svg>
