<svg width="17" height="16" viewBox="0 0 17 16" fill="none" xmlns="http://www.w3.org/2000/svg">
<path d="M14.4751 15.7496L9.37696 10.6515C8.92176 11.0156 8.39829 11.3039 7.80654 11.5164C7.21479 11.7288 6.58511 11.835 5.9175 11.835C4.26363 11.835 2.86407 11.2624 1.71881 10.1171C0.572935 8.97123 0 7.57136 0 5.9175C0 4.26363 0.572935 2.86376 1.71881 1.71789C2.86407 0.572632 4.26363 0 5.9175 0C7.57136 0 8.97123 0.572632 10.1171 1.71789C11.2624 2.86376 11.835 4.26363 11.835 5.9175C11.835 6.58511 11.7288 7.21479 11.5164 7.80654C11.3039 8.39829 11.0156 8.92176 10.6515 9.37696L15.7724 14.4979C15.9393 14.6648 16.0228 14.8696 16.0228 15.1124C16.0228 15.3551 15.9317 15.5676 15.7496 15.7496C15.5827 15.9165 15.3703 16 15.1124 16C14.8544 16 14.642 15.9165 14.4751 15.7496ZM5.9175 10.0142C7.05548 10.0142 8.02291 9.61608 8.8198 8.8198C9.61608 8.02291 10.0142 7.05548 10.0142 5.9175C10.0142 4.77952 9.61608 3.81208 8.8198 3.01519C8.02291 2.21891 7.05548 1.82077 5.9175 1.82077C4.77952 1.82077 3.81208 2.21891 3.01519 3.01519C2.21891 3.81208 1.82077 4.77952 1.82077 5.9175C1.82077 7.05548 2.21891 8.02291 3.01519 8.8198C3.81208 9.61608 4.77952 10.0142 5.9175 10.0142Z" fill="#ffffff"/>
</svg>
