<svg width="25" height="18" viewBox="0 0 25 18" fill="none" xmlns="http://www.w3.org/2000/svg">
<path d="M16.875 0C17.1734 0 17.4595 0.118527 17.6705 0.329505C17.8815 0.540484 18 0.826631 18 1.125V5.85L23.8646 1.74375C23.949 1.68464 24.0479 1.64981 24.1507 1.64306C24.2534 1.63632 24.3561 1.65791 24.4474 1.70549C24.5387 1.75307 24.6152 1.82482 24.6686 1.9129C24.722 2.00098 24.7501 2.10202 24.75 2.205V15.795C24.7501 15.898 24.722 15.999 24.6686 16.0871C24.6152 16.1752 24.5387 16.2469 24.4474 16.2945C24.3561 16.3421 24.2534 16.3637 24.1507 16.3569C24.0479 16.3502 23.949 16.3154 23.8646 16.2563L18 12.15V16.875C18 17.1734 17.8815 17.4595 17.6705 17.6705C17.4595 17.8815 17.1734 18 16.875 18H1.125C0.826631 18 0.540483 17.8815 0.329505 17.6705C0.118526 17.4595 0 17.1734 0 16.875V1.125C0 0.826631 0.118526 0.540484 0.329505 0.329505C0.540483 0.118527 0.826631 0 1.125 0H16.875ZM7.2 5.43263C7.09626 5.4326 6.9957 5.46843 6.91534 5.53403C6.83498 5.59963 6.77975 5.69098 6.759 5.79263L6.75 5.8815V12.1163C6.74999 12.1891 6.76768 12.2609 6.80155 12.3254C6.83541 12.39 6.88444 12.4453 6.94442 12.4867C7.0044 12.5281 7.07354 12.5543 7.14588 12.563C7.21823 12.5718 7.29162 12.5629 7.35975 12.537L7.44187 12.4965L12.3413 9.378C12.3984 9.34143 12.4466 9.2924 12.4821 9.23458C12.5176 9.17677 12.5396 9.11166 12.5465 9.04414C12.5533 8.97662 12.5447 8.90843 12.5215 8.84468C12.4982 8.78093 12.4608 8.72326 12.4121 8.676L12.3413 8.61975L7.44187 5.50125C7.36929 5.45625 7.2854 5.43172 7.2 5.43263Z" fill="#ffffff"/>
</svg>
