<svg width="14" height="11" viewBox="0 0 14 11" fill="none" xmlns="http://www.w3.org/2000/svg">
<path d="M10.1636 5.25455V8.50909C10.1636 9.06138 9.71592 9.50909 9.16364 9.50909H2C1.44772 9.50909 1 9.06138 1 8.50909V2C1 1.44772 1.44772 1 2 1H9.16364C9.71592 1 10.1636 1.44771 10.1636 2V5.25455ZM10.1636 5.25455L13 1.87273V8.63636L10.1636 5.25455ZM5.87854 6.02364V6.02364C5.27447 6.40118 4.49091 5.9669 4.49091 5.25455V5.25455C4.49091 4.54219 5.27447 4.10791 5.87854 4.48545V4.48545C6.4469 4.84068 6.4469 5.66842 5.87854 6.02364Z" stroke="white"/>
</svg>
