<?xml version="1.0" encoding="UTF-8"?>
<svg version="1.1" xmlns="http://www.w3.org/2000/svg" width="1080" height="1080">
<path d="M0 0 C2.77002294 0.00460983 5.53960438 -0.00223422 8.30957031 -0.02050781 C34.19827107 -0.18934925 59.84840898 1.39238404 85.42626953 5.62817383 C86.06851471 5.73205414 86.71075989 5.83593445 87.37246704 5.94296265 C153.36587988 16.63333808 217.07334691 39.47645236 274.17626953 74.31567383 C276.01449626 75.41906327 277.85303483 76.52193335 279.69189453 77.62426758 C290.52411665 84.16940802 300.90727858 91.16842422 311.05175781 98.73364258 C313.14624836 100.29331837 315.25170329 101.83704301 317.35986328 103.37817383 C325.16952368 109.12002376 332.64000871 115.13674725 339.93798828 121.51489258 C342.82645296 124.0349437 345.79896027 126.43186605 348.80126953 128.81567383 C353.43061744 132.56551381 357.631246 136.61399094 361.76660156 140.8918457 C364.43377551 143.63865077 367.17489152 146.20938705 370.08251953 148.70239258 C374.16223204 152.23173288 377.83805088 156.03713492 381.48876953 160.00317383 C382.13539551 160.70015381 382.78202148 161.39713379 383.44824219 162.11523438 C384.75119779 163.52115667 386.0523445 164.92875781 387.3515625 166.33813477 C388.98633155 168.1098272 390.6283714 169.87431965 392.27392578 171.63598633 C398.1830198 177.98497843 403.77635041 184.52904078 409.17626953 191.31567383 C409.79405273 192.08403564 409.79405273 192.08403564 410.42431641 192.86791992 C467.56474694 263.94975625 505.3692233 349.08571114 521.42626953 450.25317383 C521.65310425 451.84705933 521.65310425 451.84705933 521.88452148 453.47314453 C522.36546436 457.08252443 522.78830923 460.69536636 523.17626953 464.31567383 C523.2634726 465.1209552 523.35067566 465.92623657 523.44052124 466.75592041 C525.160762 483.20840673 525.52169256 499.61338902 525.49194336 516.1394043 C525.48733353 518.90942724 525.49417757 521.67900868 525.51245117 524.44897461 C525.68129261 550.33767537 524.09955932 575.98781327 519.86376953 601.56567383 C519.75988922 602.20791901 519.65600891 602.85016418 519.54898071 603.51187134 C508.85860528 669.50528418 486.015491 733.2127512 451.17626953 790.31567383 C450.07288009 792.15390055 448.97001001 793.99243913 447.86767578 795.83129883 C441.32253534 806.66352094 434.32351914 817.04668287 426.75830078 827.19116211 C425.19862499 829.28565266 423.65490035 831.39110759 422.11376953 833.49926758 C416.3719196 841.30892797 410.3551961 848.77941301 403.97705078 856.07739258 C401.45699966 858.96585726 399.06007731 861.93836457 396.67626953 864.94067383 C392.92642955 869.57002174 388.87795242 873.77065029 384.60009766 877.90600586 C381.85329259 880.57317981 379.28255631 883.31429582 376.78955078 886.22192383 C373.26021048 890.30163633 369.45480844 893.97745517 365.48876953 897.62817383 C364.79178955 898.2747998 364.09480957 898.92142578 363.37670898 899.58764648 C361.97078669 900.89060209 360.56318555 902.1917488 359.15380859 903.4909668 C357.38211616 905.12573584 355.61762371 906.7677757 353.85595703 908.41333008 C347.50696493 914.32242409 340.96290258 919.9157547 334.17626953 925.31567383 C333.66402832 925.7275293 333.15178711 926.13938477 332.62402344 926.5637207 C261.54218711 983.70415124 176.40623222 1021.50862759 75.23876953 1037.56567383 C74.1761792 1037.71689697 73.11358887 1037.86812012 72.01879883 1038.02392578 C68.40941893 1038.50486866 64.796577 1038.92771353 61.17626953 1039.31567383 C59.96834747 1039.44647842 59.96834747 1039.44647842 58.73602295 1039.57992554 C42.28353663 1041.3001663 25.87855434 1041.66109686 9.35253906 1041.63134766 C6.58251612 1041.62673783 3.81293468 1041.63358187 1.04296875 1041.65185547 C-24.84573201 1041.82069691 -50.49586991 1040.23896362 -76.07373047 1036.00317383 C-76.71597565 1035.89929352 -77.35822083 1035.79541321 -78.01992798 1035.68838501 C-144.01334082 1024.99800958 -207.72080785 1002.15489529 -264.82373047 967.31567383 C-266.66195719 966.21228439 -268.50049577 965.1094143 -270.33935547 964.00708008 C-281.17157759 957.46193963 -291.55473952 950.46292343 -301.69921875 942.89770508 C-303.7937093 941.33802928 -305.89916423 939.79430465 -308.00732422 938.25317383 C-315.81698462 932.51132389 -323.28746965 926.4946004 -330.58544922 920.11645508 C-333.4739139 917.59640396 -336.44642121 915.19948161 -339.44873047 912.81567383 C-344.07807838 909.06583384 -348.27870693 905.01735672 -352.4140625 900.73950195 C-355.08123645 897.99269689 -357.82235246 895.4219606 -360.72998047 892.92895508 C-364.80969297 889.39961478 -368.48551181 885.59421274 -372.13623047 881.62817383 C-372.78285645 880.93119385 -373.42948242 880.23421387 -374.09570312 879.51611328 C-375.39865873 878.11019099 -376.69980544 876.70258984 -377.99902344 875.29321289 C-379.63379249 873.52152045 -381.27583234 871.75702801 -382.92138672 869.99536133 C-388.83048073 863.64636922 -394.42381134 857.10230688 -399.82373047 850.31567383 C-400.23558594 849.80343262 -400.64744141 849.29119141 -401.07177734 848.76342773 C-458.21220788 777.6815914 -496.01668423 692.54563652 -512.07373047 591.37817383 C-512.30056519 589.78428833 -512.30056519 589.78428833 -512.53198242 588.15820312 C-513.0129253 584.54882323 -513.43577017 580.9359813 -513.82373047 577.31567383 C-513.95453506 576.10775177 -513.95453506 576.10775177 -514.08798218 574.87542725 C-515.80822294 558.42294093 -516.1691535 542.01795863 -516.1394043 525.49194336 C-516.13479447 522.72192042 -516.14163851 519.95233898 -516.15991211 517.18237305 C-516.32875355 491.29367229 -514.74702026 465.64353438 -510.51123047 440.06567383 C-510.40735016 439.42342865 -510.30346985 438.78118347 -510.19644165 438.11947632 C-499.50606622 372.12606348 -476.66295194 308.41859645 -441.82373047 251.31567383 C-440.72034103 249.4774471 -439.61747094 247.63890853 -438.51513672 245.80004883 C-431.96999627 234.96782671 -424.97098007 224.58466478 -417.40576172 214.44018555 C-415.84608592 212.345695 -414.30236129 210.24024007 -412.76123047 208.13208008 C-407.01938053 200.32241968 -401.00265704 192.85193465 -394.62451172 185.55395508 C-392.1044606 182.6654904 -389.70753825 179.69298309 -387.32373047 176.69067383 C-383.57389048 172.06132592 -379.52541336 167.86069736 -375.24755859 163.7253418 C-372.50075353 161.05816785 -369.93001724 158.31705184 -367.43701172 155.40942383 C-363.90767142 151.32971132 -360.10226938 147.65389248 -356.13623047 144.00317383 C-355.43925049 143.35654785 -354.74227051 142.70992187 -354.02416992 142.04370117 C-352.61824763 140.74074557 -351.21064648 139.43959886 -349.80126953 138.14038086 C-348.02957709 136.50561181 -346.26508465 134.86357196 -344.50341797 133.21801758 C-338.15442586 127.30892356 -331.61036352 121.71559295 -324.82373047 116.31567383 C-324.31148926 115.90381836 -323.79924805 115.49196289 -323.27148438 115.06762695 C-252.18964804 57.92719642 -167.05369316 20.12272006 -65.88623047 4.06567383 C-64.82364014 3.91445068 -63.7610498 3.76322754 -62.66625977 3.60742188 C-59.05687987 3.126479 -55.44403794 2.70363413 -51.82373047 2.31567383 C-51.0184491 2.22847076 -50.21316772 2.1412677 -49.38348389 2.05142212 C-32.93099757 0.33118136 -16.52601527 -0.0297492 0 0 Z " fill="#33302E" transform="translate(535.82373046875,19.684326171875)"/>
<path d="M0 0 C3.4471633 2.85622102 5.76541895 5.54625684 7.1875 9.8125 C7.28446852 12.12147811 7.31848015 14.43322966 7.32172108 16.74424076 C7.32407331 17.45720002 7.32642554 18.17015929 7.32884905 18.90472338 C7.33554656 21.31207211 7.3350806 23.71936696 7.33467102 26.12672424 C7.33796919 27.86285308 7.34169465 29.59898114 7.3458125 31.33510822 C7.35584616 36.12048934 7.35955149 40.90585791 7.36220181 45.69124806 C7.36610086 50.84685941 7.37567953 56.0024608 7.38441467 61.1580658 C7.40419122 73.616741 7.41424717 86.07541704 7.42314246 98.53410402 C7.42752374 104.39892102 7.432891 110.26373711 7.43813133 116.12855339 C7.45514542 135.62125874 7.46963974 155.11396352 7.47688007 174.60667515 C7.47879002 179.66690128 7.48071034 184.7271274 7.48266602 189.78735352 C7.48314976 191.04507334 7.4836335 192.30279317 7.4841319 193.59862571 C7.49243269 213.97419883 7.51776967 234.34971326 7.55024669 254.72526074 C7.58330763 275.63741467 7.601328 296.54953877 7.60452431 317.46171898 C7.60669039 329.20592158 7.61545328 340.95003861 7.64098549 352.69421577 C7.66267934 362.69606492 7.67074938 372.69780771 7.66101871 382.69967771 C7.65647012 387.80266703 7.65839284 392.90543685 7.67778015 398.00839615 C7.69538461 402.68247659 7.69443609 407.35617695 7.67888286 412.03026127 C7.67650266 413.71876826 7.68085172 415.40730138 7.69271151 417.0957684 C7.76082666 427.43599659 7.56309475 436.58313066 0.625 444.875 C-3.18785826 447.90573349 -6.58929646 448.23534887 -11.30078125 448.13671875 C-20.26552485 446.9795279 -26.87235643 440.49180491 -33.40234375 434.765625 C-36.71693199 431.86452856 -40.14519418 429.13668743 -43.625 426.4375 C-50.75051079 420.88902802 -57.75698808 415.20103672 -64.75390625 409.49169922 C-68.22867379 406.65732408 -71.70780958 403.8283279 -75.1875 401 C-75.86280762 400.45102051 -76.53811523 399.90204102 -77.23388672 399.33642578 C-81.51935787 395.85534042 -85.82295643 392.39812617 -90.140625 388.95703125 C-92.93539236 386.71386271 -95.71425056 384.4519877 -98.49194336 382.18774414 C-104.20499644 377.53094236 -109.93677987 372.90628749 -115.75 368.375 C-121.84610088 363.62011162 -127.81725987 358.72220035 -133.77490234 353.79541016 C-138.20942245 350.12877232 -142.67059345 346.50154884 -147.17578125 342.921875 C-149.96072601 340.69391919 -152.7261366 338.44317328 -155.49023438 336.18945312 C-164.90937235 328.50033865 -164.90937235 328.50033865 -174.49187946 321.01678562 C-177.50677066 318.70225903 -180.366587 316.33252355 -183.10917664 313.69920349 C-192.96086072 304.52220112 -200.48489665 303.15251306 -213.64453125 303.59765625 C-215.41514368 303.61033888 -217.18580903 303.61692552 -218.95646667 303.61778259 C-223.57538661 303.63278947 -228.19037066 303.7147719 -232.80810547 303.81640625 C-240.21171614 303.97040751 -247.61608705 304.03145689 -255.02106285 304.07180595 C-257.58672646 304.09708667 -260.14964906 304.15794516 -262.71455383 304.22364807 C-271.15171907 304.36952183 -278.90630319 304.36837825 -285.8125 298.8125 C-289.91858383 293.7682186 -291.91889161 289.13860087 -291.99090576 282.60150146 C-292.00503006 281.52206772 -292.01915436 280.44263397 -292.03370667 279.33049011 C-292.04417526 278.14602798 -292.05464386 276.96156586 -292.06542969 275.74121094 C-292.08014816 274.4938063 -292.09486664 273.24640167 -292.11003113 271.9611969 C-292.14892555 268.53747671 -292.183265 265.11377957 -292.21461773 261.68998623 C-292.23434956 259.54963468 -292.25519545 257.40929673 -292.27637482 255.26895905 C-292.342338 248.56862835 -292.40428663 241.86827809 -292.46055388 235.16785884 C-292.52548686 227.44037264 -292.60360387 219.71316952 -292.69323611 211.98593116 C-292.76176855 206.00882105 -292.81851785 200.03167056 -292.86640286 194.05435967 C-292.89524413 190.48650641 -292.92901516 186.91886493 -292.97505951 183.35118866 C-293.02607854 179.36798772 -293.05266748 175.38482386 -293.07714844 171.40136719 C-293.09571396 170.22500198 -293.11427948 169.04863678 -293.13340759 167.83662415 C-293.15322231 160.24008181 -292.42810317 155.32721676 -287.8125 149.125 C-278.79271708 142.17225067 -268.83973223 142.2990935 -257.9848175 142.47947121 C-255.35097717 142.52038996 -252.71849297 142.53131079 -250.08435059 142.53410339 C-242.60404508 142.54577931 -235.12466276 142.59831906 -227.64501953 142.69897461 C-223.04780609 142.7587481 -218.45213003 142.77417434 -213.85456848 142.7628231 C-212.11631379 142.76724695 -210.37801119 142.78827062 -208.6401825 142.82700539 C-196.70049244 143.10225428 -196.70049244 143.10225428 -186.4128418 137.45678711 C-184.85334026 135.93494094 -183.31681804 134.3889162 -181.8125 132.8125 C-180.49215993 131.70352085 -179.15824876 130.61008459 -177.80078125 129.546875 C-177.19685547 129.05638672 -176.59292969 128.56589844 -175.97070312 128.06054688 C-175.36162109 127.56619141 -174.75253906 127.07183594 -174.125 126.5625 C-172.74608947 125.4427136 -171.36718335 124.32292178 -169.98828125 123.203125 C-169.29686035 122.64173828 -168.60543945 122.08035156 -167.89306641 121.50195312 C-164.53224572 118.77291309 -161.1724111 116.04265975 -157.8125 113.3125 C-156.47917165 112.22916054 -155.14583831 111.14582721 -153.8125 110.0625 C-153.1525 109.52625 -152.4925 108.99 -151.8125 108.4375 C-145.8125 103.5625 -145.8125 103.5625 -143.8112793 101.93652344 C-142.48199505 100.85646984 -141.15273063 99.77639183 -139.82348633 98.69628906 C-136.42836671 95.93757227 -133.03287148 93.17931991 -129.63671875 90.421875 C-123.85514398 85.72706241 -118.07400727 81.03194093 -112.3125 76.3125 C-105.8550548 71.02299332 -99.37331424 65.76347339 -92.89306641 60.50195312 C-89.53224572 57.77291309 -86.1724111 55.04265975 -82.8125 52.3125 C-81.47917165 51.22916054 -80.14583831 50.14582721 -78.8125 49.0625 C-78.1525 48.52625 -77.4925 47.99 -76.8125 47.4375 C-65.8125 38.5 -65.8125 38.5 -54.8125 29.5625 C-54.15193604 29.02568604 -53.49137207 28.48887207 -52.81079102 27.93579102 C-51.48357274 26.85763899 -50.15593896 25.77999823 -48.82788086 24.70288086 C-45.39732055 21.91942121 -41.97544832 19.1261935 -38.56640625 16.31640625 C-12.37673595 -5.22573296 -12.37673595 -5.22573296 0 0 Z " fill="#FECFB0" transform="translate(551.8125,317.1875)"/>
<path d="M0 0 C18.26133775 10.96135093 33.91817539 26.33812357 47 43 C47.86958999 44.06893342 48.74074968 45.13659133 49.61328125 46.203125 C101.14059465 109.69558234 124.4657958 195.65301015 116.3046875 276.609375 C115.50219587 283.46804509 114.36841526 290.23291943 113 297 C112.77505859 298.11938965 112.55011719 299.2387793 112.31835938 300.39208984 C109.98779299 311.67414986 107.18625934 322.8226401 103.9375 333.875 C103.71658691 334.6285376 103.49567383 335.3820752 103.26806641 336.15844727 C94.71483909 364.01339597 79.52750918 390.83350353 62 414 C61.57928223 414.56348145 61.15856445 415.12696289 60.72509766 415.70751953 C53.93169174 424.77305294 46.51455383 433.12645593 38.65625 441.28076172 C37.14738678 442.84700801 35.65127051 444.42447229 34.15625 446.00390625 C25.77398374 454.66969034 15.58294032 464.8811566 4 469 C2.97648438 469.36738281 1.95296875 469.73476563 0.8984375 470.11328125 C-9.05110822 473.32316795 -19.54391471 475.41544276 -29.4375 471 C-36.33809624 466.95951931 -41.40090825 461.34423032 -43.5625 453.5625 C-44.64974954 447.19432413 -45.49035953 440.70662995 -42.30078125 434.9140625 C-39.97119347 431.96351499 -37.56831985 429.54664764 -34.75 427.0625 C-33.780625 426.20269531 -32.81125 425.34289062 -31.8125 424.45703125 C-30.884375 423.64621094 -29.95625 422.83539062 -29 422 C-28.2575 421.34386719 -27.515 420.68773437 -26.75 420.01171875 C-24.25781716 417.81645613 -21.76485906 415.62881038 -19.19921875 413.51953125 C-15.36461276 410.34811654 -12.0840627 406.97169398 -8.8671875 403.17578125 C-6.88781417 400.869273 -4.82215806 398.66082974 -2.75 396.4375 C39.12720882 349.75007124 56.45580976 287.76190997 54 226 C52.93956595 210.82916542 50.42042252 195.80755367 47 181 C46.82243164 180.22527344 46.64486328 179.45054687 46.46191406 178.65234375 C35.51226188 131.88698432 10.48597534 87.48321037 -21.95703125 52.2265625 C-23.82959308 50.18572074 -25.63829534 48.10536303 -27.4375 46 C-31.01793237 41.86485275 -34.92269903 38.08659266 -38.86328125 34.296875 C-41.33522956 31.63964354 -42.84075085 29.67543372 -43.1875 26.02734375 C-42.5634832 19.07215645 -39.66425397 13.85718346 -36 8 C-35.13375 6.6078125 -35.13375 6.6078125 -34.25 5.1875 C-23.86403894 -4.90996215 -12.72023774 -6.16839838 0 0 Z " fill="#FECFB0" transform="translate(718,306)"/>
<path d="M0 0 C7.34889616 3.70103598 13.14916892 8.95186854 18.96533203 14.66064453 C20.27146836 15.93447519 21.60712728 17.17784901 22.9453125 18.41796875 C50.85375267 44.89749679 67.78846715 84.69585532 74.38671875 122.046875 C74.56404541 123.02188965 74.74137207 123.9969043 74.92407227 125.00146484 C76.59984507 135.23508939 76.74543338 145.32365903 76.69921875 155.671875 C76.69673126 156.5597168 76.69424377 157.44755859 76.69168091 158.36230469 C76.63632337 171.12128372 76.47026451 183.59972276 73.38671875 196.046875 C73.16097168 196.97242188 72.93522461 197.89796875 72.70263672 198.8515625 C65.53861401 227.30441865 52.60793768 254.26949503 32.44921875 275.828125 C30.61226126 277.80424593 28.9086071 279.83642121 27.19921875 281.921875 C18.44388394 291.87573592 8.66457474 300.93575543 -4.9375 302.40625 C-11.66158616 302.68226722 -16.36725244 302.39996274 -21.61328125 298.046875 C-24.84626566 293.6699115 -26.74680359 289.11440991 -26.98828125 283.671875 C-27.03726563 282.92164063 -27.08625 282.17140625 -27.13671875 281.3984375 C-26.35131361 277.86997558 -24.27084296 276.42837421 -21.61328125 274.046875 C-20.2675 272.79197266 -20.2675 272.79197266 -18.89453125 271.51171875 C-17.97671875 270.67769531 -17.05890625 269.84367187 -16.11328125 268.984375 C-14.7365625 267.72947266 -14.7365625 267.72947266 -13.33203125 266.44921875 C-11.58187131 264.90274122 -9.7943556 263.39704904 -7.96484375 261.9453125 C18.89670477 240.25974343 31.94699475 201.60324541 35.57519531 168.69970703 C36.56511326 158.81658814 36.74514429 149.16498189 35.57421875 139.296875 C35.48438721 138.52811035 35.39455566 137.7593457 35.30200195 136.96728516 C30.17340673 95.1707438 10.31814555 60.7222348 -16.78125 29.34375 C-17.25175781 28.79485107 -17.72226562 28.24595215 -18.20703125 27.68041992 C-19.15217276 26.58251335 -20.10547573 25.49158503 -21.06640625 24.4074707 C-23.38942152 21.73823681 -24.56884526 20.28238575 -25.23828125 16.734375 C-24.19628471 10.5865954 -21.49463234 5.83863794 -16.98828125 1.546875 C-11.63565841 -1.8337289 -5.90224765 -2.15268823 0 0 Z " fill="#FDCEB0" transform="translate(637.61328125,389.953125)"/>
</svg>
