<svg width="18" height="16" viewBox="0 0 18 16" fill="none" xmlns="http://www.w3.org/2000/svg">
<path d="M5.6923 10.1154H12.3077V9.95C12.3077 9.4218 11.9955 8.98398 11.3712 8.63655C10.7468 8.2891 9.95642 8.11537 9 8.11537C8.04358 8.11537 7.2532 8.2891 6.62885 8.63655C6.00448 8.98398 5.6923 9.4218 5.6923 9.95V10.1154ZM9 6.5C9.4218 6.5 9.77725 6.35545 10.0663 6.06635C10.3554 5.77725 10.5 5.4218 10.5 5C10.5 4.5782 10.3554 4.22275 10.0663 3.93365C9.77725 3.64455 9.4218 3.5 9 3.5C8.5782 3.5 8.22275 3.64455 7.93365 3.93365C7.64455 4.22275 7.5 4.5782 7.5 5C7.5 5.4218 7.64455 5.77725 7.93365 6.06635C8.22275 6.35545 8.5782 6.5 9 6.5ZM0 15.1327V1.61537C0 1.15512 0.154167 0.770833 0.4625 0.4625C0.770833 0.154167 1.15513 0 1.61538 0H16.3846C16.8449 0 17.2292 0.154167 17.5375 0.4625C17.8458 0.770833 18 1.15512 18 1.61537V12.3846C18 12.8449 17.8458 13.2292 17.5375 13.5375C17.2292 13.8458 16.8449 14 16.3846 14H3.07693L1.37308 15.7038C1.12051 15.9564 0.828517 16.0144 0.4971 15.8779C0.1657 15.7414 0 15.493 0 15.1327Z" fill="#233C67"/>
</svg>
