<svg width="36" height="38" viewBox="0 0 36 38" fill="none" xmlns="http://www.w3.org/2000/svg">
<g clip-path="url(#clip0_270_3150)">
<path d="M19.5688 24.6232C19.7087 24.6232 19.8428 24.5677 19.9417 24.4688C20.0406 24.3699 20.0962 24.2357 20.0962 24.0959C20.0962 23.956 20.0406 23.8219 19.9417 23.723C19.8428 23.6241 19.7087 23.5685 19.5688 23.5685H18.0001C17.8603 23.5685 17.7262 23.6241 17.6273 23.723C17.5284 23.8219 17.4728 23.956 17.4728 24.0959V25.1413H16.9588V24.0959C16.9588 23.956 16.9033 23.8219 16.8044 23.723C16.7055 23.6241 16.5713 23.5685 16.4315 23.5685C16.2916 23.5685 16.1575 23.6241 16.0586 23.723C15.9597 23.8219 15.9041 23.956 15.9041 24.0959V25.6686C15.9041 25.8085 15.9597 25.9426 16.0586 26.0415C16.1575 26.1404 16.2916 26.196 16.4315 26.196H17.4728V26.7141H16.4315C16.2916 26.7141 16.1575 26.7697 16.0586 26.8686C15.9597 26.9675 15.9041 27.1016 15.9041 27.2414C15.9041 27.3813 15.9597 27.5154 16.0586 27.6143C16.1575 27.7132 16.2916 27.7688 16.4315 27.7688H18.0001C18.14 27.7688 18.2741 27.7132 18.373 27.6143C18.4719 27.5154 18.5275 27.3813 18.5275 27.2414V26.1959H19.0416V27.2414C19.0416 27.3813 19.0972 27.5154 19.1961 27.6143C19.295 27.7132 19.4291 27.7688 19.569 27.7688C19.7088 27.7688 19.8429 27.7132 19.9418 27.6143C20.0407 27.5154 20.0963 27.3813 20.0963 27.2414V25.6686C20.0963 25.5287 20.0407 25.3946 19.9418 25.2957C19.8429 25.1968 19.7088 25.1412 19.569 25.1412H18.5275V24.6232H19.5688ZM29.442 11.2298C28.6947 10.7004 26.6671 9.51313 23.9847 9.92257C23.894 9.93649 23.805 9.95231 23.7168 9.96911C23.4921 8.67796 22.601 6.89421 21.058 4.65166C19.7461 2.74499 18.4562 1.22308 18.402 1.15924C18.3525 1.10098 18.2909 1.05419 18.2215 1.0221C18.1521 0.99001 18.0766 0.973389 18.0001 0.973389C17.9237 0.973389 17.8482 0.99001 17.7788 1.0221C17.7094 1.05419 17.6478 1.10098 17.5983 1.15924C17.5441 1.22308 16.2541 2.74499 14.9423 4.65166C13.3994 6.89413 12.5082 8.67789 12.2835 9.96904C12.1953 9.95224 12.1063 9.93649 12.0155 9.92264C9.32921 9.51321 7.30421 10.7006 6.55805 11.23C6.46579 11.2955 6.39704 11.3889 6.36195 11.4965C6.32685 11.604 6.32728 11.72 6.36317 11.8273C6.39905 11.9346 6.46849 12.0275 6.56123 12.0923C6.65397 12.1571 6.76509 12.1904 6.87819 12.1872C7.45545 12.1711 9.45022 12.238 10.8878 13.7877C11.1835 14.1077 11.4344 14.4664 11.6334 14.8539C11.5297 14.9358 11.4486 15.0429 11.3979 15.1649C11.3413 15.3027 11.327 15.4543 11.3568 15.6003C11.3866 15.7463 11.4591 15.8801 11.5652 15.9848L12.2584 16.6781C12.6229 17.0427 12.6416 17.5437 12.305 17.9249L12.165 18.0834C12.1548 18.0949 12.1459 18.1073 12.1369 18.1196L9.34615 21.0423C9.10389 21.2961 8.87663 21.5638 8.66553 21.844C8.5787 21.9587 8.49523 22.0758 8.41522 22.1953C7.50631 23.5163 7.01604 25.0804 7.00819 26.6839C7.00819 26.7879 7.01044 26.8938 7.01494 26.997C7.03261 27.4218 7.08481 27.8443 7.17104 28.2606C7.2083 28.44 7.2518 28.618 7.30147 28.7944L7.30287 28.7999L7.30294 28.8001C7.47486 29.4054 7.71673 29.9886 8.02365 30.5379C8.05683 30.5971 8.09016 30.6562 8.12511 30.7158C8.57286 31.4732 9.13067 32.16 9.78026 32.7535L10.8603 33.7455C11.1679 34.0267 11.5095 34.2685 11.877 34.4651C11.6578 34.6659 11.5044 34.9282 11.4369 35.2177C11.3695 35.5073 11.3911 35.8104 11.499 36.0874C11.6069 36.3644 11.7961 36.6023 12.0416 36.7699C12.2871 36.9375 12.5776 37.0269 12.8749 37.0265H23.1254C23.4227 37.027 23.7132 36.9375 23.9587 36.7699C24.2043 36.6023 24.3934 36.3644 24.5013 36.0874C24.6093 35.8104 24.6309 35.5072 24.5635 35.2177C24.496 34.9282 24.3426 34.6658 24.1233 34.465C24.4908 34.2685 24.8323 34.0268 25.14 33.7456L26.22 32.7534C26.8652 32.1638 27.4199 31.4823 27.866 30.7308C27.8715 30.7222 27.8767 30.7134 27.8817 30.7045C27.9564 30.578 28.0276 30.4494 28.0953 30.319C28.132 30.2483 28.1674 30.1771 28.2015 30.1051C28.4043 29.6856 28.5701 29.2492 28.6971 28.8008L28.6973 28.8L28.6989 28.7942C28.7487 28.6182 28.7919 28.4403 28.8284 28.261C28.9153 27.8447 28.9678 27.4219 28.9853 26.997C29.0569 25.2234 28.524 23.4933 27.4457 21.9959C27.409 21.9442 27.3713 21.8931 27.3327 21.8429C27.1224 21.5628 26.8957 21.2954 26.6539 21.042L23.8629 18.119C23.854 18.107 23.8454 18.0949 23.8354 18.0837L23.6952 17.9249C23.3587 17.5438 23.3774 17.0426 23.7418 16.6781L24.4352 15.9846C24.5413 15.88 24.6138 15.7461 24.6435 15.6001C24.6733 15.4541 24.659 15.3026 24.6024 15.1648C24.5515 15.0428 24.4705 14.9359 24.3668 14.854C24.5659 14.4664 24.8168 14.1077 25.1125 13.7877C26.5502 12.238 28.5448 12.1709 29.1221 12.1872C29.2352 12.1904 29.3464 12.1571 29.4391 12.0923C29.5319 12.0274 29.6013 11.9345 29.6372 11.8272C29.6731 11.7198 29.6734 11.6038 29.6383 11.4962C29.6031 11.3887 29.5343 11.2953 29.442 11.2298ZM15.8063 5.25656C16.6562 4.02081 17.5145 2.92942 18.0002 2.3298C18.4847 2.92795 19.3401 4.01554 20.189 5.24946C21.6607 7.38836 22.5357 9.13739 22.6934 10.2414C21.794 10.5545 20.962 11.0349 20.2413 11.6574C19.8607 10.5594 19.2195 9.57003 18.3726 8.77422C18.2711 8.68049 18.1369 8.63033 17.9988 8.63451C17.8607 8.63869 17.7297 8.69689 17.6341 8.79658C16.8364 9.63547 16.2243 10.633 15.8378 11.7243C15.0995 11.0684 14.2393 10.5643 13.3064 10.2404C13.4243 9.39768 13.9925 7.89398 15.8063 5.25656ZM22.5741 18.1176C20.8334 18.5465 19.0411 18.7287 17.2497 18.6586C15.9602 18.6077 14.6792 18.4266 13.4261 18.118C13.7589 17.3926 13.6141 16.5423 13.0042 15.9324L12.8018 15.7299H19.9429C19.9446 15.7299 19.9464 15.7302 19.9482 15.7302C19.9492 15.7302 19.9503 15.7299 19.9513 15.7299H23.1985L22.996 15.9324C22.3862 16.5423 22.2415 17.3923 22.5741 18.1176ZM16.5388 13.2103C16.7467 12.008 17.2619 10.8798 18.0345 9.93536C18.8767 10.8755 19.4002 12.0578 19.53 13.3134C19.5746 13.7668 19.5659 14.2238 19.504 14.6752H16.4493C16.4271 14.1851 16.4571 13.6941 16.5388 13.2103ZM11.661 13.0705C10.7087 12.0439 9.56314 11.5547 8.60836 11.3256C9.64096 10.9237 10.7609 10.7994 11.8565 10.9652C13.7089 11.2477 14.9509 12.291 15.5258 12.8867C15.5166 12.9357 15.5073 12.9846 15.4989 13.0344C15.4075 13.5762 15.3722 14.1261 15.3938 14.6752H12.7176C12.4557 14.086 12.0987 13.5439 11.661 13.0705ZM8.20386 28.0465C8.12918 27.6863 8.08399 27.3205 8.06872 26.9529C8.06486 26.8633 8.06291 26.7736 8.06288 26.6839C8.06799 25.4727 8.39302 24.2844 9.00507 23.2393C9.43928 23.5221 9.78169 23.9253 9.99045 24.3996C10.1992 24.8739 10.2653 25.3987 10.1806 25.91C10.0959 26.4212 9.8641 26.8967 9.51354 27.2783C9.16297 27.66 8.70882 27.9312 8.2066 28.0589C8.20576 28.0548 8.20477 28.0507 8.20386 28.0465ZM23.1254 35.9718H12.8749C12.7639 35.9704 12.6581 35.9253 12.5801 35.8464C12.5022 35.7674 12.4585 35.661 12.4585 35.55C12.4585 35.4391 12.5022 35.3326 12.5801 35.2537C12.6581 35.1748 12.7639 35.1297 12.8749 35.1283H14.5333L14.5394 35.1284H21.4602C21.5672 35.128 21.6741 35.1246 21.7808 35.1183C21.8142 35.1249 21.8482 35.1282 21.8822 35.1283H23.1254C23.1812 35.1275 23.2366 35.1379 23.2884 35.1588C23.3403 35.1797 23.3874 35.2106 23.4271 35.2498C23.4669 35.2891 23.4984 35.3358 23.52 35.3874C23.5415 35.4389 23.5526 35.4942 23.5526 35.55C23.5526 35.6059 23.5415 35.6612 23.52 35.7127C23.4984 35.7642 23.4669 35.811 23.4271 35.8502C23.3874 35.8894 23.3403 35.9204 23.2884 35.9413C23.2366 35.9621 23.1812 35.9725 23.1254 35.9718ZM25.5064 31.9768L24.4263 32.969C23.6627 33.671 22.5816 34.0736 21.4602 34.0736H14.6479L14.6451 34.0736H14.5333C13.4144 34.0722 12.3362 33.6698 11.5739 32.9689L10.4937 31.9766C10.3045 31.8025 10.1238 31.6195 9.95197 31.4282C12.3595 32.0866 15.1075 32.4316 18.0001 32.4316C20.8478 32.4316 23.6455 32.0783 26.0508 31.4254C25.8794 31.6158 25.6979 31.7996 25.5064 31.9768ZM26.9946 23.2398C27.6553 24.363 27.9804 25.6519 27.9315 26.9541C27.9163 27.322 27.8708 27.6879 27.7955 28.0482C27.7947 28.0517 27.7938 28.0552 27.7931 28.0588C27.2908 27.9312 26.8367 27.66 26.4861 27.2784C26.1355 26.8969 25.9037 26.4214 25.8189 25.9102C25.7342 25.399 25.8003 24.8742 26.0091 24.3999C26.2179 23.9257 26.5604 23.5225 26.9946 23.2398ZM25.8908 21.7701C26.0729 21.9611 26.2445 22.1612 26.4039 22.3657C25.8037 22.7607 25.3307 23.321 25.042 23.9789C24.7533 24.6368 24.6613 25.3643 24.777 26.0734C24.8927 26.7825 25.2112 27.4429 25.6941 27.9749C26.1769 28.507 26.8035 28.8878 27.4981 29.0715C27.4245 29.2664 27.3415 29.4599 27.2491 29.6521C27.2202 29.7136 27.1894 29.7745 27.1581 29.8351C27.1279 29.8937 27.0956 29.9535 27.0617 30.0142C24.4953 30.8935 21.2872 31.3769 18.0001 31.3769C14.7129 31.3769 11.5052 30.8937 8.93968 30.0149C8.77109 29.7115 8.62485 29.3963 8.50212 29.0716C9.19665 28.8877 9.8231 28.5067 10.3058 27.9746C10.7886 27.4425 11.107 26.782 11.2227 26.0729C11.3383 25.3638 11.2463 24.6364 10.9576 23.9785C10.6689 23.3206 10.196 22.7603 9.5959 22.3652C9.75516 22.1614 9.92694 21.9616 10.1093 21.7704L12.7287 19.0271C14.1915 19.4227 15.6942 19.6526 17.2084 19.7125C17.4716 19.7228 17.7347 19.7279 17.9976 19.7279C19.7787 19.7274 21.552 19.4916 23.2714 19.0268L25.8908 21.7701ZM24.3394 13.0705C23.9016 13.5439 23.5445 14.086 23.2826 14.6752H20.5663C20.6229 14.1886 20.6274 13.6974 20.5796 13.2099C20.5669 13.0826 20.5506 12.9557 20.5308 12.8293C21.5023 11.8342 22.7699 11.1802 24.1439 10.9652C25.2391 10.7997 26.3586 10.924 27.3908 11.3258C26.4362 11.5552 25.2913 12.0444 24.3394 13.0705ZM18.0001 20.7223C17.0214 20.72 16.0639 21.0082 15.249 21.5504C14.4341 22.0925 13.7984 22.8643 13.4223 23.7679C13.0461 24.6715 12.9466 25.6664 13.1361 26.6267C13.3257 27.5869 13.7959 28.4693 14.4872 29.1622C15.1785 29.8551 16.0599 30.3273 17.0197 30.5191C17.9795 30.7109 18.9746 30.6136 19.8791 30.2395C20.7836 29.8655 21.5568 29.2315 22.1008 28.4178C22.6448 27.6042 22.9352 26.6474 22.9352 25.6686C22.9352 24.3587 22.4156 23.1023 21.4905 22.175C20.5653 21.2477 19.31 20.7252 18.0001 20.7223ZM18.0001 29.5603C17.23 29.5625 16.4764 29.3362 15.835 28.9099C15.1935 28.4837 14.693 27.8767 14.3967 27.1658C14.1004 26.4549 14.0217 25.672 14.1706 24.9164C14.3195 24.1607 14.6892 23.4662 15.233 22.9208C15.7768 22.3754 16.4702 22.0037 17.2254 21.8526C17.9806 21.7015 18.7637 21.7779 19.4755 22.0721C20.1872 22.3663 20.7957 22.8651 21.2238 23.5054C21.6519 24.1456 21.8805 24.8984 21.8805 25.6686C21.8808 26.6989 21.4725 27.6872 20.745 28.4168C20.0176 29.1464 19.0304 29.5576 18.0001 29.5603Z" fill="#313440"/>
<path d="M23.149 10.5664C23.1526 11.2587 23.022 11.9449 22.7648 12.5855C22.5076 13.2261 22.1289 13.8086 21.6505 14.2994C21.172 14.7902 20.6033 15.1797 19.9768 15.4454C19.3504 15.7112 18.6787 15.848 18.0003 15.848C17.3219 15.848 16.6502 15.7112 16.0238 15.4454C15.3974 15.1797 14.8286 14.7902 14.3502 14.2994C13.8717 13.8086 13.493 13.2261 13.2359 12.5855C12.9787 11.9449 12.8481 11.2587 12.8516 10.5664C12.8516 7.65703 18.0003 1.47498 18.0003 1.47498C18.0003 1.47498 23.149 7.65703 23.149 10.5664Z" fill="#FFAE36"/>
<path d="M18.0003 1.47505C18.0003 1.47505 17.5732 1.9881 16.9653 2.78732C18.4687 4.76412 21.079 8.4947 21.079 10.5664C21.0801 11.7784 20.6714 12.9537 19.922 13.894C19.1726 14.8342 18.1283 15.4819 16.9653 15.7278C17.7148 15.8841 18.4889 15.8682 19.2316 15.6812C19.9742 15.4942 20.6668 15.1407 21.2589 14.6465C21.851 14.1523 22.3278 13.5297 22.6548 12.824C22.9817 12.1182 23.1506 11.347 23.1491 10.5664C23.1491 7.65703 18.0003 1.47505 18.0003 1.47505Z" fill="#FFA41F"/>
<path d="M12.6983 15.9674C12.4918 15.0169 12.0439 14.1387 11.3996 13.4207C9.75342 11.6097 7.46314 11.6378 7.0708 11.6491C7.5812 11.2917 9.54276 10.0093 12.0489 10.4311C14.73 10.8824 16.9592 13.1029 17.7182 16.0781" fill="#63EA86"/>
<path d="M15.6359 16.0321L17.7184 16.0781C16.9594 13.1029 14.7302 10.8824 12.0492 10.4311C11.3708 10.318 10.6789 10.3194 10.001 10.4353C12.6583 10.8925 14.8678 13.0883 15.6359 16.0321Z" fill="#28E258"/>
<path d="M23.3016 15.9674C23.5081 15.0169 23.956 14.1387 24.6003 13.4207C26.2465 11.6097 28.5368 11.6378 28.9291 11.6491C28.4187 11.2917 26.4572 10.0093 23.951 10.4311C21.27 10.8824 19.0407 13.1029 18.2817 16.0781" fill="#63EA86"/>
<path d="M25.1321 10.35C25.6418 10.4947 26.1351 10.6941 26.6037 10.9451C26.6532 10.9714 26.6931 11.0132 26.7176 11.0644C26.7421 11.1156 26.7498 11.1735 26.7397 11.2295C26.7296 11.2856 26.7021 11.3368 26.6614 11.3757C26.6206 11.4147 26.5687 11.4393 26.5133 11.4459C25.5989 11.5547 24.1596 11.9296 23.0258 13.177C22.3815 13.8949 21.9337 14.7732 21.7272 15.7236L18.3582 15.7979C18.3313 15.8905 18.3058 15.9839 18.2817 16.078L23.3016 15.9673C23.5081 15.0168 23.956 14.1386 24.6003 13.4206C26.2465 11.6097 28.5368 11.6377 28.9291 11.649C28.5021 11.35 27.0593 10.4044 25.1321 10.35Z" fill="#28E258"/>
<path d="M16.77 17.8204C16.0657 16.4226 15.807 14.8352 16.0301 13.2801C16.2532 11.7249 16.9471 10.2798 18.0145 9.14685C18.3662 9.47837 19.7886 10.8949 20.0167 13.253C20.2489 15.6551 19.0789 17.3527 18.7991 17.7373L16.77 17.8204Z" fill="#3CE568"/>
<path d="M20.0164 13.253C19.7883 10.8949 18.3659 9.47837 18.0143 9.14685C17.7256 9.45461 17.4631 9.7868 17.2294 10.1399C17.8737 11.0569 18.271 12.1303 18.3819 13.253C18.6141 15.6551 17.4441 17.3527 17.1644 17.7373L16.7373 17.7548C16.7487 17.778 16.7596 17.8001 16.7697 17.8203L18.7988 17.7373C19.0786 17.3527 20.2486 15.6551 20.0164 13.253Z" fill="#28E258"/>
<path d="M28.2635 26.9872C28.2476 27.3837 28.1996 27.7782 28.12 28.1667C28.0862 28.3364 28.0462 28.5045 28 28.6709C27.8878 29.0766 27.7417 29.4716 27.5632 29.8518C27.5577 29.8651 27.5515 29.8785 27.5452 29.8919C27.5142 29.9595 27.4811 30.0264 27.4473 30.0933C27.2488 30.4839 27.019 30.8569 26.76 31.2087C26.4489 31.6329 26.0996 32.0266 25.7167 32.3846L24.6569 33.3782C23.8095 34.1732 22.6296 34.6239 21.3959 34.6239H14.6041C13.3711 34.6239 12.1912 34.1732 11.3438 33.3782L10.284 32.3846C9.88287 32.0099 9.51865 31.596 9.19654 31.1488C9.00061 30.8764 8.82177 30.5916 8.66109 30.2961C8.5707 30.1299 8.48583 29.9609 8.40786 29.7898C8.24307 29.4285 8.10693 29.0543 8.00075 28.6709C7.95452 28.504 7.9145 28.3364 7.88 28.1667C7.80091 27.7782 7.75314 27.3837 7.73717 26.9872C7.73303 26.89 7.73096 26.7922 7.73096 26.695C7.73831 25.1982 8.18642 23.7382 9.01713 22.5045C9.0192 22.5017 9.02058 22.4989 9.02265 22.4961C9.09579 22.3841 9.17307 22.2743 9.25312 22.1658C9.44825 21.9014 9.65837 21.6489 9.8824 21.4096L12.3085 18.8168L12.6673 18.4331L12.6714 18.4288H23.3293L23.3334 18.4331L23.6929 18.8168L26.1183 21.4096C26.3423 21.649 26.5522 21.9017 26.7469 22.1665C26.7821 22.213 26.8159 22.2602 26.8483 22.3067C26.9084 22.3912 26.9663 22.4768 27.0222 22.5637C27.884 23.8671 28.3186 25.4158 28.2635 26.9872Z" fill="#FFE966"/>
<path d="M27.022 22.5637C26.9661 22.4771 26.9082 22.3914 26.8482 22.3067C26.8157 22.2602 26.7819 22.213 26.7467 22.1665C26.552 21.9017 26.3421 21.649 26.1181 21.4096L23.6927 18.8168L23.3333 18.4331L23.3291 18.4288H21.2591L21.2632 18.4331L21.6227 18.8168L24.0481 21.4096C24.2721 21.649 24.482 21.9017 24.6767 22.1665C24.7119 22.213 24.7457 22.2602 24.7781 22.3067C24.8382 22.3912 24.8961 22.4768 24.952 22.5637C25.8138 23.8671 26.2484 25.4158 26.1933 26.9872C26.1774 27.3837 26.1294 27.7782 26.0498 28.1667C26.016 28.3364 25.976 28.5045 25.9298 28.6709C25.8176 29.0766 25.6715 29.4716 25.493 29.8518C25.4875 29.8651 25.4812 29.8785 25.475 29.8919C25.444 29.9595 25.4109 30.0264 25.3771 30.0933C25.1786 30.4839 24.9488 30.8569 24.6898 31.2087C24.3787 31.6329 24.0294 32.0266 23.6465 32.3846L22.5867 33.3782C21.7393 34.1732 20.5594 34.6239 19.3257 34.6239H21.3957C22.6294 34.6239 23.8094 34.1732 24.6567 33.3782L25.7165 32.3846C26.0994 32.0266 26.4487 31.6329 26.7598 31.2087C27.0188 30.8569 27.2487 30.4839 27.4471 30.0933C27.4809 30.0264 27.514 29.9595 27.5451 29.8919C27.5513 29.8785 27.5575 29.8651 27.563 29.8518C27.7415 29.4716 27.8877 29.0766 27.9998 28.6709C28.046 28.5047 28.086 28.3366 28.1198 28.1667C28.1995 27.7782 28.2475 27.3837 28.2634 26.9872C28.3184 25.4158 27.8838 23.8671 27.022 22.5637Z" fill="#FFE236"/>
<path d="M23.6928 18.8169C23.633 18.8742 23.5606 18.9162 23.4817 18.9394C23.0145 19.076 22.5444 19.195 22.0713 19.2964L21.6228 18.8169L21.2729 18.3782C21.8532 18.274 22.4294 18.1411 23.0014 17.9796C23.0568 18.0848 23.124 18.1831 23.2015 18.2725L23.3388 18.4317C23.3371 18.4325 23.3352 18.433 23.3333 18.4331L23.6928 18.8169Z" fill="#FFE236"/>
<path d="M23.2691 16.3009C22.8068 16.7727 22.7136 17.4325 23.0014 17.9796C23.0567 18.0848 23.1239 18.1831 23.2015 18.2726L23.3388 18.4317C23.337 18.4325 23.3352 18.433 23.3332 18.4331C21.3554 19.013 19.2995 19.2671 17.2432 19.1859C15.6938 19.1234 14.1573 18.8707 12.6671 18.4331C12.6652 18.433 12.6633 18.4325 12.6616 18.4317C12.7071 18.3789 12.7533 18.3261 12.7989 18.2726C12.8765 18.1833 12.9434 18.085 12.9983 17.9796C13.2867 17.4325 13.1936 16.7727 12.7313 16.3009L12.0516 15.6066C11.8943 15.4468 12.0226 15.1968 12.2621 15.1968H23.7376C23.9777 15.1968 24.1061 15.4468 23.9487 15.6066L23.2691 16.3009Z" fill="#FFE966"/>
<path d="M23.9486 15.6066C24.1059 15.4468 23.9776 15.1968 23.7374 15.1968H22.198C22.4382 15.1968 22.5665 15.4468 22.4092 15.6066C21.7027 16.3282 21.0586 17.3134 21.2727 18.3782C19.2523 18.7598 17.2103 19.1529 17.2158 19.1845C17.2162 19.187 17.2294 19.1853 17.2432 19.1859C19.2995 19.2672 21.3553 19.013 23.3332 18.4331C23.3351 18.433 23.3369 18.4325 23.3387 18.4317L23.2014 18.2726C23.1238 18.1831 23.0567 18.0848 23.0013 17.9796C22.7135 17.4325 22.8067 16.7727 23.269 16.3009L23.9486 15.6066Z" fill="#FFE236"/>
<path d="M18.0002 30.1038C20.389 30.1038 22.3256 28.1225 22.3256 25.6783C22.3256 23.2342 20.389 21.2528 18.0002 21.2528C15.6113 21.2528 13.6748 23.2342 13.6748 25.6783C13.6748 28.1225 15.6113 30.1038 18.0002 30.1038Z" fill="#FF6666"/>
<path d="M18.0003 21.2528C17.6515 21.2529 17.304 21.296 16.9653 21.3813C17.905 21.6202 18.7393 22.173 19.3355 22.9517C19.9318 23.7303 20.2556 24.6902 20.2556 25.6784C20.2556 26.6666 19.9318 27.6264 19.3355 28.4051C18.7393 29.1837 17.905 29.7365 16.9653 29.9754C17.5604 30.1232 18.1794 30.1406 18.7816 30.0266C19.3838 29.9125 19.9554 29.6695 20.4589 29.3137C20.9624 28.9578 21.3862 28.4971 21.7026 27.9619C22.0189 27.4267 22.2205 26.8292 22.2941 26.2087C22.3678 25.5882 22.3117 24.9588 22.1297 24.3621C21.9477 23.7653 21.6438 23.2146 21.2381 22.7464C20.8325 22.2782 20.3342 21.903 19.7761 21.6455C19.218 21.3881 18.6128 21.2542 18.0003 21.2528Z" fill="#FF4E4E"/>
<path d="M28.2631 26.9873C28.2472 27.3838 28.1992 27.7783 28.1196 28.1667C28.0858 28.3364 28.0458 28.5045 27.9995 28.6709C27.2147 28.607 26.4824 28.2435 25.9487 27.6529C25.415 27.0623 25.1191 26.288 25.1201 25.4846C25.1278 25.157 25.1767 24.8319 25.2657 24.5171C25.343 24.2692 25.6811 23.1806 26.7465 22.6792C26.8363 22.636 26.9282 22.5975 27.0218 22.5637C27.8835 23.8672 28.3181 25.4159 28.2631 26.9873Z" fill="#FF6666"/>
<path d="M27.0218 22.5637C26.9282 22.5975 26.8363 22.636 26.7465 22.6792C26.2626 22.9131 25.86 23.2918 25.5923 23.765C26.0292 24.7788 26.2347 25.8806 26.1931 26.9873C26.1816 27.2659 26.1543 27.5435 26.1112 27.8189C26.6271 28.3142 27.2933 28.6148 27.9995 28.6709C28.0457 28.5047 28.0858 28.3367 28.1196 28.1667C28.1992 27.7783 28.2472 27.3838 28.2631 26.9873C28.3181 25.4159 27.8835 23.8672 27.0218 22.5637Z" fill="#FF4E4E"/>
<path d="M10.8795 25.4845C10.8806 26.2879 10.5849 27.0621 10.0513 27.6528C9.5177 28.2434 8.78546 28.607 8.00075 28.6709C7.95452 28.504 7.9145 28.3364 7.88 28.1667C7.80091 27.7782 7.75314 27.3837 7.73717 26.9872C7.73303 26.89 7.73096 26.7922 7.73096 26.695C7.73831 25.1982 8.18642 23.7382 9.01713 22.5045C9.09855 22.5637 9.17721 22.6221 9.25312 22.6784C9.7444 23.0425 10.422 23.5586 10.7284 24.4987C10.8204 24.8192 10.8712 25.1506 10.8795 25.4845Z" fill="#FF6666"/>
<path d="M10.7282 24.4987C10.4219 23.5586 9.74429 23.0425 9.253 22.6784C9.1771 22.6221 9.09844 22.5637 9.01702 22.5045C8.82804 22.7901 8.65753 23.088 8.50655 23.3962C8.79776 23.7117 9.01863 24.0878 9.15398 24.4987C9.24601 24.8192 9.2968 25.1506 9.3051 25.4845C9.30564 26.0175 9.17552 26.5421 8.92659 27.0106C8.67766 27.4791 8.31784 27.8765 7.87988 28.1668C7.91438 28.3365 7.9544 28.504 8.00063 28.6709C8.78535 28.607 9.51758 28.2434 10.0512 27.6528C10.5848 27.0621 10.8805 26.2879 10.8793 25.4845C10.8711 25.1506 10.8203 24.8192 10.7282 24.4987Z" fill="#FF4E4E"/>
<path d="M23.0297 34.6238H12.9704C12.4561 34.6238 12.0391 35.0493 12.0391 35.5743V35.5743C12.0391 36.0993 12.4561 36.5248 12.9704 36.5248H23.0297C23.5441 36.5248 23.9611 36.0993 23.9611 35.5743V35.5743C23.9611 35.0493 23.5441 34.6238 23.0297 34.6238Z" fill="#FF8E66"/>
<path d="M23.03 34.6238H20.96C21.2056 34.6259 21.4405 34.727 21.6134 34.9051C21.7863 35.0831 21.8834 35.3236 21.8834 35.5743C21.8834 35.825 21.7863 36.0655 21.6134 36.2435C21.4405 36.4216 21.2056 36.5226 20.96 36.5248H23.03C23.2756 36.5226 23.5105 36.4216 23.6834 36.2435C23.8564 36.0655 23.9534 35.825 23.9534 35.5743C23.9534 35.3236 23.8564 35.0831 23.6834 34.9051C23.5105 34.727 23.2756 34.6259 23.03 34.6238Z" fill="#FF7C4E"/>
</g>
<defs>
<clipPath id="clip0_270_3150">
<rect width="35.3284" height="36.0531" fill="white" transform="translate(0.335938 0.973389)"/>
</clipPath>
</defs>
</svg>
