<svg width="18" height="14" viewBox="0 0 18 14" fill="none" xmlns="http://www.w3.org/2000/svg">
<path d="M3 14C2.16923 14 1.46154 13.7077 0.876925 13.1231C0.292308 12.5385 0 11.8308 0 11V3C0 2.16923 0.292308 1.46154 0.876925 0.876925C1.46154 0.292308 2.16923 0 3 0H15C15.8308 0 16.5385 0.292308 17.1231 0.876925C17.7077 1.46154 18 2.16923 18 3V11C18 11.8308 17.7077 12.5385 17.1231 13.1231C16.5385 13.7077 15.8308 14 15 14H3ZM3 3.5H15C15.3923 3.5 15.7583 3.56731 16.0981 3.70193C16.4378 3.83654 16.7385 4.03398 17 4.29423V3C17 2.45 16.8042 1.97917 16.4125 1.5875C16.0208 1.19583 15.55 1 15 1H3C2.45 1 1.97917 1.19583 1.5875 1.5875C1.19583 1.97917 1 2.45 1 3V4.29423C1.26153 4.03398 1.56217 3.83654 1.90192 3.70193C2.24167 3.56731 2.6077 3.5 3 3.5ZM1.03462 6.23078L12.3712 8.98845C12.4955 9.02178 12.6231 9.02499 12.7538 8.99807C12.8846 8.97116 12.9974 8.91411 13.0923 8.82693L16.8173 5.67693C16.6724 5.32436 16.4359 5.04007 16.1077 4.82405C15.7795 4.60802 15.4102 4.5 15 4.5H3C2.48975 4.5 2.04968 4.66378 1.6798 4.99135C1.30993 5.31892 1.09487 5.73206 1.03462 6.23078Z" fill="#233C67"/>
</svg>
