<svg width="40" height="40" viewBox="0 0 40 40" fill="none" xmlns="http://www.w3.org/2000/svg">
<path d="M14.2999 12.9C13.8375 11.5839 12.9787 10.4433 11.8416 9.63528C10.7045 8.82721 9.34493 8.3913 7.94995 8.3875C7.35661 8.37704 6.76435 8.44215 6.18745 8.58125C5.64647 8.76779 5.08701 8.89561 4.5187 8.9625C4.15196 8.97151 3.788 8.89682 3.45445 8.74413C3.1209 8.59143 2.82653 8.36473 2.5937 8.08125C2.1537 7.52243 1.83639 6.87716 1.66245 6.1875C1.50707 5.40232 1.56975 4.58957 1.8437 3.8375C1.91166 3.72884 1.98904 3.62636 2.07495 3.53125C2.02605 3.8802 2.04945 4.23548 2.1437 4.575C2.23947 4.90612 2.39402 5.21733 2.59995 5.49375C2.9153 5.87272 3.33623 6.14935 3.80922 6.28847C4.28221 6.42758 4.78588 6.42289 5.2562 6.275C5.61131 6.17337 5.97243 6.09404 6.33745 6.0375C6.47495 6.0125 6.61245 5.98125 6.74995 5.96875C7.35378 5.90146 7.96232 5.88683 8.5687 5.925C10.3831 6.06237 12.1237 6.70101 13.5964 7.7697C15.0691 8.83839 16.2161 10.2951 16.9093 11.9775C16.4824 12.1195 16.0697 12.3013 15.6768 12.5206C15.2351 12.8699 14.8492 13.2844 14.5324 13.75C14.5262 13.7188 14.4499 13.3938 14.4374 13.3625V13.3563C14.4315 13.3162 14.4231 13.2766 14.4124 13.2375C14.3937 13.1813 14.3812 13.125 14.3562 13.0688" fill="#F6B884"/>
<path d="M12.9063 14.0437C13.2125 14.2562 13.55 14.475 13.9063 14.6937C13.826 14.9887 13.7695 15.2897 13.7375 15.5937C13.7063 15.7375 13.675 15.8812 13.6563 16.0312C13.6048 16.3956 13.5944 16.7646 13.625 17.1312C13.2872 17.1666 12.9458 17.126 12.6258 17.0125C12.3057 16.8989 12.015 16.7153 11.775 16.475C11.6125 16.3125 11.4 16.0812 11.1625 15.7937C11.0938 15.7125 11.025 15.625 10.9563 15.5312C9.93127 14.2187 8.70002 12.15 9.65627 11.2062C9.65627 11.2062 9.72502 11.225 9.82502 11.2625C10.702 12.3434 11.7414 13.2817 12.9063 14.0437Z" fill="#FFF9ED"/>
<path d="M9.2938 23.275C8.80173 22.1089 8.63942 20.83 8.82459 19.578C9.00975 18.3259 9.53527 17.1488 10.3438 16.175C10.5128 15.9701 10.6922 15.774 10.8813 15.5875L10.9563 15.5312C11.025 15.625 11.0938 15.7125 11.1625 15.7938C11.4 16.0813 11.6125 16.3125 11.775 16.475C12.015 16.7153 12.3057 16.8989 12.6258 17.0125C12.9459 17.126 13.2873 17.1666 13.625 17.1312C13.6261 17.1877 13.6303 17.244 13.6375 17.3L13.6625 17.55L14.0875 21.7438C14.1887 22.6478 14.4624 23.5241 14.8938 24.325C15.3941 25.2933 15.718 26.3431 15.85 27.425C15.9176 27.9137 15.949 28.4067 15.9438 28.9C15.9377 29.5757 16.0763 30.2448 16.35 30.8625L15.8063 30.6938C10.7313 29.4812 9.92505 25.7437 10.3938 22.6312C10.15 22.8562 9.9188 23.0875 9.68755 23.3125C9.65959 23.3466 9.62424 23.3739 9.58417 23.3923C9.54411 23.4107 9.50038 23.4197 9.4563 23.4188C9.41882 23.4115 9.38397 23.3944 9.35539 23.3691C9.3268 23.3438 9.30553 23.3113 9.2938 23.275Z" fill="#F6B884"/>
<path d="M15.9812 12.2938C15.2817 12.7744 14.7022 13.4095 14.2875 14.15C14.0337 14.6014 13.8483 15.0879 13.7375 15.5938C13.7695 15.2897 13.8259 14.9887 13.9062 14.6938C13.55 14.475 13.2125 14.2563 12.9062 14.0438C11.7414 13.2817 10.7019 12.3435 9.82495 11.2625C11.3586 11.6861 12.8552 12.2337 14.3 12.9C14.3243 12.9542 14.3431 13.0108 14.3562 13.0688C14.3812 13.125 14.3937 13.1813 14.4125 13.2375C14.4231 13.2766 14.4315 13.3162 14.4375 13.3563V13.3625C14.45 13.3938 14.5262 13.7188 14.5325 13.75C14.7963 13.3741 15.1008 13.0284 15.4406 12.7194C15.5978 12.5505 15.7802 12.407 15.9812 12.2938Z" fill="#8C64B4"/>
<path d="M22.7501 10.3625C22.4494 10.0147 22.22 9.61126 22.0751 9.175C22.0313 8.925 21.8876 7.5375 22.2126 7.41875C21.821 7.54083 21.4592 7.74303 21.1501 8.0125C21.0272 8.12275 20.9347 8.26261 20.8813 8.41875C20.7878 8.19667 20.7146 7.96656 20.6626 7.73125C20.5741 7.30753 20.5636 6.87127 20.6313 6.44375C20.6604 6.33995 20.6647 6.23077 20.6438 6.125C20.5313 5.69375 20.0001 6.30625 19.7501 6.6125C19.7001 6.66875 19.6626 6.71875 19.6438 6.74375C19.2438 7.2125 18.8563 7.69375 18.4938 8.1875C17.9001 9 17.0313 10.0813 17.0313 11.125C17.0295 11.3921 17.0696 11.6578 17.1501 11.9125C17.3251 12.4906 17.6595 13.0078 18.115 13.4046C18.5704 13.8014 19.1284 14.0619 19.7251 14.1563C20.1821 14.2279 20.6498 14.1871 21.0876 14.0375C21.8127 13.7807 22.4149 13.261 22.7751 12.5813C22.8272 12.48 22.8732 12.3756 22.9126 12.2688C22.9371 12.2054 22.958 12.1407 22.9751 12.075C23.0653 11.7905 23.0919 11.4897 23.0531 11.1937C23.0142 10.8978 22.9107 10.614 22.7501 10.3625Z" fill="#FFA467"/>
<path d="M21.7063 27.8063C21.7834 27.6674 21.8206 27.5099 21.8139 27.3512C21.8072 27.1925 21.7568 27.0387 21.6682 26.9068C21.5796 26.775 21.4564 26.6701 21.312 26.6038C21.1677 26.5376 21.0078 26.5124 20.8501 26.5313H19.6063C18.8438 26.5313 18.3688 27.2438 18.7438 27.8063L19.0626 28.275L19.3688 28.7438C19.4691 28.8758 19.5986 28.983 19.7471 29.0567C19.8956 29.1304 20.0592 29.1688 20.2251 29.1688C20.3909 29.1688 20.5545 29.1304 20.703 29.0567C20.8516 28.983 20.981 28.8758 21.0813 28.7438L21.3876 28.275L21.7063 27.8063ZM24.3751 20.2063C24.4777 19.9724 24.4844 19.7076 24.3938 19.4688C24.388 19.5533 24.3577 19.6344 24.3067 19.7021C24.2556 19.7697 24.186 19.8211 24.1063 19.85C23.9969 19.8907 23.8758 19.8867 23.7693 19.8387C23.6628 19.7907 23.5796 19.7027 23.5376 19.5938C23.4963 19.4835 23.5 19.3614 23.5479 19.2538C23.5959 19.1462 23.6842 19.0618 23.7938 19.0188C23.8556 18.9955 23.9219 18.987 23.9876 18.9938C23.9622 18.9712 23.9324 18.9542 23.9001 18.9438C23.7285 18.8663 23.5378 18.8414 23.352 18.8722C23.1663 18.9031 22.9939 18.9882 22.8565 19.117C22.7192 19.2458 22.6231 19.4124 22.5804 19.5958C22.5377 19.7791 22.5503 19.971 22.6166 20.1473C22.6829 20.3235 22.7999 20.4761 22.9529 20.5858C23.1059 20.6956 23.288 20.7575 23.4761 20.7638C23.6643 20.7701 23.8501 20.7205 24.0101 20.6213C24.1701 20.5221 24.2971 20.3776 24.3751 20.2063ZM18.5251 19.4688C18.5192 19.5533 18.489 19.6344 18.4379 19.7021C18.3869 19.7697 18.3173 19.8211 18.2376 19.85C18.1281 19.8907 18.007 19.8867 17.9006 19.8387C17.7941 19.7907 17.7108 19.7027 17.6688 19.5938C17.6275 19.4835 17.6313 19.3614 17.6792 19.2538C17.7271 19.1462 17.8154 19.0618 17.9251 19.0188C17.9868 18.9955 18.0532 18.987 18.1188 18.9938C18.0934 18.9712 18.0636 18.9542 18.0313 18.9438C17.8597 18.8663 17.669 18.8414 17.4833 18.8722C17.2976 18.9031 17.1251 18.9882 16.9878 19.117C16.8504 19.2458 16.7543 19.4124 16.7116 19.5958C16.6689 19.7791 16.6815 19.971 16.7478 20.1473C16.8141 20.3235 16.9311 20.4761 17.0841 20.5858C17.2371 20.6956 17.4192 20.7575 17.6074 20.7638C17.7955 20.7701 17.9814 20.7205 18.1414 20.6213C18.3014 20.5221 18.4284 20.3776 18.5063 20.2063C18.6089 19.9724 18.6156 19.7076 18.5251 19.4688ZM14.2876 14.15C14.7023 13.4095 15.2818 12.7744 15.9813 12.2938C16.3625 12.1424 16.7529 12.015 17.1501 11.9125C17.2665 12.3122 17.4612 12.6848 17.7229 13.0085C17.9846 13.3323 18.308 13.6009 18.6743 13.7986C19.0407 13.9963 19.4427 14.1192 19.857 14.1603C20.2712 14.2013 20.6895 14.1595 21.0876 14.0375C21.8127 13.7807 22.4149 13.261 22.7751 12.5813C23.0563 12.7 23.3313 12.8313 23.6001 12.975C23.7495 13.1266 23.8893 13.2873 24.0188 13.4563C24.0313 13.475 24.0501 13.4938 24.0626 13.5125C24.6364 14.248 25.0013 15.1246 25.1188 16.05C25.1711 16.429 25.1794 16.8128 25.1438 17.1938L25.1126 17.5813L24.6813 22.8625C24.6299 23.4211 24.4707 23.9645 24.2126 24.4625C23.8919 25.1125 23.6506 25.7986 23.4938 26.5063C23.3345 27.2011 23.2569 27.9122 23.2626 28.625C23.2669 28.8571 23.2522 29.0891 23.2188 29.3188C23.1601 29.7725 23.0337 30.215 22.8438 30.6313C22.3664 31.6762 21.5337 32.5178 20.4938 33.0063C20.4126 33.0438 20.3376 33.075 20.2563 33.1063C20.043 33.198 19.8238 33.2752 19.6001 33.3375L19.5876 33.4063C19.2845 33.3482 18.9874 33.2624 18.7001 33.15C17.85 32.8178 17.1321 32.2163 16.6563 31.4375C16.5396 31.254 16.4372 31.0618 16.3501 30.8625C16.0763 30.2448 15.9377 29.5757 15.9438 28.9C15.949 28.4067 15.9177 27.9137 15.8501 27.425C15.718 26.3431 15.3942 25.2933 14.8938 24.325C14.4624 23.5241 14.1887 22.6478 14.0876 21.7438L13.6626 17.55L13.6376 17.3C13.6303 17.244 13.6261 17.1877 13.6251 17.1313C13.5944 16.7646 13.6049 16.3956 13.6563 16.0313C13.6751 15.8813 13.7063 15.7375 13.7376 15.5938C13.8484 15.0879 14.0338 14.6014 14.2876 14.15Z" fill="#FDFDFD"/>
<path d="M20.4938 33.0062C21.5336 32.5178 22.3664 31.6762 22.8438 30.6312C23.0337 30.2149 23.1601 29.7725 23.2188 29.3187C23.771 29.0351 24.2979 28.7047 24.7938 28.3312C24.7875 28.4312 24.7875 28.5312 24.7875 28.625C24.7979 29.3165 24.6549 30.0016 24.3688 30.6312C24.3376 30.7072 24.2999 30.7804 24.2563 30.85C23.7702 31.797 22.9831 32.5555 22.0188 33.0062C21.9375 33.0437 21.8625 33.075 21.7813 33.1062C21.3033 33.3252 20.7877 33.4504 20.2625 33.475C20.0464 33.475 19.8308 33.4541 19.6188 33.4125C19.6063 33.4125 19.6 33.4062 19.5875 33.4062L19.6 33.3375C19.8237 33.2752 20.043 33.198 20.2563 33.1062C20.3375 33.075 20.4125 33.0437 20.4938 33.0062Z" fill="#FFF9ED"/>
<path d="M23.2188 29.3188C23.2522 29.0891 23.2668 28.8571 23.2625 28.625C23.2568 27.9122 23.3344 27.2011 23.4938 26.5063C23.6505 25.7987 23.8918 25.1125 24.2125 24.4625C24.4707 23.9645 24.6299 23.4211 24.6813 22.8625L25.1125 17.5813L25.1438 17.1938C25.1794 16.8128 25.171 16.429 25.1188 16.05C25.0013 15.1246 24.6364 14.248 24.0625 13.5125C24.05 13.4938 24.0313 13.475 24.0188 13.4563C23.8893 13.2873 23.7495 13.1266 23.6 12.975C23.3313 12.8313 23.0563 12.7 22.775 12.5813C22.8272 12.48 22.8731 12.3756 22.9125 12.2688C22.9371 12.2054 22.958 12.1407 22.975 12.075C23.2625 12.1688 23.55 12.2625 23.825 12.375C23.8284 12.3746 23.8319 12.375 23.8351 12.376C23.8383 12.3771 23.8413 12.3789 23.8438 12.3813C23.85 12.3813 23.85 12.3875 23.8563 12.3875C24.2888 12.5618 24.7123 12.7579 25.125 12.975C25.2745 13.1266 25.4143 13.2873 25.5438 13.4563C25.5563 13.475 25.575 13.4938 25.5875 13.5125C26.1614 14.248 26.5263 15.1246 26.6438 16.05C26.696 16.429 26.7044 16.8128 26.6688 17.1938L26.6375 17.5813L26.2063 22.8625C26.1549 23.4211 25.9957 23.9645 25.7375 24.4625C25.1477 25.669 24.8257 26.9887 24.7938 28.3313C24.2979 28.7047 23.771 29.0351 23.2188 29.3188Z" fill="#FFF9ED"/>
<path d="M32.025 8.73751C30.6249 8.74053 29.2603 9.1789 28.1204 9.99187C26.9804 10.8048 26.1215 11.9522 25.6625 13.275C25.6438 13.2625 25.6188 13.25 25.6 13.2375V13.2313C25.4438 13.1438 25.2875 13.0563 25.125 12.975C24.7123 12.7579 24.2888 12.5618 23.8563 12.3875C23.85 12.3875 23.85 12.3813 23.8438 12.3813C23.8413 12.3789 23.8383 12.3771 23.8351 12.376C23.8319 12.3749 23.8284 12.3746 23.825 12.375C23.6774 12.2913 23.5251 12.2162 23.3688 12.15C24.0049 10.5048 25.0997 9.07677 26.5233 8.03538C27.9469 6.99398 29.6395 6.38301 31.4 6.27501C32.0064 6.23669 32.615 6.25133 33.2188 6.31876C33.3563 6.33126 33.5 6.36251 33.6375 6.38751C34.0004 6.44473 34.3594 6.52404 34.7125 6.62501C35.1838 6.77289 35.6884 6.7776 36.1624 6.63852C36.6363 6.49945 37.0584 6.22285 37.375 5.84376C37.581 5.56733 37.7355 5.25613 37.8313 4.92501C37.9266 4.58558 37.9479 4.22963 37.8938 3.88126C37.9816 3.97476 38.0591 4.07744 38.125 4.18751C38.402 4.93891 38.4648 5.75251 38.3063 6.53751C38.1345 7.22677 37.8193 7.87206 37.3813 8.43126C37.148 8.71424 36.8536 8.94059 36.5201 9.09324C36.1867 9.24589 35.8229 9.32086 35.4563 9.31251C34.8859 9.24562 34.3244 9.11781 33.7813 8.93126C33.2065 8.79216 32.6163 8.72705 32.025 8.73751Z" fill="#F6B884"/>
<path d="M30.3062 16.3812C31.0855 17.3707 31.589 18.5487 31.7657 19.7957C31.9425 21.0427 31.7861 22.3142 31.3125 23.4812C31.3025 23.5164 31.2833 23.5482 31.257 23.5735C31.2306 23.5987 31.198 23.6165 31.1625 23.625C31.1193 23.6259 31.0765 23.6168 31.0375 23.5984C30.9984 23.5799 30.9642 23.5527 30.9375 23.5187C30.7187 23.2937 30.5 23.0625 30.2625 22.8375C30.6812 25.7 27.8687 29.3187 24.4812 30.9687L24.2562 30.85C24.2999 30.7804 24.3375 30.7072 24.3687 30.6312C24.6548 30.0017 24.7979 29.3165 24.7875 28.625C24.7875 28.5312 24.7875 28.4312 24.7937 28.3312C27.3062 26.4687 29.1 23.6437 28.7562 21.3125C28.9937 21.5375 29.2125 21.7687 29.4375 21.9937C29.4624 22.028 29.4954 22.0556 29.5336 22.0742C29.5717 22.0927 29.6138 22.1016 29.6562 22.1C29.6922 22.0925 29.7253 22.075 29.7518 22.0496C29.7783 22.0242 29.7972 21.9918 29.8062 21.9562C30.175 21.061 30.3548 20.0993 30.3343 19.1313C30.3139 18.1634 30.0937 17.2101 29.6875 16.3312L30.0625 16.15L30.3062 16.3812Z" fill="#FFA467"/>
<path d="M29.3875 15.75C29.2625 15.8938 29.1437 16.0313 29.0312 16.15C28.8937 16.2938 28.7687 16.4188 28.6687 16.5125C28.4033 16.7602 28.0837 16.9426 27.7355 17.0453C27.3872 17.1479 27.0198 17.1679 26.6625 17.1038C26.8219 16.3146 26.8219 15.5016 26.6625 14.7125C26.8687 14.5938 27.0687 14.4813 27.2562 14.3625C28.5695 13.624 29.7469 12.6665 30.7375 11.5313C30.8375 11.5 30.9062 11.4813 30.9062 11.4813C31.8312 12.4625 30.45 14.525 29.3875 15.75Z" fill="#FFF9ED"/>
<path d="M29.6875 16.3313C30.0937 17.2101 30.3139 18.1634 30.3343 19.1314C30.3548 20.0993 30.175 21.0611 29.8062 21.9563C29.7972 21.9919 29.7783 22.0242 29.7518 22.0496C29.7253 22.075 29.6922 22.0925 29.6562 22.1C29.6138 22.1016 29.5717 22.0927 29.5336 22.0742C29.4954 22.0557 29.4624 22.028 29.4375 21.9938C29.2125 21.7688 28.9937 21.5375 28.7562 21.3125C29.1 23.6438 27.3062 26.4688 24.7937 28.3313C24.8257 26.9887 25.1476 25.669 25.7375 24.4625C25.9956 23.9645 26.1548 23.4211 26.2062 22.8625L26.6375 17.5813L26.6687 17.1938C26.7043 16.8128 26.696 16.429 26.6437 16.05C26.5262 15.1246 26.1613 14.248 25.5875 13.5125C25.6062 13.4313 25.1575 13.0825 25.1887 13.0075C25.3137 13.0763 25.9062 13.4188 26.0312 13.4938C26.1312 13.5563 26.225 13.6125 26.3187 13.675C26.4659 14.0092 26.581 14.3566 26.6625 14.7125C26.8218 15.5016 26.8218 16.3146 26.6625 17.1038C27.0198 17.1679 27.3872 17.1479 27.7355 17.0453C28.0837 16.9426 28.4033 16.7602 28.6687 16.5125C28.7687 16.4188 28.8937 16.2938 29.0312 16.15C29.1437 16.0313 29.2625 15.8938 29.3875 15.75C29.4998 15.9371 29.6 16.1313 29.6875 16.3313Z" fill="#F6B884"/>
<path d="M30.7375 11.5312C29.7469 12.6665 28.5695 13.624 27.2562 14.3625C27.0687 14.4812 26.8687 14.5938 26.6625 14.7125C26.581 14.3566 26.4659 14.0092 26.3187 13.675C26.2937 13.6187 26.2937 13.6187 26.0312 13.4937L25.6931 13.2537C27.3149 12.5179 29.0043 11.941 30.7375 11.5312Z" fill="#8C64B4"/>
<path d="M24.3937 19.4688C24.4843 19.7076 24.4776 19.9724 24.3749 20.2063C24.2969 20.3772 24.17 20.5212 24.0102 20.6201C23.8504 20.719 23.6649 20.7684 23.4771 20.7619C23.2893 20.7555 23.1076 20.6936 22.9549 20.584C22.8022 20.4744 22.6855 20.3221 22.6193 20.1462C22.5531 19.9703 22.5405 19.7788 22.5831 19.5957C22.6257 19.4127 22.7215 19.2464 22.8585 19.1178C22.9955 18.9891 23.1675 18.904 23.3529 18.873C23.5382 18.842 23.7286 18.8667 23.8999 18.9438C23.9323 18.9542 23.9621 18.9712 23.9874 18.9938C23.9218 18.987 23.8555 18.9955 23.7937 19.0188C23.6841 19.0618 23.5958 19.1462 23.5478 19.2538C23.4999 19.3614 23.4962 19.4835 23.5374 19.5938C23.5795 19.7027 23.6627 19.7907 23.7692 19.8387C23.8757 19.8867 23.9968 19.8907 24.1062 19.85C24.1859 19.8212 24.2555 19.7698 24.3065 19.7021C24.3576 19.6344 24.3879 19.5533 24.3937 19.4688Z" fill="#232323"/>
<path d="M21.7812 33.1063C21.9379 33.6301 21.9263 34.1899 21.748 34.7068C21.5697 35.2237 21.2338 35.6717 20.7875 35.9875C20.3716 36.2839 19.8787 36.4535 19.3685 36.4757C18.8582 36.4979 18.3525 36.3717 17.9125 36.1125C18.2825 36.0486 18.633 35.9011 18.9375 35.6813C18.9815 35.651 19.0233 35.6176 19.0625 35.5813H19.0125C18.5033 35.5809 18.0052 35.4332 17.5782 35.1559C17.1512 34.8786 16.8136 34.4837 16.6062 34.0188C17.108 34.2487 17.6698 34.3139 18.2109 34.205C18.7521 34.096 19.2449 33.8187 19.6187 33.4125C19.8308 33.4541 20.0464 33.475 20.2625 33.475C20.7876 33.4504 21.3032 33.3252 21.7812 33.1063Z" fill="#F6B884"/>
<path d="M20.8499 26.5312C21.0077 26.5124 21.1675 26.5376 21.3119 26.6038C21.4563 26.6701 21.5795 26.7749 21.6681 26.9068C21.7566 27.0387 21.8071 27.1925 21.8138 27.3512C21.8205 27.5099 21.7833 27.6674 21.7062 27.8062L21.3874 28.275L21.0812 28.7437C20.9809 28.8758 20.8515 28.9829 20.7029 29.0567C20.5544 29.1304 20.3908 29.1688 20.2249 29.1688C20.0591 29.1688 19.8955 29.1304 19.747 29.0567C19.5984 28.9829 19.469 28.8758 19.3687 28.7437L19.0624 28.275L18.7437 27.8062C18.3687 27.2437 18.8437 26.5312 19.6062 26.5312H20.8499Z" fill="#8C64B4"/>
<path d="M18.525 19.4688C18.6156 19.7076 18.6089 19.9724 18.5063 20.2063C18.4283 20.3772 18.3013 20.5212 18.1415 20.6201C17.9817 20.719 17.7962 20.7684 17.6084 20.7619C17.4206 20.7555 17.2389 20.6936 17.0863 20.584C16.9336 20.4744 16.8168 20.3221 16.7506 20.1462C16.6845 19.9703 16.6719 19.7788 16.7144 19.5957C16.757 19.4127 16.8528 19.2464 16.9898 19.1178C17.1268 18.9891 17.2989 18.904 17.4842 18.873C17.6696 18.842 17.8599 18.8667 18.0313 18.9438C18.0636 18.9542 18.0934 18.9712 18.1188 18.9938C18.0531 18.987 17.9868 18.9955 17.925 19.0188C17.8154 19.0618 17.7271 19.1462 17.6792 19.2538C17.6312 19.3614 17.6275 19.4835 17.6688 19.5938C17.7108 19.7027 17.7941 19.7907 17.9005 19.8387C18.007 19.8867 18.1281 19.8907 18.2375 19.85C18.3173 19.8212 18.3869 19.7698 18.4379 19.7021C18.4889 19.6344 18.5192 19.5533 18.525 19.4688Z" fill="#232323"/>
<path d="M38.6444 3.83999C38.5553 3.69516 38.4505 3.5606 38.3319 3.43874C38.2392 3.34495 38.1191 3.28289 37.989 3.26145C37.8589 3.24001 37.7253 3.26029 37.6074 3.31939C37.4895 3.37848 37.3933 3.47336 37.3326 3.59045C37.2719 3.70753 37.2497 3.84083 37.2694 3.97124C37.3127 4.23056 37.2997 4.49615 37.2313 4.74999C37.1564 5.00855 37.0357 5.25156 36.875 5.46749C36.6346 5.74558 36.3176 5.9467 35.9636 6.04574C35.6096 6.14477 35.2342 6.13734 34.8844 6.02437C34.5117 5.91738 34.1329 5.83326 33.75 5.77249L33.6588 5.75562C33.5338 5.73124 33.4013 5.70749 33.2888 5.69749C32.6478 5.62581 32.0018 5.61033 31.3581 5.65124C29.7563 5.75646 28.2039 6.24897 26.8344 7.08647C25.4649 7.92396 24.3192 9.08141 23.4956 10.4594C23.4372 10.3086 23.3643 10.1637 23.2781 10.0269C23.2006 9.90499 23.1156 9.78937 23.0319 9.67499C22.8762 9.49902 22.7603 9.29162 22.6919 9.06687C22.6304 8.66866 22.6174 8.26446 22.6531 7.86312C22.7546 7.7628 22.8186 7.63081 22.8346 7.48907C22.8507 7.34733 22.8178 7.20436 22.7413 7.08392C22.6649 6.96348 22.5496 6.8728 22.4145 6.82695C22.2794 6.7811 22.1327 6.78284 21.9988 6.83187L21.9856 6.83624C21.722 6.93051 21.466 7.04502 21.22 7.17874C21.206 6.9606 21.216 6.74156 21.25 6.52562C21.2943 6.34305 21.2943 6.15256 21.25 5.96999C21.2186 5.82399 21.1463 5.68991 21.0416 5.58336C20.937 5.47681 20.8042 5.40217 20.6588 5.36812C20.0963 5.24312 19.6256 5.76687 19.1688 6.33812C18.7244 6.85937 18.3388 7.34312 17.9894 7.81874L17.8388 8.02375C17.295 8.6863 16.8616 9.4321 16.555 10.2325C15.7379 8.8207 14.5853 7.63213 13.1993 6.772C11.8133 5.91187 10.2366 5.40671 8.60877 5.30124C7.97034 5.26023 7.32956 5.27529 6.69377 5.34624C6.56877 5.35749 6.44689 5.38062 6.32314 5.40437L6.24002 5.41999C5.85244 5.47915 5.46897 5.56265 5.09189 5.66999C4.74266 5.78366 4.36768 5.79194 4.01377 5.69379C3.65986 5.59564 3.3427 5.39542 3.10189 5.11812C2.9409 4.90209 2.81964 4.65913 2.74377 4.40062C2.67343 4.14343 2.65684 3.87451 2.69501 3.61062C2.71173 3.48115 2.68748 3.34971 2.62568 3.23472C2.56388 3.11974 2.46763 3.02699 2.35043 2.9695C2.23324 2.912 2.10098 2.89265 1.97222 2.91414C1.84347 2.93564 1.72467 2.99692 1.63252 3.08937C1.53779 3.18781 1.45281 3.29518 1.37877 3.40999L1.33314 3.47687C1.32032 3.49479 1.30843 3.51336 1.29752 3.53249C0.941855 4.43023 0.859446 5.41306 1.06064 6.35749C1.25671 7.13273 1.61596 7.85719 2.11439 8.48249C2.40724 8.83943 2.77795 9.12456 3.19809 9.31599C3.61823 9.50743 4.07663 9.60009 4.53814 9.58687C4.98801 9.5588 5.43203 9.47008 5.85814 9.32312C6.01564 9.27562 6.17064 9.22812 6.33252 9.18937C6.85939 9.06168 7.40049 9.00224 7.94252 9.0125C8.92632 9.02028 9.89415 9.26212 10.766 9.71803C11.6378 10.1739 12.3886 10.8308 12.9563 11.6344C11.7063 11.1619 10.385 10.7737 10.0131 10.6669C9.90064 10.6262 9.82001 10.6044 9.82001 10.6044C9.71427 10.576 9.60294 10.5757 9.49705 10.6035C9.39115 10.6314 9.29437 10.6864 9.21627 10.7631C7.98064 11.9831 9.15376 14.1237 10.1269 15.4725C10.0369 15.5706 9.94689 15.6731 9.86189 15.78C8.98545 16.8396 8.41511 18.1185 8.21244 19.4786C8.00977 20.8387 8.18247 22.2284 8.71189 23.4975C8.76283 23.6393 8.8515 23.7646 8.96836 23.8597C9.08521 23.9549 9.22581 24.0163 9.37502 24.0375C9.46762 24.0505 9.5618 24.0469 9.65314 24.0269C9.61439 27.7512 11.7431 30.3656 15.6588 31.3012C15.7065 31.3124 15.7554 31.318 15.8044 31.3181C15.8299 31.3156 15.8552 31.3112 15.88 31.305C15.9541 31.4636 16.0365 31.6182 16.1269 31.7681C16.6745 32.6631 17.5004 33.3538 18.4781 33.7344C18.5088 33.7456 18.5344 33.7525 18.5638 33.7631C18.2728 33.8817 17.9609 33.9403 17.6468 33.9354C17.3326 33.9304 17.0227 33.8621 16.7356 33.7344C16.678 33.7084 16.6139 33.7006 16.5518 33.7118C16.4896 33.7231 16.4323 33.7529 16.3874 33.7974C16.3426 33.8418 16.3122 33.8989 16.3004 33.9609C16.2886 34.023 16.2959 34.0872 16.3213 34.145C16.4887 34.5234 16.7347 34.8618 17.043 35.1378C17.3513 35.4138 17.7148 35.621 18.1094 35.7456C18.0273 35.7703 17.9438 35.7901 17.8594 35.805C17.7965 35.8161 17.7385 35.8462 17.6933 35.8913C17.648 35.9364 17.6177 35.9942 17.6063 36.0571C17.5949 36.1199 17.6031 36.1848 17.6297 36.2428C17.6563 36.3009 17.7 36.3494 17.755 36.3819C18.2468 36.672 18.8121 36.8133 19.3825 36.7885C19.953 36.7638 20.504 36.5741 20.9688 36.2425C21.3835 35.9486 21.7141 35.5514 21.9279 35.0903C22.1417 34.6291 22.2312 34.1201 22.1875 33.6137C22.2194 33.6 22.25 33.5887 22.2838 33.5731C23.2173 33.1362 24.0071 32.4425 24.5606 31.5731C24.6277 31.5692 24.6937 31.554 24.7556 31.5281C27.6081 30.1425 30.43 27.1419 30.8706 24.2056C30.9937 24.2485 31.1254 24.2612 31.2544 24.2425C31.3958 24.2213 31.5289 24.1627 31.6401 24.0728C31.7513 23.983 31.8365 23.865 31.8869 23.7312C32.4005 22.4599 32.5705 21.0757 32.3797 19.7178C32.1889 18.36 31.6441 17.0762 30.8 15.9956C30.781 15.9713 30.7601 15.9485 30.7375 15.9275L30.4938 15.6962C30.4441 15.6522 30.3875 15.6167 30.3263 15.5912C31.3 14.3331 32.525 12.285 31.3619 11.0519C31.2843 10.9696 31.1858 10.9099 31.0769 10.8792C30.9681 10.8485 30.8529 10.8479 30.7438 10.8775C30.7438 10.8775 30.6725 10.8969 30.5719 10.9281C29.3615 11.2287 28.1671 11.5902 26.9931 12.0112C27.5611 11.1982 28.3157 10.5333 29.1938 10.0723C30.0718 9.61134 31.0477 9.3677 32.0394 9.36187C32.576 9.35236 33.1115 9.41138 33.6331 9.53749C33.7944 9.5775 33.9519 9.62437 34.1088 9.67124C34.5388 9.81968 34.9871 9.90883 35.4413 9.93624C35.9017 9.95118 36.3593 9.85962 36.7785 9.66872C37.1977 9.47782 37.5672 9.19271 37.8581 8.83562C38.3575 8.21003 38.7157 7.48385 38.9081 6.70687V6.70249C39.1117 5.74361 39.0198 4.74553 38.6444 3.83999ZM28.0863 13.0731C28.0144 13.1244 27.9444 13.1756 27.87 13.2262C27.6046 13.4075 27.3246 13.5871 27.03 13.765C26.9863 13.6481 26.94 13.5331 26.8894 13.4206L26.8813 13.4012C27.3075 13.2137 27.8394 13.0262 28.3888 12.8475C28.2875 12.9225 28.1925 13 28.0863 13.0731ZM18.8431 8.76624L18.9975 8.5575C19.2881 8.16124 19.6075 7.75687 19.9756 7.31874C20.0113 7.78359 20.1237 8.23933 20.3081 8.66749C20.3576 8.78437 20.442 8.88312 20.5497 8.95024C20.6575 9.01736 20.7833 9.04958 20.91 9.04249C21.0049 9.03819 21.0976 9.01231 21.181 8.96682C21.2643 8.92134 21.3363 8.85744 21.3913 8.77999C21.4106 8.9775 21.4375 9.15499 21.4619 9.29374C21.5586 9.70766 21.7513 10.093 22.0244 10.4187C22.0925 10.51 22.1606 10.6019 22.2263 10.7056C22.3386 10.8822 22.4102 11.0816 22.4357 11.2893C22.4612 11.497 22.4401 11.7078 22.3738 11.9062V11.9162C22.3621 11.9621 22.3475 12.0072 22.33 12.0512C22.2043 12.3732 22.0109 12.6644 21.7629 12.9052C21.5149 13.146 21.2181 13.3307 20.8925 13.4469C20.5868 13.548 20.2636 13.5854 19.9429 13.5569C19.6222 13.5284 19.3106 13.4346 19.0275 13.2812C18.7207 13.1192 18.4493 12.8976 18.2293 12.6293C18.0092 12.3609 17.845 12.0514 17.7463 11.7187C17.686 11.5269 17.6562 11.3267 17.6581 11.1256C17.6563 10.375 18.3125 9.48249 18.8431 8.76624ZM12.4594 12.9425C12.3952 12.8933 12.3327 12.844 12.2719 12.7944C12.2094 12.7469 12.1588 12.6987 12.1 12.6506C12.6742 12.85 13.2375 13.0795 13.7875 13.3381C13.7898 13.3456 13.7928 13.353 13.7963 13.36L13.82 13.355V13.36H13.8125C13.8091 13.4328 13.8215 13.5055 13.8488 13.5731C13.8524 13.5943 13.8574 13.6151 13.8638 13.6356C13.8219 13.7037 13.7819 13.7731 13.7431 13.8431L13.7394 13.85C13.5738 13.7419 13.4131 13.635 13.2606 13.5287C12.9775 13.3344 12.7138 13.1387 12.4594 12.9425ZM7.96314 7.7625C7.91272 7.7625 7.8621 7.7625 7.81126 7.7625C7.21431 7.76409 6.6196 7.83584 6.03939 7.97624C5.85564 8.02125 5.67689 8.07437 5.49939 8.12749C5.17782 8.24074 4.84296 8.31195 4.50314 8.33937C4.23 8.34387 3.95934 8.28682 3.71125 8.17246C3.46316 8.0581 3.244 7.88936 3.07002 7.67874C2.70136 7.20777 2.43371 6.66587 2.28377 6.08687C2.68898 6.48864 3.19493 6.77384 3.74844 6.91252C4.30196 7.05121 4.88261 7.03824 5.42939 6.87499C5.76425 6.77964 6.10469 6.70513 6.44876 6.65187L6.55877 6.63124C6.64444 6.6128 6.73102 6.59883 6.81814 6.58937C7.38522 6.52584 7.95678 6.51204 8.52627 6.54812C10.0717 6.64551 11.5625 7.15653 12.8427 8.02769C14.1229 8.89886 15.1454 10.0981 15.8031 11.5C15.5186 11.6589 15.2484 11.8423 14.9956 12.0481C14.9806 12.0587 14.965 12.0694 14.9506 12.0806C14.8752 12.1406 14.8004 12.2031 14.7263 12.2681C14.1612 10.9394 13.2198 9.80492 12.0182 9.00437C10.8165 8.20382 9.40701 7.77215 7.96314 7.7625ZM9.95939 12.3819C10.1663 12.6019 10.3938 12.8194 10.6313 13.0394C10.7038 13.1056 10.7806 13.1719 10.8556 13.2387C11.0369 13.3987 11.2269 13.5575 11.425 13.7169C11.5069 13.7825 11.5875 13.8481 11.675 13.9137C11.9544 14.13 12.2438 14.3444 12.55 14.5575C12.7531 14.6987 12.97 14.8425 13.1969 14.9869C13.164 15.1565 13.1383 15.3252 13.12 15.4931C13.0869 15.6444 13.0575 15.795 13.0369 15.9425C13.0123 16.1162 12.9961 16.2923 12.9881 16.4706C12.696 16.3977 12.4294 16.2464 12.2169 16.0331C12.0463 15.8625 11.8419 15.6369 11.6463 15.3975C10.8588 14.5351 10.2813 13.5024 9.95877 12.38L9.95939 12.3819ZM11.0125 22.7231C11.0318 22.5953 11.011 22.4647 10.953 22.3492C10.895 22.2337 10.8026 22.139 10.6885 22.0782C10.5745 22.0174 10.4444 21.9935 10.3161 22.0097C10.1879 22.0259 10.0679 22.0815 9.97252 22.1687C9.86314 22.2687 9.75689 22.37 9.65189 22.4712C9.34714 21.4651 9.29574 20.3992 9.50226 19.3683C9.70878 18.3375 10.1668 17.3736 10.8356 16.5625C10.8613 16.5306 10.89 16.5 10.9169 16.4687C11.0919 16.6675 11.235 16.8181 11.3331 16.9162C11.7973 17.3765 12.4039 17.6654 13.0538 17.7356L13.4656 21.8075C13.5748 22.7923 13.8719 23.747 14.3406 24.62C14.8057 25.5223 15.1063 26.5003 15.2281 27.5081C15.2915 27.9676 15.321 28.4312 15.3163 28.895C15.3177 29.2444 15.3529 29.5929 15.4213 29.9356C11.0975 28.6606 10.6175 25.3419 11.0125 22.7231ZM20.6075 35.7325C20.3512 35.9156 20.0604 36.0447 19.7527 36.1119C19.445 36.1792 19.1268 36.1832 18.8175 36.1237C18.9342 36.0609 19.0464 35.9899 19.1531 35.9112C19.2004 35.8781 19.245 35.8411 19.2863 35.8006C19.3263 35.7545 19.3516 35.6976 19.3591 35.637C19.3665 35.5764 19.3558 35.515 19.3281 35.4606C19.299 35.4027 19.2544 35.354 19.1992 35.32C19.144 35.286 19.0805 35.2681 19.0156 35.2681C18.6999 35.2688 18.3873 35.205 18.0972 35.0805C17.807 34.956 17.5453 34.7736 17.3281 34.5444C18.0672 34.6381 18.814 34.4455 19.4156 34.0062C19.4425 34.0112 19.4731 34.0206 19.4994 34.025C19.7509 34.0746 20.0067 34.0995 20.2631 34.0994C20.7112 34.0867 21.1543 34.0023 21.5756 33.8494C21.5771 34.2179 21.4899 34.5813 21.3214 34.9091C21.1529 35.2368 20.908 35.5192 20.6075 35.7325ZM23.8006 30.3712C23.3873 31.2811 22.6631 32.0137 21.7581 32.4375C21.6888 32.4694 21.6263 32.4956 21.5381 32.53C21.1367 32.7153 20.704 32.8236 20.2625 32.8494C20.081 32.849 19.8999 32.831 19.7219 32.7956C19.4492 32.7453 19.1821 32.6684 18.9244 32.5662C18.2003 32.2821 17.5893 31.7683 17.185 31.1037C16.7741 30.4455 16.5602 29.6834 16.5688 28.9075C16.5742 28.3849 16.5411 27.8627 16.47 27.345C16.3283 26.1889 15.9818 25.0672 15.4469 24.0325C15.0527 23.3025 14.8024 22.5037 14.7094 21.6794L14.2581 17.225C14.2523 17.1767 14.249 17.1281 14.2481 17.0794C14.2212 16.7556 14.2306 16.4298 14.2763 16.1081C14.2925 15.9775 14.3206 15.8525 14.3481 15.7275C14.4459 15.2807 14.6098 14.8509 14.8344 14.4525C14.9215 14.2952 15.0179 14.1433 15.1231 13.9975C15.1575 13.9494 15.1988 13.905 15.2356 13.8575C15.3106 13.7606 15.385 13.6631 15.4681 13.5712C15.5175 13.5169 15.5738 13.4675 15.6256 13.415C15.7044 13.3356 15.7813 13.255 15.8656 13.1806C15.9281 13.1275 15.9906 13.0806 16.0531 13.03C16.1306 12.9675 16.2075 12.905 16.2894 12.8425C16.4531 12.78 16.6156 12.7219 16.7744 12.67C16.7813 12.6844 16.7913 12.6969 16.7981 12.7106C16.8757 12.8656 16.964 13.0149 17.0625 13.1575C17.0813 13.1856 17.1025 13.2112 17.125 13.2387C17.2189 13.3675 17.3208 13.4903 17.43 13.6062C17.4488 13.6262 17.4663 13.6475 17.4856 13.6687C17.6104 13.7946 17.7436 13.9117 17.8844 14.0194C17.9156 14.0431 17.9469 14.0662 17.9794 14.0894C18.239 14.2837 18.5242 14.4412 18.8269 14.5575C18.8663 14.5731 18.9069 14.5856 18.9469 14.5994C19.0381 14.6319 19.1294 14.6619 19.2219 14.6862C19.2688 14.6994 19.3163 14.71 19.3638 14.7206C19.4519 14.7406 19.5406 14.7575 19.63 14.7706C19.6775 14.7775 19.7244 14.785 19.7719 14.79C19.8706 14.8006 19.9688 14.8062 20.0675 14.8087C20.0969 14.8087 20.1256 14.8137 20.155 14.8137H20.1744C20.3418 14.8118 20.5089 14.7982 20.6744 14.7731C20.7119 14.7675 20.7488 14.7612 20.7856 14.7544C20.9551 14.7248 21.1222 14.683 21.2856 14.6294C21.4849 14.5604 21.6774 14.4732 21.8606 14.3687C21.8875 14.3537 21.9144 14.3406 21.9413 14.325C22.1145 14.2215 22.2788 14.1038 22.4325 13.9731C22.4619 13.9487 22.49 13.9244 22.5181 13.8987C22.6689 13.7645 22.8086 13.6182 22.9356 13.4612C22.9556 13.4362 22.9725 13.4106 22.9919 13.3856C23.1214 13.2194 23.236 13.042 23.3344 12.8556C23.42 12.8869 23.5044 12.9181 23.5875 12.9519L23.6238 12.9675C23.9831 13.1112 24.3569 13.28 24.7356 13.4769C24.8444 13.5919 24.9494 13.7106 25.0481 13.8369C25.0563 13.8475 25.0625 13.8537 25.0663 13.8581C25.0769 13.8719 25.0831 13.8819 25.0963 13.8981C25.2145 14.0499 25.323 14.209 25.4213 14.3744C25.7368 14.9151 25.9418 15.5131 26.0244 16.1337C26.0705 16.4651 26.078 16.8007 26.0469 17.1337V17.1444L25.585 22.8075C25.54 23.2878 25.4023 23.7547 25.1794 24.1825C24.8364 24.8768 24.5784 25.6101 24.4113 26.3662C24.2392 27.1103 24.1553 27.872 24.1613 28.6356C24.1714 29.2338 24.0482 29.8266 23.8006 30.3712ZM29.6325 16.6031L29.8419 16.8019C30.4697 17.6214 30.8974 18.5764 31.0906 19.5906C31.2839 20.6048 31.2375 21.6501 30.955 22.6431C30.8688 22.5562 30.7813 22.4706 30.6913 22.385C30.597 22.2955 30.4772 22.2376 30.3485 22.2194C30.2198 22.2012 30.0886 22.2236 29.9733 22.2834C29.8579 22.3432 29.764 22.4375 29.7047 22.5532C29.6454 22.6689 29.6237 22.8001 29.6425 22.9287C29.9606 25.0962 28.0413 28.0294 25.2994 29.7869C25.381 29.4032 25.419 29.0116 25.4125 28.6194C25.4069 27.2793 25.7081 25.9557 26.2931 24.75C26.5889 24.1792 26.771 23.5564 26.8294 22.9162L27.2525 17.7237C27.9378 17.706 28.5932 17.4394 29.0963 16.9737C29.2031 16.8737 29.3369 16.74 29.4838 16.5862L29.5625 16.5C29.5821 16.5368 29.6056 16.5713 29.6325 16.6031ZM28.5781 15.72C28.4531 15.8531 28.3344 15.97 28.2425 16.055C28.0156 16.2668 27.7312 16.407 27.425 16.4581C27.4577 15.981 27.4367 15.5018 27.3625 15.0294C27.4369 14.9856 27.51 14.9419 27.5775 14.8987C27.9306 14.6875 28.2613 14.4719 28.5775 14.2544C28.6731 14.1919 28.765 14.1231 28.8556 14.0575C29.0798 13.8975 29.2948 13.736 29.5006 13.5731C29.5875 13.5037 29.6756 13.435 29.7594 13.3656C29.9981 13.1673 30.2227 12.9673 30.4331 12.7656C30.4613 12.7381 30.4956 12.7112 30.5219 12.6837L30.5413 12.6662C30.1209 13.8169 29.4504 14.8599 28.5781 15.72ZM36.9019 8.0325C36.7288 8.24181 36.5107 8.4094 36.2639 8.5228C36.0171 8.6362 35.7478 8.69249 35.4763 8.68749C35.1318 8.66025 34.7923 8.58861 34.4663 8.47437C34.2894 8.42187 34.1119 8.36874 33.9263 8.32312C33.3016 8.17286 32.6605 8.10209 32.0181 8.11249C30.6149 8.1182 29.2421 8.5227 28.0599 9.27883C26.8778 10.035 25.9349 11.1116 25.3413 12.3831C25.1681 12.2937 24.9963 12.2106 24.825 12.1331C24.8013 12.1219 24.7769 12.1087 24.7525 12.0975C24.5575 12.0075 24.3648 11.9242 24.1744 11.8475C24.831 10.4478 25.8514 9.25014 27.129 8.37961C28.4067 7.50908 29.8947 6.99765 31.4375 6.89874C32.012 6.86211 32.5886 6.87633 33.1606 6.94124C33.2463 6.94874 33.335 6.96687 33.4225 6.98312L33.5369 7.00499C33.8771 7.05858 34.2138 7.13289 34.545 7.22749C35.0898 7.38954 35.6681 7.40247 36.2197 7.26495C36.7712 7.12743 37.2757 6.84449 37.6806 6.44562C37.5341 7.02236 37.2689 7.5622 36.9019 8.03062V8.0325Z" fill="#394750"/>
<path d="M22.3169 28.9475C22.234 28.9475 22.1545 28.9804 22.0959 29.039C22.0373 29.0976 22.0044 29.1771 22.0044 29.26C22.0042 29.4198 21.9406 29.5731 21.8275 29.6861C21.7144 29.799 21.5611 29.8625 21.4012 29.8625C21.2589 29.8613 21.1217 29.8091 21.0145 29.7154C20.9073 29.6217 20.8372 29.4928 20.8169 29.3519C21.0278 29.2558 21.209 29.1047 21.3412 28.9144L21.9631 27.9769C22.0722 27.8158 22.1349 27.6278 22.1445 27.4335C22.1541 27.2392 22.1102 27.046 22.0175 26.875C21.9006 26.6704 21.7306 26.5011 21.5254 26.3853C21.3202 26.2694 21.0875 26.2112 20.8519 26.2169H19.6019C19.3656 26.211 19.1321 26.269 18.926 26.3849C18.72 26.5007 18.549 26.67 18.4312 26.875C18.3383 27.0463 18.2943 27.2399 18.304 27.4346C18.3137 27.6293 18.3767 27.8175 18.4862 27.9787L19.1112 28.9162C19.2476 29.1102 19.4358 29.2619 19.6544 29.3537C19.6319 29.4924 19.5612 29.6187 19.4545 29.7102C19.3479 29.8018 19.2124 29.8526 19.0719 29.8537C18.9121 29.8536 18.759 29.79 18.646 29.6771C18.5331 29.5641 18.4695 29.411 18.4694 29.2512C18.4694 29.1684 18.4364 29.0889 18.3778 29.0303C18.3192 28.9717 18.2397 28.9387 18.1569 28.9387C18.074 28.9387 17.9945 28.9717 17.9359 29.0303C17.8773 29.0889 17.8444 29.1684 17.8444 29.2512C17.8433 29.5442 17.9473 29.8279 18.1376 30.0507C18.3279 30.2735 18.5918 30.4206 18.8813 30.4653C19.1709 30.51 19.4669 30.4494 19.7155 30.2944C19.9642 30.1394 20.1489 29.9003 20.2362 29.6206C20.3236 29.9004 20.5084 30.1396 20.7572 30.2947C21.0059 30.4498 21.3021 30.5106 21.5918 30.4658C21.8815 30.4211 22.1455 30.2739 22.3359 30.0511C22.5263 29.8282 22.6305 29.5444 22.6294 29.2512C22.6271 29.1699 22.5932 29.0926 22.5348 29.0359C22.4764 28.9792 22.3983 28.9475 22.3169 28.9475ZM19.0044 27.635C18.9573 27.5683 18.93 27.4897 18.9256 27.4082C18.9213 27.3267 18.9402 27.2456 18.98 27.1744C19.0444 27.0677 19.1365 26.9805 19.2466 26.9222C19.3567 26.8639 19.4806 26.8365 19.605 26.8431H20.855C20.9777 26.8373 21.0997 26.8648 21.208 26.9228C21.3163 26.9808 21.4068 27.0671 21.47 27.1725C21.5097 27.244 21.5285 27.3251 21.5244 27.4067C21.5204 27.4884 21.4935 27.5672 21.4469 27.6344L20.8219 28.5719C20.7473 28.656 20.6558 28.7235 20.5533 28.7699C20.4509 28.8162 20.3398 28.8405 20.2274 28.8409C20.1149 28.8414 20.0036 28.8181 19.9008 28.7726C19.798 28.7271 19.7059 28.6604 19.6306 28.5769L19.0044 27.635Z" fill="#394750"/>
</svg>
