<svg width="40" height="40" viewBox="0 0 40 40" fill="none" xmlns="http://www.w3.org/2000/svg">
<path d="M36.9062 12.45C38.4187 13.625 38.4687 15.7938 38.2625 17.375C37.9313 19.4856 37.1582 21.5026 35.9937 23.2938L35.9875 23.2875C32.6375 27.3563 28.3125 29.2625 25.95 27.5563C25.38 27.1284 24.9564 26.5345 24.7375 25.8563C24.1761 24.7707 23.794 23.6014 23.6062 22.3938C24.9721 21.4104 26.169 20.2114 27.15 18.8438C28.671 16.7878 29.6296 14.3708 29.9312 11.8313C30.4562 11.7438 30.975 11.675 31.5062 11.6188C33.0937 11.4563 35.325 11.3313 36.775 12.3563C36.825 12.3875 36.8625 12.4188 36.9062 12.45Z" fill="#8C64B4"/>
<path d="M35.9875 23.2875L35.9937 23.2937C35.725 23.7437 35.4312 24.175 35.1312 24.5937C31.6062 29.4687 26.6375 31.9 24.025 30.0125C23.4388 29.575 23.004 28.9654 22.7812 28.2687C22.0739 26.8194 21.6114 25.2629 21.4125 23.6625C22.1825 23.3106 22.9171 22.8857 23.6062 22.3937C23.7941 23.6014 24.1761 24.7706 24.7375 25.8562C24.9564 26.5345 25.38 27.1283 25.95 27.5562C28.3125 29.2625 32.6375 27.3562 35.9875 23.2875Z" fill="#CCBADE"/>
<path d="M29.9313 11.8312C29.6297 14.3708 28.671 16.7878 27.15 18.8437C26.169 20.2114 24.9722 21.4103 23.6063 22.3937C23.5313 22.0562 23.4688 21.7125 23.4063 21.3687C23.3688 21.1562 23.3313 20.9437 23.3 20.7312C23.2375 20.3937 23.1875 20.0625 23.125 19.7312C22.9822 18.8221 22.7839 17.9225 22.5313 17.0375C22.5063 16.9562 22.4813 16.8812 22.4625 16.8062C22.8697 16.3675 23.2496 15.9041 23.6 15.4187C23.775 15.175 23.9438 14.9312 24.1 14.6812C24.3125 14.3437 24.5063 14.0062 24.6875 13.6625L24.7438 13.55C24.9188 13.2062 25.075 12.8625 25.2125 12.5187C25.2298 12.4845 25.2444 12.449 25.2563 12.4125L25.2625 12.4062C25.4875 12.4062 25.7063 12.3937 25.925 12.3812C27.2813 12.3 28.6 12.0375 29.9313 11.8312Z" fill="#F6B884"/>
<path d="M25.2563 12.4125C25.2444 12.449 25.2298 12.4845 25.2125 12.5187C25.075 12.8625 24.9125 13.2062 24.7438 13.55L24.6875 13.6625C24.5063 14.0062 24.3125 14.3437 24.1 14.6812C23.9438 14.9312 23.775 15.175 23.6 15.4187C23.2496 15.9041 22.8697 16.3675 22.4625 16.8062C22.425 16.6937 22.3875 16.5937 22.35 16.4937H22.3563C21.7063 14.6687 20.6438 13.4187 18.5438 13.6062C18.3688 13.625 18.1875 13.65 18 13.6812L17.9313 13.625C18.15 13.3625 18.3563 13.0937 18.5625 12.8062C19.4445 11.641 20.1325 10.3409 20.6 8.95624C20.6465 8.98542 20.6818 9.02948 20.7 9.08124C20.7188 9.25624 20.7563 9.44999 20.7938 9.63124C20.9603 10.4479 21.4206 11.1751 22.0875 11.675C23.0375 12.2536 24.1488 12.51 25.2563 12.4062V12.4125Z" fill="#8C64B4"/>
<path d="M23.4063 21.3687C23.4688 21.7125 23.5313 22.0562 23.6063 22.3937C22.9172 22.8857 22.1826 23.3106 21.4125 23.6625C21.375 23.4437 21.3313 23.225 21.3001 23.0062C21.2438 22.6625 21.1875 22.3187 21.125 21.9812C20.976 21.047 20.7715 20.1224 20.5125 19.2125C20.4625 19.025 20.3938 18.8375 20.3313 18.6562C20.625 18.45 20.9188 18.2312 21.2063 17.9937C21.5023 17.7542 21.784 17.4975 22.05 17.225C22.1938 17.0875 22.3313 16.95 22.4625 16.8062C22.4813 16.8812 22.5063 16.9562 22.5313 17.0375C22.7839 17.9225 22.9822 18.8221 23.125 19.7312C23.1875 20.0625 23.2375 20.3937 23.3 20.7312C23.3313 20.9437 23.3688 21.1562 23.4063 21.3687Z" fill="#FFA467"/>
<path d="M22.4625 16.8062C22.3312 16.95 22.1937 17.0875 22.05 17.225C21.775 17.5 21.4938 17.75 21.2063 17.9937C20.9188 18.2375 20.625 18.45 20.3312 18.6562C19.6687 16.7812 18.5813 15.5 16.425 15.6937C16.2361 15.7099 16.0483 15.737 15.8625 15.775H15.8563C15.8375 15.7812 15.8312 15.775 15.8125 15.7625C16.5981 15.1332 17.309 14.4161 17.9313 13.625L18 13.6812C18.1875 13.65 18.3688 13.625 18.5438 13.6062C20.6438 13.4187 21.7063 14.6687 22.3563 16.4937H22.35C22.3875 16.5937 22.425 16.6937 22.4625 16.8062Z" fill="#CCBADE"/>
<path d="M20.5188 7.24374C20.825 7.46874 20.8563 8.02499 20.6625 8.76874C20.6375 8.83124 20.6313 8.89374 20.6 8.95624C20.5885 8.93511 20.5712 8.91775 20.55 8.90624C20.4262 8.83798 20.2866 8.80323 20.1452 8.80542C20.0038 8.80761 19.8655 8.84667 19.7438 8.91874C19.0681 9.24014 18.4676 9.7001 17.9813 10.2687C17.6383 9.99554 17.265 9.76275 16.8688 9.57499C18.4063 7.80624 19.9125 6.80624 20.5188 7.24374Z" fill="#8C64B4"/>
<path d="M20.55 8.90625C20.5711 8.91776 20.5885 8.93512 20.6 8.95625C20.1325 10.3409 19.4445 11.641 18.5625 12.8063C18.3563 13.0938 18.15 13.3625 17.9313 13.625C17.309 14.4161 16.5981 15.1333 15.8125 15.7625C15.754 15.7516 15.6986 15.7281 15.65 15.6938C15.5468 15.5973 15.4702 15.4759 15.4275 15.3413C15.3848 15.2066 15.3775 15.0633 15.4063 14.925C15.4421 14.5432 15.5326 14.1686 15.675 13.8125C15.8594 13.3271 16.0896 12.8604 16.3625 12.4188C16.4313 12.2938 16.5063 12.1688 16.5875 12.0438C16.7063 11.8563 16.8375 11.6688 16.975 11.4813C17.2782 11.0514 17.6147 10.646 17.9813 10.2688C18.4676 9.70011 19.0681 9.24015 19.7438 8.91875C19.8654 8.84668 20.0038 8.80762 20.1452 8.80543C20.2866 8.80323 20.4262 8.83799 20.55 8.90625Z" fill="#CCBADE"/>
<path d="M17.4 24.3625C17.6642 24.5617 17.8398 24.8566 17.8889 25.1839C17.938 25.5111 17.8567 25.8446 17.6625 26.1125C17.5531 26.2315 17.4179 26.3237 17.2673 26.3823C17.1167 26.4408 16.9547 26.4639 16.7937 26.45C16.4608 26.4347 16.146 26.294 15.9125 26.0562C15.8299 25.9725 15.7623 25.8753 15.7125 25.7687C15.5933 25.4281 15.5218 25.0727 15.5 24.7125C15.4369 24.4389 15.3177 24.1814 15.15 23.9563C14.9498 23.6774 14.6997 23.438 14.4125 23.25C14.4375 23.25 16.8375 23.8687 17.4 24.3625Z" fill="#CCBADE"/>
<path d="M17.9813 10.2687C17.6147 10.646 17.2783 11.0514 16.975 11.4812C16.8375 11.6687 16.7063 11.8562 16.5875 12.0437C16.5042 12.1687 16.4292 12.2937 16.3625 12.4187L16.1438 12.2875C16.1438 12.2875 11.5375 10.6562 10.5563 14.25C9.57505 17.8437 13.9875 33.5625 6.7688 31.6687H6.81255C8.76255 31.6125 9.4563 29.525 8.80005 28.0625C8.55351 27.5163 8.34876 26.9522 8.18755 26.375C8.00839 25.7553 7.91585 25.1138 7.91255 24.4687V15.4812C7.88748 13.8795 8.46112 12.326 9.52116 11.125C10.5812 9.92388 12.0513 9.16166 13.6438 8.98749C14.7519 8.8929 15.8652 9.09571 16.8688 9.57499C17.265 9.76275 17.6383 9.99554 17.9813 10.2687Z" fill="#CCBADE"/>
<path d="M3.64999 32.125C3.30905 31.5729 3.12936 30.9364 3.13124 30.2875C3.13205 29.3836 3.47793 28.5141 4.09823 27.8567C4.71852 27.1992 5.56642 26.8034 6.46874 26.75C5.86808 26.8244 5.31562 27.1167 4.91624 27.5714C4.51686 28.0262 4.29836 28.6118 4.30222 29.217C4.30607 29.8223 4.53201 30.405 4.93715 30.8547C5.34229 31.3043 5.89843 31.5896 6.49999 31.6563L6.18124 31.6313C6.35511 31.6564 6.53056 31.6689 6.70624 31.6688H6.76874C13.9875 33.5625 9.58124 17.85 10.5562 14.25C11.5312 10.65 16.1437 12.2875 16.1437 12.2875L16.3625 12.4188C16.0896 12.8605 15.8594 13.3271 15.675 13.8125C15.35 13.5876 14.964 13.4676 14.5687 13.4688C14.4744 13.4678 14.3802 13.4761 14.2875 13.4938C13.8214 13.56 13.395 13.7927 13.0872 14.1488C12.7793 14.505 12.6107 14.9605 12.6125 15.4313V30.1125C12.6104 30.7391 12.4851 31.3592 12.2437 31.9375V31.95C12.2375 31.9625 12.2312 31.9688 12.225 31.9813L12.1687 32.0563C12.1875 32.0438 12.1937 32.0313 12.2125 32.0188C11.8469 32.8428 11.2527 33.5447 10.5002 34.0411C9.74777 34.5375 8.86869 34.8077 7.9673 34.8195C7.06591 34.8314 6.18004 34.5844 5.4148 34.1079C4.64956 33.6314 4.03706 32.9454 3.64999 32.1313V32.125Z" fill="#CCBADE"/>
<path d="M15.8125 15.7625C15.8063 15.775 15.7875 15.7812 15.7875 15.7875C14.9625 16.425 14.2688 16.675 13.9 16.4062C13.4313 16.0625 13.6126 14.925 14.2876 13.4937C14.3802 13.4761 14.4745 13.4677 14.5688 13.4687C14.964 13.4676 15.3501 13.5876 15.675 13.8125C15.5327 14.1685 15.4422 14.5432 15.4063 14.925C15.3776 15.0633 15.3849 15.2066 15.4276 15.3413C15.4703 15.4759 15.5469 15.5973 15.6501 15.6937C15.6986 15.7281 15.7541 15.7516 15.8125 15.7625Z" fill="#8C64B4"/>
<path d="M6.10619 15.0563C5.74669 15.1114 5.40096 15.2344 5.08744 15.4188C4.82908 15.5597 4.60334 15.7535 4.42494 15.9875C4.2487 16.3239 4.02796 16.635 3.76869 16.9125C3.67289 16.9913 3.56533 17.0545 3.44994 17.1C3.12089 17.2313 2.754 17.2313 2.42494 17.1C2.26537 17.042 2.12081 16.9491 2.00184 16.8279C1.88288 16.7068 1.79254 16.5606 1.73744 16.4C1.66651 16.058 1.73293 15.7017 1.92236 15.4082C2.11179 15.1147 2.40904 14.9075 2.74994 14.8313C3.50619 14.6 6.11244 15.05 6.10619 15.0563Z" fill="#CCBADE"/>
<path d="M37.25 11.9294C37.206 11.8945 37.1601 11.8621 37.1125 11.8325C35.5306 10.7331 33.2531 10.8081 31.4425 10.9969C30.8931 11.0544 30.3643 11.1219 29.8287 11.2112C29.5293 11.2581 29.23 11.3081 28.9312 11.3581C27.9214 11.5454 26.9022 11.6781 25.8781 11.7556C25.6781 11.7694 25.4725 11.7794 25.2662 11.7806H25.2525H25.2406C24.2673 11.8848 23.2866 11.6691 22.4468 11.1662C21.91 10.7624 21.5406 10.1751 21.4093 9.51625C21.4111 9.30385 21.3703 9.09325 21.2893 8.89687C21.2856 8.88562 21.2843 8.87312 21.28 8.86187C21.5356 7.83937 21.405 7.12437 20.8837 6.73687C19.6868 5.87812 17.7293 7.70562 16.6962 8.8375C15.7112 8.44546 14.6493 8.28508 13.5925 8.36875C11.8445 8.5574 10.2297 9.39093 9.06346 10.7065C7.8972 12.0221 7.2633 13.7252 7.28558 15.4831V24.4712C7.3224 25.8044 7.64442 27.1142 8.22996 28.3125C8.36941 28.6328 8.43133 28.9814 8.4107 29.3301C8.39007 29.6789 8.28746 30.0178 8.11121 30.3194C7.9694 30.546 7.77118 30.7318 7.53596 30.8588C7.30074 30.9858 7.03658 31.0495 6.76934 31.0437H6.63746C6.6152 31.0387 6.59266 31.0349 6.56996 31.0325C6.11891 30.9828 5.70201 30.7686 5.39906 30.4307C5.09611 30.0929 4.9284 29.6552 4.92801 29.2014C4.92762 28.7476 5.09459 28.3096 5.39696 27.9713C5.69933 27.6329 6.11587 27.4179 6.56684 27.3675C6.57559 27.3675 6.58496 27.3675 6.59371 27.3637H6.60996C6.6407 27.372 6.67205 27.3779 6.70371 27.3812C6.72453 27.3825 6.7454 27.3825 6.76621 27.3812C6.80371 27.3775 6.84184 27.3744 6.87996 27.3731C7.04555 27.366 7.20152 27.2934 7.31357 27.1712C7.42562 27.0491 7.48458 26.8875 7.47746 26.7219C7.46672 26.5577 7.3931 26.404 7.27192 26.2927C7.15074 26.1814 6.99133 26.1211 6.82684 26.1244L6.74996 26.13C6.7272 26.1236 6.70402 26.1188 6.68059 26.1156C5.57448 26.1171 4.51408 26.5571 3.73182 27.3391C2.94957 28.1211 2.50928 29.1814 2.50746 30.2875C2.50549 31.0411 2.71021 31.7809 3.09934 32.4262C3.44866 33.1527 3.95843 33.7903 4.59018 34.2909C5.22194 34.7916 5.95916 35.1422 6.74621 35.3162C7.12593 35.3985 7.5133 35.4404 7.90184 35.4412C8.91252 35.4424 9.90262 35.1556 10.7562 34.6144C11.6098 34.0733 12.2917 33.3002 12.7218 32.3856C12.7425 32.3579 12.7591 32.3274 12.7712 32.295C12.7712 32.2887 12.7781 32.2831 12.7812 32.2769L12.7887 32.2581C12.8025 32.23 12.8256 32.1756 12.8343 32.15V32.1437V32.1394C13.0973 31.4975 13.2328 30.8105 13.2331 30.1169V16.5844C13.3111 16.7125 13.4132 16.8244 13.5337 16.9137C13.7433 17.0654 13.9963 17.1452 14.255 17.1412C14.8902 17.0773 15.4916 16.8241 15.9812 16.4144H15.9887C16.1694 16.4092 16.3482 16.3759 16.5187 16.3156C18.0943 16.1869 19.0587 16.9481 19.7387 18.8562V18.8669C19.8012 19.0294 19.8537 19.2056 19.9087 19.3956C20.1603 20.2837 20.359 21.1859 20.5037 22.0975C20.5456 22.3181 20.5837 22.54 20.6218 22.7637L20.6787 23.0919C20.7112 23.3206 20.7518 23.5487 20.7937 23.7731C21.001 25.4243 21.4779 27.0302 22.2056 28.5269C22.4737 29.322 22.9796 30.0156 23.655 30.5137C24.3855 31.0282 25.2617 31.295 26.155 31.275C27.3249 31.239 28.4715 30.9386 29.5087 30.3962C31.9565 29.0983 34.0569 27.2319 35.6337 24.9537C37.3142 22.7579 38.4283 20.1821 38.8775 17.4537C39.2175 14.9256 38.6675 13.0244 37.25 11.9294ZM29.1387 12.5912L29.1956 12.5812C28.8056 14.716 27.9325 16.7333 26.6431 18.4787C25.3987 20.2352 23.7737 21.688 21.8893 22.7287L21.8587 22.5519C21.8193 22.3206 21.78 22.0912 21.7381 21.8731C21.6218 21.195 21.4625 20.3531 21.2525 19.5544C21.2068 19.3812 21.1625 19.2075 21.1118 19.04L21.1081 19.0275C21.0956 18.9819 21.0831 18.9369 21.0693 18.8912C21.1518 18.8287 21.2306 18.7581 21.3125 18.6937C21.4725 18.5687 21.6306 18.4437 21.7862 18.31C21.9112 18.2012 22.0362 18.0856 22.1612 17.9719C22.3181 17.8262 22.4737 17.6831 22.6262 17.53C22.6456 17.5106 22.6662 17.4937 22.685 17.4737C22.78 17.3775 22.8668 17.2712 22.9593 17.1719C23.1106 17.0075 23.2643 16.8469 23.4093 16.6719C23.5018 16.5625 23.5868 16.445 23.6768 16.3325C23.8218 16.1494 23.9731 15.9712 24.11 15.7806C24.2125 15.6381 24.3068 15.4906 24.4043 15.3431C24.4631 15.255 24.525 15.1687 24.5818 15.08C24.6387 14.9912 24.6937 14.8925 24.75 14.8025C24.8493 14.6406 24.9475 14.4781 25.0393 14.3131C25.08 14.2394 25.1181 14.165 25.1581 14.0912C25.2543 13.9112 25.3456 13.7312 25.435 13.5487C25.4787 13.4587 25.52 13.3681 25.56 13.2769C25.6 13.1856 25.645 13.1006 25.685 13.0119C25.7793 13.0075 25.8725 13.0019 25.9631 12.9956C27.0281 12.9176 28.0881 12.7826 29.1387 12.5912ZM19.4131 10.2219C19.3881 10.2731 19.3625 10.3237 19.3356 10.3756C19.2312 10.5775 19.12 10.7825 18.9987 10.9912C18.99 11.0062 18.9806 11.0206 18.9725 11.035C18.8568 11.2319 18.7331 11.4319 18.6043 11.6319C18.5693 11.6862 18.5337 11.7406 18.4981 11.795C18.3568 12.0094 18.2106 12.225 18.0556 12.44C17.8712 12.6975 17.6775 12.9462 17.4818 13.19C17.4225 13.2637 17.3618 13.3344 17.3018 13.4062C17.1589 13.5783 17.0143 13.745 16.8681 13.9062C16.8056 13.9756 16.7431 14.0462 16.6806 14.1131C16.505 14.3006 16.3287 14.4781 16.1537 14.6444C16.1275 14.6687 16.1006 14.6975 16.0743 14.7219L16.0618 14.7331L16.0693 14.6925C16.0806 14.6337 16.0962 14.5675 16.115 14.4937C16.1225 14.4631 16.13 14.4312 16.1393 14.4019C16.1706 14.2925 16.2087 14.1725 16.2606 14.035C16.4885 13.4533 16.7765 12.8969 17.12 12.375C17.2306 12.1975 17.3575 12.0194 17.4793 11.8469C17.7714 11.4388 18.0929 11.0526 18.4412 10.6912C18.5662 10.5562 18.6912 10.4325 18.8162 10.3162C18.8556 10.2794 18.8937 10.2462 18.9331 10.2112C19.0193 10.1331 19.1056 10.06 19.19 9.99187C19.2312 9.95937 19.2718 9.92937 19.315 9.89625C19.4031 9.83 19.4887 9.77125 19.5725 9.71812C19.6018 9.69937 19.635 9.6775 19.6612 9.66C19.6693 9.655 19.6768 9.65312 19.685 9.64875C19.6762 9.66812 19.6662 9.68812 19.6581 9.7075C19.5831 9.875 19.5014 10.0465 19.4131 10.2219ZM20.1412 7.76437C20.1677 7.90174 20.169 8.0428 20.145 8.18062C20.1306 8.18062 20.1131 8.18687 20.0975 8.18812C20.0328 8.19435 19.9685 8.20416 19.905 8.2175C19.8768 8.22375 19.8493 8.22875 19.8206 8.23625C19.7189 8.26257 19.6191 8.29577 19.5218 8.33562C19.3878 8.38941 19.2575 8.45205 19.1318 8.52312L19.0425 8.57375C18.9175 8.64687 18.7925 8.72562 18.6725 8.81187L18.6556 8.82437C18.5362 8.91062 18.4212 9.00187 18.3093 9.09562L18.2437 9.15062C18.1293 9.24875 18.02 9.34687 17.9175 9.445L17.9137 9.44812L17.8643 9.41625C19.0625 8.16562 19.8843 7.78062 20.1412 7.76437ZM8.53559 15.4831C8.51201 14.0383 9.02741 12.6366 9.98129 11.5512C10.9352 10.4658 12.2591 9.77467 13.695 9.6125C14.6934 9.52873 15.6961 9.71096 16.6012 10.1406C16.755 10.2144 16.8981 10.2962 17.0387 10.38C17.0325 10.3869 17.0268 10.3956 17.0206 10.4025C16.8331 10.6256 16.6456 10.8637 16.4625 11.12C16.3225 11.3175 16.1831 11.5156 16.0643 11.7056C16.0225 11.7681 15.9856 11.8337 15.9462 11.8975C15.2225 11.6925 13.3387 11.2819 11.8837 12.0456C11.4769 12.2633 11.1213 12.5656 10.841 12.9321C10.5607 13.2986 10.3622 13.7209 10.2587 14.1706C9.94996 15.3044 10.1412 17.4756 10.3625 19.9894C10.7331 24.2006 11.195 29.4406 9.30746 31.0331C9.20628 31.1169 9.09699 31.1904 8.98121 31.2525C9.0484 31.1676 9.11099 31.0791 9.16871 30.9875C9.4549 30.5122 9.62298 29.9753 9.65887 29.4216C9.69476 28.868 9.5974 28.3139 9.37496 27.8056C8.86263 26.7664 8.57756 25.6299 8.53871 24.4719L8.53559 15.4831ZM7.00809 34.0944C6.40306 33.9596 5.83683 33.6883 5.35264 33.3013C4.86845 32.9143 4.4791 32.4217 4.21434 31.8612C4.15184 31.7306 4.10434 31.5987 4.05621 31.4675C4.02829 31.3924 3.98581 31.3236 3.93121 31.265C3.77986 30.8527 3.72595 30.411 3.77371 29.9744C3.90382 30.4822 4.16108 30.9486 4.52126 31.3296C4.88144 31.7105 5.33268 31.9935 5.83246 32.1519C5.91144 32.2053 6.00171 32.2397 6.09621 32.2525C6.29808 32.2812 6.50168 32.2961 6.70559 32.2969H6.83059C7.1389 32.2883 7.44409 32.2327 7.73559 32.1319C7.78371 32.1319 7.83621 32.1425 7.88371 32.1425C8.54887 32.1613 9.19817 31.9376 9.71059 31.5131C11.8456 29.7112 11.3887 24.5181 10.985 19.9369C10.7781 17.5844 10.5825 15.3631 10.86 14.3369C10.9426 13.9711 11.1024 13.6271 11.3288 13.3281C11.5551 13.0291 11.8428 12.7819 12.1725 12.6031C13.3312 11.9937 14.8887 12.2737 15.6231 12.4612C15.5481 12.5981 15.4781 12.7337 15.4118 12.8687C15.3956 12.9019 15.3756 12.9369 15.3593 12.97C15.3375 12.9631 15.3131 12.9631 15.2906 12.9569C15.1433 12.9136 14.9922 12.8843 14.8393 12.8694C14.8093 12.8694 14.7818 12.8594 14.7518 12.8575C14.585 12.8466 14.4175 12.8527 14.2518 12.8756C14.2362 12.8756 14.2168 12.8756 14.2012 12.8756H14.1925H14.1875C14.1806 12.8756 14.1743 12.88 14.1675 12.8812C13.5612 12.9778 13.0091 13.287 12.6099 13.7534C12.2108 14.2198 11.9906 14.813 11.9887 15.4269V30.1144C11.9882 30.6478 11.8836 31.176 11.6806 31.6694L11.6618 31.6987L11.6412 31.7312C11.6044 31.7914 11.5788 31.8576 11.5656 31.9269C11.1565 32.7447 10.4857 33.4023 9.65991 33.7951C8.83409 34.1878 7.90067 34.2932 7.00809 34.0944ZM14.2825 15.8881C14.2556 15.2665 14.3993 14.6495 14.6981 14.1037C14.7187 14.1037 14.7387 14.1094 14.7606 14.1119C14.81 14.1183 14.859 14.1273 14.9075 14.1387H14.9118C14.9025 14.1719 14.8987 14.2012 14.8906 14.2337C14.8825 14.2662 14.8737 14.3094 14.865 14.3475C14.8239 14.5242 14.7969 14.704 14.7843 14.885C14.7744 15.0244 14.7775 15.1643 14.7937 15.3031C14.7987 15.3481 14.8137 15.385 14.8225 15.4281C14.8341 15.5048 14.8516 15.5804 14.875 15.6544C14.6956 15.7721 14.4939 15.8517 14.2825 15.8881ZM17.48 15.0912C17.5075 15.0625 17.5343 15.0287 17.5618 14.9994C17.7343 14.8175 17.9037 14.6244 18.0737 14.425C18.1593 14.325 18.2462 14.2319 18.3312 14.1287C18.5812 13.8219 18.8312 13.5037 19.0706 13.1694C19.2081 12.9787 19.34 12.7869 19.4681 12.595C19.5087 12.5325 19.5468 12.4737 19.5862 12.4131C19.6718 12.2819 19.7562 12.1506 19.8362 12.02C19.8806 11.9481 19.9225 11.8769 19.965 11.8056C20.0362 11.686 20.1054 11.5677 20.1725 11.4506C20.215 11.375 20.2562 11.3 20.2975 11.2244C20.3587 11.1127 20.4175 11.0017 20.4737 10.8912C20.495 10.85 20.5193 10.8069 20.54 10.7662C20.8081 11.3332 21.2169 11.8221 21.7275 12.1862C22.4951 12.694 23.3877 12.9805 24.3075 13.0144C24.2943 13.0412 24.2793 13.0681 24.2662 13.0956C24.1281 13.3762 23.9775 13.6525 23.8193 13.925C23.7718 14.0069 23.7243 14.0887 23.6743 14.17C23.5193 14.4242 23.3554 14.6742 23.1825 14.92C23.1512 14.9637 23.1237 15.0094 23.0925 15.0525C22.8793 15.3481 22.655 15.6325 22.42 15.9081C22.3881 15.945 22.3543 15.9806 22.3225 16.0175C22.1225 16.2475 21.9164 16.4694 21.7043 16.6831C21.6531 16.735 21.6006 16.7856 21.5487 16.8369C21.3445 17.0356 21.1362 17.2256 20.9237 17.4069C20.8725 17.45 20.8218 17.495 20.7706 17.5375C20.7193 17.58 20.6587 17.6206 20.6037 17.6625C19.8818 16.1331 18.8512 15.2831 17.48 15.0912ZM37.6412 17.2887C37.2187 19.8136 36.1822 22.1959 34.6231 24.2262C33.1671 26.3381 31.226 28.0701 28.9625 29.2769C27.0837 30.1956 25.4625 30.2769 24.3918 29.505C23.9091 29.1428 23.5521 28.6383 23.3712 28.0625C23.3573 28.0227 23.3396 27.9844 23.3181 27.9481C22.7078 26.7087 22.3007 25.3792 22.1125 24.0106C24.3201 22.8796 26.222 21.232 27.6562 19.2081C29.1404 17.1972 30.1106 14.854 30.4825 12.3825C30.8437 12.33 31.2025 12.2762 31.5737 12.2375C32.7956 12.0621 34.0386 12.1001 35.2475 12.35C35.2912 13.8112 35.1512 19.8137 30.2593 23.5625C30.1935 23.6129 30.1504 23.6874 30.1395 23.7695C30.1286 23.8517 30.1508 23.9348 30.2012 24.0006C30.2516 24.0664 30.3261 24.1095 30.4082 24.1204C30.4904 24.1313 30.5735 24.1091 30.6393 24.0587C35.5262 20.3137 35.8893 14.4469 35.8762 12.5662C36.0657 12.6491 36.2467 12.75 36.4168 12.8675C36.4362 12.8806 36.525 12.945 36.525 12.945C37.795 13.93 37.8325 15.8519 37.6412 17.2887Z" fill="#394750"/>
<path d="M3.68752 17.6812C3.85982 17.6106 4.02057 17.5145 4.16439 17.3962C4.40604 17.1861 4.60506 16.9315 4.75064 16.6462C4.80361 16.5487 4.86226 16.4544 4.92627 16.3637C5.05465 16.1989 5.21546 16.0621 5.39877 15.9619C5.64172 15.8182 5.90913 15.7208 6.18752 15.6744C6.29585 15.6599 6.3985 15.6173 6.48523 15.5508C6.57196 15.4843 6.63973 15.3962 6.68179 15.2954C6.72384 15.1945 6.73872 15.0843 6.72492 14.9759C6.71112 14.8675 6.66913 14.7646 6.60314 14.6775C6.23752 14.195 3.02314 14.0919 2.56314 14.2331C2.06405 14.3583 1.63457 14.6755 1.36808 15.1157C1.10158 15.5559 1.01962 16.0835 1.14002 16.5837C1.22181 16.8357 1.36003 17.0658 1.54415 17.2563C1.72827 17.4468 1.95345 17.5928 2.20252 17.6831C2.44189 17.775 2.69612 17.822 2.95252 17.8219C3.2043 17.8229 3.45391 17.7752 3.68752 17.6812ZM2.65252 16.5169C2.58107 16.4933 2.51587 16.4539 2.46176 16.4016C2.40765 16.3494 2.36604 16.2856 2.34002 16.215C2.24752 15.9169 2.52127 15.5562 2.93752 15.4281C3.08319 15.3949 3.2326 15.3811 3.38189 15.3869C3.58377 15.3869 3.82814 15.4 4.08627 15.4206C4.02967 15.482 3.97627 15.5463 3.92627 15.6131C3.83111 15.7444 3.74427 15.8816 3.66627 16.0237C3.59351 16.1762 3.49354 16.3141 3.37127 16.4306C3.32437 16.4693 3.2719 16.5007 3.21564 16.5237C3.03376 16.5924 2.83267 16.5899 2.65252 16.5169ZM17.8125 23.8962C17.4669 23.5912 14.6181 22.4212 14.1088 22.7006C14.0132 22.753 13.9329 22.8296 13.876 22.9226C13.8191 23.0156 13.7876 23.1219 13.7845 23.2309C13.7814 23.3399 13.8069 23.4478 13.8584 23.5439C13.9099 23.64 13.9857 23.721 14.0781 23.7787C14.2977 23.9246 14.4884 24.1098 14.6406 24.325C14.7588 24.48 14.8439 24.6576 14.8906 24.8469C14.9101 24.9487 14.9237 25.0516 14.9313 25.155C14.9459 25.4627 15.0193 25.7648 15.1475 26.045C15.2272 26.2066 15.3308 26.3551 15.455 26.4856C15.7988 26.8398 16.2639 27.0508 16.7569 27.0762C16.7931 27.0762 16.8281 27.0762 16.8638 27.0762C17.1061 27.0822 17.3468 27.0343 17.5684 26.9358C17.7899 26.8373 17.9868 26.6907 18.1447 26.5068C18.3027 26.3228 18.4177 26.106 18.4816 25.8721C18.5454 25.6382 18.5564 25.3931 18.5138 25.1544C18.4346 24.6658 18.1864 24.2205 17.8125 23.8962ZM17.1913 25.7012C17.1446 25.7491 17.0874 25.7853 17.0243 25.807C16.9611 25.8287 16.8937 25.8353 16.8275 25.8262C16.6531 25.82 16.4875 25.7481 16.3638 25.625C16.3263 25.5855 16.2949 25.5406 16.2706 25.4919C16.212 25.3472 16.1804 25.193 16.1775 25.0369C16.1662 24.882 16.1454 24.7279 16.115 24.5756C16.1025 24.5187 16.0875 24.4625 16.0706 24.4062C16.3951 24.5051 16.7043 24.6486 16.9894 24.8325C17.1427 24.963 17.246 25.1425 17.2819 25.3406C17.2937 25.4036 17.2918 25.4684 17.2764 25.5306C17.261 25.5929 17.2324 25.651 17.1925 25.7012H17.1913Z" fill="#394750"/>
</svg>
