<svg width="40" height="40" viewBox="0 0 40 40" fill="none" xmlns="http://www.w3.org/2000/svg">
<path d="M32.625 24C31.7244 23.7742 30.9189 23.2681 30.3246 22.5548C29.7304 21.8415 29.3781 20.9578 29.3187 20.0312H36.3125C36.2329 21.0108 35.8259 21.9351 35.1569 22.655C34.4879 23.375 33.5961 23.8488 32.625 24Z" fill="#8C64B4"/>
<path d="M36.3125 20.0312H38.0813C38.0091 21.1441 37.5161 22.1878 36.7024 22.9504C35.8887 23.7131 34.8153 24.1375 33.7 24.1375C33.3372 24.1396 32.9757 24.0933 32.625 24C33.5961 23.8488 34.488 23.375 35.157 22.655C35.8259 21.9351 36.233 21.0108 36.3125 20.0312ZM10.5188 20.0312C10.4486 21.1449 9.95623 22.1898 9.14209 22.9528C8.32795 23.7158 7.25337 24.1396 6.13755 24.1375C5.68327 24.1381 5.23179 24.0663 4.80005 23.925C5.80923 23.8352 6.75597 23.3979 7.47863 22.6878C8.20129 21.9776 8.65509 21.0387 8.76255 20.0312H10.5188Z" fill="#CCBADE"/>
<path d="M1.75623 20.0312H8.76248C8.65502 21.0387 8.20122 21.9776 7.47856 22.6878C6.75589 23.3979 5.80916 23.8352 4.79998 23.925C3.95959 23.6579 3.21943 23.1433 2.67635 22.4485C2.13327 21.7538 1.81257 20.9113 1.75623 20.0312Z" fill="#8C64B4"/>
<path d="M33.9938 9.47499C34.2138 9.47379 34.4298 9.53439 34.617 9.6499C34.8043 9.76541 34.9554 9.93119 35.0531 10.1284C35.1508 10.3255 35.1911 10.5462 35.1696 10.7651C35.148 10.9841 35.0654 11.1926 34.9311 11.367C34.7968 11.5413 34.6163 11.6744 34.4101 11.7512C34.2039 11.8279 33.9803 11.8452 33.7647 11.8011C33.5491 11.757 33.3503 11.6533 33.1908 11.5017C33.0313 11.3501 32.9175 11.1568 32.8625 10.9437C32.8323 10.8488 32.8175 10.7496 32.8188 10.65C32.8186 10.4956 32.8489 10.3428 32.9079 10.2001C32.9669 10.0575 33.0534 9.92792 33.1626 9.81878C33.2717 9.70963 33.4013 9.62309 33.5439 9.5641C33.6866 9.50511 33.8394 9.47483 33.9938 9.47499ZM30.6438 33.3062C30.9347 33.3062 31.2137 33.4218 31.4194 33.6275C31.6251 33.8332 31.7407 34.1122 31.7407 34.4031C31.7407 34.694 31.6251 34.973 31.4194 35.1787C31.2137 35.3844 30.9347 35.5 30.6438 35.5H10.1688C9.87787 35.5 9.59887 35.3844 9.39317 35.1787C9.18746 34.973 9.0719 34.694 9.0719 34.4031C9.0719 34.1122 9.18746 33.8332 9.39317 33.6275C9.59887 33.4218 9.87787 33.3062 10.1688 33.3062H30.6438Z" fill="#F6B884"/>
<path d="M28.0812 32.1812V32.2C28.0814 32.4913 27.9666 32.7709 27.7618 32.978C27.557 33.1852 27.2788 33.3031 26.9875 33.3062H13.825C13.5331 33.3033 13.2541 33.1856 13.0482 32.9786C12.8424 32.7716 12.7263 32.4919 12.725 32.2V32.1812C12.7268 31.889 12.8441 31.6093 13.0514 31.4032C13.2586 31.1971 13.539 31.0814 13.8312 31.0812H26.9812C27.2728 31.0817 27.5523 31.1978 27.7585 31.404C27.9647 31.6102 28.0807 31.8897 28.0812 32.1812Z" fill="#FFF9ED"/>
<path d="M21.2437 5.21249C21.3823 5.34872 21.4923 5.51117 21.5674 5.69037C21.6426 5.86957 21.6812 6.06193 21.6812 6.25624C21.6806 6.44859 21.6416 6.63889 21.5664 6.81596C21.4913 6.99304 21.3816 7.15335 21.2437 7.28749C21.1962 7.33633 21.1438 7.3803 21.0875 7.41874C20.8362 7.61051 20.5286 7.71379 20.2125 7.71249C20.0208 7.7129 19.831 7.67556 19.6538 7.6026C19.4766 7.52964 19.3154 7.42248 19.1796 7.28726C19.0438 7.15203 18.936 6.99138 18.8623 6.81448C18.7885 6.63758 18.7504 6.44789 18.75 6.25624C18.7477 6.06324 18.7838 5.87172 18.8564 5.69287C18.929 5.51403 19.0366 5.35147 19.1728 5.2147C19.3089 5.07793 19.471 4.96969 19.6496 4.89634C19.8281 4.82298 20.0195 4.78598 20.2125 4.78749C20.5989 4.78709 20.9698 4.93992 21.2437 5.21249Z" fill="#F6B884"/>
<path d="M21.0875 7.41876V31.0438H19.3313V7.41876C19.5829 7.61512 19.8934 7.72082 20.2125 7.71876C20.5298 7.72084 20.8383 7.61506 21.0875 7.41876Z" fill="#FFF9ED"/>
<path d="M20.2125 7.71251C20.5286 7.71381 20.8363 7.61053 21.0875 7.41876C20.8383 7.61506 20.5298 7.72084 20.2125 7.71876C19.8934 7.72082 19.5829 7.61512 19.3313 7.41876C19.5849 7.61063 19.8945 7.71384 20.2125 7.71251Z" fill="#FFF9ED"/>
<path d="M7.60623 10.65C7.60748 10.7496 7.59271 10.8488 7.56248 10.9438C7.49979 11.1961 7.35423 11.4201 7.14913 11.5799C6.94402 11.7396 6.69122 11.826 6.43123 11.825C6.19883 11.825 5.97166 11.7561 5.77843 11.627C5.5852 11.4979 5.4346 11.3144 5.34567 11.0997C5.25673 10.885 5.23347 10.6487 5.2788 10.4208C5.32414 10.1928 5.43605 9.98348 5.60038 9.81916C5.7647 9.65483 5.97407 9.54292 6.20199 9.49758C6.42992 9.45225 6.66618 9.47551 6.88088 9.56445C7.09558 9.65338 7.27909 9.80398 7.4082 9.99721C7.53731 10.1904 7.60623 10.4176 7.60623 10.65Z" fill="#F6B884"/>
<path d="M38.6794 19.9006C38.6727 19.8629 38.6626 19.8259 38.6494 19.79C38.6444 19.7781 38.6457 19.765 38.6394 19.7531L34.8807 12.2031C35.1541 12.0462 35.3814 11.82 35.5396 11.5473C35.6979 11.2746 35.7814 10.965 35.7819 10.6497C35.7824 10.3344 35.6999 10.0246 35.5425 9.75133C35.3852 9.47812 35.1586 9.25118 34.8857 9.09337C34.6127 8.93557 34.303 8.85247 33.9877 8.85244C33.6724 8.85241 33.3627 8.93546 33.0897 9.09322C32.8167 9.25097 32.5901 9.47787 32.4328 9.75106C32.2754 10.0243 32.1927 10.3341 32.1932 10.6494C32.1953 10.845 32.23 11.0389 32.2957 11.2231C31.6932 11.9771 30.9238 12.5808 30.0483 12.9868C29.1727 13.3927 28.2148 13.5898 27.2501 13.5625C24.6794 13.5625 22.4957 12.2269 21.7151 10.38V7.69625C22.0986 7.3029 22.3106 6.77348 22.3044 6.22409C22.2982 5.6747 22.0743 5.1502 21.6819 4.76563C21.2833 4.38619 20.7535 4.1755 20.2031 4.1776C19.6528 4.17969 19.1245 4.39441 18.7288 4.77688C18.3415 5.17083 18.1246 5.7013 18.1251 6.25375C18.1264 6.78737 18.3353 7.29952 18.7076 7.68188V10.3894C17.9238 12.2319 15.7438 13.5625 13.1776 13.5625C12.2117 13.5909 11.2524 13.3943 10.3756 12.9883C9.49873 12.5823 8.72827 11.978 8.12506 11.2231C8.19076 11.0389 8.2254 10.845 8.22756 10.6494C8.22912 10.3346 8.14802 10.0249 7.99235 9.75127C7.83668 9.47765 7.61191 9.2497 7.34051 9.0902C7.0691 8.9307 6.76058 8.84525 6.44579 8.84238C6.13101 8.83952 5.82098 8.91936 5.54673 9.0739C5.27247 9.22844 5.04359 9.45227 4.88298 9.72302C4.72236 9.99376 4.63564 10.3019 4.63149 10.6167C4.62733 10.9315 4.70589 11.2418 4.8593 11.5167C5.01271 11.7916 5.2356 12.0214 5.50568 12.1831L1.21506 19.7225C1.20568 19.7394 1.20568 19.7581 1.19818 19.775C1.18217 19.811 1.16981 19.8484 1.16131 19.8869C1.15023 19.93 1.14374 19.9742 1.14193 20.0188C1.14193 20.0363 1.13381 20.0519 1.13443 20.07C1.21611 21.3416 1.77886 22.5345 2.70832 23.4062C3.63778 24.2778 4.86424 24.7629 6.1385 24.7629C7.41275 24.7629 8.63921 24.2778 9.56867 23.4062C10.4981 22.5345 11.0609 21.3416 11.1426 20.07C11.1426 20.0575 11.1376 20.0463 11.1376 20.0344C11.136 19.9892 11.1295 19.9444 11.1182 19.9006C11.112 19.8628 11.102 19.8257 11.0882 19.79C11.0832 19.7781 11.0844 19.765 11.0788 19.7531L7.32006 12.2031C7.49642 12.102 7.65429 11.9716 7.78693 11.8175C8.45751 12.5822 9.28748 13.1907 10.2185 13.6001C11.1495 14.0096 12.1589 14.2101 13.1757 14.1875C14.2326 14.2155 15.2817 13.9988 16.241 13.5543C17.2002 13.1097 18.0438 12.4495 18.7057 11.625V30.4869H13.8244C13.3679 30.4874 12.9302 30.6689 12.6074 30.9918C12.2846 31.3146 12.1031 31.7522 12.1026 32.2088C12.1048 32.3688 12.1299 32.5277 12.1769 32.6806H10.1682C9.71151 32.6806 9.27355 32.862 8.95063 33.185C8.62772 33.5079 8.44631 33.9458 8.44631 34.4025C8.44631 34.8592 8.62772 35.2971 8.95063 35.6201C9.27355 35.943 9.71151 36.1244 10.1682 36.1244H30.6438C31.1005 36.1244 31.5384 35.943 31.8614 35.6201C32.1843 35.2971 32.3657 34.8592 32.3657 34.4025C32.3657 33.9458 32.1843 33.5079 31.8614 33.185C31.5384 32.862 31.1005 32.6806 30.6438 32.6806H28.6351C28.6821 32.5277 28.7071 32.3688 28.7094 32.2088C28.7089 31.7522 28.5274 31.3146 28.2046 30.9918C27.8818 30.6689 27.4441 30.4874 26.9876 30.4869H21.7144V11.6194C22.3763 12.4457 23.2205 13.1075 24.1809 13.5531C25.1413 13.9986 26.1917 14.2158 27.2501 14.1875C28.2667 14.2101 29.2759 14.0097 30.2067 13.6002C31.1375 13.1907 31.9673 12.5822 32.6376 11.8175C32.7613 11.9609 32.9066 12.0843 33.0682 12.1831L28.7757 19.7225C28.7663 19.7394 28.7663 19.7581 28.7582 19.7756C28.7427 19.8116 28.7304 19.8488 28.7213 19.8869C28.7101 19.93 28.7038 19.9742 28.7026 20.0188C28.6991 20.0357 28.6966 20.0528 28.6951 20.07C28.7779 21.3409 29.3412 22.5326 30.2706 23.4034C31.2 24.2742 32.4259 24.7587 33.6994 24.7587C34.973 24.7587 36.1989 24.2742 37.1283 23.4034C38.0577 22.5326 38.6209 21.3409 38.7038 20.07C38.7038 20.0581 38.6988 20.0469 38.6988 20.0344C38.697 19.9892 38.6905 19.9444 38.6794 19.9006ZM6.42943 10.1019C6.53787 10.1019 6.64387 10.134 6.73402 10.1943C6.82417 10.2546 6.89443 10.3402 6.93589 10.4404C6.97736 10.5406 6.98818 10.6508 6.96698 10.7572C6.94578 10.8635 6.89351 10.9612 6.8168 11.0378C6.74008 11.1144 6.64235 11.1666 6.53598 11.1877C6.42962 11.2088 6.31939 11.1978 6.21924 11.1562C6.1191 11.1146 6.03353 11.0443 5.97338 10.9541C5.91323 10.8638 5.88119 10.7578 5.88131 10.6494C5.88139 10.5772 5.89571 10.5058 5.92345 10.4392C5.95119 10.3726 5.9918 10.3122 6.04296 10.2613C6.09411 10.2104 6.1548 10.1702 6.22155 10.1428C6.2883 10.1155 6.3598 10.1015 6.43193 10.1019H6.42943ZM6.39193 13.1506L9.50693 19.4069H2.83318L6.39193 13.1506ZM6.13881 23.5119C5.29833 23.5119 4.48196 23.231 3.81955 22.7136C3.15715 22.1963 2.68675 21.4723 2.48318 20.6569H9.79568C9.59197 21.4725 9.12136 22.1966 8.45872 22.7139C7.79608 23.2312 6.97948 23.5121 6.13881 23.5119ZM19.6119 5.66063C19.7688 5.50264 19.9819 5.41331 20.2045 5.41226C20.4271 5.4112 20.6411 5.4985 20.7994 5.655C20.8791 5.73252 20.9424 5.82523 20.9857 5.92764C21.0289 6.03005 21.0512 6.14009 21.0512 6.25125C21.0512 6.36242 21.0289 6.47246 20.9857 6.57487C20.9424 6.67728 20.8791 6.76998 20.7994 6.8475C20.7882 6.85875 20.7776 6.86875 20.7644 6.88C20.7452 6.88919 20.7266 6.89963 20.7088 6.91125C20.5631 7.01585 20.3882 7.07211 20.2088 7.07211C20.0294 7.07211 19.8545 7.01585 19.7088 6.91125C19.7001 6.90438 19.6888 6.90125 19.6794 6.89438C19.5842 6.81698 19.5075 6.7193 19.4548 6.60847C19.4022 6.49764 19.3749 6.37646 19.3751 6.25375C19.3742 6.03283 19.4592 5.82021 19.6119 5.66063ZM31.1157 34.4025C31.1155 34.5276 31.0657 34.6475 30.9773 34.736C30.8888 34.8244 30.7689 34.8742 30.6438 34.8744H10.1682C10.0431 34.8742 9.92316 34.8244 9.8347 34.736C9.74624 34.6475 9.69647 34.5276 9.69631 34.4025C9.69777 34.2778 9.74795 34.1586 9.83613 34.0704C9.92431 33.9823 10.0435 33.9321 10.1682 33.9306H30.6438C30.7685 33.9322 30.8875 33.9825 30.9757 34.0706C31.0638 34.1588 31.1141 34.2779 31.1157 34.4025ZM27.4594 32.2088C27.4593 32.3339 27.4095 32.4538 27.321 32.5422C27.2326 32.6307 27.1127 32.6805 26.9876 32.6806H13.8244C13.6993 32.6806 13.5793 32.6309 13.4908 32.5424C13.4023 32.4539 13.3526 32.3339 13.3526 32.2088C13.3526 32.0836 13.4023 31.9636 13.4908 31.8751C13.5793 31.7866 13.6993 31.7369 13.8244 31.7369H19.2763C19.2951 31.7369 19.3113 31.7475 19.3307 31.7475H21.0894C21.1088 31.7475 21.1251 31.7381 21.1438 31.7369H26.9876C27.1127 31.737 27.2326 31.7868 27.321 31.8753C27.4095 31.9637 27.4593 32.0837 27.4594 32.2088ZM19.9557 30.4869V8.32C20.04 8.33225 20.1249 8.33914 20.2101 8.34063C20.2952 8.33903 20.3801 8.33236 20.4644 8.32063V30.4869H19.9557ZM33.9926 10.1019C34.101 10.1018 34.2071 10.1338 34.2973 10.194C34.3876 10.2542 34.4579 10.3398 34.4995 10.44C34.541 10.5401 34.5519 10.6504 34.5308 10.7568C34.5097 10.8632 34.4575 10.9609 34.3808 11.0376C34.3041 11.1143 34.2063 11.1665 34.1 11.1876C33.9936 11.2088 33.8833 11.1978 33.7831 11.1563C33.683 11.1147 33.5974 11.0444 33.5372 10.9541C33.477 10.8639 33.4449 10.7578 33.4451 10.6494C33.4454 10.5043 33.5032 10.3652 33.6058 10.2626C33.7084 10.16 33.8475 10.1022 33.9926 10.1019ZM37.0701 19.4069H30.3938L33.9563 13.1506L37.0701 19.4069ZM33.6994 23.5119C32.859 23.5118 32.0427 23.2308 31.3803 22.7135C30.7179 22.1962 30.2475 21.4723 30.0438 20.6569H37.3563C37.1525 21.4724 36.6819 22.1964 36.0192 22.7138C35.3566 23.2311 34.5401 23.512 33.6994 23.5119Z" fill="#394750"/>
</svg>
