<?xml version="1.0" standalone="no"?>
<!DOCTYPE svg PUBLIC "-//W3C//DTD SVG 20010904//EN"
 "http://www.w3.org/TR/2001/REC-SVG-20010904/DTD/svg10.dtd">
<svg version="1.0" xmlns="http://www.w3.org/2000/svg"
 width="1440.000000pt" height="1692.000000pt" viewBox="0 0 1440.000000 1692.000000"
 preserveAspectRatio="xMidYMid meet">

<g transform="translate(0.000000,1692.000000) scale(0.100000,-0.100000)"
fill="#000000" stroke="none">
<path d="M4060 14600 c0 -5 -6 -10 -14 -10 -24 0 -59 -23 -113 -75 -29 -28
-53 -59 -53 -68 0 -9 -4 -17 -10 -17 -5 0 -10 -11 -10 -25 0 -14 -4 -25 -10
-25 -7 0 -11 -1112 -12 -3302 l-3 -3303 -180 -6 c-99 -3 -181 -6 -182 -7 -2
-1 -3 -13 -3 -27 0 -14 -4 -25 -10 -25 -5 0 -10 -9 -10 -21 0 -11 -7 -27 -15
-35 -8 -9 -15 -26 -15 -40 0 -13 -4 -24 -10 -24 -5 0 -10 -9 -10 -20 0 -13 -9
-22 -25 -26 -18 -4 -24 -11 -20 -23 2 -9 -2 -29 -10 -45 -8 -15 -15 -37 -15
-47 0 -11 -4 -19 -10 -19 -5 0 -10 -11 -10 -25 0 -14 -4 -25 -10 -25 -5 0 -12
-11 -16 -24 -7 -27 -47 -66 -69 -66 -8 0 -15 -4 -15 -10 0 -5 -11 -10 -25 -10
-14 0 -25 -4 -25 -10 0 -5 -9 -10 -20 -10 -11 0 -23 -7 -26 -15 -4 -10 -13
-13 -25 -10 -13 4 -19 1 -19 -9 0 -9 -7 -16 -15 -16 -8 0 -15 -4 -15 -10 0 -5
-7 -10 -16 -10 -19 0 -114 -52 -114 -62 0 -5 -7 -8 -15 -8 -8 0 -15 -4 -15
-10 0 -5 -9 -10 -19 -10 -11 0 -26 -7 -35 -15 -8 -8 -19 -15 -25 -15 -6 0 -11
-4 -11 -10 0 -5 -9 -10 -20 -10 -11 0 -20 -3 -20 -8 0 -4 -15 -14 -32 -21 -18
-8 -39 -21 -46 -28 -7 -7 -20 -13 -28 -13 -8 0 -14 -4 -14 -10 0 -5 -9 -10
-20 -10 -11 0 -20 -4 -20 -10 0 -5 -6 -10 -13 -10 -7 0 -24 -11 -39 -25 -15
-14 -36 -25 -48 -25 -11 0 -20 -3 -20 -8 0 -4 -16 -16 -35 -26 -19 -11 -35
-23 -35 -28 0 -4 -9 -8 -20 -8 -11 0 -20 -4 -20 -10 0 -5 -7 -10 -15 -10 -8 0
-15 -4 -15 -10 0 -5 -7 -10 -16 -10 -8 0 -23 -7 -31 -16 -9 -8 -25 -13 -35
-11 -11 3 -22 -1 -25 -9 -3 -8 -14 -14 -24 -14 -10 0 -19 -4 -19 -9 0 -5 -10
-11 -23 -15 -13 -3 -34 -15 -47 -26 -13 -11 -29 -20 -37 -20 -7 0 -13 -4 -13
-10 0 -5 -9 -10 -20 -10 -11 0 -20 -4 -20 -8 0 -4 -16 -14 -36 -21 -19 -7 -38
-19 -41 -27 -3 -8 -13 -14 -22 -14 -9 0 -23 -9 -31 -20 -8 -11 -24 -20 -36
-20 -13 0 -29 -7 -38 -15 -8 -8 -19 -15 -25 -15 -6 0 -11 -4 -11 -10 0 -5 -9
-10 -20 -10 -15 0 -20 -7 -20 -25 0 -20 5 -25 25 -25 14 0 25 4 25 8 0 5 16
14 35 22 19 8 35 20 35 27 0 7 11 13 25 13 14 0 25 5 25 10 0 6 9 10 20 10 11
0 20 5 20 10 0 6 7 10 15 10 9 0 18 7 21 15 4 8 12 15 20 15 8 0 14 5 14 10 0
6 14 10 30 10 17 0 30 5 30 10 0 6 7 10 15 10 8 0 15 4 15 10 0 5 11 12 25 16
14 3 25 10 25 14 0 4 14 13 30 20 17 7 30 16 30 21 0 5 7 9 15 9 8 0 15 -6 15
-13 0 -7 9 -23 20 -35 11 -12 20 -30 20 -42 0 -11 5 -20 10 -20 6 0 10 -9 10
-20 0 -11 5 -20 10 -20 6 0 10 -11 10 -25 0 -16 6 -25 15 -25 8 0 15 -9 15
-20 0 -11 5 -20 10 -20 6 0 10 -18 10 -40 0 -22 5 -40 10 -40 6 0 10 -9 10
-20 0 -11 4 -20 10 -20 5 0 12 -11 16 -25 3 -14 10 -25 15 -25 5 0 9 -9 9 -20
0 -11 5 -20 10 -20 6 0 10 -6 10 -14 0 -18 32 -76 43 -76 4 0 7 -11 7 -25 0
-14 5 -25 10 -25 6 0 10 -9 10 -19 0 -13 -11 -24 -35 -32 -19 -7 -35 -19 -35
-26 0 -7 -9 -13 -20 -13 -11 0 -20 -3 -20 -8 0 -4 -15 -14 -33 -21 -17 -8 -38
-21 -45 -28 -7 -7 -20 -13 -28 -13 -8 0 -14 -4 -14 -10 0 -5 -9 -10 -20 -10
-11 0 -20 -4 -20 -10 0 -5 -7 -10 -15 -10 -8 0 -15 -4 -15 -10 0 -5 -9 -10
-20 -10 -11 0 -20 -7 -20 -15 0 -9 -9 -15 -25 -15 -14 0 -25 -4 -25 -10 0 -5
-9 -10 -20 -10 -11 0 -20 -4 -20 -10 0 -5 -11 -10 -25 -10 -14 0 -25 -4 -25
-10 0 -5 -11 -12 -25 -16 -14 -3 -25 -10 -25 -15 0 -5 -9 -9 -20 -9 -11 0 -20
-4 -20 -9 0 -12 -64 -22 -182 -27 -66 -4 -98 -2 -98 5 0 6 -13 11 -30 11 -16
0 -30 5 -30 10 0 6 -9 10 -20 10 -21 0 -31 6 -76 48 -27 25 -64 22 -64 -5 0
-17 45 -60 73 -69 9 -3 17 -10 17 -15 0 -5 11 -9 25 -9 14 0 25 -4 25 -10 0
-5 13 -10 29 -10 16 0 31 -5 33 -11 5 -16 231 -16 236 0 2 6 17 11 33 11 16 0
29 5 29 10 0 6 11 10 25 10 14 0 25 5 25 10 0 6 6 10 14 10 18 0 76 32 76 43
0 4 11 7 25 7 14 0 25 5 25 10 0 6 9 10 20 10 11 0 20 4 20 9 0 5 11 12 25 15
14 4 25 11 25 16 0 6 9 10 20 10 11 0 20 4 20 8 0 5 16 14 35 22 19 8 35 20
35 27 0 7 10 13 23 13 12 0 29 9 37 20 8 11 23 20 33 20 10 0 25 6 32 13 33
29 45 37 55 37 5 0 10 5 10 10 0 6 9 10 20 10 11 0 20 5 20 11 0 14 25 39 39
39 6 0 11 4 11 9 0 5 9 12 20 16 11 3 33 19 49 36 16 16 37 29 45 29 9 0 16 5
16 10 0 6 7 10 15 10 8 0 15 5 15 11 0 7 12 9 33 6 17 -3 26 -3 20 0 -18 7
-16 33 2 33 8 0 15 5 15 10 0 6 6 10 13 10 6 0 25 11 41 25 16 14 33 25 38 25
4 0 22 14 40 30 17 17 35 30 39 30 4 0 19 11 33 25 14 14 30 25 36 25 5 0 10
5 10 10 0 6 9 10 20 10 11 0 20 4 20 9 0 5 9 13 21 16 12 4 37 22 57 41 20 19
42 34 49 34 7 0 13 5 13 10 0 6 29 10 66 10 45 0 70 5 80 15 13 12 49 15 199
15 171 0 185 -1 195 -19 5 -11 7 -34 3 -52 -5 -25 -3 -31 8 -27 9 3 15 22 17
51 l3 47 53 -6 c49 -6 54 -5 75 22 12 16 25 41 28 56 3 16 9 28 13 28 4 0 11
11 14 25 5 19 15 27 38 32 31 6 31 6 7 16 -14 5 -19 11 -11 14 6 3 12 16 12
29 0 13 5 24 10 24 6 0 10 11 10 25 0 14 4 25 8 25 10 0 42 71 42 93 0 10 5
17 10 17 6 0 10 11 10 25 0 14 5 25 10 25 6 0 10 8 10 18 0 10 7 27 15 38 8
10 15 29 15 41 0 12 5 25 10 28 6 3 10 17 10 31 0 13 5 24 10 24 6 0 10 9 10
21 0 11 7 27 15 35 8 9 15 24 15 34 0 10 5 22 10 25 6 3 10 15 10 26 0 10 5
19 10 19 6 0 10 11 10 25 0 14 5 25 10 25 6 0 10 14 10 30 0 18 6 33 15 36 9
4 15 19 15 35 0 16 5 29 10 29 6 0 10 18 10 40 0 22 5 40 10 40 6 0 10 14 10
30 0 17 5 30 10 30 6 0 10 7 10 15 0 8 -4 15 -10 15 -5 0 -10 7 -10 16 0 40
-24 43 -302 44 l-268 0 0 3305 c0 2197 3 3305 10 3305 6 0 10 9 10 20 0 21 6
31 48 75 12 13 22 29 22 35 0 5 7 10 15 10 8 0 15 4 15 8 0 5 18 17 40 27 22
10 40 22 40 27 0 4 1383 8 3074 8 2723 0 3075 -2 3080 -15 3 -8 15 -15 26 -15
11 0 20 -4 20 -10 0 -5 7 -10 15 -10 8 0 15 -4 15 -9 0 -5 9 -13 20 -16 11 -3
20 -13 20 -21 0 -8 4 -14 8 -14 5 0 17 -16 28 -35 10 -19 22 -35 26 -35 5 0 8
-13 8 -30 0 -16 5 -30 10 -30 6 0 10 16 10 35 0 19 -4 35 -9 35 -5 0 -11 8
-15 18 -10 32 -66 102 -81 102 -6 0 -20 11 -50 38 -7 6 -23 12 -34 12 -12 0
-21 5 -21 10 0 7 -1032 10 -3075 10 -2043 0 -3075 -3 -3075 -10z m294 -6871
c33 -29 42 -71 22 -110 -9 -18 -16 -40 -16 -51 0 -10 -4 -18 -10 -18 -5 0 -10
-11 -10 -25 0 -14 -4 -25 -9 -25 -5 0 -12 -16 -15 -35 -4 -19 -11 -35 -16 -35
-6 0 -10 -11 -10 -25 0 -14 -4 -25 -10 -25 -5 0 -10 -13 -10 -30 0 -16 -4 -30
-10 -30 -5 0 -10 -5 -10 -10 0 -6 -11 -33 -25 -62 -14 -28 -25 -60 -25 -70 0
-10 -4 -18 -10 -18 -5 0 -10 -11 -10 -25 0 -14 -4 -25 -10 -25 -5 0 -10 -8
-10 -18 0 -10 -7 -27 -15 -38 -8 -10 -15 -27 -15 -36 0 -10 -4 -18 -10 -18 -5
0 -10 -16 -10 -35 0 -19 -4 -35 -10 -35 -5 0 -10 -5 -10 -10 0 -6 -11 -33 -25
-62 -14 -28 -25 -60 -25 -70 0 -10 -4 -18 -10 -18 -5 0 -10 -11 -10 -25 0 -14
-4 -25 -10 -25 -5 0 -10 -8 -10 -18 0 -10 -7 -27 -15 -38 -8 -10 -15 -25 -15
-32 0 -7 -8 -21 -17 -30 -14 -15 -52 -18 -292 -22 -201 -4 -279 -2 -288 7 -22
20 11 23 273 23 l255 0 24 25 c14 13 25 33 25 45 0 11 4 20 9 20 5 0 12 16 15
35 4 19 11 35 16 35 6 0 10 11 10 25 0 14 5 25 10 25 6 0 10 14 10 30 0 17 5
30 10 30 6 0 10 6 10 14 0 7 11 34 25 60 14 26 25 56 25 67 0 10 5 19 10 19 6
0 10 11 10 25 0 14 5 25 10 25 6 0 10 7 10 16 0 9 7 30 16 47 32 60 34 67 34
92 0 14 5 25 10 25 6 0 10 6 10 14 0 7 11 34 25 60 14 26 25 56 25 67 0 10 5
19 10 19 6 0 10 11 10 25 0 14 5 25 10 25 6 0 10 7 10 16 0 9 7 30 16 47 9 18
21 40 25 49 5 10 9 40 9 68 0 47 -2 50 -25 50 -18 0 -25 5 -25 20 0 27 33 26
64 -1z"/>
<path d="M10420 11820 c0 -1673 3 -2520 10 -2520 7 0 10 847 10 2520 0 1673
-3 2520 -10 2520 -7 0 -10 -847 -10 -2520z"/>
<path d="M6550 14280 c0 -7 187 -10 540 -10 353 0 540 3 540 10 0 7 -187 10
-540 10 -353 0 -540 -3 -540 -10z"/>
<path d="M6580 12290 c0 -6 -30 -10 -70 -10 -40 0 -70 -4 -70 -10 0 -5 -13
-10 -29 -10 -16 0 -45 -7 -64 -15 -20 -8 -48 -15 -62 -15 -14 0 -25 -4 -25
-10 0 -5 -16 -10 -35 -10 -19 0 -35 -4 -35 -10 0 -5 -7 -10 -17 -10 -22 0 -93
-32 -93 -42 0 -4 -11 -8 -25 -8 -14 0 -25 -4 -25 -10 0 -5 -6 -10 -14 -10 -18
0 -76 -32 -76 -42 0 -5 -9 -8 -20 -8 -11 0 -20 -4 -20 -10 0 -5 -7 -10 -15
-10 -8 0 -15 -4 -15 -10 0 -5 -7 -10 -16 -10 -9 0 -27 -11 -40 -25 -13 -14
-30 -25 -39 -25 -8 0 -15 -4 -15 -10 0 -5 -5 -10 -10 -10 -6 0 -22 -10 -35
-22 -36 -34 -53 -48 -60 -48 -8 0 -265 -257 -265 -265 0 -7 -14 -24 -47 -60
-13 -13 -23 -29 -23 -35 0 -5 -4 -10 -10 -10 -5 0 -10 -7 -10 -14 0 -8 -11
-27 -25 -42 -14 -15 -25 -33 -25 -40 0 -8 -4 -14 -10 -14 -5 0 -10 -9 -10 -20
0 -11 -4 -20 -10 -20 -5 0 -10 -5 -10 -11 0 -6 -7 -17 -15 -25 -8 -9 -15 -24
-15 -34 0 -10 -4 -22 -10 -25 -5 -3 -10 -15 -10 -26 0 -10 -4 -19 -10 -19 -5
0 -10 -9 -10 -21 0 -11 -7 -27 -15 -35 -8 -9 -15 -24 -15 -34 0 -10 -4 -22
-10 -25 -5 -3 -10 -17 -10 -30 0 -13 -4 -27 -10 -30 -5 -3 -10 -22 -10 -41 0
-19 -4 -34 -10 -34 -5 0 -10 -15 -10 -33 0 -18 -5 -38 -10 -43 -22 -22 -33
-159 -33 -419 0 -262 12 -405 34 -405 5 0 9 -16 9 -35 0 -19 5 -35 10 -35 6 0
10 -18 10 -40 0 -22 5 -40 10 -40 6 0 10 -10 10 -22 0 -13 12 -45 25 -73 14
-27 25 -60 25 -72 0 -13 4 -23 8 -23 4 0 16 -20 26 -45 11 -25 23 -45 28 -45
4 0 8 -7 8 -15 0 -8 5 -15 10 -15 6 0 10 -9 10 -20 0 -11 5 -20 10 -20 6 0 10
-6 10 -14 0 -7 11 -25 25 -40 14 -15 25 -34 25 -42 0 -7 5 -14 10 -14 6 0 10
-5 10 -11 0 -6 6 -17 13 -24 26 -30 37 -44 37 -50 0 -3 10 -16 23 -29 32 -33
67 -75 67 -81 0 -7 105 -108 135 -130 15 -11 50 -41 77 -67 26 -27 55 -48 63
-48 8 0 15 -4 15 -10 0 -5 5 -10 11 -10 6 0 17 -6 24 -12 33 -30 45 -38 55
-38 5 0 10 -4 10 -10 0 -5 9 -10 20 -10 11 0 20 -4 20 -10 0 -5 7 -10 15 -10
8 0 15 -3 15 -7 0 -11 58 -43 76 -43 8 0 14 -4 14 -10 0 -5 9 -10 21 -10 11 0
27 -7 35 -15 9 -8 24 -15 35 -15 10 0 19 -4 19 -10 0 -5 11 -10 25 -10 14 0
25 -4 25 -10 0 -5 16 -10 35 -10 19 0 35 -4 35 -10 0 -5 13 -10 29 -10 17 0
32 -4 36 -9 3 -6 26 -13 50 -17 25 -3 45 -10 45 -15 0 -5 25 -9 55 -9 30 0 55
-4 55 -10 0 -6 45 -10 115 -10 76 0 115 -4 115 -11 0 -7 22 -9 68 -5 37 3 120
9 185 12 64 3 117 10 117 15 0 5 25 9 55 9 30 0 55 4 55 8 0 7 48 21 133 39
15 3 27 9 27 14 0 5 16 9 35 9 19 0 35 5 35 10 0 6 9 10 19 10 11 0 23 5 26
10 3 6 15 10 25 10 10 0 25 7 34 15 8 8 24 15 35 15 12 0 21 5 21 10 0 6 9 10
20 10 11 0 20 4 20 9 0 5 11 12 25 15 14 4 25 11 25 16 0 6 7 10 15 10 8 0 15
5 15 10 0 6 9 10 20 10 11 0 20 4 20 9 0 5 8 12 19 16 10 3 33 19 50 35 17 17
34 30 39 30 4 0 25 16 45 35 20 19 39 35 42 35 7 0 27 16 70 58 19 17 39 32
45 32 5 0 10 5 10 10 0 6 15 26 33 45 46 49 57 63 57 75 0 5 5 10 11 10 14 0
39 25 39 39 0 6 5 11 10 11 6 0 10 7 10 15 0 8 16 31 35 51 19 19 35 42 35 50
0 8 5 14 10 14 6 0 10 5 10 11 0 6 6 17 13 24 31 35 37 45 37 60 0 8 5 15 10
15 6 0 10 11 10 25 0 14 5 25 10 25 6 0 10 6 10 14 0 7 7 19 15 26 8 7 15 21
15 31 0 11 5 19 10 19 6 0 10 11 10 25 0 14 5 25 10 25 6 0 10 14 10 30 0 17
4 30 10 30 5 0 12 16 16 35 3 19 10 38 15 41 5 3 9 18 9 34 0 16 5 32 10 35 6
3 10 26 10 51 0 24 5 44 10 44 6 0 10 28 10 64 0 43 4 66 13 68 9 4 12 62 12
246 0 179 -3 244 -12 253 -7 7 -13 37 -13 66 0 29 -4 53 -10 53 -5 0 -10 20
-10 45 0 25 -4 53 -9 63 -5 9 -18 45 -28 79 -10 35 -21 63 -25 63 -5 0 -8 11
-8 25 0 14 -4 25 -10 25 -5 0 -10 7 -10 17 0 22 -32 93 -42 93 -4 0 -8 11 -8
25 0 14 -4 25 -10 25 -5 0 -10 9 -10 20 0 11 -4 20 -9 20 -5 0 -12 11 -15 25
-4 14 -11 25 -16 25 -6 0 -10 7 -10 15 0 8 -4 15 -10 15 -5 0 -10 9 -10 20 0
11 -4 20 -8 20 -4 0 -16 15 -27 33 -10 17 -27 39 -37 48 -10 9 -18 21 -18 26
0 5 -16 26 -35 46 -19 20 -35 39 -35 42 0 10 -49 55 -60 55 -5 0 -10 5 -10 10
0 14 -66 80 -80 80 -5 0 -10 5 -10 10 0 12 -45 60 -55 60 -4 0 -12 6 -20 13
-7 6 -25 21 -41 32 -15 11 -33 26 -40 33 -7 6 -16 12 -21 12 -4 0 -20 11 -35
25 -15 14 -34 25 -43 25 -8 0 -15 5 -15 10 0 6 -7 10 -15 10 -8 0 -15 5 -15
10 0 6 -9 10 -20 10 -11 0 -20 4 -20 10 0 5 -11 12 -25 16 -14 3 -25 10 -25
15 0 5 -9 9 -20 9 -11 0 -20 5 -20 10 0 6 -11 10 -25 10 -14 0 -25 4 -25 9 0
5 -16 12 -35 15 -19 4 -35 11 -35 16 0 6 -11 10 -25 10 -14 0 -25 5 -25 10 0
6 -16 10 -35 10 -19 0 -35 5 -35 10 0 6 -11 10 -24 10 -13 0 -40 7 -59 15 -20
8 -50 15 -67 15 -16 0 -30 5 -30 10 0 6 -28 10 -65 10 -37 0 -65 4 -65 10 0 6
-83 10 -230 10 -147 0 -230 -4 -230 -10z m410 -19 c0 -5 39 -14 88 -20 48 -7
106 -14 130 -17 23 -3 42 -10 42 -15 0 -5 18 -9 40 -9 22 0 40 -4 40 -10 0 -5
10 -10 23 -10 12 -1 33 -7 47 -15 14 -8 35 -14 48 -15 12 0 22 -4 22 -10 0 -5
11 -10 25 -10 14 0 25 -4 25 -10 0 -5 9 -10 20 -10 11 0 20 -4 20 -10 0 -5 11
-12 25 -16 14 -3 25 -10 25 -15 0 -5 11 -9 25 -9 14 0 25 -4 25 -10 0 -5 7
-10 15 -10 15 0 25 -6 60 -37 7 -7 18 -13 24 -13 6 0 11 -4 11 -10 0 -5 9 -10
20 -10 11 0 20 -4 20 -10 0 -5 5 -10 10 -10 11 0 25 -10 65 -47 13 -13 27 -23
30 -23 3 0 22 -16 42 -35 20 -19 43 -35 50 -35 7 0 13 -5 13 -10 0 -14 66 -80
80 -80 5 0 10 -4 10 -10 0 -10 27 -45 68 -86 12 -13 22 -26 22 -29 0 -3 11
-17 25 -31 14 -14 25 -30 25 -36 0 -6 8 -18 18 -27 10 -9 27 -31 37 -48 11
-18 23 -33 27 -33 4 0 8 -9 8 -20 0 -11 3 -20 8 -20 4 0 15 -20 25 -45 11 -25
23 -45 28 -45 5 0 9 -11 9 -25 0 -14 5 -25 10 -25 6 0 10 -6 10 -14 0 -7 11
-34 25 -60 14 -26 25 -56 25 -67 0 -10 5 -19 10 -19 6 0 10 -16 10 -35 0 -19
5 -35 10 -35 6 0 10 -8 10 -17 0 -10 7 -36 15 -58 8 -22 14 -55 15 -72 0 -18
5 -33 10 -33 6 0 10 -28 10 -65 0 -37 4 -65 10 -65 6 0 10 -80 10 -220 0 -126
-4 -220 -9 -220 -5 0 -11 -28 -13 -62 -3 -35 -14 -99 -26 -142 -12 -44 -22
-87 -22 -98 0 -10 -4 -18 -10 -18 -5 0 -10 -11 -10 -25 0 -14 -4 -25 -9 -25
-5 0 -11 -12 -14 -27 -9 -44 -31 -103 -39 -103 -5 0 -8 -11 -8 -25 0 -14 -4
-25 -10 -25 -5 0 -10 -9 -10 -20 0 -11 -4 -20 -9 -20 -5 0 -12 -11 -15 -25 -4
-14 -11 -25 -16 -25 -6 0 -10 -7 -10 -15 0 -8 -4 -15 -10 -15 -5 0 -10 -9 -10
-20 0 -11 -4 -20 -10 -20 -5 0 -10 -6 -10 -13 0 -7 -11 -24 -25 -39 -14 -15
-25 -34 -25 -43 0 -8 -4 -15 -10 -15 -5 0 -10 -5 -10 -10 0 -6 -10 -22 -22
-35 -38 -40 -48 -54 -48 -65 0 -5 -6 -10 -13 -10 -7 0 -21 -12 -32 -27 -25
-34 -142 -153 -150 -153 -10 0 -35 -28 -35 -39 0 -6 -9 -11 -20 -11 -11 0 -20
-4 -20 -10 0 -5 -5 -10 -11 -10 -14 0 -39 -25 -39 -39 0 -6 -9 -11 -20 -11
-11 0 -20 -4 -20 -10 0 -5 -7 -10 -15 -10 -8 0 -15 -3 -15 -8 0 -4 -16 -16
-35 -26 -19 -11 -35 -23 -35 -28 0 -4 -9 -8 -20 -8 -11 0 -20 -4 -20 -10 0 -5
-11 -10 -25 -10 -14 0 -25 -3 -25 -7 0 -11 -58 -43 -76 -43 -8 0 -14 -4 -14
-10 0 -5 -11 -10 -25 -10 -14 0 -25 -4 -25 -10 0 -5 -10 -10 -22 -10 -13 0
-32 -7 -42 -15 -11 -8 -30 -15 -43 -15 -13 0 -23 -4 -23 -10 0 -5 -16 -10 -35
-10 -19 0 -35 -4 -35 -10 0 -5 -20 -10 -45 -10 -25 0 -45 -4 -45 -8 0 -4 -30
-14 -67 -21 -81 -16 -583 -26 -592 -12 -5 8 -77 24 -173 38 -21 3 -38 9 -38
14 0 5 -20 9 -45 9 -25 0 -45 5 -45 10 0 6 -9 10 -21 10 -11 0 -27 7 -35 15
-9 8 -26 15 -40 15 -13 0 -24 5 -24 10 0 6 -11 10 -25 10 -14 0 -25 5 -25 10
0 6 -9 10 -20 10 -11 0 -20 4 -20 8 0 5 -20 17 -45 28 -25 10 -45 22 -45 26 0
4 -11 8 -25 8 -14 0 -25 5 -25 10 0 6 -9 10 -20 10 -11 0 -20 7 -20 15 0 8 -7
15 -15 15 -8 0 -15 5 -15 10 0 6 -7 10 -15 10 -9 0 -27 11 -41 25 -14 14 -29
25 -34 25 -4 0 -34 25 -65 55 -31 30 -58 55 -61 55 -7 0 -144 138 -144 145 0
4 -16 22 -35 41 -19 18 -35 38 -35 44 0 5 -16 27 -35 47 -19 20 -35 43 -35 50
0 7 -4 13 -10 13 -5 0 -10 7 -10 15 0 8 -4 15 -10 15 -5 0 -10 9 -10 20 0 11
-3 20 -7 20 -10 0 -43 58 -43 75 0 7 -3 15 -7 17 -10 4 -63 110 -63 126 0 6
-4 12 -10 12 -5 0 -10 9 -10 20 0 11 -4 28 -9 38 -5 9 -17 44 -27 77 -10 33
-22 64 -26 69 -4 6 -8 29 -8 53 0 24 -4 43 -9 43 -5 0 -12 26 -15 58 -26 277
-28 318 -16 456 19 238 21 256 31 256 5 0 9 14 9 30 0 17 4 38 9 48 13 24 41
117 41 136 0 9 5 16 10 16 6 0 10 11 10 25 0 14 5 25 10 25 6 0 10 8 10 18 0
10 7 27 15 38 8 10 15 27 15 37 0 9 5 17 10 17 6 0 10 11 10 25 0 14 5 25 10
25 6 0 10 4 10 10 0 9 39 72 60 97 5 7 10 19 10 28 0 8 5 15 10 15 6 0 10 5
10 11 0 6 6 17 13 24 26 30 37 44 37 50 0 3 14 19 30 37 17 17 30 35 30 39 0
13 231 239 244 239 6 0 18 9 26 20 8 11 18 20 23 20 7 0 20 9 52 38 7 6 18 12
24 12 6 0 11 5 11 10 0 6 7 10 15 10 8 0 15 5 15 10 0 6 7 10 15 10 8 0 15 4
15 10 0 5 11 12 25 16 14 3 25 10 25 15 0 5 9 9 20 9 11 0 20 4 20 8 0 4 20
16 45 26 25 11 45 23 45 28 0 4 11 8 25 8 14 0 25 5 25 10 0 6 11 10 25 10 14
0 25 3 25 8 0 8 59 30 103 39 15 3 27 9 27 14 0 5 20 9 45 9 25 0 45 4 45 9 0
9 10 11 155 31 44 6 84 16 90 21 12 12 375 12 375 0z"/>
<path d="M7400 11720 c0 -5 -13 -10 -29 -10 -17 0 -33 -4 -36 -10 -3 -5 -15
-10 -25 -10 -10 0 -25 -7 -34 -15 -8 -8 -24 -15 -35 -15 -12 0 -21 -4 -21 -10
0 -5 -7 -10 -15 -10 -8 0 -15 -3 -15 -7 0 -5 -18 -17 -40 -27 -22 -11 -40 -23
-40 -28 0 -4 -5 -8 -10 -8 -6 0 -22 -11 -36 -25 -14 -14 -29 -25 -33 -25 -4 0
-22 -13 -39 -30 -18 -16 -34 -30 -37 -30 -7 0 -25 -15 -76 -62 -22 -21 -45
-38 -52 -38 -7 0 -24 11 -39 25 -15 14 -32 25 -38 25 -5 0 -10 4 -10 8 0 4
-15 16 -32 27 -18 10 -40 27 -49 37 -9 10 -21 18 -27 18 -15 0 -72 34 -72 43
0 4 -7 7 -15 7 -8 0 -15 5 -15 10 0 6 -9 10 -20 10 -11 0 -20 5 -20 10 0 6
-11 10 -24 10 -14 0 -31 7 -40 15 -8 8 -21 15 -30 15 -8 0 -18 5 -21 10 -3 6
-19 10 -35 10 -15 0 -30 5 -32 11 -5 15 -261 15 -266 0 -2 -6 -10 -11 -18 -11
-8 0 -14 -4 -14 -10 0 -5 -6 -10 -13 -10 -8 0 -20 -11 -27 -25 -7 -14 -17 -25
-22 -25 -4 0 -8 -9 -8 -20 0 -11 -4 -20 -9 -20 -5 0 -17 -34 -26 -75 -15 -71
-15 -81 1 -175 10 -55 21 -100 26 -100 4 0 8 -20 8 -45 0 -25 5 -45 10 -45 6
0 10 -15 10 -34 0 -19 4 -36 10 -38 5 -1 12 -18 16 -35 5 -26 3 -33 -10 -33
-9 0 -16 -4 -16 -10 0 -5 -9 -10 -20 -10 -11 0 -20 -4 -20 -10 0 -5 -5 -10
-11 -10 -6 0 -17 -6 -24 -12 -30 -27 -44 -38 -50 -38 -12 0 -125 -113 -125
-125 0 -4 -6 -13 -12 -20 -31 -35 -38 -45 -38 -59 0 -8 -4 -18 -10 -21 -12 -7
-14 -205 -2 -205 4 0 15 -20 25 -45 11 -25 23 -45 28 -45 5 0 9 -5 9 -11 0
-11 25 -39 35 -39 3 0 17 -10 30 -22 40 -38 54 -48 65 -48 5 0 10 -3 10 -7 0
-11 58 -43 76 -43 8 0 14 -4 14 -10 0 -5 9 -10 20 -10 11 0 20 -4 20 -9 0 -5
12 -12 28 -16 15 -4 21 -10 15 -12 -7 -3 -13 -17 -13 -33 0 -15 -7 -41 -15
-56 -8 -16 -15 -41 -15 -56 0 -15 -4 -30 -10 -33 -6 -4 -10 -70 -10 -166 0
-140 2 -165 20 -199 28 -55 94 -119 130 -126 16 -4 30 -10 30 -15 0 -5 27 -9
60 -9 33 0 60 4 60 10 0 6 12 10 26 10 30 0 127 31 132 43 2 4 12 7 22 7 10 0
20 3 22 8 2 4 21 16 42 27 68 35 76 40 76 47 0 5 7 8 15 8 8 0 15 4 15 9 0 5
9 12 19 16 17 5 35 20 118 95 12 11 25 20 28 20 3 0 26 20 51 45 24 25 49 45
54 45 6 0 22 -10 35 -22 40 -38 54 -48 65 -48 5 0 10 -4 10 -8 0 -5 16 -17 35
-28 19 -10 35 -22 35 -26 0 -5 7 -8 15 -8 8 0 15 -3 15 -7 0 -5 18 -17 40 -27
22 -11 40 -23 40 -28 0 -4 7 -8 15 -8 8 0 15 -4 15 -10 0 -5 11 -10 25 -10 14
0 25 -4 25 -10 0 -5 6 -10 14 -10 7 0 39 -11 70 -25 31 -14 70 -25 86 -25 17
0 30 -4 30 -10 0 -6 37 -10 90 -10 53 0 90 4 90 10 0 6 9 10 21 10 11 0 27 6
34 13 31 27 44 37 50 37 14 0 35 30 35 49 0 12 5 21 10 21 6 0 10 16 10 35 0
19 5 35 10 35 6 0 10 37 10 90 0 53 -4 90 -10 90 -6 0 -10 27 -10 60 0 33 -4
60 -9 60 -5 0 -11 15 -14 33 -10 60 -20 92 -34 105 -25 25 -13 82 18 82 10 0
19 4 19 8 0 5 16 16 35 25 19 9 35 21 35 27 0 5 9 10 20 10 11 0 20 4 20 8 0
5 11 15 25 22 14 7 25 17 25 22 0 12 26 38 38 38 5 0 15 11 22 25 7 14 17 25
22 25 4 0 8 9 8 20 0 11 5 20 10 20 6 0 10 8 10 18 0 9 7 26 15 36 21 27 20
183 0 210 -8 11 -15 28 -15 38 0 10 -4 18 -10 18 -5 0 -10 5 -10 11 0 13 -115
129 -128 129 -6 0 -12 4 -14 8 -4 13 -96 62 -113 62 -8 0 -15 5 -15 10 0 6
-11 10 -25 10 -15 0 -25 6 -25 14 0 8 -6 17 -12 19 -10 4 -10 6 0 6 7 1 12 15
12 36 0 19 5 35 10 35 6 0 10 10 10 23 0 12 7 42 16 67 12 33 16 86 17 191 1
125 -2 149 -16 164 -9 9 -17 23 -17 31 0 8 -4 14 -10 14 -5 0 -10 7 -10 16 0
18 -45 61 -72 70 -10 3 -18 10 -18 15 0 5 -47 9 -105 9 -63 0 -105 -4 -105
-10z m205 -32 c14 -6 25 -15 25 -20 0 -4 5 -8 11 -8 14 0 39 -25 39 -39 0 -6
5 -11 10 -11 6 0 10 -9 10 -19 0 -11 5 -21 11 -23 16 -5 15 -311 0 -316 -6 -2
-11 -28 -11 -58 0 -30 -4 -54 -10 -54 -5 0 -10 -15 -10 -34 0 -20 -6 -36 -14
-39 -20 -8 -86 3 -86 14 0 5 -18 9 -40 9 -22 0 -40 4 -40 9 0 5 -19 11 -42 14
-24 3 -68 11 -98 17 -116 23 -169 30 -243 30 -45 0 -77 4 -77 10 0 6 -5 10
-11 10 -6 0 -26 16 -45 35 -18 19 -36 35 -38 35 -3 0 -24 18 -46 40 l-41 41
30 28 c17 16 31 34 31 40 0 6 5 11 10 11 6 0 22 10 35 23 38 35 54 47 62 47 5
0 15 9 23 20 8 11 19 20 25 20 6 0 22 11 37 25 15 14 34 25 43 25 8 0 15 5 15
10 0 6 5 10 11 10 6 0 17 6 24 13 36 31 46 37 65 37 11 0 20 5 20 10 0 6 11
10 25 10 14 0 25 4 25 9 0 5 15 11 33 14 17 3 48 10 67 16 40 12 128 6 165
-11z m-1321 -57 c7 -10 97 -41 120 -41 9 0 16 -4 16 -10 0 -5 9 -10 20 -10 11
0 20 -4 20 -9 0 -5 11 -12 25 -15 14 -4 25 -11 25 -16 0 -6 9 -10 20 -10 11 0
20 -4 20 -10 0 -5 7 -10 15 -10 8 0 15 -4 15 -10 0 -5 9 -10 20 -10 11 0 20
-5 20 -10 0 -6 16 -18 35 -27 19 -9 35 -20 35 -25 0 -4 5 -8 10 -8 6 0 22 -10
35 -22 40 -38 54 -48 65 -48 18 0 11 -9 -70 -89 -44 -44 -80 -84 -80 -90 0 -6
-10 -13 -22 -15 -71 -13 -158 -28 -195 -33 -24 -3 -43 -9 -43 -14 0 -5 -20 -9
-45 -9 -25 0 -45 -4 -45 -10 0 -5 -13 -10 -29 -10 -17 0 -33 -4 -36 -10 -3 -5
-14 -10 -23 -10 -9 0 -30 -7 -46 -15 -15 -8 -37 -15 -47 -15 -11 0 -19 -4 -19
-10 0 -5 -11 -10 -25 -10 -14 0 -25 -4 -25 -10 0 -5 -9 -10 -20 -10 -15 0 -20
7 -20 24 0 14 -4 28 -10 31 -5 3 -10 17 -10 30 0 13 -7 30 -15 39 -8 8 -15 28
-15 45 0 17 -4 31 -10 31 -6 0 -10 30 -10 70 0 40 -4 70 -10 70 -5 0 -10 25
-10 55 0 30 5 55 10 55 6 0 10 20 10 45 0 25 5 45 10 45 6 0 10 6 10 14 0 19
51 72 78 80 12 4 22 12 22 17 0 12 217 12 224 0z m576 -346 c7 -8 17 -15 22
-15 11 0 38 -25 38 -35 0 -10 28 -35 39 -35 6 0 11 -9 11 -20 0 -19 -7 -20
-140 -20 -87 0 -140 4 -140 10 0 6 5 10 11 10 11 0 39 25 39 35 0 10 48 55 60
55 5 0 10 7 10 15 0 8 8 15 19 15 10 0 24 -7 31 -15z m229 -215 c33 -34 61
-63 61 -66 0 -4 12 -18 68 -79 12 -13 22 -27 22 -30 0 -10 28 -35 39 -35 6 0
11 -7 11 -15 0 -8 5 -15 10 -15 6 0 10 -7 10 -16 0 -9 16 -31 35 -50 19 -18
35 -40 35 -48 0 -8 4 -16 8 -18 17 -7 62 -76 62 -94 0 -11 -11 -31 -25 -46
-14 -15 -25 -34 -25 -43 0 -8 -4 -15 -10 -15 -5 0 -10 -11 -10 -25 0 -14 -6
-25 -13 -25 -8 0 -24 -20 -37 -45 -13 -25 -27 -45 -32 -45 -4 0 -8 -6 -8 -13
0 -7 -11 -24 -25 -39 -14 -15 -25 -32 -25 -38 0 -5 -4 -10 -10 -10 -5 0 -10
-7 -10 -15 0 -8 -4 -15 -10 -15 -5 0 -10 -5 -10 -10 0 -6 -11 -21 -25 -34 -14
-13 -25 -28 -25 -34 0 -6 -22 -33 -50 -61 -55 -55 -53 -55 -302 -67 -100 -5
-108 -4 -120 15 -7 12 -18 21 -25 21 -7 0 -13 4 -13 8 0 5 -34 44 -75 86 -41
42 -75 80 -75 82 0 3 -6 11 -12 18 -26 27 -58 66 -58 72 0 2 -10 16 -22 29
-35 37 -48 54 -48 61 0 4 -8 14 -18 23 -10 9 -27 31 -37 49 -11 17 -23 32 -27
32 -4 0 -8 14 -8 30 0 29 5 38 38 75 6 7 12 18 12 24 0 6 5 11 10 11 6 0 10 9
10 20 0 11 5 20 10 20 6 0 10 6 10 13 0 7 11 24 25 39 14 15 25 34 25 43 0 8
5 15 10 15 6 0 10 5 10 10 0 6 10 22 23 35 37 40 47 54 47 65 0 5 5 10 10 10
6 0 10 4 10 10 0 10 27 45 68 86 12 13 22 28 22 34 0 5 4 10 9 10 5 0 12 9 16
19 9 30 31 35 185 42 217 9 208 11 279 -61z m224 44 c37 -3 67 -10 67 -15 0
-5 20 -9 45 -9 25 0 45 -4 45 -10 0 -5 15 -10 33 -10 17 -1 43 -7 57 -15 14
-8 33 -14 43 -15 24 0 57 -32 39 -38 -6 -2 -12 -15 -12 -28 0 -13 -4 -24 -10
-24 -5 0 -10 -13 -10 -29 0 -16 -3 -31 -7 -33 -11 -4 -43 -67 -43 -84 0 -8 -4
-14 -10 -14 -5 0 -10 -11 -10 -25 0 -14 -4 -25 -10 -25 -5 0 -10 -9 -10 -20 0
-11 -4 -20 -10 -20 -5 0 -12 -11 -16 -25 -7 -27 -44 -36 -44 -10 0 8 -4 15
-10 15 -5 0 -10 6 -10 13 0 7 -11 24 -25 39 -14 15 -25 32 -25 38 0 7 -16 27
-35 46 -19 18 -35 38 -35 44 0 5 -4 10 -10 10 -5 0 -10 7 -10 15 0 8 -4 15
-10 15 -5 0 -10 7 -10 15 0 8 -5 15 -11 15 -11 0 -39 25 -39 35 0 3 -21 28
-47 56 -88 93 -93 98 -93 105 0 3 37 3 83 0 45 -4 112 -9 150 -12z m-713 -9
c0 -3 -13 -19 -30 -37 -16 -17 -30 -35 -30 -39 0 -4 -11 -19 -25 -33 -14 -14
-25 -28 -25 -31 0 -4 -6 -13 -12 -20 -28 -31 -38 -44 -38 -51 0 -4 -8 -14 -18
-23 -10 -9 -27 -31 -37 -48 -11 -18 -23 -33 -27 -33 -4 0 -8 -9 -8 -20 0 -11
-4 -20 -10 -20 -5 0 -10 -5 -10 -10 0 -10 -8 -22 -37 -55 -7 -7 -13 -21 -13
-29 0 -9 -4 -16 -10 -16 -5 0 -10 -9 -10 -19 0 -21 -32 -39 -38 -21 -2 6 -10
17 -18 24 -8 8 -14 19 -14 25 0 6 -4 11 -10 11 -5 0 -10 9 -10 20 0 11 -3 20
-7 20 -5 0 -16 20 -26 45 -11 25 -23 45 -28 45 -5 0 -9 9 -9 20 0 11 -4 20 -8
20 -5 0 -15 19 -22 41 -8 23 -20 48 -28 56 -13 12 -12 16 4 28 11 8 27 15 36
15 9 0 23 7 32 15 8 8 24 15 35 15 12 0 21 5 21 10 0 6 16 10 35 10 19 0 35 5
35 10 0 6 13 10 29 10 17 0 32 4 36 9 3 6 26 13 50 17 25 3 45 10 45 15 0 5
27 9 60 9 33 0 60 4 60 10 0 6 18 10 40 10 22 0 40 -2 40 -5z m1100 -93 c0 -4
20 -16 45 -27 25 -11 45 -23 45 -27 0 -5 9 -8 20 -8 11 0 20 -4 20 -10 0 -5 5
-10 10 -10 6 0 16 -5 23 -10 52 -44 73 -60 80 -60 4 0 7 -4 7 -10 0 -9 25 -42
58 -76 6 -7 12 -22 12 -33 0 -12 5 -21 10 -21 6 0 10 -37 10 -90 0 -53 -4 -90
-10 -90 -5 0 -10 -11 -10 -25 0 -14 -4 -25 -10 -25 -5 0 -10 -7 -10 -15 0 -16
-144 -165 -160 -165 -6 0 -10 -4 -10 -10 0 -5 -9 -10 -20 -10 -11 0 -20 -4
-20 -8 0 -5 -16 -17 -35 -28 -19 -10 -35 -22 -35 -26 0 -5 -4 -8 -10 -8 -5 0
-10 7 -10 15 0 8 -4 15 -10 15 -5 0 -10 9 -10 20 0 11 -4 20 -10 20 -5 0 -10
9 -10 19 0 11 -7 26 -15 35 -8 8 -15 22 -15 30 0 9 -4 16 -10 16 -5 0 -10 9
-10 20 0 11 -4 20 -10 20 -5 0 -10 7 -10 15 0 15 -6 25 -37 60 -7 7 -13 20
-13 28 0 9 -3 17 -7 19 -5 2 -16 18 -26 36 -17 31 -18 35 -3 51 9 10 16 23 16
29 0 7 5 12 10 12 6 0 10 9 10 20 0 11 5 20 10 20 6 0 10 11 10 25 0 14 4 25
10 25 5 0 12 11 16 25 3 14 10 25 15 25 5 0 9 14 9 30 0 17 5 30 10 30 6 0 10
11 10 25 0 14 4 25 9 25 5 0 12 10 16 23 10 34 28 67 37 67 4 0 8 -3 8 -8z
m-1684 -96 c8 -8 14 -24 14 -35 0 -12 5 -21 10 -21 6 0 10 -6 10 -14 0 -18 32
-76 43 -76 4 0 7 -9 7 -20 0 -11 4 -20 8 -20 4 0 14 -16 21 -36 7 -19 19 -38
27 -41 8 -3 14 -14 14 -24 0 -10 5 -19 10 -19 6 0 10 -7 10 -15 0 -8 5 -15 10
-15 6 0 10 -13 10 -30 0 -16 -4 -30 -10 -30 -5 0 -10 -9 -10 -20 0 -11 -4 -20
-10 -20 -5 0 -10 -11 -10 -24 0 -13 -7 -26 -15 -30 -8 -3 -15 -15 -15 -26 0
-11 -4 -20 -10 -20 -5 0 -10 -9 -10 -20 0 -11 -4 -20 -10 -20 -5 0 -10 -11
-10 -25 0 -14 -4 -25 -10 -25 -5 0 -10 -8 -10 -18 0 -10 -7 -27 -15 -38 -8
-10 -15 -27 -15 -37 0 -20 -22 -47 -38 -47 -5 0 -15 7 -22 15 -7 8 -21 15 -31
15 -11 0 -19 5 -19 10 0 6 -9 10 -20 10 -11 0 -20 5 -20 10 0 6 -5 10 -11 10
-6 0 -17 6 -24 13 -30 26 -44 37 -50 37 -12 0 -105 103 -105 116 0 8 -4 14 -8
14 -29 0 -51 219 -23 228 6 2 11 15 11 28 0 13 5 24 10 24 6 0 10 6 10 13 0
15 128 147 143 147 5 0 17 8 26 19 9 10 26 21 39 25 12 4 22 12 22 17 0 5 7 9
15 9 8 0 15 5 15 10 0 15 29 12 46 -4z m1474 -356 c0 -10 8 -22 38 -55 6 -7
12 -23 12 -34 0 -12 5 -21 10 -21 6 0 10 -5 10 -10 0 -10 8 -22 38 -55 6 -7
12 -23 12 -34 0 -12 5 -21 10 -21 6 0 10 -9 10 -20 0 -11 5 -20 10 -20 6 0 10
-9 10 -20 0 -10 7 -23 15 -28 21 -11 9 -42 -16 -42 -10 0 -19 -4 -19 -9 0 -5
-16 -12 -35 -15 -19 -4 -35 -11 -35 -16 0 -6 -13 -10 -30 -10 -16 0 -30 -4
-30 -10 0 -5 -15 -10 -34 -10 -19 0 -36 -3 -38 -8 -4 -9 -128 -42 -157 -42
-12 0 -21 -4 -21 -10 0 -6 -30 -10 -70 -10 -73 0 -83 6 -50 30 11 8 20 20 20
27 0 7 5 13 11 13 14 0 39 25 39 39 0 6 5 11 10 11 6 0 10 8 10 18 0 9 11 26
25 36 14 10 25 25 25 32 0 8 5 14 10 14 6 0 10 7 10 15 0 8 5 15 10 15 6 0 10
5 10 11 0 6 6 17 13 24 29 33 37 45 37 55 0 5 5 10 10 10 6 0 10 7 10 15 0 9
11 28 25 43 14 15 25 32 25 39 0 7 5 13 10 13 6 0 10 9 10 19 0 17 11 28 33
30 4 1 7 -4 7 -9z m-1230 -68 c0 -10 9 -24 20 -32 11 -8 20 -19 20 -25 0 -6
11 -22 25 -37 14 -15 25 -30 25 -32 0 -6 32 -45 58 -72 6 -7 12 -15 12 -19 0
-3 15 -21 33 -40 43 -45 57 -63 57 -71 0 -9 53 -54 63 -54 4 0 7 -6 7 -13 0
-7 9 -19 20 -27 42 -30 24 -37 -87 -32 -60 2 -109 9 -111 13 -2 5 -30 9 -63 9
-32 0 -59 4 -59 8 0 8 -77 29 -142 39 -21 3 -38 9 -38 14 0 5 -9 9 -21 9 -16
0 -19 4 -14 18 4 9 10 29 13 45 2 15 8 27 13 27 5 0 9 11 9 25 0 14 5 25 10
25 6 0 10 8 10 18 0 9 7 26 15 36 8 11 15 28 15 38 0 10 5 18 10 18 6 0 10 9
10 20 0 11 3 20 8 20 4 0 15 20 25 45 13 31 25 45 38 45 12 0 19 -7 19 -18z
m1440 -337 c0 -14 5 -25 10 -25 6 0 10 -15 10 -34 0 -19 5 -36 11 -38 14 -5
31 -71 36 -145 3 -35 9 -63 14 -63 5 0 9 -29 9 -65 0 -37 -4 -65 -10 -65 -5 0
-10 -16 -10 -35 0 -19 -4 -35 -10 -35 -5 0 -10 -7 -10 -15 0 -23 -77 -93 -111
-100 -16 -4 -29 -11 -29 -16 0 -15 -115 -10 -146 6 -16 8 -41 15 -56 15 -16 0
-28 5 -28 10 0 6 -13 10 -30 10 -16 0 -30 5 -30 10 0 6 -11 10 -25 10 -14 0
-25 4 -25 9 0 5 -11 12 -25 15 -14 4 -25 11 -25 16 0 6 -9 10 -20 10 -11 0
-20 5 -20 10 0 6 -7 10 -15 10 -8 0 -15 5 -15 10 0 6 -9 10 -20 10 -11 0 -20
4 -20 9 0 5 -10 13 -22 17 -13 4 -30 15 -39 25 -9 11 -19 19 -23 19 -7 0 -20
10 -51 38 -7 6 -16 12 -20 12 -3 0 -17 11 -30 24 l-24 24 86 88 c92 94 101 98
231 111 28 3 52 9 52 14 0 5 20 9 45 9 25 0 45 5 45 10 0 6 11 10 25 10 32 0
135 32 135 42 0 4 14 8 30 8 17 0 30 5 30 10 0 6 11 10 25 10 14 0 25 4 25 9
0 10 21 18 53 20 12 1 17 -6 17 -24z m-1600 -66 c0 -5 16 -9 35 -9 19 0 35 -4
35 -10 0 -5 20 -10 45 -10 25 0 45 -4 45 -10 0 -5 18 -10 41 -10 22 0 48 -4
58 -10 10 -5 70 -14 132 -20 187 -17 189 -18 236 -66 23 -24 44 -44 48 -44 3
0 17 -11 31 -25 14 -14 29 -25 34 -25 20 0 9 -33 -17 -56 -16 -13 -31 -24 -35
-24 -4 0 -23 -16 -42 -35 -20 -19 -38 -35 -41 -35 -3 0 -11 -5 -18 -10 -33
-28 -58 -48 -82 -66 -15 -10 -33 -25 -40 -31 -8 -7 -18 -13 -24 -13 -6 0 -11
-4 -11 -10 0 -5 -9 -10 -20 -10 -11 0 -20 -4 -20 -9 0 -5 -11 -12 -25 -15 -14
-4 -25 -11 -25 -16 0 -6 -11 -10 -25 -10 -14 0 -25 -4 -25 -10 0 -5 -13 -10
-30 -10 -16 0 -30 -4 -30 -10 0 -5 -13 -10 -29 -10 -16 0 -42 -5 -57 -10 -29
-12 -144 6 -144 21 0 5 -7 9 -15 9 -8 0 -24 9 -35 20 -11 11 -20 27 -20 35 0
8 -4 15 -10 15 -5 0 -10 9 -10 19 0 11 -5 21 -11 23 -17 6 -23 171 -9 258 6
41 13 92 17 113 3 20 9 37 14 37 5 0 9 14 9 32 0 39 24 68 51 61 10 -3 19 -9
19 -14z m910 -94 c0 -8 -27 -42 -60 -75 -55 -55 -90 -75 -90 -50 0 6 -5 10
-11 10 -11 0 -109 93 -109 104 0 3 35 7 78 7 42 1 91 5 107 9 52 13 85 11 85
-5z"/>
<path d="M6900 10530 c0 -5 5 -10 10 -10 6 0 10 5 10 10 0 6 -4 10 -10 10 -5
0 -10 -4 -10 -10z"/>
<path d="M11680 11586 c0 -2 36 -41 80 -86 44 -45 80 -88 80 -96 0 -8 5 -14
10 -14 6 0 10 -5 10 -11 0 -6 6 -17 13 -24 31 -35 37 -45 37 -60 0 -8 5 -15
10 -15 6 0 10 -11 10 -25 0 -14 5 -25 10 -25 6 0 10 -8 10 -18 0 -10 3 -22 6
-25 18 -18 43 -119 44 -174 0 -35 4 -63 10 -63 6 0 10 -20 10 -45 0 -25 -4
-45 -10 -45 -6 0 -10 -30 -10 -70 0 -64 -2 -70 -21 -70 -11 0 -27 6 -34 13
-36 31 -46 37 -65 37 -11 0 -20 4 -20 9 0 12 -73 24 -145 24 -72 0 -145 -12
-145 -24 0 -5 -22 -9 -50 -9 -27 0 -50 -4 -50 -10 0 -5 -14 -10 -30 -10 -33 0
-92 -26 -127 -58 -20 -16 -23 -29 -23 -86 0 -37 4 -66 10 -66 6 0 10 -10 10
-23 0 -12 11 -34 25 -49 14 -15 25 -32 25 -38 0 -5 5 -10 10 -10 6 0 10 -5 10
-10 0 -6 16 -26 35 -44 19 -19 35 -39 35 -45 0 -6 7 -11 15 -11 8 0 15 -4 15
-10 0 -5 7 -10 15 -10 9 0 18 -7 21 -15 3 -8 21 -20 40 -27 19 -6 34 -16 34
-20 0 -4 9 -8 20 -8 11 0 20 -4 20 -10 0 -5 11 -10 25 -10 20 0 25 -5 25 -25
0 -14 3 -25 6 -25 6 0 84 77 84 83 0 3 -13 7 -29 10 -29 6 -121 46 -131 56 -3
4 -23 19 -45 36 -22 16 -46 37 -53 47 -7 9 -19 24 -27 32 -8 8 -15 19 -15 25
0 6 -4 11 -10 11 -5 0 -10 6 -10 14 0 8 -3 16 -7 18 -8 3 -43 62 -43 72 0 3
11 6 25 6 18 0 25 -5 25 -20 0 -11 5 -20 10 -20 6 0 10 -5 10 -10 0 -11 10
-25 48 -65 12 -13 22 -27 22 -30 0 -9 27 -35 36 -35 3 0 14 -8 23 -18 23 -25
67 -52 86 -52 8 0 15 -4 15 -10 0 -5 16 -10 35 -10 19 0 35 -4 35 -8 0 -5 11
-14 25 -20 17 -8 25 -20 25 -37 0 -14 -5 -25 -10 -25 -12 0 -110 -95 -110
-105 0 -4 6 -13 13 -20 30 -34 37 -45 37 -56 0 -8 12 -9 38 -5 51 10 102 28
102 38 0 4 9 8 20 8 11 0 20 3 20 8 0 4 21 21 45 37 25 17 45 36 45 43 0 7 11
23 25 36 14 13 25 31 25 40 0 9 5 16 10 16 6 0 10 16 10 35 0 19 5 35 10 35 6
0 10 38 10 95 0 57 -4 95 -10 95 -5 0 -10 18 -10 39 0 31 4 41 20 46 20 6 160
137 160 149 0 4 6 14 13 21 29 33 37 45 37 55 0 5 5 10 10 10 6 0 10 9 10 20
0 11 4 20 9 20 10 0 41 78 41 103 0 9 5 17 10 17 6 0 10 28 10 65 0 37 4 65
10 65 6 0 10 38 10 95 0 57 -4 95 -10 95 -6 0 -10 28 -10 65 0 37 -4 65 -10
65 -5 0 -10 12 -10 27 0 15 -7 47 -16 70 l-17 43 -168 0 c-106 0 -169 4 -169
10 0 6 -63 10 -170 10 -93 0 -170 -2 -170 -4z"/>
<path d="M11262 10314 c-15 -16 -8 -26 40 -57 33 -21 65 -22 84 -3 19 19 18
62 -2 70 -30 12 -109 6 -122 -10z"/>
<path d="M11290 10181 c0 -7 -10 -9 -25 -5 -28 7 -34 -9 -11 -32 17 -16 36
-19 36 -4 0 6 7 10 16 10 9 0 14 7 12 17 -3 18 -28 31 -28 14z"/>
<path d="M9230 10062 c0 -10 11 -42 25 -70 14 -29 25 -56 25 -62 0 -5 5 -10
10 -10 6 0 10 -11 10 -25 0 -26 6 -28 125 -40 33 -3 64 -10 69 -15 6 -6 20
-10 33 -10 13 0 23 -4 23 -10 0 -5 8 -10 18 -10 65 -2 71 -89 8 -113 -19 -7
-18 -8 2 -27 12 -11 28 -20 37 -20 19 0 75 -53 75 -70 0 -6 -16 -26 -35 -44
-42 -40 -43 -46 -7 -46 29 0 92 -47 92 -69 0 -24 -34 -71 -52 -71 -11 0 -18
-7 -18 -20 0 -11 4 -20 9 -20 12 0 41 -28 41 -39 0 -17 -38 -50 -78 -67 -27
-12 -42 -25 -42 -36 0 -10 5 -18 10 -18 6 0 10 -7 10 -15 0 -13 41 -15 310
-15 l310 0 0 25 c0 14 -4 25 -10 25 -5 0 -10 8 -10 18 0 10 -7 27 -15 38 -8
10 -15 27 -15 37 0 9 -4 17 -10 17 -5 0 -10 11 -10 25 0 14 -4 25 -10 25 -5 0
-10 6 -10 14 0 8 -11 34 -25 57 -14 24 -25 54 -25 67 0 12 -4 22 -10 22 -5 0
-10 7 -10 15 0 15 -3 23 -33 83 -9 19 -17 40 -17 48 0 8 -4 14 -10 14 -5 0
-10 11 -10 25 0 14 -4 25 -10 25 -5 0 -10 7 -10 15 0 18 -32 89 -42 93 -5 2
-8 15 -8 28 0 13 -4 24 -10 24 -5 0 -10 6 -10 14 0 19 -52 140 -62 144 -4 2
-8 17 -8 33 l0 29 -310 0 c-293 0 -310 -1 -310 -18z m536 -66 c8 -8 14 -26 14
-40 0 -36 -43 -47 -71 -18 -24 26 -24 41 -1 58 22 17 40 17 58 0z"/>
<path d="M11948 9773 c12 -2 30 -2 40 0 9 3 -1 5 -23 4 -22 0 -30 -2 -17 -4z"/>
<path d="M11470 9750 c0 -5 11 -10 25 -10 14 0 25 5 25 10 0 6 -11 10 -25 10
-14 0 -25 -4 -25 -10z"/>
<path d="M12090 9750 c0 -5 16 -10 35 -10 19 0 35 5 35 10 0 6 -16 10 -35 10
-19 0 -35 -4 -35 -10z"/>
<path d="M12250 9730 c0 -5 5 -10 10 -10 6 0 10 5 10 10 0 6 -4 10 -10 10 -5
0 -10 -4 -10 -10z"/>
<path d="M11040 9610 c0 -5 6 -10 14 -10 8 0 18 5 21 10 3 6 -3 10 -14 10 -12
0 -21 -4 -21 -10z"/>
<path d="M10905 9520 c3 -5 8 -10 11 -10 2 0 4 5 4 10 0 6 -5 10 -11 10 -5 0
-7 -4 -4 -10z"/>
<path d="M10810 9430 c0 -5 5 -10 10 -10 6 0 10 5 10 10 0 6 -4 10 -10 10 -5
0 -10 -4 -10 -10z"/>
<path d="M2830 9020 c0 -5 -16 -10 -35 -10 -19 0 -35 -4 -35 -10 0 -5 -8 -10
-19 -10 -10 0 -24 -7 -31 -15 -7 -8 -19 -15 -26 -15 -8 0 -14 -4 -14 -10 0 -5
-11 -10 -25 -10 -14 0 -25 -4 -25 -8 0 -5 -16 -16 -35 -25 -19 -9 -35 -21 -35
-27 0 -5 -9 -10 -20 -10 -11 0 -20 -4 -20 -10 0 -5 -5 -10 -11 -10 -6 0 -17
-6 -24 -12 -33 -30 -45 -38 -55 -38 -5 0 -10 -4 -10 -10 0 -5 -7 -10 -15 -10
-9 0 -21 -5 -28 -10 -25 -21 -88 -60 -97 -60 -6 0 -10 -4 -10 -10 0 -5 -8 -10
-17 -10 -10 0 -31 -11 -47 -25 -16 -14 -35 -25 -43 -25 -7 0 -13 -4 -13 -10 0
-5 -9 -10 -20 -10 -11 0 -20 -6 -20 -13 0 -7 -11 -24 -25 -39 -14 -15 -25 -34
-25 -43 0 -8 -4 -15 -10 -15 -6 0 -10 -37 -10 -90 0 -49 4 -90 8 -90 4 0 14
-16 21 -36 7 -19 19 -38 27 -41 8 -3 14 -14 14 -24 0 -10 5 -19 10 -19 6 0 10
-9 10 -20 0 -11 5 -20 10 -20 6 0 10 -7 10 -15 0 -8 4 -15 10 -15 5 0 12 -11
16 -25 3 -14 10 -25 15 -25 5 0 9 -9 9 -20 0 -11 4 -20 8 -20 21 0 36 -106 40
-286 l4 -191 -28 -6 c-139 -29 -144 -30 -144 -49 0 -23 43 -68 65 -68 8 0 15
-4 15 -10 0 -5 14 -10 30 -10 17 0 30 -4 30 -8 0 -7 104 -29 230 -48 106 -17
324 0 340 26 16 25 12 80 -5 80 -8 0 -15 5 -15 10 0 6 -9 10 -20 10 -16 0 -27
14 -17 22 1 1 139 5 307 8 l305 6 -348 1 c-191 0 -351 3 -355 7 -9 10 -16 220
-8 252 6 23 46 36 46 14 0 -5 11 -10 25 -10 14 0 25 5 25 10 0 6 18 10 41 10
44 0 69 17 69 49 0 12 5 21 10 21 6 0 10 20 10 45 0 25 5 45 10 45 6 0 10 16
10 35 0 23 8 42 25 59 30 30 32 57 5 76 -16 12 -20 26 -21 75 0 53 -5 87 -26
188 -3 15 -9 27 -14 27 -5 0 -9 9 -9 20 0 11 -4 20 -10 20 -5 0 -10 7 -10 15
0 8 -7 15 -16 15 -11 0 -14 5 -10 16 3 9 6 18 6 20 0 2 9 4 20 4 11 0 20 -4
20 -10 0 -6 33 -10 80 -10 47 0 80 4 80 10 0 6 6 10 13 10 21 0 57 48 57 75 0
14 5 25 10 25 6 0 10 9 10 20 0 17 -7 20 -45 20 -25 0 -45 3 -45 6 0 4 11 17
25 30 14 13 25 30 25 39 0 8 5 15 10 15 6 0 10 20 10 44 0 26 5 47 13 50 10 5
10 7 0 12 -7 3 -13 21 -13 40 0 19 -4 34 -10 34 -5 0 -10 5 -10 11 0 6 -6 17
-14 25 -8 8 -19 14 -25 14 -6 0 -11 5 -11 10 0 6 -33 10 -80 10 -47 0 -80 -4
-80 -10z m-160 -765 c0 -14 -4 -25 -10 -25 -5 0 -10 -16 -10 -35 0 -28 -4 -35
-20 -35 -11 0 -34 12 -50 27 -37 32 -40 63 -7 63 13 0 32 7 43 15 30 23 54 19
54 -10z"/>
<path d="M11310 8995 c0 -19 -4 -35 -10 -35 -5 0 -10 -4 -10 -10 0 -5 11 -10
25 -10 23 0 25 4 25 45 0 33 -4 45 -15 45 -10 0 -15 -11 -15 -35z"/>
<path d="M11290 8885 c0 -8 -4 -15 -10 -15 -5 0 -10 -16 -10 -35 0 -39 4 -42
26 -21 16 16 19 86 4 86 -5 0 -10 -7 -10 -15z"/>
<path d="M11257 8695 c-19 -41 -20 -45 -8 -64 16 -25 41 12 41 58 0 50 -11 52
-33 6z"/>
<path d="M5760 8590 c0 -5 -11 -12 -25 -16 -14 -3 -25 -10 -25 -15 0 -5 -9 -9
-20 -9 -11 0 -20 -4 -20 -10 0 -5 -7 -10 -15 -10 -8 0 -15 -3 -15 -8 0 -4 -16
-16 -35 -26 -19 -11 -35 -23 -35 -28 0 -4 -7 -8 -15 -8 -9 0 -35 -20 -59 -45
-25 -25 -47 -45 -50 -45 -8 0 -50 -37 -116 -102 -32 -32 -61 -58 -65 -58 -8 0
-35 -27 -35 -35 0 -8 -27 -35 -35 -35 -10 0 -55 -48 -55 -60 0 -5 -5 -10 -10
-10 -11 0 -31 -18 -140 -122 -33 -32 -64 -58 -70 -58 -5 0 -10 -5 -10 -11 0
-14 -30 -38 -48 -39 -7 0 -38 -25 -67 -55 -30 -30 -61 -55 -68 -55 -8 0 -31
-16 -51 -35 -21 -19 -42 -35 -47 -35 -5 0 -9 -4 -9 -10 0 -5 -7 -10 -15 -10
-8 0 -15 -7 -15 -15 0 -8 -4 -15 -8 -15 -5 0 -32 -22 -60 -48 l-52 -49 15 -49
c8 -27 15 -70 15 -96 0 -27 5 -48 10 -48 6 0 10 -8 10 -19 0 -27 25 -83 49
-108 12 -12 21 -26 21 -30 0 -5 12 -17 27 -28 14 -11 31 -25 37 -30 31 -30 85
-65 99 -65 10 0 17 -4 17 -10 0 -5 11 -10 24 -10 13 0 26 -6 28 -12 3 -9 34
-14 95 -16 l90 -4 57 54 c31 30 56 62 56 71 0 10 8 17 20 17 11 0 20 7 20 15
0 8 16 30 35 49 19 20 35 44 35 56 0 11 5 20 10 20 13 0 60 45 60 57 0 5 9 15
20 23 11 8 20 22 20 31 0 9 11 25 25 35 14 10 25 22 25 27 0 8 24 35 113 127
26 27 47 52 47 56 0 7 27 34 35 34 8 0 35 27 35 35 0 3 10 16 23 29 31 33 67
75 67 81 0 2 33 38 74 80 l75 75 85 0 c51 0 86 4 86 10 0 6 16 10 35 10 19 0
35 5 35 10 0 6 5 10 10 10 12 0 94 52 98 63 2 4 8 7 14 7 16 0 38 28 38 49 0
17 -6 21 -35 21 -19 0 -35 -4 -35 -10 0 -5 -4 -10 -10 -10 -5 0 -10 9 -10 20
0 11 4 20 10 20 5 0 20 11 34 25 14 14 30 25 36 25 5 0 10 7 10 15 0 8 5 15
10 15 6 0 10 14 10 30 0 28 -3 30 -35 30 -19 0 -35 -4 -35 -10 0 -5 -4 -10
-10 -10 -5 0 -10 4 -10 9 0 12 47 61 60 61 5 0 10 9 10 20 0 11 5 20 10 20 6
0 10 11 10 25 0 20 -5 25 -24 25 -26 0 -86 -30 -86 -42 0 -5 -11 -8 -25 -8
-14 0 -25 3 -25 6 0 4 11 17 25 30 14 13 25 30 25 39 0 8 5 15 10 15 16 0 11
17 -7 24 -17 7 -103 -24 -103 -36 0 -5 -13 -8 -30 -8 -16 0 -30 -3 -30 -8 0
-14 -144 -31 -184 -22 -49 11 -52 15 -27 41 11 12 23 31 27 41 3 10 10 18 15
18 5 0 9 16 9 35 0 35 0 35 -45 35 -25 0 -45 -4 -45 -10z"/>
<path d="M10420 8275 c0 -248 2 -275 16 -275 14 0 16 8 10 53 -3 28 -6 152 -6
275 0 141 -4 222 -10 222 -6 0 -10 -98 -10 -275z"/>
<path d="M11220 8505 c0 -45 14 -61 23 -27 18 65 18 72 -3 72 -17 0 -20 -7
-20 -45z"/>
<path d="M10680 8380 c0 -5 5 -10 10 -10 6 0 10 5 10 10 0 6 -4 10 -10 10 -5
0 -10 -4 -10 -10z"/>
<path d="M10630 8330 c0 -5 5 -10 10 -10 6 0 10 5 10 10 0 6 -4 10 -10 10 -5
0 -10 -4 -10 -10z"/>
<path d="M10610 8290 c0 -5 5 -10 10 -10 6 0 10 5 10 10 0 6 -4 10 -10 10 -5
0 -10 -4 -10 -10z"/>
<path d="M10560 8220 c0 -5 5 -10 10 -10 6 0 10 5 10 10 0 6 -4 10 -10 10 -5
0 -10 -4 -10 -10z"/>
<path d="M10490 8125 c0 -8 5 -15 10 -15 6 0 10 7 10 15 0 8 -4 15 -10 15 -5
0 -10 -7 -10 -15z"/>
<path d="M10470 8080 c0 -5 5 -10 10 -10 6 0 10 5 10 10 0 6 -4 10 -10 10 -5
0 -10 -4 -10 -10z"/>
<path d="M10400 7965 c0 -8 5 -15 10 -15 6 0 10 7 10 15 0 8 -4 15 -10 15 -5
0 -10 -7 -10 -15z"/>
<path d="M10380 7925 c0 -8 5 -15 10 -15 6 0 10 7 10 15 0 8 -4 15 -10 15 -5
0 -10 -7 -10 -15z"/>
<path d="M10330 7840 c0 -11 -4 -20 -10 -20 -5 0 -10 -11 -10 -25 0 -14 5 -25
10 -25 6 0 10 11 10 25 0 14 5 25 10 25 6 0 10 9 10 20 0 11 -4 20 -10 20 -5
0 -10 -9 -10 -20z"/>
<path d="M12250 7810 c0 -5 5 -10 10 -10 6 0 10 5 10 10 0 6 -4 10 -10 10 -5
0 -10 -4 -10 -10z"/>
<path d="M12180 7780 c0 -5 5 -10 10 -10 6 0 10 5 10 10 0 6 -4 10 -10 10 -5
0 -10 -4 -10 -10z"/>
<path d="M12212 7725 c0 -16 2 -22 5 -12 2 9 2 23 0 30 -3 6 -5 -1 -5 -18z"/>
<path d="M12370 7740 c0 -5 9 -10 19 -10 11 0 21 -5 23 -11 2 -6 13 -9 23 -6
19 5 19 5 -2 12 -13 4 -23 11 -23 16 0 5 -9 9 -20 9 -11 0 -20 -4 -20 -10z"/>
<path d="M10260 7690 c0 -5 5 -10 10 -10 6 0 10 5 10 10 0 6 -4 10 -10 10 -5
0 -10 -4 -10 -10z"/>
<path d="M12523 7693 c26 -2 68 -2 95 0 26 2 4 3 -48 3 -52 0 -74 -1 -47 -3z"/>
<path d="M12230 7675 c0 -8 5 -15 10 -15 6 0 10 7 10 15 0 8 -4 15 -10 15 -5
0 -10 -7 -10 -15z"/>
<path d="M10240 7640 c0 -11 5 -20 10 -20 6 0 10 9 10 20 0 11 -4 20 -10 20
-5 0 -10 -9 -10 -20z"/>
<path d="M12250 7615 c0 -8 5 -15 10 -15 6 0 10 7 10 15 0 8 -4 15 -10 15 -5
0 -10 -7 -10 -15z"/>
<path d="M10220 7590 c0 -11 5 -20 10 -20 6 0 10 9 10 20 0 11 -4 20 -10 20
-5 0 -10 -9 -10 -20z"/>
<path d="M1920 7510 c0 -5 14 -10 30 -10 17 0 30 5 30 10 0 6 -13 10 -30 10
-16 0 -30 -4 -30 -10z"/>
<path d="M12294 7504 c3 -9 6 -21 6 -27 0 -8 3 -8 10 -1 12 12 3 44 -12 44 -6
0 -7 -7 -4 -16z"/>
<path d="M10170 7485 c0 -8 5 -15 10 -15 6 0 10 7 10 15 0 8 -4 15 -10 15 -5
0 -10 -7 -10 -15z"/>
<path d="M10150 7440 c0 -5 5 -10 10 -10 6 0 10 5 10 10 0 6 -4 10 -10 10 -5
0 -10 -4 -10 -10z"/>
<path d="M12320 7430 c0 -11 5 -20 10 -20 6 0 10 -11 10 -25 0 -14 5 -25 10
-25 6 0 10 11 10 25 0 14 -4 25 -10 25 -5 0 -10 9 -10 20 0 11 -4 20 -10 20
-5 0 -10 -9 -10 -20z"/>
<path d="M10130 7366 c0 -31 6 -34 13 -6 3 11 1 23 -4 26 -5 3 -9 -6 -9 -20z"/>
<path d="M10112 7315 c0 -16 2 -22 5 -12 2 9 2 23 0 30 -3 6 -5 -1 -5 -18z"/>
<path d="M12361 7333 c0 -5 4 -17 9 -28 8 -18 9 -17 9 8 1 15 -3 27 -9 27 -5
0 -10 -3 -9 -7z"/>
<path d="M12390 7250 c0 -11 5 -20 10 -20 6 0 10 9 10 20 0 11 -4 20 -10 20
-5 0 -10 -9 -10 -20z"/>
<path d="M1460 7210 c0 -5 5 -10 10 -10 6 0 10 5 10 10 0 6 -4 10 -10 10 -5 0
-10 -4 -10 -10z"/>
<path d="M12410 7190 c0 -16 5 -30 10 -30 6 0 10 14 10 30 0 17 -4 30 -10 30
-5 0 -10 -13 -10 -30z"/>
<path d="M10740 7190 c0 -5 5 -10 10 -10 6 0 10 5 10 10 0 6 -4 10 -10 10 -5
0 -10 -4 -10 -10z"/>
<path d="M10693 7143 c-4 -9 1 -21 10 -28 10 -7 17 -25 17 -41 0 -18 8 -35 20
-44 11 -8 20 -24 20 -37 0 -12 5 -25 10 -28 6 -3 10 -15 10 -26 0 -10 7 -19
15 -19 8 0 15 -9 15 -20 0 -11 5 -20 10 -20 6 0 10 -13 10 -29 0 -17 5 -33 10
-36 6 -3 10 -15 10 -26 0 -10 4 -19 10 -19 5 0 12 -11 16 -25 3 -14 10 -25 15
-25 5 0 9 -13 9 -30 0 -16 5 -30 10 -30 6 0 10 -7 10 -15 0 -8 5 -15 10 -15 6
0 10 -11 10 -25 0 -14 7 -28 15 -31 8 -4 15 -18 15 -33 0 -15 9 -33 20 -41 12
-9 20 -26 20 -43 0 -16 6 -35 13 -42 31 -36 37 -46 37 -65 0 -11 5 -20 10 -20
6 0 10 -11 10 -25 0 -14 4 -25 9 -25 5 0 12 -15 15 -34 7 -36 30 -52 60 -40
17 6 23 34 7 34 -5 0 -12 11 -15 25 -4 14 -11 25 -16 25 -6 0 -10 11 -10 25 0
14 -4 25 -10 25 -5 0 -10 9 -10 20 0 11 -4 20 -10 20 -5 0 -10 9 -10 21 0 11
-7 27 -15 35 -8 9 -15 24 -15 35 0 10 -4 19 -10 19 -5 0 -10 11 -10 25 0 14
-4 25 -10 25 -5 0 -10 6 -10 14 0 18 -32 76 -42 76 -5 0 -8 16 -8 35 0 19 -4
35 -10 35 -5 0 -10 6 -10 12 0 16 -53 122 -62 126 -5 2 -8 17 -8 33 0 16 -4
29 -10 29 -5 0 -10 10 -10 21 0 12 -11 32 -25 45 -14 13 -25 34 -25 49 0 14
-4 25 -10 25 -5 0 -10 11 -10 25 0 14 -5 25 -11 25 -8 0 -10 12 -6 33 5 32 4
33 -34 34 -28 2 -42 -3 -46 -14z"/>
<path d="M12430 7130 c0 -11 5 -20 10 -20 6 0 10 9 10 20 0 11 -4 20 -10 20
-5 0 -10 -9 -10 -20z"/>
<path d="M10042 7110 c0 -14 2 -19 5 -12 2 6 2 18 0 25 -3 6 -5 1 -5 -13z"/>
<path d="M1390 7100 c0 -5 5 -10 10 -10 6 0 10 5 10 10 0 6 -4 10 -10 10 -5 0
-10 -4 -10 -10z"/>
<path d="M12462 7060 c0 -14 2 -19 5 -12 2 6 2 18 0 25 -3 6 -5 1 -5 -13z"/>
<path d="M10010 7045 c0 -14 5 -25 10 -25 6 0 10 11 10 25 0 14 -4 25 -10 25
-5 0 -10 -11 -10 -25z"/>
<path d="M1370 7050 c0 -5 5 -10 10 -10 6 0 10 5 10 10 0 6 -4 10 -10 10 -5 0
-10 -4 -10 -10z"/>
<path d="M12480 6995 c0 -14 5 -25 10 -25 6 0 10 11 10 25 0 14 -4 25 -10 25
-5 0 -10 -11 -10 -25z"/>
<path d="M1351 6984 c0 -11 3 -14 6 -6 3 7 2 16 -1 19 -3 4 -6 -2 -5 -13z"/>
<path d="M9990 6970 c0 -11 5 -20 10 -20 6 0 10 9 10 20 0 11 -4 20 -10 20 -5
0 -10 -9 -10 -20z"/>
<path d="M1332 6910 c0 -14 2 -19 5 -12 2 6 2 18 0 25 -3 6 -5 1 -5 -13z"/>
<path d="M12500 6916 c0 -8 5 -18 10 -21 6 -3 10 3 10 14 0 12 -4 21 -10 21
-5 0 -10 -6 -10 -14z"/>
<path d="M9970 6889 c0 -23 27 -55 38 -44 4 4 1 10 -5 12 -7 3 -13 16 -13 29
0 13 -4 24 -10 24 -5 0 -10 -9 -10 -21z"/>
<path d="M4910 6870 c0 -5 5 -10 10 -10 6 0 10 5 10 10 0 6 -4 10 -10 10 -5 0
-10 -4 -10 -10z"/>
<path d="M12521 6863 c0 -10 4 -27 9 -38 7 -16 9 -13 9 18 1 20 -3 37 -9 37
-5 0 -10 -8 -9 -17z"/>
<path d="M9951 6824 c0 -11 3 -14 6 -6 3 7 2 16 -1 19 -3 4 -6 -2 -5 -13z"/>
<path d="M12550 6760 c0 -16 5 -30 10 -30 6 0 10 14 10 30 0 17 -4 30 -10 30
-5 0 -10 -13 -10 -30z"/>
<path d="M4168 6733 c12 -2 32 -2 45 0 12 2 2 4 -23 4 -25 0 -35 -2 -22 -4z"/>
<path d="M12570 6680 c0 -22 5 -40 10 -40 6 0 10 18 10 40 0 22 -4 40 -10 40
-5 0 -10 -18 -10 -40z"/>
<path d="M9900 6640 c0 -16 5 -30 10 -30 6 0 10 14 10 30 0 17 -4 30 -10 30
-5 0 -10 -13 -10 -30z"/>
<path d="M12591 6613 c0 -10 4 -27 9 -38 7 -16 9 -13 9 18 1 20 -3 37 -9 37
-5 0 -10 -8 -9 -17z"/>
<path d="M9878 6535 c-3 -27 -11 -51 -17 -53 -11 -4 -16 -32 -5 -32 21 0 35
34 32 82 l-3 53 -7 -50z"/>
<path d="M12620 6518 c0 -16 5 -28 10 -28 13 0 13 20 0 40 -8 12 -10 9 -10
-12z"/>
<path d="M3650 6500 c0 -5 20 -10 45 -10 25 0 45 5 45 10 0 6 -20 10 -45 10
-25 0 -45 -4 -45 -10z"/>
<path d="M3290 6480 c0 -5 9 -10 20 -10 11 0 20 5 20 10 0 6 -9 10 -20 10 -11
0 -20 -4 -20 -10z"/>
<path d="M3790 6480 c0 -5 7 -10 15 -10 8 0 15 5 15 10 0 6 -7 10 -15 10 -8 0
-15 -4 -15 -10z"/>
<path d="M1261 6454 c0 -11 3 -14 6 -6 3 7 2 16 -1 19 -3 4 -6 -2 -5 -13z"/>
<path d="M3880 6430 c0 -5 9 -10 20 -10 11 0 20 5 20 10 0 6 -9 10 -20 10 -11
0 -20 -4 -20 -10z"/>
<path d="M3930 6410 c0 -5 5 -10 10 -10 6 0 10 5 10 10 0 6 -4 10 -10 10 -5 0
-10 -4 -10 -10z"/>
<path d="M1230 6355 c0 -25 5 -45 10 -45 6 0 10 20 10 45 0 25 -4 45 -10 45
-5 0 -10 -20 -10 -45z"/>
<path d="M3970 6390 c0 -5 5 -10 10 -10 6 0 10 5 10 10 0 6 -4 10 -10 10 -5 0
-10 -4 -10 -10z"/>
<path d="M9830 6370 c0 -5 5 -10 10 -10 6 0 10 5 10 10 0 6 -4 10 -10 10 -5 0
-10 -4 -10 -10z"/>
<path d="M12660 6345 c0 -19 5 -35 10 -35 6 0 10 16 10 35 0 19 -4 35 -10 35
-5 0 -10 -16 -10 -35z"/>
<path d="M3060 6341 c0 -6 9 -9 20 -8 11 1 20 5 20 9 0 4 -9 8 -20 8 -11 0
-20 -4 -20 -9z"/>
<path d="M4060 6320 c0 -5 5 -10 10 -10 6 0 10 5 10 10 0 6 -4 10 -10 10 -5 0
-10 -4 -10 -10z"/>
<path d="M4090 6300 c0 -5 5 -10 10 -10 6 0 10 5 10 10 0 6 -4 10 -10 10 -5 0
-10 -4 -10 -10z"/>
<path d="M4910 6300 c0 -6 30 -10 70 -10 40 0 70 4 70 10 0 6 -30 10 -70 10
-40 0 -70 -4 -70 -10z"/>
<path d="M4110 6270 c0 -5 5 -10 10 -10 6 0 10 5 10 10 0 6 -4 10 -10 10 -5 0
-10 -4 -10 -10z"/>
<path d="M4785 6271 c11 -5 38 -5 60 -1 38 7 36 8 -20 8 -40 1 -53 -2 -40 -7z"/>
<path d="M12692 6245 c0 -16 2 -22 5 -12 2 9 2 23 0 30 -3 6 -5 -1 -5 -18z"/>
<path d="M4710 6250 c0 -5 -7 -10 -15 -10 -8 0 -15 -4 -15 -10 0 -5 -9 -10
-20 -10 -11 0 -20 -4 -20 -8 0 -5 -16 -17 -35 -28 -19 -10 -35 -22 -35 -26 0
-5 -7 -8 -15 -8 -8 0 -15 -4 -15 -8 0 -5 -15 -16 -32 -25 -47 -24 -71 -40 -88
-58 -8 -9 -36 -24 -62 -34 -53 -20 -53 -20 -35 -40 29 -33 37 -45 37 -55 0 -5
4 -10 8 -10 4 0 16 -15 27 -32 10 -18 27 -40 37 -49 10 -9 18 -21 18 -28 0 -6
5 -11 10 -11 6 0 10 -6 10 -14 0 -7 11 -25 25 -40 14 -15 25 -31 25 -37 0 -5
5 -9 10 -9 6 0 10 -5 10 -11 0 -7 11 -22 25 -35 14 -13 25 -29 25 -36 0 -8 9
-20 20 -28 11 -8 20 -19 20 -25 0 -6 11 -22 25 -37 14 -15 25 -30 25 -32 0 -6
32 -45 58 -72 6 -7 12 -20 12 -28 0 -9 5 -16 10 -16 6 0 10 -7 10 -15 0 -8 7
-15 15 -15 8 0 15 -3 15 -7 0 -13 47 -63 59 -63 6 0 11 16 11 35 0 24 -5 35
-15 35 -8 0 -15 6 -15 13 0 7 -9 19 -20 27 -11 8 -20 22 -20 32 0 10 -4 18
-10 18 -5 0 -10 7 -10 15 0 8 -7 15 -15 15 -8 0 -15 9 -15 20 0 11 -4 20 -10
20 -5 0 -10 7 -10 15 0 8 -4 15 -9 15 -5 0 -14 14 -21 30 -7 17 -19 30 -26 30
-8 0 -14 5 -14 10 0 11 -10 25 -47 65 -13 13 -23 29 -23 35 0 5 -4 10 -10 10
-5 0 -10 9 -10 20 0 11 -4 20 -8 20 -5 0 -15 11 -22 25 -7 14 -19 25 -27 25
-7 0 -13 9 -13 20 0 11 -4 20 -10 20 -5 0 -10 5 -10 11 0 6 -6 17 -12 24 -28
31 -38 44 -38 51 0 4 -9 15 -21 25 -19 16 -20 20 -6 34 9 8 22 15 30 15 8 0
28 16 44 35 17 19 38 35 47 35 9 0 16 5 16 10 0 6 5 10 11 10 14 0 39 25 39
39 0 6 9 11 20 11 11 0 20 5 20 10 0 6 5 10 11 10 7 0 22 11 35 25 13 14 28
25 34 25 5 0 10 5 10 10 0 6 7 10 15 10 8 0 15 5 15 10 0 6 -9 10 -20 10 -11
0 -20 -4 -20 -10z"/>
<path d="M5160 6250 c0 -5 5 -10 10 -10 6 0 10 5 10 10 0 6 -4 10 -10 10 -5 0
-10 -4 -10 -10z"/>
<path d="M1210 6195 c0 -25 5 -45 10 -45 6 0 10 20 10 45 0 25 -4 45 -10 45
-5 0 -10 -20 -10 -45z"/>
<path d="M2900 6230 c0 -5 -7 -10 -15 -10 -8 0 -15 -4 -15 -10 0 -15 19 -12
36 4 16 17 18 26 4 26 -5 0 -10 -4 -10 -10z"/>
<path d="M5190 6234 c0 -10 31 -36 37 -31 3 3 -2 13 -10 22 -16 15 -27 19 -27
9z"/>
<path d="M4180 6170 c0 -11 5 -20 10 -20 6 0 10 9 10 20 0 11 -4 20 -10 20 -5
0 -10 -9 -10 -20z"/>
<path d="M9792 6160 c0 -19 2 -27 5 -17 2 9 2 25 0 35 -3 9 -5 1 -5 -18z"/>
<path d="M12710 6130 c0 -27 5 -50 10 -50 6 0 10 23 10 50 0 28 -4 50 -10 50
-5 0 -10 -22 -10 -50z"/>
<path d="M11130 6160 c0 -5 5 -10 10 -10 6 0 10 5 10 10 0 6 -4 10 -10 10 -5
0 -10 -4 -10 -10z"/>
<path d="M5300 6140 c0 -5 5 -10 10 -10 6 0 10 5 10 10 0 6 -4 10 -10 10 -5 0
-10 -4 -10 -10z"/>
<path d="M1193 6035 c0 -27 2 -38 4 -22 2 15 2 37 0 50 -2 12 -4 0 -4 -28z"/>
<path d="M5340 6070 c0 -5 5 -10 10 -10 6 0 10 5 10 10 0 6 -4 10 -10 10 -5 0
-10 -4 -10 -10z"/>
<path d="M12730 6025 c0 -19 5 -35 10 -35 6 0 10 16 10 35 0 19 -4 35 -10 35
-5 0 -10 -16 -10 -35z"/>
<path d="M9760 6015 c0 -14 5 -25 10 -25 6 0 10 11 10 25 0 14 -4 25 -10 25
-5 0 -10 -11 -10 -25z"/>
<path d="M5370 6020 c0 -5 5 -10 10 -10 6 0 10 5 10 10 0 6 -4 10 -10 10 -5 0
-10 -4 -10 -10z"/>
<path d="M11150 6016 c0 -8 5 -18 10 -21 6 -3 10 3 10 14 0 12 -4 21 -10 21
-5 0 -10 -6 -10 -14z"/>
<path d="M4270 5980 c0 -5 5 -10 10 -10 6 0 10 5 10 10 0 6 -4 10 -10 10 -5 0
-10 -4 -10 -10z"/>
<path d="M5390 5971 c0 -11 5 -23 10 -26 6 -4 10 5 10 19 0 14 -4 26 -10 26
-5 0 -10 -9 -10 -19z"/>
<path d="M11130 5970 c0 -11 5 -20 10 -20 6 0 10 9 10 20 0 11 -4 20 -10 20
-5 0 -10 -9 -10 -20z"/>
<path d="M11250 5980 c0 -5 5 -10 10 -10 6 0 10 5 10 10 0 6 -4 10 -10 10 -5
0 -10 -4 -10 -10z"/>
<path d="M9740 5923 c0 -35 3 -44 10 -33 13 20 13 67 0 75 -6 4 -10 -12 -10
-42z"/>
<path d="M12756 5923 c4 -27 10 -52 15 -57 4 -5 5 -15 2 -22 -3 -8 -2 -26 2
-42 l7 -27 9 24 c7 16 5 33 -6 54 -8 16 -15 50 -15 74 0 23 -4 43 -10 43 -6 0
-7 -19 -4 -47z"/>
<path d="M11110 5920 c0 -11 5 -20 10 -20 6 0 10 9 10 20 0 11 -4 20 -10 20
-5 0 -10 -9 -10 -20z"/>
<path d="M1173 5885 c0 -22 2 -30 4 -17 2 12 2 30 0 40 -3 9 -5 -1 -4 -23z"/>
<path d="M5414 5875 c-3 -14 -2 -46 4 -72 l10 -48 1 73 c1 74 -4 91 -15 47z"/>
<path d="M11060 5830 c0 -11 5 -20 10 -20 6 0 10 9 10 20 0 11 -4 20 -10 20
-5 0 -10 -9 -10 -20z"/>
<path d="M9722 5775 c-1 -49 1 -56 10 -38 7 15 7 33 0 60 -10 38 -10 37 -10
-22z"/>
<path d="M1140 5760 c0 -22 5 -40 10 -40 6 0 10 18 10 40 0 22 -4 40 -10 40
-5 0 -10 -18 -10 -40z"/>
<path d="M11040 5785 c0 -8 5 -15 10 -15 6 0 10 7 10 15 0 8 -4 15 -10 15 -5
0 -10 -7 -10 -15z"/>
<path d="M5396 5744 c-9 -24 -7 -54 4 -54 6 0 10 16 10 35 0 38 -4 44 -14 19z"/>
<path d="M11022 5740 c0 -14 2 -19 5 -12 2 6 2 18 0 25 -3 6 -5 1 -5 -13z"/>
<path d="M11360 5740 c0 -11 5 -20 10 -20 6 0 10 9 10 20 0 11 -4 20 -10 20
-5 0 -10 -9 -10 -20z"/>
<path d="M12800 5715 c0 -25 5 -45 10 -45 6 0 10 20 10 45 0 25 -4 45 -10 45
-5 0 -10 -20 -10 -45z"/>
<path d="M10995 5693 c-4 -13 -11 -23 -16 -23 -5 0 -9 -9 -9 -20 0 -11 5 -20
10 -20 6 0 10 9 10 19 0 11 5 21 11 23 6 2 9 13 6 23 -5 19 -5 19 -12 -2z"/>
<path d="M2170 5680 c0 -5 11 -10 25 -10 14 0 25 5 25 10 0 6 -11 10 -25 10
-14 0 -25 -4 -25 -10z"/>
<path d="M9690 5625 c0 -37 4 -65 10 -65 6 0 10 28 10 65 0 37 -4 65 -10 65
-6 0 -10 -28 -10 -65z"/>
<path d="M5370 5655 c0 -8 5 -15 10 -15 6 0 10 7 10 15 0 8 -4 15 -10 15 -5 0
-10 -7 -10 -15z"/>
<path d="M1120 5604 c0 -27 4 -43 10 -39 6 3 10 24 10 46 0 21 -4 39 -10 39
-5 0 -10 -21 -10 -46z"/>
<path d="M4680 5640 c0 -5 7 -10 16 -10 8 0 12 5 9 10 -3 6 -10 10 -16 10 -5
0 -9 -4 -9 -10z"/>
<path d="M12827 5623 c-11 -10 -8 -93 3 -93 6 0 10 23 10 50 0 51 -1 55 -13
43z"/>
<path d="M4710 5610 c0 -5 5 -10 10 -10 6 0 10 5 10 10 0 6 -4 10 -10 10 -5 0
-10 -4 -10 -10z"/>
<path d="M10950 5595 c0 -8 5 -15 10 -15 6 0 10 7 10 15 0 8 -4 15 -10 15 -5
0 -10 -7 -10 -15z"/>
<path d="M10925 5551 c-3 -5 -1 -12 5 -16 5 -3 10 1 10 9 0 18 -6 21 -15 7z"/>
<path d="M11450 5535 c0 -14 5 -25 10 -25 6 0 10 11 10 25 0 14 -4 25 -10 25
-5 0 -10 -11 -10 -25z"/>
<path d="M5266 5519 c-10 -12 -14 -24 -10 -27 4 -4 9 -1 11 6 3 6 11 12 19 12
15 0 19 16 6 24 -5 3 -16 -4 -26 -15z"/>
<path d="M9670 5464 c0 -41 4 -63 10 -59 6 3 10 33 10 66 0 33 -4 59 -10 59
-6 0 -10 -29 -10 -66z"/>
<path d="M10900 5501 c0 -6 5 -13 10 -16 6 -3 10 1 10 9 0 9 -4 16 -10 16 -5
0 -10 -4 -10 -9z"/>
<path d="M11482 5490 c0 -14 2 -19 5 -12 2 6 2 18 0 25 -3 6 -5 1 -5 -13z"/>
<path d="M12846 5468 c-5 -16 -5 -40 0 -55 l8 -28 4 28 c2 15 2 39 0 55 l-4
27 -8 -27z"/>
<path d="M1102 5445 c0 -16 2 -22 5 -12 2 9 2 23 0 30 -3 6 -5 -1 -5 -18z"/>
<path d="M3495 5435 c-17 -19 -34 -35 -38 -35 -8 0 -24 -12 -62 -47 -13 -13
-27 -23 -30 -23 -3 0 -17 -10 -30 -22 -38 -36 -54 -48 -62 -48 -5 0 -15 -9
-23 -20 -8 -11 -20 -20 -28 -20 -7 0 -15 -7 -18 -15 -4 -8 -11 -15 -18 -15 -6
0 -18 -9 -26 -20 -8 -11 -19 -20 -25 -20 -6 0 -28 -16 -48 -35 -20 -19 -42
-35 -47 -35 -6 0 -10 -5 -10 -11 0 -7 -12 -9 -32 -6 -18 3 -27 3 -20 0 6 -2
12 -9 12 -15 0 -10 -25 -38 -35 -38 -3 0 -17 -10 -30 -22 -38 -36 -54 -48 -62
-48 -5 0 -15 -9 -23 -20 -8 -11 -20 -20 -27 -20 -8 0 -19 -11 -25 -25 -6 -14
-19 -25 -30 -25 -10 0 -18 -4 -18 -10 0 -5 -5 -10 -10 -10 -11 0 -25 -10 -65
-47 -13 -13 -27 -23 -30 -23 -10 0 -35 -28 -35 -39 0 -6 -9 -11 -20 -11 -11 0
-20 -4 -20 -10 0 -5 -5 -10 -11 -10 -14 0 -39 -25 -39 -39 0 -6 -7 -11 -15
-11 -8 0 -15 -4 -15 -10 0 -5 -7 -10 -16 -10 -9 0 -31 -16 -50 -35 -18 -19
-38 -35 -44 -35 -15 0 -50 -33 -50 -47 0 -7 -9 -13 -20 -13 -11 0 -20 -7 -20
-15 0 -9 -9 -15 -25 -15 -14 0 -25 -4 -25 -10 0 -5 -9 -10 -20 -10 -11 0 -20
-4 -20 -9 0 -5 -31 -12 -70 -16 -134 -13 -70 -25 139 -25 l209 0 6 43 c4 23 9
63 12 90 3 26 10 47 15 47 5 0 9 6 9 14 0 13 25 21 103 33 20 3 37 9 37 14 0
5 20 9 45 9 25 0 45 5 45 10 0 6 10 10 23 10 12 0 28 4 36 9 12 8 12 12 -2 26
-23 22 -21 32 6 46 12 7 32 23 44 36 12 12 27 23 33 23 7 0 27 16 46 35 18 19
39 35 45 35 6 0 30 20 55 45 24 25 50 45 59 45 8 0 15 5 15 10 0 6 7 10 15 10
8 0 15 5 15 11 0 16 26 39 44 39 9 0 16 5 16 10 0 6 6 10 13 10 7 0 20 11 30
24 12 16 25 22 38 19 11 -3 19 0 19 6 0 16 96 111 112 111 18 1 48 25 48 39 0
6 9 11 20 11 11 0 20 5 20 10 0 6 5 10 11 10 11 0 39 25 39 35 0 12 29 35 44
35 18 0 34 42 17 48 -6 2 -11 10 -11 18 0 17 -36 54 -53 54 -7 0 -26 -16 -42
-35z"/>
<path d="M10880 5450 c0 -5 5 -10 10 -10 6 0 10 5 10 10 0 6 -4 10 -10 10 -5
0 -10 -4 -10 -10z"/>
<path d="M11500 5440 c0 -11 5 -20 10 -20 6 0 10 9 10 20 0 11 -4 20 -10 20
-5 0 -10 -9 -10 -20z"/>
<path d="M5160 5430 c0 -5 5 -10 10 -10 6 0 10 5 10 10 0 6 -4 10 -10 10 -5 0
-10 -4 -10 -10z"/>
<path d="M10861 5394 c0 -11 3 -14 6 -6 3 7 2 16 -1 19 -3 4 -6 -2 -5 -13z"/>
<path d="M11566 5391 c-4 -5 -2 -12 3 -15 5 -4 12 -2 15 3 4 5 2 12 -3 15 -5
4 -12 2 -15 -3z"/>
<path d="M9651 5298 c1 -64 4 -84 9 -63 11 45 11 143 0 150 -6 4 -10 -27 -9
-87z"/>
<path d="M5061 5354 c-18 -21 -6 -30 14 -11 8 9 15 18 15 21 0 11 -15 5 -29
-10z"/>
<path d="M10830 5350 c0 -11 5 -20 10 -20 6 0 10 9 10 20 0 11 -4 20 -10 20
-5 0 -10 -9 -10 -20z"/>
<path d="M12869 5333 c-3 -53 4 -118 12 -121 5 -2 9 -35 9 -73 0 -39 4 -69 10
-69 6 0 10 30 10 70 0 40 -4 70 -10 70 -6 0 -10 30 -10 70 0 40 -4 70 -10 70
-5 0 -10 -8 -11 -17z"/>
<path d="M1070 5285 l0 -45 211 0 c143 0 208 3 204 10 -4 7 -75 10 -198 9
l-192 -1 -3 36 c-5 52 -22 44 -22 -9z"/>
<path d="M3590 5314 c0 -8 5 -12 10 -9 6 4 8 11 5 16 -9 14 -15 11 -15 -7z"/>
<path d="M10810 5295 c0 -8 5 -15 10 -15 6 0 10 7 10 15 0 8 -4 15 -10 15 -5
0 -10 -7 -10 -15z"/>
<path d="M3677 5293 c-17 -17 -9 -36 41 -88 12 -13 22 -27 22 -30 0 -6 7 -15
47 -61 16 -17 37 -43 48 -57 11 -15 25 -27 32 -27 7 0 13 -7 13 -15 0 -8 5
-15 10 -15 6 0 10 -7 10 -16 0 -9 11 -27 25 -40 14 -13 25 -25 25 -28 0 -3 12
-19 28 -35 55 -59 82 -91 99 -118 10 -16 25 -35 35 -44 10 -9 18 -21 18 -28 0
-6 6 -11 14 -11 8 0 16 -6 18 -14 3 -13 6 -12 23 1 14 11 16 17 8 20 -7 3 -13
13 -13 24 0 11 -10 31 -22 44 -13 14 -33 36 -45 50 -13 13 -23 27 -23 30 0 10
-28 35 -39 35 -6 0 -11 5 -11 10 0 6 -9 20 -20 32 -11 12 -20 28 -20 35 0 7
-4 13 -10 13 -5 0 -10 7 -10 15 0 8 -5 15 -11 15 -14 0 -39 26 -39 40 0 7 -20
32 -45 56 -25 23 -45 47 -45 51 0 5 -16 26 -35 46 -19 20 -35 40 -35 43 0 9
-69 74 -79 74 -4 0 -11 -3 -14 -7z"/>
<path d="M11570 5283 c0 -13 5 -23 10 -23 13 0 13 11 0 30 -8 12 -10 11 -10
-7z"/>
<path d="M4960 5270 c0 -5 5 -10 10 -10 6 0 10 5 10 10 0 6 -4 10 -10 10 -5 0
-10 -4 -10 -10z"/>
<path d="M4930 5250 c0 -5 5 -10 10 -10 6 0 10 5 10 10 0 6 -4 10 -10 10 -5 0
-10 -4 -10 -10z"/>
<path d="M10787 5240 c-3 -13 0 -20 9 -20 8 0 14 9 14 20 0 11 -4 20 -9 20 -5
0 -11 -9 -14 -20z"/>
<path d="M11590 5205 c0 -8 5 -15 10 -15 6 0 10 7 10 15 0 8 -4 15 -10 15 -5
0 -10 -7 -10 -15z"/>
<path d="M10767 5196 c-4 -10 -5 -21 -2 -24 9 -9 17 6 13 25 -3 17 -4 17 -11
-1z"/>
<path d="M4910 5180 c0 -5 5 -10 10 -10 6 0 10 5 10 10 0 6 -4 10 -10 10 -5 0
-10 -4 -10 -10z"/>
<path d="M11610 5146 c0 -16 6 -26 15 -26 8 0 15 -9 15 -20 0 -11 5 -20 10
-20 6 0 10 -11 10 -25 0 -14 5 -25 10 -25 6 0 10 11 10 25 0 14 -4 25 -10 25
-5 0 -10 9 -10 19 0 10 -7 22 -15 25 -9 3 -15 13 -13 22 2 9 -3 19 -9 21 -8 3
-13 -5 -13 -21z"/>
<path d="M1486 5145 c-9 -23 -8 -25 9 -25 17 0 19 9 6 28 -7 11 -10 10 -15 -3z"/>
<path d="M4930 5150 c0 -5 5 -10 10 -10 6 0 10 5 10 10 0 6 -4 10 -10 10 -5 0
-10 -4 -10 -10z"/>
<path d="M9625 5083 c-4 -46 -2 -88 4 -103 7 -19 10 -2 10 78 1 56 -1 102 -3
102 -2 0 -7 -35 -11 -77z"/>
<path d="M10740 5135 c0 -8 5 -15 10 -15 6 0 10 7 10 15 0 8 -4 15 -10 15 -5
0 -10 -7 -10 -15z"/>
<path d="M1460 5065 c0 -19 5 -35 10 -35 6 0 10 16 10 35 0 19 -4 35 -10 35
-5 0 -10 -16 -10 -35z"/>
<path d="M10720 5080 c0 -11 5 -20 10 -20 6 0 10 9 10 20 0 11 -4 20 -10 20
-5 0 -10 -9 -10 -20z"/>
<path d="M3310 5040 c0 -5 5 -10 10 -10 6 0 10 5 10 10 0 6 -4 10 -10 10 -5 0
-10 -4 -10 -10z"/>
<path d="M10702 5030 c0 -14 2 -19 5 -12 2 6 2 18 0 25 -3 6 -5 1 -5 -13z"/>
<path d="M12910 4953 c0 -43 5 -85 10 -93 7 -10 10 14 10 78 0 55 -4 92 -10
92 -6 0 -10 -32 -10 -77z"/>
<path d="M1440 4920 c0 -53 4 -90 10 -90 6 0 10 37 10 90 0 53 -4 90 -10 90
-6 0 -10 -37 -10 -90z"/>
<path d="M5030 5003 c0 -6 27 -33 34 -33 16 0 3 28 -14 33 -11 3 -20 3 -20 0z"/>
<path d="M11680 4985 c0 -14 5 -25 10 -25 6 0 10 11 10 25 0 14 -4 25 -10 25
-5 0 -10 -11 -10 -25z"/>
<path d="M5005 4970 c3 -5 8 -10 11 -10 2 0 4 5 4 10 0 6 -5 10 -11 10 -5 0
-7 -4 -4 -10z"/>
<path d="M5070 4955 c0 -3 9 -15 20 -27 11 -13 20 -16 20 -9 0 7 -6 19 -14 27
-15 14 -26 18 -26 9z"/>
<path d="M9600 4860 c0 -60 4 -100 10 -100 6 0 10 40 10 100 0 60 -4 100 -10
100 -6 0 -10 -40 -10 -100z"/>
<path d="M11710 4940 c0 -11 4 -20 9 -20 5 0 7 9 4 20 -3 11 -7 20 -9 20 -2 0
-4 -9 -4 -20z"/>
<path d="M10650 4915 c0 -14 5 -25 10 -25 6 0 10 11 10 25 0 14 -4 25 -10 25
-5 0 -10 -11 -10 -25z"/>
<path d="M11730 4876 c0 -14 5 -26 10 -26 6 0 10 9 10 19 0 11 -4 23 -10 26
-6 4 -10 -5 -10 -19z"/>
<path d="M5131 4854 c-18 -21 -6 -30 14 -11 8 9 15 18 15 21 0 11 -15 5 -29
-10z"/>
<path d="M10630 4840 c0 -5 5 -10 10 -10 6 0 10 5 10 10 0 6 -4 10 -10 10 -5
0 -10 -4 -10 -10z"/>
<path d="M11750 4820 c0 -11 5 -20 10 -20 6 0 10 9 10 20 0 11 -4 20 -10 20
-5 0 -10 -9 -10 -20z"/>
<path d="M12944 4755 c0 -49 1 -71 3 -48 2 23 2 64 0 90 -2 26 -3 8 -3 -42z"/>
<path d="M5095 4810 c3 -5 8 -10 11 -10 2 0 4 5 4 10 0 6 -5 10 -11 10 -5 0
-7 -4 -4 -10z"/>
<path d="M10604 4806 c-3 -8 -1 -23 5 -33 9 -15 10 -13 11 15 0 34 -7 42 -16
18z"/>
<path d="M1460 4775 c0 -19 5 -35 10 -35 6 0 10 16 10 35 0 19 -4 35 -10 35
-5 0 -10 -16 -10 -35z"/>
<path d="M5061 4784 c-18 -21 -6 -30 14 -11 8 9 15 18 15 21 0 11 -15 5 -29
-10z"/>
<path d="M11770 4755 c0 -8 5 -15 10 -15 6 0 10 7 10 15 0 8 -4 15 -10 15 -5
0 -10 -7 -10 -15z"/>
<path d="M5025 4750 c-3 -5 -1 -10 4 -10 6 0 11 5 11 10 0 6 -2 10 -4 10 -3 0
-8 -4 -11 -10z"/>
<path d="M10580 4735 c0 -14 -4 -25 -10 -25 -5 0 -10 -16 -10 -35 0 -19 5 -35
10 -35 6 0 10 16 10 35 0 19 5 35 10 35 6 0 10 11 10 25 0 14 -4 25 -10 25 -5
0 -10 -11 -10 -25z"/>
<path d="M1485 4730 c-3 -5 -1 -18 4 -27 9 -16 10 -14 11 10 0 28 -5 34 -15
17z"/>
<path d="M4980 4720 c0 -5 5 -10 10 -10 6 0 10 5 10 10 0 6 -4 10 -10 10 -5 0
-10 -4 -10 -10z"/>
<path d="M9580 4614 c0 -61 4 -93 10 -89 6 3 10 46 10 96 0 53 -4 89 -10 89
-6 0 -10 -39 -10 -96z"/>
<path d="M1510 4654 c0 -8 5 -12 10 -9 6 4 8 11 5 16 -9 14 -15 11 -15 -7z"/>
<path d="M11820 4646 c0 -14 5 -26 10 -26 6 0 10 9 10 19 0 11 -4 23 -10 26
-6 4 -10 -5 -10 -19z"/>
<path d="M2830 4650 c0 -5 5 -10 10 -10 6 0 10 5 10 10 0 6 -4 10 -10 10 -5 0
-10 -4 -10 -10z"/>
<path d="M4910 4636 c0 -8 -7 -16 -15 -20 -8 -3 -15 -12 -15 -21 0 -8 -9 -15
-20 -15 -11 0 -20 -7 -20 -15 0 -8 -9 -15 -19 -15 -11 0 -22 -8 -26 -19 -3
-11 -19 -21 -38 -25 -25 -5 -29 -9 -17 -16 19 -12 100 -13 100 -1 0 5 19 11
43 15 48 8 97 27 97 38 0 5 -4 8 -10 8 -5 0 -12 11 -16 25 -3 14 -10 25 -15
25 -5 0 -9 11 -9 25 0 14 -4 25 -10 25 -5 0 -10 -6 -10 -14z"/>
<path d="M1530 4630 c0 -5 5 -10 10 -10 6 0 10 5 10 10 0 6 -4 10 -10 10 -5 0
-10 -4 -10 -10z"/>
<path d="M4090 4610 c0 -5 5 -10 10 -10 6 0 10 5 10 10 0 6 -4 10 -10 10 -5 0
-10 -4 -10 -10z"/>
<path d="M4250 4610 c0 -5 5 -10 10 -10 6 0 10 5 10 10 0 6 -4 10 -10 10 -5 0
-10 -4 -10 -10z"/>
<path d="M1550 4590 c0 -5 5 -10 10 -10 6 0 10 5 10 10 0 6 -4 10 -10 10 -5 0
-10 -4 -10 -10z"/>
<path d="M11840 4575 c0 -14 5 -25 10 -25 6 0 10 11 10 25 0 14 -4 25 -10 25
-5 0 -10 -11 -10 -25z"/>
<path d="M12960 4495 c0 -63 4 -105 10 -105 6 0 10 42 10 105 0 63 -4 105 -10
105 -6 0 -10 -42 -10 -105z"/>
<path d="M10518 4574 c-5 -4 -8 -16 -8 -26 0 -10 -4 -18 -10 -18 -5 0 -10 -16
-10 -35 0 -19 5 -35 10 -35 6 0 10 10 10 23 0 13 5 28 11 34 6 6 9 23 7 38 -2
15 -6 23 -10 19z"/>
<path d="M1580 4564 c0 -3 7 -12 15 -20 16 -17 18 -14 9 10 -6 15 -24 23 -24
10z"/>
<path d="M2900 4564 c0 -10 31 -36 37 -31 3 3 -2 13 -10 22 -16 15 -27 19 -27
9z"/>
<path d="M4040 4560 c0 -5 -9 -10 -20 -10 -11 0 -20 -4 -20 -10 0 -15 29 -12
46 4 16 17 18 26 4 26 -5 0 -10 -4 -10 -10z"/>
<path d="M4320 4540 c0 -5 5 -10 10 -10 6 0 10 5 10 10 0 6 -4 10 -10 10 -5 0
-10 -4 -10 -10z"/>
<path d="M11870 4520 c0 -5 5 -10 10 -10 6 0 10 5 10 10 0 6 -4 10 -10 10 -5
0 -10 -4 -10 -10z"/>
<path d="M4354 4507 c-7 -8 -1 -20 23 -43 18 -18 33 -37 33 -43 0 -6 5 -11 10
-11 18 0 11 20 -19 51 -17 17 -27 37 -24 45 6 17 -8 18 -23 1z"/>
<path d="M11890 4470 c0 -16 5 -30 10 -30 6 0 10 14 10 30 0 17 -4 30 -10 30
-5 0 -10 -13 -10 -30z"/>
<path d="M2970 4474 c0 -10 31 -36 37 -31 3 3 -2 13 -10 22 -16 15 -27 19 -27
9z"/>
<path d="M3930 4470 c0 -5 5 -10 10 -10 6 0 10 5 10 10 0 6 -4 10 -10 10 -5 0
-10 -4 -10 -10z"/>
<path d="M4710 4470 c0 -5 5 -10 10 -10 6 0 10 5 10 10 0 6 -4 10 -10 10 -5 0
-10 -4 -10 -10z"/>
<path d="M3130 4435 c0 -14 5 -25 10 -25 6 0 10 11 10 25 0 14 -4 25 -10 25
-5 0 -10 -11 -10 -25z"/>
<path d="M4680 4450 c0 -5 5 -10 10 -10 6 0 10 5 10 10 0 6 -4 10 -10 10 -5 0
-10 -4 -10 -10z"/>
<path d="M1790 4430 c-11 -7 -6 -10 20 -10 26 0 31 3 20 10 -8 5 -17 10 -20
10 -3 0 -12 -5 -20 -10z"/>
<path d="M10470 4410 c0 -11 5 -20 10 -20 6 0 10 9 10 20 0 11 -4 20 -10 20
-5 0 -10 -9 -10 -20z"/>
<path d="M11910 4400 c0 -16 5 -30 10 -30 6 0 10 14 10 30 0 17 -4 30 -10 30
-5 0 -10 -13 -10 -30z"/>
<path d="M1850 4400 c0 -6 32 -10 75 -10 43 0 75 4 75 10 0 6 -32 10 -75 10
-43 0 -75 -4 -75 -10z"/>
<path d="M3040 4384 c0 -10 31 -36 37 -31 3 3 -2 13 -10 22 -16 15 -27 19 -27
9z"/>
<path d="M3790 4380 c0 -5 5 -10 10 -10 6 0 10 5 10 10 0 6 -4 10 -10 10 -5 0
-10 -4 -10 -10z"/>
<path d="M4581 4374 c-18 -21 -6 -30 14 -11 8 9 15 18 15 21 0 11 -15 5 -29
-10z"/>
<path d="M9564 4265 c0 -60 1 -84 3 -52 2 32 2 81 0 110 -2 29 -3 3 -3 -58z"/>
<path d="M12987 4323 c-10 -9 -7 -264 3 -288 5 -12 9 40 9 138 1 86 0 157 -2
157 -2 0 -7 -3 -10 -7z"/>
<path d="M4500 4310 c0 -5 5 -10 10 -10 6 0 10 5 10 10 0 6 -4 10 -10 10 -5 0
-10 -4 -10 -10z"/>
<path d="M10420 4265 c0 -19 5 -35 10 -35 6 0 10 16 10 35 0 19 -4 35 -10 35
-5 0 -10 -16 -10 -35z"/>
<path d="M11960 4278 c0 -19 2 -20 10 -8 13 19 13 30 0 30 -5 0 -10 -10 -10
-22z"/>
<path d="M11980 4209 c0 -11 5 -17 10 -14 6 3 10 13 10 21 0 8 -4 14 -10 14
-5 0 -10 -9 -10 -21z"/>
<path d="M10413 4165 c-15 -17 -17 -65 -3 -65 6 0 10 -60 10 -160 0 -100 -4
-160 -10 -160 -5 0 -10 -16 -10 -35 0 -19 -5 -35 -10 -35 -6 0 -18 -16 -27
-35 -9 -19 -20 -35 -25 -35 -4 0 -8 -7 -8 -15 0 -8 -7 -15 -15 -15 -8 0 -15
-4 -15 -10 0 -5 -4 -10 -10 -10 -5 0 -10 25 -10 56 0 34 -4 53 -10 49 -5 -3
-10 -33 -10 -66 0 -53 2 -59 20 -59 27 0 120 93 120 119 0 12 5 21 10 21 6 0
10 13 10 29 0 17 5 33 10 36 12 7 14 405 3 405 -5 -1 -14 -7 -20 -15z"/>
<path d="M12000 4160 c0 -11 5 -20 10 -20 6 0 10 9 10 20 0 11 -4 20 -10 20
-5 0 -10 -9 -10 -20z"/>
<path d="M3220 4150 c0 -5 5 -10 10 -10 6 0 10 5 10 10 0 6 -4 10 -10 10 -5 0
-10 -4 -10 -10z"/>
<path d="M12024 4104 c3 -9 6 -21 6 -27 0 -7 5 -4 11 6 11 18 5 37 -13 37 -5
0 -7 -7 -4 -16z"/>
<path d="M3290 4080 c0 -5 5 -10 10 -10 6 0 10 -9 10 -20 0 -11 5 -20 10 -20
15 0 12 29 -4 46 -17 16 -26 18 -26 4z"/>
<path d="M3380 4060 c0 -5 9 -10 20 -10 11 0 20 5 20 10 0 6 -9 10 -20 10 -11
0 -20 -4 -20 -10z"/>
<path d="M12050 4035 c0 -8 5 -15 10 -15 6 0 10 7 10 15 0 8 -4 15 -10 15 -5
0 -10 -7 -10 -15z"/>
<path d="M10358 4024 c-5 -4 -8 -16 -8 -26 0 -10 -4 -18 -10 -18 -5 0 -10 -16
-10 -35 0 -19 5 -35 10 -35 6 0 10 15 10 34 0 19 5 36 11 38 6 2 9 14 7 27 -1
12 -6 19 -10 15z"/>
<path d="M13006 3900 c-10 -84 -5 -490 5 -490 5 0 9 124 9 275 0 151 -2 275
-4 275 -2 0 -6 -27 -10 -60z"/>
<path d="M9530 3660 c0 -173 4 -270 10 -270 6 0 10 97 10 270 0 173 -4 270
-10 270 -6 0 -10 -97 -10 -270z"/>
<path d="M12121 3855 c0 -35 2 -37 11 -19 7 15 7 28 -1 40 -9 16 -10 12 -10
-21z"/>
<path d="M10310 3845 c0 -14 5 -25 10 -25 6 0 10 11 10 25 0 14 -4 25 -10 25
-5 0 -10 -11 -10 -25z"/>
<path d="M12141 3780 c0 -33 1 -34 11 -12 8 17 8 26 0 34 -9 9 -12 4 -11 -22z"/>
<path d="M10280 3740 c0 -16 5 -30 10 -30 6 0 10 14 10 30 0 17 -4 30 -10 30
-5 0 -10 -13 -10 -30z"/>
<path d="M12160 3725 c0 -14 5 -25 10 -25 6 0 10 11 10 25 0 14 -4 25 -10 25
-5 0 -10 -11 -10 -25z"/>
<path d="M12184 3664 c3 -9 6 -20 6 -25 0 -6 5 -7 10 -4 16 10 12 45 -6 45
-11 0 -14 -5 -10 -16z"/>
<path d="M12210 3596 c0 -14 5 -26 10 -26 6 0 10 9 10 19 0 11 -4 23 -10 26
-6 4 -10 -5 -10 -19z"/>
<path d="M10240 3520 c0 -22 5 -40 10 -40 6 0 10 18 10 40 0 22 -4 40 -10 40
-5 0 -10 -18 -10 -40z"/>
<path d="M12230 3525 c0 -14 5 -25 10 -25 6 0 10 -16 10 -35 0 -19 5 -35 10
-35 6 0 10 16 10 35 0 19 -4 35 -10 35 -5 0 -10 11 -10 25 0 14 -4 25 -10 25
-5 0 -10 -11 -10 -25z"/>
<path d="M10217 3416 c-4 -10 -5 -21 -2 -24 9 -9 17 6 13 25 -3 17 -4 17 -11
-1z"/>
<path d="M12280 3408 c0 -19 2 -20 10 -8 13 19 13 30 0 30 -5 0 -10 -10 -10
-22z"/>
</g>
</svg>
