<svg width="17" height="16" viewBox="0 0 17 16" fill="none" xmlns="http://www.w3.org/2000/svg">
<path d="M14.0929 8.74575C13.9346 8.71602 13.7771 8.68167 13.6204 8.64423C13.2913 8.56371 12.9671 8.46385 12.6498 8.34516C11.8868 8.0577 11.0285 8.3823 10.6489 9.10182L10.0464 10.2552C9.15598 9.75136 8.33821 9.12959 7.61535 8.40685C6.89243 7.68367 6.27077 6.86654 5.76722 5.97757L6.9173 5.38099C7.63919 5.00251 7.96496 4.14722 7.6769 3.38666C7.55747 3.06987 7.45714 2.7463 7.37645 2.4176C7.33821 2.26167 7.30437 2.10447 7.27499 1.94596C7.05749 0.811941 6.05949 -0.00616318 4.90117 3.49813e-05H2.43374C1.72321 -1.37948e-05 1.04808 0.309161 0.585214 0.846495C0.12656 1.37602 -0.0774275 2.0787 0.0266229 2.77055C1.09494 9.56897 6.44308 14.9033 13.2632 15.9727C13.3819 15.9907 13.5019 15.9998 13.622 16C14.1993 15.9993 14.7572 15.7924 15.1944 15.4167C15.734 14.9552 16.0445 14.2818 16.0444 13.5731V11.1118C16.051 9.95736 15.2305 8.96253 14.0929 8.74575ZM15.2422 13.5731C15.242 14.0487 15.0333 14.5004 14.671 14.81C14.3166 15.1146 13.8468 15.2506 13.3839 15.1824C6.9106 14.1675 1.83431 9.10455 0.820246 2.65186C0.750764 2.19017 0.887132 1.72121 1.19355 1.36811C1.50384 1.00721 1.95692 0.799545 2.43374 0.799643H4.90117C5.67266 0.793445 6.33888 1.33634 6.48612 2.0912C6.51785 2.26377 6.55545 2.43634 6.59698 2.60735C6.68555 2.96699 6.79543 3.32106 6.92602 3.66777C7.07179 4.05 6.90898 4.4806 6.54644 4.67196L5.03519 5.45595C4.83884 5.55781 4.76241 5.79895 4.8644 5.99475C5.43538 7.09197 6.17157 8.09558 7.0474 8.97064C7.9228 9.84657 8.9279 10.5835 10.0276 11.1555C10.1224 11.2036 10.2322 11.2131 10.3339 11.1821C10.4352 11.1504 10.5197 11.0799 10.569 10.9861L11.3602 9.47117C11.5523 9.11031 11.9837 8.94833 12.3669 9.09323C12.7144 9.22354 13.0694 9.33281 13.4301 9.42041C13.6001 9.46258 13.7717 9.4985 13.9456 9.5313C14.7033 9.678 15.2484 10.3424 15.2422 11.1118V13.5731Z" fill="white"/>
</svg>
