<svg width="25" height="22" viewBox="0 0 25 22" fill="none" xmlns="http://www.w3.org/2000/svg">
<path d="M14.5967 11.579H15.7025C16.0066 11.579 16.2554 11.3184 16.2554 11V9.84213C16.2554 9.52371 16.0066 9.26318 15.7025 9.26318H14.5967C14.2926 9.26318 14.0438 9.52371 14.0438 9.84213V11C14.0438 11.3184 14.2926 11.579 14.5967 11.579ZM9.89693 11.579H11.0028C11.3069 11.579 11.5557 11.3184 11.5557 11V9.84213C11.5557 9.52371 11.3069 9.26318 11.0028 9.26318H9.89693C9.59283 9.26318 9.34402 9.52371 9.34402 9.84213V11C9.34402 11.3184 9.59283 11.579 9.89693 11.579ZM6.30302 9.26318H5.1972C4.8931 9.26318 4.64429 9.52371 4.64429 9.84213V11C4.64429 11.3184 4.8931 11.579 5.1972 11.579H6.30302C6.60712 11.579 6.85593 11.3184 6.85593 11V9.84213C6.85593 9.52371 6.60712 9.26318 6.30302 9.26318Z" fill="white"/>
<path d="M22.7708 20.5094C21.742 20.2058 21.2694 19.8193 21.0192 19.4053C23.16 17.5282 24.3833 14.8507 24.3833 11.9799C24.3833 9.32999 23.3546 6.84567 21.464 4.99624C20.046 3.58846 18.2945 2.67754 16.3204 2.29109C14.541 0.800502 12.289 0 9.95352 0C7.28442 0 4.80994 1.02133 2.91933 2.89837C1.02872 4.77541 0 7.25972 0 9.88206C0 12.7528 1.22334 15.4304 3.36418 17.3074C3.11395 17.7215 2.6413 18.1355 1.61258 18.4115C1.30675 18.4944 1.08432 18.798 1.11212 19.1016C1.13993 19.4329 1.36235 19.6813 1.66819 19.7365C2.22425 19.8469 2.89152 19.8745 3.6144 19.8745C4.89335 19.8745 6.31131 19.7365 7.56245 19.4605C7.70146 19.4881 7.86828 19.5433 8.0351 19.5709C9.8145 21.0339 12.0666 21.862 14.402 21.862C15.2083 21.862 15.9868 21.7792 16.7653 21.5859C17.9886 21.862 19.4344 22 20.7133 22C21.4362 22 22.1313 21.9448 22.6595 21.862C22.9654 21.8068 23.2156 21.5307 23.2156 21.2271C23.299 20.8683 23.0766 20.5922 22.7708 20.5094ZM7.45123 18.0803C6.45032 18.3287 5.28259 18.4668 4.19827 18.4944C4.5041 18.1631 4.72653 17.7767 4.89335 17.3074C5.00456 17.0314 4.89335 16.7277 4.67092 16.5345C2.58569 14.9059 1.39016 12.4768 1.39016 9.85445C1.39016 7.59097 2.27985 5.43789 3.89244 3.83689C5.50502 2.23588 7.67366 1.35257 9.95352 1.35257C12.0109 1.35257 14.0128 2.09787 15.5697 3.42283C15.7366 3.56085 15.8756 3.69887 16.0146 3.83689C17.6272 5.43789 18.5169 7.59097 18.5169 9.85445C18.5169 12.1179 17.6272 14.271 16.0146 15.872C14.402 17.473 12.2334 18.3563 9.95352 18.3563C9.45306 18.3563 8.9526 18.3011 8.47995 18.2459C8.22972 18.1907 7.97949 18.1631 7.78487 18.0803C7.70146 18.0527 7.56245 18.0527 7.45123 18.0803ZM19.7402 18.66C19.5178 18.8532 19.4066 19.1568 19.5178 19.4329C19.6846 19.8745 19.907 20.2886 20.2129 20.6198C19.1285 20.5922 17.9608 20.4266 16.9599 20.2058C16.9043 20.2058 16.8487 20.1782 16.7931 20.1782C16.7375 20.1782 16.6819 20.1782 16.6263 20.2058C15.9312 20.399 15.1805 20.4818 14.4576 20.4818C13.2343 20.4818 12.0109 20.2058 10.8988 19.7089H10.9266C10.9822 19.7089 11.0378 19.7089 11.0934 19.6813C11.2047 19.6813 11.2881 19.6537 11.3993 19.6537C11.4549 19.6537 11.5105 19.6261 11.5661 19.6261C11.6495 19.5985 11.7607 19.5985 11.8441 19.5709C11.8997 19.5709 11.9553 19.5433 12.0387 19.5433C12.1222 19.5157 12.2334 19.5157 12.3168 19.4881C12.3724 19.4605 12.428 19.4605 12.4836 19.4329C12.567 19.4053 12.6782 19.3777 12.7616 19.3501C12.8172 19.3225 12.8728 19.3225 12.9284 19.2949C13.0119 19.2673 13.1231 19.2397 13.2065 19.212C13.2621 19.1844 13.3177 19.1844 13.3455 19.1568C13.4567 19.1016 13.5679 19.074 13.6791 19.0188C13.7069 19.0188 13.7347 18.9912 13.7625 18.9912C13.9016 18.936 14.0406 18.8808 14.1796 18.798C14.2074 18.7704 14.263 18.7704 14.2908 18.7428C14.402 18.6876 14.4854 18.6324 14.5966 18.6048C14.6522 18.5772 14.7078 18.5496 14.7357 18.522C14.8191 18.4668 14.9025 18.4391 14.9859 18.3839C15.0415 18.3563 15.0971 18.3287 15.1527 18.3011C15.2361 18.2459 15.3195 18.1907 15.3751 18.1631C15.4307 18.1355 15.4863 18.0803 15.5419 18.0527C15.6254 17.9975 15.681 17.9423 15.7644 17.8871C15.82 17.8595 15.8756 17.8043 15.9034 17.7767C15.9868 17.7215 16.0424 17.6662 16.1258 17.611C16.1814 17.5834 16.2092 17.5282 16.2648 17.5006C16.3482 17.4454 16.4316 17.3626 16.5151 17.3074C16.5429 17.2798 16.5985 17.2522 16.6263 17.197C16.7375 17.0866 16.8487 16.9762 16.9599 16.8657C18.8505 14.9887 19.8792 12.5044 19.8792 9.88206C19.8792 9.66123 19.8792 9.4404 19.8514 9.21957C19.8514 9.16437 19.8514 9.10916 19.8514 9.05395C19.8236 8.83312 19.8236 8.6123 19.768 8.41907V8.39147C19.7402 8.19824 19.6846 7.97742 19.6568 7.78419C19.6568 7.72898 19.629 7.67378 19.629 7.61857C19.5734 7.39774 19.5178 7.20452 19.4622 6.98369C19.4622 6.95609 19.4622 6.95608 19.4344 6.92848C19.3788 6.73526 19.2954 6.54203 19.2398 6.34881C19.212 6.2936 19.212 6.23839 19.1841 6.21079C19.1007 6.01757 19.0173 5.82434 18.9339 5.63112C18.9339 5.60351 18.9061 5.60351 18.9061 5.57591C18.8227 5.41029 18.7393 5.21706 18.6281 5.05144C18.6281 4.99624 18.6003 4.94103 18.6003 4.91342C18.4891 4.7202 18.3779 4.55458 18.2666 4.36135C18.2666 4.36135 18.2666 4.36136 18.2666 4.33375C19.1007 4.7478 19.8514 5.27227 20.5187 5.93476C22.1313 7.53576 23.021 9.66123 23.021 11.9523C22.9932 14.6023 21.7976 17.0314 19.7402 18.66Z" fill="white"/>
</svg>
