<svg width="26" height="26" viewBox="0 0 26 26" fill="none" xmlns="http://www.w3.org/2000/svg">
<g filter="url(#filter0_dd_430_689)">
<circle cx="13" cy="13" r="9" fill="black"/>
</g>
<g clip-path="url(#clip0_430_689)">
<g clip-path="url(#clip1_430_689)">
<path d="M13.1427 15.3277C12.7528 15.3277 12.3717 15.2209 12.0475 15.0209C11.7233 14.8209 11.4706 14.5366 11.3214 14.2041C11.1722 13.8715 11.1331 13.5055 11.2092 13.1524C11.2852 12.7994 11.473 12.4751 11.7487 12.2205C12.0244 11.966 12.3757 11.7926 12.7581 11.7224C13.1405 11.6521 13.5369 11.6882 13.8972 11.826C14.2574 11.9637 14.5653 12.197 14.7819 12.4963C14.9985 12.7956 15.1142 13.1475 15.1142 13.5075C15.1132 13.99 14.9051 14.4524 14.5356 14.7935C14.1661 15.1347 13.6653 15.3267 13.1427 15.3277ZM13.1427 12.5541C12.9385 12.5541 12.7388 12.61 12.569 12.7148C12.3992 12.8196 12.2668 12.9685 12.1887 13.1427C12.1105 13.3169 12.0901 13.5086 12.1299 13.6935C12.1698 13.8785 12.2681 14.0484 12.4125 14.1817C12.5569 14.315 12.7409 14.4058 12.9413 14.4426C13.1416 14.4794 13.3492 14.4605 13.5379 14.3884C13.7266 14.3162 13.8879 14.194 14.0013 14.0372C14.1148 13.8804 14.1754 13.6961 14.1754 13.5075C14.1754 13.2547 14.0666 13.0122 13.8729 12.8334C13.6793 12.6546 13.4166 12.5541 13.1427 12.5541ZM15.9591 16.0418C15.8666 16.0413 15.7765 16.0156 15.6998 15.968C15.6231 15.9203 15.5634 15.8528 15.5281 15.774C15.4928 15.6951 15.4836 15.6084 15.5014 15.5247C15.5193 15.441 15.5635 15.364 15.6286 15.3034C16.1432 14.8265 16.4321 14.1807 16.4321 13.5075C16.4321 12.8344 16.1432 12.1886 15.6286 11.7117C15.5811 11.6723 15.5429 11.6243 15.5161 11.5708C15.4894 11.5172 15.4748 11.4592 15.4732 11.4003C15.4716 11.3414 15.483 11.2828 15.5068 11.228C15.5306 11.1733 15.5662 11.1237 15.6115 11.0821C15.6568 11.0406 15.7107 11.008 15.7701 10.9863C15.8295 10.9647 15.8931 10.9544 15.9569 10.9563C16.0207 10.9581 16.0835 10.9719 16.1413 10.9969C16.1991 11.0218 16.2508 11.0574 16.2933 11.1015C16.983 11.7403 17.3703 12.6055 17.3703 13.5075C17.3703 14.4095 16.983 15.2748 16.2933 15.9136C16.2498 15.9546 16.1978 15.9871 16.1403 16.0092C16.0829 16.0312 16.0212 16.0423 15.9591 16.0418ZM10.3264 16.0453C10.2011 16.0448 10.081 15.9987 9.99219 15.917C9.30221 15.2776 8.91479 14.4118 8.91479 13.5093C8.91479 12.6067 9.30221 11.7409 9.99219 11.1015C10.0803 11.0201 10.1999 10.9744 10.3245 10.9744C10.4492 10.9744 10.5687 11.0201 10.6568 11.1015C10.745 11.1829 10.7945 11.2932 10.7945 11.4083C10.7945 11.5234 10.745 11.6338 10.6568 11.7151C10.1425 12.1915 9.8537 12.8367 9.8537 13.5093C9.8537 14.1819 10.1425 14.827 10.6568 15.3034C10.7006 15.3436 10.7352 15.3915 10.7589 15.4441C10.7826 15.4968 10.7947 15.5532 10.7947 15.6102C10.7947 15.6672 10.7826 15.7237 10.7589 15.7763C10.7352 15.829 10.7006 15.8768 10.6568 15.917C10.569 15.9978 10.4504 16.0439 10.3264 16.0453Z" fill="white"/>
<path d="M17.3898 17.7232C17.2653 17.7232 17.1459 17.6775 17.0579 17.5962C16.9699 17.5149 16.9204 17.4047 16.9204 17.2898C16.9212 17.1714 16.9725 17.0581 17.0631 16.9743C17.5735 16.5282 17.9801 15.9906 18.258 15.3946C18.5358 14.7985 18.6791 14.1563 18.6791 13.5074C18.6791 12.8584 18.5358 12.2163 18.258 11.6202C17.9801 11.0241 17.5735 10.4866 17.0631 10.0405C16.9735 9.96048 16.9219 9.85089 16.9198 9.73581C16.9177 9.62073 16.9652 9.50959 17.0518 9.42684C17.1385 9.34408 17.2572 9.2965 17.3818 9.29455C17.5065 9.29259 17.6269 9.33644 17.7165 9.41643C18.3159 9.94299 18.7932 10.5765 19.1193 11.2786C19.4454 11.9806 19.6136 12.7366 19.6136 13.5005C19.6136 14.2643 19.4454 15.0203 19.1193 15.7223C18.7932 16.4244 18.3159 17.0579 17.7165 17.5845C17.675 17.6267 17.6246 17.6608 17.5685 17.6846C17.5123 17.7085 17.4516 17.7216 17.3898 17.7232ZM8.89575 17.7232C8.8247 17.7259 8.75391 17.7136 8.68882 17.6871C8.62373 17.6607 8.56606 17.6208 8.52024 17.5706C7.92619 17.0409 7.45463 16.4055 7.13406 15.7028C6.81349 15.0001 6.65056 14.2446 6.65512 13.4821C6.65969 12.7197 6.83164 11.9659 7.1606 11.2665C7.48957 10.5671 7.9687 9.93659 8.56906 9.41297C8.65869 9.33297 8.77907 9.28913 8.90372 9.29108C9.02836 9.29303 9.14706 9.34061 9.23371 9.42337C9.32035 9.50612 9.36784 9.61726 9.36573 9.73234C9.36362 9.84742 9.31208 9.95702 9.22244 10.037C8.71199 10.4831 8.30542 11.0207 8.02756 11.6168C7.74971 12.2128 7.6064 12.855 7.6064 13.5039C7.6064 14.1529 7.74971 14.795 8.02756 15.3911C8.30542 15.9872 8.71199 16.5247 9.22244 16.9708C9.26736 17.0116 9.3031 17.0601 9.32759 17.1137C9.35208 17.1672 9.36484 17.2247 9.36514 17.2829C9.36563 17.3402 9.35388 17.3971 9.33056 17.4503C9.30724 17.5035 9.2728 17.5519 9.22922 17.5928C9.18563 17.6336 9.13375 17.6662 9.07653 17.6886C9.01931 17.7109 8.95788 17.7227 8.89575 17.7232Z" fill="white"/>
</g>
</g>
<defs>
<filter id="filter0_dd_430_689" x="0" y="0" width="26" height="26" filterUnits="userSpaceOnUse" color-interpolation-filters="sRGB">
<feFlood flood-opacity="0" result="BackgroundImageFix"/>
<feColorMatrix in="SourceAlpha" type="matrix" values="0 0 0 0 0 0 0 0 0 0 0 0 0 0 0 0 0 0 127 0" result="hardAlpha"/>
<feOffset/>
<feGaussianBlur stdDeviation="2"/>
<feComposite in2="hardAlpha" operator="out"/>
<feColorMatrix type="matrix" values="0 0 0 0 0 0 0 0 0 0 0 0 0 0 0 0 0 0 0.25 0"/>
<feBlend mode="normal" in2="BackgroundImageFix" result="effect1_dropShadow_430_689"/>
<feColorMatrix in="SourceAlpha" type="matrix" values="0 0 0 0 0 0 0 0 0 0 0 0 0 0 0 0 0 0 127 0" result="hardAlpha"/>
<feOffset/>
<feGaussianBlur stdDeviation="2"/>
<feComposite in2="hardAlpha" operator="out"/>
<feColorMatrix type="matrix" values="0 0 0 0 0 0 0 0 0 0 0 0 0 0 0 0 0 0 0.25 0"/>
<feBlend mode="normal" in2="effect1_dropShadow_430_689" result="effect2_dropShadow_430_689"/>
<feBlend mode="normal" in="SourceGraphic" in2="effect2_dropShadow_430_689" result="shape"/>
</filter>
<clipPath id="clip0_430_689">
<rect width="13.1429" height="13.1429" fill="white" transform="translate(6.57129 6.47852)"/>
</clipPath>
<clipPath id="clip1_430_689">
<rect width="13.1429" height="12.1342" fill="white" transform="translate(6.57129 7.44043)"/>
</clipPath>
</defs>
</svg>
