<svg width="23" height="20" viewBox="0 0 23 20" fill="none" xmlns="http://www.w3.org/2000/svg">
<path d="M14.4929 15.1831C14.4929 15.3662 14.4202 15.5417 14.2908 15.6711C14.1613 15.8006 13.9858 15.8733 13.8028 15.8733H4.14083C3.989 15.8733 3.84407 16.0113 3.71984 16.101L1.38028 17.9437V6.90147C1.38028 6.71843 1.45299 6.54289 1.58241 6.41347C1.71184 6.28404 1.88738 6.21133 2.07041 6.21133H4.73435V4.83105H2.07041C1.52131 4.83105 0.994688 5.04919 0.60641 5.43746C0.218132 5.82574 0 6.35236 0 6.90147V19.324C0.00102713 19.4521 0.0377278 19.5775 0.105989 19.686C0.17425 19.7945 0.271374 19.8818 0.386477 19.9382C0.497368 19.9886 0.619631 20.0088 0.740846 19.9967C0.86206 19.9845 0.977907 19.9406 1.07662 19.8692L4.63083 17.2535H13.9063C14.1678 17.2613 14.4282 17.2152 14.6713 17.1182C14.9143 17.0213 15.1349 16.8754 15.3193 16.6897C15.5036 16.504 15.6479 16.2825 15.7432 16.0388C15.8385 15.795 15.8827 15.5344 15.8732 15.2728V14.493H14.4929V15.1831Z" fill="#B3B3B3"/>
<path d="M20.0137 0H8.28135C7.73224 0 7.20563 0.218132 6.81735 0.60641C6.42907 0.994688 6.21094 1.52131 6.21094 2.07041V10.3521C6.21094 10.9012 6.42907 11.4278 6.81735 11.8161C7.20563 12.2044 7.73224 12.4225 8.28135 12.4225H17.6327L20.9316 14.9829C21.0297 15.0554 21.1452 15.1006 21.2664 15.114C21.3876 15.1273 21.5102 15.1083 21.6217 15.0588C21.7392 15.0029 21.8384 14.9149 21.908 14.805C21.9776 14.6951 22.0147 14.5678 22.0151 14.4377V2.07041C22.0154 1.53306 21.8068 1.01663 21.4333 0.63028C21.0598 0.243926 20.5508 0.0179118 20.0137 0ZM20.7038 13.0712L18.2884 11.1871C18.1679 11.0936 18.0199 11.0427 17.8674 11.0422H8.28135C8.09832 11.0422 7.92278 10.9695 7.79335 10.8401C7.66392 10.7106 7.59121 10.5351 7.59121 10.3521V2.07041C7.59121 1.88738 7.66392 1.71184 7.79335 1.58241C7.92278 1.45299 8.09832 1.38028 8.28135 1.38028H20.0137C20.1982 1.39702 20.3702 1.48063 20.4973 1.61537C20.6244 1.75012 20.6979 1.92668 20.7038 2.11182V13.0712Z" fill="#B3B3B3"/>
</svg>
