<svg width="23" height="20" viewBox="0 0 23 20" fill="none" xmlns="http://www.w3.org/2000/svg">
<path d="M4.14083 10.3512V4.83008H2.07041C1.52131 4.83008 0.994688 5.04821 0.60641 5.43649C0.218132 5.82477 0 6.35138 0 6.90049V19.323C0.00102713 19.4511 0.0377278 19.5765 0.105989 19.685C0.17425 19.7935 0.271374 19.8808 0.386477 19.9372C0.497368 19.9876 0.619631 20.0078 0.740846 19.9957C0.86206 19.9836 0.977907 19.9396 1.07662 19.8682L4.63083 17.2526H13.9063C14.1678 17.2603 14.4282 17.2142 14.6713 17.1173C14.9143 17.0203 15.1349 16.8744 15.3193 16.6887C15.5036 16.5031 15.6479 16.2815 15.7432 16.0378C15.8385 15.7941 15.8827 15.5334 15.8732 15.2719V14.492H8.28166C7.18344 14.492 6.1302 14.0557 5.35365 13.2792C4.57709 12.5026 4.14083 11.4494 4.14083 10.3512Z" fill="#ffffff"/>
<path d="M20.0137 0H8.28135C7.73224 0 7.20563 0.218132 6.81735 0.60641C6.42907 0.994688 6.21094 1.52131 6.21094 2.07041V10.3521C6.21094 10.9012 6.42907 11.4278 6.81735 11.8161C7.20563 12.2044 7.73224 12.4225 8.28135 12.4225H17.6327L20.9316 14.9829C21.0297 15.0554 21.1452 15.1006 21.2664 15.114C21.3876 15.1273 21.5102 15.1083 21.6217 15.0588C21.7392 15.0029 21.8384 14.9149 21.908 14.805C21.9776 14.6951 22.0147 14.5678 22.0151 14.4377V2.07041C22.0154 1.53306 21.8068 1.01663 21.4333 0.63028C21.0598 0.243926 20.5508 0.0179118 20.0137 0Z" fill="#ffffff"/>
</svg>
