<svg width="16" height="16" viewBox="0 0 16 16" fill="none" xmlns="http://www.w3.org/2000/svg">
<path d="M15.8014 2.373C15.8014 1.97794 15.4557 1.68164 15.0606 1.68164H4.09766L5.08531 2.66929H14.8137V2.96559L10.073 7.70633L10.7643 8.39769L15.5051 3.65695C15.7026 3.45942 15.8014 3.2125 15.8014 2.96559V2.373Z" fill="black"/>
<path d="M0.345679 0.691358L1.33333 1.67901H0.839506C0.444444 1.62963 0.0493827 1.92593 0 2.32099V2.8642C0 3.11111 0.0987654 3.35802 0.296296 3.55556L5.92593 9.18518V14.2716L6.8642 14.6667V8.79012L0.987654 2.91358V2.66667H2.32099L8.88889 9.23457V15.6049L9.87654 16V10.2222L14.8642 15.2099L15.5556 14.5185L1.03704 0L0.345679 0.691358Z" fill="black"/>
</svg>
