<svg width="19" height="22" viewBox="0 0 19 22" fill="none" xmlns="http://www.w3.org/2000/svg">
<mask id="mask0_251_591" style="mask-type:luminance" maskUnits="userSpaceOnUse" x="0" y="0" width="19" height="22">
<path d="M16.7002 1H2.7002C2.43498 1 2.18063 1.10536 1.99309 1.29289C1.80555 1.48043 1.7002 1.73478 1.7002 2V20C1.7002 20.2652 1.80555 20.5196 1.99309 20.7071C2.18063 20.8946 2.43498 21 2.7002 21H16.7002C16.9654 21 17.2198 20.8946 17.4073 20.7071C17.5948 20.5196 17.7002 20.2652 17.7002 20V2C17.7002 1.73478 17.5948 1.48043 17.4073 1.29289C17.2198 1.10536 16.9654 1 16.7002 1Z" fill="white" stroke="white" stroke-width="1.5" stroke-linecap="round" stroke-linejoin="round"/>
<path d="M6.2002 14H13.2002M6.2002 17H9.7002M12.7002 5.5L8.7002 9.5L6.7002 7.5" stroke="black" stroke-width="1.5" stroke-linecap="round" stroke-linejoin="round"/>
</mask>
<g mask="url(#mask0_251_591)">
<path d="M-2.2998 -1H21.7002V23H-2.2998V-1Z" fill="#ffffff"/>
</g>
</svg>
