<svg width="18" height="20" viewBox="0 0 18 20" fill="none" xmlns="http://www.w3.org/2000/svg">
<path d="M2.22222 16.1111C2.22222 17.0316 2.96841 17.7778 3.88889 17.7778V17.7778C4.80936 17.7778 5.55556 17.0316 5.55556 16.1111V13.1111C5.55556 12.0065 6.45099 11.1111 7.55556 11.1111H10.2222C11.3268 11.1111 12.2222 12.0065 12.2222 13.1111V16.1111C12.2222 17.0316 12.9684 17.7778 13.8889 17.7778V17.7778C14.8094 17.7778 15.5556 17.0316 15.5556 16.1111V8.77778C15.5556 8.14826 15.2592 7.55549 14.7556 7.17778L10.0889 3.67778C9.37778 3.14444 8.4 3.14444 7.68889 3.67778L3.02222 7.17778C2.51861 7.55549 2.22222 8.14826 2.22222 8.77778V16.1111ZM2 20C0.895432 20 0 19.1046 0 18V7.66667C0 7.03715 0.296388 6.44438 0.8 6.06667L7.68889 0.9C8.4 0.366666 9.37778 0.366667 10.0889 0.9L16.9778 6.06667C17.4814 6.44438 17.7778 7.03715 17.7778 7.66667V18C17.7778 19.1046 16.8823 20 15.7778 20H12C10.8954 20 10 19.1046 10 18V14.4444C10 13.8308 9.50254 13.3333 8.88889 13.3333V13.3333C8.27524 13.3333 7.77778 13.8308 7.77778 14.4444V18C7.77778 19.1046 6.88235 20 5.77778 20H2Z" fill="#B3B3B3"/>
</svg>
