<?xml version="1.0" encoding="UTF-8"?>
<svg version="1.1" xmlns="http://www.w3.org/2000/svg" width="1080" height="1080">
<path d="M0 0 C0.86995605 0.5053125 1.73991211 1.010625 2.63623047 1.53125 C25.02286573 14.55373504 46.88825683 29.19600548 66.49707031 46.16186523 C72.66273817 51.48613102 79.1727972 56.36198233 85.87890625 60.984375 C94.47933312 66.96520036 100.69104682 74.10251453 107.1875 82.25 C111.40103635 87.4744899 116.04853762 92.10749612 120.83325195 96.79663086 C125.2212113 101.13101317 129.18118107 105.66885737 133.0078125 110.51171875 C134.844671 112.80599104 136.75905646 114.96470235 138.75 117.125 C144.36896121 123.38070234 149.3537006 130.14737617 154.39794922 136.8671875 C155.84340436 138.791524 157.29797011 140.70859412 158.75390625 142.625 C219.69818183 223.54822179 254.27131617 323.89329393 254.95741272 528.61253357 C246.83751139 584.73785369 229.2797709 638.30724181 204 689 C203.4750293 690.05396973 202.95005859 691.10793945 202.40917969 692.19384766 C195.00952792 706.95486936 186.97068333 721.13821829 178 735 C177.62037109 735.59022949 177.24074219 736.18045898 176.84960938 736.78857422 C174.62545687 740.23430953 172.33046724 743.6254482 170 747 C169.57960449 747.61198242 169.15920898 748.22396484 168.72607422 748.85449219 C154.82164728 769.04260344 139.49920412 787.88830822 123 806 C122.23042969 806.86238281 121.46085938 807.72476563 120.66796875 808.61328125 C114.73591216 815.20141783 108.57118461 821.53387557 102.3125 827.8125 C101.51666504 828.61292725 100.72083008 829.41335449 99.90087891 830.23803711 C95.64070689 834.48714489 91.30150505 838.57670869 86.73999023 842.50073242 C84.57246765 844.36838447 82.47667503 846.30881651 80.375 848.25 C74.78866803 853.28449066 68.90832432 857.87965472 62.95996094 862.47265625 C60.93989036 864.04684179 58.94140292 865.64554157 56.9453125 867.25 C34.6657751 885.04907947 10.3087726 900.20025193 -14.7421875 913.77490234 C-16.23168266 914.58310809 -17.71873024 915.39584323 -19.203125 916.21337891 C-78.16831021 948.66252671 -144.36711138 966.71107075 -211 974 C-212.0916748 974.12004395 -213.18334961 974.24008789 -214.30810547 974.36376953 C-247.63135252 977.82237723 -282.71090484 977.76065457 -316 974 C-317.00855042 973.88688477 -317.00855042 973.88688477 -318.03747559 973.77148438 C-412.23058159 963.10952207 -501.94350881 929.20219128 -623.72558594 832.8449707 C-627.37245898 829.37777936 -631.16137134 826.31060328 -635.21704102 823.33325195 C-641.66808135 818.509326 -646.26974933 812.38379498 -650.87109375 805.85546875 C-653.82504554 801.89337928 -657.15523855 798.34398769 -660.51171875 794.72265625 C-664.54413181 790.31042406 -668.28569424 785.68018805 -672 781 C-672.52110352 780.34612305 -673.04220703 779.69224609 -673.57910156 779.01855469 C-681.83611518 768.63009039 -689.66791329 758.05983948 -697 747 C-697.5141748 746.22930176 -698.02834961 745.45860352 -698.55810547 744.66455078 C-711.34948006 725.44867083 -722.57549306 705.58974804 -733 685 C-733.73669922 683.55874756 -733.73669922 683.55874756 -734.48828125 682.08837891 C-767.25797285 617.61898234 -785.92748085 542.4012068 -787 470 C-787.02046387 468.77909668 -787.04092773 467.55819336 -787.06201172 466.30029297 C-788.63674124 362.16954384 -762.02159654 260.32091348 -655.9765625 106.16015625 C-654.10874502 104.11884584 -652.30052609 102.03811377 -650.5 99.9375 C-647.23508276 96.18133364 -643.72810947 92.70947038 -640.18359375 89.21875 C-638.20789518 87.21124233 -636.3772707 85.15210455 -634.5625 83 C-631.15034743 79.01783586 -627.33517669 75.61205393 -623.40234375 72.15234375 C-621.36804531 70.32974466 -619.45565472 68.46579375 -617.5625 66.5 C-613.97296191 62.85202757 -610.04086772 59.69908138 -606.0546875 56.49609375 C-603.40406629 54.33017693 -600.82409313 52.11205591 -598.25341797 49.85375977 C-538.07128129 -2.77736959 -461.55091594 -38.95676859 -283.5 -70.5625 C-282.37980469 -70.60568359 -281.25960938 -70.64886719 -280.10546875 -70.69335938 C-182.49536283 -74.23974731 -84.21282575 -49.37500687 0 0 Z " fill="#000000" transform="translate(808,92)"/>
<path d="M0 0 C3.94117551 2.86630946 6.91803134 6.12488741 10.0546875 9.8046875 C12.0723892 12.08169223 14.19385619 14.19215463 16.375 16.3125 C20.52966054 20.41073052 24.18819096 24.78270506 27.83203125 29.3359375 C29.7376723 31.67764416 31.70580013 33.90509323 33.75 36.125 C39.36896121 42.38070234 44.3537006 49.14737617 49.39794922 55.8671875 C50.84340436 57.791524 52.29797011 59.70859412 53.75390625 61.625 C114.69818183 142.54822179 149.27131617 242.89329393 149.95741272 447.61253357 C141.83751139 503.73785369 124.2797709 557.30724181 99 608 C98.4750293 609.05396973 97.95005859 610.10793945 97.40917969 611.19384766 C90.00952792 625.95486936 81.97068333 640.13821829 73 654 C72.62037109 654.59022949 72.24074219 655.18045898 71.84960938 655.78857422 C69.62545687 659.23430953 67.33046724 662.6254482 65 666 C64.57960449 666.61198242 64.15920898 667.22396484 63.72607422 667.85449219 C49.82164728 688.04260344 34.49920412 706.88830822 18 725 C17.23042969 725.86238281 16.46085938 726.72476563 15.66796875 727.61328125 C9.73591216 734.20141783 3.57118461 740.53387557 -2.6875 746.8125 C-3.48333496 747.61292725 -4.27916992 748.41335449 -5.09912109 749.23803711 C-9.35929311 753.48714489 -13.69849495 757.57670869 -18.26000977 761.50073242 C-20.42753235 763.36838447 -22.52332497 765.30881651 -24.625 767.25 C-30.21133197 772.28449066 -36.09167568 776.87965472 -42.04003906 781.47265625 C-44.06010964 783.04684179 -46.05859708 784.64554157 -48.0546875 786.25 C-70.3342249 804.04907947 -94.6912274 819.20025193 -119.7421875 832.77490234 C-121.23168266 833.58310809 -122.71873024 834.39584323 -124.203125 835.21337891 C-183.16831021 867.66252671 -249.36711138 885.71107075 -316 893 C-317.0916748 893.12004395 -318.18334961 893.24008789 -319.30810547 893.36376953 C-352.63135252 896.82237723 -387.71090484 896.76065457 -421 893 C-422.00855042 892.88688477 -422.00855042 892.88688477 -423.03747559 892.77148438 C-517.23058159 882.10952207 -606.94350881 848.20219128 -733 748 C-729.35470614 748 -727.74908784 749.07320704 -724.5625 750.8125 C-709.83427269 758.22921447 -691.60971647 759.83526497 -675.6875 754.97265625 C-674.800625 754.65167969 -673.91375 754.33070313 -673 754 C-672.01 753.64808594 -671.02 753.29617188 -670 752.93359375 C-655.88139231 747.47704001 -646.1406198 738.70241755 -635.75 728.0625 C-634.51129939 726.81227584 -633.27172042 725.56292131 -632.03125 724.31445312 C-630.8273453 723.09712477 -629.62419408 721.8790507 -628.421875 720.66015625 C-627.88004578 720.11094009 -627.33821655 719.56172394 -626.77996826 718.99586487 C-623.96637445 716.11342481 -621.26123002 713.17267755 -618.63183594 710.12084961 C-614.77613732 705.67672618 -610.6505059 701.54181352 -606.46875 697.40625 C-605.27662903 696.21980896 -605.27662903 696.21980896 -604.0604248 695.00939941 C-600.69464452 691.65981427 -597.32288952 688.3162673 -593.95166016 684.97216797 C-591.47609773 682.51479061 -589.00361917 680.05433942 -586.53125 677.59375 C-585.78000854 676.85080688 -585.02876709 676.10786377 -584.25476074 675.34240723 C-580.88783807 671.99098204 -577.61442129 668.61399879 -574.51367188 665.01367188 C-570.63995705 660.51811009 -566.46697011 656.35920667 -562.25 652.1875 C-561.02458496 650.96776489 -561.02458496 650.96776489 -559.77441406 649.72338867 C-556.31304958 646.2782266 -552.84571409 642.8390971 -549.37890625 639.39941406 C-546.83384812 636.87253492 -544.29186869 634.34258685 -541.75 631.8125 C-540.97688477 631.04768311 -540.20376953 630.28286621 -539.40722656 629.49487305 C-535.98515145 626.08812178 -532.65179989 622.6595298 -529.5 619 C-525.63155795 614.50838267 -521.46239067 610.35467639 -517.25 606.1875 C-516.02458496 604.96776489 -516.02458496 604.96776489 -514.77441406 603.72338867 C-511.31304958 600.2782266 -507.84571409 596.8390971 -504.37890625 593.39941406 C-501.83384812 590.87253492 -499.29186869 588.34258685 -496.75 585.8125 C-495.97688477 585.04768311 -495.20376953 584.28286621 -494.40722656 583.49487305 C-490.34667641 579.45250579 -486.48991246 575.31721919 -482.75170898 570.9765625 C-479.62386418 567.44722013 -476.25927424 564.15744593 -472.90625 560.84375 C-472.15589478 560.0971814 -471.40553955 559.35061279 -470.63244629 558.5814209 C-467.45783496 555.42298888 -464.27724084 552.27060721 -461.09716797 549.11767578 C-458.76059639 546.79930255 -456.42712001 544.4778448 -454.09375 542.15625 C-453.3862561 541.45705444 -452.67876221 540.75785889 -451.9498291 540.03747559 C-446.78536104 534.89818358 -441.97780856 529.52148152 -437.2749176 523.95996094 C-427.76983975 512.74584176 -427.76983975 512.74584176 -421.40234375 511.03125 C-417.79068378 510.99925301 -414.55084657 511.35144355 -411 512 C-409.82953125 512.165 -408.6590625 512.33 -407.453125 512.5 C-404.61432114 512.92648696 -401.81146196 513.42328985 -399 514 C-397.96555372 517.10333883 -397.87916576 519.22876249 -397.88647461 522.48120117 C-397.88659546 523.61779175 -397.88671631 524.75438232 -397.88684082 525.92541504 C-397.89195679 527.11920776 -397.89707275 528.31300049 -397.90234375 529.54296875 C-397.90335083 530.64080688 -397.90435791 531.73864502 -397.90539551 532.86975098 C-397.91063248 536.97567792 -397.92459372 541.08159 -397.9375 545.1875 C-397.958125 554.365625 -397.97875 563.54375 -398 573 C-420.11 573 -442.22 573 -465 573 C-465 573.66 -465 574.32 -465 575 C-466.03125 575.37125 -467.0625 575.7425 -468.125 576.125 C-474.13929033 578.73038083 -477.89939624 582.78575336 -480.38427734 588.86865234 C-481.61623438 593.133119 -481.58196517 597.52614391 -481.6875 601.9375 C-481.72166016 602.90751953 -481.75582031 603.87753906 -481.79101562 604.87695312 C-481.87288574 607.25118637 -481.94223078 609.62507877 -482 612 C-481.34 612 -480.68 612 -480 612 C-479.67 613.19625 -479.34 614.3925 -479 615.625 C-477.33053764 620.21805741 -474.6688693 622.17755818 -470.64453125 624.7734375 C-470.10183594 625.17820312 -469.55914062 625.58296875 -469 626 C-469 626.66 -469 627.32 -469 628 C-403.99 628 -338.98 628 -272 628 C-271.34 626.68 -270.68 625.36 -270 624 C-269.01 623.67 -268.02 623.34 -267 623 C-265.83333333 621.08333333 -265.83333333 621.08333333 -265 619 C-264.67 618.34 -264.34 617.68 -264 617 C-263.34 617 -262.68 617 -262 617 C-260.13971378 611.4340834 -259.60434551 606.41622156 -259.5625 600.5625 C-259.52962891 599.75490234 -259.49675781 598.94730469 -259.46289062 598.11523438 C-259.4082321 591.94875941 -260.99405404 587.72805711 -265 583 C-267.6526218 581.15524326 -267.6526218 581.15524326 -270 580 C-270 579.34 -270 578.68 -270 578 C-270.99 578 -271.98 578 -273 578 C-273 577.34 -273 576.68 -273 576 C-273.66 576 -274.32 576 -275 576 C-275 575.01 -275 574.02 -275 573 C-297.11 573 -319.22 573 -342 573 C-342 553.86 -342 534.72 -342 515 C-338.04 514.34 -334.08 513.68 -330 513 C-319.33637505 511.06958884 -309.70271078 509.00455609 -300 504 C-296.55338131 502.44106785 -294.89623836 502 -291 502 C-291 501.34 -291 500.68 -291 500 C-289.73160474 499.49384702 -288.46016898 498.99530901 -287.1875 498.5 C-286.12595703 498.08234375 -286.12595703 498.08234375 -285.04296875 497.65625 C-283 497 -283 497 -280 497 C-280 496.34 -280 495.68 -280 495 C-276.19403891 492.24434865 -272.16516882 489.89261946 -268.125 487.5 C-247.66096691 475.05662474 -229.1305134 458.85310877 -215.59375 439.01953125 C-215.0678125 438.35308594 -214.541875 437.68664062 -214 437 C-213.34 437 -212.68 437 -212 437 C-211.90460937 436.44054687 -211.80921875 435.88109375 -211.7109375 435.3046875 C-210.82781182 432.44180754 -209.4024712 430.53246099 -207.625 428.125 C-205.02118045 424.51066321 -202.81655396 421.06053238 -201 417 C-200.34 417 -199.68 417 -199 417 C-199 415.68 -199 414.36 -199 413 C-198.34 413 -197.68 413 -197 413 C-196.731875 412.175 -196.46375 411.35 -196.1875 410.5 C-194.87511605 406.63192098 -193.44665508 402.81916941 -192 399 C-191.5325262 397.74870759 -191.0650814 396.49740434 -190.59765625 395.24609375 C-189.56113462 392.47775602 -188.50486964 389.71838354 -187.4296875 386.96484375 C-187.17316406 386.30033203 -186.91664063 385.63582031 -186.65234375 384.95117188 C-186.13178467 383.60268842 -185.60568546 382.25633127 -185.07421875 380.91210938 C-183.42390917 376.60203689 -182.59267501 372.60161827 -182 368 C-181.505 366.88625 -181.01 365.7725 -180.5 364.625 C-176.66599219 355.35948111 -177.64761697 344.12929706 -177.54003906 334.2434082 C-177.51331712 332.37075384 -177.47226704 330.49824985 -177.41699219 328.6262207 C-176.54267096 316.51311392 -176.54267096 316.51311392 -181.2734375 305.90234375 C-183.04300827 304.28362616 -183.04300827 304.28362616 -185 303 C-185.71865234 302.48880615 -186.43730469 301.9776123 -187.17773438 301.45092773 C-193.26771635 297.30415089 -198.4120968 295.69087514 -205.8125 295.875 C-206.85180664 295.88853516 -206.85180664 295.88853516 -207.91210938 295.90234375 C-209.60822395 295.92573843 -211.30415871 295.96160359 -213 296 C-208.70713925 290.86457255 -204.20209017 286.08053003 -199.44140625 281.37890625 C-198.73402817 280.67531479 -198.02665009 279.97172333 -197.2978363 279.24681091 C-194.30156801 276.26673342 -191.29934942 273.29267751 -188.29760742 270.31811523 C-186.09343156 268.13215768 -183.89236657 265.94310066 -181.69140625 263.75390625 C-181.02452286 263.0953212 -180.35763947 262.43673615 -179.67054749 261.75819397 C-176.51509812 258.6190107 -173.47114567 255.4394585 -170.56616211 252.06616211 C-166.67225015 247.55542532 -162.48454786 243.37659575 -158.25 239.1875 C-157.43305664 238.37434326 -156.61611328 237.56118652 -155.77441406 236.72338867 C-152.31304958 233.2782266 -148.84571409 229.8390971 -145.37890625 226.39941406 C-142.83384812 223.87253492 -140.29186869 221.34258685 -137.75 218.8125 C-136.97688477 218.04768311 -136.20376953 217.28286621 -135.40722656 216.49487305 C-131.35538474 212.46117512 -127.50875158 208.3345945 -123.77856445 204.00341797 C-120.50285606 200.3135809 -116.97572427 196.87448564 -113.46875 193.40625 C-112.67400269 192.61528931 -111.87925537 191.82432861 -111.0604248 191.00939941 C-107.69464452 187.65981427 -104.32288952 184.3162673 -100.95166016 180.97216797 C-98.47609773 178.51479061 -96.00361917 176.05433942 -93.53125 173.59375 C-92.78000854 172.85080688 -92.02876709 172.10786377 -91.25476074 171.34240723 C-87.88783807 167.99098204 -84.61442129 164.61399879 -81.51367188 161.01367188 C-77.63995705 156.51811009 -73.46697011 152.35920667 -69.25 148.1875 C-68.43305664 147.37434326 -67.61611328 146.56118652 -66.77441406 145.72338867 C-63.31304958 142.2782266 -59.84571409 138.8390971 -56.37890625 135.39941406 C-53.83384812 132.87253492 -51.29186869 130.34258685 -48.75 127.8125 C-47.97688477 127.04768311 -47.20376953 126.28286621 -46.40722656 125.49487305 C-42.30639631 121.41240606 -38.40599773 117.23572052 -34.63085938 112.85125732 C-32.17311089 110.06136327 -29.54056786 107.4723099 -26.875 104.8828125 C-25.74450039 103.76982703 -24.61430121 102.65653634 -23.484375 101.54296875 C-21.74354144 99.83297673 -20.00047949 98.12546677 -18.25195312 96.42333984 C-2.5046052 81.07011845 9.62397683 63.71662028 10.47265625 40.93603516 C10.62278667 27.561023 7.61227831 16.10568867 1.171875 4.29296875 C0 2 0 2 0 0 Z " fill="#000000" transform="translate(913,173)"/>
<path d="M0 0 C0.85078125 0.31066406 1.7015625 0.62132812 2.578125 0.94140625 C18.39376604 7.10729428 29.17218306 20.12265386 36.17480469 35.09521484 C38.26289833 39.91512804 39.74464299 44.90764785 41 50 C41.18949219 50.76570313 41.37898437 51.53140625 41.57421875 52.3203125 C44.41345834 70.18928827 40.31604199 87.61084202 31 103 C24.12120867 112.4690003 15.69398959 120.51190517 7.375 128.6875 C5.43685575 130.59775554 3.5003318 132.50958734 1.56680298 134.42451477 C0.37532382 135.60401311 -0.81881063 136.7808386 -2.01626587 137.95426941 C-4.9276575 140.83115428 -7.70135626 143.76826288 -10.37255859 146.87036133 C-14.2893664 151.40032458 -18.49444153 155.60261916 -22.75 159.8125 C-23.56694336 160.62565674 -24.38388672 161.43881348 -25.22558594 162.27661133 C-28.68695042 165.7217734 -32.15428591 169.1609029 -35.62109375 172.60058594 C-38.16615188 175.12746508 -40.70813131 177.65741315 -43.25 180.1875 C-44.02311523 180.95231689 -44.79623047 181.71713379 -45.59277344 182.50512695 C-49.64461526 186.53882488 -53.49124842 190.6654055 -57.22143555 194.99658203 C-60.49714394 198.6864191 -64.02427573 202.12551436 -67.53125 205.59375 C-68.32599731 206.38471069 -69.12074463 207.17567139 -69.9395752 207.99060059 C-73.30535548 211.34018573 -76.67711048 214.6837327 -80.04833984 218.02783203 C-82.52390227 220.48520939 -84.99638083 222.94566058 -87.46875 225.40625 C-88.21999146 226.14919312 -88.97123291 226.89213623 -89.74523926 227.65759277 C-93.11216193 231.00901796 -96.38557871 234.38600121 -99.48632812 237.98632812 C-103.36004295 242.48188991 -107.53302989 246.64079333 -111.75 250.8125 C-112.56694336 251.62565674 -113.38388672 252.43881348 -114.22558594 253.27661133 C-117.68695042 256.7217734 -121.15428591 260.1609029 -124.62109375 263.60058594 C-127.16615188 266.12746508 -129.70813131 268.65741315 -132.25 271.1875 C-133.02311523 271.95231689 -133.79623047 272.71713379 -134.59277344 273.50512695 C-138.65643225 277.55058895 -142.51850962 281.68833651 -146.259552 286.0324707 C-149.3266827 289.49977884 -152.61779849 292.74017741 -155.90234375 296 C-156.6249086 296.7211499 -157.34747345 297.4422998 -158.0919342 298.18530273 C-160.37142604 300.45925415 -162.6543924 302.72967954 -164.9375 305 C-166.49567506 306.55315235 -168.05361993 308.10653567 -169.61132812 309.66015625 C-173.40489759 313.44277586 -177.20131615 317.2225169 -181 321 C-180.06333496 320.97099609 -179.12666992 320.94199219 -178.16162109 320.91210938 C-176.91977051 320.88955078 -175.67791992 320.86699219 -174.3984375 320.84375 C-173.17302246 320.81474609 -171.94760742 320.78574219 -170.68505859 320.75585938 C-161.51020669 321.36370699 -154.52122479 326.75372259 -148.42578125 333.265625 C-145.25540989 337.12218633 -145.85594604 341.08130716 -145.8671875 345.84765625 C-145.86623077 346.73351913 -145.86527405 347.61938202 -145.86428833 348.53208923 C-145.86360672 350.4125882 -145.86545965 352.29308951 -145.86962891 354.17358398 C-145.87493323 357.02658523 -145.86970636 359.87942584 -145.86328125 362.73242188 C-145.8639429 364.56250034 -145.86522586 366.39257871 -145.8671875 368.22265625 C-145.86516327 369.06675552 -145.86313904 369.9108548 -145.86105347 370.78053284 C-145.89409966 379.31125493 -146.55048761 386.13511176 -150 394 C-150.32447002 395.53509764 -150.61342051 397.07794417 -150.875 398.625 C-152.50429655 407.54539861 -156.41488863 415.80852633 -160.1640625 424.01171875 C-161.38893918 426.92509365 -162.14023232 429.96215419 -163 433 C-163.95564988 435.02156704 -164.94274747 437.02966574 -166 439 C-166.66 439 -167.32 439 -168 439 C-168 440.32 -168 441.64 -168 443 C-168.66 443 -169.32 443 -170 443 C-170.24621094 443.87269531 -170.49242187 444.74539063 -170.74609375 445.64453125 C-172.08152716 449.21816769 -173.74481723 451.67156797 -176.0625 454.6875 C-179.05314187 458.56415744 -179.05314187 458.56415744 -181 463 C-181.66 463 -182.32 463 -183 463 C-183.25394531 463.73605469 -183.50789062 464.47210937 -183.76953125 465.23046875 C-185.07406061 468.16669515 -186.50706183 469.96927863 -188.6875 472.3125 C-189.40421875 473.09238281 -190.1209375 473.87226562 -190.859375 474.67578125 C-191.56578125 475.44277344 -192.2721875 476.20976563 -193 477 C-194.14955464 478.33012628 -195.29558016 479.66331346 -196.4375 481 C-209.06946676 495.35965729 -224.24564587 507.05773604 -240.7734375 516.640625 C-243.04493726 517.97168351 -243.04493726 517.97168351 -245.1640625 519.671875 C-247 521 -247 521 -249 521 C-249 521.66 -249 522.32 -249 523 C-255.5 526 -255.5 526 -260 526 C-260 526.66 -260 527.32 -260 528 C-260.94101562 528.32613281 -261.88203125 528.65226563 -262.8515625 528.98828125 C-264.71941406 529.64376953 -264.71941406 529.64376953 -266.625 530.3125 C-267.85476563 530.74175781 -269.08453125 531.17101562 -270.3515625 531.61328125 C-273.9321162 532.88393757 -273.9321162 532.88393757 -276.85546875 534.53515625 C-281.02446334 536.47723447 -285.18891563 537.26452097 -289.6875 538.125 C-291.3791896 538.45950768 -293.07060861 538.79538754 -294.76171875 539.1328125 C-295.50381592 539.27605957 -296.24591309 539.41930664 -297.01049805 539.56689453 C-299.19304914 540.00479797 -299.19304914 540.00479797 -302 541 C-304.97 541 -307.94 541 -311 541 C-311 560.14 -311 579.28 -311 599 C-288.89 599 -266.78 599 -244 599 C-244 599.99 -244 600.98 -244 602 C-243.34 602 -242.68 602 -242 602 C-242 602.66 -242 603.32 -242 604 C-241.01 604 -240.02 604 -239 604 C-239 604.66 -239 605.32 -239 606 C-238.4225 606.0825 -237.845 606.165 -237.25 606.25 C-233.35404464 607.54865179 -231.53097232 610.15096358 -229.40234375 613.5546875 C-227.59840616 617.9866456 -227.55838344 621.70402358 -227.625 626.4375 C-227.60759766 627.66823242 -227.60759766 627.66823242 -227.58984375 628.92382812 C-227.61586658 634.35826341 -228.5344257 638.15364629 -231 643 C-231.66 643 -232.32 643 -233 643 C-233.27611771 643.58374136 -233.55223543 644.16748272 -233.83672035 644.76891321 C-235.7135367 648.36851213 -237.86686538 651.38913148 -241 654 C-244.08962087 654.69757837 -246.12679779 654.92544953 -249.20040894 654.84178162 C-250.0099953 654.84776259 -250.81958166 654.85374356 -251.65370095 654.85990578 C-254.3586266 654.87140997 -257.06049268 654.83298919 -259.76513672 654.79467773 C-261.70688302 654.79270264 -263.64863455 654.79381268 -265.59037781 654.79777527 C-270.85684207 654.79978347 -276.12219 654.75863335 -281.38839483 654.70975757 C-286.89364809 654.66599408 -292.39892703 654.6618861 -297.90432739 654.65357971 C-308.32729355 654.63182415 -318.74974566 654.57438233 -329.17248547 654.50413328 C-341.03931525 654.42588755 -352.90616959 654.38740268 -364.77319312 654.35226524 C-389.18241372 654.2791 -413.59117806 654.15597768 -438 654 C-438 653.34 -438 652.68 -438 652 C-438.53625 651.773125 -439.0725 651.54625 -439.625 651.3125 C-442.88056206 649.5133736 -445.36213908 647.63786092 -448 645 C-448.875 641.1875 -448.875 641.1875 -449 638 C-449.66 638 -450.32 638 -451 638 C-451.1174875 634.66696997 -451.18767324 631.33448163 -451.25 628 C-451.28351563 627.06542969 -451.31703125 626.13085938 -451.3515625 625.16796875 C-451.45988535 617.42288498 -449.90662257 612.31600603 -444.78125 606.46875 C-444.0284375 605.8190625 -443.275625 605.169375 -442.5 604.5 C-441.7471875 603.8296875 -440.994375 603.159375 -440.21875 602.46875 C-438 601 -438 601 -434 601 C-434 600.34 -434 599.68 -434 599 C-411.89 599 -389.78 599 -367 599 C-367.33 579.53 -367.66 560.06 -368 540 C-370.31 540 -372.62 540 -375 540 C-377.68655747 539.55634831 -380.25063962 538.93343446 -382.8828125 538.234375 C-388.32980541 537.42060738 -391.91967414 537.48719009 -396.39306641 540.74023438 C-402.97853563 546.56599009 -408.83060612 553.13333154 -414.54434204 559.8026123 C-418.85930073 564.80607046 -423.39549202 569.51309884 -428.09375 574.15625 C-428.84410522 574.9028186 -429.59446045 575.64938721 -430.36755371 576.4185791 C-433.54216504 579.57701112 -436.72275916 582.72939279 -439.90283203 585.88232422 C-442.23940361 588.20069745 -444.57287999 590.5221552 -446.90625 592.84375 C-447.6137439 593.54294556 -448.32123779 594.24214111 -449.0501709 594.96252441 C-452.30675504 598.20323316 -455.46036939 601.47710912 -458.45898438 604.95898438 C-462.34322962 609.46244518 -466.52387233 613.63173406 -470.75 617.8125 C-471.97541504 619.03223511 -471.97541504 619.03223511 -473.22558594 620.27661133 C-476.68695042 623.7217734 -480.15428591 627.1609029 -483.62109375 630.60058594 C-486.16615188 633.12746508 -488.70813131 635.65741315 -491.25 638.1875 C-492.02311523 638.95231689 -492.79623047 639.71713379 -493.59277344 640.50512695 C-497.01484855 643.91187822 -500.34820011 647.3404702 -503.5 651 C-507.36844205 655.49161733 -511.53760933 659.64532361 -515.75 663.8125 C-516.97541504 665.03223511 -516.97541504 665.03223511 -518.22558594 666.27661133 C-521.68695042 669.7217734 -525.15428591 673.1609029 -528.62109375 676.60058594 C-531.16615188 679.12746508 -533.70813131 681.65741315 -536.25 684.1875 C-537.02311523 684.95231689 -537.79623047 685.71713379 -538.59277344 686.50512695 C-542.64461526 690.53882488 -546.49124842 694.6654055 -550.22143555 698.99658203 C-553.49714394 702.6864191 -557.02427573 706.12551436 -560.53125 709.59375 C-561.32599731 710.38471069 -562.12074463 711.17567139 -562.9395752 711.99060059 C-566.30535548 715.34018573 -569.67711048 718.6837327 -573.04833984 722.02783203 C-575.52390227 724.48520939 -577.99638083 726.94566058 -580.46875 729.40625 C-581.21999146 730.14919312 -581.97123291 730.89213623 -582.74523926 731.65759277 C-586.80491003 735.69857744 -590.67218764 739.83515261 -594.41064453 744.1746521 C-598.00589538 748.30373695 -601.89607127 752.16042711 -605.75048828 756.0456543 C-606.74752831 757.05421986 -607.74008529 758.06723766 -608.72802734 759.0847168 C-618.49697462 769.14384688 -628.70016272 776.27232347 -642 781 C-642.886875 781.32097656 -643.77375 781.64195312 -644.6875 781.97265625 C-661.05929607 786.97256556 -678.98723198 784.91432816 -694.25 777.625 C-695.84120478 776.76439742 -697.42469356 775.88937003 -699 775 C-699.81984375 774.57074219 -700.6396875 774.14148438 -701.484375 773.69921875 C-718.18175908 764.49491541 -726.84028377 749.16173054 -732.04296875 731.44921875 C-736.53865939 712.81215378 -733.57835914 696.1606845 -725.07421875 679.37890625 C-720.20366629 671.44476713 -714.15641626 664.89743886 -707.5 658.4375 C-706.04957197 657.0221002 -704.60163229 655.60414578 -703.15625 654.18359375 C-702.52525391 653.57056396 -701.89425781 652.95753418 -701.24414062 652.32592773 C-699.34806251 650.36074755 -697.56756648 648.35747667 -695.78710938 646.28930664 C-691.80950571 641.71275203 -687.558971 637.45022007 -683.25 633.1875 C-682.43305664 632.37434326 -681.61611328 631.56118652 -680.77441406 630.72338867 C-677.31304958 627.2782266 -673.84571409 623.8390971 -670.37890625 620.39941406 C-667.83384812 617.87253492 -665.29186869 615.34258685 -662.75 612.8125 C-661.59032715 611.66527466 -661.59032715 611.66527466 -660.40722656 610.49487305 C-656.98515145 607.08812178 -653.65179989 603.6595298 -650.5 600 C-646.63155795 595.50838267 -642.46239067 591.35467639 -638.25 587.1875 C-637.02458496 585.96776489 -637.02458496 585.96776489 -635.77441406 584.72338867 C-632.31304958 581.2782266 -628.84571409 577.8390971 -625.37890625 574.39941406 C-622.83384812 571.87253492 -620.29186869 569.34258685 -617.75 566.8125 C-616.59032715 565.66527466 -616.59032715 565.66527466 -615.40722656 564.49487305 C-611.98515145 561.08812178 -608.65179989 557.6595298 -605.5 554 C-601.63155795 549.50838267 -597.46239067 545.35467639 -593.25 541.1875 C-592.02458496 539.96776489 -592.02458496 539.96776489 -590.77441406 538.72338867 C-587.31304958 535.2782266 -583.84571409 531.8390971 -580.37890625 528.39941406 C-577.83384812 525.87253492 -575.29186869 523.34258685 -572.75 520.8125 C-571.97688477 520.04768311 -571.20376953 519.28286621 -570.40722656 518.49487305 C-566.35538474 514.46117512 -562.50875158 510.3345945 -558.77856445 506.00341797 C-555.50285606 502.3135809 -551.97572427 498.87448564 -548.46875 495.40625 C-547.67400269 494.61528931 -546.87925537 493.82432861 -546.0604248 493.00939941 C-542.69464452 489.65981427 -539.32288952 486.3162673 -535.95166016 482.97216797 C-533.47609773 480.51479061 -531.00361917 478.05433942 -528.53125 475.59375 C-527.78000854 474.85080688 -527.02876709 474.10786377 -526.25476074 473.34240723 C-522.17808322 469.28449409 -518.28657871 465.14189321 -514.5670166 460.75305176 C-512.99347119 458.99269609 -511.31539933 457.45417596 -509.5625 455.875 C-506.69430886 453.21544925 -506.69430886 453.21544925 -506.625 449.625 C-506.74875 448.75875 -506.8725 447.8925 -507 447 C-507.66 447 -508.32 447 -509 447 C-509.61875 445.4840625 -509.61875 445.4840625 -510.25 443.9375 C-511.38477798 441.2552975 -512.67474327 438.79966587 -514.1875 436.3125 C-516 433 -516 433 -516 429 C-516.66 429 -517.32 429 -518 429 C-518.93852103 426.35452486 -519.87596524 423.70867841 -520.8125 421.0625 C-521.22580566 419.89630127 -521.22580566 419.89630127 -521.64746094 418.70654297 C-523.06520385 414.69407886 -524.44873853 410.67711473 -525.75 406.625 C-526.84139957 402.96364622 -526.84139957 402.96364622 -529 400 C-529.58845385 397.47443489 -530.10677076 394.98620796 -530.5625 392.4375 C-531.33552171 387.58237672 -531.33552171 387.58237672 -533 383 C-534.3047496 373.62513251 -534.16165728 364.00725092 -534.25 354.5625 C-534.2713501 353.34191895 -534.2927002 352.12133789 -534.31469727 350.86376953 C-534.34991124 341.56087736 -533.08092042 335.6416136 -526.7421875 328.640625 C-520.64972859 322.90333186 -514.80670242 320.85166657 -506.5 320.875 C-505.12328125 320.87113281 -505.12328125 320.87113281 -503.71875 320.8671875 C-501.04995546 320.99755965 -498.60134847 321.40621394 -496 322 C-496 322.66 -496 323.32 -496 324 C-495.43152344 324.10699219 -494.86304688 324.21398437 -494.27734375 324.32421875 C-488.8758314 325.9270689 -484.62834667 329.74145185 -481.375 334.25390625 C-476.46601451 344.05726716 -476.85866212 355.4304749 -476.19726562 366.15478516 C-475.62625751 374.39058783 -474.27342353 381.39194332 -471 389 C-470.24421719 391.52796319 -469.535725 394.0705435 -468.875 396.625 C-468.54242188 397.89601563 -468.20984375 399.16703125 -467.8671875 400.4765625 C-467.16959127 403.31093997 -466.53842444 406.13206575 -466 409 C-460.71702181 406.30630756 -456.80357506 402.24419921 -452.625 398.125 C-451.87605469 397.41730469 -451.12710937 396.70960938 -450.35546875 395.98046875 C-449.65292969 395.28824219 -448.95039063 394.59601563 -448.2265625 393.8828125 C-447.58283691 393.25777832 -446.93911133 392.63274414 -446.27587891 391.98876953 C-444.72826079 390.02895968 -444.72826079 390.02895968 -445.25561523 387.42553711 C-445.50126221 386.62510986 -445.74690918 385.82468262 -446 385 C-446.22558594 384.11183594 -446.45117188 383.22367188 -446.68359375 382.30859375 C-447.18155228 380.41222318 -447.68151443 378.51637747 -448.18359375 376.62109375 C-450.58947332 365.95003937 -451.28596029 355.68121788 -451.24291992 344.7734375 C-451.2439953 343.17539391 -451.24593775 341.5773507 -451.24867249 339.97930908 C-451.25348326 335.67352693 -451.24591232 331.36784984 -451.23571944 327.06208038 C-451.22687401 322.53536619 -451.22869765 318.00865467 -451.2290802 313.48193359 C-451.2281463 305.88312036 -451.21949998 298.28434728 -451.20581055 290.68554688 C-451.19008804 281.92639087 -451.18481264 273.16727877 -451.1855461 264.40810966 C-451.186224 255.0448752 -451.17926965 245.68165744 -451.1700995 236.31842804 C-451.16797823 233.63698766 -451.16725969 230.95555002 -451.16686058 228.27410889 C-451.16584858 224.04525932 -451.15968278 219.81644592 -451.14969444 215.58760834 C-451.14679879 214.0445859 -451.14553804 212.50155929 -451.14612198 210.95853424 C-451.15184392 186.61298302 -451.15184392 186.61298302 -447 177 C-446.2282317 174.89617608 -445.45749037 172.79197528 -444.6875 170.6875 C-440.76843163 160.56324004 -434.83382447 146.0928882 -425.9453125 139.46875 C-423.52217897 137.63923553 -422.51235732 135.61586214 -421 133 C-410.45092173 120.44822696 -395.13072237 110.94421236 -380 105 C-379.20335937 104.6596875 -378.40671875 104.319375 -377.5859375 103.96875 C-370.40639266 101.07210367 -363.71196023 100.24521336 -356 100 C-356 99.34 -356 98.68 -356 98 C-345.11 98 -334.22 98 -323 98 C-323 98.66 -323 99.32 -323 100 C-322.36835937 100.01417969 -321.73671875 100.02835937 -321.0859375 100.04296875 C-310.28680798 100.61871485 -300.09174631 104.15530594 -291 110 C-291 110.66 -291 111.32 -291 112 C-290.05125 112.020625 -289.1025 112.04125 -288.125 112.0625 C-282.48271697 112.87016551 -278.39686318 116.6136792 -274 120 C-272.74509766 120.94746094 -272.74509766 120.94746094 -271.46484375 121.9140625 C-264.26262174 127.41819965 -264.26262174 127.41819965 -262 130 C-262 130.66 -262 131.32 -262 132 C-261.40703125 132.09539062 -260.8140625 132.19078125 -260.203125 132.2890625 C-252.27852698 134.84629094 -245.1417658 148.18920048 -241.265625 155.0859375 C-240 158 -240 158 -240 162 C-239.34 162 -238.68 162 -238 162 C-238 162.99 -238 163.98 -238 165 C-237.34 165 -236.68 165 -236 165 C-235.01 167.64 -234.02 170.28 -233 173 C-229.27964651 169.30458443 -225.56275774 165.60572918 -221.84887695 161.90380859 C-220.58807785 160.6480018 -219.32637824 159.39309836 -218.0637207 158.13916016 C-216.23664858 156.32437938 -214.41296716 154.50624663 -212.58984375 152.6875 C-212.03538071 152.13819824 -211.48091766 151.58889648 -210.90965271 151.02294922 C-208.03481137 148.14850996 -205.28803224 145.213895 -202.63500977 142.1328125 C-198.71412285 137.6035477 -194.50709765 133.3989035 -190.25 129.1875 C-189.43305664 128.37434326 -188.61611328 127.56118652 -187.77441406 126.72338867 C-184.31304958 123.2782266 -180.84571409 119.8390971 -177.37890625 116.39941406 C-174.83384812 113.87253492 -172.29186869 111.34258685 -169.75 108.8125 C-168.97688477 108.04768311 -168.20376953 107.28286621 -167.40722656 106.49487305 C-163.98515145 103.08812178 -160.65179989 99.6595298 -157.5 96 C-153.63155795 91.50838267 -149.46239067 87.35467639 -145.25 83.1875 C-144.43305664 82.37434326 -143.61611328 81.56118652 -142.77441406 80.72338867 C-139.31304958 77.2782266 -135.84571409 73.8390971 -132.37890625 70.39941406 C-129.83384812 67.87253492 -127.29186869 65.34258685 -124.75 62.8125 C-123.97688477 62.04768311 -123.20376953 61.28286621 -122.40722656 60.49487305 C-118.35518413 56.46097541 -114.50037901 52.33707134 -110.76965332 48.00564575 C-107.52300724 44.32604261 -104.06103336 40.85726869 -100.609375 37.37109375 C-99.82411438 36.57776138 -99.03885376 35.78442902 -98.22979736 34.96705627 C-96.57735998 33.30087557 -94.9234267 31.6361772 -93.26806641 29.97290039 C-91.59201051 28.28530678 -89.92043482 26.59325153 -88.25341797 24.89672852 C-85.81947184 22.41982475 -83.37227716 19.95670671 -80.921875 17.49609375 C-80.19127869 16.74798935 -79.46068237 15.99988495 -78.70794678 15.22911072 C-71.78634918 8.33574173 -63.87410257 2.79381429 -54.75 -0.8125 C-53.81671875 -1.19019531 -52.8834375 -1.56789062 -51.921875 -1.95703125 C-50.95765625 -2.30121094 -49.9934375 -2.64539063 -49 -3 C-47.98292969 -3.36609375 -46.96585938 -3.7321875 -45.91796875 -4.109375 C-31.25364656 -8.13876083 -13.79533705 -5.80413571 0 0 Z " fill="#FE5252" transform="translate(882,147)"/>
<path d="M0 0 C10.89 0 21.78 0 33 0 C33 0.66 33 1.32 33 2 C33.63164063 2.01417969 34.26328125 2.02835938 34.9140625 2.04296875 C45.71319202 2.61871485 55.90825369 6.15530594 65 12 C65 12.66 65 13.32 65 14 C65.94875 14.020625 66.8975 14.04125 67.875 14.0625 C73.51728303 14.87016551 77.60313682 18.6136792 82 22 C83.25490234 22.94746094 83.25490234 22.94746094 84.53515625 23.9140625 C91.73737826 29.41819965 91.73737826 29.41819965 94 32 C94 32.66 94 33.32 94 34 C94.59296875 34.09539062 95.1859375 34.19078125 95.796875 34.2890625 C103.72147302 36.84629094 110.8582342 50.18920048 114.734375 57.0859375 C116 60 116 60 116 64 C116.66 64 117.32 64 118 64 C118 64.99 118 65.98 118 67 C118.66 67 119.32 67 120 67 C121.28505026 70.85515079 122.06627048 74.05135964 121 78 C119.07237063 80.45334647 116.98249006 82.46000883 114.65234375 84.53125 C112.54114016 86.49631726 110.74151314 88.41792945 108.88110352 90.60351562 C104.87130588 95.21620422 100.5933664 99.51575373 96.25 103.8125 C95.43305664 104.62565674 94.61611328 105.43881348 93.77441406 106.27661133 C90.31304958 109.7217734 86.84571409 113.1609029 83.37890625 116.60058594 C80.83384812 119.12746508 78.29186869 121.65741315 75.75 124.1875 C74.97688477 124.95231689 74.20376953 125.71713379 73.40722656 126.50512695 C69.98515145 129.91187822 66.65179989 133.3404702 63.5 137 C59.63155795 141.49161733 55.46239067 145.64532361 51.25 149.8125 C50.02458496 151.03223511 50.02458496 151.03223511 48.77441406 152.27661133 C45.31304958 155.7217734 41.84571409 159.1609029 38.37890625 162.60058594 C35.83384812 165.12746508 33.29186869 167.65741315 30.75 170.1875 C29.97688477 170.95231689 29.20376953 171.71713379 28.40722656 172.50512695 C24.98515145 175.91187822 21.65179989 179.3404702 18.5 183 C14.63155795 187.49161733 10.46239067 191.64532361 6.25 195.8125 C5.43305664 196.62565674 4.61611328 197.43881348 3.77441406 198.27661133 C0.31304958 201.7217734 -3.15428591 205.1609029 -6.62109375 208.60058594 C-9.16615188 211.12746508 -11.70813131 213.65741315 -14.25 216.1875 C-15.02311523 216.95231689 -15.79623047 217.71713379 -16.59277344 218.50512695 C-20.64461526 222.53882488 -24.49124842 226.6654055 -28.22143555 230.99658203 C-31.49714394 234.6864191 -35.02427573 238.12551436 -38.53125 241.59375 C-39.32599731 242.38471069 -40.12074463 243.17567139 -40.9395752 243.99060059 C-44.30535548 247.34018573 -47.67711048 250.6837327 -51.04833984 254.02783203 C-53.52390227 256.48520939 -55.99638083 258.94566058 -58.46875 261.40625 C-59.59561218 262.52066467 -59.59561218 262.52066467 -60.74523926 263.65759277 C-64.81739838 267.71100831 -68.71298311 271.85039109 -72.4455719 276.21948242 C-74.97370149 279.11532507 -77.69831447 281.80549378 -80.4375 284.5 C-81.24864258 285.304375 -81.24864258 285.304375 -82.07617188 286.125 C-83.38176617 287.41904036 -84.69052996 288.70988174 -86 290 C-88.33107605 287.13098332 -89.78844467 284.46625579 -91.0625 281 C-91.38347656 280.154375 -91.70445312 279.30875 -92.03515625 278.4375 C-94.97465818 267.96478057 -95.28553612 257.57372015 -95.24291992 246.7734375 C-95.2439953 245.17539391 -95.24593775 243.5773507 -95.24867249 241.97930908 C-95.25348326 237.67352693 -95.24591232 233.36784984 -95.23571944 229.06208038 C-95.22687401 224.53536619 -95.22869765 220.00865467 -95.2290802 215.48193359 C-95.2281463 207.88312036 -95.21949998 200.28434728 -95.20581055 192.68554688 C-95.19008804 183.92639087 -95.18481264 175.16727877 -95.1855461 166.40810966 C-95.186224 157.0448752 -95.17926965 147.68165744 -95.1700995 138.31842804 C-95.16797823 135.63698766 -95.16725969 132.95555002 -95.16686058 130.27410889 C-95.16584858 126.04525932 -95.15968278 121.81644592 -95.14969444 117.58760834 C-95.14679879 116.0445859 -95.14553804 114.50155929 -95.14612198 112.95853424 C-95.15184392 88.61298302 -95.15184392 88.61298302 -91 79 C-90.2282317 76.89617608 -89.45749037 74.79197528 -88.6875 72.6875 C-84.76843163 62.56324004 -78.83382447 48.0928882 -69.9453125 41.46875 C-67.52217897 39.63923553 -66.51235732 37.61586214 -65 35 C-54.45092173 22.44822696 -39.13072237 12.94421236 -24 7 C-23.20335937 6.6596875 -22.40671875 6.319375 -21.5859375 5.96875 C-14.40639266 3.07210367 -7.71196023 2.24521336 0 2 C0 1.34 0 0.68 0 0 Z " fill="#FDFDFD" transform="translate(526,245)"/>
<path d="M0 0 C4.64116294 3.03044384 9.32728436 6.81863121 11.84765625 11.859375 C11.94709844 14.81656044 11.98744372 17.7496598 11.98046875 20.70703125 C11.98190384 22.03582558 11.98190384 22.03582558 11.98336792 23.39146423 C11.98404953 25.2719632 11.9821966 27.15246451 11.97802734 29.03295898 C11.97272302 31.88596023 11.97794989 34.73880084 11.984375 37.59179688 C11.98371335 39.42187534 11.98243039 41.25195371 11.98046875 43.08203125 C11.98249298 43.92613052 11.98451721 44.7702298 11.98660278 45.63990784 C11.95355659 54.17062993 11.29716864 60.99448676 7.84765625 68.859375 C7.52318623 70.39447264 7.23423574 71.93731917 6.97265625 73.484375 C5.3433597 82.40477361 1.43276762 90.66790133 -2.31640625 98.87109375 C-3.54128293 101.78446865 -4.29257607 104.82152919 -5.15234375 107.859375 C-6.10799363 109.88094204 -7.09509122 111.88904074 -8.15234375 113.859375 C-8.81234375 113.859375 -9.47234375 113.859375 -10.15234375 113.859375 C-10.15234375 115.179375 -10.15234375 116.499375 -10.15234375 117.859375 C-10.81234375 117.859375 -11.47234375 117.859375 -12.15234375 117.859375 C-12.39855469 118.73207031 -12.64476562 119.60476563 -12.8984375 120.50390625 C-14.23387091 124.07754269 -15.89716098 126.53094297 -18.21484375 129.546875 C-21.20548562 133.42353244 -21.20548562 133.42353244 -23.15234375 137.859375 C-23.81234375 137.859375 -24.47234375 137.859375 -25.15234375 137.859375 C-25.40628906 138.59542969 -25.66023438 139.33148437 -25.921875 140.08984375 C-27.22640436 143.02607015 -28.65940558 144.82865363 -30.83984375 147.171875 C-31.5565625 147.95175781 -32.27328125 148.73164062 -33.01171875 149.53515625 C-33.718125 150.30214844 -34.42453125 151.06914063 -35.15234375 151.859375 C-36.30189839 153.18950128 -37.44792391 154.52268846 -38.58984375 155.859375 C-51.22181051 170.21903229 -66.39798962 181.91711104 -82.92578125 191.5 C-85.19728101 192.83105851 -85.19728101 192.83105851 -87.31640625 194.53125 C-89.15234375 195.859375 -89.15234375 195.859375 -91.15234375 195.859375 C-91.15234375 196.519375 -91.15234375 197.179375 -91.15234375 197.859375 C-97.65234375 200.859375 -97.65234375 200.859375 -102.15234375 200.859375 C-102.15234375 201.519375 -102.15234375 202.179375 -102.15234375 202.859375 C-103.09335937 203.18550781 -104.034375 203.51164063 -105.00390625 203.84765625 C-106.24914062 204.28464844 -107.494375 204.72164062 -108.77734375 205.171875 C-110.62199219 205.81576172 -110.62199219 205.81576172 -112.50390625 206.47265625 C-116.08445995 207.74331257 -116.08445995 207.74331257 -119.0078125 209.39453125 C-123.17680709 211.33660947 -127.34125938 212.12389597 -131.83984375 212.984375 C-133.53153335 213.31888268 -135.22295236 213.65476254 -136.9140625 213.9921875 C-138.02720825 214.20705811 -138.02720825 214.20705811 -139.1628418 214.42626953 C-141.34539289 214.86417297 -141.34539289 214.86417297 -144.15234375 215.859375 C-147.12234375 215.859375 -150.09234375 215.859375 -153.15234375 215.859375 C-153.15234375 234.999375 -153.15234375 254.139375 -153.15234375 273.859375 C-131.04234375 273.859375 -108.93234375 273.859375 -86.15234375 273.859375 C-86.15234375 274.849375 -86.15234375 275.839375 -86.15234375 276.859375 C-85.49234375 276.859375 -84.83234375 276.859375 -84.15234375 276.859375 C-84.15234375 277.519375 -84.15234375 278.179375 -84.15234375 278.859375 C-83.16234375 278.859375 -82.17234375 278.859375 -81.15234375 278.859375 C-81.15234375 279.519375 -81.15234375 280.179375 -81.15234375 280.859375 C-80.57484375 280.941875 -79.99734375 281.024375 -79.40234375 281.109375 C-75.50638839 282.40802679 -73.68331607 285.01033858 -71.5546875 288.4140625 C-69.75074991 292.8460206 -69.71072719 296.56339858 -69.77734375 301.296875 C-69.76574219 302.11736328 -69.75414062 302.93785156 -69.7421875 303.78320312 C-69.76821033 309.21763841 -70.68676945 313.01302129 -73.15234375 317.859375 C-73.81234375 317.859375 -74.47234375 317.859375 -75.15234375 317.859375 C-75.56652032 318.73498704 -75.56652032 318.73498704 -75.9890641 319.62828821 C-77.86588045 323.22788713 -80.01920913 326.24850648 -83.15234375 328.859375 C-86.24196462 329.55695337 -88.27914154 329.78482453 -91.35275269 329.70115662 C-92.16233905 329.70713759 -92.97192541 329.71311856 -93.8060447 329.71928078 C-96.51097035 329.73078497 -99.21283643 329.69236419 -101.91748047 329.65405273 C-103.85922677 329.65207764 -105.8009783 329.65318768 -107.74272156 329.65715027 C-113.00918582 329.65915847 -118.27453375 329.61800835 -123.54073858 329.56913257 C-129.04599184 329.52536908 -134.55127078 329.5212611 -140.05667114 329.51295471 C-150.4796373 329.49119915 -160.90208941 329.43375733 -171.32482922 329.36350828 C-183.191659 329.28526255 -195.05851334 329.24677768 -206.92553687 329.21164024 C-231.33475747 329.138475 -255.74352181 329.01535268 -280.15234375 328.859375 C-280.15234375 328.199375 -280.15234375 327.539375 -280.15234375 326.859375 C-280.95671875 326.5190625 -280.95671875 326.5190625 -281.77734375 326.171875 C-285.03290581 324.3727486 -287.51448283 322.49723592 -290.15234375 319.859375 C-291.02734375 316.046875 -291.02734375 316.046875 -291.15234375 312.859375 C-291.81234375 312.859375 -292.47234375 312.859375 -293.15234375 312.859375 C-293.26983125 309.52634497 -293.34001699 306.19385663 -293.40234375 302.859375 C-293.43585938 301.92480469 -293.469375 300.99023438 -293.50390625 300.02734375 C-293.6122291 292.28225998 -292.05896632 287.17538103 -286.93359375 281.328125 C-286.18078125 280.6784375 -285.42796875 280.02875 -284.65234375 279.359375 C-283.89953125 278.6890625 -283.14671875 278.01875 -282.37109375 277.328125 C-280.15234375 275.859375 -280.15234375 275.859375 -276.15234375 275.859375 C-276.15234375 275.199375 -276.15234375 274.539375 -276.15234375 273.859375 C-254.04234375 273.859375 -231.93234375 273.859375 -209.15234375 273.859375 C-209.48234375 254.389375 -209.81234375 234.919375 -210.15234375 214.859375 C-212.46234375 214.859375 -214.77234375 214.859375 -217.15234375 214.859375 C-218.6259669 214.68706787 -220.09605414 214.47449865 -221.5546875 214.203125 C-222.67133789 214.00009766 -222.67133789 214.00009766 -223.81054688 213.79296875 C-224.56271484 213.64988281 -225.31488281 213.50679687 -226.08984375 213.359375 C-226.86908203 213.21628906 -227.64832031 213.07320312 -228.45117188 212.92578125 C-230.35258585 212.57582776 -232.25261768 212.21837835 -234.15234375 211.859375 C-229.74938457 206.50442465 -224.99020709 201.64424589 -220.03125 196.80078125 C-215.71301707 192.47505399 -211.76103409 187.81094905 -207.87524414 183.09692383 C-190.22820171 161.96652524 -190.22820171 161.96652524 -176.43066406 160.69091797 C-172.00158595 160.5885576 -167.60655632 160.72625852 -163.18164062 160.91601562 C-159.11968269 160.8400667 -155.6323639 159.8603375 -151.7746582 158.65356445 C-149.23524438 157.88448213 -146.75980155 157.37507951 -144.1484375 156.91796875 C-138.59874739 155.85456165 -133.47092372 153.96361668 -128.21484375 151.921875 C-127.28349609 151.57447266 -126.35214844 151.22707031 -125.39257812 150.86914062 C-124.49990234 150.52689453 -123.60722656 150.18464844 -122.6875 149.83203125 C-121.88707275 149.52531494 -121.08664551 149.21859863 -120.26196289 148.90258789 C-118.05958627 147.81350615 -116.80665452 146.64993709 -115.15234375 144.859375 C-113.55518718 143.7955063 -111.92709785 142.7772 -110.27734375 141.796875 C-109.43429687 141.29027344 -108.59125 140.78367187 -107.72265625 140.26171875 C-105.15234375 138.859375 -105.15234375 138.859375 -102.64453125 137.98828125 C-99.40251766 136.51972023 -97.5880601 134.44100984 -95.15234375 131.859375 C-93.26306664 130.14379381 -91.36688171 128.43579747 -89.46484375 126.734375 C-81.80445235 119.7849994 -74.87265442 112.51844992 -69.15234375 103.859375 C-68.47171875 103.22 -67.79109375 102.580625 -67.08984375 101.921875 C-64.52974625 99.19660992 -63.55697539 96.31242778 -62.15234375 92.859375 C-61.17610014 91.15882161 -60.19950025 89.45836806 -59.203125 87.76953125 C-57.26799481 84.2517667 -55.72560755 80.54985019 -54.15234375 76.859375 C-53.49234375 76.859375 -52.83234375 76.859375 -52.15234375 76.859375 C-52.01441406 76.1271875 -51.87648438 75.395 -51.734375 74.640625 C-51.21456996 72.15672442 -50.56473065 69.78916349 -49.83984375 67.359375 C-46.04226749 53.38504267 -43.68150116 39.55587849 -43.56787109 25.05541992 C-43.42687361 16.69860737 -40.38220997 12.80883812 -34.77734375 6.734375 C-34.308125 6.20972656 -33.83890625 5.68507813 -33.35546875 5.14453125 C-30.53887001 2.07117074 -27.83611117 -0.19484016 -24.15234375 -2.140625 C-23.06953125 -2.7284375 -23.06953125 -2.7284375 -21.96484375 -3.328125 C-13.70645733 -5.71388108 -7.45206398 -4.0385379 0 0 Z " fill="#FCFCFC" transform="translate(724.15234375,472.140625)"/>
<path d="M0 0 C1.37671875 -0.00386719 1.37671875 -0.00386719 2.78125 -0.0078125 C5.45004454 0.12255965 7.89865153 0.53121394 10.5 1.125 C10.5 1.785 10.5 2.445 10.5 3.125 C11.06847656 3.23199219 11.63695312 3.33898437 12.22265625 3.44921875 C17.6241686 5.0520689 21.87165333 8.86645185 25.125 13.37890625 C30.03398549 23.18226716 29.64133788 34.5554749 30.30273438 45.27978516 C30.87376332 53.51588825 32.22745196 60.5163258 35.5 68.125 C36.23400707 70.61174282 36.9214455 73.11268924 37.5625 75.625 C38.9670805 81.13358978 38.9670805 81.13358978 40.87182617 86.47973633 C41.5 90.125 41.5 90.125 39.57128906 93.14916992 C38.57566029 94.17812513 37.5549734 95.18319447 36.515625 96.16796875 C35.97045227 96.71929977 35.42527954 97.2706308 34.86358643 97.83866882 C33.69503839 99.01541419 32.51641401 100.18222342 31.32885742 101.33978271 C29.51980319 103.10566936 27.74188168 104.89784816 25.97070312 106.70166016 C22.42315223 110.30671545 18.83919389 113.87397781 15.25 117.4375 C14.00366801 118.67879729 12.75757318 119.92033276 11.51171875 121.16210938 C8.51052396 124.15247679 5.50619248 127.13965712 2.5 130.125 C1.015 129.135 1.015 129.135 -0.5 128.125 C-0.5 127.465 -0.5 126.805 -0.5 126.125 C-1.16 126.125 -1.82 126.125 -2.5 126.125 C-3.11875 124.6090625 -3.11875 124.6090625 -3.75 123.0625 C-4.88477798 120.3802975 -6.17474327 117.92466587 -7.6875 115.4375 C-9.5 112.125 -9.5 112.125 -9.5 108.125 C-10.16 108.125 -10.82 108.125 -11.5 108.125 C-12.43852103 105.47952486 -13.37596524 102.83367841 -14.3125 100.1875 C-14.72580566 99.02130127 -14.72580566 99.02130127 -15.14746094 97.83154297 C-16.56520385 93.81907886 -17.94873853 89.80211473 -19.25 85.75 C-20.34139957 82.08864622 -20.34139957 82.08864622 -22.5 79.125 C-23.08845385 76.59943489 -23.60677076 74.11120796 -24.0625 71.5625 C-24.83552171 66.70737672 -24.83552171 66.70737672 -26.5 62.125 C-27.8047496 52.75013251 -27.66165728 43.13225092 -27.75 33.6875 C-27.7713501 32.46691895 -27.7927002 31.24633789 -27.81469727 29.98876953 C-27.84991124 20.68587736 -26.58092042 14.7666136 -20.2421875 7.765625 C-14.14972859 2.02833186 -8.30670242 -0.02333343 0 0 Z " fill="#FBFBFB" transform="translate(375.5,467.875)"/>
<path d="M0 0 C7.15384186 14.30768373 -3.150912 43.72250334 -7.8515625 58.140625 C-9 61 -9 61 -11 62 C-11.8543107 63.86844143 -12.63479717 65.77098757 -13.375 67.6875 C-15.19237072 72.20954598 -17.20602274 75.99529927 -20 80 C-20.474375 81.175625 -20.94875 82.35125 -21.4375 83.5625 C-23.14830088 87.32626194 -25.0664617 89.12676939 -28 92 C-29.39610423 93.69113003 -30.7708308 95.40010767 -32.125 97.125 C-38.88082566 105.45718498 -46.10492096 112.94377597 -55 119 C-55.66 119.99 -56.32 120.98 -57 122 C-58.64831939 122.71082024 -60.31833928 123.3721151 -62 124 C-64.63823329 125.52677369 -67.2102722 127.13927103 -69.79296875 128.7578125 C-72 130 -72 130 -74 130 C-74.33 130.99 -74.66 131.98 -75 133 C-77.05029297 134.13500977 -77.05029297 134.13500977 -79.7421875 135.19140625 C-81.21945312 135.77245117 -81.21945312 135.77245117 -82.7265625 136.36523438 C-83.76554688 136.76033203 -84.80453125 137.15542969 -85.875 137.5625 C-86.8753125 137.96146484 -87.875625 138.36042969 -88.90625 138.77148438 C-94.7693461 141.04021471 -100.41410496 142.65828427 -106.62939453 143.62084961 C-108.96568964 143.95792802 -108.96568964 143.95792802 -111.08154297 144.52929688 C-114.33248773 145.3269326 -117.66839942 145.38331839 -121 145.5625 C-121.74950928 145.6049585 -122.49901855 145.64741699 -123.27124023 145.69116211 C-129.5166196 146.02246252 -135.74621777 146.10844709 -142 146 C-137.7789223 140.84090503 -133.21529856 136.15515819 -128.46264648 131.49316406 C-125.55114148 128.61918894 -122.87192577 125.69928221 -120.3125 122.5 C-116.85710519 118.42787213 -112.94878055 116.76617256 -108 115 C-107.20464844 114.6596875 -106.40929687 114.319375 -105.58984375 113.96875 C-102.79226894 112.92229668 -100.13034482 112.37138346 -97.1875 111.875 C-96.21167969 111.70742188 -95.23585938 111.53984375 -94.23046875 111.3671875 C-93.49441406 111.24601563 -92.75835938 111.12484375 -92 111 C-92 110.34 -92 109.68 -92 109 C-90.88625 108.566875 -89.7725 108.13375 -88.625 107.6875 C-84.82487666 106.30088881 -84.82487666 106.30088881 -83 103 C-81.1875 101.89453125 -81.1875 101.89453125 -79 100.8125 C-67.22981246 94.47615304 -56.18291799 84.25016856 -49 73 C-47.824375 71.4221875 -47.824375 71.4221875 -46.625 69.8125 C-43.77989577 65.88396599 -41.57587564 61.64778321 -39.33203125 57.35546875 C-38 55 -38 55 -36 53 C-35.35232207 50.42938689 -35.35232207 50.42938689 -35 48 C-34.34 48 -33.68 48 -33 48 C-32.9175 46.9275 -32.835 45.855 -32.75 44.75 C-30.68697704 30.22024321 -24.04630927 23.00946284 -13.75 13.25 C-12.41742525 11.95762945 -11.08667856 10.66337117 -9.7578125 9.3671875 C-6.52587453 6.22262976 -3.27026966 3.10465414 0 0 Z " fill="#050505" transform="translate(681,488)"/>
<path d="M0 0 C0.33 0 0.66 0 1 0 C0.48517081 5.852795 -0.45357192 11.3297637 -2 17 C-2.66 17 -3.32 17 -4 17 C-3.938125 17.763125 -3.87625 18.52625 -3.8125 19.3125 C-4.04272573 22.61240209 -4.73737109 22.75334259 -7 25 C-7.96229878 26.66190105 -8.87448872 28.35328555 -9.75 30.0625 C-14.46741464 38.89163653 -20.17692424 46.68956169 -27 54 C-27.65484375 54.71929688 -28.3096875 55.43859375 -28.984375 56.1796875 C-33.26700515 60.69676821 -37.79010342 64.50250631 -42.875 68.0625 C-43.43461426 68.45687256 -43.99422852 68.85124512 -44.57080078 69.25756836 C-47.28505517 71.09658898 -48.64965356 72 -52 72 C-52.2475 72.61875 -52.495 73.2375 -52.75 73.875 C-54.23250486 76.39525827 -55.28387064 77.01231659 -58 78 C-58.99 78 -59.98 78 -61 78 C-61 78.66 -61 79.32 -61 80 C-67.9128541 82.93272598 -74.57199792 84.32613335 -82 85 C-75.67441637 77.23114595 -68.42289993 70.36028367 -61.30688477 63.32739258 C-59.58916367 61.62796304 -57.8746157 59.92537529 -56.16015625 58.22265625 C-55.64638931 57.71718765 -55.13262238 57.21171906 -54.60328674 56.69093323 C-51.82116887 53.9271716 -49.18216804 51.0911878 -46.62084961 48.12084961 C-42.90478548 43.82975207 -38.94222766 39.83238886 -34.90625 35.84375 C-34.15589478 35.0971814 -33.40553955 34.35061279 -32.63244629 33.5814209 C-29.45783496 30.42298888 -26.27724084 27.27060721 -23.09716797 24.11767578 C-20.76059639 21.79930255 -18.42712001 19.4778448 -16.09375 17.15625 C-15.3862561 16.45705444 -14.67876221 15.75785889 -13.9498291 15.03747559 C-9.90810717 11.01545648 -6.06172685 6.88516412 -2.34436035 2.56091309 C-1.58911104 1.68400643 -0.81834186 0.81834186 0 0 Z " fill="#F8F7F7" transform="translate(650,519)"/>
<path d="M0 0 C1.44739549 2.89479098 0.38504689 4.98524936 -0.32457256 8.01847935 C-3.15525486 20.51388191 -4.4354467 32.37757582 -4.34057617 45.16821289 C-4.33972704 46.80616744 -4.3402106 48.44412313 -4.34190369 50.08207703 C-4.34275392 54.46946383 -4.32528836 58.85659758 -4.30418181 63.24392629 C-4.28525034 67.85095339 -4.28365174 72.45798821 -4.28010559 77.06504822 C-4.27083299 85.76269875 -4.24628499 94.46023427 -4.21605712 103.15783447 C-4.18236288 113.07096214 -4.16598957 122.9840957 -4.15097082 132.89726651 C-4.11973038 153.26490818 -4.06706443 173.6324468 -4 194 C-4.33 194 -4.66 194 -5 194 C-5.94067873 190.0268381 -6.12569061 186.33183108 -6.12698364 182.25340271 C-6.12854363 181.58789479 -6.13010362 180.92238687 -6.13171089 180.23671204 C-6.13568914 178.0138237 -6.13254346 175.79100405 -6.12939453 173.56811523 C-6.13075007 171.97110453 -6.13253086 170.37409415 -6.13470459 168.77708435 C-6.13926333 164.44199442 -6.13749507 160.1069283 -6.1343255 155.77183795 C-6.1317908 151.22639576 -6.13414283 146.68095558 -6.13571167 142.13551331 C-6.13753141 134.49487951 -6.13513352 126.85425538 -6.13037109 119.21362305 C-6.12494248 110.40292407 -6.12668171 101.59224828 -6.1321975 92.78154987 C-6.13675049 85.20340288 -6.1373681 77.62526283 -6.13475883 70.04711491 C-6.1332063 65.52742799 -6.13297379 61.00775193 -6.13629532 56.48806572 C-6.13920536 52.23058692 -6.13714132 47.97313765 -6.13140106 43.715662 C-6.13008956 42.16135583 -6.13043986 40.60704714 -6.13266373 39.052742 C-6.1645327 14.49513454 -6.1645327 14.49513454 -2 5 C-1.608125 4.01 -1.21625 3.02 -0.8125 2 C-0.544375 1.34 -0.27625 0.68 0 0 Z " fill="#ABABAB" transform="translate(437,319)"/>
<path d="M0 0 C6.86515862 -0.26404456 13.25846717 0.74158054 20 2 C21.03444628 5.10333883 21.12083424 7.22876249 21.11352539 10.48120117 C21.11344986 11.60213669 21.11337433 12.7230722 21.11329651 13.87797546 C21.10813522 15.08742325 21.10297394 16.29687103 21.09765625 17.54296875 C21.0962413 18.78170242 21.09482635 20.0204361 21.09336853 21.29670715 C21.08871602 24.58631537 21.0797339 27.8758746 21.06866455 31.16546631 C21.05842629 34.52371623 21.05386574 37.88197333 21.04882812 41.24023438 C21.03779145 47.82684212 21.02104767 54.41341705 21 61 C20.34 60.67 19.68 60.34 19 60 C19 41.85 19 23.7 19 5 C13.06 4.01 13.06 4.01 7 3 C4.65409324 2.37902468 2.31246813 1.73578531 0 1 C0 0.67 0 0.34 0 0 Z " fill="#545454" transform="translate(494,685)"/>
<path d="M0 0 C2.29754824 1.67050489 3.81177235 3.02516018 4.3644104 5.88729858 C4.47991874 8.2811162 4.47525644 10.6468013 4.42578125 13.04296875 C4.42249313 13.92600174 4.41920502 14.80903473 4.41581726 15.71882629 C4.4000791 18.54221537 4.35607276 21.36441821 4.3125 24.1875 C4.30100475 26.0683496 4.29122074 27.94921049 4.28320312 29.83007812 C4.26976386 31.65105364 4.25483675 33.4720189 4.23828125 35.29296875 C4.23089432 36.13079391 4.22350739 36.96861908 4.21589661 37.83183289 C4.09449735 45.46712725 3.76627746 52.80767859 1 60 C0.67 60 0.34 60 0 60 C0 57.03 0 54.06 0 51 C0.66 51 1.32 51 2 51 C2.05082181 44.70120703 2.08578472 38.4024672 2.10986328 32.10351562 C2.11990416 29.96189396 2.13353954 27.82028595 2.15087891 25.67871094 C2.17521118 22.59566879 2.18650242 19.51280835 2.1953125 16.4296875 C2.20563507 15.47633514 2.21595764 14.52298279 2.22659302 13.54074097 C2.22741927 8.61542052 1.9434458 4.61988672 0 0 Z " fill="#D0D0D0" transform="translate(732,480)"/>
<path d="M0 0 C1.52932799 3.05865598 0.5003749 5.66188252 0 9 C-0.31898356 17.08717149 -0.01108736 25.1736955 0.4375 33.25 C0.47665527 33.97687012 0.51581055 34.70374023 0.55615234 35.45263672 C0.74481695 38.50669015 1.02736793 41.08210378 2 44 C2.06740865 45.56118428 2.08514456 47.1250252 2.0625 48.6875 C2.05347656 49.49574219 2.04445313 50.30398438 2.03515625 51.13671875 C2.02355469 51.75160156 2.01195312 52.36648438 2 53 C-3.3119878 42.3760244 -2.12076649 30.14510767 -2.1875 18.4375 C-2.20047119 17.20016113 -2.21344238 15.96282227 -2.22680664 14.68798828 C-2.22801514 13.51091309 -2.22922363 12.33383789 -2.23046875 11.12109375 C-2.23457764 10.0633374 -2.23868652 9.00558105 -2.24291992 7.91577148 C-1.99236243 4.90832618 -1.26721887 2.72246451 0 0 Z " fill="#C0C0C0" transform="translate(350,483)"/>
<path d="M0 0 C0.33 0 0.66 0 1 0 C1.01981934 0.55872803 1.03963867 1.11745605 1.06005859 1.69311523 C1.1565219 4.27497418 1.26569812 6.85615392 1.375 9.4375 C1.4059375 10.31599609 1.436875 11.19449219 1.46875 12.09960938 C1.69796859 17.27612921 2.30209737 22.08516487 3.58447266 27.10961914 C4 29 4 29 4 32 C1.70620251 28.55930376 1 27.27709699 1 23 C0.34 23 -0.32 23 -1 23 C-1.02894547 19.54168414 -1.04678 16.08339928 -1.0625 12.625 C-1.07087891 11.64015625 -1.07925781 10.6553125 -1.08789062 9.640625 C-1.09111328 8.69960938 -1.09433594 7.75859375 -1.09765625 6.7890625 C-1.10289307 5.91975098 -1.10812988 5.05043945 -1.11352539 4.15478516 C-1 2 -1 2 0 0 Z " fill="#ADADAD" transform="translate(432,762)"/>
<path d="M0 0 C5.41653899 5.41653899 4.0625 16.58129477 4.0625 23.75 C4.04679439 25.50005353 4.02792396 27.25009878 4 29 C1.91149526 25.86724288 1.66952 24.6661363 1.3671875 21.03515625 C1.28339844 20.07029297 1.19960938 19.10542969 1.11328125 18.11132812 C1.03464844 17.10521484 0.95601563 16.09910156 0.875 15.0625 C0.78863281 14.06025391 0.70226562 13.05800781 0.61328125 12.02539062 C0.27444388 7.99430164 0 4.04855496 0 0 Z " fill="#AAAAAA" transform="translate(401,486)"/>
<path d="M0 0 C0.57621094 0.22945312 1.15242188 0.45890625 1.74609375 0.6953125 C0.75609375 0.6953125 -0.23390625 0.6953125 -1.25390625 0.6953125 C-1.48851562 1.25734375 -1.723125 1.819375 -1.96484375 2.3984375 C-3.56053625 5.24167141 -5.54315168 7.17629377 -7.87890625 9.4453125 C-9.10480469 10.64414062 -9.10480469 10.64414062 -10.35546875 11.8671875 C-10.98195313 12.47046875 -11.6084375 13.07375 -12.25390625 13.6953125 C-12.58390625 13.0353125 -12.91390625 12.3753125 -13.25390625 11.6953125 C-11.29060954 7.11428684 -5.50398041 -0.74403895 0 0 Z " fill="#B3B3B3" transform="translate(446.25390625,748.3046875)"/>
<path d="M0 0 C-0.33 2.97 -0.66 5.94 -1 9 C-1.66 7.68 -2.32 6.36 -3 5 C-4.65 6.32 -6.3 7.64 -8 9 C-6.78641212 6.02119338 -3.58154637 0 0 0 Z " fill="#E6D3D3" transform="translate(651,519)"/>
<path d="M0 0 C4.00622174 7.63870596 4.28275065 16.51748061 4 25 C0.875 18.75 0.875 18.75 0.68359375 14.6484375 C0.62075195 13.37226562 0.62075195 13.37226562 0.55664062 12.0703125 C0.51732422 11.18085937 0.47800781 10.29140625 0.4375 9.375 C0.39431641 8.4778125 0.35113281 7.580625 0.30664062 6.65625 C0.20043139 4.43765717 0.09838806 2.2189512 0 0 Z " fill="#919191" transform="translate(348,511)"/>
<path d="M0 0 C0.66 0.33 1.32 0.66 2 1 C0.56974806 2.65213589 -0.86945545 4.29652589 -2.3125 5.9375 C-3.11300781 6.85402344 -3.91351563 7.77054687 -4.73828125 8.71484375 C-7 11 -7 11 -10 12 C-8.62968895 6.34746692 -4.32310587 3.4886459 0 0 Z " fill="#B6B6B6" transform="translate(361,471)"/>
<path d="M0 0 C2.27978741 4.55957482 -1.10065683 11.47495292 -2.625 16.0625 C-3.07875419 17.37659011 -3.53536131 18.68971889 -4 20 C-4.33 20 -4.66 20 -5 20 C-5.35882518 14.25879714 -4.25206577 10.25115823 -2 5 C-1.4121875 3.515 -1.4121875 3.515 -0.8125 2 C-0.544375 1.34 -0.27625 0.68 0 0 Z " fill="#797979" transform="translate(437,319)"/>
<path d="M0 0 C-3.13498292 1.85776765 -5.37471432 2.20140476 -9 2 C-9.33 2.99 -9.66 3.98 -10 5 C-11.8125 6.25 -11.8125 6.25 -14 7 C-16.13671875 6.546875 -16.13671875 6.546875 -18 6 C-5.6875 -2.1875 -5.6875 -2.1875 0 0 Z " fill="#969696" transform="translate(506,253)"/>
<path d="M0 0 C0.33 0 0.66 0 1 0 C0.88501733 2.20887757 0.75756495 4.41710787 0.625 6.625 C0.52058594 8.46964844 0.52058594 8.46964844 0.4140625 10.3515625 C0.0185513 13.83653855 -0.76261849 16.73049601 -2 20 C-2.33 20 -2.66 20 -3 20 C-3 17.03 -3 14.06 -3 11 C-2.34 11 -1.68 11 -1 11 C-1.020625 9.741875 -1.04125 8.48375 -1.0625 7.1875 C-1.10886083 4.35948913 -0.91692961 2.75078884 0 0 Z " fill="#A3A3A3" transform="translate(735,520)"/>
<path d="M0 0 C6.86515862 -0.26404456 13.25846717 0.74158054 20 2 C20 2.33 20 2.66 20 3 C6.3667426 3.3690205 6.3667426 3.3690205 0 1 C0 0.67 0 0.34 0 0 Z " fill="#8E8E8E" transform="translate(494,685)"/>
<path d="M0 0 C0.66 0.33 1.32 0.66 2 1 C0.6875 2.5 0.6875 2.5 -1 4 C-1.99 4 -2.98 4 -4 4 C-4.33 4.99 -4.66 5.98 -5 7 C-6.32 6.67 -7.64 6.34 -9 6 C-6.03 4.02 -3.06 2.04 0 0 Z " fill="#949494" transform="translate(620,610)"/>
<path d="M0 0 C3.3125 -0.1875 3.3125 -0.1875 7 0 C7.99 0.99 8.98 1.98 10 3 C6.7 2.67 3.4 2.34 0 2 C0 1.34 0 0.68 0 0 Z " fill="#222222" transform="translate(559,245)"/>
</svg>
