<?xml version="1.0" encoding="UTF-8"?>
<svg version="1.1" xmlns="http://www.w3.org/2000/svg" width="1080" height="1080">
<path d="M0 0 C0.86995605 0.5053125 1.73991211 1.010625 2.63623047 1.53125 C25.63761487 14.91133954 47.97989608 30.02727071 68.09375 47.4921875 C70.85022342 49.8707573 73.65962943 52.16030636 76.5 54.4375 C82.30287179 59.16700822 87.76498557 64.21997855 93.22167969 69.33935547 C95.10977064 71.10250685 97.01072461 72.8509813 98.9140625 74.59765625 C110.54343288 85.30102122 110.54343288 85.30102122 115.40625 91.15625 C117.28723295 93.3322891 119.31323655 95.30722322 121.375 97.3125 C125.52966054 101.41073052 129.18819096 105.78270506 132.83203125 110.3359375 C134.7376723 112.67764416 136.70580013 114.90509323 138.75 117.125 C144.36896121 123.38070234 149.3537006 130.14737617 154.39794922 136.8671875 C155.84340436 138.791524 157.29797011 140.70859412 158.75390625 142.625 C219.69818183 223.54822179 254.27131617 323.89329393 254.95741272 528.61253357 C246.83751139 584.73785369 229.2797709 638.30724181 204 689 C203.4750293 690.05396973 202.95005859 691.10793945 202.40917969 692.19384766 C195.00952792 706.95486936 186.97068333 721.13821829 178 735 C177.62037109 735.59022949 177.24074219 736.18045898 176.84960938 736.78857422 C174.62545687 740.23430953 172.33046724 743.6254482 170 747 C169.57960449 747.61198242 169.15920898 748.22396484 168.72607422 748.85449219 C154.82164728 769.04260344 139.49920412 787.88830822 123 806 C122.23042969 806.86238281 121.46085938 807.72476563 120.66796875 808.61328125 C114.73591216 815.20141783 108.57118461 821.53387557 102.3125 827.8125 C101.51666504 828.61292725 100.72083008 829.41335449 99.90087891 830.23803711 C95.64070689 834.48714489 91.30150505 838.57670869 86.73999023 842.50073242 C84.57246765 844.36838447 82.47667503 846.30881651 80.375 848.25 C74.78866803 853.28449066 68.90832432 857.87965472 62.95996094 862.47265625 C60.93989036 864.04684179 58.94140292 865.64554157 56.9453125 867.25 C34.6657751 885.04907947 10.3087726 900.20025193 -14.7421875 913.77490234 C-16.23168266 914.58310809 -17.71873024 915.39584323 -19.203125 916.21337891 C-78.16831021 948.66252671 -144.36711138 966.71107075 -211 974 C-212.0916748 974.12004395 -213.18334961 974.24008789 -214.30810547 974.36376953 C-247.63135252 977.82237723 -282.71090484 977.76065457 -316 974 C-317.00855042 973.88688477 -317.00855042 973.88688477 -318.03747559 973.77148438 C-412.23058159 963.10952207 -501.94350881 929.20219128 -638.5 818.625 C-639.24161377 817.88805908 -639.98322754 817.15111816 -640.74731445 816.3918457 C-644.81389114 812.31331255 -648.70808594 808.14038487 -652.46777344 803.77734375 C-654.39494593 801.54187279 -656.38362865 799.36580085 -658.375 797.1875 C-663.10223494 791.9358995 -667.6016186 786.52853209 -672 781 C-672.52255371 780.34467285 -673.04510742 779.6893457 -673.58349609 779.01416016 C-681.83886698 768.62715395 -689.66911408 758.0580282 -697 747 C-697.5141748 746.22930176 -698.02834961 745.45860352 -698.55810547 744.66455078 C-711.34948006 725.44867083 -722.57549306 705.58974804 -733 685 C-733.73669922 683.55874756 -733.73669922 683.55874756 -734.48828125 682.08837891 C-767.25797285 617.61898234 -785.92748085 542.4012068 -787 470 C-787.02046387 468.77909668 -787.04092773 467.55819336 -787.06201172 466.30029297 C-788.63674124 362.16954384 -762.02159654 260.32091348 -655.9765625 106.16015625 C-654.10874502 104.11884584 -652.30052609 102.03811377 -650.5 99.9375 C-647.23508276 96.18133364 -643.72810947 92.70947038 -640.18359375 89.21875 C-638.20789518 87.21124233 -636.3772707 85.15210455 -634.5625 83 C-631.15034743 79.01783586 -627.33517669 75.61205393 -623.40234375 72.15234375 C-621.36804531 70.32974466 -619.45565472 68.46579375 -617.5625 66.5 C-613.97296191 62.85202757 -610.04086772 59.69908138 -606.0546875 56.49609375 C-603.40406629 54.33017693 -600.82409313 52.11205591 -598.25341797 49.85375977 C-538.07128129 -2.77736959 -461.55091594 -38.95676859 -283.5 -70.5625 C-282.37980469 -70.60568359 -281.25960938 -70.64886719 -280.10546875 -70.69335938 C-182.49536283 -74.23974731 -84.21282575 -49.37500687 0 0 Z " fill="#000000" transform="translate(808,92)"/>
<path d="M0 0 C10.89 0 21.78 0 33 0 C33 0.66 33 1.32 33 2 C33.63164063 2.01417969 34.26328125 2.02835938 34.9140625 2.04296875 C45.71319202 2.61871485 55.90825369 6.15530594 65 12 C65 12.66 65 13.32 65 14 C65.94875 14.020625 66.8975 14.04125 67.875 14.0625 C73.51728303 14.87016551 77.60313682 18.6136792 82 22 C83.25490234 22.94746094 83.25490234 22.94746094 84.53515625 23.9140625 C91.73737826 29.41819965 91.73737826 29.41819965 94 32 C94 32.66 94 33.32 94 34 C94.59296875 34.09539062 95.1859375 34.19078125 95.796875 34.2890625 C103.72147302 36.84629094 110.8582342 50.18920048 114.734375 57.0859375 C116 60 116 60 116 64 C116.66 64 117.32 64 118 64 C118 64.99 118 65.98 118 67 C118.66 67 119.32 67 120 67 C126.63567385 81.01238741 127.44892209 95.62177069 127.37231445 110.82983398 C127.37474972 112.55156167 127.37847611 114.27328794 127.38337708 115.99501038 C127.39268423 120.61856413 127.38345012 125.24190243 127.37004495 129.86543918 C127.35862969 134.72719223 127.36284534 139.58893623 127.36479187 144.45069885 C127.3656711 152.60315423 127.35466763 160.75552585 127.33618164 168.90795898 C127.31496995 178.31598074 127.31151695 187.72388039 127.3177436 197.13192123 C127.32344662 206.21632644 127.31778373 215.30068893 127.30657005 224.38508797 C127.30194157 228.23773048 127.30104253 232.09034673 127.3031559 235.94299126 C127.30504586 240.47806837 127.2968807 245.01302196 127.2810955 249.54807091 C127.27687136 251.20684549 127.27598944 252.86563265 127.27878571 254.52441025 C127.29313386 264.56165858 127.1721858 273.64888757 122.83203125 282.94921875 C121.75727713 285.59826061 121.06913014 288.30596639 120.3125 291.0625 C117.09998311 301.74627264 111.11393942 311.44455181 104 320 C103.46890625 320.64066406 102.9378125 321.28132813 102.390625 321.94140625 C98.49858766 326.50294543 94.33728031 330.75836631 90.0625 334.9609375 C88.46336107 336.5419044 86.90933663 338.1685679 85.375 339.8125 C82.46126128 342.49620672 79.46251099 344.07638278 76 346 C75.52949219 346.48339844 75.05898438 346.96679688 74.57421875 347.46484375 C72.68257186 349.30955152 70.80885573 350.27656341 68.4375 351.4375 C67.65246094 351.82808594 66.86742187 352.21867187 66.05859375 352.62109375 C49.48725338 360.09195346 33.01359906 362.35164508 14.875 362.375 C13.69123779 362.37661133 12.50747559 362.37822266 11.2878418 362.37988281 C1.02022262 362.25034111 -9.12718031 361.20634762 -18.9375 358.0625 C-19.95714844 357.74410156 -20.97679687 357.42570312 -22.02734375 357.09765625 C-30.51893634 353.96212732 -30.51893634 353.96212732 -32 351 C-33.91829322 350.29326039 -35.83748453 349.5888377 -37.76171875 348.8984375 C-47.63560487 344.93509752 -56.54422582 337.18610611 -63.26171875 329.08984375 C-65.89646157 325.92223159 -68.71002811 322.91735078 -71.49609375 319.8828125 C-73 318 -73 318 -73 316 C-73.66 316 -74.32 316 -75 316 C-75.84114171 314.56705502 -76.67265687 313.12845595 -77.5 311.6875 C-77.9640625 310.88699219 -78.428125 310.08648438 -78.90625 309.26171875 C-80 307 -80 307 -80 304 C-80.66 304 -81.32 304 -82 304 C-85.4757789 298.93115577 -87.23885524 293.40317147 -89 287.5625 C-90.39843317 282.91698449 -90.39843317 282.91698449 -92 278.33984375 C-95.10771849 267.96054958 -95.28530491 257.51512371 -95.24291992 246.7734375 C-95.2439953 245.17539391 -95.24593775 243.5773507 -95.24867249 241.97930908 C-95.25348326 237.67352693 -95.24591232 233.36784984 -95.23571944 229.06208038 C-95.22687401 224.53536619 -95.22869765 220.00865467 -95.2290802 215.48193359 C-95.2281463 207.88312036 -95.21949998 200.28434728 -95.20581055 192.68554688 C-95.19008804 183.92639087 -95.18481264 175.16727877 -95.1855461 166.40810966 C-95.186224 157.0448752 -95.17926965 147.68165744 -95.1700995 138.31842804 C-95.16797823 135.63698766 -95.16725969 132.95555002 -95.16686058 130.27410889 C-95.16584858 126.04525932 -95.15968278 121.81644592 -95.14969444 117.58760834 C-95.14679879 116.0445859 -95.14553804 114.50155929 -95.14612198 112.95853424 C-95.15184392 88.61298302 -95.15184392 88.61298302 -91 79 C-90.2282317 76.89617608 -89.45749037 74.79197528 -88.6875 72.6875 C-84.76843163 62.56324004 -78.83382447 48.0928882 -69.9453125 41.46875 C-67.52217897 39.63923553 -66.51235732 37.61586214 -65 35 C-54.45092173 22.44822696 -39.13072237 12.94421236 -24 7 C-23.20335937 6.6596875 -22.40671875 6.319375 -21.5859375 5.96875 C-14.40639266 3.07210367 -7.71196023 2.24521336 0 2 C0 1.34 0 0.68 0 0 Z " fill="#FEFEFE" transform="translate(526,245)"/>
<path d="M0 0 C1.37671875 -0.00386719 1.37671875 -0.00386719 2.78125 -0.0078125 C5.45004454 0.12255965 7.89865153 0.53121394 10.5 1.125 C10.5 1.785 10.5 2.445 10.5 3.125 C11.06847656 3.23199219 11.63695312 3.33898437 12.22265625 3.44921875 C17.6241686 5.0520689 21.87165333 8.86645185 25.125 13.37890625 C30.03398549 23.18226716 29.64133788 34.5554749 30.30273438 45.27978516 C30.87374249 53.51558783 32.22657647 60.51694332 35.5 68.125 C36.25578281 70.65296319 36.964275 73.1955435 37.625 75.75 C37.95757812 77.02101563 38.29015625 78.29203125 38.6328125 79.6015625 C39.33040873 82.43593997 39.96157556 85.25706575 40.5 88.125 C41.16 88.125 41.82 88.125 42.5 88.125 C43.49 91.59 43.49 91.59 44.5 95.125 C45.16 95.125 45.82 95.125 46.5 95.125 C46.82871094 95.79144531 47.15742188 96.45789063 47.49609375 97.14453125 C51.34985384 104.61184417 56.00141772 110.79590268 61.5 117.125 C62.180625 117.92808594 62.86125 118.73117187 63.5625 119.55859375 C66.60933709 123.35993878 66.60933709 123.35993878 70.5 126.125 C70.88800781 126.85332031 71.27601563 127.58164062 71.67578125 128.33203125 C74.09813474 132.04077375 77.15303205 134.2068491 80.6875 136.8125 C83.01137145 138.53651498 85.26065888 140.28797115 87.5 142.125 C87.5 142.785 87.5 143.445 87.5 144.125 C88.08265625 144.25261719 88.6653125 144.38023437 89.265625 144.51171875 C91.45616491 145.11296834 93.2379391 145.8940552 95.25 146.9375 C96.29414063 147.47117187 96.29414063 147.47117187 97.359375 148.015625 C98.74510242 148.7337757 100.13053848 149.45248898 101.515625 150.171875 C105.39209796 152.1558966 109.25690874 153.85897095 113.3515625 155.33984375 C115.83518173 156.24749369 118.29263641 157.21104028 120.75 158.1875 C121.96429688 158.66896484 121.96429688 158.66896484 123.203125 159.16015625 C125.5 160.125 125.5 160.125 127.40625 161.17578125 C130.14655665 162.41812177 132.78044178 162.79811071 135.75 163.25 C136.82765625 163.41757812 137.9053125 163.58515625 139.015625 163.7578125 C139.83546875 163.87898437 140.6553125 164.00015625 141.5 164.125 C141.5 164.785 141.5 165.445 141.5 166.125 C146.67373297 166.17503238 151.84732019 166.21101374 157.02124023 166.23486328 C158.77549701 166.24482244 160.52973763 166.25839466 162.28393555 166.27587891 C175.16488751 166.40090099 187.06148851 165.88002234 199.5 162.125 C201.00618479 161.84399538 202.51422192 161.57283714 204.0234375 161.30859375 C209.73895846 160.18267518 215.01800155 158.29272214 220.4375 156.1875 C221.36884766 155.84009766 222.30019531 155.49269531 223.25976562 155.13476562 C224.15244141 154.79251953 225.04511719 154.45027344 225.96484375 154.09765625 C226.765271 153.79093994 227.56569824 153.48422363 228.39038086 153.16821289 C230.59275748 152.07913115 231.84568923 150.91556209 233.5 149.125 C235.09715657 148.0611313 236.7252459 147.042825 238.375 146.0625 C239.21804688 145.55589844 240.06109375 145.04929687 240.9296875 144.52734375 C243.5 143.125 243.5 143.125 246.0078125 142.25390625 C249.24982609 140.78534523 251.06428365 138.70663484 253.5 136.125 C255.38927711 134.40941881 257.28546204 132.70142247 259.1875 131 C266.8478914 124.0506244 273.77968933 116.78407492 279.5 108.125 C280.180625 107.485625 280.86125 106.84625 281.5625 106.1875 C284.1225975 103.46223492 285.09536836 100.57805278 286.5 97.125 C287.47624361 95.42444661 288.4528435 93.72399306 289.44921875 92.03515625 C291.38434894 88.5173917 292.9267362 84.81547519 294.5 81.125 C295.16 81.125 295.82 81.125 296.5 81.125 C296.60957031 80.135 296.71914063 79.145 296.83203125 78.125 C297.56222976 71.91082949 298.27218091 66.0355963 300.70703125 60.2265625 C304.66684162 49.7320897 304.9512531 38.77861973 305.2890625 27.71484375 C305.40146748 24.41873309 305.68542325 21.33656898 306.5 18.125 C307.16 18.125 307.82 18.125 308.5 18.125 C308.60183594 17.38378906 308.70367188 16.64257812 308.80859375 15.87890625 C310.12351587 10.64150457 314.13793322 6.66166055 318.6015625 3.7578125 C325.3804312 0.27951658 331.8966038 -0.87010776 339.5 0.125 C347.71182888 2.92425236 356.48024183 8.08548366 360.5 16.125 C360.59944219 19.08218544 360.63978747 22.0152848 360.6328125 24.97265625 C360.63424759 26.30145058 360.63424759 26.30145058 360.63571167 27.65708923 C360.63639328 29.5375882 360.63454035 31.41808951 360.63037109 33.29858398 C360.62506677 36.15158523 360.63029364 39.00442584 360.63671875 41.85742188 C360.6360571 43.68750034 360.63477414 45.51757871 360.6328125 47.34765625 C360.63483673 48.19175552 360.63686096 49.0358548 360.63894653 49.90553284 C360.60590034 58.43625493 359.94951239 65.26011176 356.5 73.125 C356.17552998 74.66009764 355.88657949 76.20294417 355.625 77.75 C353.99570345 86.67039861 350.08511137 94.93352633 346.3359375 103.13671875 C345.11106082 106.05009365 344.35976768 109.08715419 343.5 112.125 C342.54435012 114.14656704 341.55725253 116.15466574 340.5 118.125 C339.84 118.125 339.18 118.125 338.5 118.125 C338.5 119.445 338.5 120.765 338.5 122.125 C337.84 122.125 337.18 122.125 336.5 122.125 C336.25378906 122.99769531 336.00757813 123.87039063 335.75390625 124.76953125 C334.41847284 128.34316769 332.75518277 130.79656797 330.4375 133.8125 C327.44685813 137.68915744 327.44685813 137.68915744 325.5 142.125 C324.84 142.125 324.18 142.125 323.5 142.125 C323.24605469 142.86105469 322.99210937 143.59710937 322.73046875 144.35546875 C321.42593939 147.29169515 319.99293817 149.09427863 317.8125 151.4375 C317.09578125 152.21738281 316.3790625 152.99726562 315.640625 153.80078125 C314.93421875 154.56777344 314.2278125 155.33476563 313.5 156.125 C312.35044536 157.45512628 311.20441984 158.78831346 310.0625 160.125 C297.43053324 174.48465729 282.25435413 186.18273604 265.7265625 195.765625 C263.45506274 197.09668351 263.45506274 197.09668351 261.3359375 198.796875 C259.5 200.125 259.5 200.125 257.5 200.125 C257.5 200.785 257.5 201.445 257.5 202.125 C251 205.125 251 205.125 246.5 205.125 C246.5 205.785 246.5 206.445 246.5 207.125 C245.55898438 207.45113281 244.61796875 207.77726563 243.6484375 208.11328125 C242.40320313 208.55027344 241.15796875 208.98726562 239.875 209.4375 C238.64523437 209.86675781 237.41546875 210.29601562 236.1484375 210.73828125 C232.5678838 212.00893757 232.5678838 212.00893757 229.64453125 213.66015625 C225.47553666 215.60223447 221.31108437 216.38952097 216.8125 217.25 C215.1208104 217.58450768 213.42939139 217.92038754 211.73828125 218.2578125 C210.6251355 218.47268311 210.6251355 218.47268311 209.48950195 218.69189453 C207.30695086 219.12979797 207.30695086 219.12979797 204.5 220.125 C201.53 220.125 198.56 220.125 195.5 220.125 C195.5 239.265 195.5 258.405 195.5 278.125 C217.61 278.125 239.72 278.125 262.5 278.125 C262.5 279.115 262.5 280.105 262.5 281.125 C263.16 281.125 263.82 281.125 264.5 281.125 C264.5 281.785 264.5 282.445 264.5 283.125 C265.49 283.125 266.48 283.125 267.5 283.125 C267.5 283.785 267.5 284.445 267.5 285.125 C268.0775 285.2075 268.655 285.29 269.25 285.375 C273.14595536 286.67365179 274.96902768 289.27596358 277.09765625 292.6796875 C278.90159384 297.1116456 278.94161656 300.82902358 278.875 305.5625 C278.88660156 306.38298828 278.89820313 307.20347656 278.91015625 308.04882812 C278.88413342 313.48326341 277.9655743 317.27864629 275.5 322.125 C274.84 322.125 274.18 322.125 273.5 322.125 C273.08582343 323.00061204 273.08582343 323.00061204 272.66327965 323.89391321 C270.7864633 327.49351213 268.63313462 330.51413148 265.5 333.125 C262.41037913 333.82257837 260.37320221 334.05044953 257.29959106 333.96678162 C256.4900047 333.97276259 255.68041834 333.97874356 254.84629905 333.98490578 C252.1413734 333.99640997 249.43950732 333.95798919 246.73486328 333.91967773 C244.79311698 333.91770264 242.85136545 333.91881268 240.90962219 333.92277527 C235.64315793 333.92478347 230.37781 333.88363335 225.11160517 333.83475757 C219.60635191 333.79099408 214.10107297 333.7868861 208.59567261 333.77857971 C198.17270645 333.75682415 187.75025434 333.69938233 177.32751453 333.62913328 C165.46068475 333.55088755 153.59383041 333.51240268 141.72680688 333.47726524 C117.31758628 333.4041 92.90882194 333.28097768 68.5 333.125 C68.5 332.465 68.5 331.805 68.5 331.125 C67.96375 330.898125 67.4275 330.67125 66.875 330.4375 C63.61943794 328.6383736 61.13786092 326.76286092 58.5 324.125 C57.625 320.3125 57.625 320.3125 57.5 317.125 C56.84 317.125 56.18 317.125 55.5 317.125 C55.3825125 313.79196997 55.31232676 310.45948163 55.25 307.125 C55.21648437 306.19042969 55.18296875 305.25585938 55.1484375 304.29296875 C55.04011465 296.54788498 56.59337743 291.44100603 61.71875 285.59375 C62.4715625 284.9440625 63.224375 284.294375 64 283.625 C64.7528125 282.9546875 65.505625 282.284375 66.28125 281.59375 C68.5 280.125 68.5 280.125 72.5 280.125 C72.5 279.465 72.5 278.805 72.5 278.125 C94.61 278.125 116.72 278.125 139.5 278.125 C139.17 258.655 138.84 239.185 138.5 219.125 C136.19 219.125 133.88 219.125 131.5 219.125 C130.09540907 218.98321883 128.69339151 218.80576624 127.30078125 218.57421875 C126.20709229 218.39403198 126.20709229 218.39403198 125.09130859 218.21020508 C124.33930176 218.0789624 123.58729492 217.94771973 122.8125 217.8125 C121.6380835 217.6127356 121.6380835 217.6127356 120.43994141 217.40893555 C114.04482426 216.28975726 107.75888442 214.85539746 101.5 213.125 C101.5 212.465 101.5 211.805 101.5 211.125 C100.25283203 211.23714844 100.25283203 211.23714844 98.98046875 211.3515625 C94.56495073 211.0641326 91.66427769 209.56014552 87.8125 207.5 C87.10480469 207.13245605 86.39710938 206.76491211 85.66796875 206.38623047 C83.60571747 205.31057895 81.55267204 204.21878616 79.5 203.125 C78.53449219 202.62484375 77.56898438 202.1246875 76.57421875 201.609375 C63.07052285 194.47843999 50.82992529 186.35251574 39.5 176.125 C38.42469237 175.17163447 37.34917079 174.2185102 36.2734375 173.265625 C30.61246628 168.20690325 25.34711029 162.97930204 20.5 157.125 C19.77103516 156.30322266 19.77103516 156.30322266 19.02734375 155.46484375 C15.21578772 151.16540855 11.87216691 146.58454305 8.53515625 141.91015625 C6.06649848 138.5317436 3.43587053 135.30511324 0.75 132.09765625 C-0.5 130.125 -0.5 130.125 -0.5 126.125 C-1.16 126.125 -1.82 126.125 -2.5 126.125 C-2.5 125.465 -2.5 124.805 -2.5 124.125 C-3.16 124.125 -3.82 124.125 -4.5 124.125 C-5.34212256 122.21217875 -6.17338864 120.29457527 -7 118.375 C-7.4640625 117.30765625 -7.928125 116.2403125 -8.40625 115.140625 C-9.5 112.125 -9.5 112.125 -9.5 108.125 C-10.16 108.125 -10.82 108.125 -11.5 108.125 C-12.43852103 105.47952486 -13.37596524 102.83367841 -14.3125 100.1875 C-14.72580566 99.02130127 -14.72580566 99.02130127 -15.14746094 97.83154297 C-16.56520385 93.81907886 -17.94873853 89.80211473 -19.25 85.75 C-20.34139957 82.08864622 -20.34139957 82.08864622 -22.5 79.125 C-23.08845385 76.59943489 -23.60677076 74.11120796 -24.0625 71.5625 C-24.83552171 66.70737672 -24.83552171 66.70737672 -26.5 62.125 C-27.8047496 52.75013251 -27.66165728 43.13225092 -27.75 33.6875 C-27.7713501 32.46691895 -27.7927002 31.24633789 -27.81469727 29.98876953 C-27.84991124 20.68587736 -26.58092042 14.7666136 -20.2421875 7.765625 C-14.14972859 2.02833186 -8.30670242 -0.02333343 0 0 Z " fill="#FCFCFC" transform="translate(375.5,467.875)"/>
<path d="M0 0 C2 2 2 2 2.24888897 4.74817657 C2.24807182 6.51789448 2.24807182 6.51789448 2.24723816 8.32336426 C2.24965257 8.97955293 2.25206699 9.63574161 2.25455457 10.31181479 C2.26021154 12.52112736 2.25151327 14.73015333 2.24291992 16.93945312 C2.24399239 18.51956257 2.24593056 20.09967163 2.24867249 21.67977905 C2.25353272 25.98188634 2.245848 30.28389038 2.23571944 34.58598518 C2.22694573 39.08967092 2.22869634 43.59335335 2.2290802 48.0970459 C2.22814245 55.66985808 2.21944804 63.24263029 2.20581055 70.81542969 C2.1901292 79.55510358 2.18481085 88.29473354 2.1855461 97.03442049 C2.18622364 106.34727668 2.17926542 115.66011605 2.1700995 124.97296715 C2.16797424 127.64934224 2.16725911 130.32571459 2.16686058 133.00209045 C2.16585012 137.22423514 2.15969651 141.44634346 2.14969444 145.6684761 C2.14679215 147.21233014 2.14553943 148.75618836 2.14612198 150.30004501 C2.14866749 161.16076595 1.91914835 171.49106592 -1 182 C-1.66 182 -2.32 182 -3 182 C-2.95875 183.0725 -2.9175 184.145 -2.875 185.25 C-2.9885825 188.65747485 -3.21273364 190.20739631 -5 193 C-5.66 193 -6.32 193 -7 193 C-7 194.65 -7 196.3 -7 198 C-7.66 198.33 -8.32 198.66 -9 199 C-8.49387764 193.93877639 -7.25414392 190.50658196 -5 186 C-1.16774205 175.13994955 -0.41432641 165.01097183 -0.45410156 153.59985352 C-0.44534312 151.91292377 -0.43484954 150.22600229 -0.42277527 148.53909302 C-0.39517235 144.0090665 -0.39150483 139.47931447 -0.39249516 134.94921613 C-0.3893437 130.19662824 -0.36367954 125.44416001 -0.34051514 120.69163513 C-0.30012135 111.71418845 -0.27965372 102.73681411 -0.26654124 93.75929064 C-0.25061457 83.52932685 -0.21217538 73.29948518 -0.17194796 63.0695926 C-0.08977675 42.04643546 -0.0355427 21.02328433 0 0 Z " fill="#7A7A7A" transform="translate(653,343)"/>
<path d="M0 0 C1.44739549 2.89479098 0.38504689 4.98524936 -0.32457256 8.01847935 C-3.15525486 20.51388191 -4.4354467 32.37757582 -4.34057617 45.16821289 C-4.33972704 46.80616744 -4.3402106 48.44412313 -4.34190369 50.08207703 C-4.34275392 54.46946383 -4.32528836 58.85659758 -4.30418181 63.24392629 C-4.28525034 67.85095339 -4.28365174 72.45798821 -4.28010559 77.06504822 C-4.27083299 85.76269875 -4.24628499 94.46023427 -4.21605712 103.15783447 C-4.18236288 113.07096214 -4.16598957 122.9840957 -4.15097082 132.89726651 C-4.11973038 153.26490818 -4.06706443 173.6324468 -4 194 C-4.33 194 -4.66 194 -5 194 C-5.94067873 190.0268381 -6.12569061 186.33183108 -6.12698364 182.25340271 C-6.12854363 181.58789479 -6.13010362 180.92238687 -6.13171089 180.23671204 C-6.13568914 178.0138237 -6.13254346 175.79100405 -6.12939453 173.56811523 C-6.13075007 171.97110453 -6.13253086 170.37409415 -6.13470459 168.77708435 C-6.13926333 164.44199442 -6.13749507 160.1069283 -6.1343255 155.77183795 C-6.1317908 151.22639576 -6.13414283 146.68095558 -6.13571167 142.13551331 C-6.13753141 134.49487951 -6.13513352 126.85425538 -6.13037109 119.21362305 C-6.12494248 110.40292407 -6.12668171 101.59224828 -6.1321975 92.78154987 C-6.13675049 85.20340288 -6.1373681 77.62526283 -6.13475883 70.04711491 C-6.1332063 65.52742799 -6.13297379 61.00775193 -6.13629532 56.48806572 C-6.13920536 52.23058692 -6.13714132 47.97313765 -6.13140106 43.715662 C-6.13008956 42.16135583 -6.13043986 40.60704714 -6.13266373 39.052742 C-6.1645327 14.49513454 -6.1645327 14.49513454 -2 5 C-1.608125 4.01 -1.21625 3.02 -0.8125 2 C-0.544375 1.34 -0.27625 0.68 0 0 Z " fill="#ABABAB" transform="translate(437,319)"/>
<path d="M0 0 C6.86515862 -0.26404456 13.25846717 0.74158054 20 2 C21.03444628 5.10333883 21.12083424 7.22876249 21.11352539 10.48120117 C21.11344986 11.60213669 21.11337433 12.7230722 21.11329651 13.87797546 C21.10813522 15.08742325 21.10297394 16.29687103 21.09765625 17.54296875 C21.0962413 18.78170242 21.09482635 20.0204361 21.09336853 21.29670715 C21.08871602 24.58631537 21.0797339 27.8758746 21.06866455 31.16546631 C21.05842629 34.52371623 21.05386574 37.88197333 21.04882812 41.24023438 C21.03779145 47.82684212 21.02104767 54.41341705 21 61 C20.34 60.67 19.68 60.34 19 60 C19 41.85 19 23.7 19 5 C13.06 4.01 13.06 4.01 7 3 C4.65409324 2.37902468 2.31246813 1.73578531 0 1 C0 0.67 0 0.34 0 0 Z " fill="#545454" transform="translate(494,685)"/>
<path d="M0 0 C2.29754824 1.67050489 3.81177235 3.02516018 4.3644104 5.88729858 C4.47991874 8.2811162 4.47525644 10.6468013 4.42578125 13.04296875 C4.42249313 13.92600174 4.41920502 14.80903473 4.41581726 15.71882629 C4.4000791 18.54221537 4.35607276 21.36441821 4.3125 24.1875 C4.30100475 26.0683496 4.29122074 27.94921049 4.28320312 29.83007812 C4.26976386 31.65105364 4.25483675 33.4720189 4.23828125 35.29296875 C4.23089432 36.13079391 4.22350739 36.96861908 4.21589661 37.83183289 C4.09449735 45.46712725 3.76627746 52.80767859 1 60 C0.67 60 0.34 60 0 60 C0 57.03 0 54.06 0 51 C0.66 51 1.32 51 2 51 C2.05082181 44.70120703 2.08578472 38.4024672 2.10986328 32.10351562 C2.11990416 29.96189396 2.13353954 27.82028595 2.15087891 25.67871094 C2.17521118 22.59566879 2.18650242 19.51280835 2.1953125 16.4296875 C2.20563507 15.47633514 2.21595764 14.52298279 2.22659302 13.54074097 C2.22741927 8.61542052 1.9434458 4.61988672 0 0 Z " fill="#D0D0D0" transform="translate(732,480)"/>
<path d="M0 0 C1.52932799 3.05865598 0.5003749 5.66188252 0 9 C-0.31898356 17.08717149 -0.01108736 25.1736955 0.4375 33.25 C0.47665527 33.97687012 0.51581055 34.70374023 0.55615234 35.45263672 C0.74481695 38.50669015 1.02736793 41.08210378 2 44 C2.06740865 45.56118428 2.08514456 47.1250252 2.0625 48.6875 C2.05347656 49.49574219 2.04445313 50.30398438 2.03515625 51.13671875 C2.02355469 51.75160156 2.01195312 52.36648438 2 53 C-3.3119878 42.3760244 -2.12076649 30.14510767 -2.1875 18.4375 C-2.20047119 17.20016113 -2.21344238 15.96282227 -2.22680664 14.68798828 C-2.22801514 13.51091309 -2.22922363 12.33383789 -2.23046875 11.12109375 C-2.23457764 10.0633374 -2.23868652 9.00558105 -2.24291992 7.91577148 C-1.99236243 4.90832618 -1.26721887 2.72246451 0 0 Z " fill="#C0C0C0" transform="translate(350,483)"/>
<path d="M0 0 C0 0.66 0 1.32 0 2 C-0.75925781 2.06058594 -1.51851562 2.12117187 -2.30078125 2.18359375 C-3.29464844 2.26738281 -4.28851562 2.35117187 -5.3125 2.4375 C-6.79169922 2.55931641 -6.79169922 2.55931641 -8.30078125 2.68359375 C-11.09375599 2.91812559 -11.09375599 2.91812559 -14 4 C-17.60015766 4.23090372 -21.20570681 4.18516852 -24.8125 4.1875 C-25.79798828 4.19974609 -26.78347656 4.21199219 -27.79882812 4.22460938 C-32.93312322 4.23495382 -37.19812414 4.06260542 -42 2 C-42 1.67 -42 1.34 -42 1 C-41.16863525 1.00523682 -40.33727051 1.01047363 -39.48071289 1.01586914 C-36.35522728 1.03305289 -33.22976599 1.04551856 -30.10424805 1.05493164 C-28.10268542 1.06235104 -26.10114467 1.07506659 -24.09960938 1.08789062 C-16.01314957 1.10825954 -8.03472325 0 0 0 Z " fill="#C7C7C7" transform="translate(568,633)"/>
<path d="M0 0 C0.33 0 0.66 0 1 0 C1.01981934 0.55872803 1.03963867 1.11745605 1.06005859 1.69311523 C1.1565219 4.27497418 1.26569812 6.85615392 1.375 9.4375 C1.4059375 10.31599609 1.436875 11.19449219 1.46875 12.09960938 C1.69796859 17.27612921 2.30209737 22.08516487 3.58447266 27.10961914 C4 29 4 29 4 32 C1.70620251 28.55930376 1 27.27709699 1 23 C0.34 23 -0.32 23 -1 23 C-1.02894547 19.54168414 -1.04678 16.08339928 -1.0625 12.625 C-1.07087891 11.64015625 -1.07925781 10.6553125 -1.08789062 9.640625 C-1.09111328 8.69960938 -1.09433594 7.75859375 -1.09765625 6.7890625 C-1.10289307 5.91975098 -1.10812988 5.05043945 -1.11352539 4.15478516 C-1 2 -1 2 0 0 Z " fill="#ADADAD" transform="translate(432,762)"/>
<path d="M0 0 C0.33 0 0.66 0 1 0 C1.19112591 5.84581672 0.59695049 10.89907166 -0.8125 16.5625 C-1.0609668 17.63661133 -1.0609668 17.63661133 -1.31445312 18.73242188 C-2.4418754 23.40803352 -3.99511723 27.62832153 -6 32 C-7.37827516 28.21668094 -6.62579417 25.40906141 -5.6875 21.5625 C-5.42324219 20.45003906 -5.15898438 19.33757813 -4.88671875 18.19140625 C-4 15 -4 15 -2.96484375 12.421875 C-1.94015153 9.84977308 -1.38248565 7.40617311 -0.875 4.6875 C-0.62363281 3.36298828 -0.62363281 3.36298828 -0.3671875 2.01171875 C-0.24601563 1.34785156 -0.12484375 0.68398438 0 0 Z " fill="#898989" transform="translate(680,512)"/>
<path d="M0 0 C5.41653899 5.41653899 4.0625 16.58129477 4.0625 23.75 C4.04679439 25.50005353 4.02792396 27.25009878 4 29 C1.91149526 25.86724288 1.66952 24.6661363 1.3671875 21.03515625 C1.28339844 20.07029297 1.19960938 19.10542969 1.11328125 18.11132812 C1.03464844 17.10521484 0.95601563 16.09910156 0.875 15.0625 C0.78863281 14.06025391 0.70226562 13.05800781 0.61328125 12.02539062 C0.27444388 7.99430164 0 4.04855496 0 0 Z " fill="#AAAAAA" transform="translate(401,486)"/>
<path d="M0 0 C0.33 0 0.66 0 1 0 C1.25287193 6.06892629 0.69832609 11.16200408 -1 17 C-1.66 17 -2.32 17 -3 17 C-2.95875 18.0725 -2.9175 19.145 -2.875 20.25 C-2.9885825 23.65747485 -3.21273364 25.20739631 -5 28 C-5.66 28 -6.32 28 -7 28 C-7 29.65 -7 31.3 -7 33 C-7.99 33.495 -7.99 33.495 -9 34 C-8.63813489 30.38134888 -8.24815579 27.48806263 -6.58984375 24.2265625 C-4.84902334 20.69359528 -3.85864853 17.31066989 -2.875 13.5 C-2.54242187 12.2315625 -2.20984375 10.963125 -1.8671875 9.65625 C-1.10521796 6.44362165 -0.49350105 3.26314979 0 0 Z " fill="#6D6D6D" transform="translate(653,508)"/>
<path d="M0 0 C0.57621094 0.22945312 1.15242188 0.45890625 1.74609375 0.6953125 C0.75609375 0.6953125 -0.23390625 0.6953125 -1.25390625 0.6953125 C-1.48851562 1.25734375 -1.723125 1.819375 -1.96484375 2.3984375 C-3.56053625 5.24167141 -5.54315168 7.17629377 -7.87890625 9.4453125 C-9.10480469 10.64414062 -9.10480469 10.64414062 -10.35546875 11.8671875 C-10.98195313 12.47046875 -11.6084375 13.07375 -12.25390625 13.6953125 C-12.58390625 13.0353125 -12.91390625 12.3753125 -13.25390625 11.6953125 C-11.29060954 7.11428684 -5.50398041 -0.74403895 0 0 Z " fill="#B3B3B3" transform="translate(446.25390625,748.3046875)"/>
<path d="M0 0 C4.8616077 0.51719231 9.10197983 1.61886406 13.7109375 3.234375 C17.09643821 4.36672677 20.52704697 5.17912019 24 6 C20.13342728 7.42351434 17.0768324 6.61685356 13.125 5.75 C11.93132812 5.49734375 10.73765625 5.2446875 9.5078125 4.984375 C6.05079443 4.01425412 3.14633996 2.71268658 0 1 C0 0.67 0 0.34 0 0 Z " fill="#9D9D9D" transform="translate(500,599)"/>
<path d="M0 0 C4.00622174 7.63870596 4.28275065 16.51748061 4 25 C0.875 18.75 0.875 18.75 0.68359375 14.6484375 C0.62075195 13.37226562 0.62075195 13.37226562 0.55664062 12.0703125 C0.51732422 11.18085937 0.47800781 10.29140625 0.4375 9.375 C0.39431641 8.4778125 0.35113281 7.580625 0.30664062 6.65625 C0.20043139 4.43765717 0.09838806 2.2189512 0 0 Z " fill="#919191" transform="translate(348,511)"/>
<path d="M0 0 C4.86150039 0.47661768 7.90264025 1.41219384 12 4 C14.69254991 4.70670728 14.69254991 4.70670728 17 5 C17 5.66 17 6.32 17 7 C17.66 7.33 18.32 7.66 19 8 C17.68 8 16.36 8 15 8 C15 7.34 15 6.68 15 6 C14.195625 6.103125 13.39125 6.20625 12.5625 6.3125 C7.60421026 5.8775623 4.16819862 3.59354581 0 1 C0 0.67 0 0.34 0 0 Z " fill="#939393" transform="translate(462,673)"/>
<path d="M0 0 C0.66 0.33 1.32 0.66 2 1 C0.56974806 2.65213589 -0.86945545 4.29652589 -2.3125 5.9375 C-3.11300781 6.85402344 -3.91351563 7.77054687 -4.73828125 8.71484375 C-7 11 -7 11 -10 12 C-8.62968895 6.34746692 -4.32310587 3.4886459 0 0 Z " fill="#B6B6B6" transform="translate(361,471)"/>
<path d="M0 0 C-6.37295696 3.17476348 -11.84937514 5.59524765 -19 6 C-17.09295838 2.18591677 -11.8591041 1.33112819 -8 0 C-2.53658537 -1.26829268 -2.53658537 -1.26829268 0 0 Z " fill="#919191" transform="translate(590,598)"/>
<path d="M0 0 C2.27978741 4.55957482 -1.10065683 11.47495292 -2.625 16.0625 C-3.07875419 17.37659011 -3.53536131 18.68971889 -4 20 C-4.33 20 -4.66 20 -5 20 C-5.35882518 14.25879714 -4.25206577 10.25115823 -2 5 C-1.4121875 3.515 -1.4121875 3.515 -0.8125 2 C-0.544375 1.34 -0.27625 0.68 0 0 Z " fill="#797979" transform="translate(437,319)"/>
<path d="M0 0 C-3.13498292 1.85776765 -5.37471432 2.20140476 -9 2 C-9.33 2.99 -9.66 3.98 -10 5 C-11.8125 6.25 -11.8125 6.25 -14 7 C-16.13671875 6.546875 -16.13671875 6.546875 -18 6 C-5.6875 -2.1875 -5.6875 -2.1875 0 0 Z " fill="#969696" transform="translate(506,253)"/>
<path d="M0 0 C0.33 0 0.66 0 1 0 C0.88501733 2.20887757 0.75756495 4.41710787 0.625 6.625 C0.52058594 8.46964844 0.52058594 8.46964844 0.4140625 10.3515625 C0.0185513 13.83653855 -0.76261849 16.73049601 -2 20 C-2.33 20 -2.66 20 -3 20 C-3 17.03 -3 14.06 -3 11 C-2.34 11 -1.68 11 -1 11 C-1.020625 9.741875 -1.04125 8.48375 -1.0625 7.1875 C-1.10886083 4.35948913 -0.91692961 2.75078884 0 0 Z " fill="#A3A3A3" transform="translate(735,520)"/>
<path d="M0 0 C6.86515862 -0.26404456 13.25846717 0.74158054 20 2 C20 2.33 20 2.66 20 3 C6.3667426 3.3690205 6.3667426 3.3690205 0 1 C0 0.67 0 0.34 0 0 Z " fill="#8E8E8E" transform="translate(494,685)"/>
<path d="M0 0 C4.31395349 8.01162791 4.31395349 8.01162791 3.625 12.375 C3.41875 12.91125 3.2125 13.4475 3 14 C2 13 2 13 1.9375 10.4375 C1.958125 9.633125 1.97875 8.82875 2 8 C1.34 8 0.68 8 0 8 C0 5.36 0 2.72 0 0 Z " fill="#909090" transform="translate(647,317)"/>
<path d="M0 0 C0.66 0.33 1.32 0.66 2 1 C0.6875 2.5 0.6875 2.5 -1 4 C-1.99 4 -2.98 4 -4 4 C-4.33 4.99 -4.66 5.98 -5 7 C-6.32 6.67 -7.64 6.34 -9 6 C-6.03 4.02 -3.06 2.04 0 0 Z " fill="#949494" transform="translate(620,610)"/>
<path d="M0 0 C3.3125 -0.1875 3.3125 -0.1875 7 0 C7.99 0.99 8.98 1.98 10 3 C6.7 2.67 3.4 2.34 0 2 C0 1.34 0 0.68 0 0 Z " fill="#222222" transform="translate(559,245)"/>
</svg>
