<svg width="28" height="20" viewBox="0 0 28 20" fill="none" xmlns="http://www.w3.org/2000/svg">
<path d="M20.3846 10V18C20.3846 18.5523 19.9369 19 19.3846 19H2C1.44772 19 1 18.5523 1 18V2C1 1.44772 1.44771 1 2 1H19.3846C19.9369 1 20.3846 1.44772 20.3846 2V10ZM20.3846 10L26.3846 2.84615V17.1538L20.3846 10ZM12.5663 10.848L9.91461 12.5053C9.24857 12.9216 8.38462 12.4427 8.38462 11.6573V8.34271C8.38462 7.55727 9.24857 7.07843 9.91461 7.49471L12.5663 9.152C13.1929 9.54367 13.1929 10.4563 12.5663 10.848Z" stroke="#B3B3B3" stroke-width="1.5"/>
</svg>
