<svg width="65" height="54" viewBox="0 0 65 54" fill="none" xmlns="http://www.w3.org/2000/svg">
<g filter="url(#filter0_d_269_578)">
<path d="M23.7143 27.1429L32.6114 22L23.7143 16.8571V27.1429ZM43.5314 13.72C43.7543 14.5257 43.9086 15.6057 44.0114 16.9771C44.1314 18.3486 44.1829 19.5314 44.1829 20.56L44.2857 22C44.2857 25.7543 44.0114 28.5143 43.5314 30.28C43.1029 31.8229 42.1086 32.8171 40.5657 33.2457C39.76 33.4686 38.2857 33.6229 36.0229 33.7257C33.7943 33.8457 31.7543 33.8971 29.8686 33.8971L27.1429 34C19.96 34 15.4857 33.7257 13.72 33.2457C12.1771 32.8171 11.1829 31.8229 10.7543 30.28C10.5314 29.4743 10.3771 28.3943 10.2743 27.0229C10.1543 25.6514 10.1029 24.4686 10.1029 23.44L10 22C10 18.2457 10.2743 15.4857 10.7543 13.72C11.1829 12.1771 12.1771 11.1829 13.72 10.7543C14.5257 10.5314 16 10.3771 18.2629 10.2743C20.4914 10.1543 22.5314 10.1029 24.4171 10.1029L27.1429 10C34.3257 10 38.8 10.2743 40.5657 10.7543C42.1086 11.1829 43.1029 12.1771 43.5314 13.72Z" fill="#FF0000"/>
<path d="M23 16V28L33 22L23 16Z" fill="white"/>
</g>
<defs>
<filter id="filter0_d_269_578" x="0" y="0" width="64.2861" height="54" filterUnits="userSpaceOnUse" color-interpolation-filters="sRGB">
<feFlood flood-opacity="0" result="BackgroundImageFix"/>
<feColorMatrix in="SourceAlpha" type="matrix" values="0 0 0 0 0 0 0 0 0 0 0 0 0 0 0 0 0 0 127 0" result="hardAlpha"/>
<feOffset dx="5" dy="5"/>
<feGaussianBlur stdDeviation="7.5"/>
<feComposite in2="hardAlpha" operator="out"/>
<feColorMatrix type="matrix" values="0 0 0 0 0 0 0 0 0 0 0 0 0 0 0 0 0 0 0.4 0"/>
<feBlend mode="normal" in2="BackgroundImageFix" result="effect1_dropShadow_269_578"/>
<feBlend mode="normal" in="SourceGraphic" in2="effect1_dropShadow_269_578" result="shape"/>
</filter>
</defs>
</svg>
